<?xml version="1.0" encoding="UTF-8"?>
<!-- Generator: Adobe Illustrator 16.0.0, SVG Export Plug-In . SVG Version: 6.00 Build 0)  -->
<svg width="20px" height="20px" enable-background="new 0 0 20 20" version="1.1" viewBox="0 0 20 20" xml:space="preserve" xmlns="http://www.w3.org/2000/svg" xmlns:cc="http://creativecommons.org/ns#" xmlns:dc="http://purl.org/dc/elements/1.1/" xmlns:rdf="http://www.w3.org/1999/02/22-rdf-syntax-ns#"><metadata><rdf:RDF><cc:Work rdf:about=""><dc:format>image/svg+xml</dc:format><dc:type rdf:resource="http://purl.org/dc/dcmitype/StillImage"/><dc:title/></cc:Work></rdf:RDF></metadata><g fill-rule="evenodd"><path d="m15.086 3.3077v6.0485l1.6156 9.4861c.05898.29534-.02358.57885-.21224.80328-.20049.23629-.45992.35442-.76651.35442h-1.5212c-.49526 0-.8962-.34259-.97876-.82693l-.20045-1.1223-3.0189-2.4572-3.0307 2.4572-.1887 1.1223c-.082533.48433-.49528.82693-.97877.82693h-1.5212c-.3066 0-.56604-.11813-.76651-.35442-.18868-.22443-.27123-.50794-.22406-.80328l1.6156-9.4861v-6.0485h-.18868c-.54245 0-.99056-.46071-.99056-1.0041v-1.2995c0-.55523.44811-1.0041.99056-1.0041h10.554c.55424 0 1.0023.44891 1.0023 1.0041v1.2995c0 .54341-.4481 1.0041-1.0023 1.0041z" fill="#fff"/><path d="m4.717.99822h1.191 8.184 1.1792v1.2995h-1.1792v7.1353l1.6273 9.5688h-1.5212l-.24761-1.5003-.0118.0118-3.9387-3.2251-3.9505 3.2251v-.0118l-.24764 1.5003h-1.5212l1.6274-9.5688v-7.1353h-1.191zm8.8797 14.46-.61322-3.5913-1.8986 1.5476zm-.87265-5.1506-.05894-.30716h-5.3302l-.058943.30716 2.7241 2.2209zm-5.7075 1.5593-.61321 3.5913 2.5118-2.0437z"/><path d="m7.2833 6.5833h5.3656v-4.2173h-5.3656z" fill="#fff"/></g></svg>
