<svg height="580" width="580" xmlns="http://www.w3.org/2000/svg"><g fill="none"><path d="M445.23 68.313c-19.49 18.879-38.99 37.767-58.47 56.647v330.53c19.18 19.18 38.37 38.38 57.56 57.57M135.48 68.322c19.5 18.877 38.99 37.758 58.49 56.638v330.53c-19.19 19.19-38.38 38.38-57.56 57.57" opacity=".8" stroke="#fff" stroke-linejoin="round" stroke-width="128"/><path d="M135.48 68.322c19.5 18.877 38.99 37.758 58.49 56.638v330.53c-19.19 19.19-38.38 38.38-57.56 57.57M445.23 68.313c-19.49 18.879-38.99 37.767-58.47 56.647v330.53c19.18 19.18 38.37 38.38 57.56 57.57" stroke="#780000" stroke-width="63.23"/></g></svg>