<?xml version="1.0" encoding="UTF-8" standalone="no"?>
<!-- Created with Inkscape (http://www.inkscape.org/) -->

<svg
   xmlns:dc="http://purl.org/dc/elements/1.1/"
   xmlns:cc="http://creativecommons.org/ns#"
   xmlns:rdf="http://www.w3.org/1999/02/22-rdf-syntax-ns#"
   xmlns:svg="http://www.w3.org/2000/svg"
   xmlns="http://www.w3.org/2000/svg"
   xmlns:xlink="http://www.w3.org/1999/xlink"
   xmlns:sodipodi="http://sodipodi.sourceforge.net/DTD/sodipodi-0.dtd"
   xmlns:inkscape="http://www.inkscape.org/namespaces/inkscape"
   width="100"
   height="100"
   id="svg5284"
   version="1.1"
   inkscape:version="0.48.5 r10040"
   sodipodi:docname="p_cliff.svg">
  <defs
     id="defs5286" />
  <sodipodi:namedview
     id="base"
     pagecolor="#ffffff"
     bordercolor="#666666"
     borderopacity="1.0"
     inkscape:pageopacity="0.0"
     inkscape:pageshadow="2"
     inkscape:zoom="2.8284271"
     inkscape:cx="66.460406"
     inkscape:cy="94.125522"
     inkscape:document-units="px"
     inkscape:current-layer="layer1"
     showgrid="false"
     fit-margin-top="0"
     fit-margin-left="0"
     fit-margin-right="0"
     fit-margin-bottom="0"
     inkscape:window-width="1920"
     inkscape:window-height="1178"
     inkscape:window-x="-8"
     inkscape:window-y="-8"
     inkscape:window-maximized="1" />
  <metadata
     id="metadata5289">
    <rdf:RDF>
      <cc:Work
         rdf:about="">
        <dc:format>image/svg+xml</dc:format>
        <dc:type
           rdf:resource="http://purl.org/dc/dcmitype/StillImage" />
        <dc:title />
      </cc:Work>
    </rdf:RDF>
  </metadata>
  <g
     inkscape:label="Livello 1"
     inkscape:groupmode="layer"
     id="layer1"
     transform="translate(-326.8396,-480.51886)">
    <path
       style="opacity:0.3875;fill:none;stroke:#000000;stroke-width:1.59385037;stroke-miterlimit:4;stroke-opacity:1;stroke-dasharray:none;display:inline;enable-background:new"
       d="m 282.4621,426.24711 c -0.13982,2.93641 1.85425,5.23244 4.44012,5.1094 0.0952,-0.0178 0.18491,-0.0292 0.27907,-0.0405 0.18365,2.23681 1.94678,3.87018 4.19952,3.7631 1.48612,-0.0721 2.83998,-0.88979 3.70212,-2.08851 0.47703,0.29946 1.02616,0.44988 1.61492,0.42177 1.91248,-0.0906 3.54597,-2.08332 3.8185,-4.53276 1.35925,-0.67846 2.34056,-2.01131 2.41258,-3.52342 0.0524,-1.10063 -0.40117,-2.05853 -1.14542,-2.71682 0.45354,-0.84256 0.72301,-1.79901 0.77106,-2.80795 0.15026,-3.15576 -2.01715,-5.61297 -4.86599,-5.47722 -0.56548,0.0259 -1.1354,0.17302 -1.65338,0.3837 -0.77981,-0.92129 -1.92713,-1.46027 -3.2312,-1.3983 -1.76966,0.0839 -3.33723,1.26805 -4.15716,2.91397 -0.13742,-0.0178 -0.27405,-0.0178 -0.41537,-0.0178 -2.41057,0.11462 -4.43801,1.83004 -4.534,3.84613 -0.0355,0.74333 0.19701,1.43831 0.6256,1.99341 -1.07121,1.02408 -1.78302,2.52509 -1.86098,4.16242 z"
       id="path6511"
       inkscape:connector-curvature="0"
       inkscape:tile-cx="-27.781538"
       inkscape:tile-cy="-30.853589"
       inkscape:tile-w="20.477857"
       inkscape:tile-h="21.749308"
       inkscape:tile-x0="-38.020466"
       inkscape:tile-y0="-41.728243" />
    <use
       x="0"
       y="0"
       inkscape:tiled-clone-of="#path6511"
       xlink:href="#path6511"
       transform="matrix(1.0564106,0,0,1.0564106,75.168879,61.551931)"
       id="use8261"
       width="100"
       height="100" />
    <use
       x="0"
       y="0"
       inkscape:tiled-clone-of="#path6511"
       xlink:href="#path6511"
       transform="matrix(1.1243881,0,0,1.1243881,36.538511,-1.7738016)"
       id="use8263"
       width="100"
       height="100" />
    <use
       x="0"
       y="0"
       inkscape:tiled-clone-of="#path6511"
       xlink:href="#path6511"
       transform="matrix(1.006933,0,0,1.006933,49.558097,87.696771)"
       id="use8265"
       width="100"
       height="100" />
    <use
       x="0"
       y="0"
       inkscape:tiled-clone-of="#path6511"
       xlink:href="#path6511"
       transform="matrix(1.049853,0,0,1.049853,47.182718,43.573546)"
       id="use8267"
       width="100"
       height="100" />
    <use
       x="0"
       y="0"
       inkscape:tiled-clone-of="#path6511"
       xlink:href="#path6511"
       transform="matrix(1.114183,0,0,1.114183,57.526526,-5.560962)"
       id="use8269"
       width="100"
       height="100" />
    <use
       x="0"
       y="0"
       inkscape:tiled-clone-of="#path6511"
       xlink:href="#path6511"
       transform="matrix(1.1435306,0,0,1.1435306,-1.8766676,70.132934)"
       id="use8271"
       width="100"
       height="100" />
    <use
       x="0"
       y="0"
       inkscape:tiled-clone-of="#path6511"
       xlink:href="#path6511"
       transform="matrix(1.0001338,0,0,1.0001338,110.01622,137.93548)"
       id="use8273"
       width="100"
       height="100" />
    <use
       x="0"
       y="0"
       inkscape:tiled-clone-of="#path6511"
       xlink:href="#path6511"
       transform="matrix(1.166508,0,0,1.166508,75.647558,-16.141508)"
       id="use8275"
       width="100"
       height="100" />
    <use
       x="0"
       y="0"
       inkscape:tiled-clone-of="#path6511"
       xlink:href="#path6511"
       transform="matrix(1.0915515,0,0,1.0915515,-2.4772713,46.458961)"
       id="use8277"
       width="100"
       height="100" />
    <use
       x="0"
       y="0"
       inkscape:tiled-clone-of="#path6511"
       xlink:href="#path6511"
       transform="matrix(1.19648,0,0,1.19648,47.16724,-25.077911)"
       id="use8279"
       width="100"
       height="100" />
    <use
       x="0"
       y="0"
       inkscape:tiled-clone-of="#path6511"
       xlink:href="#path6511"
       transform="matrix(1.0514092,0,0,1.0514092,99.549432,49.880979)"
       id="use8281"
       width="100"
       height="100" />
    <use
       x="0"
       y="0"
       inkscape:tiled-clone-of="#path6511"
       xlink:href="#path6511"
       transform="matrix(1.106758,0,0,1.106758,128.11004,40.228466)"
       id="use8283"
       width="100"
       height="100" />
    <use
       x="0"
       y="0"
       inkscape:tiled-clone-of="#path6511"
       xlink:href="#path6511"
       transform="matrix(1.1405867,0,0,1.1405867,96.396819,61.521314)"
       id="use8285"
       width="100"
       height="100" />
    <use
       x="0"
       y="0"
       inkscape:tiled-clone-of="#path6511"
       xlink:href="#path6511"
       transform="matrix(1.1418878,0,0,1.1418878,22.575907,21.646135)"
       id="use8287"
       width="100"
       height="100" />
    <use
       x="0"
       y="0"
       inkscape:tiled-clone-of="#path6511"
       xlink:href="#path6511"
       transform="matrix(0.99331886,0,0,0.99331886,95.876675,137.88657)"
       id="use8289"
       width="100"
       height="100" />
    <use
       x="0"
       y="0"
       inkscape:tiled-clone-of="#path6511"
       xlink:href="#path6511"
       transform="matrix(1.0972993,0,0,1.0972993,94.755654,45.340536)"
       id="use8291"
       width="100"
       height="100" />
    <use
       x="0"
       y="0"
       inkscape:tiled-clone-of="#path6511"
       xlink:href="#path6511"
       transform="matrix(0.99539242,0,0,0.99539242,37.464355,53.245259)"
       id="use8293"
       width="100"
       height="100" />
    <use
       x="0"
       y="0"
       inkscape:tiled-clone-of="#path6511"
       xlink:href="#path6511"
       transform="matrix(1.0597265,0,0,1.0597265,98.453423,76.24671)"
       id="use8295"
       width="100"
       height="100" />
    <use
       x="0"
       y="0"
       inkscape:tiled-clone-of="#path6511"
       xlink:href="#path6511"
       transform="matrix(1.1294538,0,0,1.1294538,47.215384,64.065757)"
       id="use8297"
       width="100"
       height="100" />
    <use
       x="0"
       y="0"
       inkscape:tiled-clone-of="#path6511"
       xlink:href="#path6511"
       transform="matrix(1.1621363,0,0,1.1621363,9.3591597,68.610936)"
       id="use8299"
       width="100"
       height="100" />
    <use
       x="0"
       y="0"
       inkscape:tiled-clone-of="#path6511"
       xlink:href="#path6511"
       transform="matrix(0.99839315,0,0,0.99839315,110.99694,156.53423)"
       id="use8301"
       width="100"
       height="100" />
    <use
       x="0"
       y="0"
       inkscape:tiled-clone-of="#path6511"
       xlink:href="#path6511"
       transform="matrix(0.99943741,0,0,0.99943741,66.714067,128.20546)"
       id="use8303"
       width="100"
       height="100" />
    <use
       x="0"
       y="0"
       inkscape:tiled-clone-of="#path6511"
       xlink:href="#path6511"
       transform="matrix(1.0907142,0,0,1.0907142,106.64135,101.8174)"
       id="use8305"
       width="100"
       height="100" />
    <use
       x="0"
       y="0"
       inkscape:tiled-clone-of="#path6511"
       xlink:href="#path6511"
       transform="matrix(1.0407123,0,0,1.0407123,110.70474,113.22844)"
       id="use8307"
       width="100"
       height="100" />
    <use
       x="0"
       y="0"
       inkscape:tiled-clone-of="#path6511"
       xlink:href="#path6511"
       transform="matrix(1.0954658,0,0,1.0954658,81.966682,2.6576978)"
       id="use8309"
       width="100"
       height="100" />
    <use
       x="0"
       y="0"
       inkscape:tiled-clone-of="#path6511"
       xlink:href="#path6511"
       transform="matrix(1.1307084,0,0,1.1307084,28.66977,43.692162)"
       id="use8311"
       width="100"
       height="100" />
    <use
       x="0"
       y="0"
       inkscape:tiled-clone-of="#path6511"
       xlink:href="#path6511"
       transform="matrix(0.9947403,0,0,0.9947403,85.173262,105.40105)"
       id="use8313"
       width="100"
       height="100" />
    <use
       x="0"
       y="0"
       inkscape:tiled-clone-of="#path6511"
       xlink:href="#path6511"
       transform="matrix(1.0229549,0,0,1.0229549,89.949058,61.470886)"
       id="use8315"
       width="100"
       height="100" />
    <use
       x="0"
       y="0"
       inkscape:tiled-clone-of="#path6511"
       xlink:href="#path6511"
       transform="matrix(1.1182732,0,0,1.1182732,43.549004,38.119707)"
       id="use8317"
       width="100"
       height="100" />
    <use
       x="0"
       y="0"
       inkscape:tiled-clone-of="#path6511"
       xlink:href="#path6511"
       transform="matrix(1.1662665,0,0,1.1662665,61.961316,48.207916)"
       id="use8319"
       width="100"
       height="100" />
    <use
       x="0"
       y="0"
       inkscape:tiled-clone-of="#path6511"
       xlink:href="#path6511"
       transform="matrix(1.0021789,0,0,1.0021789,47.297745,144.79667)"
       id="use8321"
       width="100"
       height="100" />
    <use
       x="0"
       y="0"
       inkscape:tiled-clone-of="#path6511"
       xlink:href="#path6511"
       transform="matrix(1.1836024,0,0,1.1836024,87.875326,7.8974114)"
       id="use8323"
       width="100"
       height="100" />
    <use
       x="0"
       y="0"
       inkscape:tiled-clone-of="#path6511"
       xlink:href="#path6511"
       transform="matrix(1.0512948,0,0,1.0512948,38.619854,28.964892)"
       id="use8325"
       width="100"
       height="100" />
    <use
       x="0"
       y="0"
       inkscape:tiled-clone-of="#path6511"
       xlink:href="#path6511"
       transform="matrix(1.0161814,0,0,1.0161814,125.74311,64.605872)"
       id="use8327"
       width="100"
       height="100" />
    <use
       x="0"
       y="0"
       inkscape:tiled-clone-of="#path6511"
       xlink:href="#path6511"
       transform="matrix(1.0764376,0,0,1.0764376,105.26197,127.43096)"
       id="use8329"
       width="100"
       height="100" />
    <use
       x="0"
       y="0"
       inkscape:tiled-clone-of="#path6511"
       xlink:href="#path6511"
       transform="matrix(1.1612217,0,0,1.1612217,52.060758,79.186699)"
       id="use8331"
       width="100"
       height="100" />
    <use
       x="0"
       y="0"
       inkscape:tiled-clone-of="#path6511"
       xlink:href="#path6511"
       transform="matrix(1.1329531,0,0,1.1329531,40.619505,110.92989)"
       id="use8333"
       width="100"
       height="100" />
    <use
       x="0"
       y="0"
       inkscape:tiled-clone-of="#path6511"
       xlink:href="#path6511"
       transform="matrix(1.1330139,0,0,1.1330139,15.675553,65.478993)"
       id="use8335"
       width="100"
       height="100" />
    <use
       x="0"
       y="0"
       inkscape:tiled-clone-of="#path6511"
       xlink:href="#path6511"
       transform="matrix(1.0800901,0,0,1.0800901,125.4935,69.947826)"
       id="use8337"
       width="100"
       height="100" />
    <use
       x="0"
       y="0"
       inkscape:tiled-clone-of="#path6511"
       xlink:href="#path6511"
       transform="matrix(1.0806108,0,0,1.0806108,16.879553,79.210493)"
       id="use8339"
       width="100"
       height="100" />
    <use
       x="0"
       y="0"
       inkscape:tiled-clone-of="#path6511"
       xlink:href="#path6511"
       transform="matrix(1.0034201,0,0,1.0034201,58.788312,152.47995)"
       id="use8341"
       width="100"
       height="100" />
    <use
       x="0"
       y="0"
       inkscape:tiled-clone-of="#path6511"
       xlink:href="#path6511"
       transform="matrix(1.1259676,0,0,1.1259676,61.461667,50.349392)"
       id="use8343"
       width="100"
       height="100" />
    <use
       x="0"
       y="0"
       inkscape:tiled-clone-of="#path6511"
       xlink:href="#path6511"
       transform="matrix(1.0562588,0,0,1.0562588,103.29739,122.36433)"
       id="use8345"
       width="100"
       height="100" />
    <use
       x="0"
       y="0"
       inkscape:tiled-clone-of="#path6511"
       xlink:href="#path6511"
       transform="matrix(1.1502385,0,0,1.1502385,10.310744,42.45799)"
       id="use8347"
       width="100"
       height="100" />
    <use
       x="0"
       y="0"
       inkscape:tiled-clone-of="#path6511"
       xlink:href="#path6511"
       transform="matrix(1.0406246,0,0,1.0406246,135.47394,50.647541)"
       id="use8349"
       width="100"
       height="100" />
    <use
       x="0"
       y="0"
       inkscape:tiled-clone-of="#path6511"
       xlink:href="#path6511"
       transform="matrix(1.0892103,0,0,1.0892103,19.064499,27.514916)"
       id="use8351"
       width="100"
       height="100" />
    <use
       x="0"
       y="0"
       inkscape:tiled-clone-of="#path6511"
       xlink:href="#path6511"
       transform="matrix(1.0464723,0,0,1.0464723,24.328957,77.119932)"
       id="use8353"
       width="100"
       height="100" />
    <use
       x="0"
       y="0"
       inkscape:tiled-clone-of="#path6511"
       xlink:href="#path6511"
       transform="matrix(1.1928039,0,0,1.1928039,96.191111,39.584285)"
       id="use8355"
       width="100"
       height="100" />
    <use
       x="0"
       y="0"
       inkscape:tiled-clone-of="#path6511"
       xlink:href="#path6511"
       transform="matrix(1.1799758,0,0,1.1799758,41.035607,86.017163)"
       id="use8357"
       width="100"
       height="100" />
    <use
       x="0"
       y="0"
       inkscape:tiled-clone-of="#path6511"
       xlink:href="#path6511"
       transform="matrix(0.99234764,0,0,0.99234764,30.742825,70.576534)"
       id="use8359"
       width="100"
       height="100" />
    <use
       x="0"
       y="0"
       inkscape:tiled-clone-of="#path6511"
       xlink:href="#path6511"
       transform="matrix(1.112423,0,0,1.112423,100.6246,54.216029)"
       id="use8361"
       width="100"
       height="100" />
    <use
       x="0"
       y="0"
       inkscape:tiled-clone-of="#path6511"
       xlink:href="#path6511"
       transform="matrix(1.1880004,0,0,1.1880004,50.790892,8.4057763)"
       id="use8363"
       width="100"
       height="100" />
    <use
       x="0"
       y="0"
       inkscape:tiled-clone-of="#path6511"
       xlink:href="#path6511"
       transform="matrix(1.0020674,0,0,1.0020674,38.950883,79.918995)"
       id="use8365"
       width="100"
       height="100" />
    <use
       x="0"
       y="0"
       inkscape:tiled-clone-of="#path6511"
       xlink:href="#path6511"
       transform="matrix(1.0422095,0,0,1.0422095,73.118542,126.88303)"
       id="use8367"
       width="100"
       height="100" />
    <use
       x="0"
       y="0"
       inkscape:tiled-clone-of="#path6511"
       xlink:href="#path6511"
       transform="matrix(1.0955702,0,0,1.0955702,69.793137,83.091354)"
       id="use8369"
       width="100"
       height="100" />
    <use
       x="0"
       y="0"
       inkscape:tiled-clone-of="#path6511"
       xlink:href="#path6511"
       transform="matrix(1.0279704,0,0,1.0279704,61.268338,129.82097)"
       id="use8371"
       width="100"
       height="100" />
    <use
       x="0"
       y="0"
       inkscape:tiled-clone-of="#path6511"
       xlink:href="#path6511"
       transform="matrix(0.99713395,0,0,0.99713395,78.63743,130.769)"
       id="use8373"
       width="100"
       height="100" />
    <use
       x="0"
       y="0"
       inkscape:tiled-clone-of="#path6511"
       xlink:href="#path6511"
       transform="matrix(1.1392981,0,0,1.1392981,83.737183,55.767595)"
       id="use8375"
       width="100"
       height="100" />
    <use
       x="0"
       y="0"
       inkscape:tiled-clone-of="#path6511"
       xlink:href="#path6511"
       transform="matrix(1.1192228,0,0,1.1192228,42.389556,21.042874)"
       id="use8377"
       width="100"
       height="100" />
    <use
       x="0"
       y="0"
       inkscape:tiled-clone-of="#path6511"
       xlink:href="#path6511"
       transform="matrix(1.0280421,0,0,1.0280421,79.149848,47.594768)"
       id="use8379"
       width="100"
       height="100" />
    <use
       x="0"
       y="0"
       inkscape:tiled-clone-of="#path6511"
       xlink:href="#path6511"
       transform="matrix(1.1368348,0,0,1.1368348,-3.313951,94.375057)"
       id="use8381"
       width="100"
       height="100" />
    <use
       x="0"
       y="0"
       inkscape:tiled-clone-of="#path6511"
       xlink:href="#path6511"
       transform="matrix(1.0492779,0,0,1.0492779,55.722757,93.341647)"
       id="use8383"
       width="100"
       height="100" />
    <use
       x="0"
       y="0"
       inkscape:tiled-clone-of="#path6511"
       xlink:href="#path6511"
       transform="matrix(0.98883111,0,0,0.98883111,149.42226,141.61442)"
       id="use8385"
       width="100"
       height="100" />
    <use
       x="0"
       y="0"
       inkscape:tiled-clone-of="#path6511"
       xlink:href="#path6511"
       transform="matrix(1.085412,0,0,1.085412,51.197521,117.42341)"
       id="use8387"
       width="100"
       height="100" />
  </g>
</svg>
