<svg xmlns="http://www.w3.org/2000/svg" width="100" height="100"><path fill="#f7f5e5" d="M103.75-3.75v108h-108v-108z"/><path fill="#efe9c9" d="M50 98.437H0v-3.125h50zM50 92.187H0v-3.125h50zM50 85.937H0v-3.125h50zM50 79.687H0v-3.125h50zM50 73.437H0v-3.125h50zM50 67.187H0v-3.125h50zM50 60.937H0v-3.125h50zM50 54.687H0v-3.125h50zM50 1.562h50v3.125H50zM50 7.812h50v3.125H50zM50 14.062h50v3.125H50zM50 20.312h50v3.125H50zM50 26.562h50v3.125H50zM50 32.812h50v3.125H50zM50 39.062h50v3.125H50zM50 45.312h50v3.125H50zM98.438 50v50h-3.125V50zM92.188 50v50h-3.125V50zM85.938 50v50h-3.125V50zM79.688 50v50h-3.125V50zM73.438 50v50h-3.125V50zM67.188 50v50h-3.125V50zM60.938 50v50h-3.125V50zM54.688 50v50h-3.125V50zM1.563 50V0h3.125v50zM7.813 50V0h3.125v50zM14.063 50V0h3.125v50zM20.313 50V0h3.125v50zM26.563 50V0h3.125v50zM32.813 50V0h3.125v50zM39.063 50V0h3.125v50zM45.313 50V0h3.125v50z"/></svg>