<?xml version="1.0" encoding="UTF-8" standalone="no"?>
<!-- Created with Inkscape (http://www.inkscape.org/) -->

<svg
   xmlns:dc="http://purl.org/dc/elements/1.1/"
   xmlns:cc="http://creativecommons.org/ns#"
   xmlns:rdf="http://www.w3.org/1999/02/22-rdf-syntax-ns#"
   xmlns:svg="http://www.w3.org/2000/svg"
   xmlns="http://www.w3.org/2000/svg"
   xmlns:sodipodi="http://sodipodi.sourceforge.net/DTD/sodipodi-0.dtd"
   xmlns:inkscape="http://www.inkscape.org/namespaces/inkscape"
   width="100"
   height="100"
   id="svg4947"
   version="1.1"
   inkscape:version="0.91 r13725"
   sodipodi:docname="p_fell.svg">
  <defs
     id="defs4949" />
  <sodipodi:namedview
     id="base"
     pagecolor="#ffffff"
     bordercolor="#666666"
     borderopacity="1.0"
     inkscape:pageopacity="0.0"
     inkscape:pageshadow="2"
     inkscape:zoom="1.4"
     inkscape:cx="9.3228329"
     inkscape:cy="-26.157019"
     inkscape:document-units="px"
     inkscape:current-layer="layer1"
     showgrid="false"
     fit-margin-top="0"
     fit-margin-left="0"
     fit-margin-right="0"
     fit-margin-bottom="0"
     inkscape:window-width="1920"
     inkscape:window-height="1178"
     inkscape:window-x="-8"
     inkscape:window-y="-8"
     inkscape:window-maximized="1" />
  <metadata
     id="metadata4952">
    <rdf:RDF>
      <cc:Work
         rdf:about="">
        <dc:format>image/svg+xml</dc:format>
        <dc:type
           rdf:resource="http://purl.org/dc/dcmitype/StillImage" />
        <dc:title />
      </cc:Work>
    </rdf:RDF>
  </metadata>
  <g
     inkscape:label="Livello 1"
     inkscape:groupmode="layer"
     id="layer1"
     transform="translate(110.7919,-370.18942)">
    <rect
       inkscape:label="#rect4361"
       y="362.33228"
       x="-118.64904"
       height="115.71429"
       width="115.71429"
       id="rect5421"
       style="fill:#e5ffe1;fill-opacity:0.73333335;fill-rule:nonzero;stroke:none;display:inline;enable-background:new" />
    <path
       style="fill:#f06000;fill-opacity:0.14117647;stroke:none;display:inline;enable-background:new"
       d="m -45.096257,422.70128 c -8.662657,1.52747 -8.775625,13.80411 -5.338375,16.01354 4.977281,3.19936 12.498687,-0.88309 15.678046,1.42721 3.179375,2.31033 20.648016,-0.65521 14.193172,-6.6943 -6.454859,-6.03914 -12.13039,-5.03839 -14.738937,-6.73159 -2.608563,-1.69322 -9.793906,-4.01486 -9.793906,-4.01486 z"
       id="path5423"
       inkscape:connector-curvature="0"
       sodipodi:nodetypes="cssssc" />
    <path
       style="fill:#f06000;fill-opacity:0.14117647;stroke:none;display:inline;enable-background:new"
       d="m -48.16582,406.48473 c 11.250313,-6.29206 5.222453,-23.17744 -0.659875,-24.54072 -8.517922,-1.97411 -16.897562,7.26767 -22.472922,5.64113 -5.575375,-1.62657 -28.319892,10.90443 -16.321219,16.05572 11.998735,5.1512 19.369579,1.02881 23.842032,2.08593 4.472484,1.05719 15.611984,0.75794 15.611984,0.75794 z"
       id="path5425"
       inkscape:connector-curvature="0"
       sodipodi:nodetypes="cssssc" />
    <path
       style="fill:#f06000;fill-opacity:0.14117647;stroke:none;display:inline;enable-background:new"
       d="m -96.924009,443.39411 c -6.234511,4.18031 -2.087953,13.80145 1.357,14.34032 4.988486,0.7803 9.450861,-5.00059 12.729345,-4.29404 3.278532,0.70658 15.89025,-7.63372 8.768953,-10.12083 -7.121281,-2.48713 -11.205953,0.25169 -13.826062,-0.17011 -2.620078,-0.42177 -9.029236,0.24466 -9.029236,0.24466 z"
       id="path5427"
       inkscape:connector-curvature="0"
       sodipodi:nodetypes="cssssc" />
  </g>
</svg>
