<svg width="100" height="100" version="1.1" xmlns="http://www.w3.org/2000/svg">
 <g transform="translate(110.79 -370.19)">
  <rect x="-118.65" y="362.33" width="115.71" height="115.71" enable-background="new" fill="#e5ffe1" fill-opacity=".73333"/>
  <g fill="#f06000" fill-opacity=".14118">
   <path d="m-45.096 422.7c-8.6627 1.5275-8.7756 13.804-5.3384 16.014 4.9773 3.1994 12.499-0.88309 15.678 1.4272 3.1794 2.3103 20.648-0.65521 14.193-6.6943-6.4549-6.0391-12.13-5.0384-14.739-6.7316-2.6086-1.6932-9.7939-4.0149-9.7939-4.0149z" enable-background="new"/>
   <path d="m-48.166 406.48c11.25-6.2921 5.2225-23.177-0.65988-24.541-8.5179-1.9741-16.898 7.2677-22.473 5.6411-5.5754-1.6266-28.32 10.904-16.321 16.056 11.999 5.1512 19.37 1.0288 23.842 2.0859 4.4725 1.0572 15.612 0.75794 15.612 0.75794z" enable-background="new"/>
   <path d="m-96.924 443.39c-6.2345 4.1803-2.088 13.801 1.357 14.34 4.9885 0.7803 9.4509-5.0006 12.729-4.294 3.2785 0.70658 15.89-7.6337 8.769-10.121-7.1213-2.4871-11.206 0.25169-13.826-0.17011-2.6201-0.42177-9.0292 0.24466-9.0292 0.24466z" enable-background="new"/>
  </g>
 </g>
</svg>
