<svg xmlns="http://www.w3.org/2000/svg" width="100" height="100"><path fill="#bed58c" fill-opacity=".604" d="M-3.138-3.428h106.566v106.566H-3.138z"/><path d="M63.544 25.13c-.04-5.285.115-6.245.003-8.61-.078-1.676-.37-4.587.015-4.387 1.545.798 2.994 20.393.58 20.393-.838 0-1.005-2.055-.6-7.396zM73.149 30.747c0-.978.2-2.577.835-4.34.81-2.248 2.492-2.815.709-2.13-.774.296-2.098 1.854-2.676 3.514-1.308 3.75-1.104 4.735.148 4.735.54 0 .984-.8.984-1.779zm-3.934-1.107c0-3.799.898-6.154 2.017-9.299 1.153-3.239 3.814-5.532 1.293-3.445-3.702 3.063-7.155 15.63-4.294 15.63.54 0 .984-1.299.984-2.886z" fill="#7f9529"/><path d="M74.222 38.69c-1.296.053-2.62.043-3.89.305-.32.185-.132.692.221.683 1.934.446 3.952.305 5.927.304.847-.038 1.731-.056 2.527-.354.316-.21.1-.715-.263-.69-1.478-.324-3.015-.264-4.521-.248z" fill="#71afb3"/><path d="M54.631 30.747c0-.978-.2-2.577-.835-4.34-.81-2.248-2.492-2.815-.709-2.13.774.296 2.098 1.854 2.677 3.514 1.307 3.75 1.103 4.735-.149 4.735-.54 0-.984-.8-.984-1.779zm3.935-1.107c0-3.799-.899-6.154-2.018-9.299-1.153-3.239-3.814-5.532-1.293-3.445 3.702 3.063 7.155 15.63 4.294 15.63-.54 0-.983-1.299-.983-2.886z" fill="#7f9529"/><path d="M68.19 35.001c-3.18.047-6.373.057-9.542.289-.3.048-.448.492-.12.617 1.583.356 3.237.28 4.856.365 4.448.094 8.906.138 13.346-.177.314-.063.93-.07.863-.521-.218-.429-.837-.286-1.227-.37-2.72-.211-5.45-.208-8.176-.203z" fill="#71afb3"/><path d="M75.763 83.88c-2.461.102-4.973.082-7.385.58-.606.35-.25 1.312.42 1.296 3.672.846 7.502.579 11.25.576 1.608-.072 3.286-.105 4.796-.67.6-.4.191-1.358-.498-1.312-2.807-.614-5.723-.5-8.583-.47zM72.378 77.25c-6.037.09-12.097.108-18.112.548-.568.091-.85.934-.229 1.172 3.007.676 6.147.532 9.22.692 8.441.178 16.904.262 25.33-.336.595-.12 1.765-.132 1.638-.989-.414-.813-1.588-.542-2.329-.702-5.161-.4-10.344-.395-15.518-.384z" fill="#87bbbf"/><g><path d="M21.112 50.894c.044-5.813-.126-6.87-.004-9.471.086-1.843.409-5.046-.016-4.826-1.7.878-3.294 22.433-.638 22.433.921 0 1.105-2.26.66-8.136zM10.547 57.073c0-1.076-.22-2.835-.92-4.774-.89-2.473-2.74-3.097-.779-2.344.851.326 2.308 2.04 2.944 3.866 1.438 4.125 1.214 5.21-.163 5.21-.595 0-1.082-.882-1.082-1.958zm4.327-1.218c0-4.179-.988-6.77-2.22-10.229-1.267-3.562-4.195-6.085-1.421-3.79 4.072 3.37 7.87 17.194 4.723 17.194-.595 0-1.082-1.429-1.082-3.175z" fill="#7f9529"/><path d="M9.366 65.81c1.426.059 2.882.048 4.28.336.35.203.145.76-.244.751-2.128.49-4.347.336-6.52.334-.932-.042-1.904-.06-2.78-.389-.347-.231-.11-.786.29-.76 1.626-.356 3.316-.29 4.973-.272z" fill="#71afb3"/><path d="M30.916 57.073c0-1.076.22-2.835.919-4.774.89-2.473 2.741-3.097.78-2.344-.852.326-2.308 2.04-2.945 3.866-1.437 4.125-1.214 5.21.164 5.21.595 0 1.082-.882 1.082-1.958zm-4.328-1.218c0-4.179.989-6.77 2.22-10.229 1.268-3.562 4.195-6.085 1.422-3.79-4.073 3.37-7.87 17.194-4.724 17.194.595 0 1.082-1.429 1.082-3.175z" fill="#7f9529"/><path d="M16.001 61.752c3.499.052 7.01.063 10.497.318.329.053.493.54.132.68-1.742.39-3.562.307-5.343.4-4.892.103-9.796.152-14.68-.195-.345-.069-1.023-.076-.949-.573.24-.471.92-.314 1.35-.407 2.991-.232 5.995-.229 8.993-.222z" fill="#71afb3"/></g></svg>