<?xml version="1.0" encoding="UTF-8" standalone="no"?>
<!-- Created with Inkscape (http://www.inkscape.org/) -->

<svg
   xmlns:dc="http://purl.org/dc/elements/1.1/"
   xmlns:cc="http://creativecommons.org/ns#"
   xmlns:rdf="http://www.w3.org/1999/02/22-rdf-syntax-ns#"
   xmlns:svg="http://www.w3.org/2000/svg"
   xmlns="http://www.w3.org/2000/svg"
   xmlns:sodipodi="http://sodipodi.sourceforge.net/DTD/sodipodi-0.dtd"
   xmlns:inkscape="http://www.inkscape.org/namespaces/inkscape"
   width="100"
   height="100"
   id="svg4192"
   version="1.1"
   inkscape:version="0.48.5 r10040"
   sodipodi:docname="p_marsh.svg">
  <defs
     id="defs4194" />
  <sodipodi:namedview
     id="base"
     pagecolor="#ffffff"
     bordercolor="#666666"
     borderopacity="1.0"
     inkscape:pageopacity="0.0"
     inkscape:pageshadow="2"
     inkscape:zoom="3.959798"
     inkscape:cx="86.129425"
     inkscape:cy="42.447078"
     inkscape:document-units="px"
     inkscape:current-layer="layer1"
     showgrid="false"
     fit-margin-top="0"
     fit-margin-left="0"
     fit-margin-right="0"
     fit-margin-bottom="0"
     inkscape:window-width="1920"
     inkscape:window-height="1178"
     inkscape:window-x="-8"
     inkscape:window-y="-8"
     inkscape:window-maximized="1" />
  <metadata
     id="metadata4197">
    <rdf:RDF>
      <cc:Work
         rdf:about="">
        <dc:format>image/svg+xml</dc:format>
        <dc:type
           rdf:resource="http://purl.org/dc/dcmitype/StillImage" />
        <dc:title></dc:title>
      </cc:Work>
    </rdf:RDF>
  </metadata>
  <g
     inkscape:label="Livello 1"
     inkscape:groupmode="layer"
     id="layer1"
     transform="translate(-311,-496.36218)">
    <rect
       inkscape:label="#rect4376"
       y="492.93448"
       x="307.86169"
       height="106.56599"
       width="106.56599"
       id="rect4669"
       style="fill:#bed58c;fill-opacity:0.6039604;fill-rule:nonzero;stroke:none;display:inline;enable-background:new" />
    <g
       style="display:inline;enable-background:new"
       id="g5532"
       transform="matrix(0.78125,0,0,0.78125,-116.56193,246.88093)">
      <path
         style="fill:#7f9529;fill-opacity:1;stroke:none"
         d="m 628.61565,351.50251 c -0.0513,-6.76479 0.14665,-7.99392 0.004,-11.02109 -0.0999,-2.14477 -0.47498,-5.87139 0.0187,-5.6155 1.97796,1.02168 3.83314,26.10385 0.74259,26.10385 -1.07211,0 -1.28569,-2.63056 -0.76866,-9.46726 l 6.3e-4,0 0,0 z"
         id="path4673"
         sodipodi:nodetypes="csssccc"
         inkscape:connector-curvature="0" />
      <path
         sodipodi:nodetypes="csssscccsssc"
         id="path4675"
         d="m 640.90952,358.69256 c 0,-1.25247 0.25664,-3.29938 1.06941,-5.55546 1.03661,-2.87737 3.19014,-3.60379 0.90694,-2.72765 -0.99022,0.37999 -2.68471,2.37389 -3.42546,4.49891 -1.67316,4.79963 -1.41266,6.06141 0.19005,6.06141 0.69242,0 1.25891,-1.02474 1.25891,-2.27721 l 4e-5,0 z m -5.03566,-1.41757 c 0,-4.86225 1.15011,-7.87685 2.58272,-11.90239 1.47541,-4.14564 4.88208,-7.08126 1.65439,-4.41014 -4.73865,3.92158 -9.15746,20.00731 -5.49601,20.00731 0.69238,0 1.2589,-1.66265 1.2589,-3.69478 z"
         style="fill:#7f9529;fill-opacity:1;stroke:none"
         inkscape:connector-curvature="0" />
      <path
         style="fill:#71afb3;fill-opacity:1;stroke:none"
         d="m 642.28399,368.85909 c -1.66,0.0685 -3.35355,0.0554 -4.98051,0.39114 -0.40832,0.23644 -0.16873,0.88471 0.28358,0.87401 2.47617,0.57038 5.05877,0.39028 7.58669,0.38863 1.08419,-0.049 2.21593,-0.0711 3.23409,-0.45275 0.40431,-0.26899 0.12907,-0.91502 -0.33596,-0.88427 -1.89251,-0.41418 -3.85894,-0.33745 -5.78767,-0.31687 z"
         id="path4677"
         inkscape:connector-curvature="0" />
      <path
         style="fill:#7f9529;fill-opacity:1;stroke:none"
         d="m 617.20746,358.69256 c 0,-1.25247 -0.25664,-3.29938 -1.06945,-5.55546 -1.03657,-2.87737 -3.1901,-3.60379 -0.9069,-2.72765 0.99022,0.37999 2.68467,2.37389 3.42546,4.49891 1.67316,4.79963 1.41267,6.06141 -0.19005,6.06141 -0.69242,0 -1.25895,-1.02474 -1.25895,-2.27721 l 0,0 z m 5.03566,-1.41757 c 0,-4.86225 -1.15011,-7.87685 -2.58276,-11.90239 -1.47537,-4.14564 -4.88204,-7.08126 -1.65438,-4.41014 4.73868,3.92158 9.15746,20.00731 5.49604,20.00731 -0.69241,0 -1.2589,-1.66265 -1.2589,-3.69478 z"
         id="path4679"
         sodipodi:nodetypes="csssscccsssc"
         inkscape:connector-curvature="0" />
      <path
         style="fill:#71afb3;fill-opacity:1;stroke:none"
         d="m 634.56254,364.1375 c -4.07103,0.0599 -8.15785,0.0726 -12.21441,0.36926 -0.38279,0.0617 -0.57337,0.62963 -0.15413,0.79062 2.02745,0.45534 4.14511,0.35878 6.21734,0.46615 5.6928,0.12046 11.3997,0.17696 17.08205,-0.22634 0.40169,-0.0804 1.19074,-0.089 1.10466,-0.66664 -0.27872,-0.54857 -1.07099,-0.36552 -1.57021,-0.47382 -3.48098,-0.26974 -6.97602,-0.26637 -10.46515,-0.25889 z"
         id="path4681"
         inkscape:connector-curvature="0" />
    </g>
    <path
       inkscape:connector-curvature="0"
       id="path4683"
       d="m 386.76307,580.24236 c -2.46153,0.10164 -4.97281,0.0821 -7.38535,0.58003 -0.60544,0.3506 -0.25008,1.31187 0.42052,1.29602 3.67178,0.84578 7.50139,0.5787 11.24993,0.57627 1.60767,-0.0727 3.28587,-0.10554 4.79564,-0.67139 0.59955,-0.39882 0.19122,-1.3568 -0.49817,-1.31121 -2.8063,-0.61418 -5.72223,-0.50038 -8.58224,-0.4699 z"
       style="fill:#87bbbf;fill-opacity:1;stroke:none;display:inline;enable-background:new" />
    <path
       inkscape:connector-curvature="0"
       id="path4685"
       d="m 383.37778,573.61261 c -6.03671,0.0888 -12.09688,0.10777 -18.11212,0.54756 -0.56762,0.0915 -0.85022,0.93366 -0.22848,1.17234 3.00642,0.67521 6.1466,0.53203 9.21939,0.69125 8.44156,0.17866 16.90402,0.26246 25.33007,-0.33564 0.59568,-0.11911 1.7657,-0.13227 1.63806,-0.98851 -0.41331,-0.81344 -1.5881,-0.54203 -2.32838,-0.7026 -5.16178,-0.39999 -10.34439,-0.395 -15.51824,-0.38393 z"
       style="fill:#87bbbf;fill-opacity:1;stroke:none;display:inline;enable-background:new" />
    <g
       style="display:inline;enable-background:new"
       id="g5566"
       transform="matrix(0.859375,0,0,0.859375,-164.22733,221.29824)">
      <g
         transform="matrix(-1,0,0,1,1149.5239,0)"
         id="g5525">
        <path
           style="fill:#7f9529;fill-opacity:1;stroke:none"
           d="m 571.96562,379.29671 c -0.0513,-6.76479 0.14665,-7.99392 0.004,-11.02109 -0.0999,-2.14477 -0.47498,-5.87139 0.0187,-5.6155 1.97796,1.02168 3.83314,26.10385 0.74259,26.10385 -1.07211,0 -1.28569,-2.63056 -0.76866,-9.46726 l 6.3e-4,0 0,0 z"
           id="path4689"
           sodipodi:nodetypes="csssccc"
           inkscape:connector-curvature="0" />
        <path
           sodipodi:nodetypes="csssscccsssc"
           id="path4691"
           d="m 584.25949,386.48676 c 0,-1.25247 0.25664,-3.29938 1.06941,-5.55546 1.03661,-2.87737 3.19014,-3.60379 0.90694,-2.72765 -0.99022,0.37999 -2.68471,2.37389 -3.42546,4.49891 -1.67316,4.79963 -1.41266,6.06141 0.19005,6.06141 0.69242,0 1.25891,-1.02474 1.25891,-2.27721 l 4e-5,0 z m -5.03566,-1.41757 c 0,-4.86225 1.15011,-7.87685 2.58272,-11.90239 1.47541,-4.14564 4.88208,-7.08126 1.65439,-4.41014 -4.73865,3.92158 -9.15746,20.00731 -5.49601,20.00731 0.69238,0 1.2589,-1.66265 1.2589,-3.69478 z"
           style="fill:#7f9529;fill-opacity:1;stroke:none"
           inkscape:connector-curvature="0" />
        <path
           style="fill:#71afb3;fill-opacity:1;stroke:none"
           d="m 585.63396,396.65329 c -1.66,0.0685 -3.35355,0.0554 -4.98051,0.39114 -0.40832,0.23644 -0.16873,0.88471 0.28358,0.87401 2.47617,0.57038 5.05877,0.39028 7.58669,0.38863 1.08419,-0.049 2.21593,-0.0711 3.23409,-0.45275 0.40431,-0.26899 0.12907,-0.91502 -0.33596,-0.88427 -1.89251,-0.41418 -3.85894,-0.33745 -5.78767,-0.31687 z"
           id="path4693"
           inkscape:connector-curvature="0" />
        <path
           style="fill:#7f9529;fill-opacity:1;stroke:none"
           d="m 560.55743,386.48676 c 0,-1.25247 -0.25664,-3.29938 -1.06945,-5.55546 -1.03657,-2.87737 -3.1901,-3.60379 -0.9069,-2.72765 0.99022,0.37999 2.68467,2.37389 3.42546,4.49891 1.67316,4.79963 1.41267,6.06141 -0.19005,6.06141 -0.69242,0 -1.25895,-1.02474 -1.25895,-2.27721 l 0,0 z m 5.03566,-1.41757 c 0,-4.86225 -1.15011,-7.87685 -2.58276,-11.90239 -1.47537,-4.14564 -4.88204,-7.08126 -1.65438,-4.41014 4.73868,3.92158 9.15746,20.00731 5.49604,20.00731 -0.69241,0 -1.2589,-1.66265 -1.2589,-3.69478 z"
           id="path4695"
           sodipodi:nodetypes="csssscccsssc"
           inkscape:connector-curvature="0" />
        <path
           style="fill:#71afb3;fill-opacity:1;stroke:none"
           d="m 577.91251,391.9317 c -4.07103,0.0599 -8.15785,0.0726 -12.21441,0.36926 -0.38279,0.0617 -0.57337,0.62963 -0.15413,0.79062 2.02745,0.45534 4.14511,0.35878 6.21734,0.46615 5.6928,0.12046 11.3997,0.17696 17.08205,-0.22634 0.40169,-0.0804 1.19074,-0.089 1.10466,-0.66664 -0.27872,-0.54857 -1.07099,-0.36552 -1.57021,-0.47382 -3.48098,-0.26974 -6.97602,-0.26637 -10.46515,-0.25889 z"
           id="path4697"
           inkscape:connector-curvature="0" />
      </g>
    </g>
  </g>
</svg>
