<svg width="28.222mm" height="28.222mm" version="1.1" viewBox="0 0 100 100" xmlns="http://www.w3.org/2000/svg">
 <g transform="translate(-297.5 -434.86)">
  <rect x="293.25" y="430.61" width="108.5" height="108.5" enable-background="new" fill="#ff0f0f" fill-opacity=".15346"/>
  <g transform="matrix(2.2955 0 0 2.2955 -443.56 -225.07)" enable-background="new" fill="#d90000" opacity=".15833">
   <path d="m342.45 302.03c-0.62438 0.0132-1.2518 0.0616-1.8652 0.14648-3.2717 0.45247-5.635 3.2337-6.4355 4.5215-0.64401 1.036-1.4926 2.1869-2.832 2.832 0.28479 0.0852 0.57929 0.16771 0.87891 0.24414 0.95031 0.24238 1.8939 0.42604 2.5879 0.74218 1.1768 0.53605 4.4861 2.4558 6.0547 3.7891 1.1871 1.0091 5.3085 3.4022 6.709 3.7793 1.6806 0.45247 6.1956 1.3218 6.2793 1.3379 6.2e-4 1.3e-4 0.0586 0.01 0.0586 0.01v0.01c0.0341 5e-3 0.0652 0.0212 0.0977 0.0293 1.481-3.5076 0.95591-8.5051 0.45898-10.791-0.52207-2.4015-4.8403-5.358-5.8496-5.8105-0.82009-0.36763-3.4369-0.89729-6.1426-0.83984z"/>
   <path d="m340.19 315.31c-0.0722 0.12037-0.20323 0.39838-0.3125 0.65625s-0.1875 0.5-0.1875 0.5l-0.0625 0.125 0.125 0.0625 0.46875 0.25-1.125 1.875 2.1875 1.0938 0.90625-1.9688 0.46875 0.25 0.125 0.0625 0.0625-0.15625 0.5-1.0312-0.28125-0.125-0.4375 0.875-0.3125-0.15625 0.0312-0.0937-1.9375-0.96875-0.0312 0.0625-0.34375-0.1875c0.0336-0.0818 0.0466-0.15873 0.125-0.34375 0.10826-0.2555 0.24905-0.57134 0.28125-0.625l-0.25-0.15625z"/>
   <path d="m329.49 310.04c0.47424 0.59976 1.567 0.64624 2.2787 0.82972 0.98248 0.25059 2.126 0.64479 2.485 0.80831 0.83592 0.38079 4.497 2.5802 5.7661 3.659 1.5228 1.2944 5.0453 3.6919 7.1157 4.2493 1.8859 0.50774 5.636 0.98916 5.636 0.98916 0.32215 0.0614 0.98613 0.20214 1.0475-0.12001 0.0614-0.32215 0.32809-0.6711 6e-3 -0.73243 0 0-4.6236-0.87109-6.3574-1.3379-1.5493-0.41713-5.5646-2.7753-6.8262-3.8477-1.5153-1.288-4.8764-3.2302-5.9961-3.7402-0.63505-0.28929-1.5676-0.48713-2.5293-0.73243s-1.1406-0.32867-1.543-0.58017c-0.9375 0-1.5573-0.0444-1.0831 0.55536z" color="#000000" enable-background="accumulate" style="text-decoration-line:none;text-indent:0;text-transform:none"/>
  </g>
  <g transform="matrix(.76222 0 0 .76222 62.464 253.67)" enable-background="new" fill="none" stroke="#ffefef" stroke-width="1.1956">
   <path d="m354.23 291.18c0.46607-0.46606 4.7938-5.5928 4.7938-5.5928s0.9987-0.19973 1.7311-0.19973 1.265 0.26632 0.99871 0.86554c-0.26632 0.59923-2.3303 1.6645-3.9948 1.5314 2.5966 0.73238 4.0614 1.7311-3.5288 3.3956z"/>
   <path d="m362.75 290.64c1.9308 0.59922 4.927-1.9308 5.393-2.863 0.46606-0.93212 0.0666-2.5966-0.46605-2.6632-0.53265-0.0666-3.1959 0.13315-4.4609 2.1306-1.265 1.9974-1.9308 2.1972-0.46605 3.3956z"/>
   <path d="m368.41 291.44 4.0614-5.393"/>
   <path d="m370.87 286.25c2.863-0.33291 5.5928-0.73239 4.7272 1.3316-0.86555 2.064-3.9948 2.064-5.4596 1.8643"/>
   <path d="m372.4 293.17-0.39949-3.5953"/>
   <path d="m375.07 293.84c0-0.53264 4.3943-6.1254 4.4609-5.3264 0.0666 0.79897-0.66581 6.1254-0.66581 6.1254l4.927-6.4583"/>
   <path d="m358.69 298.57c0.0666-0.73238 3.329-5.0601 3.329-5.0601"/>
   <path d="m359.22 293.37 5.5262 0.13317"/>
   <path d="m365.15 295.64c-1.0653 1.4648-1.3982 2.863-0.26632 3.2624 1.1319 0.39949 3.6619-1.1319 4.128-2.064 0.46607-0.93212 0.66581-2.7298-0.59922-2.9961-1.265-0.26632-3.2624 1.7977-3.2624 1.7977z"/>
   <path d="m347.3 307.09 5.4596-7.5902"/>
   <path d="m350.23 307.82c0.0666-1.0653 1.265-6.3252 1.265-6.3252"/>
   <path d="m350.7 302.83c0.46606-0.26632 5.1267-2.7298 5.1267-2.7298"/>
   <path d="m353.36 308.02c0.39948-0.93212 3.329-5.0601 3.329-5.0601"/>
   <path d="m357.62 301.43 0.6658-0.53265"/>
   <path d="m362.68 300.83c-0.13315 0.73238-5.1933 7.7899-5.1933 7.7899l3.9948 0.6658"/>
   <path d="m367.81 300.9c-0.39948 0.79897-4.927 8.7886-4.927 8.7886l4.6606 1.265"/>
  </g>
  <g transform="matrix(.76222 0 0 .76222 63.859 255.96)" enable-background="new" fill="none" stroke="#ffefef" stroke-width="1.4405">
   <path d="m387.29 302.3 6.8987-8.7437"/>
   <path d="m391.86 304.31c0-1.2032-0.56153-6.5778-0.56153-6.5778l-6.1767-1.123"/>
   <path d="m386 293.4c-1.6043 2.3263-0.88238 6.7382 1.2835 8.8239 2.1659 2.0856 6.3371 2.968 8.6634-0.0802 2.3263-3.0482-0.40108-7.6206-1.6043-8.6635-1.2033-1.0428-5.8558-3.8504-8.3426-0.0802z"/>
  </g>
 </g>
</svg>
