<?xml version="1.0" encoding="UTF-8" standalone="no"?>
<!-- Created with Inkscape (http://www.inkscape.org/) -->

<svg
   xmlns:dc="http://purl.org/dc/elements/1.1/"
   xmlns:cc="http://creativecommons.org/ns#"
   xmlns:rdf="http://www.w3.org/1999/02/22-rdf-syntax-ns#"
   xmlns:svg="http://www.w3.org/2000/svg"
   xmlns="http://www.w3.org/2000/svg"
   xmlns:sodipodi="http://sodipodi.sourceforge.net/DTD/sodipodi-0.dtd"
   xmlns:inkscape="http://www.inkscape.org/namespaces/inkscape"
   width="28.222221mm"
   height="28.222221mm"
   viewBox="0 0 99.999997 99.999997"
   id="svg2"
   version="1.1"
   inkscape:version="0.91 r13725"
   sodipodi:docname="p_military.svg">
  <defs
     id="defs4" />
  <sodipodi:namedview
     id="base"
     pagecolor="#ffffff"
     bordercolor="#666666"
     borderopacity="1.0"
     inkscape:pageopacity="0.0"
     inkscape:pageshadow="2"
     inkscape:zoom="4"
     inkscape:cx="-19.000181"
     inkscape:cy="11.185607"
     inkscape:document-units="px"
     inkscape:current-layer="layer1"
     showgrid="false"
     fit-margin-top="0"
     fit-margin-left="0"
     fit-margin-right="0"
     fit-margin-bottom="0"
     inkscape:window-width="1920"
     inkscape:window-height="1178"
     inkscape:window-x="-8"
     inkscape:window-y="-8"
     inkscape:window-maximized="1" />
  <metadata
     id="metadata7">
    <rdf:RDF>
      <cc:Work
         rdf:about="">
        <dc:format>image/svg+xml</dc:format>
        <dc:type
           rdf:resource="http://purl.org/dc/dcmitype/StillImage" />
        <dc:title />
      </cc:Work>
    </rdf:RDF>
  </metadata>
  <g
     inkscape:label="Livello 1"
     inkscape:groupmode="layer"
     id="layer1"
     transform="translate(-297.5,-434.86221)">
    <rect
       style="display:inline;fill:#ff0f0f;fill-opacity:0.15346536;fill-rule:nonzero;stroke:none;enable-background:new"
       id="rect4534"
       width="108.5"
       height="108.5"
       x="293.25"
       y="430.61221"
       inkscape:label="#rect4361" />
    <g
       style="display:inline;opacity:0.15833333;fill:#d90000;fill-opacity:1;enable-background:new"
       id="g4536"
       transform="matrix(2.2955393,0,0,2.2955393,-443.55613,-225.07059)">
      <path
         style="display:inline;fill:#d90000;fill-opacity:1;stroke:none"
         d="m 342.45259,302.02842 c -0.62438,0.0132 -1.2518,0.0616 -1.86524,0.14648 -3.27168,0.45247 -5.63503,3.23369 -6.43554,4.52148 -0.64401,1.03602 -1.49261,2.18691 -2.83204,2.83204 0.28479,0.0852 0.57929,0.16771 0.87891,0.24414 0.95031,0.24238 1.89388,0.42604 2.58789,0.74218 1.17675,0.53605 4.48611,2.45578 6.05469,3.78907 1.18712,1.00906 5.30846,3.40223 6.70898,3.77929 1.68059,0.45247 6.19563,1.32183 6.2793,1.33789 6.2e-4,1.3e-4 0.0586,0.01 0.0586,0.01 l 0,0.01 c 0.0341,0.005 0.0652,0.0212 0.0977,0.0293 1.48096,-3.50757 0.95591,-8.50514 0.45898,-10.79101 -0.52207,-2.40151 -4.84026,-5.35803 -5.84961,-5.8105 -0.82009,-0.36763 -3.43694,-0.89729 -6.14257,-0.83984 z"
         id="path4538"
         inkscape:connector-curvature="0" />
      <path
         inkscape:connector-curvature="0"
         style="display:inline;fill:#d90000;fill-opacity:1;stroke:none"
         d="m 340.1875,315.3125 c -0.0722,0.12037 -0.20323,0.39838 -0.3125,0.65625 -0.10927,0.25787 -0.1875,0.5 -0.1875,0.5 l -0.0625,0.125 0.125,0.0625 0.46875,0.25 -1.125,1.875 2.1875,1.09375 0.90625,-1.96875 0.46875,0.25 0.125,0.0625 0.0625,-0.15625 0.5,-1.03125 -0.28125,-0.125 -0.4375,0.875 -0.3125,-0.15625 0.0312,-0.0937 -1.9375,-0.96875 -0.0312,0.0625 -0.34375,-0.1875 c 0.0336,-0.0818 0.0466,-0.15873 0.125,-0.34375 0.10826,-0.2555 0.24905,-0.57134 0.28125,-0.625 l -0.25,-0.15625 z"
         id="path4540" />
      <path
         style="color:#000000;font-style:normal;font-variant:normal;font-weight:normal;font-stretch:normal;font-size:medium;line-height:normal;font-family:Sans;-inkscape-font-specification:Sans;text-indent:0;text-align:start;text-decoration:none;text-decoration-line:none;letter-spacing:normal;word-spacing:normal;text-transform:none;direction:ltr;block-progression:tb;writing-mode:lr-tb;baseline-shift:baseline;text-anchor:start;display:inline;overflow:visible;visibility:visible;fill:#d90000;fill-opacity:1;stroke:none;stroke-width:4;marker:none;enable-background:accumulate"
         d="m 329.49453,310.04071 c 0.47424,0.59976 1.56701,0.64624 2.27874,0.82972 0.98248,0.25059 2.12604,0.64479 2.48501,0.80831 0.83592,0.38079 4.49704,2.58023 5.76613,3.65896 1.52284,1.29442 5.04526,3.69189 7.11568,4.24931 1.88589,0.50774 5.63602,0.98916 5.63602,0.98916 0.32215,0.0614 0.98613,0.20214 1.0475,-0.12001 0.0614,-0.32215 0.32809,-0.6711 0.006,-0.73243 0,0 -4.62358,-0.87109 -6.35742,-1.33789 -1.54931,-0.41713 -5.5646,-2.77532 -6.82617,-3.84766 -1.51532,-1.28802 -4.87644,-3.2302 -5.99609,-3.74023 -0.63505,-0.28929 -1.56756,-0.48713 -2.5293,-0.73243 -0.96174,-0.2453 -1.14056,-0.32867 -1.54297,-0.58017 -0.9375,0 -1.5573,-0.0444 -1.08306,0.55536 z"
         id="path4542"
         inkscape:connector-curvature="0"
         sodipodi:nodetypes="zcssscscsssscz" />
    </g>
    <g
       transform="matrix(0.76222366,0,0,0.76222366,62.4636,253.67328)"
       id="g4544"
       style="display:inline;enable-background:new;stroke:#ffefef;stroke-opacity:1">
      <path
         style="fill:none;stroke:#ffefef;stroke-width:1.19559407;stroke-linecap:butt;stroke-linejoin:miter;stroke-miterlimit:4;stroke-dasharray:none;stroke-opacity:1"
         d="m 354.22783,291.17756 c 0.46607,-0.46606 4.7938,-5.59277 4.7938,-5.59277 0,0 0.9987,-0.19973 1.73109,-0.19973 0.73239,0 1.26503,0.26632 0.99871,0.86554 -0.26632,0.59923 -2.33032,1.66451 -3.99482,1.53135 2.59662,0.73238 4.0614,1.7311 -3.52878,3.39561 z"
         id="path4546"
         inkscape:connector-curvature="0" />
      <path
         style="fill:none;stroke:#ffefef;stroke-width:1.19559407;stroke-linecap:butt;stroke-linejoin:miter;stroke-miterlimit:4;stroke-dasharray:none;stroke-opacity:1"
         d="m 362.75015,290.64492 c 1.93082,0.59922 4.92696,-1.93084 5.39301,-2.86297 0.46606,-0.93212 0.0666,-2.59664 -0.46605,-2.66321 -0.53265,-0.0666 -3.19587,0.13315 -4.46091,2.13057 -1.26502,1.99742 -1.93083,2.19716 -0.46605,3.39561 z"
         id="path4548"
         inkscape:connector-curvature="0" />
      <path
         style="fill:none;stroke:#ffefef;stroke-width:1.19559407;stroke-linecap:butt;stroke-linejoin:miter;stroke-miterlimit:4;stroke-dasharray:none;stroke-opacity:1"
         d="m 368.40948,291.44389 4.06142,-5.39303"
         id="path4550"
         inkscape:connector-curvature="0" />
      <path
         style="fill:none;stroke:#ffefef;stroke-width:1.19559407;stroke-linecap:butt;stroke-linejoin:miter;stroke-miterlimit:4;stroke-dasharray:none;stroke-opacity:1"
         d="m 370.87295,286.2506 c 2.86297,-0.33291 5.59277,-0.73239 4.72723,1.33161 -0.86555,2.06399 -3.99483,2.06399 -5.45961,1.86426"
         id="path4552"
         inkscape:connector-curvature="0" />
      <path
         style="fill:none;stroke:#ffefef;stroke-width:1.19559407;stroke-linecap:butt;stroke-linejoin:miter;stroke-miterlimit:4;stroke-dasharray:none;stroke-opacity:1"
         d="m 372.40431,293.17497 -0.39949,-3.59534"
         id="path4554"
         inkscape:connector-curvature="0" />
      <path
         style="fill:none;stroke:#ffefef;stroke-width:1.19559407;stroke-linecap:butt;stroke-linejoin:miter;stroke-miterlimit:4;stroke-dasharray:none;stroke-opacity:1"
         d="m 375.06753,293.84078 c 0,-0.53264 4.39432,-6.1254 4.4609,-5.32645 0.0666,0.79897 -0.66581,6.12541 -0.66581,6.12541 l 4.92696,-6.45831"
         id="path4556"
         inkscape:connector-curvature="0" />
      <path
         style="fill:none;stroke:#ffefef;stroke-width:1.19559407;stroke-linecap:butt;stroke-linejoin:miter;stroke-miterlimit:4;stroke-dasharray:none;stroke-opacity:1"
         d="m 358.68873,298.568 c 0.0666,-0.73238 3.32902,-5.06012 3.32902,-5.06012"
         id="path4558"
         inkscape:connector-curvature="0" />
      <path
         style="fill:none;stroke:#ffefef;stroke-width:1.19559407;stroke-linecap:butt;stroke-linejoin:miter;stroke-miterlimit:4;stroke-dasharray:none;stroke-opacity:1"
         d="m 359.22136,293.37471 5.5262,0.13317"
         id="path4560"
         inkscape:connector-curvature="0" />
      <path
         style="fill:none;stroke:#ffefef;stroke-width:1.19559407;stroke-linecap:butt;stroke-linejoin:miter;stroke-miterlimit:4;stroke-dasharray:none;stroke-opacity:1"
         d="m 365.14704,295.63845 c -1.06529,1.46478 -1.39819,2.86297 -0.26632,3.26245 1.13187,0.39949 3.66193,-1.13187 4.12798,-2.064 0.46607,-0.93212 0.66581,-2.72979 -0.59922,-2.99612 -1.26502,-0.26632 -3.26244,1.79767 -3.26244,1.79767 z"
         id="path4562"
         inkscape:connector-curvature="0" />
      <path
         style="fill:none;stroke:#ffefef;stroke-width:1.19559407;stroke-linecap:butt;stroke-linejoin:miter;stroke-miterlimit:4;stroke-dasharray:none;stroke-opacity:1"
         d="m 347.30347,307.0903 5.45959,-7.59018"
         id="path4564"
         inkscape:connector-curvature="0" />
      <path
         style="fill:none;stroke:#ffefef;stroke-width:1.19559407;stroke-linecap:butt;stroke-linejoin:miter;stroke-miterlimit:4;stroke-dasharray:none;stroke-opacity:1"
         d="m 350.233,307.82269 c 0.0666,-1.06529 1.26503,-6.32515 1.26503,-6.32515"
         id="path4566"
         inkscape:connector-curvature="0" />
      <path
         style="fill:none;stroke:#ffefef;stroke-width:1.19559407;stroke-linecap:butt;stroke-linejoin:miter;stroke-miterlimit:4;stroke-dasharray:none;stroke-opacity:1"
         d="m 350.69907,302.82915 c 0.46606,-0.26632 5.1267,-2.7298 5.1267,-2.7298"
         id="path4568"
         inkscape:connector-curvature="0" />
      <path
         style="fill:none;stroke:#ffefef;stroke-width:1.19559407;stroke-linecap:butt;stroke-linejoin:miter;stroke-miterlimit:4;stroke-dasharray:none;stroke-opacity:1"
         d="m 353.3623,308.02242 c 0.39948,-0.93212 3.32901,-5.06011 3.32901,-5.06011"
         id="path4570"
         inkscape:connector-curvature="0" />
      <path
         style="fill:none;stroke:#ffefef;stroke-width:1.19559407;stroke-linecap:butt;stroke-linejoin:miter;stroke-miterlimit:4;stroke-dasharray:none;stroke-opacity:1"
         d="m 357.62344,301.43096 0.6658,-0.53265"
         id="path4572"
         inkscape:connector-curvature="0" />
      <path
         style="fill:none;stroke:#ffefef;stroke-width:1.19559407;stroke-linecap:butt;stroke-linejoin:miter;stroke-miterlimit:4;stroke-dasharray:none;stroke-opacity:1"
         d="m 362.68355,300.83174 c -0.13315,0.73238 -5.19327,7.78992 -5.19327,7.78992 l 3.99483,0.6658"
         id="path4574"
         inkscape:connector-curvature="0" />
      <path
         style="fill:none;stroke:#ffefef;stroke-width:1.19559407;stroke-linecap:butt;stroke-linejoin:miter;stroke-miterlimit:4;stroke-dasharray:none;stroke-opacity:1"
         d="m 367.81026,300.89831 c -0.39948,0.79897 -4.92696,8.78863 -4.92696,8.78863 l 4.66064,1.26504"
         id="path4576"
         inkscape:connector-curvature="0" />
    </g>
    <g
       transform="matrix(0.76222366,0,0,0.76222366,63.858529,255.95589)"
       id="g4578"
       style="display:inline;enable-background:new;stroke:#ffefef;stroke-opacity:1">
      <path
         style="fill:none;stroke:#ffefef;stroke-width:1.44046903;stroke-linecap:butt;stroke-linejoin:miter;stroke-miterlimit:4;stroke-dasharray:none;stroke-opacity:1"
         d="m 387.28648,302.30287 6.89868,-8.74368"
         id="path4580"
         inkscape:connector-curvature="0" />
      <path
         style="fill:none;stroke:#ffefef;stroke-width:1.44046903;stroke-linecap:butt;stroke-linejoin:miter;stroke-miterlimit:4;stroke-dasharray:none;stroke-opacity:1"
         d="m 391.85885,304.30829 c 0,-1.20324 -0.56153,-6.5778 -0.56153,-6.5778 l -6.17671,-1.12304"
         id="path4582"
         inkscape:connector-curvature="0" />
      <path
         style="fill:none;stroke:#ffefef;stroke-width:1.44046903;stroke-linecap:butt;stroke-linejoin:miter;stroke-miterlimit:4;stroke-dasharray:none;stroke-opacity:1"
         d="m 386.00299,293.39877 c -1.60433,2.32628 -0.88238,6.73824 1.28349,8.82388 2.16586,2.08564 6.33714,2.96803 8.66343,-0.0802 2.32631,-3.04825 -0.40108,-7.62063 -1.60434,-8.66346 -1.20326,-1.04281 -5.85584,-3.85042 -8.34258,-0.0802 z"
         id="path4584"
         inkscape:connector-curvature="0" />
    </g>
  </g>
</svg>
