<svg width="100" height="100" version="1.1" xmlns="http://www.w3.org/2000/svg">
 <g transform="translate(-343 -464.36)">
  <rect x="339.97" y="461.33" width="106.06" height="106.06" enable-background="new" fill="#e9ffe5" fill-opacity=".73333"/>
  <g fill="#fc7070" fill-opacity=".65882">
   <circle transform="matrix(2.9138 0 0 2.9138 -543.36 -2774.2)" cx="309" cy="1141" r="3" enable-background="new"/>
   <circle transform="matrix(2.9138 0 0 2.9138 -489.17 -2784.7)" cx="309" cy="1141" r="3" enable-background="new"/>
   <circle transform="matrix(2.9138 0 0 2.9138 -531.13 -2844.1)" cx="309" cy="1141" r="3" enable-background="new"/>
   <circle transform="matrix(2.9138 0 0 2.9138 -494.41 -2847.6)" cx="309" cy="1141" r="3" enable-background="new"/>
   <circle transform="matrix(2.9138 0 0 2.9138 -471.69 -2823.2)" cx="309" cy="1141" r="3" enable-background="new"/>
   <circle transform="matrix(2.9138 0 0 2.9138 -524.13 -2807.4)" cx="309" cy="1141" r="3" enable-background="new"/>
  </g>
 </g>
</svg>
