<svg xmlns="http://www.w3.org/2000/svg" width="100" height="100"><path fill="#daccb3" fill-opacity=".534" d="M-2.289-2.29H102.29v104.58H-2.289z"/><ellipse cx="12.598" cy="9.412" rx="2.907" ry="2.904" fill="#b4b4b4" fill-opacity=".804"/><ellipse cx="5.106" cy="21.483" rx="2.907" ry="2.904" fill="#b4b4b4" fill-opacity=".804"/><ellipse cx="4.065" cy="38.132" rx="2.907" ry="2.904" fill="#b4b4b4" fill-opacity=".804"/><ellipse cx="9.476" cy="49.787" rx="2.907" ry="2.904" fill="#b4b4b4" fill-opacity=".804"/><ellipse cx="3.857" cy="61.65" rx="2.907" ry="2.904" fill="#b4b4b4" fill-opacity=".804"/><ellipse cx="6.771" cy="76.218" rx="2.907" ry="2.904" fill="#b4b4b4" fill-opacity=".804"/><ellipse cx="6.146" cy="95.989" rx="2.907" ry="2.904" fill="#b4b4b4" fill-opacity=".804"/><ellipse cx="14.887" cy="89.953" rx="2.907" ry="2.904" fill="#b4b4b4" fill-opacity=".804"/><ellipse cx="18.217" cy="79.548" rx="2.907" ry="2.904" fill="#b4b4b4" fill-opacity=".804"/><ellipse cx="15.304" cy="64.979" rx="2.907" ry="2.904" fill="#b4b4b4" fill-opacity=".804"/><ellipse cx="18.217" cy="35.219" rx="2.907" ry="2.904" fill="#b4b4b4" fill-opacity=".804"/><ellipse cx="21.339" cy="18.361" rx="2.907" ry="2.904" fill="#b4b4b4" fill-opacity=".804"/><ellipse cx="23.42" cy="6.291" rx="2.907" ry="2.904" fill="#b4b4b4" fill-opacity=".804"/><ellipse cx="32.577" cy="3.793" rx="2.907" ry="2.904" fill="#b4b4b4" fill-opacity=".804"/><ellipse cx="38.405" cy="12.118" rx="2.907" ry="2.904" fill="#b4b4b4" fill-opacity=".804"/><ellipse cx="35.075" cy="23.356" rx="2.907" ry="2.904" fill="#b4b4b4" fill-opacity=".804"/><ellipse cx="32.993" cy="32.097" rx="2.907" ry="2.904" fill="#b4b4b4" fill-opacity=".804"/><ellipse cx="26.958" cy="44.168" rx="2.907" ry="2.904" fill="#b4b4b4" fill-opacity=".804"/><ellipse cx="24.044" cy="52.909" rx="2.907" ry="2.904" fill="#b4b4b4" fill-opacity=".804"/><ellipse cx="27.166" cy="91.41" rx="2.907" ry="2.904" fill="#b4b4b4" fill-opacity=".804"/><ellipse cx="31.745" cy="79.131" rx="2.907" ry="2.904" fill="#b4b4b4" fill-opacity=".804"/><ellipse cx="29.872" cy="67.477" rx="2.907" ry="2.904" fill="#b4b4b4" fill-opacity=".804"/><ellipse cx="38.821" cy="87.872" rx="2.907" ry="2.904" fill="#b4b4b4" fill-opacity=".804"/><ellipse cx="44.232" cy="96.613" rx="2.907" ry="2.904" fill="#b4b4b4" fill-opacity=".804"/><ellipse cx="44.44" cy="78.507" rx="2.907" ry="2.904" fill="#b4b4b4" fill-opacity=".804"/><ellipse cx="41.318" cy="69.974" rx="2.907" ry="2.904" fill="#b4b4b4" fill-opacity=".804"/><ellipse cx="36.323" cy="56.239" rx="2.907" ry="2.904" fill="#b4b4b4" fill-opacity=".804"/><ellipse cx="41.526" cy="41.254" rx="2.907" ry="2.904" fill="#b4b4b4" fill-opacity=".804"/><ellipse cx="45.689" cy="32.305" rx="2.907" ry="2.904" fill="#b4b4b4" fill-opacity=".804"/><ellipse cx="44.232" cy="6.291" rx="2.907" ry="2.904" fill="#b4b4b4" fill-opacity=".804"/><ellipse cx="53.181" cy="14.615" rx="2.907" ry="2.904" fill="#b4b4b4" fill-opacity=".804"/><ellipse cx="55.886" cy="23.772" rx="2.907" ry="2.904" fill="#b4b4b4" fill-opacity=".804"/><ellipse cx="56.511" cy="40.214" rx="2.907" ry="2.904" fill="#b4b4b4" fill-opacity=".804"/><ellipse cx="47.77" cy="56.03" rx="2.907" ry="2.904" fill="#b4b4b4" fill-opacity=".804"/><ellipse cx="53.389" cy="70.182" rx="2.907" ry="2.904" fill="#b4b4b4" fill-opacity=".804"/><ellipse cx="53.181" cy="90.786" rx="2.907" ry="2.904" fill="#b4b4b4" fill-opacity=".804"/><ellipse cx="65.252" cy="93.908" rx="2.907" ry="2.904" fill="#b4b4b4" fill-opacity=".804"/><ellipse cx="61.714" cy="82.045" rx="2.907" ry="2.904" fill="#b4b4b4" fill-opacity=".804"/><ellipse cx="70.663" cy="73.72" rx="2.907" ry="2.904" fill="#b4b4b4" fill-opacity=".804"/><ellipse cx="62.338" cy="60.193" rx="2.907" ry="2.904" fill="#b4b4b4" fill-opacity=".804"/><ellipse cx="61.297" cy="49.995" rx="2.907" ry="2.904" fill="#b4b4b4" fill-opacity=".804"/><ellipse cx="73.576" cy="43.543" rx="2.907" ry="2.904" fill="#b4b4b4" fill-opacity=".804"/><ellipse cx="67.125" cy="32.513" rx="2.907" ry="2.904" fill="#b4b4b4" fill-opacity=".804"/><ellipse cx="73.368" cy="26.478" rx="2.907" ry="2.904" fill="#b4b4b4" fill-opacity=".804"/><ellipse cx="70.663" cy="15.656" rx="2.907" ry="2.904" fill="#b4b4b4" fill-opacity=".804"/><ellipse cx="61.714" cy="6.499" rx="2.907" ry="2.904" fill="#b4b4b4" fill-opacity=".804"/><ellipse cx="77.114" cy="6.291" rx="2.907" ry="2.904" fill="#b4b4b4" fill-opacity=".804"/><ellipse cx="87.728" cy="3.377" rx="2.907" ry="2.904" fill="#b4b4b4" fill-opacity=".804"/><ellipse cx="96.469" cy="17.737" rx="2.907" ry="2.904" fill="#b4b4b4" fill-opacity=".804"/><ellipse cx="85.023" cy="23.564" rx="2.907" ry="2.904" fill="#b4b4b4" fill-opacity=".804"/><ellipse cx="93.972" cy="38.341" rx="2.907" ry="2.904" fill="#b4b4b4" fill-opacity=".804"/><ellipse cx="96.261" cy="52.701" rx="2.907" ry="2.904" fill="#b4b4b4" fill-opacity=".804"/><ellipse cx="82.317" cy="51.036" rx="2.907" ry="2.904" fill="#b4b4b4" fill-opacity=".804"/><ellipse cx="76.49" cy="58.736" rx="2.907" ry="2.904" fill="#b4b4b4" fill-opacity=".804"/><ellipse cx="88.144" cy="65.396" rx="2.907" ry="2.904" fill="#b4b4b4" fill-opacity=".804"/><ellipse cx="96.261" cy="73.096" rx="2.907" ry="2.904" fill="#b4b4b4" fill-opacity=".804"/><ellipse cx="91.266" cy="84.751" rx="2.907" ry="2.904" fill="#b4b4b4" fill-opacity=".804"/><ellipse cx="80.86" cy="78.507" rx="2.907" ry="2.904" fill="#b4b4b4" fill-opacity=".804"/><ellipse cx="78.363" cy="93.283" rx="2.907" ry="2.904" fill="#b4b4b4" fill-opacity=".804"/><ellipse cx="93.555" cy="96.197" rx="2.907" ry="2.904" fill="#b4b4b4" fill-opacity=".804"/><ellipse cx="4.065" cy="5.25" rx="2.907" ry="2.904" fill="#b4b4b4" fill-opacity=".804"/></svg>