<?xml version="1.0" encoding="UTF-8" standalone="no"?>
<!-- Created with Inkscape (http://www.inkscape.org/) -->

<svg
   xmlns:dc="http://purl.org/dc/elements/1.1/"
   xmlns:cc="http://creativecommons.org/ns#"
   xmlns:rdf="http://www.w3.org/1999/02/22-rdf-syntax-ns#"
   xmlns:svg="http://www.w3.org/2000/svg"
   xmlns="http://www.w3.org/2000/svg"
   xmlns:sodipodi="http://sodipodi.sourceforge.net/DTD/sodipodi-0.dtd"
   xmlns:inkscape="http://www.inkscape.org/namespaces/inkscape"
   width="100"
   height="100.00011"
   id="svg4205"
   version="1.1"
   inkscape:version="0.91 r13725"
   sodipodi:docname="p_rock.svg">
  <defs
     id="defs4207" />
  <sodipodi:namedview
     id="base"
     pagecolor="#ffffff"
     bordercolor="#666666"
     borderopacity="1.0"
     inkscape:pageopacity="0.0"
     inkscape:pageshadow="2"
     inkscape:zoom="5.6568542"
     inkscape:cx="6.3041663"
     inkscape:cy="39.083425"
     inkscape:document-units="px"
     inkscape:current-layer="layer1"
     showgrid="false"
     fit-margin-top="0"
     fit-margin-left="0"
     fit-margin-right="0"
     fit-margin-bottom="0"
     inkscape:window-width="1920"
     inkscape:window-height="1178"
     inkscape:window-x="-8"
     inkscape:window-y="-8"
     inkscape:window-maximized="1" />
  <metadata
     id="metadata4210">
    <rdf:RDF>
      <cc:Work
         rdf:about="">
        <dc:format>image/svg+xml</dc:format>
        <dc:type
           rdf:resource="http://purl.org/dc/dcmitype/StillImage" />
        <dc:title />
      </cc:Work>
    </rdf:RDF>
  </metadata>
  <g
     inkscape:label="Livello 1"
     inkscape:groupmode="layer"
     id="layer1"
     transform="translate(-232.9,-419.46228)">
    <rect
       inkscape:label="#rect6089"
       y="417.3089"
       x="230.70247"
       height="104.57996"
       width="104.57996"
       id="rect4964"
       style="fill:#afafaf;fill-opacity:0.13333334;fill-rule:nonzero;stroke:none;display:inline;enable-background:new" />
    <path
       style="fill:#b7b7b7;fill-opacity:0.15686275;display:inline;enable-background:new"
       d="m 232.9,419.39978 c -0.64181,2.03997 1.49254,-0.10953 0.0892,0 l -0.0892,0 z m 13.96875,0 c -2.33613,2.15161 3.28253,2.13677 0.50376,0.0624 l -0.50376,-0.0624 z m 7.375,0 c -1.43083,3.98958 4.8154,5.36833 3.47216,1.09162 -0.4973,-1.39468 -1.62353,-1.07343 -3.47216,-1.09162 z m 1.75,4.0625 c -6.35491,-2.93315 -11.76143,2.67055 -16.17918,6.18149 -3.17575,1.76508 4.65853,-4.91211 -0.008,-3.77524 2.32822,-2.38323 1.0334,-3.54843 -1.45347,-1.40705 -2.79113,1.08908 -6.62285,-0.80553 -5.45278,3.46312 1.43096,1.59262 7.4425,-3.22845 4.12141,1.15987 1.39548,2.27323 -6.43642,4.39309 -1.58233,3.06709 9.79454,-3.25223 21.34588,-2.18667 29.61717,-9.25178 1.01282,-5.93164 -5.3772,7.16887 -8.37763,0.8773 l -0.68487,-0.3148 z m 3.34375,-4.0625 c 2.5225,1.4334 3.04916,-0.62587 0,0 z m 10.59375,0 c -1.98213,1.49869 -5.00647,7.69985 0.0312,5.6875 2.67675,2.63555 8.60265,1.46929 5.50085,-2.95983 -0.86139,-3.05735 -3.04945,-2.85032 -5.5321,-2.72767 z m 5.53125,0 c 0.91745,0.66526 1.50697,-0.32283 0.0535,0 l -0.0535,0 z m 5.8125,0 c 0.72927,2.36714 6.23095,6.59892 7.28372,4.47968 -1.40102,-2.52624 -1.63912,-5.52737 -5.37329,-4.47968 -0.63681,0 -1.27362,0 -1.91043,0 z m 21.84375,0 c 0.19475,1.6736 3.93983,-0.55691 0,0 z m 23.5,0 c -1.53575,4.42756 8.84712,-1.07889 4.39271,0 -1.46423,0 -2.92847,0 -4.39271,0 z M 321.9,420.24353 c -1.17533,3.68126 4.02024,8.98198 -0.0937,12.40625 3.69688,-2.04642 4.0158,-10.63531 0.0937,-12.40625 z m -32.6875,0.375 c -1.38143,4.04073 5.7401,4.15798 7.25237,8.0996 4.42523,4.13917 6.60714,-8.82172 1.00033,-3.56158 -4.0524,2.99206 -5.10907,-3.27663 -8.2527,-4.53802 z m 24.6875,0.65625 c -3.39622,1.06944 -0.27941,6.76949 0.25474,2.16796 0.009,-0.7311 -0.10055,-1.45599 -0.25474,-2.16796 z m -8.6875,0.4375 c -4.65318,0.0709 -1.70397,6.37722 0.80174,3.0036 0.15875,-1.06458 -0.34224,-2.08149 -0.80174,-3.0036 z m -25.25,2.40625 c -3.07181,0.86357 0.25465,4.86961 0.9119,4.24588 4.78793,-0.60612 1.30091,-3.3753 -0.9119,-4.24588 z m 36.8125,0.15625 c -2.78225,0.48305 -2.37979,6.8459 0.90442,5.49764 1.62673,-1.01904 2.70204,0.14031 1.24563,-2.22463 -0.1261,-1.27504 -0.72498,-2.98937 -2.15005,-3.27301 z m -31.6875,0.34375 c -0.85463,0.26507 0.34092,1.29339 0,0 z m 0.0937,0.53125 c -0.93598,4.00367 11.34104,6.9028 5.25,2.5 -1.69899,-0.93695 -3.49071,-1.6871 -5.25,-2.5 z m 22.25,0.4375 c -5.32762,1.18353 0.13774,6.4537 1.85701,2.64808 -0.17561,-1.11559 -1.08807,-1.9101 -1.85701,-2.64808 z m -15.71875,1.3125 c -2.6819,2.01795 3.86259,1.60703 0,0 z m 38.1875,0.5625 c 0.61805,5.84346 -4.61368,10.56759 -4.21233,16.31018 1.02404,2.166 3.73368,-2.84841 4.40499,1.49477 4.2304,-2.0618 2.8093,-11.46939 0.60044,-15.83176 l -0.39614,-0.99875 -0.39696,-0.97444 z m -51.71875,0.21875 c -2.04207,2.20219 2.79416,2.03372 0,0 z m -22.4375,0.84375 c -2.74191,-0.19219 -6.927,1.80305 -2.11542,2.43076 1.10836,0.22582 4.96229,-2.25142 2.11542,-2.43076 z m 28.125,0.0625 c -3.89571,-1.43277 -4.67777,6.36478 -5.19179,5.03229 -0.24393,-5.19705 -0.49219,2.14202 -3.57451,2.48018 -2.66977,1.34319 -9.48233,4.59389 -3.63995,6.83128 3.61772,-1.60009 6.30625,-4.25763 7.91238,-6.76834 -0.2409,-2.19321 3.78221,2.69127 5.73275,0.0895 3.40814,-1.35792 2.34647,-7.5046 -1.23888,-7.66488 z m -4.15625,0.53125 c -2.82505,1.04729 2.48505,1.58477 0,0 z m -13.75,0.5625 c -2.87983,-0.8478 -6.32368,2.13758 -1.94553,3.36855 1.8957,0.38678 6.15976,-3.12481 1.94553,-3.36855 z m -17.75,0.28125 c -3.87436,0.45513 -3.24129,5.73882 0.46875,2.34375 2.83604,-0.66455 1.39105,-2.1331 -0.46875,-2.34375 z m 24.15625,0.375 c -1.34808,0.37416 -2.73984,2.87294 -0.3125,2.5625 -5.66903,4.95864 5.89341,0.0811 4.35397,-1.75711 -2.65845,0.69912 -2.1507,0.39726 -4.04147,-0.80539 z m 43.9375,0.34375 c -3.53265,-0.12669 -10.38726,1.80102 -10.85669,4.0738 4.05846,0.63877 8.70535,2.54965 7.86958,6.97995 4.24009,2.82111 7.94052,-3.08827 7.40548,-6.91845 0.001,-2.37652 -1.97363,-4.41867 -4.41837,-4.1353 z m -16.21875,0.125 c -2.57225,-0.4381 -4.3587,2.20885 -1.28125,3.03125 -3.75506,2.95568 5.65519,8.85797 3.76991,2.02904 -0.61892,-2.72769 -3.37698,-1.7025 -0.66113,-4.01685 0.2277,-1.00682 -1.20062,-1.11685 -1.82753,-1.04344 z m -38.6875,2.125 c -4.3086,0.005 -5.07409,6.65251 0.1875,4.3125 -4.14203,1.63161 -1.01768,8.41145 -1.84133,9.0268 -3.43952,1.08381 -2.01535,6.55603 1.62258,4.00445 -1.84717,-6.9637 4.31987,5.74494 7.29345,0.0385 1.47721,-3.12848 0.65863,-2.93209 -1.63226,-1.16696 -5.4385,-0.16244 -4.57588,-7.93787 -5.34869,-11.90283 2.59088,0.15857 1.62285,-4.26633 -0.28125,-4.3125 z m 31.5,0.375 c -4.83,0.29309 -8.86655,6.84028 -9.52694,9.34705 -3.23632,-3.89444 -4.03054,3.42835 0.15402,2.50701 2.60972,-0.37429 -1.13653,-2.79237 2.26441,-2.17728 3.48,-1.66325 4.90093,-11.32547 9.63976,-6.14553 0.0714,-1.537 -0.55798,-3.70738 -2.53125,-3.53125 z m -51.5,0.75 c -6.68476,1.18565 3.18269,6.20124 0,0 z m -5.09375,0.0937 c -2.60057,-0.67678 -4.46486,5.06802 -2.89916,3.36059 0.39155,-4.00434 2.57572,3.20171 4.12415,-0.76896 0.19087,-0.73262 -0.68867,-1.88996 -1.22499,-2.59163 z m 87.53125,1.6875 c -4.10754,0.37148 -0.30581,8.57813 -0.18011,2.72395 -0.0664,-0.91289 0.14316,-1.81507 0.18011,-2.72395 z m -69.59375,0.8125 c -1.34391,2.3882 -1.09491,6.70703 -3.45732,2.81297 -1.02406,0.98621 -2.84203,4.86305 -4.17737,1.5314 0.92978,-7.95457 -8.23212,1.72548 -1.86653,3.51225 2.83375,2.33111 8.38027,-0.47472 6.93522,4.44306 0.0598,5.13671 6.19097,6.92652 10.15624,4.77116 -1.27519,-0.0194 -5.76729,-3.6462 -5.23904,-7.19632 -0.9649,-3.02861 0.62153,-8.03444 -2.3512,-9.87452 z m 49.40625,0.21875 c 1.13531,4.36917 -0.20487,9.69983 2.87203,13.35455 5.5538,-0.23058 4.21689,-13.58698 -2.23482,-13.33942 l -0.63721,-0.0151 z m -69.28125,1 c -2.42385,3.73444 4.4433,3.53697 1.7669,0.70155 l -0.73147,-0.37548 -1.03543,-0.32607 z m 63.1875,0.9375 c -2.56605,1.12728 1.88033,1.30395 0,0 z m -4.09375,1.78125 c -3.42589,0.37919 -3.31157,5.56674 0.40625,2.78125 2.42436,-0.36092 1.27802,-2.65606 -0.40625,-2.78125 z m -27.625,1.40625 c -2.89159,2.96947 5.23252,6.47824 2.5625,1.28125 -0.74316,-0.53304 -1.55713,-1.37351 -2.5625,-1.28125 z m 31.1875,0.0625 c -3.51322,3.6704 6.29863,0.73588 0,0 z m 36.09375,0.40625 c -2.00337,2.54361 0.53938,9.67333 0,3.63143 0,-1.21047 0,-2.42095 0,-3.63143 z M 232.9,443.14978 c -0.32212,1.44653 0.56802,2.82548 0,0 z m 81.1875,0.75 c -4.93253,-0.89208 -1.07429,6.13045 1.99709,2.65484 1.10945,-1.31879 -0.99527,-2.3779 -1.99709,-2.65484 z m 6.75,0.5 c -3.97017,2.14332 1.97002,5.70777 1.13067,1.62127 l -0.42518,-0.75109 -0.70549,-0.87018 z m -23.0625,1.1875 c -4.04637,-0.92768 -3.39032,4.02275 -0.10088,1.99014 2.26641,-3.44347 1.08588,3.1809 4.37564,0.59126 3.18462,-3.30865 -3.15209,-1.51138 -4.27476,-2.5814 z m -4.5625,0.25 c -0.53014,0.0816 -0.39066,0.0601 0,0 z m -51.40625,0.0937 c -5.11429,2.78027 6.22641,3.0531 7.02111,6.90553 2.20931,5.30174 2.87429,-4.18717 -0.95114,-4.67193 -1.78175,-1.22143 -3.87362,-2.20099 -6.06997,-2.2336 z m 32.46875,0.125 c -3.68428,1.50231 3.74438,4.68435 1.0501,0.53525 l -0.49544,-0.4438 -0.55466,-0.0914 z m 14.6875,0.25 c -3.60328,2.70625 4.4995,6.27014 2.02207,1.68938 -0.50752,-0.68813 -1.07751,-1.57945 -2.02207,-1.68938 z m -9.5,1.3125 c -2.78079,0.0747 -4.74498,4.21504 -3.63393,4.45588 -2.21453,0.56558 -4.39318,-0.91945 -4.95642,2.11633 -2.38558,1.58118 -0.7911,7.01291 1.72765,3.59605 2.37177,-1.02767 11.49271,-3.25156 6.36518,-6.12198 -1.70478,0.67675 3.78071,-3.54399 0.49752,-4.04628 z m 52.34375,0.625 c -4.30476,0.3376 1.49564,3.47526 0,0 z m -97.25,0.1875 c -5.46645,2.38873 2.12416,2.89072 0,0 z m 59.78125,0.21875 c -4.40257,1.72407 2.62563,5.06315 0.99073,0.67185 l -0.4168,-0.52652 -0.57393,-0.14533 z m 29.09375,0.0625 c -3.99992,2.5503 3.02826,3.966 0,0 z m 3.375,0.28125 c -1.90025,2.46838 -6.06245,9.63804 -1.3125,13.6875 -2.40797,2.2472 -4.31723,3.88415 -7.8125,4.09375 3.1451,5.0925 7.12378,-2.21899 11.13547,-0.30676 4.10544,1.12487 4.80826,-1.18058 4.30203,-4.47708 0,-1.88455 0,-3.76911 0,-5.65366 -5.02933,-0.65599 -0.32226,-8.44171 -5.6875,-6.25 0.1346,-0.41956 -0.0701,-1.14484 -0.625,-1.09375 z m -12.5,0.40625 c -3.14858,3.05142 9.55524,4.13227 5.48209,0.64902 -1.53871,1.78604 -2.96914,-1.2521 -5.48209,-0.64902 z m -13.28125,0.25 c -4.35204,-0.0851 -3.13931,4.55594 0.4375,3.3125 0.71576,-0.91012 1.75072,-3.49224 -0.4375,-3.3125 z m -14.78125,0.0312 c -0.51368,2.76429 4.28761,1.86551 0.40626,0.10364 l -0.40626,-0.10364 z m -2.15625,0.3125 c -2.58583,2.9925 2.30545,10.89666 4.97646,9.1176 -0.82187,-3.26492 -1.56529,-7.57462 -4.97646,-9.1176 z m -41.96875,0.1875 c -2.83856,-0.57847 -4.67456,1.55954 -0.875,1.625 3.13539,-0.91622 6.15826,5.85093 5.50574,0.0305 -1.01977,-1.44076 -3.02043,-1.57832 -4.63074,-1.65547 z m 62.1875,0.15625 c -3.73575,0.49746 -0.52185,7.97992 0.20505,3.06773 0.049,-1.02528 0.005,-2.06058 -0.20505,-3.06773 z m -71.34375,1.03125 c -0.36689,0.39428 0.30635,0.71215 0,0 z m 88.59375,0.0312 c -2.12724,1.14176 3.49629,1.99058 0.52395,0.10778 l -0.52395,-0.10778 z m -25.84375,1.40625 c -4.1539,2.18033 2.60168,1.79559 0,0 z m 25.84375,0.25 c -4.15261,0.26142 -1.53177,10.4728 -0.40743,3.97196 0.18067,-1.31889 0.34274,-2.64149 0.40743,-3.97196 z m -8.96875,0.1875 c -2.57966,0.29147 -3.80312,6.14315 -4.8125,1.375 -3.19634,0.9423 -0.54135,5.49934 0.9375,2.28125 2.74854,5.08429 7.22019,-1.53689 3.875,-3.65625 z m -77.90625,0.125 c -2.69266,0.54328 -2.47349,6.14283 0.7773,3.76647 -1.44487,0.54857 1.80897,-3.5419 -0.7773,-3.76647 z m 29.84375,0 c -2.3098,2.38725 5.23274,3.59869 1.23965,0.55559 l -0.66276,-0.43613 -0.57689,-0.11946 z m 25.875,0.15625 c -4.64404,1.51795 3.45778,6.87465 2.67255,1.06188 -0.57596,-0.85363 -1.70997,-1.09364 -2.67255,-1.06188 z m -32.1875,1.46875 c -6.19565,1.91404 3.99954,3.85357 0,0 z m 41.78125,0.25 c -3.60847,-0.7887 -7.18563,7.30011 -1.68127,3.61016 0.90625,-0.85836 5.75598,-3.62892 1.68127,-3.61016 z m -37,0.0312 c -3.6113,-0.39639 -1.09857,4.11107 -3.81834,3.13046 -3.24981,2.8743 3.92583,2.88806 2.50584,0.55704 3.07184,0.56714 6.53475,-4.1298 1.3125,-3.6875 z m -8.6875,0.0625 c -4.519,-0.31428 0.38649,6.90987 1.73643,2.01709 0.69923,-1.24403 -0.54621,-2.34214 -1.73643,-2.01709 z m -9.09375,0.1875 c -3.124,0.19177 -0.12559,4.94508 0.54568,0.80584 0.17838,-0.38356 -0.14094,-0.85758 -0.54568,-0.80584 z m 4.5625,0.78125 c -4.69114,0.15036 1.3412,2.8722 0.6763,0.0864 l -0.6763,-0.0864 z m 32.875,0.46875 c -3.29816,-0.77851 -10.51819,7.28347 -3.75,5.6875 2.16402,-2.45769 9.14591,-1.89882 3.75,-5.6875 z m -46.5625,0.0625 c 0.40941,2.18817 -4.48416,0.13174 -3.1875,3.86406 -1.17843,4.84483 8.90632,-2.04014 4.15754,-2.88988 -1.68866,0.6893 1.63281,-1.11162 -0.97004,-0.97418 z m 68.15625,0.84375 c -3.88678,-0.77744 -5.35169,9.04448 -1.53859,3.46437 0.27876,-0.75485 2.55456,-3.34246 1.53859,-3.46437 z m -57.0625,0.1875 c -3.47484,2.65665 3.65743,4.13314 1.89948,0.70869 -0.50805,-0.45957 -1.19427,-0.80427 -1.89948,-0.70869 z m 53.15625,0.8125 c -4.25045,0.2866 -2.35857,4.72734 0,0 z m 9.8125,0.5625 c -5.14592,3.56794 3.98349,6.43455 4.01798,2.12168 -0.98935,-1.22406 -2.63964,-1.56654 -4.01798,-2.12168 z m -41.4375,0.40625 c -0.85384,2.34711 -0.69721,2.76663 0,0 z m -0.65625,1.90625 c -3.08212,4.12606 -11.8711,-3.01743 -12.59106,2.56883 2.40837,4.70176 10.85161,1.55526 12.59106,-2.56883 z m -24.4375,-1.75 c -2.42893,2.89852 2.99871,1.19009 0,0 z m 6.0625,0.0625 c -4.91046,5.47077 5.68561,2.1626 0,0 z m 57.65625,0.28125 c -4.38882,1.90608 0.0131,4.89615 0,0 z m -22.9375,0.5625 c -4.45578,0.6346 1.36609,4.93369 1,0.0312 l -1,-0.0312 z m -37.71875,0.25 -0.53125,0.875 0.53125,-0.875 z m -6.3125,1.21875 c -4.76135,2.33807 1.87773,4.13516 1.32678,0.71059 -0.32052,-0.38929 -0.79319,-0.74366 -1.32678,-0.71059 z m 28.1875,0.5 c -2.74683,1.27712 -7.06825,6.8865 -3.86688,9.21452 2.72201,-1.06855 6.16755,-7.95942 5.8881,-7.72108 -0.50613,0.20559 -2.8666,-0.56311 -2.02122,-1.49344 z m 49.46875,0.53125 c -6.85748,1.51237 3.33073,4.83545 0,0 z m -74.65625,0.1875 c -4.3255,3.01449 5.07357,4.97592 1.35602,0.6392 l -0.67266,-0.50942 -0.68336,-0.12978 z m 49.46875,0.40625 c -4.00868,0.14245 -5.5211,11.34024 -0.375,7.0625 -0.64761,-3.72323 6.11041,-5.39686 0.375,-7.0625 z m -14.53125,0.0937 c -2.31249,0.70881 1.76624,0.40149 0,0 z m -6.03125,0.34375 c -1.7495,2.83838 2.05321,1.28723 0,0 z m 11.53125,0.0625 c -3.08606,1.21569 -2.20128,4.90074 -5.9375,3.03125 -5.11292,3.93848 6.02628,7.95101 5.40625,2.78125 3.64921,-0.10849 5.65998,-6.0742 0.53125,-5.8125 z m -13.0625,0.4375 0.25,0.0312 -0.25,-0.0312 z m 31.40625,0.90625 c -6.71504,0.15853 -3.54486,11.80458 1.23537,5.26049 0.90548,-1.55127 1.35382,-5.12908 -1.23537,-5.26049 z m 13.5625,0.65625 0.0937,0.0312 -0.0937,-0.0312 z m -74.4375,0.0312 c -2.38554,-0.55797 -6.30104,3.9488 -1.61748,2.90947 2.5135,-0.3247 6.60236,-1.74937 1.61748,-2.90947 z m 22.46875,0.0312 c -2.90296,1.75425 1.20054,1.56637 0,0 z m 11.5,0.5 c -2.84709,0.7958 -3.16008,5.67358 -4.69688,6.66832 3.27794,5.61086 8.45507,-5.46897 4.69688,-6.66832 z m 53.34375,0.21875 c 0.63934,0 1.44514,0 0,0 z m -13.71875,0.25 c -2.55491,-0.0877 -6.89065,5.24775 -2.15093,2.25603 -0.007,-1.51153 8.17951,-1.07438 2.15093,-2.25603 z m -67.40625,0.53125 c -4.33336,1.61701 3.41164,4.0162 0.79833,0.47155 l -0.40477,-0.33861 -0.39356,-0.13294 z m 13.34375,0.0312 c -3.27653,3.08058 4.00341,0.76394 0,0 z m -3.40625,0.125 c -4.04382,-0.20822 -0.68794,2.02942 1.125,0.0312 -0.375,-0.0104 -0.75,-0.0208 -1.125,-0.0312 z m 47.6875,1.625 c -3.50115,1.12966 1.81375,1.64381 0,0 z m -52.4375,0.15625 c -2.98437,-0.0414 -5.4848,2.00789 -0.89439,1.63171 0.6577,0.0482 2.60491,-1.49865 0.89439,-1.63171 z m -6.96875,0.5 c -3.37856,-0.37953 -5.29761,4.6841 -0.5,2.71875 2.31471,-0.39202 4.68726,-1.35639 0.5,-2.71875 z m -8.71875,1.5 c 0.52243,0 0.34902,0 0,0 z m 84.0625,0.375 c -4.45493,0.68432 1.22897,7.64514 2.01711,2.03745 1.15675,-1.86695 -0.71798,-1.81199 -2.01711,-2.03745 z m -88.125,0.21875 c 0,3.45833 0,6.91667 0,10.375 4.63159,0.94749 -0.0149,8.28122 5.3125,6.0625 1.53466,2.99676 0.8405,-1.15019 2.20893,-1.44144 4.08935,-4.85374 1.32364,-12.71626 -4.63836,-14.32063 -0.93423,-0.32454 -1.90375,-0.54208 -2.88307,-0.67543 z m 16.9375,0.125 0.0937,0.0625 -0.0937,-0.0625 z m 56.09375,0.0312 c -3.00949,-0.96144 -8.72191,3.96937 -7.63627,4.15252 3.24423,-2.75827 12.41296,3.72373 11.73548,-2.43 -0.47542,-1.52498 -2.78752,-1.53341 -4.09921,-1.72252 z m -12.53125,0.5 c -2.30708,2.03969 1.89278,2.05808 0,0 z m 4.46875,0 c -1.45404,1.35764 -4.8414,1.20311 -2.86506,2.19786 -2.74562,5.31725 4.7829,-1.68431 2.86506,-2.19786 z m -49.875,0.0937 c -3.51719,1.92036 2.9367,3.73008 1.64638,0.49409 -0.46561,-0.35681 -1.06359,-0.52354 -1.64638,-0.49409 z M 327.9,473.61853 c -3.04878,-0.023 -6.08321,3.79851 -1.47745,3.2522 0.90978,-0.2846 3.55404,-2.99828 1.47745,-3.2522 z m -40.21875,0.9375 c -2.01478,0.42945 0.66845,0.61015 0,0 z m -11.9375,0.53125 c -4.30936,2.83528 0.52914,9.41545 4.50397,9.37388 1.39136,-2.67815 -1.04685,-9.00567 -4.50397,-9.37388 z m -22.21875,0.0625 c -6.81384,0.96134 5.62047,8.21264 3.54895,1.14689 -0.91946,-0.9192 -2.30781,-1.13131 -3.54895,-1.14689 z m 44.15625,0.0312 c -1.78009,0.80444 0.24826,1.74462 0,0 z m -16.46875,0.15625 c -4.59433,4.50696 5.94968,3.32033 0,0 z m -16.21875,0.5 c -2.94916,1.37176 -5.32964,8.34383 -0.77549,3.86362 0.59015,-0.89802 2.01124,-3.13604 0.77549,-3.86362 z m 51.53125,0.1875 c -6.1693,1.17296 2.12493,5.84554 0,0 z m -28.09375,0.0312 c -2.41635,0.75872 -5.80924,2.62311 -7.16299,3.31761 -0.52815,7.07319 11.3135,-1.8605 7.16299,-3.31761 z m -28.3125,0.0937 c -3.3459,-0.0567 -1.83345,6.26722 0,0 z m 72.9375,0.21875 c -3.81818,-0.85297 -8.31468,6.21235 -3.07039,5.35453 2.62307,0.10341 3.74534,-1.65557 3.13289,-4.66737 -0.0749,-0.14896 0.11907,-0.65302 -0.0625,-0.68716 z m -62.5625,0.625 c -2.65454,-0.16543 -3.54617,3.09765 -0.57897,0.56531 l 0.57897,-0.56531 z m 49.0625,0.0937 -0.52961,0.8827 0.52961,-0.8827 z m -21.9375,0.28125 c -0.99875,2.23761 -0.83372,2.65849 0,0 z m 8.625,0.78125 c -2.88273,1.18698 -3.15103,1.8324 -6.04167,3.4539 -1.43219,2.963 6.08149,2.66638 5.00471,-0.28915 -1.71548,-1.29536 4.96042,-0.50243 1.03696,-3.16475 z m 12.65625,0 c -7.45992,0.16235 2.57811,6.46017 0,0 z m -49.0625,0.90625 c -3.24048,0.13294 -8.45249,6.23377 -2.41523,4.12823 0.95634,-0.30168 5.02462,-3.79288 2.41523,-4.12823 z m -24.28125,0.4375 c -2.00695,1.79745 -1.81006,9.80514 0.70165,3.89743 0.18489,-1.17565 0.51814,-3.16165 -0.70165,-3.89743 z m 49.46875,0.1875 c -1.92188,3.37336 -12.21303,2.40721 -9.125,7.46875 2.44557,0.0743 4.99177,-1.31995 5.58865,0.47178 2.66684,-0.001 1.26346,-2.82489 4.01207,-3.44766 1.31316,-1.3245 0.58194,-3.28149 -0.47572,-4.49287 z m 14.71875,0.0312 c -2.37738,1.38934 5.43061,4.09791 1.96875,0.28125 -0.64599,-0.14928 -1.30028,-0.29564 -1.96875,-0.28125 z m -55.5,0.4375 c -5.31461,2.49529 -0.0831,8.79106 2.41479,2.30055 0.80758,-0.89981 -1.55934,-2.32768 -2.41479,-2.30055 z m 66.9375,0.65625 c -4.10021,2.30338 2.51944,4.6057 0,0 z m -63.125,0.0937 c -3.10144,1.65852 1.61217,5.14122 1.49369,0.80421 -0.18209,-0.60579 -0.90939,-0.88553 -1.49369,-0.80421 z m 58.3125,0.1875 c -4.37983,1.90335 4.57751,1.5958 0,0 z m 16.75,0.0312 c -5.65878,0.15697 -1.29373,7.90938 0,1.36823 0.57314,-0.90697 -1.09666,-1.13167 0,-1.36823 z m -58.375,0.125 c -5.24029,1.36919 0.60918,6.76734 2.04526,2.80638 -0.26413,-1.17521 -1.21131,-2.01486 -2.04526,-2.80638 z m 32.90625,0.34375 c -4.36728,3.95045 5.54887,1.52134 0,0 z m -8.65625,1.40625 c -1.43168,2.41784 5.16896,3.23533 1.57391,0.47964 l -0.6865,-0.28446 -0.88741,-0.19518 z M 261.9,483.05603 c -1.96366,1.48822 -0.48834,8.54693 1.60203,3.34504 0.10025,-1.17834 -0.2663,-3.00597 -1.60203,-3.34504 z m 54,0.84375 c -3.23536,4.16805 2.63423,8.19287 6.37554,8.89976 3.85666,1.27493 4.14344,-2.87766 0.30118,-2.70432 -2.92081,-1.04017 -5.94199,-2.96408 -6.67672,-6.19544 z m 3.65625,0.21875 c -3.91208,4.60097 7.8528,5.68954 6.25213,3.42984 -2.63453,-0.16072 -5.04908,-0.72881 -6.25213,-3.42984 z m -11.53125,0.125 c -2.61565,0.31163 -6.61659,1.1102 -1.95445,1.99778 4.55732,3.7381 2.48376,10.38712 4.28178,15.32644 2.64848,2.55111 1.75129,-7.68397 4.09308,-2.60468 3.17974,3.94646 13.48848,0.33667 6.56914,-3.51088 -1.75117,-2.59698 -7.03787,-2.37619 -7.05236,-2.20662 0.81614,-4.09344 -1.04047,-9.12188 -5.93719,-9.00204 z m -37.84375,0.28125 c -2.77398,3.43857 4.13527,-0.0803 0,0 z m -4.3125,1.28125 c -5.80936,0.85888 4.15159,8.03416 2.45331,1.14253 0.42554,-1.51072 -1.80167,-0.78992 -2.45331,-1.14253 z m -22.65625,0.25 c -2.12151,2.29146 4.28767,1.56715 0,0 z m 3.1875,0.46875 c -3.9359,1.15568 0.99175,4.22714 0.4398,0.48306 l -0.18559,-0.34491 -0.25421,-0.13815 z m 86.125,0 c -0.1194,1.38644 1.47619,0.24285 0,0 z m -31.8125,0.375 c -7.66388,1.26086 6.3531,-0.13513 2.84375,5.1875 -0.81879,2.61005 -3.89908,11.13547 0.96906,9.27186 5.21818,-3.5635 2.43907,-13.93832 -3.81281,-14.45936 z m -23.40625,0.28125 c 0.16558,2.96938 4.1225,2.07674 1.04801,0.21942 l -0.4852,-0.17014 -0.56281,-0.0493 z m -6.34375,0.0312 c -3.39056,2.42329 3.41571,4.10837 1.39398,0.60042 l -0.54774,-0.34926 -0.84624,-0.25116 z m -28.53125,0.28125 c -3.76492,3.47184 3.64283,3.21889 0,0 z m 43,0.28125 c -3.16002,-0.52422 -5.26608,3.30033 -1.2236,2.9701 1.12187,-0.19455 3.70842,-2.95002 1.2236,-2.9701 z m 46.96875,0.3125 c -2.97784,-0.12028 2.15606,5.30932 0.7187,2.17622 -0.24819,-0.68623 0.62936,-2.48119 -0.7187,-2.17622 z m -74,0.125 c -0.47268,5.07978 -11.70392,-1.81473 -5.375,3.28125 2.81444,2.80715 6.6921,9.65189 9.00745,9.74758 -0.46434,-4.35828 -0.46841,-9.45154 -3.26503,-13.00407 L 258.4,488.21228 z m 16.375,0.375 c -3.33765,1.61554 4.4782,7.50047 2.38439,1.4539 0.22349,-1.3122 -1.63852,-1.16829 -2.38439,-1.4539 z m -40.21875,0.5 c -3.42044,2.31514 2.52247,1.8598 0,0 z m -1.65625,0.75 c 0,1.95833 0,3.91667 0,5.875 0.64715,-1.81216 1.3791,-4.21035 0,-5.875 z m 57,0.28125 c -1.57737,4.18358 5.17432,2.80021 1.89998,0.41271 l -0.80586,-0.25676 -1.09412,-0.15595 z m -25.3125,0.15625 c -6.01923,2.1694 5.91799,4.38371 0.75475,0.0288 l -0.75475,-0.0288 z m 4.59375,0.4375 c -3.60034,0.81364 -2.46218,3.64182 0.74189,2.22875 2.03456,-0.45445 0.45898,-2.00153 -0.74189,-2.22875 z m -24.375,0.15625 c -4.02029,2.14206 3.11064,4.96661 0.78927,0.24729 l -0.78927,-0.24729 z m 6.8125,0.8125 c -5.08305,2.8869 5.7966,4.87765 1.24331,0.57867 l -0.65051,-0.45264 -0.5928,-0.12603 z m 45.21875,0.53125 c -3.42437,3.85661 7.85579,5.97148 3.2664,1.59257 -0.93171,-0.76019 -1.98471,-1.63534 -3.2664,-1.59257 z m -23.84375,0.78125 c -0.52514,0.12119 -0.39281,0.0906 0,0 z m 9.34375,0.75 c -2.88751,0.0539 0.81859,2.76109 -2.46973,2.13982 -3.35639,1.6433 -4.8066,11.21302 -9.34277,5.92268 0.57678,6.79271 8.69316,1.70497 10.4612,-1.87808 1.69037,-2.30831 0.0369,-5.52909 3.19505,-2.21567 2.46092,-1.6613 0.41758,-4.01072 -1.84375,-3.96875 z m 49.375,0.0312 c -1.75108,3.44705 2.40874,6.94526 1.40625,1.94393 0.24688,-1.19934 -0.22372,-1.5837 -1.40625,-1.94393 z m -93.625,0.0312 c -1.39619,1.66291 -1.24115,4.43079 -2.87308,1.46291 -3.0586,-0.89097 -2.21229,3.50371 -2.31442,5.38118 -0.75887,2.19034 1.40977,3.45799 2.71875,1.18716 0.99789,2.59058 -3.66101,6.92375 -2.08424,7.81537 5.15613,-1.63482 6.69362,-8.10767 6.25177,-12.92726 -0.18839,-1.09057 -0.52694,-2.48065 -1.69878,-2.91936 z m 35.78125,1 c -3.12354,-0.37211 -4.75051,4.04379 -0.9666,3.33909 1.08916,-0.33371 3.41789,-3.43768 0.9666,-3.33909 z m -5.28125,0.0937 c -6.35052,1.25032 3.40716,3.72718 0,0 z m -19.09375,0.5 c -5.76721,0.84661 -8.41993,11.98324 -2.19993,13.69032 5.11393,0.30211 2.8307,-5.48816 7.20222,-7.31075 4.89205,-3.62073 -2.12793,-5.96863 -5.00229,-6.37957 z m 43.90625,1 c -3.56844,1.42046 -6.66497,6.00027 -7.56252,6.88416 -4.71069,-4.73104 -10.86511,4.36269 -4.79679,6.89963 4.11112,2.13866 5.63566,-5.77672 5.91166,-4.84947 0.30138,5.03917 0.86771,-2.251 3.81279,-2.63231 2.26718,-1.63879 9.99766,-4.88922 2.63486,-6.30201 z m 37,1.4375 c -5.58003,1.15704 4.11659,5.52047 0.69723,0.19182 L 330.4,497.83728 z m -87.625,0.125 c -1.17136,1.45764 -1.41011,8.01793 0.95694,3.15309 0.13277,-1.00443 0.14176,-2.66847 -0.95694,-3.15309 z m 25.15625,0.96875 c -1.27714,2.54533 2.82268,0.0413 0,0 z m -3.375,0.375 c -4.74757,1.14392 3.06965,6.39052 -0.0589,6.73601 -2.95587,4.17693 8.28359,1.11493 2.43387,-0.92351 2.43756,-1.58365 0.10237,-5.66485 -2.375,-5.8125 z m 68.25,0.90625 c -1.89983,0.71548 1.68174,2.46243 0,0 z m -3.28125,0.6875 c -3.65579,1.93843 1.04363,6.07906 2.9375,1.6875 -2.63169,0.67694 -1.05842,-1.28898 -2.9375,-1.6875 z m -4.78125,0.84375 c -3.69874,1.85337 2.6598,4.81998 1.57076,0.84907 -0.39352,-0.46308 -0.96017,-0.79179 -1.57076,-0.84907 z m -66,0.625 c -2.80679,-0.12256 -5.96685,7.91498 -1.73085,3.36967 1.30141,-2.67415 6.12934,-0.38655 2.35976,-3.311 l -0.62891,-0.0587 z m 38,0 c -3.63149,-0.84383 -7.09494,6.96708 -2.40937,4.04661 1.61575,-0.98857 7.47834,-3.11563 2.40937,-4.04661 z m 10.65625,0.0625 c -4.85045,1.59706 -2.08945,7.06246 1.84375,3.1875 -0.059,-1.15719 -0.17634,-3.35693 -1.84375,-3.1875 z m 15.28125,2.625 c -3.35681,0.004 -4.71517,6.19975 -0.34375,2.53125 1.56647,-0.73397 3.87575,-2.50385 0.34375,-2.53125 z m -21.1875,0.78125 c -6.45411,1.13738 -1.84898,4.91807 1.8518,2.90121 1.76998,-0.14309 -0.69747,-3.66694 -1.8518,-2.90121 z m 30.65625,0.1875 c -10.2272,4.20048 -22.68915,2.44039 -31.53125,9.96875 -1.69655,5.80096 6.54894,-7.44037 7.74717,-0.47751 -3.84333,3.31876 5.8497,6.65846 2.48651,1.31561 -0.92108,-1.59519 5.12633,0.60016 6.65863,-1.60532 3.34076,-1.73331 5.99023,-4.52343 9.32644,-6.26403 -2.49576,2.64177 -2.18006,4.00913 -3.22863,6.67976 2.8852,3.29227 5.91988,-5.17774 9.50988,-3.49452 0.5768,-3.8987 -7.79363,2.05449 -4.29675,-2.54467 -0.62401,-2.3883 2.11495,-1.99591 3.328,-3.57807 z m -88.3125,0.25 c -3.75052,2.35067 -4.13041,10.80564 0.21875,12.34375 0.42898,-4.11854 -4.08612,-8.81736 -0.21875,-12.34375 z m 68.46875,1.65625 c -3.59047,-0.20161 -4.14732,3.9579 -0.15625,2.09375 2.96124,-0.0382 3.23586,-1.50486 0.15625,-2.09375 z m -43.9375,0.46875 c -4.03398,-0.42971 -1.6363,4.8131 1.02806,1.31628 1.39361,-0.93156 -0.1358,-1.63807 -1.02806,-1.31628 z m 17.71875,0.0937 c -2.92354,1.38283 2.54561,1.89267 0,0 z m -27.15625,0.0937 c -5.53211,1.57212 0.29068,6.45754 2.16824,2.39504 -0.25941,-1.11008 -1.315,-1.76737 -2.16824,-2.39504 z m 15.03125,0.28125 c -2.21605,1.29485 6.60365,5.74389 6.44337,4.00005 -1.17289,-2.36348 -3.99223,-3.54168 -6.44337,-4.00005 z m 6.5625,4.9375 c -0.12108,1.35978 0.84885,-0.45175 0,0 z m -31.65625,-4.8125 c -2.30304,0.96691 -3.58336,0.1657 -2.04912,2.76146 0.98301,5.82746 5.77832,0.51699 3.20534,-2.51317 l -0.0625,-0.15454 -1.09375,-0.0937 z m 38.09375,0.625 c -1.20419,2.96235 3.17258,0.79659 0,0 z m 13.34375,0.3125 c -6.02062,-1.34508 -4.24118,10.87078 -0.025,5.38458 1.11722,-1.64312 1.61611,-3.81577 0.025,-5.38458 z m -15.84375,0.5625 c -5.47291,0.64685 4.24938,7.78435 2.18215,1.4567 -0.16595,-2.02027 -1.16138,-0.52514 -2.18215,-1.4567 z m -11.0625,0.25 c -2.05258,1.91213 3.52996,0.62505 0,0 z m -39.46875,0.34375 c -2.05033,0.17381 -0.59505,3.549 -1.03125,5.19686 0.39665,4.67073 8.01804,-5.77004 1.03125,-5.19686 z m 28.4375,0.53125 c -3.94691,0.61791 0.9163,7.01975 1.0625,1.46875 0.5439,-1.22766 0.2455,-1.50561 -1.0625,-1.46875 z m 9.84375,0.53125 c -2.56001,-0.28157 -7.71116,2.49776 -2.09375,1.28125 2.23317,1.3501 8.22542,7.38488 6.10849,0.88093 -0.11565,-1.9836 -2.47701,-2.27736 -4.01474,-2.16218 z m 18.4375,1.03125 c -2.16855,2.41063 1.16145,7.66086 4.67881,6.46875 0.76359,-2.68338 -2.04012,-5.98422 -4.67881,-6.46875 z m -38.0625,0.34375 c -2.45009,1.15448 -0.48215,6.41217 0.80112,1.91273 0.23113,-0.67983 0.0561,-1.78755 -0.80112,-1.91273 z m 24.65625,0.65625 c 0.67252,2.14855 1.52628,6.609 5.14756,5.46875 5.08616,0.72207 -1.61745,-4.39451 -3.46199,-4.96067 l -0.99513,-0.40609 -0.69044,-0.10199 z m -39.25,2.375 c -1.48259,1.6539 -3.65288,2.39787 -5.09375,3.09375 2.08333,0 4.16667,0 6.25,0 0.12097,-0.97815 0.32421,-3.16675 -1.15625,-3.09375 z m 22.5,0.6875 c -4.59531,3.14928 4.98432,3.3319 0.55872,0.37589 l -0.55872,-0.37589 z m 57.6875,0.25 c -2.70102,3.34773 4.19517,2.01081 0,0 z m 14.9375,0.34375 c -1.7067,1.1398 0.61516,2.65926 0,0 z m -28.125,1.03125 c -3.59079,1.49919 4.36918,0.66608 0,0 z m -15.1875,0.375 c -2.56879,0.37418 1.40892,0.76195 0,0 z m 6.65625,0.375 c -0.12139,0.0502 0.12139,0.0502 0,0 z"
       id="path4437"
       inkscape:connector-curvature="0" />
  </g>
</svg>
