<svg width="100" height="100" version="1.1" xmlns="http://www.w3.org/2000/svg">
 <g transform="translate(-232.9 -419.46)">
  <rect x="230.7" y="417.31" width="104.58" height="104.58" enable-background="new" fill="#afafaf" fill-opacity=".13333"/>
  <path d="m232.9 419.4c-0.64181 2.04 1.4925-0.10953 0.0892 0zm13.969 0c-2.3361 2.1516 3.2825 2.1368 0.50376 0.0624zm7.375 0c-1.4308 3.9896 4.8154 5.3683 3.4722 1.0916-0.4973-1.3947-1.6235-1.0734-3.4722-1.0916zm1.75 4.0625c-6.3549-2.9332-11.761 2.6706-16.179 6.1815-3.1758 1.7651 4.6585-4.9121-8e-3 -3.7752 2.3282-2.3832 1.0334-3.5484-1.4535-1.407-2.7911 1.0891-6.6228-0.80553-5.4528 3.4631 1.431 1.5926 7.4425-3.2284 4.1214 1.1599 1.3955 2.2732-6.4364 4.3931-1.5823 3.0671 9.7945-3.2522 21.346-2.1867 29.617-9.2518 1.0128-5.9316-5.3772 7.1689-8.3776 0.8773l-0.68487-0.3148zm3.3438-4.0625c2.5225 1.4334 3.0492-0.62587 0 0zm10.594 0c-1.9821 1.4987-5.0065 7.6998 0.0312 5.6875 2.6768 2.6356 8.6026 1.4693 5.5008-2.9598-0.86139-3.0574-3.0494-2.8503-5.5321-2.7277zm5.5312 0c0.91745 0.66526 1.507-0.32283 0.0535 0zm5.8125 0c0.72927 2.3671 6.231 6.5989 7.2837 4.4797-1.401-2.5262-1.6391-5.5274-5.3733-4.4797h-1.9104zm21.844 0c0.19475 1.6736 3.9398-0.55691 0 0zm23.5 0c-1.5358 4.4276 8.8471-1.0789 4.3927 0h-4.3927zm-4.7188 0.84375c-1.1753 3.6813 4.0202 8.982-0.0937 12.406 3.6969-2.0464 4.0158-10.635 0.0937-12.406zm-32.688 0.375c-1.3814 4.0407 5.7401 4.158 7.2524 8.0996 4.4252 4.1392 6.6071-8.8217 1.0003-3.5616-4.0524 2.9921-5.1091-3.2766-8.2527-4.538zm24.688 0.65625c-3.3962 1.0694-0.27941 6.7695 0.25474 2.168 9e-3 -0.7311-0.10055-1.456-0.25474-2.168zm-8.6875 0.4375c-4.6532 0.0709-1.704 6.3772 0.80174 3.0036 0.15875-1.0646-0.34224-2.0815-0.80174-3.0036zm-25.25 2.4062c-3.0718 0.86357 0.25465 4.8696 0.9119 4.2459 4.7879-0.60612 1.3009-3.3753-0.9119-4.2459zm36.812 0.15625c-2.7822 0.48305-2.3798 6.8459 0.90442 5.4976 1.6267-1.019 2.702 0.14031 1.2456-2.2246-0.1261-1.275-0.72498-2.9894-2.15-3.273zm-31.688 0.34375c-0.85463 0.26507 0.34092 1.2934 0 0zm0.0937 0.53125c-0.93598 4.0037 11.341 6.9028 5.25 2.5-1.699-0.93695-3.4907-1.6871-5.25-2.5zm22.25 0.4375c-5.3276 1.1835 0.13774 6.4537 1.857 2.6481-0.17561-1.1156-1.0881-1.9101-1.857-2.6481zm-15.719 1.3125c-2.6819 2.018 3.8626 1.607 0 0zm38.188 0.5625c0.61805 5.8435-4.6137 10.568-4.2123 16.31 1.024 2.166 3.7337-2.8484 4.405 1.4948 4.2304-2.0618 2.8093-11.469 0.60044-15.832l-0.39614-0.99875zm-51.719 0.21875c-2.0421 2.2022 2.7942 2.0337 0 0zm-22.438 0.84375c-2.7419-0.19219-6.927 1.803-2.1154 2.4308 1.1084 0.22582 4.9623-2.2514 2.1154-2.4308zm28.125 0.0625c-3.8957-1.4328-4.6778 6.3648-5.1918 5.0323-0.24393-5.197-0.49219 2.142-3.5745 2.4802-2.6698 1.3432-9.4823 4.5939-3.64 6.8313 3.6177-1.6001 6.3062-4.2576 7.9124-6.7683-0.2409-2.1932 3.7822 2.6913 5.7328 0.0895 3.4081-1.3579 2.3465-7.5046-1.2389-7.6649zm-4.1562 0.53125c-2.825 1.0473 2.485 1.5848 0 0zm-13.75 0.5625c-2.8798-0.8478-6.3237 2.1376-1.9455 3.3686 1.8957 0.38678 6.1598-3.1248 1.9455-3.3686zm-17.75 0.28125c-3.8744 0.45513-3.2413 5.7388 0.46875 2.3438 2.836-0.66455 1.391-2.1331-0.46875-2.3438zm24.156 0.375c-1.3481 0.37416-2.7398 2.8729-0.3125 2.5625-5.669 4.9586 5.8934 0.0811 4.354-1.7571-2.6584 0.69912-2.1507 0.39726-4.0415-0.80539zm43.938 0.34375c-3.5326-0.12669-10.387 1.801-10.857 4.0738 4.0585 0.63877 8.7054 2.5496 7.8696 6.98 4.2401 2.8211 7.9405-3.0883 7.4055-6.9184 1e-3 -2.3765-1.9736-4.4187-4.4184-4.1353zm-16.219 0.125c-2.5722-0.4381-4.3587 2.2088-1.2812 3.0312-3.7551 2.9557 5.6552 8.858 3.7699 2.029-0.61892-2.7277-3.377-1.7025-0.66113-4.0168 0.2277-1.0068-1.2006-1.1168-1.8275-1.0434zm-38.688 2.125c-4.3086 5e-3 -5.0741 6.6525 0.1875 4.3125-4.142 1.6316-1.0177 8.4114-1.8413 9.0268-3.4395 1.0838-2.0154 6.556 1.6226 4.0044-1.8472-6.9637 4.3199 5.7449 7.2934 0.0385 1.4772-3.1285 0.65863-2.9321-1.6323-1.167-5.4385-0.16244-4.5759-7.9379-5.3487-11.903 2.5909 0.15857 1.6228-4.2663-0.28125-4.3125zm31.5 0.375c-4.83 0.29309-8.8666 6.8403-9.5269 9.347-3.2363-3.8944-4.0305 3.4284 0.15402 2.507 2.6097-0.37429-1.1365-2.7924 2.2644-2.1773 3.48-1.6632 4.9009-11.325 9.6398-6.1455 0.0714-1.537-0.55798-3.7074-2.5312-3.5312zm-51.5 0.75c-6.6848 1.1856 3.1827 6.2012 0 0zm-5.0938 0.0937c-2.6006-0.67678-4.4649 5.068-2.8992 3.3606 0.39155-4.0043 2.5757 3.2017 4.1242-0.76896 0.19087-0.73262-0.68867-1.89-1.225-2.5916zm87.531 1.6875c-4.1075 0.37148-0.30581 8.5781-0.18011 2.724-0.0664-0.91289 0.14316-1.8151 0.18011-2.724zm-69.594 0.8125c-1.3439 2.3882-1.0949 6.707-3.4573 2.813-1.0241 0.98621-2.842 4.863-4.1774 1.5314 0.92978-7.9546-8.2321 1.7255-1.8665 3.5122 2.8338 2.3311 8.3803-0.47472 6.9352 4.4431 0.0598 5.1367 6.191 6.9265 10.156 4.7712-1.2752-0.0194-5.7673-3.6462-5.239-7.1963-0.9649-3.0286 0.62153-8.0344-2.3512-9.8745zm49.406 0.21875c1.1353 4.3692-0.20487 9.6998 2.872 13.355 5.5538-0.23058 4.2169-13.587-2.2348-13.339l-0.63721-0.0151zm-69.281 1c-2.4238 3.7344 4.4433 3.537 1.7669 0.70155l-0.73147-0.37548zm63.188 0.9375c-2.566 1.1273 1.8803 1.304 0 0zm-4.0938 1.7812c-3.4259 0.37919-3.3116 5.5667 0.40625 2.7812 2.4244-0.36092 1.278-2.6561-0.40625-2.7812zm-27.625 1.4062c-2.8916 2.9695 5.2325 6.4782 2.5625 1.2812-0.74316-0.53304-1.5571-1.3735-2.5625-1.2812zm31.188 0.0625c-3.5132 3.6704 6.2986 0.73588 0 0zm36.094 0.40625c-2.0034 2.5436 0.53938 9.6733 0 3.6314v-3.6314zm-100.22 0.68755c-0.32212 1.4465 0.56802 2.8255 0 0zm81.188 0.75c-4.9325-0.89208-1.0743 6.1304 1.9971 2.6548 1.1094-1.3188-0.99527-2.3779-1.9971-2.6548zm6.75 0.5c-3.9702 2.1433 1.97 5.7078 1.1307 1.6213l-0.42518-0.75109zm-23.062 1.1875c-4.0464-0.92768-3.3903 4.0228-0.10088 1.9901 2.2664-3.4435 1.0859 3.1809 4.3756 0.59126 3.1846-3.3086-3.1521-1.5114-4.2748-2.5814zm-4.5625 0.25c-0.53014 0.0816-0.39066 0.0601 0 0zm-51.406 0.0937c-5.1143 2.7803 6.2264 3.0531 7.0211 6.9055 2.2093 5.3017 2.8743-4.1872-0.95114-4.6719-1.7818-1.2214-3.8736-2.201-6.07-2.2336zm32.469 0.125c-3.6843 1.5023 3.7444 4.6844 1.0501 0.53525l-0.49544-0.4438-0.55466-0.0914zm14.688 0.25c-3.6033 2.7062 4.4995 6.2701 2.0221 1.6894-0.50752-0.68813-1.0775-1.5794-2.0221-1.6894zm-9.5 1.3125c-2.7808 0.0747-4.745 4.215-3.6339 4.4559-2.2145 0.56558-4.3932-0.91945-4.9564 2.1163-2.3856 1.5812-0.7911 7.0129 1.7276 3.596 2.3718-1.0277 11.493-3.2516 6.3652-6.122-1.7048 0.67675 3.7807-3.544 0.49752-4.0463zm52.344 0.625c-4.3048 0.3376 1.4956 3.4753 0 0zm-97.25 0.1875c-5.4664 2.3887 2.1242 2.8907 0 0zm59.781 0.21875c-4.4026 1.7241 2.6256 5.0632 0.99073 0.67185l-0.4168-0.52652zm29.094 0.0625c-3.9999 2.5503 3.0283 3.966 0 0zm3.375 0.28125c-1.9002 2.4684-6.0624 9.638-1.3125 13.688-2.408 2.2472-4.3172 3.8842-7.8125 4.0938 3.1451 5.0925 7.1238-2.219 11.135-0.30676 4.1054 1.1249 4.8083-1.1806 4.302-4.4771v-5.6537c-5.0293-0.65599-0.32226-8.4417-5.6875-6.25 0.1346-0.41956-0.0701-1.1448-0.625-1.0938zm-12.5 0.40625c-3.1486 3.0514 9.5552 4.1323 5.4821 0.64902-1.5387 1.786-2.9691-1.2521-5.4821-0.64902zm-13.281 0.25c-4.352-0.0851-3.1393 4.5559 0.4375 3.3125 0.71576-0.91012 1.7507-3.4922-0.4375-3.3125zm-14.781 0.0312c-0.51368 2.7643 4.2876 1.8655 0.40626 0.10364zm-2.1562 0.3125c-2.5858 2.9925 2.3054 10.897 4.9765 9.1176-0.82187-3.2649-1.5653-7.5746-4.9765-9.1176zm-41.969 0.1875c-2.8386-0.57847-4.6746 1.5595-0.875 1.625 3.1354-0.91622 6.1583 5.8509 5.5057 0.0305-1.0198-1.4408-3.0204-1.5783-4.6307-1.6555zm62.188 0.15625c-3.7358 0.49746-0.52185 7.9799 0.20505 3.0677 0.049-1.0253 5e-3 -2.0606-0.20505-3.0677zm-71.344 1.0312c-0.36689 0.39428 0.30635 0.71215 0 0zm88.594 0.0312c-2.1272 1.1418 3.4963 1.9906 0.52395 0.10778zm-25.844 1.4062c-4.1539 2.1803 2.6017 1.7956 0 0zm25.844 0.25c-4.1526 0.26142-1.5318 10.473-0.40743 3.972 0.18067-1.3189 0.34274-2.6415 0.40743-3.972zm-8.9688 0.1875c-2.5797 0.29147-3.8031 6.1432-4.8125 1.375-3.1963 0.9423-0.54135 5.4993 0.9375 2.2812 2.7485 5.0843 7.2202-1.5369 3.875-3.6562zm-77.906 0.125c-2.6927 0.54328-2.4735 6.1428 0.7773 3.7665-1.4449 0.54857 1.809-3.5419-0.7773-3.7665zm29.844 0c-2.3098 2.3872 5.2327 3.5987 1.2396 0.55559l-0.66276-0.43613zm25.875 0.15625c-4.644 1.518 3.4578 6.8746 2.6726 1.0619-0.57596-0.85363-1.71-1.0936-2.6726-1.0619zm-32.188 1.4688c-6.1956 1.914 3.9995 3.8536 0 0zm41.781 0.25c-3.6085-0.7887-7.1856 7.3001-1.6813 3.6102 0.90625-0.85836 5.756-3.6289 1.6813-3.6102zm-37 0.0312c-3.6113-0.39639-1.0986 4.1111-3.8183 3.1305-3.2498 2.8743 3.9258 2.8881 2.5058 0.55704 3.0718 0.56714 6.5348-4.1298 1.3125-3.6875zm-8.6875 0.0625c-4.519-0.31428 0.38649 6.9099 1.7364 2.0171 0.69923-1.244-0.54621-2.3421-1.7364-2.0171zm-9.0938 0.1875c-3.124 0.19177-0.12559 4.9451 0.54568 0.80584 0.17838-0.38356-0.14094-0.85758-0.54568-0.80584zm4.5625 0.78125c-4.6911 0.15036 1.3412 2.8722 0.6763 0.0864zm32.875 0.46875c-3.2982-0.77851-10.518 7.2835-3.75 5.6875 2.164-2.4577 9.1459-1.8988 3.75-5.6875zm-46.562 0.0625c0.40941 2.1882-4.4842 0.13174-3.1875 3.8641-1.1784 4.8448 8.9063-2.0401 4.1575-2.8899-1.6887 0.6893 1.6328-1.1116-0.97004-0.97418zm68.156 0.84375c-3.8868-0.77744-5.3517 9.0445-1.5386 3.4644 0.27876-0.75485 2.5546-3.3425 1.5386-3.4644zm-57.062 0.1875c-3.4748 2.6566 3.6574 4.1331 1.8995 0.70869-0.50805-0.45957-1.1943-0.80427-1.8995-0.70869zm53.156 0.8125c-4.2504 0.2866-2.3586 4.7273 0 0zm9.8125 0.5625c-5.1459 3.5679 3.9835 6.4346 4.018 2.1217-0.98935-1.2241-2.6396-1.5665-4.018-2.1217zm-41.438 0.40625c-0.85384 2.3471-0.69721 2.7666 0 0zm-0.65625 1.9062c-3.0821 4.1261-11.871-3.0174-12.591 2.5688 2.4084 4.7018 10.852 1.5553 12.591-2.5688zm-24.438-1.75c-2.4289 2.8985 2.9987 1.1901 0 0zm6.0625 0.0625c-4.9105 5.4708 5.6856 2.1626 0 0zm57.656 0.28125c-4.3888 1.9061 0.0131 4.8962 0 0zm-22.938 0.5625c-4.4558 0.6346 1.3661 4.9337 1 0.0312zm-37.719 0.25-0.53125 0.875zm-6.3125 1.2188c-4.7614 2.3381 1.8777 4.1352 1.3268 0.71059-0.32052-0.38929-0.79319-0.74366-1.3268-0.71059zm28.188 0.5c-2.7468 1.2771-7.0682 6.8865-3.8669 9.2145 2.722-1.0686 6.1676-7.9594 5.8881-7.7211-0.50613 0.20559-2.8666-0.56311-2.0212-1.4934zm49.469 0.53125c-6.8575 1.5124 3.3307 4.8354 0 0zm-74.656 0.1875c-4.3255 3.0145 5.0736 4.9759 1.356 0.6392l-0.67266-0.50942zm49.469 0.40625c-4.0087 0.14245-5.5211 11.34-0.375 7.0625-0.64761-3.7232 6.1104-5.3969 0.375-7.0625zm-14.531 0.0937c-2.3125 0.70881 1.7662 0.40149 0 0zm-6.0312 0.34375c-1.7495 2.8384 2.0532 1.2872 0 0zm11.531 0.0625c-3.0861 1.2157-2.2013 4.9007-5.9375 3.0312-5.1129 3.9385 6.0263 7.951 5.4062 2.7812 3.6492-0.10849 5.66-6.0742 0.53125-5.8125zm-13.062 0.4375 0.25 0.0312zm31.406 0.90625c-6.715 0.15853-3.5449 11.805 1.2354 5.2605 0.90548-1.5513 1.3538-5.1291-1.2354-5.2605zm13.562 0.65625 0.0937 0.0312zm-74.438 0.0312c-2.3855-0.55797-6.301 3.9488-1.6175 2.9095 2.5135-0.3247 6.6024-1.7494 1.6175-2.9095zm22.469 0.0312c-2.903 1.7542 1.2005 1.5664 0 0zm11.5 0.5c-2.8471 0.7958-3.1601 5.6736-4.6969 6.6683 3.2779 5.6109 8.4551-5.469 4.6969-6.6683zm53.344 0.21875c0.63934 0 1.4451 0 0 0zm-13.719 0.25c-2.5549-0.0877-6.8906 5.2478-2.1509 2.256-7e-3 -1.5115 8.1795-1.0744 2.1509-2.256zm-67.406 0.53125c-4.3334 1.617 3.4116 4.0162 0.79833 0.47155l-0.40477-0.33861zm13.344 0.0312c-3.2765 3.0806 4.0034 0.76394 0 0zm-3.4062 0.125c-4.0438-0.20822-0.68794 2.0294 1.125 0.0312l-1.125-0.0312zm47.688 1.625c-3.5012 1.1297 1.8138 1.6438 0 0zm-52.438 0.15625c-2.9844-0.0414-5.4848 2.0079-0.89439 1.6317 0.6577 0.0482 2.6049-1.4986 0.89439-1.6317zm-6.9688 0.5c-3.3786-0.37953-5.2976 4.6841-0.5 2.7188 2.3147-0.39202 4.6873-1.3564 0.5-2.7188zm-8.7188 1.5c0.52243 0 0.34902 0 0 0zm84.062 0.375c-4.4549 0.68432 1.229 7.6451 2.0171 2.0374 1.1568-1.867-0.71798-1.812-2.0171-2.0374zm-88.125 0.21875v10.375c4.6316 0.94749-0.0149 8.2812 5.3125 6.0625 1.5347 2.9968 0.8405-1.1502 2.2089-1.4414 4.0894-4.8537 1.3236-12.716-4.6384-14.321-0.93423-0.32454-1.9038-0.54208-2.8831-0.67543zm16.938 0.125 0.0937 0.0625zm56.094 0.0312c-3.0095-0.96144-8.7219 3.9694-7.6363 4.1525 3.2442-2.7583 12.413 3.7237 11.735-2.43-0.47542-1.525-2.7875-1.5334-4.0992-1.7225zm-12.531 0.5c-2.3071 2.0397 1.8928 2.0581 0 0zm4.4688 0c-1.454 1.3576-4.8414 1.2031-2.8651 2.1979-2.7456 5.3172 4.7829-1.6843 2.8651-2.1979zm-49.875 0.0937c-3.5172 1.9204 2.9367 3.7301 1.6464 0.49409-0.46561-0.35681-1.0636-0.52354-1.6464-0.49409zm79.906 0.46925c-3.0488-0.023-6.0832 3.7985-1.4774 3.2522 0.90978-0.2846 3.554-2.9983 1.4774-3.2522zm-40.219 0.9375c-2.0148 0.42945 0.66845 0.61015 0 0zm-11.938 0.53125c-4.3094 2.8353 0.52914 9.4154 4.504 9.3739 1.3914-2.6782-1.0468-9.0057-4.504-9.3739zm-22.219 0.0625c-6.8138 0.96134 5.6205 8.2126 3.549 1.1469-0.91946-0.9192-2.3078-1.1313-3.549-1.1469zm44.156 0.0312c-1.7801 0.80444 0.24826 1.7446 0 0zm-16.469 0.15625c-4.5943 4.507 5.9497 3.3203 0 0zm-16.219 0.5c-2.9492 1.3718-5.3296 8.3438-0.77549 3.8636 0.59015-0.89802 2.0112-3.136 0.77549-3.8636zm51.531 0.1875c-6.1693 1.173 2.1249 5.8455 0 0zm-28.094 0.0312c-2.4164 0.75872-5.8092 2.6231-7.163 3.3176-0.52815 7.0732 11.314-1.8605 7.163-3.3176zm-28.312 0.0937c-3.3459-0.0567-1.8334 6.2672 0 0zm72.938 0.21875c-3.8182-0.85297-8.3147 6.2124-3.0704 5.3545 2.6231 0.10341 3.7453-1.6556 3.1329-4.6674-0.0749-0.14896 0.11907-0.65302-0.0625-0.68716zm-62.562 0.625c-2.6545-0.16543-3.5462 3.0976-0.57897 0.56531zm49.062 0.0937-0.52961 0.8827zm-21.938 0.28125c-0.99875 2.2376-0.83372 2.6585 0 0zm8.625 0.78125c-2.8827 1.187-3.151 1.8324-6.0417 3.4539-1.4322 2.963 6.0815 2.6664 5.0047-0.28915-1.7155-1.2954 4.9604-0.50243 1.037-3.1648zm12.656 0c-7.4599 0.16235 2.5781 6.4602 0 0zm-49.062 0.90625c-3.2405 0.13294-8.4525 6.2338-2.4152 4.1282 0.95634-0.30168 5.0246-3.7929 2.4152-4.1282zm-24.281 0.4375c-2.007 1.7974-1.8101 9.8051 0.70165 3.8974 0.18489-1.1756 0.51814-3.1616-0.70165-3.8974zm49.469 0.1875c-1.9219 3.3734-12.213 2.4072-9.125 7.4688 2.4456 0.0743 4.9918-1.32 5.5886 0.47178 2.6668-1e-3 1.2635-2.8249 4.0121-3.4477 1.3132-1.3245 0.58194-3.2815-0.47572-4.4929zm14.719 0.0312c-2.3774 1.3893 5.4306 4.0979 1.9688 0.28125-0.64599-0.14928-1.3003-0.29564-1.9688-0.28125zm-55.5 0.4375c-5.3146 2.4953-0.0831 8.7911 2.4148 2.3006 0.80758-0.89981-1.5593-2.3277-2.4148-2.3006zm66.938 0.65625c-4.1002 2.3034 2.5194 4.6057 0 0zm-63.125 0.0937c-3.1014 1.6585 1.6122 5.1412 1.4937 0.80421-0.18209-0.60579-0.90939-0.88553-1.4937-0.80421zm58.312 0.1875c-4.3798 1.9034 4.5775 1.5958 0 0zm16.75 0.0312c-5.6588 0.15697-1.2937 7.9094 0 1.3682 0.57314-0.90697-1.0967-1.1317 0-1.3682zm-58.375 0.125c-5.2403 1.3692 0.60918 6.7673 2.0453 2.8064-0.26413-1.1752-1.2113-2.0149-2.0453-2.8064zm32.906 0.34375c-4.3673 3.9504 5.5489 1.5213 0 0zm-8.6562 1.4062c-1.4317 2.4178 5.169 3.2353 1.5739 0.47964l-0.6865-0.28446zm-37.094 0.06285c-1.9637 1.4882-0.48834 8.5469 1.602 3.345 0.10025-1.1783-0.2663-3.006-1.602-3.345zm54 0.84375c-3.2354 4.168 2.6342 8.1929 6.3755 8.8998 3.8567 1.2749 4.1434-2.8777 0.30118-2.7043-2.9208-1.0402-5.942-2.9641-6.6767-6.1954zm3.6562 0.21875c-3.9121 4.601 7.8528 5.6895 6.2521 3.4298-2.6345-0.16072-5.0491-0.72881-6.2521-3.4298zm-11.531 0.125c-2.6156 0.31163-6.6166 1.1102-1.9544 1.9978 4.5573 3.7381 2.4838 10.387 4.2818 15.326 2.6485 2.5511 1.7513-7.684 4.0931-2.6047 3.1797 3.9465 13.488 0.33667 6.5691-3.5109-1.7512-2.597-7.0379-2.3762-7.0524-2.2066 0.81614-4.0934-1.0405-9.1219-5.9372-9.002zm-37.844 0.28125c-2.774 3.4386 4.1353-0.0803 0 0zm-4.3125 1.2812c-5.8094 0.85888 4.1516 8.0342 2.4533 1.1425 0.42554-1.5107-1.8017-0.78992-2.4533-1.1425zm-22.656 0.25c-2.1215 2.2915 4.2877 1.5672 0 0zm3.1875 0.46875c-3.9359 1.1557 0.99175 4.2271 0.4398 0.48306l-0.18559-0.34491zm86.125 0c-0.1194 1.3864 1.4762 0.24285 0 0zm-31.812 0.375c-7.6639 1.2609 6.3531-0.13513 2.8438 5.1875-0.81879 2.61-3.8991 11.135 0.96906 9.2719 5.2182-3.5635 2.4391-13.938-3.8128-14.459zm-23.406 0.28125c0.16558 2.9694 4.1225 2.0767 1.048 0.21942l-0.4852-0.17014-0.56281-0.0493zm-6.3438 0.0312c-3.3906 2.4233 3.4157 4.1084 1.394 0.60042l-0.54774-0.34926zm-28.531 0.28125c-3.7649 3.4718 3.6428 3.2189 0 0zm43 0.28125c-3.16-0.52422-5.2661 3.3003-1.2236 2.9701 1.1219-0.19455 3.7084-2.95 1.2236-2.9701zm46.969 0.3125c-2.9778-0.12028 2.1561 5.3093 0.7187 2.1762-0.24819-0.68623 0.62936-2.4812-0.7187-2.1762zm-74 0.125c-0.47268 5.0798-11.704-1.8147-5.375 3.2812 2.8144 2.8072 6.6921 9.6519 9.0074 9.7476-0.46434-4.3583-0.46841-9.4515-3.265-13.004l-0.36742-0.02471zm16.375 0.375c-3.3376 1.6155 4.4782 7.5005 2.3844 1.4539 0.22349-1.3122-1.6385-1.1683-2.3844-1.4539zm-40.219 0.5c-3.4204 2.3151 2.5225 1.8598 0 0zm-1.6562 0.75v5.875c0.64715-1.8122 1.3791-4.2104 0-5.875zm57 0.28125c-1.5774 4.1836 5.1743 2.8002 1.9 0.41271l-0.80586-0.25676zm-25.312 0.15625c-6.0192 2.1694 5.918 4.3837 0.75475 0.0288zm4.5938 0.4375c-3.6003 0.81364-2.4622 3.6418 0.74189 2.2288 2.0346-0.45445 0.45898-2.0015-0.74189-2.2288zm-24.375 0.15625c-4.0203 2.1421 3.1106 4.9666 0.78927 0.24729zm6.8125 0.8125c-5.083 2.8869 5.7966 4.8776 1.2433 0.57867l-0.65051-0.45264zm45.219 0.53125c-3.4244 3.8566 7.8558 5.9715 3.2664 1.5926-0.93171-0.76019-1.9847-1.6353-3.2664-1.5926zm-23.844 0.78125c-0.52514 0.12119-0.39281 0.0906 0 0zm9.3438 0.75c-2.8875 0.0539 0.81859 2.7611-2.4697 2.1398-3.3564 1.6433-4.8066 11.213-9.3428 5.9227 0.57678 6.7927 8.6932 1.705 10.461-1.8781 1.6904-2.3083 0.0369-5.5291 3.195-2.2157 2.4609-1.6613 0.41758-4.0107-1.8438-3.9688zm49.375 0.0312c-1.7511 3.447 2.4087 6.9453 1.4062 1.9439 0.24688-1.1993-0.22372-1.5837-1.4062-1.9439zm-93.625 0.0312c-1.3962 1.6629-1.2412 4.4308-2.8731 1.4629-3.0586-0.89097-2.2123 3.5037-2.3144 5.3812-0.75887 2.1903 1.4098 3.458 2.7188 1.1872 0.99789 2.5906-3.661 6.9238-2.0842 7.8154 5.1561-1.6348 6.6936-8.1077 6.2518-12.927-0.18839-1.0906-0.52694-2.4806-1.6988-2.9194zm35.781 1c-3.1235-0.37211-4.7505 4.0438-0.9666 3.3391 1.0892-0.33371 3.4179-3.4377 0.9666-3.3391zm-5.2812 0.0937c-6.3505 1.2503 3.4072 3.7272 0 0zm-19.094 0.5c-5.7672 0.84661-8.4199 11.983-2.1999 13.69 5.1139 0.30211 2.8307-5.4882 7.2022-7.3108 4.892-3.6207-2.1279-5.9686-5.0023-6.3796zm43.906 1c-3.5684 1.4205-6.665 6.0003-7.5625 6.8842-4.7107-4.731-10.865 4.3627-4.7968 6.8996 4.1111 2.1387 5.6357-5.7767 5.9117-4.8495 0.30138 5.0392 0.86771-2.251 3.8128-2.6323 2.2672-1.6388 9.9977-4.8892 2.6349-6.302zm37 1.4375c-5.58 1.157 4.1166 5.5205 0.69723 0.19182l-0.69723-0.19162zm-87.625 0.125c-1.1714 1.4576-1.4101 8.0179 0.95694 3.1531 0.13277-1.0044 0.14176-2.6685-0.95694-3.1531zm25.156 0.96875c-1.2771 2.5453 2.8227 0.0413 0 0zm-3.375 0.375c-4.7476 1.1439 3.0696 6.3905-0.0589 6.736-2.9559 4.1769 8.2836 1.1149 2.4339-0.92351 2.4376-1.5836 0.10237-5.6648-2.375-5.8125zm68.25 0.90625c-1.8998 0.71548 1.6817 2.4624 0 0zm-3.2812 0.6875c-3.6558 1.9384 1.0436 6.0791 2.9375 1.6875-2.6317 0.67694-1.0584-1.289-2.9375-1.6875zm-4.7812 0.84375c-3.6987 1.8534 2.6598 4.82 1.5708 0.84907-0.39352-0.46308-0.96017-0.79179-1.5708-0.84907zm-66 0.625c-2.8068-0.12256-5.9668 7.915-1.7308 3.3697 1.3014-2.6742 6.1293-0.38655 2.3598-3.311l-0.62891-0.0587zm38 0c-3.6315-0.84383-7.0949 6.9671-2.4094 4.0466 1.6158-0.98857 7.4783-3.1156 2.4094-4.0466zm10.656 0.0625c-4.8504 1.5971-2.0894 7.0625 1.8438 3.1875-0.059-1.1572-0.17634-3.3569-1.8438-3.1875zm15.281 2.625c-3.3568 4e-3 -4.7152 6.1998-0.34375 2.5312 1.5665-0.73397 3.8758-2.5038 0.34375-2.5312zm-21.188 0.78125c-6.4541 1.1374-1.849 4.9181 1.8518 2.9012 1.77-0.14309-0.69747-3.6669-1.8518-2.9012zm30.656 0.1875c-10.227 4.2005-22.689 2.4404-31.531 9.9688-1.6966 5.801 6.5489-7.4404 7.7472-0.47751-3.8433 3.3188 5.8497 6.6585 2.4865 1.3156-0.92108-1.5952 5.1263 0.60016 6.6586-1.6053 3.3408-1.7333 5.9902-4.5234 9.3264-6.264-2.4958 2.6418-2.1801 4.0091-3.2286 6.6798 2.8852 3.2923 5.9199-5.1777 9.5099-3.4945 0.5768-3.8987-7.7936 2.0545-4.2968-2.5447-0.62401-2.3883 2.115-1.9959 3.328-3.5781zm-88.312 0.25c-3.7505 2.3507-4.1304 10.806 0.21875 12.344 0.42898-4.1185-4.0861-8.8174-0.21875-12.344zm68.469 1.6562c-3.5905-0.20161-4.1473 3.9579-0.15625 2.0938 2.9612-0.0382 3.2359-1.5049 0.15625-2.0938zm-43.938 0.46875c-4.034-0.42971-1.6363 4.8131 1.0281 1.3163 1.3936-0.93156-0.1358-1.6381-1.0281-1.3163zm17.719 0.0937c-2.9235 1.3828 2.5456 1.8927 0 0zm-27.156 0.0937c-5.5321 1.5721 0.29068 6.4575 2.1682 2.395-0.25941-1.1101-1.315-1.7674-2.1682-2.395zm15.031 0.28125c-2.216 1.2948 6.6036 5.7439 6.4434 4-1.1729-2.3635-3.9922-3.5417-6.4434-4zm6.5625 4.9375c-0.12108 1.3598 0.84885-0.45175 0 0zm-31.656-4.8125c-2.303 0.96691-3.5834 0.1657-2.0491 2.7615 0.98301 5.8275 5.7783 0.51699 3.2053-2.5132l-0.0625-0.15454-1.0938-0.0937zm38.094 0.625c-1.2042 2.9624 3.1726 0.79659 0 0zm13.344 0.3125c-6.0206-1.3451-4.2412 10.871-0.025 5.3846 1.1172-1.6431 1.6161-3.8158 0.025-5.3846zm-15.844 0.5625c-5.4729 0.64685 4.2494 7.7844 2.1822 1.4567-0.16595-2.0203-1.1614-0.52514-2.1822-1.4567zm-11.062 0.25c-2.0526 1.9121 3.53 0.62505 0 0zm-39.469 0.34375c-2.0503 0.17381-0.59505 3.549-1.0312 5.1969 0.39665 4.6707 8.018-5.77 1.0312-5.1969zm28.438 0.53125c-3.9469 0.61791 0.9163 7.0198 1.0625 1.4688 0.5439-1.2277 0.2455-1.5056-1.0625-1.4688zm9.8438 0.53125c-2.56-0.28157-7.7112 2.4978-2.0938 1.2812 2.2332 1.3501 8.2254 7.3849 6.1085 0.88093-0.11565-1.9836-2.477-2.2774-4.0147-2.1622zm18.438 1.0312c-2.1686 2.4106 1.1614 7.6609 4.6788 6.4688 0.76359-2.6834-2.0401-5.9842-4.6788-6.4688zm-38.062 0.34375c-2.4501 1.1545-0.48215 6.4122 0.80112 1.9127 0.23113-0.67983 0.0561-1.7876-0.80112-1.9127zm24.656 0.65625c0.67252 2.1486 1.5263 6.609 5.1476 5.4688 5.0862 0.72207-1.6174-4.3945-3.462-4.9607l-0.99513-0.40609zm-39.25 2.375c-1.4826 1.6539-3.6529 2.3979-5.0938 3.0938h6.25c0.12097-0.97815 0.32421-3.1668-1.1562-3.0938zm22.5 0.6875c-4.5953 3.1493 4.9843 3.3319 0.55872 0.37589zm57.688 0.25c-2.701 3.3477 4.1952 2.0108 0 0zm14.938 0.34375c-1.7067 1.1398 0.61516 2.6593 0 0zm-28.125 1.0312c-3.5908 1.4992 4.3692 0.66608 0 0zm-15.188 0.375c-2.5688 0.37418 1.4089 0.76195 0 0zm6.6562 0.375c-0.12139 0.0502 0.12139 0.0502 0 0z" enable-background="new" fill="#b7b7b7" fill-opacity=".15686"/>
 </g>
</svg>
