<?xml version="1.0" encoding="UTF-8" standalone="no"?>
<!-- Created with Inkscape (http://www.inkscape.org/) -->

<svg
   xmlns:dc="http://purl.org/dc/elements/1.1/"
   xmlns:cc="http://creativecommons.org/ns#"
   xmlns:rdf="http://www.w3.org/1999/02/22-rdf-syntax-ns#"
   xmlns:svg="http://www.w3.org/2000/svg"
   xmlns="http://www.w3.org/2000/svg"
   xmlns:sodipodi="http://sodipodi.sourceforge.net/DTD/sodipodi-0.dtd"
   xmlns:inkscape="http://www.inkscape.org/namespaces/inkscape"
   id="svg2"
   style="enable-background:new;"
   height="128"
   width="128"
   version="1.1"
   inkscape:version="0.91 r13725"
   sodipodi:docname="p_scrub.svg">
  <sodipodi:namedview
     pagecolor="#ffffff"
     bordercolor="#666666"
     borderopacity="1"
     objecttolerance="10"
     gridtolerance="10"
     guidetolerance="10"
     inkscape:pageopacity="0"
     inkscape:pageshadow="2"
     inkscape:window-width="1920"
     inkscape:window-height="1178"
     id="namedview23"
     showgrid="false"
     inkscape:zoom="1.84375"
     inkscape:cx="-117.69492"
     inkscape:cy="64"
     inkscape:window-x="-8"
     inkscape:window-y="-8"
     inkscape:window-maximized="1"
     inkscape:current-layer="svg2" />
  <defs
     id="defs4" />
  <metadata
     id="metadata7">
    <rdf:RDF>
      <cc:Work
         rdf:about="">
        <dc:format>image/svg+xml</dc:format>
        <dc:type
           rdf:resource="http://purl.org/dc/dcmitype/StillImage" />
        <dc:title />
      </cc:Work>
    </rdf:RDF>
  </metadata>
  <rect
     style="display:inline;fill:#e5ffe1;fill-opacity:0.73333335;fill-rule:nonzero;stroke:none;enable-background:new"
     id="rect16039"
     width="138.73773"
     height="138.73773"
     x="-4.8265018"
     y="-4.8264937"
     inkscape:label="#rect4361" />
  <g
     id="layer3"
     fill-opacity="0.5"
     transform="translate(-550,-424.36218)">
    <path
       id="path3597"
       fill="#66c443"
       d="m592.98,484.62c-3.0202-13.869-21.857-8.2369-20.376,4.773-4.086,12.016,8.2459,26.343,20.274,18.43,6.6005-3.1524,19.535-18.84,5.887-20.602-2.0645-0.45105-4.3858-0.80522-5.7849-2.6015z" />
    <path
       id="path3599"
       fill="#66c443"
       d="m570.95,453.99c10.748-0.53738,14.51-5.374,11.285-13.972-3.2244-8.5984-4.2992-12.36-9.6732-10.211-5.374,2.1496-11.285,9.6732-9.1358,15.585,2.1496,5.9114,2.687,6.9862,7.5236,8.5984z" />
    <path
       id="path3601"
       fill="#66c443"
       d="m626.84,467.96c8.061-0.53739,12.898-8.5984,12.898-12.898,0-4.2992-10.211-15.047-12.36-18.272-2.1496-3.2244-5.374,3.2244-6.4488,10.748s-6.9862,22.571,5.9114,20.421z" />
    <path
       id="path3603"
       fill="#66c443"
       d="m654.41,483.55c-5.9114,5.9114,2.687,15.047,2.687,15.047s12.36,0.53738,11.823-9.6732c-0.53738-10.211,0-15.585-7.5236-15.585s-4.2992,5.374-6.9862,10.211z" />
    <path
       id="path3605"
       fill="#66c443"
       d="m566.07,534.32c1.2897,7.0937,9.6732,13.543,12.898,5.159,3.2244-8.3835-8.3834-16.767-12.898-5.159z" />
    <path
       id="path3607"
       fill="#7dc263"
       d="m611.26,520.09c0.5374,11.823,9.1358,17.197,15.047,14.51,5.9114-2.687,11.823-8.5984,10.211-16.659-1.6122-8.061-10.211-15.047-13.972-17.197-3.7618-2.1496-11.285,13.435-11.285,19.346z" />
    <path
       id="path3609"
       fill="#66c443"
       d="m652.64,532.45c3.7618,5.9114,1.6122,5.9114,4.8366,8.061s6.4488,5.374,6.4488-2.687-0.53738-12.898-6.9862-12.898-3.7618,4.2992-4.2992,7.5236z" />
  </g>
  <g
     id="layer2"
     transform="translate(-550,-424.36218)">
    <flowRoot
       id="flowRoot4636"
       style="letter-spacing:0px;word-spacing:0px;"
       line-height="125%"
       fill-opacity="0.50196078"
       font-weight="normal"
       xml:space="preserve"
       font-size="40px"
       transform="translate(0,-197.63783)"
       font-style="normal"
       font-family="Sans"
       fill="#e4463a"><flowRegion
         id="flowRegion4638"><rect
           id="rect4640"
           fill-opacity="0.50196"
           height="1182.3"
           width="922.07"
           y="-401.8"
           x="1878.1"
           fill="#e4463a" /></flowRegion><flowPara
         id="flowPara4642" /></flowRoot>  </g>
  <g
     id="layer5"
     transform="translate(-550,-622.00001)">
    <text
       id="text5085"
       style="enable-background:new;writing-mode:lr-tb;letter-spacing:0px;text-anchor:start;word-spacing:0px;text-align:start;"
       line-height="125%"
       font-weight="normal"
       font-size="14px"
       font-style="normal"
       font-stretch="normal"
       font-variant="normal"
       y="692.59656"
       x="711.65137"
       font-family="Sans"
       xml:space="preserve"
       fill="#000000"><tspan
         id="tspan5087"
         y="692.59656"
         x="711.65137">Derived from &quot;Elevate&quot; by Tobias Kuehn</tspan></text>
  </g>
</svg>
