<?xml version="1.0" encoding="UTF-8" standalone="no"?>
<!-- Created with Inkscape (http://www.inkscape.org/) -->

<svg
   xmlns:dc="http://purl.org/dc/elements/1.1/"
   xmlns:cc="http://creativecommons.org/ns#"
   xmlns:rdf="http://www.w3.org/1999/02/22-rdf-syntax-ns#"
   xmlns:svg="http://www.w3.org/2000/svg"
   xmlns="http://www.w3.org/2000/svg"
   xmlns:xlink="http://www.w3.org/1999/xlink"
   xmlns:sodipodi="http://sodipodi.sourceforge.net/DTD/sodipodi-0.dtd"
   xmlns:inkscape="http://www.inkscape.org/namespaces/inkscape"
   width="100"
   height="100"
   id="svg5181"
   version="1.1"
   inkscape:version="0.91 r13725"
   sodipodi:docname="p_scree.svg">
  <defs
     id="defs5183" />
  <sodipodi:namedview
     id="base"
     pagecolor="#ffffff"
     bordercolor="#666666"
     borderopacity="1.0"
     inkscape:pageopacity="0.0"
     inkscape:pageshadow="2"
     inkscape:zoom="3.3976481"
     inkscape:cx="12.456286"
     inkscape:cy="46.233857"
     inkscape:document-units="px"
     inkscape:current-layer="layer3"
     showgrid="false"
     fit-margin-top="0"
     fit-margin-left="0"
     fit-margin-right="0"
     fit-margin-bottom="0"
     inkscape:window-width="1920"
     inkscape:window-height="1178"
     inkscape:window-x="-8"
     inkscape:window-y="-8"
     inkscape:window-maximized="1" />
  <metadata
     id="metadata5186">
    <rdf:RDF>
      <cc:Work
         rdf:about="">
        <dc:format>image/svg+xml</dc:format>
        <dc:type
           rdf:resource="http://purl.org/dc/dcmitype/StillImage" />
        <dc:title />
      </cc:Work>
    </rdf:RDF>
  </metadata>
  <g
     inkscape:groupmode="layer"
     id="layer3"
     inkscape:label="Livello">
    <rect
       style="display:inline;fill:#888888;fill-opacity:0.02352941;stroke:none;enable-background:new"
       id="rect4186"
       width="104.57857"
       height="104.57857"
       x="-2.2892761"
       y="-2.2892737"
       inkscape:label="#rect4012" />
    <path
       transform="matrix(2.9071835,0,0,2.9041293,-846.49132,-1907.9505)"
       sodipodi:type="arc"
       style="fill:#b4b4b4;fill-opacity:0.80392157;fill-rule:nonzero;stroke:none;display:inline;enable-background:new"
       id="path5318"
       sodipodi:cx="284"
       sodipodi:cy="670.36218"
       sodipodi:rx="1"
       sodipodi:ry="1"
       d="m 285,670.36218 a 1,1 0 1 1 -2,0 1,1 0 1 1 2,0 z"
       inkscape:tile-cx="-117.6829"
       inkscape:tile-cy="2.9607562"
       inkscape:tile-w="5.814367"
       inkscape:tile-h="5.8082586"
       inkscape:tile-x0="-120.59008"
       inkscape:tile-y0="0.056626851" />
    <use
       height="100"
       width="100"
       transform="translate(33.449272,-29.455578)"
       id="use5324"
       xlink:href="#path5318"
       y="0"
       x="0" />
    <use
       height="100"
       width="100"
       transform="translate(25.957072,-17.384819)"
       id="use5326"
       xlink:href="#path5318"
       y="0"
       x="0" />
    <use
       height="100"
       width="100"
       transform="translate(24.916492,-0.73549536)"
       id="use5328"
       xlink:href="#path5318"
       y="0"
       x="0" />
    <use
       height="100"
       width="100"
       transform="translate(30.327522,10.919031)"
       id="use5330"
       xlink:href="#path5318"
       y="0"
       x="0" />
    <use
       height="100"
       width="100"
       transform="translate(24.708372,22.781674)"
       id="use5332"
       xlink:href="#path5318"
       y="0"
       x="0" />
    <use
       height="100"
       width="100"
       transform="translate(27.622002,37.349833)"
       id="use5334"
       xlink:href="#path5318"
       y="0"
       x="0" />
    <use
       height="100"
       width="100"
       transform="translate(26.997652,57.120904)"
       id="use5336"
       xlink:href="#path5318"
       y="0"
       x="0" />
    <use
       height="100"
       width="100"
       transform="translate(35.738552,51.085525)"
       id="use5338"
       xlink:href="#path5318"
       y="0"
       x="0" />
    <use
       height="100"
       width="100"
       transform="translate(39.068412,40.679697)"
       id="use5340"
       xlink:href="#path5318"
       y="0"
       x="0" />
    <use
       height="100"
       width="100"
       transform="translate(36.154782,26.111539)"
       id="use5342"
       xlink:href="#path5318"
       y="0"
       x="0" />
    <use
       height="100"
       width="100"
       transform="translate(39.068412,-3.6491274)"
       id="use5344"
       xlink:href="#path5318"
       y="0"
       x="0" />
    <use
       height="100"
       width="100"
       transform="translate(42.190162,-20.506567)"
       id="use5346"
       xlink:href="#path5318"
       y="0"
       x="0" />
    <use
       height="100"
       width="100"
       transform="translate(44.271332,-32.577327)"
       id="use5348"
       xlink:href="#path5318"
       y="0"
       x="0" />
    <use
       height="100"
       width="100"
       transform="translate(53.428462,-35.074725)"
       id="use5350"
       xlink:href="#path5318"
       y="0"
       x="0" />
    <use
       height="100"
       width="100"
       transform="translate(59.255722,-26.750063)"
       id="use5352"
       xlink:href="#path5318"
       y="0"
       x="0" />
    <use
       height="100"
       width="100"
       transform="translate(55.925852,-15.51177)"
       id="use5354"
       xlink:href="#path5318"
       y="0"
       x="0" />
    <use
       height="100"
       width="100"
       transform="translate(53.844692,-6.7708754)"
       id="use5356"
       xlink:href="#path5318"
       y="0"
       x="0" />
    <use
       height="100"
       width="100"
       transform="translate(47.809312,5.2998846)"
       id="use5358"
       xlink:href="#path5318"
       y="0"
       x="0" />
    <use
       height="100"
       width="100"
       transform="translate(44.895682,14.04078)"
       id="use5360"
       xlink:href="#path5318"
       y="0"
       x="0" />
    <use
       height="100"
       width="100"
       transform="translate(48.017432,52.54234)"
       id="use5362"
       xlink:href="#path5318"
       y="0"
       x="0" />
    <use
       height="100"
       width="100"
       transform="translate(52.595992,40.263464)"
       id="use5364"
       xlink:href="#path5318"
       y="0"
       x="0" />
    <use
       height="100"
       width="100"
       transform="translate(50.722942,28.608938)"
       id="use5366"
       xlink:href="#path5318"
       y="0"
       x="0" />
    <use
       height="100"
       width="100"
       transform="translate(59.671952,49.004359)"
       id="use5368"
       xlink:href="#path5318"
       y="0"
       x="0" />
    <use
       height="100"
       width="100"
       transform="translate(65.082982,57.745254)"
       id="use5370"
       xlink:href="#path5318"
       y="0"
       x="0" />
    <use
       height="100"
       width="100"
       transform="translate(65.291102,39.639115)"
       id="use5372"
       xlink:href="#path5318"
       y="0"
       x="0" />
    <use
       height="100"
       width="100"
       transform="translate(62.169352,31.106336)"
       id="use5374"
       xlink:href="#path5318"
       y="0"
       x="0" />
    <use
       height="100"
       width="100"
       transform="translate(57.174552,17.370644)"
       id="use5376"
       xlink:href="#path5318"
       y="0"
       x="0" />
    <use
       height="100"
       width="100"
       transform="translate(62.377472,2.3862526)"
       id="use5378"
       xlink:href="#path5318"
       y="0"
       x="0" />
    <use
       height="100"
       width="100"
       transform="translate(66.539802,-6.5627584)"
       id="use5380"
       xlink:href="#path5318"
       y="0"
       x="0" />
    <use
       height="100"
       width="100"
       transform="translate(65.082982,-32.577327)"
       id="use5382"
       xlink:href="#path5318"
       y="0"
       x="0" />
    <use
       height="100"
       width="100"
       transform="translate(74.031992,-24.252665)"
       id="use5384"
       xlink:href="#path5318"
       y="0"
       x="0" />
    <use
       height="100"
       width="100"
       transform="translate(76.737512,-15.095537)"
       id="use5386"
       xlink:href="#path5318"
       y="0"
       x="0" />
    <use
       height="100"
       width="100"
       transform="translate(77.361862,1.3456696)"
       id="use5388"
       xlink:href="#path5318"
       y="0"
       x="0" />
    <use
       height="100"
       width="100"
       transform="translate(68.620962,17.162528)"
       id="use5390"
       xlink:href="#path5318"
       y="0"
       x="0" />
    <use
       height="100"
       width="100"
       transform="translate(74.240112,31.314453)"
       id="use5392"
       xlink:href="#path5318"
       y="0"
       x="0" />
    <use
       height="100"
       width="100"
       transform="translate(74.031992,51.917991)"
       id="use5394"
       xlink:href="#path5318"
       y="0"
       x="0" />
    <use
       height="100"
       width="100"
       transform="translate(86.102752,55.039739)"
       id="use5396"
       xlink:href="#path5318"
       y="0"
       x="0" />
    <use
       height="100"
       width="100"
       transform="translate(82.564772,43.177096)"
       id="use5398"
       xlink:href="#path5318"
       y="0"
       x="0" />
    <use
       height="100"
       width="100"
       transform="translate(91.513782,34.852434)"
       id="use5400"
       xlink:href="#path5318"
       y="0"
       x="0" />
    <use
       height="100"
       width="100"
       transform="translate(83.189122,21.324859)"
       id="use5402"
       xlink:href="#path5318"
       y="0"
       x="0" />
    <use
       height="100"
       width="100"
       transform="translate(82.148542,11.127148)"
       id="use5404"
       xlink:href="#path5318"
       y="0"
       x="0" />
    <use
       height="100"
       width="100"
       transform="translate(94.427412,4.6755346)"
       id="use5406"
       xlink:href="#path5318"
       y="0"
       x="0" />
    <use
       height="100"
       width="100"
       transform="translate(87.975802,-6.3546424)"
       id="use5408"
       xlink:href="#path5318"
       y="0"
       x="0" />
    <use
       height="100"
       width="100"
       transform="translate(94.219302,-12.390022)"
       id="use5410"
       xlink:href="#path5318"
       y="0"
       x="0" />
    <use
       height="100"
       width="100"
       transform="translate(91.513782,-23.212082)"
       id="use5412"
       xlink:href="#path5318"
       y="0"
       x="0" />
    <use
       height="100"
       width="100"
       transform="translate(82.564772,-32.36921)"
       id="use5414"
       xlink:href="#path5318"
       y="0"
       x="0" />
    <use
       height="100"
       width="100"
       transform="translate(97.965402,-32.577327)"
       id="use5416"
       xlink:href="#path5318"
       y="0"
       x="0" />
    <use
       height="100"
       width="100"
       transform="translate(108.57934,-35.490958)"
       id="use5418"
       xlink:href="#path5318"
       y="0"
       x="0" />
    <use
       height="100"
       width="100"
       transform="translate(117.32023,-21.130916)"
       id="use5420"
       xlink:href="#path5318"
       y="0"
       x="0" />
    <use
       height="100"
       width="100"
       transform="translate(105.87382,-15.303653)"
       id="use5422"
       xlink:href="#path5318"
       y="0"
       x="0" />
    <use
       height="100"
       width="100"
       transform="translate(114.82283,-0.52737936)"
       id="use5424"
       xlink:href="#path5318"
       y="0"
       x="0" />
    <use
       height="100"
       width="100"
       transform="translate(117.11211,13.832663)"
       id="use5426"
       xlink:href="#path5318"
       y="0"
       x="0" />
    <use
       height="100"
       width="100"
       transform="translate(103.1683,12.167731)"
       id="use5428"
       xlink:href="#path5318"
       y="0"
       x="0" />
    <use
       height="100"
       width="100"
       transform="translate(97.341052,19.868043)"
       id="use5430"
       xlink:href="#path5318"
       y="0"
       x="0" />
    <use
       height="100"
       width="100"
       transform="translate(108.99557,26.527772)"
       id="use5432"
       xlink:href="#path5318"
       y="0"
       x="0" />
    <use
       height="100"
       width="100"
       transform="translate(117.11211,34.228084)"
       id="use5434"
       xlink:href="#path5318"
       y="0"
       x="0" />
    <use
       height="100"
       width="100"
       transform="translate(112.11732,45.882611)"
       id="use5436"
       xlink:href="#path5318"
       y="0"
       x="0" />
    <use
       height="100"
       width="100"
       transform="translate(101.71149,39.639115)"
       id="use5438"
       xlink:href="#path5318"
       y="0"
       x="0" />
    <use
       height="100"
       width="100"
       transform="translate(99.214092,54.415389)"
       id="use5440"
       xlink:href="#path5318"
       y="0"
       x="0" />
    <use
       height="100"
       width="100"
       transform="translate(114.4066,57.329021)"
       id="use5442"
       xlink:href="#path5318"
       y="0"
       x="0" />
    <use
       x="0"
       y="0"
       xlink:href="#path5318"
       id="use5322"
       transform="translate(24.916492,-33.617909)"
       width="100"
       height="100" />
  </g>
</svg>
