<?xml version="1.0" encoding="UTF-8" standalone="no"?>
<svg
   xmlns:dc="http://purl.org/dc/elements/1.1/"
   xmlns:cc="http://creativecommons.org/ns#"
   xmlns:rdf="http://www.w3.org/1999/02/22-rdf-syntax-ns#"
   xmlns:svg="http://www.w3.org/2000/svg"
   xmlns="http://www.w3.org/2000/svg"
   xmlns:sodipodi="http://sodipodi.sourceforge.net/DTD/sodipodi-0.dtd"
   xmlns:inkscape="http://www.inkscape.org/namespaces/inkscape"
   id="svg5181"
   viewBox="0 0 100 100"
   version="1.1"
   inkscape:version="0.91 r13725"
   sodipodi:docname="p_scree.svg">
  <metadata
     id="metadata71">
    <rdf:RDF>
      <cc:Work
         rdf:about="">
        <dc:format>image/svg+xml</dc:format>
        <dc:type
           rdf:resource="http://purl.org/dc/dcmitype/StillImage" />
      </cc:Work>
    </rdf:RDF>
  </metadata>
  <defs
     id="defs69" />
  <sodipodi:namedview
     pagecolor="#ffffff"
     bordercolor="#666666"
     borderopacity="1"
     objecttolerance="10"
     gridtolerance="10"
     guidetolerance="10"
     inkscape:pageopacity="0"
     inkscape:pageshadow="2"
     inkscape:window-width="1920"
     inkscape:window-height="1178"
     id="namedview67"
     showgrid="false"
     inkscape:zoom="2.36"
     inkscape:cx="-51.271188"
     inkscape:cy="64.40678"
     inkscape:window-x="-8"
     inkscape:window-y="-8"
     inkscape:window-maximized="1"
     inkscape:current-layer="svg5181" />
  <rect
     x="-2.2893"
     y="-2.2893"
     width="104.58"
     height="104.58"
     style="fill:#afafaf;fill-opacity:0.13333334;enable-background:new"
     id="rect4186" />
  <path
     id="use5324"
     style="fill:#a5a5a5;fill-opacity:0.80392045;enable-background:new"
     d="m 15.511,9.336476 a 2.9072,2.9041 0 0 1 -5.8144,0 2.9072,2.9041 0 1 1 5.8144,0 z"
     inkscape:connector-curvature="0" />
  <path
     id="use5326"
     style="fill:#a5a5a5;fill-opacity:0.80392045;enable-background:new"
     d="m 8.019,21.407476 a 2.9072,2.9041 0 0 1 -5.8144,0 2.9072,2.9041 0 1 1 5.8144,0 z"
     inkscape:connector-curvature="0" />
  <path
     id="use5328"
     style="fill:#a5a5a5;fill-opacity:0.80392045;enable-background:new"
     d="m 6.978,38.056976 a 2.9072,2.9041 0 0 1 -5.8144,0 2.9072,2.9041 0 1 1 5.8144,0 z"
     inkscape:connector-curvature="0" />
  <path
     id="use5330"
     style="fill:#a5a5a5;fill-opacity:0.80392045;enable-background:new"
     d="m 12.39,49.711476 a 2.9072,2.9041 0 0 1 -5.8144,0 2.9072,2.9041 0 1 1 5.8144,0 z"
     inkscape:connector-curvature="0" />
  <path
     id="use5332"
     style="fill:#a5a5a5;fill-opacity:0.80392045;enable-background:new"
     d="m 6.77,61.574476 a 2.9072,2.9041 0 0 1 -5.8144,0 2.9072,2.9041 0 1 1 5.8144,0 z"
     inkscape:connector-curvature="0" />
  <path
     id="use5334"
     style="fill:#a5a5a5;fill-opacity:0.80392045;enable-background:new"
     d="m 9.684,76.142476 a 2.9072,2.9041 0 0 1 -5.8144,0 2.9072,2.9041 0 1 1 5.8144,0 z"
     inkscape:connector-curvature="0" />
  <path
     id="use5336"
     style="fill:#a5a5a5;fill-opacity:0.80392045;enable-background:new"
     d="m 9.06,95.913476 a 2.9072,2.9041 0 0 1 -5.8144,0 2.9072,2.9041 0 1 1 5.8144,0 z"
     inkscape:connector-curvature="0" />
  <path
     id="use5338"
     style="fill:#a5a5a5;fill-opacity:0.80392045;enable-background:new"
     d="m 17.801,89.878476 a 2.9072,2.9041 0 0 1 -5.8144,0 2.9072,2.9041 0 1 1 5.8144,0 z"
     inkscape:connector-curvature="0" />
  <path
     id="use5340"
     style="fill:#a5a5a5;fill-opacity:0.80392045;enable-background:new"
     d="m 21.13,79.472476 a 2.9072,2.9041 0 0 1 -5.8144,0 2.9072,2.9041 0 1 1 5.8144,0 z"
     inkscape:connector-curvature="0" />
  <path
     id="use5342"
     style="fill:#a5a5a5;fill-opacity:0.80392045;enable-background:new"
     d="m 18.217,64.904476 a 2.9072,2.9041 0 0 1 -5.8144,0 2.9072,2.9041 0 1 1 5.8144,0 z"
     inkscape:connector-curvature="0" />
  <path
     id="use5344"
     style="fill:#a5a5a5;fill-opacity:0.80392045;enable-background:new"
     d="m 21.13,35.143376 a 2.9072,2.9041 0 0 1 -5.8144,0 2.9072,2.9041 0 1 1 5.8144,0 z"
     inkscape:connector-curvature="0" />
  <path
     id="use5346"
     style="fill:#a5a5a5;fill-opacity:0.80392045;enable-background:new"
     d="m 24.252,18.285476 a 2.9072,2.9041 0 0 1 -5.8144,0 2.9072,2.9041 0 1 1 5.8144,0 z"
     inkscape:connector-curvature="0" />
  <path
     id="use5348"
     style="fill:#a5a5a5;fill-opacity:0.80392045;enable-background:new"
     d="m 26.333,6.215476 a 2.9072,2.9041 0 0 1 -5.8144,0 2.9072,2.9041 0 1 1 5.8144,0 z"
     inkscape:connector-curvature="0" />
  <path
     id="use5350"
     style="fill:#a5a5a5;fill-opacity:0.80392045;enable-background:new"
     d="m 35.49,3.717476 a 2.9072,2.9041 0 0 1 -5.8144,0 2.9072,2.9041 0 1 1 5.8144,0 z"
     inkscape:connector-curvature="0" />
  <path
     id="use5352"
     style="fill:#a5a5a5;fill-opacity:0.80392045;enable-background:new"
     d="m 41.318,12.042476 a 2.9072,2.9041 0 0 1 -5.8144,0 2.9072,2.9041 0 1 1 5.8144,0 z"
     inkscape:connector-curvature="0" />
  <path
     id="use5354"
     style="fill:#a5a5a5;fill-opacity:0.80392045;enable-background:new"
     d="m 37.988,23.280476 a 2.9072,2.9041 0 0 1 -5.8144,0 2.9072,2.9041 0 1 1 5.8144,0 z"
     inkscape:connector-curvature="0" />
  <path
     id="use5356"
     style="fill:#a5a5a5;fill-opacity:0.80392045;enable-background:new"
     d="m 35.907,32.021576 a 2.9072,2.9041 0 0 1 -5.8144,0 2.9072,2.9041 0 1 1 5.8144,0 z"
     inkscape:connector-curvature="0" />
  <path
     id="use5358"
     style="fill:#a5a5a5;fill-opacity:0.80392045;enable-background:new"
     d="m 29.871,44.092376 a 2.9072,2.9041 0 0 1 -5.8144,0 2.9072,2.9041 0 1 1 5.8144,0 z"
     inkscape:connector-curvature="0" />
  <path
     id="use5360"
     style="fill:#a5a5a5;fill-opacity:0.80392045;enable-background:new"
     d="m 26.958,52.833476 a 2.9072,2.9041 0 0 1 -5.8144,0 2.9072,2.9041 0 1 1 5.8144,0 z"
     inkscape:connector-curvature="0" />
  <path
     id="use5362"
     style="fill:#a5a5a5;fill-opacity:0.80392045;enable-background:new"
     d="m 30.079,91.334476 a 2.9072,2.9041 0 0 1 -5.8144,0 2.9072,2.9041 0 1 1 5.8144,0 z"
     inkscape:connector-curvature="0" />
  <path
     id="use5364"
     style="fill:#a5a5a5;fill-opacity:0.80392045;enable-background:new"
     d="m 34.658,79.055476 a 2.9072,2.9041 0 0 1 -5.8144,0 2.9072,2.9041 0 1 1 5.8144,0 z"
     inkscape:connector-curvature="0" />
  <path
     id="use5366"
     style="fill:#a5a5a5;fill-opacity:0.80392045;enable-background:new"
     d="m 32.785,67.401476 a 2.9072,2.9041 0 0 1 -5.8144,0 2.9072,2.9041 0 1 1 5.8144,0 z"
     inkscape:connector-curvature="0" />
  <path
     id="use5368"
     style="fill:#a5a5a5;fill-opacity:0.80392045;enable-background:new"
     d="m 41.734,87.796476 a 2.9072,2.9041 0 0 1 -5.8144,0 2.9072,2.9041 0 1 1 5.8144,0 z"
     inkscape:connector-curvature="0" />
  <path
     id="use5370"
     style="fill:#a5a5a5;fill-opacity:0.80392045;enable-background:new"
     d="m 47.145,96.537476 a 2.9072,2.9041 0 0 1 -5.8144,0 2.9072,2.9041 0 1 1 5.8144,0 z"
     inkscape:connector-curvature="0" />
  <path
     id="use5372"
     style="fill:#a5a5a5;fill-opacity:0.80392045;enable-background:new"
     d="m 47.353,78.431476 a 2.9072,2.9041 0 0 1 -5.8144,0 2.9072,2.9041 0 1 1 5.8144,0 z"
     inkscape:connector-curvature="0" />
  <path
     id="use5374"
     style="fill:#a5a5a5;fill-opacity:0.80392045;enable-background:new"
     d="m 44.231,69.898476 a 2.9072,2.9041 0 0 1 -5.8144,0 2.9072,2.9041 0 1 1 5.8144,0 z"
     inkscape:connector-curvature="0" />
  <path
     id="use5376"
     style="fill:#a5a5a5;fill-opacity:0.80392045;enable-background:new"
     d="m 39.237,56.163476 a 2.9072,2.9041 0 0 1 -5.8144,0 2.9072,2.9041 0 1 1 5.8144,0 z"
     inkscape:connector-curvature="0" />
  <path
     id="use5378"
     style="fill:#a5a5a5;fill-opacity:0.80392045;enable-background:new"
     d="m 44.439,41.178776 a 2.9072,2.9041 0 0 1 -5.8144,0 2.9072,2.9041 0 1 1 5.8144,0 z"
     inkscape:connector-curvature="0" />
  <path
     id="use5380"
     style="fill:#a5a5a5;fill-opacity:0.80392045;enable-background:new"
     d="m 48.602,32.229676 a 2.9072,2.9041 0 0 1 -5.8144,0 2.9072,2.9041 0 1 1 5.8144,0 z"
     inkscape:connector-curvature="0" />
  <path
     id="use5382"
     style="fill:#a5a5a5;fill-opacity:0.80392045;enable-background:new"
     d="m 47.145,6.215476 a 2.9072,2.9041 0 0 1 -5.8144,0 2.9072,2.9041 0 1 1 5.8144,0 z"
     inkscape:connector-curvature="0" />
  <path
     id="use5384"
     style="fill:#a5a5a5;fill-opacity:0.80392045;enable-background:new"
     d="m 56.094,14.539476 a 2.9072,2.9041 0 0 1 -5.8144,0 2.9072,2.9041 0 1 1 5.8144,0 z"
     inkscape:connector-curvature="0" />
  <path
     id="use5386"
     style="fill:#a5a5a5;fill-opacity:0.80392045;enable-background:new"
     d="m 58.8,23.696476 a 2.9072,2.9041 0 0 1 -5.8144,0 2.9072,2.9041 0 1 1 5.8144,0 z"
     inkscape:connector-curvature="0" />
  <path
     id="use5388"
     style="fill:#a5a5a5;fill-opacity:0.80392045;enable-background:new"
     d="m 59.424,40.138176 a 2.9072,2.9041 0 0 1 -5.8144,0 2.9072,2.9041 0 1 1 5.8144,0 z"
     inkscape:connector-curvature="0" />
  <path
     id="use5390"
     style="fill:#a5a5a5;fill-opacity:0.80392045;enable-background:new"
     d="m 50.683,55.955476 a 2.9072,2.9041 0 0 1 -5.8144,0 2.9072,2.9041 0 1 1 5.8144,0 z"
     inkscape:connector-curvature="0" />
  <path
     id="use5392"
     style="fill:#a5a5a5;fill-opacity:0.80392045;enable-background:new"
     d="m 56.302,70.106476 a 2.9072,2.9041 0 0 1 -5.8144,0 2.9072,2.9041 0 1 1 5.8144,0 z"
     inkscape:connector-curvature="0" />
  <path
     id="use5394"
     style="fill:#a5a5a5;fill-opacity:0.80392045;enable-background:new"
     d="m 56.094,90.710476 a 2.9072,2.9041 0 0 1 -5.8144,0 2.9072,2.9041 0 1 1 5.8144,0 z"
     inkscape:connector-curvature="0" />
  <path
     id="use5396"
     style="fill:#a5a5a5;fill-opacity:0.80392045;enable-background:new"
     d="m 68.165,93.832476 a 2.9072,2.9041 0 0 1 -5.8144,0 2.9072,2.9041 0 1 1 5.8144,0 z"
     inkscape:connector-curvature="0" />
  <path
     id="use5398"
     style="fill:#a5a5a5;fill-opacity:0.80392045;enable-background:new"
     d="m 64.627,81.969476 a 2.9072,2.9041 0 0 1 -5.8144,0 2.9072,2.9041 0 1 1 5.8144,0 z"
     inkscape:connector-curvature="0" />
  <path
     id="use5400"
     style="fill:#a5a5a5;fill-opacity:0.80392045;enable-background:new"
     d="m 73.576,73.644476 a 2.9072,2.9041 0 0 1 -5.8144,0 2.9072,2.9041 0 1 1 5.8144,0 z"
     inkscape:connector-curvature="0" />
  <path
     id="use5402"
     style="fill:#a5a5a5;fill-opacity:0.80392045;enable-background:new"
     d="m 65.251,60.117476 a 2.9072,2.9041 0 0 1 -5.8144,0 2.9072,2.9041 0 1 1 5.8144,0 z"
     inkscape:connector-curvature="0" />
  <path
     id="use5404"
     style="fill:#a5a5a5;fill-opacity:0.80392045;enable-background:new"
     d="m 64.211,49.919476 a 2.9072,2.9041 0 0 1 -5.8144,0 2.9072,2.9041 0 1 1 5.8144,0 z"
     inkscape:connector-curvature="0" />
  <path
     id="use5406"
     style="fill:#a5a5a5;fill-opacity:0.80392045;enable-background:new"
     d="m 76.489,43.467976 a 2.9072,2.9041 0 0 1 -5.8144,0 2.9072,2.9041 0 1 1 5.8144,0 z"
     inkscape:connector-curvature="0" />
  <path
     id="use5408"
     style="fill:#a5a5a5;fill-opacity:0.80392045;enable-background:new"
     d="m 70.038,32.437876 a 2.9072,2.9041 0 0 1 -5.8144,0 2.9072,2.9041 0 1 1 5.8144,0 z"
     inkscape:connector-curvature="0" />
  <path
     id="use5410"
     style="fill:#a5a5a5;fill-opacity:0.80392045;enable-background:new"
     d="m 76.281,26.402476 a 2.9072,2.9041 0 0 1 -5.8144,0 2.9072,2.9041 0 1 1 5.8144,0 z"
     inkscape:connector-curvature="0" />
  <path
     id="use5412"
     style="fill:#a5a5a5;fill-opacity:0.80392045;enable-background:new"
     d="m 73.576,15.580476 a 2.9072,2.9041 0 0 1 -5.8144,0 2.9072,2.9041 0 1 1 5.8144,0 z"
     inkscape:connector-curvature="0" />
  <path
     id="use5414"
     style="fill:#a5a5a5;fill-opacity:0.80392045;enable-background:new"
     d="m 64.627,6.423476 a 2.9072,2.9041 0 0 1 -5.8144,0 2.9072,2.9041 0 1 1 5.8144,0 z"
     inkscape:connector-curvature="0" />
  <path
     id="use5416"
     style="fill:#a5a5a5;fill-opacity:0.80392045;enable-background:new"
     d="m 80.027,6.215476 a 2.9072,2.9041 0 0 1 -5.8144,0 2.9072,2.9041 0 1 1 5.8144,0 z"
     inkscape:connector-curvature="0" />
  <path
     id="use5418"
     style="fill:#a5a5a5;fill-opacity:0.80392045;enable-background:new"
     d="m 90.642,3.301476 a 2.9072,2.9041 0 0 1 -5.8144,0 2.9072,2.9041 0 1 1 5.8144,0 z"
     inkscape:connector-curvature="0" />
  <path
     id="use5420"
     style="fill:#a5a5a5;fill-opacity:0.80392045;enable-background:new"
     d="m 99.382,17.661476 a 2.9072,2.9041 0 0 1 -5.8144,0 2.9072,2.9041 0 1 1 5.8144,0 z"
     inkscape:connector-curvature="0" />
  <path
     id="use5422"
     style="fill:#a5a5a5;fill-opacity:0.80392045;enable-background:new"
     d="m 87.932,23.488476 a 2.9072,2.9041 0 0 1 -5.8144,0 2.9072,2.9041 0 1 1 5.8144,0 z"
     inkscape:connector-curvature="0" />
  <path
     id="use5424"
     style="fill:#a5a5a5;fill-opacity:0.80392045;enable-background:new"
     d="m 96.882,38.265096 a 2.9072,2.9041 0 0 1 -5.8144,0 2.9072,2.9041 0 1 1 5.8144,0 z"
     inkscape:connector-curvature="0" />
  <path
     id="use5426"
     style="fill:#a5a5a5;fill-opacity:0.80392045;enable-background:new"
     d="m 99.172,52.625476 a 2.9072,2.9041 0 0 1 -5.8144,0 2.9072,2.9041 0 1 1 5.8144,0 z"
     inkscape:connector-curvature="0" />
  <path
     id="use5428"
     style="fill:#a5a5a5;fill-opacity:0.80392045;enable-background:new"
     d="m 85.232,50.960476 a 2.9072,2.9041 0 0 1 -5.8144,0 2.9072,2.9041 0 1 1 5.8144,0 z"
     inkscape:connector-curvature="0" />
  <path
     id="use5430"
     style="fill:#a5a5a5;fill-opacity:0.80392045;enable-background:new"
     d="m 79.403,58.660476 a 2.9072,2.9041 0 0 1 -5.8144,0 2.9072,2.9041 0 1 1 5.8144,0 z"
     inkscape:connector-curvature="0" />
  <path
     id="use5432"
     style="fill:#a5a5a5;fill-opacity:0.80392045;enable-background:new"
     d="m 91.062,65.320476 a 2.9072,2.9041 0 0 1 -5.8144,0 2.9072,2.9041 0 1 1 5.8144,0 z"
     inkscape:connector-curvature="0" />
  <path
     id="use5434"
     style="fill:#a5a5a5;fill-opacity:0.80392045;enable-background:new"
     d="m 99.172,73.020476 a 2.9072,2.9041 0 0 1 -5.8144,0 2.9072,2.9041 0 1 1 5.8144,0 z"
     inkscape:connector-curvature="0" />
  <path
     id="use5436"
     style="fill:#a5a5a5;fill-opacity:0.80392045;enable-background:new"
     d="m 94.182,84.675476 a 2.9072,2.9041 0 0 1 -5.8144,0 2.9072,2.9041 0 1 1 5.8144,0 z"
     inkscape:connector-curvature="0" />
  <path
     id="use5438"
     style="fill:#a5a5a5;fill-opacity:0.80392045;enable-background:new"
     d="m 83.772,78.431476 a 2.9072,2.9041 0 0 1 -5.8144,0 2.9072,2.9041 0 1 1 5.8144,0 z"
     inkscape:connector-curvature="0" />
  <path
     id="use5440"
     style="fill:#a5a5a5;fill-opacity:0.80392045;enable-background:new"
     d="m 81.276,93.207476 a 2.9072,2.9041 0 0 1 -5.8144,0 2.9072,2.9041 0 1 1 5.8144,0 z"
     inkscape:connector-curvature="0" />
  <path
     id="use5442"
     style="fill:#a5a5a5;fill-opacity:0.80392045;enable-background:new"
     d="m 96.472,96.121476 a 2.9072,2.9041 0 0 1 -5.8144,0 2.9072,2.9041 0 1 1 5.8144,0 z"
     inkscape:connector-curvature="0" />
  <path
     id="use5322"
     style="fill:#a5a5a5;fill-opacity:0.80392045;enable-background:new"
     d="m 6.978,5.174476 a 2.9072,2.9041 0 0 1 -5.8144,0 2.9072,2.9041 0 1 1 5.8144,0 z"
     inkscape:connector-curvature="0" />
</svg>
