<svg version="1.1" viewBox="0 0 100 100" xmlns="http://www.w3.org/2000/svg">
 <rect x="-2.2893" y="-2.2893" width="104.58" height="104.58" enable-background="new" fill="#afafaf" fill-opacity=".13333"/>
 <g fill="#a5a5a5" fill-opacity=".80392">
  <path d="m15.511 9.3365a2.9072 2.9041 0 0 1-5.8144 0 2.9072 2.9041 0 1 1 5.8144 0z" enable-background="new"/>
  <path d="m8.019 21.407a2.9072 2.9041 0 0 1-5.8144 0 2.9072 2.9041 0 1 1 5.8144 0z" enable-background="new"/>
  <path d="m6.978 38.057a2.9072 2.9041 0 0 1-5.8144 0 2.9072 2.9041 0 1 1 5.8144 0z" enable-background="new"/>
  <path d="m12.39 49.711a2.9072 2.9041 0 0 1-5.8144 0 2.9072 2.9041 0 1 1 5.8144 0z" enable-background="new"/>
  <path d="m6.77 61.574a2.9072 2.9041 0 0 1-5.8144 0 2.9072 2.9041 0 1 1 5.8144 0z" enable-background="new"/>
  <path d="m9.684 76.142a2.9072 2.9041 0 0 1-5.8144 0 2.9072 2.9041 0 1 1 5.8144 0z" enable-background="new"/>
  <path d="m9.06 95.913a2.9072 2.9041 0 0 1-5.8144 0 2.9072 2.9041 0 1 1 5.8144 0z" enable-background="new"/>
  <path d="m17.801 89.878a2.9072 2.9041 0 0 1-5.8144 0 2.9072 2.9041 0 1 1 5.8144 0z" enable-background="new"/>
  <path d="m21.13 79.472a2.9072 2.9041 0 0 1-5.8144 0 2.9072 2.9041 0 1 1 5.8144 0z" enable-background="new"/>
  <path d="m18.217 64.904a2.9072 2.9041 0 0 1-5.8144 0 2.9072 2.9041 0 1 1 5.8144 0z" enable-background="new"/>
  <path d="m21.13 35.143a2.9072 2.9041 0 0 1-5.8144 0 2.9072 2.9041 0 1 1 5.8144 0z" enable-background="new"/>
  <path d="m24.252 18.285a2.9072 2.9041 0 0 1-5.8144 0 2.9072 2.9041 0 1 1 5.8144 0z" enable-background="new"/>
  <path d="m26.333 6.2155a2.9072 2.9041 0 0 1-5.8144 0 2.9072 2.9041 0 1 1 5.8144 0z" enable-background="new"/>
  <path d="m35.49 3.7175a2.9072 2.9041 0 0 1-5.8144 0 2.9072 2.9041 0 1 1 5.8144 0z" enable-background="new"/>
  <path d="m41.318 12.042a2.9072 2.9041 0 0 1-5.8144 0 2.9072 2.9041 0 1 1 5.8144 0z" enable-background="new"/>
  <path d="m37.988 23.28a2.9072 2.9041 0 0 1-5.8144 0 2.9072 2.9041 0 1 1 5.8144 0z" enable-background="new"/>
  <path d="m35.907 32.022a2.9072 2.9041 0 0 1-5.8144 0 2.9072 2.9041 0 1 1 5.8144 0z" enable-background="new"/>
  <path d="m29.871 44.092a2.9072 2.9041 0 0 1-5.8144 0 2.9072 2.9041 0 1 1 5.8144 0z" enable-background="new"/>
  <path d="m26.958 52.833a2.9072 2.9041 0 0 1-5.8144 0 2.9072 2.9041 0 1 1 5.8144 0z" enable-background="new"/>
  <path d="m30.079 91.334a2.9072 2.9041 0 0 1-5.8144 0 2.9072 2.9041 0 1 1 5.8144 0z" enable-background="new"/>
  <path d="m34.658 79.055a2.9072 2.9041 0 0 1-5.8144 0 2.9072 2.9041 0 1 1 5.8144 0z" enable-background="new"/>
  <path d="m32.785 67.401a2.9072 2.9041 0 0 1-5.8144 0 2.9072 2.9041 0 1 1 5.8144 0z" enable-background="new"/>
  <path d="m41.734 87.796a2.9072 2.9041 0 0 1-5.8144 0 2.9072 2.9041 0 1 1 5.8144 0z" enable-background="new"/>
  <path d="m47.145 96.537a2.9072 2.9041 0 0 1-5.8144 0 2.9072 2.9041 0 1 1 5.8144 0z" enable-background="new"/>
  <path d="m47.353 78.431a2.9072 2.9041 0 0 1-5.8144 0 2.9072 2.9041 0 1 1 5.8144 0z" enable-background="new"/>
  <path d="m44.231 69.898a2.9072 2.9041 0 0 1-5.8144 0 2.9072 2.9041 0 1 1 5.8144 0z" enable-background="new"/>
  <path d="m39.237 56.163a2.9072 2.9041 0 0 1-5.8144 0 2.9072 2.9041 0 1 1 5.8144 0z" enable-background="new"/>
  <path d="m44.439 41.179a2.9072 2.9041 0 0 1-5.8144 0 2.9072 2.9041 0 1 1 5.8144 0z" enable-background="new"/>
  <path d="m48.602 32.23a2.9072 2.9041 0 0 1-5.8144 0 2.9072 2.9041 0 1 1 5.8144 0z" enable-background="new"/>
  <path d="m47.145 6.2155a2.9072 2.9041 0 0 1-5.8144 0 2.9072 2.9041 0 1 1 5.8144 0z" enable-background="new"/>
  <path d="m56.094 14.539a2.9072 2.9041 0 0 1-5.8144 0 2.9072 2.9041 0 1 1 5.8144 0z" enable-background="new"/>
  <path d="m58.8 23.696a2.9072 2.9041 0 0 1-5.8144 0 2.9072 2.9041 0 1 1 5.8144 0z" enable-background="new"/>
  <path d="m59.424 40.138a2.9072 2.9041 0 0 1-5.8144 0 2.9072 2.9041 0 1 1 5.8144 0z" enable-background="new"/>
  <path d="m50.683 55.955a2.9072 2.9041 0 0 1-5.8144 0 2.9072 2.9041 0 1 1 5.8144 0z" enable-background="new"/>
  <path d="m56.302 70.106a2.9072 2.9041 0 0 1-5.8144 0 2.9072 2.9041 0 1 1 5.8144 0z" enable-background="new"/>
  <path d="m56.094 90.71a2.9072 2.9041 0 0 1-5.8144 0 2.9072 2.9041 0 1 1 5.8144 0z" enable-background="new"/>
  <path d="m68.165 93.832a2.9072 2.9041 0 0 1-5.8144 0 2.9072 2.9041 0 1 1 5.8144 0z" enable-background="new"/>
  <path d="m64.627 81.969a2.9072 2.9041 0 0 1-5.8144 0 2.9072 2.9041 0 1 1 5.8144 0z" enable-background="new"/>
  <path d="m73.576 73.644a2.9072 2.9041 0 0 1-5.8144 0 2.9072 2.9041 0 1 1 5.8144 0z" enable-background="new"/>
  <path d="m65.251 60.117a2.9072 2.9041 0 0 1-5.8144 0 2.9072 2.9041 0 1 1 5.8144 0z" enable-background="new"/>
  <path d="m64.211 49.919a2.9072 2.9041 0 0 1-5.8144 0 2.9072 2.9041 0 1 1 5.8144 0z" enable-background="new"/>
  <path d="m76.489 43.468a2.9072 2.9041 0 0 1-5.8144 0 2.9072 2.9041 0 1 1 5.8144 0z" enable-background="new"/>
  <path d="m70.038 32.438a2.9072 2.9041 0 0 1-5.8144 0 2.9072 2.9041 0 1 1 5.8144 0z" enable-background="new"/>
  <path d="m76.281 26.402a2.9072 2.9041 0 0 1-5.8144 0 2.9072 2.9041 0 1 1 5.8144 0z" enable-background="new"/>
  <path d="m73.576 15.58a2.9072 2.9041 0 0 1-5.8144 0 2.9072 2.9041 0 1 1 5.8144 0z" enable-background="new"/>
  <path d="m64.627 6.4235a2.9072 2.9041 0 0 1-5.8144 0 2.9072 2.9041 0 1 1 5.8144 0z" enable-background="new"/>
  <path d="m80.027 6.2155a2.9072 2.9041 0 0 1-5.8144 0 2.9072 2.9041 0 1 1 5.8144 0z" enable-background="new"/>
  <path d="m90.642 3.3015a2.9072 2.9041 0 0 1-5.8144 0 2.9072 2.9041 0 1 1 5.8144 0z" enable-background="new"/>
  <path d="m99.382 17.661a2.9072 2.9041 0 0 1-5.8144 0 2.9072 2.9041 0 1 1 5.8144 0z" enable-background="new"/>
  <path d="m87.932 23.488a2.9072 2.9041 0 0 1-5.8144 0 2.9072 2.9041 0 1 1 5.8144 0z" enable-background="new"/>
  <path d="m96.882 38.265a2.9072 2.9041 0 0 1-5.8144 0 2.9072 2.9041 0 1 1 5.8144 0z" enable-background="new"/>
  <path d="m99.172 52.625a2.9072 2.9041 0 0 1-5.8144 0 2.9072 2.9041 0 1 1 5.8144 0z" enable-background="new"/>
  <path d="m85.232 50.96a2.9072 2.9041 0 0 1-5.8144 0 2.9072 2.9041 0 1 1 5.8144 0z" enable-background="new"/>
  <path d="m79.403 58.66a2.9072 2.9041 0 0 1-5.8144 0 2.9072 2.9041 0 1 1 5.8144 0z" enable-background="new"/>
  <path d="m91.062 65.32a2.9072 2.9041 0 0 1-5.8144 0 2.9072 2.9041 0 1 1 5.8144 0z" enable-background="new"/>
  <path d="m99.172 73.02a2.9072 2.9041 0 0 1-5.8144 0 2.9072 2.9041 0 1 1 5.8144 0z" enable-background="new"/>
  <path d="m94.182 84.675a2.9072 2.9041 0 0 1-5.8144 0 2.9072 2.9041 0 1 1 5.8144 0z" enable-background="new"/>
  <path d="m83.772 78.431a2.9072 2.9041 0 0 1-5.8144 0 2.9072 2.9041 0 1 1 5.8144 0z" enable-background="new"/>
  <path d="m81.276 93.207a2.9072 2.9041 0 0 1-5.8144 0 2.9072 2.9041 0 1 1 5.8144 0z" enable-background="new"/>
  <path d="m96.472 96.121a2.9072 2.9041 0 0 1-5.8144 0 2.9072 2.9041 0 1 1 5.8144 0z" enable-background="new"/>
  <path d="m6.978 5.1745a2.9072 2.9041 0 0 1-5.8144 0 2.9072 2.9041 0 1 1 5.8144 0z" enable-background="new"/>
 </g>
</svg>
