<svg width="128" height="128" enable-background="new" version="1.1" xmlns="http://www.w3.org/2000/svg">
 <rect x="-4.8265" y="-4.8265" width="138.74" height="138.74" enable-background="new" fill="#e5ffe1" fill-opacity=".73333"/>
 <g transform="translate(-550 -424.36)" fill-opacity=".5">
  <g fill="#66c443">
   <path d="m592.98 484.62c-3.0202-13.869-21.857-8.2369-20.376 4.773-4.086 12.016 8.2459 26.343 20.274 18.43 6.6005-3.1524 19.535-18.84 5.887-20.602-2.0645-0.45105-4.3858-0.80522-5.7849-2.6015z"/>
   <path d="m570.95 453.99c10.748-0.53738 14.51-5.374 11.285-13.972-3.2244-8.5984-4.2992-12.36-9.6732-10.211-5.374 2.1496-11.285 9.6732-9.1358 15.585 2.1496 5.9114 2.687 6.9862 7.5236 8.5984z"/>
   <path d="m626.84 467.96c8.061-0.53739 12.898-8.5984 12.898-12.898 0-4.2992-10.211-15.047-12.36-18.272-2.1496-3.2244-5.374 3.2244-6.4488 10.748s-6.9862 22.571 5.9114 20.421z"/>
   <path d="m654.41 483.55c-5.9114 5.9114 2.687 15.047 2.687 15.047s12.36 0.53738 11.823-9.6732c-0.53738-10.211 0-15.585-7.5236-15.585s-4.2992 5.374-6.9862 10.211z"/>
   <path d="m566.07 534.32c1.2897 7.0937 9.6732 13.543 12.898 5.159 3.2244-8.3835-8.3834-16.767-12.898-5.159z"/>
  </g>
  <path d="m611.26 520.09c0.5374 11.823 9.1358 17.197 15.047 14.51 5.9114-2.687 11.823-8.5984 10.211-16.659-1.6122-8.061-10.211-15.047-13.972-17.197-3.7618-2.1496-11.285 13.435-11.285 19.346z" fill="#7dc263"/>
  <path d="m652.64 532.45c3.7618 5.9114 1.6122 5.9114 4.8366 8.061s6.4488 5.374 6.4488-2.687-0.53738-12.898-6.9862-12.898-3.7618 4.2992-4.2992 7.5236z" fill="#66c443"/>
 </g>
</svg>
