<svg width="100" height="100" version="1.1" xmlns="http://www.w3.org/2000/svg" xmlns:xlink="http://www.w3.org/1999/xlink">
 <defs>
  <linearGradient id="linearGradient7188" x1="468.39" x2="500.55" y1="948.03" y2="948.03" gradientTransform="matrix(.55243 -.55243 .55243 .55243 -339.61 171.01)" gradientUnits="userSpaceOnUse">
   <stop stop-color="#548c54" stop-opacity=".80645" offset="0"/>
   <stop stop-color="#548c54" stop-opacity=".12097" offset="1"/>
  </linearGradient>
  <linearGradient id="linearGradient7190" x1="468.39" x2="500.55" y1="948.03" y2="948.03" gradientTransform="matrix(.55243 -.55243 .55243 .55243 -337.66 127.65)" gradientUnits="userSpaceOnUse">
   <stop stop-color="#548c54" stop-opacity=".80645" offset="0"/>
   <stop stop-color="#548c54" stop-opacity=".12097" offset="1"/>
  </linearGradient>
 </defs>
 <g>
  <rect transform="translate(-297.66 -373.39)" x="294.09" y="369.82" width="107.14" height="107.14" enable-background="new" fill="#7dc263" fill-opacity=".58824"/>
 </g>
 <g transform="translate(-297.66 -373.39)">
  <path id="path4945" d="m440.43 429.79c-0.14689 3.0847 1.9478 5.4965 4.664 5.3672 0.1001-0.01 0.19424-0.031 0.29315-0.043 0.19291 2.3495 2.045 4.0653 4.4113 3.9526 1.5611-0.074 2.9832-0.9345 3.8888-2.1937 0.50109 0.3145 1.0779 0.4726 1.6964 0.4432 2.0089-0.096 3.7248-2.1884 4.0111-4.7613 1.4278-0.7128 2.4586-2.1129 2.5342-3.7013 0.055-1.156-0.42139-2.1622-1.2032-2.8537 0.47642-0.885 0.75947-1.8897 0.80994-2.9496 0.15785-3.3149-2.1189-5.8959-5.1114-5.7534-0.594 0.028-1.1926 0.1819-1.7368 0.403-0.81913-0.9675-2.0243-1.5338-3.3941-1.4686-1.8589 0.089-3.5055 1.3319-4.3668 3.0608-0.14428-0.01-0.28787-0.015-0.43632-0.01-2.5321 0.1207-4.6618 1.9225-4.7627 4.0404-0.0372 0.7806 0.20696 1.5107 0.65716 2.0936-1.1252 1.0759-1.8729 2.6526-1.9548 4.3724z" enable-background="new" fill="url(#linearGradient7188)" opacity=".35"/>
  <path id="path4619" d="m452.41 371.47a0.97666 0.97666 0 0 0-0.83008 0.8057c-0.0479 0.26039-0.0266 0.29047-0.0244 0.415 2e-3 0.12453 0.0157 0.26133 0.0244 0.43945 0.0173 0.35633 0.0357 0.81953 0.0732 1.3672 0.0677 0.98586 0.16961 2.2615 0.26856 3.5156-0.36348-0.84703-0.74613-1.7255-1.0254-2.3926-0.19363-0.4625-0.35053-0.83657-0.46387-1.123-0.0566-0.1432-0.11862-0.2643-0.14648-0.3418-3e-3 -9e-3 2e-3 -0.0141 0-0.0242-0.0136-0.0924-0.0243-0.0927-0.0244-0.0734a0.90358 0.90358 0 0 0-0.92773-0.70797 0.90358 0.90358 0 0 0-0.85449 1.0498c0.0357 0.24235 0.0831 0.25782 0.12207 0.36625 0.039 0.10836 0.0858 0.23711 0.14648 0.39063 0.12142 0.30687 0.26775 0.70336 0.46387 1.1719 0.19316 0.46141 0.46508 1.0804 0.708 1.6357-0.49986-0.6125-1.019-1.2541-1.4648-1.7822-0.75098-0.88969-1.3166-1.5698-1.7334-1.9531a0.97666 0.97666 0 0 0-0.70801-0.26859 0.97666 0.97666 0 0 0-0.61035 1.709c0.1936 0.17813 0.82575 0.88508 1.5625 1.7578 0.62732 0.74312 1.3578 1.6544 2.0752 2.5391-0.7927-0.49992-1.601-1.0202-2.2949-1.4404-0.92132-0.55797-1.6209-0.98336-2.0996-1.1963a0.90358 0.90358 0 0 0-0.43946-0.0734 0.90358 0.90358 0 0 0-0.29296 1.7334c0.22236 0.0989 1.0004 0.5268 1.9043 1.0742 0.82641 0.50047 1.8034 1.1307 2.7588 1.7334-1.2988-0.31242-2.6472-0.62875-3.7842-0.87891-1.137-0.25015-1.9995-0.43703-2.5635-0.48828a0.97666 0.97666 0 0 0-0.19532 0 0.97666 0.97666 0 0 0 0.0244 1.9531c0.26197 0.0242 1.2038 0.19406 2.3193 0.43945 0.29765 0.0656 0.67522 0.16937 1.001 0.24414-1.277 0.0422-3.0439 0.0977-3.3203 0.0977a0.97666 0.97666 0 1 0 0 1.9531c0.63228 0 3.0814-0.0856 5.4443-0.17086-1.8835 0.70617-3.9354 1.465-4.2969 1.5869a0.90358 0.90358 0 1 0 0.56152 1.709c0.59502-0.20062 2.8702-1.0465 5.0781-1.8798-0.0888 0.0734-0.0814 0.0726-0.1709 0.14648-2.0675 1.705-4.3099 3.5498-4.7119 3.8574a0.97666 0.97666 0 1 0 1.1719 1.538c0.37081-0.28375 1.8672-1.5135 3.125-2.5391-0.48868 0.68453-0.95513 1.35-1.3428 1.9288-0.3239 0.48351-0.59839 0.91914-0.80567 1.2695-0.10364 0.17516-0.17137 0.3143-0.24414 0.46383-0.0727 0.14953-0.15873 0.23601-0.19531 0.56156a0.98749 0.98749 0 1 0 1.9531 0.29297c0.0349-0.0719 0.10826-0.19469 0.19532-0.3418 0.17411-0.29429 0.41995-0.68101 0.73242-1.1475 0.35063-0.52344 0.84801-1.1994 1.2939-1.831-0.23196 0.6575-0.50217 1.372-0.68359 1.9287-0.17662 0.54195-0.31389 1.0307-0.41504 1.416-0.0505 0.19266-0.0941 0.35039-0.12207 0.51266-0.028 0.16234-0.0705 0.26406 0 0.61039a0.97666 0.97666 0 0 0 1.9287-0.26851c-5e-3 0.0273-3e-3 -0.057 0-0.0492 0.0144-0.075 0.0367-0.17805 0.0732-0.31735 0.0839-0.31953 0.22057-0.77218 0.39063-1.2939 0.3401-1.0436 0.81412-2.3703 1.2939-3.6866-2e-3 0.0864 2e-3 0.0842 0 0.17094-0.0305 1.4125-0.0392 2.8396-0.0244 3.9794 7e-3 0.56993 0.0205 1.0675 0.0488 1.4648 0.0141 0.19867 0.023 0.37445 0.0488 0.53711 0.0258 0.16265 0.017 0.28078 0.19531 0.58594a0.97666 0.97666 0 0 0 1.7334-0.87891c-0.0114-0.0719-0.0127-0.20141-0.0244-0.36625-0.0235-0.32953-0.0417-0.81836-0.0488-1.3671-0.0121-0.93289 5e-3 -2.134 0.0244-3.3203 0.33204 1.1337 0.66824 2.2904 0.92773 3.2226 0.30672 1.1019 0.53278 2.0663 0.53711 2.0996a0.97666 0.97666 0 1 0 1.9287-0.26859c-0.0689-0.52828-0.27467-1.2499-0.58593-2.3681-0.30525-1.0966-0.68754-2.4425-1.0742-3.7598 0.62203 0.88383 1.2599 1.7816 1.7578 2.5146 0.59459 0.87539 1.085 1.6567 1.0986 1.6846a0.90358 0.90358 0 1 0 1.6113-0.78125c-0.21655-0.44282-0.6173-1.0159-1.2207-1.9043-0.46331-0.68211-1.0439-1.5251-1.6113-2.3438 1.0588 0.77578 2.1457 1.5752 3.0029 2.2216 0.91322 0.68875 1.6853 1.319 1.709 1.3428a0.97666 0.97666 0 1 0 1.3672-1.3672c-0.37574-0.37766-0.97755-0.83922-1.9043-1.5381-0.26041-0.19641-0.61391-0.44359-0.90332-0.65914 0.37843 0.17633 0.8395 0.38711 1.1719 0.53711 0.521 0.23508 0.97202 0.43906 1.3184 0.58594 0.17317 0.0734 0.31444 0.12304 0.43945 0.17086 0.12502 0.0476 0.16906 0.0811 0.41504 0.12211a0.97733 0.97733 0 0 0 0.41504-1.9043c-0.0166-8e-3 -0.078-0.032-0.12207-0.0484-0.0881-0.0336-0.23001-0.0784-0.39063-0.14648-0.32123-0.13625-0.75598-0.32977-1.2695-0.56157-1.0271-0.46351-2.3336-1.0752-3.6377-1.6845-0.15993-0.075-0.15852-0.0719-0.31739-0.14648 1.2514 0.13906 2.5251 0.26805 3.5156 0.36617 0.52625 0.0523 0.97133 0.0957 1.3184 0.12211 0.17351 0.0133 0.31572 0.0195 0.43945 0.0242 0.12374 8e-3 0.16285 0.0367 0.39063 0a0.90358 0.90358 0 1 0-0.19532-1.7823c0.0213 0 7e-3 -0.0125-0.0732 0-0.0185-3.1e-4 -0.0304-0.0234-0.0488-0.0242-0.0872 0-0.20527-0.0125-0.36621-0.0242-0.32188-0.0242-0.77522-0.0711-1.2939-0.12204-0.78998-0.0783-1.8117-0.18437-2.8076-0.29296 1.2543-0.27899 2.5258-0.57477 3.5156-0.80571 0.55665-0.12984 1.0273-0.24797 1.3916-0.34179 0.18214-0.0469 0.33551-0.0841 0.46386-0.12204 0.12836-0.0383 0.19479-0.0297 0.41504-0.14648a0.97666 0.97666 0 0 0-0.58593-1.8311 0.97666 0.97666 0 0 0-0.26856 0.0977c-0.0141 8e-3 -0.0524 0.0109-0.0977 0.0242-0.0905 0.0266-0.24609 0.0539-0.41503 0.0977-0.33789 0.087-0.79408 0.18937-1.3428 0.31742-0.42222 0.0985-1.0138 0.22523-1.5137 0.3418 1.04-0.48875 2.5916-1.2104 2.8076-1.3184a0.97666 0.97666 0 0 0-0.43946-1.8555 0.97666 0.97666 0 0 0-0.43945 0.12203c-0.16619 0.0831-2.8528 1.359-5.3711 2.5391 1.6944-1.623 3.3822-3.2582 3.6621-3.54a0.90358 0.90358 0 0 0-0.73243-1.5381 0.90358 0.90358 0 0 0-0.5371 0.26859c-0.098 0.0986-1.7166 1.6595-3.1982 3.0762 1.0876-2.0955 2.191-4.2512 2.3682-4.6143a0.97666 0.97666 0 0 0-0.92774-1.416 0.97666 0.97666 0 0 0-0.83008 0.56156c-0.0366 0.075-0.79297 1.5378-1.2207 2.3681 0.062-0.24172 0.13818-0.5636 0.19531-0.78125 0.13759-0.52422 0.25091-0.9736 0.3418-1.2939 0.0455-0.16023 0.0951-0.2814 0.12207-0.36625 2e-3 -9e-3 -3e-3 -0.0156 0-0.0242 0.0491-0.0883 0.0577-0.0908 0.0488-0.0734a0.97666 0.97666 0 0 0-1.001-1.3916 0.97666 0.97666 0 0 0-0.75683 0.51266c-0.1286 0.23148-0.10874 0.24758-0.14649 0.36625-0.0377 0.11867-0.0978 0.26781-0.14648 0.43945-0.0974 0.34321-0.20244 0.8118-0.3418 1.3427-0.26773 1.0201-0.60058 2.3366-0.92773 3.6377-0.10785-1.3538-0.22064-2.7298-0.29297-3.7842-0.0371-0.5407-0.057-1.0102-0.0732-1.3427-8e-3 -0.16633-0.023-0.30164-0.0244-0.39063a0.97666 0.97666 0 0 0-1.0986-1.1719z" color="#000000" fill="url(#linearGradient7190)" opacity=".48" style="text-decoration-line:none;text-indent:0;text-transform:none"/>
  <use transform="matrix(.78868 0 0 .78868 24.634 132.29)" width="100%" height="100%" xlink:href="#path4945"/>
  <use transform="matrix(.78868 0 0 .78868 -16.024 40.623)" width="100%" height="100%" xlink:href="#path4945"/>
  <use transform="matrix(.78868 0 0 .78868 42.817 94.414)" width="100%" height="100%" xlink:href="#path4945"/>
  <use transform="translate(-102.03 32.83)" width="100%" height="100%" xlink:href="#path4945"/>
  <use transform="translate(-87.126 -7.5761)" width="100%" height="100%" xlink:href="#path4945"/>
  <use transform="matrix(1.1216 0 0 1.1216 -183.15 -86.724)" width="100%" height="100%" xlink:href="#path4945"/>
  <use transform="translate(-49.245 -34.85)" width="100%" height="100%" xlink:href="#path4945"/>
  <use transform="translate(-50.508 44.194)" width="100%" height="100%" xlink:href="#path4945"/>
  <use transform="matrix(.77817 0 0 .77817 40.769 112.98)" width="100%" height="100%" xlink:href="#path4619"/>
  <use transform="matrix(.77817 0 0 .77817 41.779 152.63)" width="100%" height="100%" xlink:href="#path4619"/>
  <use transform="translate(-150.76 44.194)" width="100%" height="100%" xlink:href="#path4945"/>
  <use transform="translate(-50.76 -55.806)" width="100%" height="100%" xlink:href="#path4945"/>
  <use transform="translate(-150.76 -55.806)" width="100%" height="100%" xlink:href="#path4945"/>
  <use transform="translate(-149.24 -34.85)" width="100%" height="100%" xlink:href="#path4945"/>
  <use transform="matrix(.77817 0 0 .77817 -29.936 169.3)" width="100%" height="100%" xlink:href="#path4619"/>
  <use transform="matrix(.77817 0 0 .77817 -19.077 150.86)" width="100%" height="100%" xlink:href="#path4619"/>
  <use transform="matrix(.77817 0 0 .77817 -1.9046 92.525)" width="100%" height="100%" xlink:href="#path4619"/>
  <use transform="matrix(.77817 0 0 .77817 28.653 130.41)" width="100%" height="100%" xlink:href="#path4619"/>
  <use transform="matrix(1.0594 0 0 1.0594 -109.01 43.868)" width="100%" height="100%" xlink:href="#path4619"/>
  <use transform="matrix(.62692 0 0 .62692 25.158 168.41)" width="100%" height="100%" xlink:href="#path4619"/>
  <use transform="matrix(.97905 0 0 .97905 -125.35 50.987)" width="100%" height="100%" xlink:href="#path4619"/>
  <use transform="matrix(1.0594 0 0 1.0594 -137.3 4.2193)" width="100%" height="100%" xlink:href="#path4619"/>
  <use transform="matrix(1.2 0 0 1.2 -168 -64.682)" width="100%" height="100%" xlink:href="#path4619"/>
  <use transform="matrix(.77817 0 0 .77817 9.4596 177.13)" width="100%" height="100%" xlink:href="#path4619"/>
  <use transform="matrix(.77817 0 0 .77817 -59.231 112.98)" width="100%" height="100%" xlink:href="#path4619"/>
  <use transform="matrix(.77817 0 0 .77817 -58.221 152.63)" width="100%" height="100%" xlink:href="#path4619"/>
  <use transform="matrix(.78868 0 0 .78868 -57.183 94.414)" width="100%" height="100%" xlink:href="#path4945"/>
  <use transform="matrix(.78868 0 0 .78868 -19.307 95.682)" width="100%" height="100%" xlink:href="#path4945"/>
  <use transform="matrix(.78868 0 0 .78868 -2.8922 100.73)" width="100%" height="100%" xlink:href="#path4945"/>
  <use transform="matrix(.92956 0 0 .92956 -105.09 52.858)" width="100%" height="100%" xlink:href="#path4945"/>
  <use transform="matrix(.78868 0 0 .78868 24.634 32.295)" width="100%" height="100%" xlink:href="#path4945"/>
  <use transform="matrix(.77817 0 0 .77817 -29.936 69.297)" width="100%" height="100%" xlink:href="#path4619"/>
  <use transform="matrix(.77817 0 0 .77817 9.4596 77.125)" width="100%" height="100%" xlink:href="#path4619"/>
  <use transform="matrix(.78868 0 0 .78868 -16.024 140.62)" width="100%" height="100%" xlink:href="#path4945"/>
 </g>
</svg>
