<svg width="100" height="100" version="1.1" xmlns="http://www.w3.org/2000/svg" xmlns:xlink="http://www.w3.org/1999/xlink">
 <defs>
  <linearGradient id="linearGradient5647" x1="468.39" x2="500.55" y1="948.03" y2="948.03" gradientTransform="matrix(.55243 -.55243 .55243 .55243 -599.67 -216.88)" gradientUnits="userSpaceOnUse">
   <stop stop-color="#548c54" stop-opacity=".80645" offset="0"/>
   <stop stop-color="#548c54" stop-opacity=".12097" offset="1"/>
  </linearGradient>
 </defs>
 <g transform="translate(-465.29 -1017)">
  <rect x="460.24" y="1011.9" width="110.1" height="110.1" color="#000000" fill="#7dc263" fill-opacity=".58824"/>
 </g>
 <g>
  <path id="path4619" d="m190.39 26.935a0.97666 0.97666 0 0 0-0.83008 0.8057c-0.0479 0.2603-0.0266 0.2904-0.0244 0.415 2e-3 0.1245 0.0157 0.2613 0.0244 0.4394 0.0173 0.3563 0.0357 0.8195 0.0732 1.3672 0.0677 0.9859 0.16961 2.2615 0.26856 3.5156-0.36348-0.847-0.74613-1.7254-1.0254-2.3926-0.19363-0.4625-0.35053-0.8365-0.46387-1.123-0.0566-0.1432-0.11862-0.2643-0.14648-0.3418-3e-3 -0.01 2e-3 -0.014 0-0.024-0.0136-0.092-0.0243-0.093-0.0244-0.073a0.90358 0.90358 0 0 0-0.92773-0.708 0.90358 0.90358 0 0 0-0.85449 1.0498c0.0357 0.2423 0.0831 0.2578 0.12207 0.3662 0.039 0.1084 0.0858 0.2371 0.14648 0.3907 0.12142 0.3068 0.26775 0.7033 0.46387 1.1718 0.19316 0.4614 0.46508 1.0804 0.708 1.6357-0.49986-0.6125-1.019-1.254-1.4648-1.7821-0.75098-0.8897-1.3166-1.5698-1.7334-1.9532a0.97666 0.97666 0 0 0-0.70801-0.2686 0.97666 0.97666 0 0 0-0.61035 1.709c0.1936 0.1781 0.82575 0.8851 1.5625 1.7578 0.62732 0.7432 1.3578 1.6545 2.0752 2.5391-0.7927-0.4999-1.601-1.0202-2.2949-1.4404-0.92132-0.558-1.6209-0.9834-2.0996-1.1963a0.90358 0.90358 0 0 0-0.43946-0.073 0.90358 0.90358 0 0 0-0.29296 1.7334c0.22236 0.099 1.0004 0.5268 1.9043 1.0742 0.82641 0.5005 1.8034 1.1307 2.7588 1.7334-1.2988-0.3124-2.6472-0.6288-3.7842-0.8789-1.137-0.2502-1.9995-0.437-2.5635-0.4883a0.97666 0.97666 0 0 0-0.19532 0 0.97666 0.97666 0 0 0 0.0244 1.9531c0.26197 0.024 1.2038 0.1941 2.3193 0.4395 0.29765 0.066 0.67522 0.1694 1.001 0.2441-1.277 0.042-3.0439 0.098-3.3203 0.098a0.97666 0.97666 0 1 0 0 1.9531c0.63228 0 3.0814-0.086 5.4443-0.1708-1.8835 0.7062-3.9354 1.465-4.2969 1.5869a0.90358 0.90358 0 1 0 0.56152 1.7089c0.59502-0.2006 2.8702-1.0464 5.0781-1.8798-0.0888 0.073-0.0814 0.073-0.1709 0.1465-2.0675 1.705-4.3099 3.5498-4.7119 3.8574a0.97666 0.97666 0 1 0 1.1719 1.5381c0.37081-0.2838 1.8672-1.5136 3.125-2.5391-0.48868 0.6845-0.95513 1.35-1.3428 1.9287-0.3239 0.4836-0.59839 0.9192-0.80567 1.2696-0.10364 0.1751-0.17137 0.3143-0.24414 0.4638-0.0727 0.1495-0.15873 0.236-0.19531 0.5616a0.98749 0.98749 0 1 0 1.9531 0.2929c0.0349-0.072 0.10826-0.1947 0.19532-0.3418 0.17411-0.2943 0.41995-0.681 0.73242-1.1475 0.35063-0.5234 0.84801-1.1994 1.2939-1.831-0.23196 0.6575-0.50217 1.3721-0.68359 1.9287-0.17662 0.5419-0.31389 1.0307-0.41504 1.416-0.0505 0.1927-0.0941 0.3504-0.12207 0.5127-0.028 0.1623-0.0705 0.264 0 0.6104a0.97666 0.97666 0 0 0 1.9287-0.2686c-5e-3 0.027-3e-3 -0.057 0-0.049 0.0144-0.075 0.0367-0.178 0.0732-0.3173 0.0839-0.3195 0.22057-0.7722 0.39063-1.2939 0.3401-1.0436 0.81412-2.3703 1.2939-3.6866-2e-3 0.086 2e-3 0.084 0 0.171-0.0305 1.4125-0.0392 2.8396-0.0244 3.9794 7e-3 0.5699 0.0205 1.0675 0.0488 1.4649 0.0141 0.1986 0.023 0.3744 0.0488 0.5371 0.0258 0.1626 0.017 0.2808 0.19531 0.5859a0.97666 0.97666 0 0 0 1.7334-0.8789c-0.0114-0.072-0.0127-0.2014-0.0244-0.3662-0.0235-0.3296-0.0417-0.8184-0.0488-1.3672-0.0121-0.9328 5e-3 -2.1339 0.0244-3.3203 0.33204 1.1337 0.66824 2.2904 0.92773 3.2227 0.30672 1.1019 0.53278 2.0663 0.53711 2.0996a0.97666 0.97666 0 1 0 1.9287-0.2686c-0.0689-0.5283-0.27467-1.2499-0.58593-2.3681-0.30525-1.0967-0.68754-2.4425-1.0742-3.7598 0.62203 0.8838 1.2599 1.7817 1.7578 2.5146 0.59459 0.8754 1.085 1.6567 1.0986 1.6846a0.90358 0.90358 0 1 0 1.6113-0.7812c-0.21655-0.4428-0.6173-1.016-1.2207-1.9043-0.46331-0.6821-1.0439-1.5251-1.6113-2.3438 1.0588 0.7758 2.1457 1.5752 3.0029 2.2217 0.91322 0.6887 1.6853 1.319 1.709 1.3428a0.97666 0.97666 0 1 0 1.3672-1.3672c-0.37574-0.3777-0.97755-0.8392-1.9043-1.5381-0.26041-0.1964-0.61391-0.4436-0.90332-0.6592 0.37843 0.1764 0.8395 0.3871 1.1719 0.5371 0.521 0.2351 0.97202 0.4391 1.3184 0.586 0.17317 0.073 0.31444 0.123 0.43945 0.1708 0.12502 0.048 0.16906 0.081 0.41504 0.1222a0.97733 0.97733 0 0 0 0.41504-1.9043c-0.0166-0.01-0.078-0.032-0.12207-0.048-0.0881-0.034-0.23001-0.078-0.39063-0.1465-0.32123-0.1363-0.75598-0.3298-1.2695-0.5616-1.0271-0.4635-2.3336-1.0751-3.6377-1.6845-0.15993-0.075-0.15852-0.072-0.31739-0.1465 1.2514 0.1391 2.5251 0.268 3.5156 0.3662 0.52625 0.052 0.97133 0.096 1.3184 0.1221 0.17351 0.013 0.31572 0.02 0.43945 0.024 0.12374 0.01 0.16285 0.037 0.39063 0a0.90358 0.90358 0 1 0-0.19532-1.7823c0.0213 0 7e-3 -0.013-0.0732 0-0.0185-3e-4 -0.0304-0.023-0.0488-0.024-0.0872 0-0.20527-0.012-0.36621-0.024-0.32188-0.024-0.77522-0.071-1.2939-0.122-0.78998-0.078-1.8117-0.1844-2.8076-0.293 1.2543-0.279 2.5258-0.5748 3.5156-0.8057 0.55665-0.1298 1.0273-0.248 1.3916-0.3418 0.18214-0.047 0.33551-0.084 0.46386-0.122 0.12836-0.038 0.19479-0.03 0.41504-0.1465a0.97666 0.97666 0 0 0-0.58593-1.8311 0.97666 0.97666 0 0 0-0.26856 0.098c-0.0141 0.01-0.0524 0.011-0.0977 0.024-0.0905 0.027-0.24609 0.054-0.41503 0.098-0.33789 0.087-0.79408 0.1894-1.3428 0.3174-0.42222 0.099-1.0138 0.2252-1.5137 0.3418 1.04-0.4887 2.5916-1.2104 2.8076-1.3183a0.97666 0.97666 0 0 0-0.43946-1.8555 0.97666 0.97666 0 0 0-0.43945 0.122c-0.16619 0.083-2.8528 1.359-5.3711 2.5391 1.6944-1.6231 3.3822-3.2582 3.6621-3.54a0.90358 0.90358 0 0 0-0.73243-1.5381 0.90358 0.90358 0 0 0-0.5371 0.2685c-0.098 0.099-1.7166 1.6596-3.1982 3.0762 1.0876-2.0955 2.191-4.2512 2.3682-4.6143a0.97666 0.97666 0 0 0-0.92774-1.416 0.97666 0.97666 0 0 0-0.83008 0.5616c-0.0366 0.075-0.79297 1.5378-1.2207 2.3681 0.062-0.2417 0.13818-0.5636 0.19531-0.7813 0.13759-0.5242 0.25091-0.9736 0.3418-1.2939 0.0455-0.1602 0.0951-0.2814 0.12207-0.3662 2e-3 -0.01-3e-3 -0.016 0-0.024 0.0491-0.088 0.0577-0.091 0.0488-0.073a0.97666 0.97666 0 0 0-1.001-1.3916 0.97666 0.97666 0 0 0-0.75683 0.5127c-0.1286 0.2315-0.10874 0.2476-0.14649 0.3662-0.0377 0.1187-0.0978 0.2678-0.14648 0.4395-0.0974 0.3432-0.20244 0.8118-0.3418 1.3427-0.26773 1.0201-0.60058 2.3367-0.92773 3.6377-0.10785-1.3537-0.22064-2.7298-0.29297-3.7842-0.0371-0.5407-0.057-1.0101-0.0732-1.3427-8e-3 -0.1663-0.023-0.3016-0.0244-0.3906a0.97666 0.97666 0 0 0-1.0986-1.1719z" color="#000000" fill="url(#linearGradient5647)" opacity=".48" style="block-progression:tb;text-decoration-line:none;text-indent:0;text-transform:none"/>
  <use transform="translate(-92.857 31.607)" width="100%" height="100%" xlink:href="#path4619"/>
  <use transform="translate(-96.607 2.6786)" width="100%" height="100%" xlink:href="#path4619"/>
  <use transform="matrix(.8075 0 0 .8075 -57.497 -14.361)" width="100%" height="100%" xlink:href="#path4619"/>
  <use transform="translate(-187.5 56.071)" width="100%" height="100%" xlink:href="#path4619"/>
  <use transform="translate(-167.68 41.786)" width="100%" height="100%" xlink:href="#path4619"/>
  <use transform="matrix(.97359 0 0 .97359 -167.44 16.936)" width="100%" height="100%" xlink:href="#path4619"/>
  <use transform="matrix(.85794 0 0 .85794 -125.11 27.575)" width="100%" height="100%" xlink:href="#path4619"/>
  <use transform="matrix(.88803 0 0 .88803 -117.48 42.28)" width="100%" height="100%" xlink:href="#path4619"/>
  <use transform="matrix(.92897 0 0 .92897 -118.54 16.377)" width="100%" height="100%" xlink:href="#path4619"/>
  <use transform="matrix(.90056 0 0 .90056 -133.45 3.0348)" width="100%" height="100%" xlink:href="#path4619"/>
  <use transform="matrix(.97099 0 0 .97099 -135.34 -18.497)" width="100%" height="100%" xlink:href="#path4619"/>
  <use transform="matrix(.70168 0 0 .70168 -68.744 7.3186)" width="100%" height="100%" xlink:href="#path4619"/>
  <use transform="matrix(1.0568 0 0 1.0568 -125.71 -24.03)" width="100%" height="100%" xlink:href="#path4619"/>
  <use transform="matrix(.81673 0 0 .81673 -77.391 17.953)" width="100%" height="100%" xlink:href="#path4619"/>
  <use transform="matrix(.87377 0 0 .87377 -91.354 36.057)" width="100%" height="100%" xlink:href="#path4619"/>
  <use transform="matrix(1.0137 0 0 1.0137 -175.65 -10.718)" width="100%" height="100%" xlink:href="#path4619"/>
  <use transform="translate(-87.5 56.071)" width="100%" height="100%" xlink:href="#path4619"/>
  <use transform="translate(-163.04 -32.143)" width="100%" height="100%" xlink:href="#path4619"/>
  <use transform="translate(-137.68 -42.321)" width="100%" height="100%" xlink:href="#path4619"/>
  <use transform="translate(-114.29 -44.464)" width="100%" height="100%" xlink:href="#path4619"/>
  <use transform="translate(-187.5 -43.929)" width="100%" height="100%" xlink:href="#path4619"/>
  <use transform="translate(-87.5 -43.929)" width="100%" height="100%" xlink:href="#path4619"/>
  <use transform="translate(-192.86 31.607)" width="100%" height="100%" xlink:href="#path4619"/>
  <use transform="translate(-196.61 2.6786)" width="100%" height="100%" xlink:href="#path4619"/>
  <use transform="matrix(.8075 0 0 .8075 -157.5 -14.361)" width="100%" height="100%" xlink:href="#path4619"/>
  <use transform="translate(-163.04 67.857)" width="100%" height="100%" xlink:href="#path4619"/>
  <use transform="translate(-137.68 57.679)" width="100%" height="100%" xlink:href="#path4619"/>
  <use transform="translate(-114.29 55.536)" width="100%" height="100%" xlink:href="#path4619"/>
 </g>
</svg>
