<svg width="100" height="100" version="1.1" xmlns="http://www.w3.org/2000/svg" xmlns:xlink="http://www.w3.org/1999/xlink">
 <defs>
  <linearGradient id="linearGradient3866" x1="468.39" x2="500.55" y1="948.03" y2="948.03" gradientTransform="matrix(.55243 -.55243 .55243 .55243 -650.61 -201.4)" gradientUnits="userSpaceOnUse">
   <stop stop-color="#548c54" stop-opacity=".80645" offset="0"/>
   <stop stop-color="#548c54" stop-opacity=".12097" offset="1"/>
  </linearGradient>
 </defs>
 <g>
  <rect x="-3.8117" y="-3.8165" width="107.63" height="107.63" enable-background="new" fill="#7dc263" fill-opacity=".58824"/>
  <path id="path4945" d="m129.43 57.383c-0.14689 3.0847 1.9478 5.4965 4.664 5.3672 0.1001-0.01 0.19424-0.031 0.29315-0.043 0.19291 2.3495 2.045 4.0653 4.4113 3.9526 1.5611-0.074 2.9832-0.9345 3.8888-2.1937 0.50109 0.3145 1.0779 0.4726 1.6964 0.4432 2.0089-0.096 3.7248-2.1884 4.0111-4.7613 1.4278-0.7128 2.4586-2.1129 2.5342-3.7013 0.055-1.156-0.42139-2.1622-1.2032-2.8537 0.47642-0.885 0.75947-1.8897 0.80994-2.9496 0.15785-3.3149-2.1189-5.8959-5.1114-5.7534-0.594 0.028-1.1926 0.1819-1.7368 0.403-0.81913-0.9675-2.0243-1.5338-3.3941-1.4686-1.8589 0.089-3.5055 1.3319-4.3668 3.0608-0.14428-0.01-0.28787-0.015-0.43632-0.01-2.5321 0.1207-4.6618 1.9225-4.7627 4.0404-0.0372 0.7806 0.20696 1.5107 0.65716 2.0936-1.1252 1.0759-1.8729 2.6526-1.9548 4.3724z" enable-background="new" fill="url(#linearGradient3866)" opacity=".35"/>
  <use transform="matrix(.93771 0 0 .93771 -45.746 -32.421)" width="800" height="1200" enable-background="new" xlink:href="#path4945"/>
  <use transform="matrix(.93771 0 0 .93771 -116.91 -7.6885)" width="800" height="1200" enable-background="new" xlink:href="#path4945"/>
  <use transform="matrix(.93771 0 0 .93771 -75.096 32.9)" width="800" height="1200" enable-background="new" xlink:href="#path4945"/>
  <use transform="matrix(.94131 0 0 .94131 -28.983 5.5377)" width="800" height="1200" enable-background="new" xlink:href="#path4945"/>
  <use transform="matrix(.94131 0 0 .94131 -37.972 -12.739)" width="800" height="1200" enable-background="new" xlink:href="#path4945"/>
  <use transform="matrix(.94131 0 0 .94131 -27.784 -33.713)" width="800" height="1200" enable-background="new" xlink:href="#path4945"/>
  <use transform="matrix(.94131 0 0 .94131 -32.878 25.013)" width="800" height="1200" enable-background="new" xlink:href="#path4945"/>
  <use transform="matrix(1.0941 0 0 1.0941 -92.291 1.9162)" width="800" height="1200" enable-background="new" xlink:href="#path4945"/>
  <use transform="matrix(1.0667 0 0 1.0667 -72.346 20.084)" width="800" height="1200" enable-background="new" xlink:href="#path4945"/>
  <use transform="matrix(.71847 0 0 .71847 -57.892 22.836)" width="800" height="1200" enable-background="new" xlink:href="#path4945"/>
  <use transform="matrix(.9635 0 0 .9635 -49.495 3.9794)" width="800" height="1200" enable-background="new" xlink:href="#path4945"/>
  <use transform="matrix(1.0667 0 0 1.0667 -123.74 2.9107)" width="800" height="1200" enable-background="new" xlink:href="#path4945"/>
  <use transform="matrix(1.0667 0 0 1.0667 -90.042 -27.745)" width="800" height="1200" enable-background="new" xlink:href="#path4945"/>
  <use transform="matrix(.9434 0 0 .9434 -95.881 -10.713)" width="800" height="1200" enable-background="new" xlink:href="#path4945"/>
  <use transform="matrix(.93771 0 0 .93771 -94.022 29.663)" width="800" height="1200" enable-background="new" xlink:href="#path4945"/>
  <use transform="matrix(1.0667 0 0 1.0667 -126.88 -32.875)" width="800" height="1200" enable-background="new" xlink:href="#path4945"/>
  <use transform="matrix(.71847 0 0 .71847 -49.767 7.6643)" width="800" height="1200" enable-background="new" xlink:href="#path4945"/>
  <use transform="matrix(.62819 0 0 .62819 -67.964 53.143)" width="800" height="1200" enable-background="new" xlink:href="#path4945"/>
  <use transform="matrix(.62819 0 0 .62819 -17.78 -18.314)" width="800" height="1200" enable-background="new" xlink:href="#path4945"/>
  <use transform="matrix(.68623 0 0 .68623 -24.105 9.8607)" width="800" height="1200" enable-background="new" xlink:href="#path4945"/>
  <use transform="matrix(.71847 0 0 .71847 -23.197 -4.4474)" width="800" height="1200" enable-background="new" xlink:href="#path4945"/>
  <use transform="matrix(.71847 0 0 .71847 -86.656 36.093)" width="800" height="1200" enable-background="new" xlink:href="#path4945"/>
  <use transform="matrix(.9635 0 0 .9635 -92.042 -36.097)" width="800" height="1200" enable-background="new" xlink:href="#path4945"/>
  <use transform="matrix(.94131 0 0 .94131 -128.98 5.5377)" width="800" height="1200" enable-background="new" xlink:href="#path4945"/>
  <use transform="matrix(.94131 0 0 .94131 -137.97 -12.739)" width="800" height="1200" enable-background="new" xlink:href="#path4945"/>
  <use transform="matrix(.94131 0 0 .94131 -127.78 -33.713)" width="800" height="1200" enable-background="new" xlink:href="#path4945"/>
  <use transform="matrix(.94131 0 0 .94131 -106.81 -48.694)" width="800" height="1200" enable-background="new" xlink:href="#path4945"/>
  <use transform="matrix(.94131 0 0 .94131 -71.456 -46.896)" width="800" height="1200" enable-background="new" xlink:href="#path4945"/>
  <use transform="matrix(.94131 0 0 .94131 -49.883 -53.188)" width="800" height="1200" enable-background="new" xlink:href="#path4945"/>
  <use transform="matrix(.66589 0 0 .66589 -50.525 -36.026)" width="800" height="1200" enable-background="new" xlink:href="#path4945"/>
  <use transform="matrix(.94131 0 0 .94131 -129.28 -54.686)" width="800" height="1200" enable-background="new" xlink:href="#path4945"/>
  <use transform="matrix(.94131 0 0 .94131 -132.88 25.013)" width="800" height="1200" enable-background="new" xlink:href="#path4945"/>
  <use transform="matrix(.94131 0 0 .94131 -106.81 51.306)" width="800" height="1200" enable-background="new" xlink:href="#path4945"/>
  <use transform="matrix(.94131 0 0 .94131 -71.456 53.104)" width="800" height="1200" enable-background="new" xlink:href="#path4945"/>
  <use transform="matrix(.66589 0 0 .66589 -50.525 63.974)" width="800" height="1200" enable-background="new" xlink:href="#path4945"/>
  <use transform="matrix(.94131 0 0 .94131 -49.883 46.812)" width="800" height="1200" enable-background="new" xlink:href="#path4945"/>
  <use transform="matrix(.94131 0 0 .94131 -29.282 -54.686)" width="800" height="1200" enable-background="new" xlink:href="#path4945"/>
  <use transform="matrix(.94131 0 0 .94131 -129.28 45.314)" width="800" height="1200" enable-background="new" xlink:href="#path4945"/>
  <use transform="matrix(.94131 0 0 .94131 -29.282 45.314)" width="800" height="1200" enable-background="new" xlink:href="#path4945"/>
 </g>
</svg>
