<svg width="28" height="28" version="1.1" viewBox="0 0 7.4083 7.4083" xmlns="http://www.w3.org/2000/svg">
 <g transform="translate(-.52149 -288.89)">
  <rect x=".78608" y="289.16" width="6.8792" height="6.8792" rx="1.0583" fill="#1279ff" stroke="#fff" stroke-width=".52917"/>
  <rect x=".78608" y="289.16" width="6.8792" height="6.8792" rx="1.0583" fill="#1279ff"/>
  <path d="m6.3931 295.14-.13856.13855-1.6627-2.2169-1.1084 1.1084-2.65e-5 1.1085c-.13859.13856-.41569.13855-.55422 1e-5-.55425-.55425-1.3856-1.3856-1.3856-1.3856-.13859-.13857-.13859-.41568 0-.55423l1.1085-6e-5 1.1085-1.1085-2.2169-1.6627.13851-.1385c.13856-.13855.26146-.0921.34639-.0693l2.8405.76201s.09234-.0924.5542-.55423c.27715-.27712 1.2471-.9699 1.5242-.69278.2771.27711-.41569 1.247-.69278 1.5241-.46188.46187-.55425.55423-.55425.55423l.76203 2.8405c.03265.12166.071755.20536-.069294.34639z" fill="#fff"/>
 </g>
</svg>
