<svg width="32" height="29" version="1.1" viewBox="0 0 32 29" xmlns="http://www.w3.org/2000/svg">
 <g fill="#ff0000">
  <path d="m15.996 4.5917-10 5.9938v17.006h20v-16.911z" stroke="#ffffff" stroke-width="2"/>
  <path d="m15.996 1.5917-0.93126 0.608-13.069 8.128a1.8875 1.8865 0 1 0 1.8936 3.264l12.137-7.52 12.075 7.488a1.9013 1.9004 0 0 0 1.8936-3.296l-13.007-8.064z" color="#000000" stroke="#ffffff" stroke-width="2" style="text-decoration-line:none;text-indent:0;text-transform:none"/>
  <path d="m15.996 4.5017-10 5.9938v17.006h20v-16.911z"/>
  <path d="m15.996 1.5017-0.93126 0.608-13.069 8.128a1.8875 1.8865 0 1 0 1.8936 3.264l12.137-7.52 12.075 7.488a1.9013 1.9004 0 0 0 1.8936-3.296l-13.007-8.064z" color="#000000" style="text-decoration-line:none;text-indent:0;text-transform:none"/>
 </g>
 <g fill="#ffff00">
  <rect x="12.996" y="20.682" width="11" height="2" color="#000000"/>
  <rect x="20.926" y="21.682" width="2" height="3" color="#000000"/>
  <path d="m10.996 17.642c-2.2091 0-4 1.7909-4 4s1.7909 4 4 4 4-1.7909 4-4-1.7909-4-4-4zm0 2c1.1046 0 2 0.89543 2 2s-0.89543 2-2 2-2-0.89543-2-2 0.89543-2 2-2z" color="#000000"/>
 </g>
 <path d="m16.134 17.509c0.57677-0.02282 0.95884-0.19651 1.1463-0.52102 0.18737-0.32447 0.2733-0.66268 0.25777-1.0146-0.01415-0.25511-0.11756-0.78811-0.31038-1.5991-0.19285-0.81086-0.39055-1.5974-0.59313-2.3595-0.2026-0.76212-0.32556-1.1976-0.36889-1.3065l0.08775-0.08775c0.16727 0.23311 0.75411 0.84188 1.7605 1.8263 1.0064 0.98448 1.692 1.6042 2.0567 1.8592 0.36653 0.20934 0.75226 0.30623 1.1572 0.29068 0.40492-0.01558 0.73582-0.2148 0.99268-0.59781 0.35922-0.64531 0.44148-1.1206 0.2468-1.426-0.19471-0.30528-0.45248-0.51734-0.7733-0.63619-0.20097-0.0872-0.71556-0.24915-1.5438-0.48588-0.82822-0.23669-1.6418-0.46365-2.4408-0.68088-0.79897-0.21719-1.2551-0.34015-1.3683-0.36888v-0.08775c0.12376-0.01218 0.56848-0.11454 1.3342-0.30713 0.76565-0.19254 1.5484-0.40217 2.3481-0.62889 0.79976-0.22666 1.3128-0.39729 1.5388-0.51188 0.36927-0.19192 0.62888-0.44421 0.77879-0.75685 0.14989-0.31258 0.0804-0.71843-0.20841-1.2176-0.25046-0.38755-0.55028-0.61058-0.89944-0.66911-0.34919-0.058465-0.69287 0.00329-1.0311 0.18647-0.36747 0.25963-1.0695 0.89216-2.106 1.8976-1.0366 1.0055-1.6508 1.6161-1.8428 1.8318l-0.08775-0.08775c0.04333-0.10936 0.16629-0.54869 0.36889-1.3179 0.20258-0.76915 0.40028-1.5626 0.59313-2.3806 0.19282-0.81789 0.29628-1.3547 0.31038-1.6104 0.0099-0.46341-0.08687-0.81989-0.29068-1.0695-0.20385-0.2495-0.57495-0.37564-1.1134-0.37842-0.50001 0.010969-0.86016 0.1536-1.0804 0.42778-0.2203 0.27426-0.32816 0.6143-0.32359 1.0201 0.01492 0.21453 0.1216 0.73129 0.32013 1.5502 0.19852 0.81903 0.39948 1.6186 0.60288 2.3985 0.2034 0.78003 0.31986 1.2188 0.34938 1.3163l-0.08775 0.08775c-0.17003-0.20839-0.77332-0.78974-1.8099-1.7441-1.0366-0.95426-1.7496-1.5576-2.139-1.8099-0.34277-0.19558-0.71023-0.28699-1.1024-0.27422-0.39214 0.012834-0.7267 0.25049-1.0037 0.71298-0.23858 0.46528-0.266 0.86199-0.082268 1.1901 0.18373 0.32818 0.43052 0.56035 0.7404 0.69652 0.21396 0.086107 0.7318 0.24053 1.5535 0.46313 0.82171 0.22265 1.6288 0.43552 2.4213 0.63863 0.79246 0.20316 1.2518 0.31853 1.378 0.34614v0.08775c-0.13841 0.01382-0.59286 0.12758-1.3634 0.34124-0.77053 0.21372-1.5532 0.44446-2.3481 0.69225-0.79491 0.24784-1.2981 0.42984-1.5097 0.54602-0.22212 0.11153-0.45796 0.33823-0.70749 0.68007-0.24954 0.34188-0.23309 0.78795 0.049361 1.3382 0.25228 0.38759 0.57038 0.59965 0.95429 0.6362 0.3839 0.03664 0.76782-0.05846 1.1517-0.28519 0.32084-0.23946 0.95155-0.82447 1.8922-1.755 0.94057-0.9305 1.5823-1.5594 1.9251-1.8867h0.08775c-0.02951 0.11134-0.14599 0.55659-0.34938 1.3358-0.2034 0.77922-0.40436 1.5755-0.60288 2.3888-0.19853 0.81334-0.30523 1.3268-0.32013 1.5405-0.0044 0.40953 0.10333 0.76418 0.32359 1.064 0.22028 0.29983 0.58042 0.45704 1.0804 0.47166z" fill="#ffffff" stroke="#ffffff" stroke-width=".30001"/>
</svg>
