<svg id="SVGRoot" width="32" height="29" version="1.1" viewBox="0 0 32 29" xmlns="http://www.w3.org/2000/svg">
 <g fill="#ff0000">
  <path d="m16 4.272-10 5.9938v17.006h20v-16.911z" stroke="#ffffff" stroke-width="2"/>
  <path d="m15.994 1.272-0.93126 0.608-13.069 8.128a1.8875 1.8865 0 1 0 1.8936 3.264l12.137-7.52 12.075 7.488a1.9013 1.9004 0 0 0 1.8936-3.296l-13.007-8.064z" color="#000000" stroke="#ffffff" stroke-width="2" style="text-decoration-line:none;text-indent:0;text-transform:none"/>
  <path d="m16 4.1805-10 5.9938v17.006h20v-16.911z"/>
  <path d="m15.994 1.1805-0.93126 0.608-13.069 8.128a1.8875 1.8865 0 1 0 1.8936 3.264l12.137-7.52 12.075 7.488a1.9013 1.9004 0 0 0 1.8936-3.296l-13.007-8.064z" color="#000000" style="text-decoration-line:none;text-indent:0;text-transform:none"/>
 </g>
 <path d="m15.969 21.288c0.57675-0.02282 0.95881-0.1965 1.1462-0.521 0.18737-0.32446 0.27329-0.66266 0.25776-1.0146-0.01415-0.2551-0.11755-0.78808-0.31037-1.599-0.19284-0.81083-0.39054-1.5973-0.59311-2.3594-0.20259-0.76209-0.32555-1.1976-0.36888-1.3065l0.08775-0.08775c0.16726 0.2331 0.75408 0.84185 1.7604 1.8263 1.0063 0.98444 1.6919 1.6042 2.0566 1.8592 0.36652 0.20934 0.75224 0.30622 1.1572 0.29067 0.40491-0.01558 0.7358-0.21479 0.99265-0.59779 0.35921-0.64528 0.44146-1.1206 0.24679-1.4259-0.1947-0.30527-0.45247-0.51732-0.77328-0.63617-0.20097-0.0872-0.71554-0.24914-1.5437-0.48587-0.8282-0.23668-1.6418-0.46363-2.4407-0.68086-0.79894-0.21718-1.255-0.34014-1.3682-0.36886v-0.08775c0.12376-0.01217 0.56846-0.11453 1.3341-0.30712 0.76562-0.19253 1.5483-0.40215 2.3481-0.62886 0.79973-0.22666 1.3127-0.39727 1.5388-0.51186 0.36926-0.19192 0.62885-0.4442 0.77876-0.75682 0.14989-0.31257 0.0804-0.7184-0.2084-1.2175-0.25046-0.38753-0.55026-0.61056-0.89942-0.66909-0.34918-0.058462-0.69284 0.0033-1.031 0.18647-0.36746 0.25962-1.0694 0.89213-2.106 1.8975-1.0365 1.0055-1.6508 1.6161-1.8427 1.8317l-0.08775-0.08775c0.04333-0.10936 0.16628-0.54867 0.36888-1.3178 0.20257-0.76912 0.40027-1.5626 0.59311-2.3806 0.19282-0.81786 0.29627-1.3546 0.31037-1.6103 0.0099-0.46339-0.08687-0.81986-0.29067-1.0694-0.20384-0.24949-0.57493-0.37563-1.1133-0.37841-0.49999 0.010969-0.86013 0.15359-1.0804 0.42777-0.22029 0.27425-0.32815 0.61428-0.32357 1.0201 0.01492 0.21452 0.1216 0.73127 0.32012 1.5502 0.19851 0.819 0.39947 1.6185 0.60286 2.3984 0.20339 0.78 0.31984 1.2187 0.34937 1.3162l-0.08775 0.08775c-0.17002-0.20838-0.77329-0.78971-1.8098-1.744-1.0365-0.95423-1.7495-1.5575-2.1389-1.8098-0.34276-0.19557-0.71021-0.28698-1.1023-0.27422-0.39213 0.01283-0.72667 0.25048-1.0036 0.71296-0.23857 0.46527-0.26599 0.86196-0.082265 1.1901 0.18372 0.32817 0.43051 0.56033 0.74037 0.6965 0.21395 0.0861 0.73177 0.24052 1.5535 0.46312 0.82168 0.22264 1.6287 0.43551 2.4212 0.6386 0.79243 0.20315 1.2518 0.31852 1.378 0.34613v0.08775c-0.1384 0.01382-0.59284 0.12758-1.3633 0.34123-0.7705 0.21371-1.5532 0.44445-2.3481 0.69223-0.79488 0.24784-1.2981 0.42983-1.5096 0.546-0.22212 0.11153-0.45794 0.33822-0.70746 0.68004-0.24954 0.34187-0.23308 0.78792 0.049359 1.3382 0.25227 0.38758 0.57036 0.59963 0.95426 0.63618 0.38389 0.03664 0.76779-0.05846 1.1517-0.28518 0.32083-0.23946 0.95152-0.82445 1.8921-1.755 0.94054-0.93047 1.5822-1.5593 1.925-1.8866h0.08775c-0.02951 0.11133-0.14598 0.55657-0.34937 1.3357-0.20339 0.77919-0.40435 1.5754-0.60286 2.3887-0.19852 0.81331-0.30522 1.3268-0.32012 1.5405-0.0044 0.40951 0.10332 0.76415 0.32357 1.0639 0.22027 0.29982 0.5804 0.45703 1.0804 0.47164z" fill="#ffffff" stroke="#ffffff" stroke-width=".3"/>
</svg>
