<svg height="32" viewBox="0 0 32 32" width="32" xmlns="http://www.w3.org/2000/svg">
	<rect fill="#6a3600" height="30" rx="5" stroke="#fff" stroke-width="2" width="30" x="1" y="1"/>
	<rect fill="#743a00" height="26.707" rx="4.4511" width="26.707" x="2.6467" y="2.6467"/>
	<g fill="#fff" stroke-width="1.6724">
		<path d="m5.5167 9.3996c-.62714 0-1.0452.41809-1.0452 1.2543v12.125h2.0905v-2.9266s17.361.03345 19.232 0v2.9266h2.0905v-10.452c0-.55188-.23246-1.2543-1.0452-1.2543s-1.0452.70239-1.0452 1.2543v5.4352h-19.232v-7.1075c0-.83618-.41809-1.2543-1.0452-1.2543zm4.808 1.6724c-1.3864 0-2.5085 1.1222-2.5085 2.5085 0 1.3864 1.1222 2.5085 2.5085 2.5085 1.3864 0 2.5085-1.1222 2.5085-2.5085 0-1.3864-1.1222-2.5085-2.5085-2.5085zm3.3447 1.6724v3.3447h10.87c0-1.6724-1.7326-3.3447-3.3447-3.3447z"/>
		<path d="m4.4715 4.3825h23.413v3.3447h-23.413z" opacity=".5"/>
		<path d="m4.4715 24.451h23.413v3.3447h-23.413z" opacity=".508"/>
	</g>
</svg>
