<svg id="SVGRoot" width="32" height="32" version="1.1" viewBox="0 0 32 32" xmlns="http://www.w3.org/2000/svg">
 <g>
  <rect x="1" y="1.183" width="30" height="30" rx="5" fill="#6a3600" stroke="#ffffff" stroke-width="2"/>
  <rect x="1" y="1.183" width="30" height="30" rx="5" fill="#743a00"/>
  <path d="m10.326 2.7613 1.8913 3.7825h1.8912l-1.8912 3.7825 1.8912 3.7825-1.8912 3.7825 1.8912 3.7825-1.8912 3.7825h7.565l-1.8912-3.7825 1.8912-3.7825-1.8912-3.7825 1.8912-3.7825-1.8912-3.7825h1.8912l1.8912-3.7825zm5.6738 5.6737a1.8912 1.8912 0 0 1 1.8912 1.8912 1.8912 1.8912 0 0 1-1.8912 1.8912 1.8912 1.8912 0 0 1-1.8912-1.8912 1.8912 1.8912 0 0 1 1.8912-1.8912zm0 7.565a1.8912 1.8912 0 0 1 1.8912 1.8912 1.8912 1.8912 0 0 1-1.8912 1.8912 1.8912 1.8912 0 0 1-1.8912-1.8912 1.8912 1.8912 0 0 1 1.8912-1.8912zm-7.565 11.347v1.8912h15.13v-1.8912z" fill="#ffffff" stop-color="#000000" style="-inkscape-stroke:none;font-variation-settings:normal" paint-order="markers stroke fill"/>
 </g>
</svg>
