<svg id="SVGRoot" width="64" height="64" version="1.1" viewBox="0 0 64 64" xmlns="http://www.w3.org/2000/svg">
 <path d="m6.1616 56.772c5.3568-0.87316 10.826-1.0122 16.21-0.30207 5.3473 0.60187 10.758 0.44228 16.066-0.44228 6.1281-0.75461 12.327-1.3565 18.505-1.0293" fill="none" opacity=".8" stroke="#ffffff" stroke-linecap="square" stroke-linejoin="round" stroke-width="7.4094"/>
 <path d="m30.336 5.2593c-3.3433-0.1466-5.1432 3.073-6.665 5.5285-1.2744 2.1464-2.7677 4.131-4.8001 5.5923-3.4801 4.0535-4.5847 9.5409-5.0611 14.717-0.42632 3.2441 0.01137 6.4849 0.38186 9.7051-1.3827 0.334-4.173-1.7725-6.0324-0.47761-1.7486 2.029 0.037926 4.8514 1.2993 6.6661 1.3097 1.8546 2.784 4.1276 5.3818 3.3251 6.119 0.09119 12.22 1.369 18.349 0.61441 2.9751-0.36249 5.9822-0.66798 8.9197-1.1912 3.8893-1.3006 7.5119-3.7742 9.4931-7.4355 2.1761-2.754 5.8511-3.9532 7.7319-6.975 1.5491-3.5975-1.1718-8.2802-5.117-8.6108-1.9971 0.13907 0.90394-2.273 1.5206-0.72383 1.3781-0.29068 4.7169-0.46052 2.4189-2.1761-3.9064-4.2644-8.3896-7.9702-12.583-11.948-2.4588-2.1323-4.8081-4.4323-7.4914-6.2788-0.81275 1.5483-0.99057 3.4729-0.28725 4.8696-1.6152 2.9548-0.94383-2.5449-2.7848-3.0531-1.247-1.2341-2.8919-2.1226-4.6736-2.148zm0.61213 1.8808c3.5508 0.071809 4.9551 5.4339 2.1852 7.4663-2.542 0.54943-5.1136-0.24964-7.5598-0.83783 0.6372-2.0689 1.9606-4.1453 3.5234-5.7398 0.51523-0.45539 1.1262-0.91169 1.8512-0.88866zm23.45 22.025c2.852-0.32145 4.6268 3.3912 2.4109 5.3404-1.3132 1.2528-3.6887 3.5702-5.2071 3.1416-0.32031-2.4006-1.9766-5.0771-0.4571-7.3615 0.79679-0.88228 2.1179-1.1137 3.2533-1.1205z" fill="none" opacity=".8" stroke="#ffffff" stroke-linecap="round" stroke-linejoin="round" stroke-width="4.5596"/>
 <path d="m30.336 5.2593c-3.3433-0.14659-5.1432 3.073-6.665 5.5285-1.2744 2.1464-2.7677 4.131-4.8001 5.5923-3.4801 4.0535-4.5847 9.5409-5.0611 14.717-0.42632 3.2441 0.0114 6.4849 0.38187 9.7051-1.3827 0.33399-4.173-1.7725-6.0324-0.47762-1.7486 2.029 0.037959 4.8514 1.2993 6.6661 1.3097 1.8546 2.784 4.1276 5.3818 3.3251 6.119 0.09119 12.22 1.369 18.349 0.6144 2.9751-0.36249 5.9822-0.66798 8.9197-1.1912 3.8893-1.3006 7.5119-3.7742 9.4931-7.4355 2.1761-2.754 5.8511-3.9532 7.7319-6.975 1.5491-3.5975-1.1718-8.2802-5.117-8.6108-1.9971 0.13907 0.90394-2.273 1.5206-0.72384 1.3781-0.29067 4.7169-0.46052 2.4189-2.1761-3.9064-4.2644-8.3896-7.9702-12.583-11.948-2.4588-2.1323-4.8081-4.4323-7.4914-6.2788-0.81275 1.5483-0.99057 3.4729-0.28725 4.8696-1.6152 2.9548-0.94384-2.5449-2.7848-3.0531-1.247-1.2341-2.8919-2.1226-4.6736-2.148zm0.61212 1.8808c3.5508 0.071814 4.9551 5.4339 2.1852 7.4663-2.542 0.54943-5.1136-0.24964-7.5598-0.83782 0.6372-2.0689 1.9606-4.1453 3.5234-5.7398 0.51523-0.45539 1.1262-0.91169 1.8512-0.88866zm23.45 22.025c2.852-0.32145 4.6268 3.3912 2.4109 5.3404-1.3132 1.2527-3.6887 3.5702-5.207 3.1416-0.32031-2.4006-1.9766-5.0771-0.4571-7.3615 0.79679-0.88228 2.1179-1.1137 3.2533-1.1205z" fill="#743a00" stroke-width=".53758"/>
 <path d="m6.1616 56.772c5.3568-0.87316 10.826-1.0122 16.21-0.30207 5.3473 0.60187 10.758 0.44228 16.066-0.44228 6.1281-0.75461 12.327-1.3565 18.505-1.0293" fill="#743a00" fill-rule="evenodd" stroke="#734a08" stroke-linecap="square" stroke-linejoin="bevel" stroke-width="4.5596"/>
</svg>
