<svg width="20" height="21" version="1.1" viewBox="0 0 5.29 5.56" xmlns="http://www.w3.org/2000/svg">
 <rect x=".265" y=".265" width="4.76" height="5.03" rx=".952" fill="#5a2700" stroke="#ffffff" stroke-width=".529"/>
 <rect x=".265" y=".265" width="4.76" height="5.03" rx=".952" fill="#ff4900"/>
 <path d="m3.176 3.265c-0.0598-0.0326-0.0298-0.0622-0.29-0.0897v0.671c0-6e-3 0.112-0.0145 0.143-0.0235 0.193-0.0601 0.29-0.173 0.29-0.336 0-0.0948-0.0476-0.169-0.142-0.221zm-1.17-1.09c0 0.103 0.0528 0.181 0.158 0.232 0.0403 0.0203 0.108 0.0427 0.202 0.0669v-0.635c-0.0764 0.0159-0.143 0.0402-0.2 0.0731-0.107 0.063-0.16 0.151-0.16 0.263zm1.62 1.93c-0.177 0.134-0.482 0.216-0.743 0.248v0.296h-0.52v-0.301c-0.271-0.0329-0.497-0.0695-0.673-0.193-0.245-0.172-0.367-0.432-0.367-0.664h0.647c0.0214 0 0.0621 0.186 0.124 0.251 0.0637 0.0673 0.154 0.0753 0.27 0.104v-0.788c-0.317-0.0651-0.537-0.135-0.66-0.211-0.219-0.133-0.328-0.342-0.328-0.625 0-0.259 0.107-0.474 0.321-0.645 0.163-0.131 0.386-0.211 0.666-0.242v-0.391h0.52v0.403c0.26 0.0344 0.447 0.079 0.609 0.186 0.244 0.161 0.405 0.337 0.417 0.8h-0.652c-0.0124-0.232-0.143-0.331-0.305-0.405-0.00847-4e-3 -0.0695-0.0445-0.0695-0.0478v0.728l0.235 0.0402c0.25 0.0525 0.48 0.122 0.604 0.21 0.193 0.136 0.268 0.333 0.268 0.59 0 0.264-0.136 0.483-0.365 0.658z" fill="#ffff00" stroke-width=".265"/>
</svg>
