<svg width="26" height="26" version="1.1" viewBox="0 0 6.8792 6.8792" xmlns="http://www.w3.org/2000/svg" xmlns:xlink="http://www.w3.org/1999/xlink">
 <defs>
  <radialGradient id="radialGradient5272" cx="869.03" cy="660.53" r="16.383" gradientTransform="matrix(.19277 0 0 .18392 -164.4 172.04)" gradientUnits="userSpaceOnUse">
   <stop stop-color="#ffff00" offset="0"/>
   <stop stop-color="#ffca00" offset=".77612"/>
   <stop stop-color="#ff9500" offset="1"/>
  </radialGradient>
 </defs>
 <path transform="translate(.32837 -290.09)" d="m3.1203 290.51c0.43798 3e-3 0.65026 1.6885 1.0046 1.9459 0.35148 0.25536 2.0132-0.0715 2.1451 0.34247 0.13291 0.41733-1.4049 1.1402-1.5402 1.5567-0.13425 0.41319 0.69013 1.8926 0.33716 2.1459-0.35584 0.25536-1.5185-0.98379-1.9565-0.98379-0.43445 0-1.5867 1.2412-1.9367 0.98379-0.35283-0.25951 0.46639-1.7482 0.33104-2.1648-0.13425-0.41318-1.6708-1.1255-1.5341-1.5379 0.13778-0.41575 1.8068-0.0967 2.1611-0.35411 0.35148-0.25537 0.55413-1.9368 0.98857-1.9343z" fill="#4d4d4d" stroke="#000000" stroke-width=".52917"/>
 <path transform="translate(.32837 -290.09)" d="m3.1203 290.51c0.43798 3e-3 0.65026 1.6885 1.0046 1.9459 0.35148 0.25536 2.0132-0.0715 2.1451 0.34247 0.13291 0.41733-1.4049 1.1402-1.5402 1.5567-0.13425 0.41319 0.69013 1.8926 0.33716 2.1459-0.35584 0.25536-1.5185-0.98379-1.9565-0.98379-0.43445 0-1.5867 1.2412-1.9367 0.98379-0.35283-0.25951 0.46639-1.7482 0.33104-2.1648-0.13425-0.41318-1.6708-1.1255-1.5341-1.5379 0.13778-0.41575 1.8068-0.0967 2.1611-0.35411 0.35148-0.25537 0.55413-1.9368 0.98857-1.9343z" fill="url(#radialGradient5272)"/>
</svg>
