<svg width="32" height="29" version="1.1" viewBox="0 0 8.4667 7.6729" xmlns="http://www.w3.org/2000/svg">
 <g stroke-linejoin="round">
  <path d="m4.2371 0.79 3.4314 6.0854h-6.871z" fill="#ff0000" stroke="#ffff00" stroke-dashoffset=".18" stroke-linecap="round" stroke-width="1.5875"/>
  <path d="m4.2371 0.79 3.4314 6.0854h-6.871z" fill="#ff0000" stroke="#ff0000" stroke-dashoffset=".18" stroke-linecap="round" stroke-width="1.0583"/>
  <path d="m4.1758 3.3212c-0.15512 1.7e-5 -0.28086 0.12576-0.28088 0.28088v0.39499l-0.84713-0.42166c-0.071561-0.033835-0.1579 0.00519-0.1883 0.06314l-0.077935 0.15657c-0.034562 0.069439-0.00632 0.15375 0.06314 0.18832l0.87727 0.43664-1.1055 0.55026c-0.069443 0.034564-0.097719 0.11888-0.063159 0.18832l0.077952 0.15657c0.034569 0.069427 0.11887 0.097693 0.1883 0.06314l1.0753-0.53526v1.3898c1.77e-5 0.15512 0.12576 0.28086 0.28088 0.28088h0.11951c0.15512-1.76e-5 0.28086-0.12576 0.28088-0.28088v-1.3877l1.071 0.53308c0.069434 0.034554 0.15373 0.00629 0.1883-0.06314l0.077934-0.15657c0.034557-0.069435 0.00632-0.15373-0.063139-0.1883l-1.1055-0.55026 0.87725-0.43665c0.069427-0.034569 0.097693-0.11887 0.063139-0.1883l-0.077932-0.15657c-0.034564-0.069433-0.11886-0.097708-0.1883-0.063157l-0.84277 0.41948v-0.39281c-1.78e-5 -0.15512-0.12576-0.28086-0.28088-0.28088z" color="#000000" color-rendering="auto" fill="none" image-rendering="auto" shape-rendering="auto" solid-color="#000000" stroke="#fffd1d" stroke-width=".91928" filter-blend-mode="normal" filter-gaussianBlur-deviation="0" isolation="auto" mix-blend-mode="normal" white-space="normal"/>
 </g>
 <path d="m4.1758 3.3212c-0.15512 1.7e-5 -0.28086 0.12576-0.28088 0.28088v0.39499l-0.84713-0.42166c-0.071561-0.033835-0.1579 0.0051891-0.1883 0.06314l-0.077934 0.15657c-0.034563 0.069439-0.00632 0.15375 0.06314 0.18832l0.87727 0.43664-1.1055 0.55026c-0.069442 0.034564-0.097719 0.11888-0.063159 0.18832l0.077952 0.15657c0.034569 0.069427 0.11887 0.097693 0.1883 0.06314l1.0753-0.53526v1.3898c1.77e-5 0.15512 0.12576 0.28086 0.28088 0.28088h0.11951c0.15512-1.76e-5 0.28086-0.12576 0.28088-0.28088v-1.3877l1.071 0.53308c0.069435 0.034554 0.15373 0.00629 0.1883-0.06314l0.077935-0.15657c0.034556-0.069435 0.00632-0.15373-0.063139-0.1883l-1.1055-0.55026 0.87725-0.43665c0.069427-0.034568 0.097693-0.11887 0.063139-0.1883l-0.077932-0.15657c-0.034564-0.069433-0.11886-0.097708-0.1883-0.063157l-0.84277 0.41948v-0.39281c-1.78e-5 -0.15512-0.12576-0.28086-0.28088-0.28088z" color="#000000" color-rendering="auto" fill="#f80000" image-rendering="auto" shape-rendering="auto" solid-color="#000000" stroke-width=".0087775" isolation="auto" mix-blend-mode="normal" white-space="normal"/>
</svg>
