<svg width="34" height="34" version="1.1" viewBox="0 0 8.9958 8.9958" xmlns="http://www.w3.org/2000/svg">
 <g transform="translate(-.51412 -287.3)">
  <g stroke="#f2b800">
   <circle cx="176.98" cy="-1256.6" r="4.2333" fill="#ffc400" stroke-width=".52922"/>
   <circle cx="5.006" cy="291.79" r="4.2256" fill="#ffc400" stroke-width=".52826"/>
   <g transform="matrix(.13886 .060803 -.015143 .15153 1.0555 285.06)" fill="#006f00" stroke-linejoin="round" stroke-width="3.5708">
    <path d="m58.696 5.306c-.894-.894-2.184-1.347-3.834-1.347-4.413 0-11.115 3.192-18.871 8.986-.276.207-.473.231-.832.272-.869.094-1.95.214-4.138 2.401-1.807 1.808-2.323 2.653-2.737 3.333-.271.441-.482.79-1.11 1.37-1.183 1.096-2.357 2.226-3.491 3.359-.563.563-1.119 1.129-1.706 1.739-.387.389-.685.491-1.135.647-.599.209-1.347.469-2.326 1.446-.448.449-.904 1.004-1.396 1.701-1.54 2.168-1.961 3.184-2.271 3.926-.198.474-.341.815-.765 1.36-8.896 11.438-12.258 20.707-8.774 24.191.896.897 2.189 1.352 3.838 1.352h.002c6.846 0 19.374-7.926 31.172-19.726 7.203-7.204 13.067-14.745 16.514-21.233 3.497-6.586 4.157-11.479 1.86-13.777zm-35.854 38.785c-1.93-.643-4.307-1.824-6.696-3.327-1.057-.664-2.101-1.394-3.107-2.172.629-.883 1.299-1.786 1.994-2.693 1.03.53 2.063 1.12 3.072 1.754 2.383 1.5 4.478 3.132 5.896 4.598 1.416 1.464 1.551 2.139 1.566 2.27-.129.05-.698.246-2.725-.43zm15.335-12.445c-.026.038-.237.18-.838.18-.53 0-1.504-.114-3.124-.651-2.595-.865-5.786-2.451-8.986-4.466-.461-.288-.914-.593-1.375-.904 1.302-1.333 2.636-2.64 3.968-3.886.102.063.203.125.305.189 3.198 2.012 6.01 4.205 7.912 6.17 1.927 1.992 2.274 3.147 2.138 3.368zm9.302-14.271s-.115.074-.473.074c-.38 0-1.086-.084-2.287-.483-1.928-.643-4.305-1.823-6.694-3.328-.048-.03-.095-.06-.141-.09 1.111-.808 2.206-1.568 3.263-2.258 4.802 3.242 6.465 5.784 6.332 6.085z" fill="#006f00" stroke="#f2b800" stroke-linejoin="round" stroke-width="3.5708"/>
   </g>
  </g>
  <g transform="matrix(.13886 .060803 -.015143 .15153 1.0555 285.06)" fill="#5d0000">
   <path d="m58.696 5.306c-.894-.894-2.184-1.347-3.834-1.347-4.413 0-11.115 3.192-18.871 8.986-.276.207-.473.231-.832.272-.869.094-1.95.214-4.138 2.401-1.807 1.808-2.323 2.653-2.737 3.333-.271.441-.482.79-1.11 1.37-1.183 1.096-2.357 2.226-3.491 3.359-.563.563-1.119 1.129-1.706 1.739-.387.389-.685.491-1.135.647-.599.209-1.347.469-2.326 1.446-.448.449-.904 1.004-1.396 1.701-1.54 2.168-1.961 3.184-2.271 3.926-.198.474-.341.815-.765 1.36-8.896 11.438-12.258 20.707-8.774 24.191.896.897 2.189 1.352 3.838 1.352h.002c6.846 0 19.374-7.926 31.172-19.726 7.203-7.204 13.067-14.745 16.514-21.233 3.497-6.586 4.157-11.479 1.86-13.777zm-35.854 38.785c-1.93-.643-4.307-1.824-6.696-3.327-1.057-.664-2.101-1.394-3.107-2.172.629-.883 1.299-1.786 1.994-2.693 1.03.53 2.063 1.12 3.072 1.754 2.383 1.5 4.478 3.132 5.896 4.598 1.416 1.464 1.551 2.139 1.566 2.27-.129.05-.698.246-2.725-.43zm15.335-12.445c-.026.038-.237.18-.838.18-.53 0-1.504-.114-3.124-.651-2.595-.865-5.786-2.451-8.986-4.466-.461-.288-.914-.593-1.375-.904 1.302-1.333 2.636-2.64 3.968-3.886.102.063.203.125.305.189 3.198 2.012 6.01 4.205 7.912 6.17 1.927 1.992 2.274 3.147 2.138 3.368zm9.302-14.271s-.115.074-.473.074c-.38 0-1.086-.084-2.287-.483-1.928-.643-4.305-1.823-6.694-3.328-.048-.03-.095-.06-.141-.09 1.111-.808 2.206-1.568 3.263-2.258 4.802 3.242 6.465 5.784 6.332 6.085z" fill="#5d0000"/>
  </g>
 </g>
</svg>
