<svg width="32" height="29" version="1.1" viewBox="0 0 8.4667 7.6729" xmlns="http://www.w3.org/2000/svg">
 <g stroke-linejoin="round">
  <path d="m4.2371 0.79 3.4314 6.0854h-6.871z" fill="#ff0000" stroke="#ffff00" stroke-dashoffset=".18" stroke-linecap="round" stroke-width="1.5875"/>
  <path d="m4.2371 0.79 3.4314 6.0854h-6.871z" fill="#ff0000" stroke="#ff0000" stroke-dashoffset=".18" stroke-linecap="round" stroke-width="1.0583"/>
  <path d="m2.8728 4.8615a0.098135 0.098135 0 0 0-0.068931 0.026113c-0.11655 0.10491-0.18836 0.26746-0.20623 0.44471-0.017878 0.17725 0.021589 0.37321 0.14923 0.5325a0.098135 0.098135 0 1 0 0.15315-0.12272c-0.090778-0.11329-0.12068-0.25562-0.10712-0.39009 0.013563-0.13447 0.074017-0.25709 0.14229-0.31854a0.098135 0.098135 0 0 0-0.062382-0.17198zm-0.017834-0.38346v0.00106c-0.19319 0.0056929-0.36101 0.12018-0.47338 0.28166-0.11525 0.16562-0.18114 0.38356-0.18114 0.62181 0 0.23826 0.065888 0.4562 0.18114 0.62183 0.11525 0.16562 0.28862 0.28272 0.4881 0.28272 0.00102 0 0.00201-2.115e-4 0.00304-2.115e-4v2.115e-4h2.7497v-0.00187c0.18862-0.0095638 0.35237-0.1224 0.46263-0.28085 0.11525-0.16562 0.18114-0.38357 0.18114-0.62183s-0.065889-0.45619-0.18114-0.62181c-0.11374-0.16346-0.28422-0.27915-0.48041-0.28216v-5.593e-4h-2.7349zm0.014724 0.26167c0.097871-4e-7 0.19372 0.056102 0.27333 0.17051 0.079611 0.1144 0.13425 0.28331 0.13425 0.47236s-0.054641 0.35797-0.13425 0.47237c-0.079611 0.1144-0.17545 0.17051-0.27333 0.17051-0.097871 0-0.1937-0.056103-0.27331-0.17051-0.07961-0.1144-0.13427-0.28332-0.13427-0.47237-1e-7 -0.18905 0.054657-0.35795 0.13427-0.47236 0.079611-0.1144 0.17544-0.17051 0.27331-0.17051zm2.8324 0.0029a0.098135 0.098135 0 0 1 0.099611 0.099515s-0.0081 0.039017-0.0081 0.039018c0 0-0.016002 0.025393-0.016002 0.025394-1.2e-6 1.5e-6 -0.025437 0.02084-0.02544 0.020842-4.1e-6 2.1e-6 -0.010531 0.00527-0.013991 0.00659s-0.00604 0.00206-0.00816 0.00267c-0.00853 0.00239-0.011208 0.00251-0.013785 0.00284-0.00514 7.02e-4 -0.00744 8.003e-4 -0.010779 0.00102-0.0067 4.222e-4 -0.015965 8.002e-4 -0.033907 0.00129-0.03588 9.7e-4 -0.10557 0.00223-0.24466 0.00349-0.27817 0.00252-0.83348 0.00504-1.944 0.00504a0.098135 0.098135 0 1 1 0-0.19625c1.1102 0 1.6652-0.00251 1.9422-0.00502 0.13849-0.00125 0.2076-0.00253 0.24111-0.00342 0.00989-2.567e-4 0.011452-3.939e-4 0.015828-5.823e-4a0.098135 0.098135 0 0 1 0.020043-0.00243zm0.18039 0.41021a0.098135 0.098135 0 0 1 0.099595 0.099515l-0.00808 0.039001c0 2e-7 -0.01602 0.02541-0.01602 0.02541-1.1e-6 1.2e-6 -0.025421 0.020825-0.025426 0.020826-4.1e-6 2.3e-6 -0.010549 0.00527-0.014007 0.00659-0.00346 0.00132-0.00602 0.00208-0.00814 0.00269-0.00853 0.00239-0.011208 0.00251-0.013783 0.00284-0.00514 7.02e-4 -0.00745 7.846e-4 -0.010796 0.00102-0.0067 4.224e-4 -0.015951 8.238e-4 -0.033891 0.00132-0.03588 9.699e-4 -0.10557 0.00223-0.24466 0.00349-0.27817 0.00252-0.83348 0.00504-1.944 0.00504a0.098135 0.098135 0 1 1 0-0.19625c1.1102 0 1.6652-0.00253 1.9422-0.00504 0.13849-0.00125 0.2076-0.00251 0.24111-0.00341 0.00989-2.641e-4 0.01145-3.853e-4 0.015829-5.737e-4a0.098135 0.098135 0 0 1 0.02006-0.00242z" color="#000000" color-rendering="auto" fill="none" image-rendering="auto" shape-rendering="auto" solid-color="#000000" stop-color="#000000" stroke="#ffff00" stroke-width="1.0628" style="font-variation-settings:normal" isolation="auto" mix-blend-mode="normal" shape-padding="0" white-space="normal"/>
 </g>
 <path d="m2.8728 4.8615a0.098135 0.098135 0 0 0-0.068931 0.026113c-0.11655 0.10491-0.18836 0.26746-0.20623 0.44471-0.017878 0.17725 0.021589 0.37321 0.14923 0.5325a0.098135 0.098135 0 1 0 0.15315-0.12272c-0.090778-0.11329-0.12068-0.25562-0.10712-0.39009 0.013563-0.13447 0.074017-0.25709 0.14229-0.31854a0.098135 0.098135 0 0 0-0.062382-0.17198zm-0.017834-0.38346v0.00106c-0.19319 0.0056929-0.36101 0.12018-0.47338 0.28166-0.11525 0.16562-0.18114 0.38356-0.18114 0.62181 0 0.23826 0.065888 0.4562 0.18114 0.62183 0.11525 0.16562 0.28862 0.28272 0.4881 0.28272 0.00102 0 0.00201-2.115e-4 0.00304-2.115e-4v2.115e-4h2.7497v-0.00187c0.18862-0.0095638 0.35237-0.1224 0.46263-0.28085 0.11525-0.16562 0.18114-0.38357 0.18114-0.62183s-0.065889-0.45619-0.18114-0.62181c-0.11374-0.16346-0.28422-0.27915-0.48041-0.28216v-5.593e-4h-2.7349zm0.014724 0.26167c0.097871-4e-7 0.19372 0.056102 0.27333 0.17051 0.079611 0.1144 0.13425 0.28331 0.13425 0.47236s-0.054641 0.35797-0.13425 0.47237c-0.079611 0.1144-0.17545 0.17051-0.27333 0.17051-0.097871 0-0.1937-0.056103-0.27331-0.17051-0.07961-0.1144-0.13427-0.28332-0.13427-0.47237-1e-7 -0.18905 0.054657-0.35795 0.13427-0.47236 0.079611-0.1144 0.17544-0.17051 0.27331-0.17051zm2.8324 0.0029a0.098135 0.098135 0 0 1 0.099611 0.099515s-0.0081 0.039017-0.0081 0.039018c0 0-0.016002 0.025393-0.016002 0.025394-1.2e-6 1.5e-6 -0.025437 0.02084-0.02544 0.020842-4.1e-6 2.1e-6 -0.010531 0.00527-0.013991 0.00659s-0.00604 0.00206-0.00816 0.00267c-0.00853 0.00239-0.011208 0.00251-0.013785 0.00284-0.00514 7.02e-4 -0.00744 8.003e-4 -0.010779 0.00102-0.0067 4.222e-4 -0.015965 8.002e-4 -0.033907 0.00129-0.03588 9.7e-4 -0.10557 0.00223-0.24466 0.00349-0.27817 0.00252-0.83348 0.00504-1.944 0.00504a0.098135 0.098135 0 1 1 0-0.19625c1.1102 0 1.6652-0.00251 1.9422-0.00502 0.13849-0.00125 0.2076-0.00253 0.24111-0.00342 0.00989-2.567e-4 0.011452-3.939e-4 0.015828-5.823e-4a0.098135 0.098135 0 0 1 0.020043-0.00243zm0.18039 0.41021a0.098135 0.098135 0 0 1 0.099595 0.099515l-0.00808 0.039001c0 2e-7 -0.01602 0.02541-0.01602 0.02541-1.1e-6 1.2e-6 -0.025421 0.020825-0.025426 0.020826-4.1e-6 2.3e-6 -0.010549 0.00527-0.014007 0.00659-0.00346 0.00132-0.00602 0.00208-0.00814 0.00269-0.00853 0.00239-0.011208 0.00251-0.013783 0.00284-0.00514 7.02e-4 -0.00745 7.846e-4 -0.010796 0.00102-0.0067 4.224e-4 -0.015951 8.238e-4 -0.033891 0.00132-0.03588 9.699e-4 -0.10557 0.00223-0.24466 0.00349-0.27817 0.00252-0.83348 0.00504-1.944 0.00504a0.098135 0.098135 0 1 1 0-0.19625c1.1102 0 1.6652-0.00253 1.9422-0.00504 0.13849-0.00125 0.2076-0.00251 0.24111-0.00341 0.00989-2.641e-4 0.01145-3.853e-4 0.015829-5.737e-4a0.098135 0.098135 0 0 1 0.02006-0.00242z" color="#000000" color-rendering="auto" fill="#ff0000" image-rendering="auto" shape-rendering="auto" solid-color="#000000" stop-color="#000000" stroke-width=".0081771" style="-inkscape-stroke:none;font-variation-settings:normal" isolation="auto" mix-blend-mode="normal" shape-padding="0" white-space="normal"/>
</svg>
