<svg style="enable-background:new 0 0 48 48" version="1.1" viewBox="0 0 48 48" xml:space="preserve" xmlns="http://www.w3.org/2000/svg">
<path d="m17.2 4-2.7 0.1c-11.1 6.4 9 7.4-3.4 15h2.4c11.6-8.2-8.6-8.7 3.7-15.1zm9.9 0-2.7 0.1c-11.1 6.4 9 7.4-3.4 15h2.4c11.7-8.2-8.6-8.7 3.7-15.1zm9.9 0-2.7 0.1c-11.1 6.4 9 7.4-3.4 15h2.4c11.7-8.2-8.5-8.7 3.7-15.1zm-28.4 18.8v21.2h4.2v-5h22.5v5h4.2v-21.2zm4.1 3.5h22.5v8.8h-22.4v-4.3zm4.4 1.8c-1.4 0-2.6 1.1-2.6 2.6 0 1.4 1.1 2.6 2.6 2.6s2.6-1.1 2.6-2.6c0-1.4-1.1-2.6-2.6-2.6zm6.9 0c-1.4 0-2.6 1.1-2.6 2.6 0 1.4 1.1 2.6 2.6 2.6s2.6-1.1 2.6-2.6-1.2-2.6-2.6-2.6zm6.9 0.1c-1.4 0-2.6 1.1-2.6 2.6s1.1 2.6 2.6 2.6c1.4 0 2.6-1.1 2.6-2.6-0.1-1.5-1.2-2.6-2.6-2.6z" style="fill:#743a00"/>
</svg>
