<svg width="34" height="34" version="1.1" viewBox="0 0 8.9958 8.9958" xmlns="http://www.w3.org/2000/svg">
 <circle cx="4.4979" cy="4.4979" r="4.2062" fill="#12ef12" stroke="#00dc00" stroke-width=".52533"/>
 <path d="m2.3734 6.7518c-0.23213 0.003627-0.44068-0.16865-0.6456-0.17047-0.20674-0.003627-0.43524 0.12694-0.57669 0.15596-0.13964 0.025389-0.22669 0.029016-0.25933 0.0072541v0.48057c0.032643 0.019948 0.1215 0.018135 0.25933-0.00725 0.13964-0.029016 0.36995-0.15959 0.57669-0.15596 0.20492 0.00181 0.41347 0.17409 0.6456 0.17047 0.23031-0.00907 0.48601-0.19586 0.72177-0.19948 0.2285-0.00907 0.43342 0.15959 0.66374 0.16321 0.23394 0.00181 0.47151-0.15233 0.72177-0.14871 0.24663 0.00363 0.49871 0.17228 0.74353 0.17047 0.24845-0.00544 0.48239-0.18498 0.74172-0.18679 0.25933-0.00181 0.54405 0.17409 0.79793 0.17953 0.25026 0 0.50778-0.16503 0.68912-0.17047 0.17954-0.00725 0.27746 0.10881 0.38083 0.13238 0.107 0.023575 0.18679 0.025389 0.25026 0.00725v-0.48057c-0.061658 0.019948-0.14327 0.016321-0.25026-0.007254-0.107-0.025389-0.20674-0.13964-0.38083-0.13238-0.18135 0.0072538-0.44249 0.17047-0.68912 0.17047-0.25389-0.0054405-0.53861-0.17772-0.79793-0.17772-0.25751 0.0018145-0.48964 0.18135-0.74172 0.18679-0.25207 0.0018126-0.50415-0.16684-0.74353-0.17047-0.25026-0.0072538-0.48783 0.14871-0.72177 0.14689-0.22306-0.003627-0.42254-0.15959-0.64197-0.16321-0.29767-0.0065516-0.49541 0.18329-0.74353 0.19948z" fill="none" opacity=".8" stop-color="#000000" stroke="#00dc00" stroke-linecap="round" stroke-linejoin="round" stroke-width=".69944" style="-inkscape-stroke:none;font-variation-settings:normal;paint-order:stroke fill markers"/>
 <path d="m2.3934 7.5497c-0.23213 0.0036269-0.44068-0.16865-0.6456-0.17047-0.20674-0.003627-0.43524 0.12694-0.57669 0.15596-0.13964 0.029016-0.22669 0.027202-0.25933 0.0072539v0.48057c0.032643 0.019948 0.1215 0.019948 0.25933-0.007254 0.13964-0.029016 0.36995-0.15959 0.57669-0.15596 0.20492 0.0018144 0.41347 0.17409 0.6456 0.17047 0.23031-0.010881 0.48601-0.19223 0.72177-0.19948 0.2285-0.00725 0.43342 0.15777 0.66374 0.16321 0.23394 0.00181 0.47151-0.15415 0.72177-0.14689 0.24663 0.00363 0.49871 0.17228 0.74353 0.17047 0.24845-0.00544 0.48239-0.18498 0.74172-0.18679 0.25933 0 0.54405 0.17228 0.79793 0.17772 0.25026 0 0.50778-0.16503 0.68912-0.17047 0.17954-0.00725 0.27746 0.10881 0.38083 0.13238 0.107 0.023576 0.18679 0.025389 0.25026 0.00725v-0.48057c-0.061658 0.016321-0.14327 0.014508-0.25026-0.0072538-0.107-0.023575-0.20674-0.13964-0.38083-0.13238-0.18135 0.007254-0.44249 0.17047-0.68912 0.17047-0.25389-0.0054403-0.53861-0.17772-0.79793-0.17772-0.25751 0.0018125-0.48964 0.18135-0.74172 0.18679-0.25207 0.0018125-0.50415-0.16684-0.74353-0.17047-0.25026-0.0072539-0.48783 0.14871-0.72177 0.14689-0.22306-0.003627-0.42254-0.15959-0.64197-0.16321-0.29767-0.0065519-0.49541 0.18329-0.74353 0.19948z" fill="none" opacity=".8" stop-color="#000000" stroke="#00dc00" stroke-linecap="round" stroke-linejoin="round" stroke-width=".69944" style="-inkscape-stroke:none;font-variation-settings:normal;paint-order:stroke fill markers"/>
 <path d="m4.7286 0.95641c-0.54691 1.67e-6 -1.0636 0.1309-1.5209 0.36285 0.24442 0.036077 0.70626 0.12118 1.3034 0.31356 0.45205 0.14564 0.73838 0.30573 0.91408 0.43341 0.04356 0.031655 0.08076 0.0621 0.11217 0.090037l0.73494-0.55074c0.099318-0.074453 0.086043-0.22728-0.024626-0.28349-0.47078-0.23908-0.99085-0.36432-1.5186-0.36563h-4.494e-4zm-2.0181 0.5057c-0.16209-0.00179-0.2647 0.1733-0.18392 0.31384-0.00174 0.0015-0.00342 0.00308-0.00515 0.00458l0.014195 0.00303-0.026263 0.12289c3e-7 0-0.12007 0.5584-0.10296 1.4732 0.00845 0.45208 0.075348 0.74541 0.137 0.92226 0.010182 0.029208 0.019728 0.053755 0.028922 0.076333l1.222-0.89459 2.1967 2.7528c0.071584 0.09234 0.25183 0.051916 0.34316-0.020958 0.091325-0.072875 0.10538-0.20638 0.031225-0.29667l-2.1888-2.7429 1.1549-0.86544c-0.016167-0.012788-0.033936-0.026392-0.05408-0.04103-0.15151-0.1101-0.41301-0.25884-0.84339-0.3975-0.87092-0.2806-1.4402-0.32693-1.4402-0.32693l-0.12526-0.010309 0.00155-0.018981c-0.00438 0.0029-0.00881 0.00571-0.013172 0.00863-0.038712-0.039241-0.091331-0.061641-0.14645-0.062343zm-0.48238 0.60535c-0.54644 0.60251-0.88 1.4026-0.88 2.2799v3.695e-4c4.309e-4 0.2025 0.018973 0.40456 0.055348 0.60375 0.022387 0.12241 0.16568 0.17858 0.26528 0.10399l0.69804-0.52312c-0.019798-0.04133-0.04064-0.089917-0.060748-0.14759-0.071495-0.20509-0.14207-0.52546-0.15095-1.0003-0.011366-0.60782 0.03718-1.0665 0.07302-1.3169z" color="#000000" color-rendering="auto" fill="none" image-rendering="auto" opacity=".8" shape-rendering="auto" solid-color="#000000" stop-color="#000000" stroke="#00dc00" stroke-linecap="round" stroke-linejoin="round" stroke-width=".69944" style="-inkscape-stroke:none;font-variation-settings:normal;paint-order:stroke fill markers" isolation="auto" mix-blend-mode="normal" white-space="normal"/>
 <path d="m2.3734 6.7518c-0.23213 0.003627-0.44068-0.16865-0.6456-0.17047-0.20674-0.003627-0.43524 0.12694-0.57669 0.15596-0.13964 0.025389-0.22669 0.029016-0.25933 0.0072541v0.48057c0.032643 0.019948 0.1215 0.018135 0.25933-0.00725 0.13964-0.029016 0.36995-0.15959 0.57669-0.15596 0.20492 0.00181 0.41347 0.17409 0.6456 0.17047 0.23031-0.00907 0.48601-0.19586 0.72177-0.19948 0.2285-0.00907 0.43342 0.15959 0.66374 0.16321 0.23394 0.00181 0.47151-0.15233 0.72177-0.14871 0.24663 0.00363 0.49871 0.17228 0.74353 0.17047 0.24845-0.00544 0.48239-0.18498 0.74172-0.18679 0.25933-0.00181 0.54405 0.17409 0.79793 0.17953 0.25026 0 0.50778-0.16503 0.68912-0.17047 0.17954-0.00725 0.27746 0.10881 0.38083 0.13238 0.107 0.023575 0.18679 0.025389 0.25026 0.00725v-0.48057c-0.061658 0.019948-0.14327 0.016321-0.25026-0.007254-0.107-0.025389-0.20674-0.13964-0.38083-0.13238-0.18135 0.0072538-0.44249 0.17047-0.68912 0.17047-0.25389-0.0054405-0.53861-0.17772-0.79793-0.17772-0.25751 0.0018145-0.48964 0.18135-0.74172 0.18679-0.25207 0.0018126-0.50415-0.16684-0.74353-0.17047-0.25026-0.0072538-0.48783 0.14871-0.72177 0.14689-0.22306-0.003627-0.42254-0.15959-0.64197-0.16321-0.29767-0.0065516-0.49541 0.18329-0.74353 0.19948z" fill="#004900" stop-color="#000000" style="-inkscape-stroke:none;font-variation-settings:normal"/>
 <path d="m2.3934 7.5497c-0.23213 0.0036269-0.44068-0.16865-0.6456-0.17047-0.20674-0.003627-0.43524 0.12694-0.57669 0.15596-0.13964 0.029016-0.22669 0.027202-0.25933 0.0072539v0.48057c0.032643 0.019948 0.1215 0.019948 0.25933-0.007254 0.13964-0.029016 0.36995-0.15959 0.57669-0.15596 0.20492 0.0018144 0.41347 0.17409 0.6456 0.17047 0.23031-0.010881 0.48601-0.19223 0.72177-0.19948 0.2285-0.00725 0.43342 0.15777 0.66374 0.16321 0.23394 0.00181 0.47151-0.15415 0.72177-0.14689 0.24663 0.00363 0.49871 0.17228 0.74353 0.17047 0.24845-0.00544 0.48239-0.18498 0.74172-0.18679 0.25933 0 0.54405 0.17228 0.79793 0.17772 0.25026 0 0.50778-0.16503 0.68912-0.17047 0.17954-0.00725 0.27746 0.10881 0.38083 0.13238 0.107 0.023576 0.18679 0.025389 0.25026 0.00725v-0.48057c-0.061658 0.016321-0.14327 0.014508-0.25026-0.0072538-0.107-0.023575-0.20674-0.13964-0.38083-0.13238-0.18135 0.007254-0.44249 0.17047-0.68912 0.17047-0.25389-0.0054403-0.53861-0.17772-0.79793-0.17772-0.25751 0.0018125-0.48964 0.18135-0.74172 0.18679-0.25207 0.0018125-0.50415-0.16684-0.74353-0.17047-0.25026-0.0072539-0.48783 0.14871-0.72177 0.14689-0.22306-0.003627-0.42254-0.15959-0.64197-0.16321-0.29767-0.0065519-0.49541 0.18329-0.74353 0.19948z" fill="#004900" stop-color="#000000" style="-inkscape-stroke:none;font-variation-settings:normal"/>
 <path d="m4.7286 0.95641c-0.54691 1.67e-6 -1.0636 0.1309-1.5209 0.36285 0.24442 0.036077 0.70626 0.12118 1.3034 0.31356 0.45205 0.14564 0.73838 0.30573 0.91408 0.43341 0.04356 0.031655 0.08076 0.0621 0.11217 0.090037l0.73494-0.55074c0.099318-0.074453 0.086043-0.22728-0.024626-0.28349-0.47078-0.23908-0.99085-0.36432-1.5186-0.36563h-4.494e-4zm-2.0181 0.5057c-0.16209-0.00179-0.2647 0.1733-0.18392 0.31384-0.00174 0.0015-0.00342 0.00308-0.00515 0.00458l0.014195 0.00303-0.026263 0.12289c3e-7 0-0.12007 0.5584-0.10296 1.4732 0.00845 0.45208 0.075348 0.74541 0.137 0.92226 0.010182 0.029208 0.019728 0.053755 0.028922 0.076333l1.222-0.89459 2.1967 2.7528c0.071584 0.09234 0.25183 0.051916 0.34316-0.020958 0.091325-0.072875 0.10538-0.20638 0.031225-0.29667l-2.1888-2.7429 1.1549-0.86544c-0.016167-0.012788-0.033936-0.026392-0.05408-0.04103-0.15151-0.1101-0.41301-0.25884-0.84339-0.3975-0.87092-0.2806-1.4402-0.32693-1.4402-0.32693l-0.12526-0.010309 0.00155-0.018981c-0.00438 0.0029-0.00881 0.00571-0.013172 0.00863-0.038712-0.039241-0.091331-0.061641-0.14645-0.062343zm-0.48238 0.60535c-0.54644 0.60251-0.88 1.4026-0.88 2.2799v3.695e-4c4.309e-4 0.2025 0.018973 0.40456 0.055348 0.60375 0.022387 0.12241 0.16568 0.17858 0.26528 0.10399l0.69804-0.52312c-0.019798-0.04133-0.04064-0.089917-0.060748-0.14759-0.071495-0.20509-0.14207-0.52546-0.15095-1.0003-0.011366-0.60782 0.03718-1.0665 0.07302-1.3169z" color="#000000" color-rendering="auto" fill="#004900" image-rendering="auto" shape-rendering="auto" solid-color="#000000" stop-color="#000000" style="-inkscape-stroke:none;font-variation-settings:normal" isolation="auto" mix-blend-mode="normal" white-space="normal"/>
</svg>
