<svg height="28" viewBox="0 0 7.4083 7.4083" width="28" xmlns="http://www.w3.org/2000/svg">
 <rect fill="#0042e8" height="6.8792" rx="1.0583" stroke="#ffffff" stroke-width=".52917" width="6.8792" x=".26455" y=".2697"/>
 <rect fill="#0042e8" height="6.8792" rx="1.0583" width="6.8792" x=".26455" y=".2697"/>
 <g fill="#fcec00">
  <path clip-rule="evenodd" d="m4.412861 3.2891161-.018837.2589974.423814.00118c.18483.037672-.102422.125967-.1294987.2236796-.018837.1106626.028254.2107298.0518.3013789l-1.930708.00942-.1141944-.2790109c.1224352-.028254.4214596-.09889.4591319-.1389169.048268-.044735 0-.1106626-.037672-.1106626h-1.0006723c.01295.2213206.1860072.2695882.2801882.2825382l.1106625.27077c-.125967.2354522-.2472248.4355867-.3649509.6592663-.9771268-.2825427-1.4362586.4544228-1.44803121.9888993 0 .5886306.47090441 1.059535 1.05953491 1.059535.5486037 0 1.0006721-.4202822 1.0595351-.9535815h.2531111c.028254.0518.075345.094181.1330305.1212579l-.1059535.2472249-.1907163.00118c-.1059535.014127-.078876.1459804.00118.1471576l.423814-.00353c.108308-.01295.080054-.1471576-.00118-.1471576l-.121258.00118.093004-.216616c.2707698.0223606.3731915-.1836601.3414055-.3237542l1.3185325-.8947185c.011772.040027.022368.078876.034141.1165489-.2413386.1942481-.3967371.4920952-.3967371.8240828 0 .5886306.4709045 1.059535 1.0595351 1.059535s1.059535-.4709044 1.059535-1.059535c-.0353182-.6710389-.5639084-1.2243516-1.4598042-.9771267-.1177261-.2813654-.2578202-.7181293-.2695928-.8829459.0200134-.1141943.1883618-.1236125.216616-.2707701-.0200134-.2813654-.2507565-.3261013-.4838543-.3249241-.1071307 0-.2154387.00942-.3049106.00942zm.4661954 1.2620239h-.00118c-.4426474.3166832-.8829431.6345437-1.342075.9300363l.090649-.2071979c.084763-.00236.0777-.00118.1765892-.00707.108308-.020013.070635-.1459804.00118-.1459804l-.4238139.00353c-.1083081.01295-.080054.1471576.00118.1471576l.1212578-.00118-.090648.2107298c-.00824-.00236-.017659-.00353-.0259-.00471l-.4697334-1.1537041c.4355867 0 1.2243515-.00236 1.8948018-.00471.020602.071813.04297.1506894.067693.2330968zm-1.7623599 1.0171536c-.016481.016482-.030609.035318-.042381.055331h-.2589979c-.0400268-.3025558-.2048434-.5615533-.4355866-.7263698l.2672383-.4944498zm3.2986857.1718802c.00118.4202822-.3366967.753447-.7522698.753447l.00236.00471c-.6922351-.0364959-.9535871-.694585-.5650909-1.2596702.049445.1789436.1294987.3708372.2589975.4897406l.00236.00236c.3826043.3484637.6239429.0600348.1801154-.2142671-.0941809-.1318532-.1471576-.2943152-.1977798-.4591318.1247896-.0576858.2413385-.0824082.3520011-.081231.4249912.0023545.7075339.3979143.7193065.7640425zm-4.3935386-.6886978-.3414058.6345437c-.043559.080054.015304.1765892.1059536.1765892h.73932c-.050622.3708373-.364951.6592662-.7510926.6592662-.4202823 0-.7534471-.3366967-.7534471-.7534471-.00118-.4120413.2754791-.7534471.7299019-.7546244.084763-.00118.1742346.011772.27077.037672zm.4897407.5803898h-.5285903l.2472248-.4591319c.1448031.1118398.2472248.2743019.2813655.4591319z"/>
  <path d="m4.3920434.70885032c-.3910502 0-.7087822.31846488-.7087822.70951518v.2360163h-2.75816673c-.0124537 0-.0246943-.00105-.0366492-.00293v.02712c-.00000311.046529.00000038.093469 0 .1399979v.145861.1465941.015392c.0121406.0006271.024368.0007331.0366492.0007331h2.75816673v.2367493c0 .3910503.317732.7087821.7087822.7087821h.9455317c.1305727-.00002.2367494-.1055271.2367494-.2360223v-.2367454h.7087821c.1305869.0000141.2367494-.1054357.2367494-.2360165 0-.1305869-.1061693-.2367494-.2367494-.2367494h-.7087821v-.4727659h.7087821c.1305869 0 .2367494-.1054355.2367494-.2360163 0-.130587-.1061693-.2367494-.2367494-.2367494h-.7087821v-.23674931c0-.13058695-.1061694-.23601647-.2367494-.23601647z"/>
 </g>
</svg>
