<svg width="34" height="34" version="1.1" viewBox="0 0 8.9958 8.9958" xmlns="http://www.w3.org/2000/svg">
 <g transform="translate(-.51412 -287.3)">
  <circle cx="5.006" cy="291.79" r="4.2256" fill="#ffc400" stroke="#f2b800" stroke-width=".52826"/>
  <g transform="translate(-.019299 -.077197)" stroke-linecap="round">
   <g stroke-linejoin="round">
    <path d="m4.8174 288.22c-.65497.0142-1.2995.059-1.9301.27154l.073104 5.6495-.00508 5e-5c-.23278.14775-.36597.40111-.36419.58601.00503.52086 1.0849.93324 2.4114.92087 1.3265-.0123 2.397-.4448 2.392-.96565-.00159-.16342-.10934-.39552-.2969-.5278l-.046852-.033.03487-5.6691c-.76968-.20744-1.526-.2485-2.2683-.2324z" fill="none" stroke="#f2b800" stroke-width="1.0583"/>
    <path d="m7.1583 289.68 1.4086-.0635c.24587.0462.37261.18812.3821.4243l-.3415 2.8495c-.01053.22588-.15789.3194-.35991.36007l-1.0515.12688" fill="none" stroke="#f2b800" stroke-width="1.0583"/>
    <path d="m4.8174 288.22c-.65497.0142-1.2995.059-1.9301.27154l.073104 5.6495-.00508 5e-5c-.23278.14775-.36597.40111-.36419.58601.00503.52086 1.0849.93324 2.4114.92087 1.3265-.0123 2.397-.4448 2.392-.96565-.00159-.16342-.10934-.39552-.2969-.5278l-.046852-.033.03487-5.6691c-.76968-.20744-1.526-.2485-2.2683-.2324z" fill="#5d0000" stroke="#5d0000" stroke-width=".52917"/>
   </g>
   <g fill="none">
    <g stroke-linejoin="round">
     <path d="m2.9619 288.83c.43758.24224 1.3112.30827 2.0411.29845.70996-.01 1.5917-.0845 1.988-.29682" stroke="#ffc400" stroke-width=".39688"/>
     <path d="m2.9914 294.09c.44181.52564 1.3239.66892 2.0609.6476.71682-.0207 1.6071-.18324 2.0073-.64407" stroke="#ffc400" stroke-width=".39688"/>
     <path d="m7.1583 289.68 1.4086-.0635c.24587.0462.37261.18812.3821.4243l-.3415 2.8495c-.01053.22588-.15789.3194-.35991.36007l-1.0515.12688" stroke="#5d0000" stroke-width=".52917"/>
    </g>
    <g stroke="#ffc400" stroke-width=".52917">
     <path d="m5.0015 290.52c0 .0819.011695 3.1922.011695 3.1922"/>
     <path d="m6.2888 290.23c0 .0819.011695 3.1922.011695 3.1922"/>
     <path d="m3.6894 290.24c0 .0819.011695 3.1922.011695 3.1922"/>
    </g>
   </g>
  </g>
 </g>
</svg>
