<svg height="28" viewBox="0 0 7.4083 7.4083" width="28" xmlns="http://www.w3.org/2000/svg">
 <rect fill="#0042e8" height="6.8792" rx="1.0583" stroke="#ffffff" stroke-width=".52917" width="6.8792" x=".26455" y=".2697"/>
 <rect fill="#0042e8" height="6.8792" rx="1.0583" width="6.8792" x=".26455" y=".2697"/>
 <g fill="#fcec00">
  <path clip-rule="evenodd" d="m4.412861 3.2891161-.018837.2589974.423814.00118c.18483.037672-.102422.125967-.1294987.2236796-.018837.1106626.028254.2107298.0518.3013789l-1.930708.00942-.1141944-.2790109c.1224352-.028254.4214596-.09889.4591319-.1389169.048268-.044735 0-.1106626-.037672-.1106626h-1.0006723c.01295.2213206.1860072.2695882.2801882.2825382l.1106625.27077c-.125967.2354522-.2472248.4355867-.3649509.6592663-.9771268-.2825427-1.4362586.4544228-1.44803121.9888993 0 .5886306.47090441 1.059535 1.05953491 1.059535.5486037 0 1.0006721-.4202822 1.0595351-.9535815h.2531111c.028254.0518.075345.094181.1330305.1212579l-.1059535.2472249-.1907163.00118c-.1059535.014127-.078876.1459804.00118.1471576l.423814-.00353c.108308-.01295.080054-.1471576-.00118-.1471576l-.121258.00118.093004-.216616c.2707698.0223606.3731915-.1836601.3414055-.3237542l1.3185325-.8947185c.011772.040027.022368.078876.034141.1165489-.2413386.1942481-.3967371.4920952-.3967371.8240828 0 .5886306.4709045 1.059535 1.0595351 1.059535s1.059535-.4709044 1.059535-1.059535c-.0353182-.6710389-.5639084-1.2243516-1.4598042-.9771267-.1177261-.2813654-.2578202-.7181293-.2695928-.8829459.0200134-.1141943.1883618-.1236125.216616-.2707701-.0200134-.2813654-.2507565-.3261013-.4838543-.3249241-.1071307 0-.2154387.00942-.3049106.00942zm.4661954 1.2620239h-.00118c-.4426474.3166832-.8829431.6345437-1.342075.9300363l.090649-.2071979c.084763-.00236.0777-.00118.1765892-.00707.108308-.020013.070635-.1459804.00118-.1459804l-.4238139.00353c-.1083081.01295-.080054.1471576.00118.1471576l.1212578-.00118-.090648.2107298c-.00824-.00236-.017659-.00353-.0259-.00471l-.4697334-1.1537041c.4355867 0 1.2243515-.00236 1.8948018-.00471.020602.071813.04297.1506894.067693.2330968zm-1.7623599 1.0171536c-.016481.016482-.030609.035318-.042381.055331h-.2589979c-.0400268-.3025558-.2048434-.5615533-.4355866-.7263698l.2672383-.4944498zm3.2986857.1718802c.00118.4202822-.3366967.753447-.7522698.753447l.00236.00471c-.6922351-.0364959-.9535871-.694585-.5650909-1.2596702.049445.1789436.1294987.3708372.2589975.4897406l.00236.00236c.3826043.3484637.6239429.0600348.1801154-.2142671-.0941809-.1318532-.1471576-.2943152-.1977798-.4591318.1247896-.0576858.2413385-.0824082.3520011-.081231.4249912.0023545.7075339.3979143.7193065.7640425zm-4.3935386-.6886978-.3414058.6345437c-.043559.080054.015304.1765892.1059536.1765892h.73932c-.050622.3708373-.364951.6592662-.7510926.6592662-.4202823 0-.7534471-.3366967-.7534471-.7534471-.00118-.4120413.2754791-.7534471.7299019-.7546244.084763-.00118.1742346.011772.27077.037672zm.4897407.5803898h-.5285903l.2472248-.4591319c.1448031.1118398.2472248.2743019.2813655.4591319z"/>
  <path d="m4.3463236.70885032c-.3650597 0-.6616742.29729868-.6616742.66235838v.22033h-2.5748499c-.011626 0-.023053-.0009807-.034213-.00274v.025317c-.0000029.043436.0000004.087257 0 .1306932v.1361666.1368509.014369c.011334.0005854.022748.0006843.034213.0006843h2.5748499v.2210142c0 .3650597.2966145.6616741.6616742.6616741h.8826885c.1218944-.0000135.2210142-.0985082.2210142-.2203302v-.2210106h.6616741c.1219077.0000132.2210143-.098428.2210143-.22033 0-.1219077-.099113-.2210142-.2210143-.2210142h-.6616741v-.4413443h.6616741c.1219077 0 .2210143-.098428.2210143-.22033 0-.1219077-.099113-.2210142-.2210143-.2210142h-.6616741v-.22101415c0-.1219077-.099113-.22033003-.2210142-.22033003z"/>
  <circle cx="1.33963" cy="3.108953" r=".745643" stroke-width="1.00012"/>
 </g>
 <path clip-rule="evenodd" d="m1.3422049 2.2948843c-.45325559 0-.82072419.3674682-.82072419.8207241 0 .4532557.3674686.8207236.82072419.8207236.4532558 0 .8207236-.3674679.8207236-.8207236 0-.4532559-.3674678-.8207241-.8207236-.8207241zm.2357471 1.1442852c-.035802.043567-.08241.072953-.1367878.087813-.023639.0064-.034449.018915-.033095.043567.001.024319 0 .048299-.000338.072615 0 .021613-.01114.033095-.032423.033777-.01385.0003392-.027699.0006663-.04154.0006663-.01216 0-.024318 0-.036475-.0003391-.022967-.0003386-.033777-.013509-.033777-.035802-.000338-.017561-.000338-.035462-.000338-.053023-.0003378-.039174-.00166-.040528-.039181-.046606-.047957-.00778-.095245-.018574-.1391517-.039853-.034449-.016888-.038169-.025332-.028371-.061808.00743-.027019.014863-.054036.023306-.080722.00606-.019587.011824-.028371.022293-.028371.00606 0 .01385.00307.024318.00844.04864.025332.1003105.039515.1546883.046273.00911.001.018235.00166.027357.00166.025332 0 .049984-.00473.073968-.015196.060456-.026345.069914-.096258.018914-.1381387-.017229-.01418-.037156-.02465-.057757-.033774-.0530248-.0233006-.1080798-.040861-.1580658-.0709204-.0810598-.0486324-.1323957-.1151715-.1263174-.2137931.00676-.1114566.069914-.1810325.1722512-.2181845.042221-.015203.042553-.014863.042553-.058769 0-.014863-.0003372-.029724.0003378-.04492.001-.033095.0064-.038842.039515-.039853h.038501c.062821 0 .062821.00273.063161.07059.0003378.049984.0003378.049984.049985.057755.038163.00606.074304.017227.1094296.032763.019253.00844.026678.021954.0206.042554-.00878.030397-.017227.061135-.026685.091192-.00606.018235-.011824.026678-.022626.026678-.00606 0-.013509-.00233-.022967-.0071-.048632-.023639-.099635-.035124-.1529989-.035124-.00676 0-.01385.0003381-.0206.0006666-.015876.001-.03141.00307-.046273.00945-.05269.022967-.061135.08106-.016214.1168606.022626.018241.048632.031071.075318.04222.046612.019253.093219.037828.137463.062149.1391518.077682.1769789.2543227.07802.3745611z" fill="#ff6118" stroke-linejoin="round" stroke-miterlimit="2" stroke-width=".003377"/>
</svg>
