<svg width="36" height="35" version="1.1" viewBox="0 0 9.525 9.2604" xmlns="http://www.w3.org/2000/svg">
 <circle cx="4.7283" cy="4.63" r="4.2624" fill="#ffc400" stroke="#f2b800" stroke-width=".53286"/>
 <path d="m1.8193 0.24c-0.36308 0-0.97674 0.29083-0.97674 0.65392v0.1573h1.3823c0.25909 0 0.47182 0.20441 0.47182 0.46352v0.65392c0 0.2591-0.21272 0.47183-0.47182 0.47183h-1.3823v0.15724c0 0.36311 0.61366 0.65392 0.97674 0.65392h0.75325c0.36308 0 0.82707-0.37497 1.0595-0.65392l0.12416-0.15856 4.1636 0.11705c0.18147 5e-3 0.3311-0.14955 0.3311-0.3311v-1.1917c0-0.1815-0.14968-0.32945-0.3311-0.32281l-4.1636 0.15218-0.13244-0.16888c-0.22406-0.2857-0.70471-0.65392-1.0678-0.65392z" fill="#006f00" stroke="#f2b800" stroke-linejoin="round" stroke-width=".52917"/>
 <g fill="none" stroke-linecap="round" stroke-linejoin="round">
  <g stroke="#ffc400" stroke-width="1.0583">
   <circle cx="7.6809" cy="7.3488" r="1.3625"/>
   <circle cx="1.9302" cy="7.3488" r="1.3625"/>
   <path d="m1.8803 7.3588 1.3474-3.2169"/>
   <path d="m2.9557 5.3088 2.1171 2.2222 2.6727-0.0901-2.027-2.1021z"/>
  </g>
  <g stroke="#5d0000" stroke-width=".52004">
   <circle cx="7.6809" cy="7.3488" r="1.3625"/>
   <circle cx="1.9302" cy="7.3488" r="1.3625"/>
   <path d="m1.8803 7.3588 1.3474-3.2169"/>
   <path d="m2.9557 5.3088 2.1171 2.2222 2.6727-0.0901-2.027-2.1021z"/>
   <path d="m5.1028 7.5488c0-0.48048 1.0661-3.078 1.0661-3.078"/>
  </g>
 </g>
 <path d="m1.8193 0.23879c-0.36308 0-0.97674 0.29083-0.97674 0.65392v0.15729h1.3823c0.25909 0 0.47182 0.20442 0.47182 0.46353v0.65391c0 0.25911-0.21272 0.47184-0.47182 0.47184h-1.3823v0.15724c0 0.36311 0.61366 0.65391 0.97674 0.65391h0.75325c0.36308 0 0.82707-0.37496 1.0595-0.65391l0.12416-0.15857 4.1636 0.11705c0.18147 5e-3 0.3311-0.14954 0.3311-0.3311v-1.1917c0-0.1815-0.14968-0.32946-0.3311-0.32282l-4.1636 0.15219-0.13244-0.16888c-0.22406-0.2857-0.70471-0.65392-1.0678-0.65392z" fill="#5d0000"/>
</svg>
