<svg width="36" height="34" version="1.1" viewBox="0 0 9.525 8.9958" xmlns="http://www.w3.org/2000/svg">
 <g transform="translate(-.51412 -287.3)">
  <circle cx="5.3003" cy="291.82" r="4.2261" fill="#ffc400" stroke="#f2b800" stroke-width=".52832"/>
  <g transform="translate(.13509 .17369)">
   <g fill="none" stroke="#ffc400" stroke-linecap="round" stroke-linejoin="round" stroke-width="1.0583">
    <circle cx="8.0213" cy="294.26" r="1.3625"/>
    <circle cx="2.2706" cy="294.26" r="1.3625"/>
    <path d="m2.2207 294.26 1.3474-3.2169"/>
    <path d="m3.2961 292.21 2.1171 2.2222 2.6727-.0901-2.027-2.1021z"/>
    <path d="m5.7735 291.35h1.2462"/>
   </g>
   <path d="m3.4318 287.41c-.79912 0-1.4469.64778-1.4469 1.447 0 .79909.64782 1.4469 1.4469 1.4469.55614 0 1.0394-.31705 1.2816-.77722.025373.003.04821.008.074414.008h.099219l.41341-.41338.39688.39687.39688-.39687.39688.38859.38861-.38859.39688.39687.39688-.39687.38861.39687h.00826c.30365-.0657.52917-.33766.52917-.66145 0-.37338-.30468-.66974-.67799-.66974h-3.1337c-.023336 0-.043468.006-.066146.008-.23955-.46837-.72767-.7855-1.2898-.7855zm-.51263 1.0418c.21937 0 .39688.17749.39688.39688 0 .21936-.17751.39687-.39688.39687-.21885 0-.39688-.17751-.39688-.39687 0-.21937.17802-.39688.39688-.39688z" fill="#006f00" stroke="#f2b800" stroke-linejoin="round" stroke-width=".52917"/>
   <g fill="none" stroke="#5d0000" stroke-linecap="round" stroke-linejoin="round" stroke-width=".52004">
    <circle cx="8.0213" cy="294.26" r="1.3625"/>
    <circle cx="2.2706" cy="294.26" r="1.3625"/>
    <path d="m2.2207 294.26 1.3474-3.2169"/>
    <path d="m3.2961 292.21 2.1171 2.2222 2.6727-.0901-2.027-2.1021z"/>
    <path d="m5.4432 294.45c0-.48049 1.0661-3.0781 1.0661-3.0781"/>
   </g>
   <path d="m3.4318 287.41c-.79912 0-1.4469.64778-1.4469 1.447 0 .79909.64782 1.4469 1.4469 1.4469.55614 0 1.0394-.31705 1.2816-.77722.025373.003.04821.008.074414.008h.099219l.41341-.41338.39688.39687.39688-.39687.39688.38859.38861-.38859.39688.39687.39688-.39687.38861.39687h.00826c.30365-.0657.52917-.33766.52917-.66145 0-.37338-.30468-.66974-.67799-.66974h-3.1337c-.023336 0-.043468.006-.066146.008-.23955-.46837-.72767-.7855-1.2898-.7855zm-.51263 1.0418c.21937 0 .39688.17749.39688.39688 0 .21936-.17751.39687-.39688.39687-.21885 0-.39688-.17751-.39688-.39687 0-.21937.17802-.39688.39688-.39688z" fill="#5d0000"/>
  </g>
 </g>
</svg>
