<svg width="36" height="35" version="1.1" viewBox="0 0 9.525 9.2604" xmlns="http://www.w3.org/2000/svg">
 <g transform="translate(-.51412 -287.04)">
  <circle cx="5.2424" cy="291.67" r="4.2624" fill="#ffc400" stroke="#f2b800" stroke-width=".53286"/>
  <path d="m2.3334 287.28c-.36308 0-.97674.29083-.97674.65392v.1573h1.3823c.25909 0 .47182.20441.47182.46352v.65392c0 .2591-.21272.47183-.47182.47183h-1.3823v.15724c0 .36311.61366.65392.97674.65392h.75325c.36308 0 .82707-.37497 1.0595-.65392l.12416-.15856 4.1636.11705c.18147.005.3311-.14955.3311-.3311v-1.1917c0-.1815-.14968-.32945-.3311-.32281l-4.1636.15218-.13244-.16888c-.22406-.2857-.70471-.65392-1.0678-.65392z" fill="#006f00" stroke="#f2b800" stroke-linejoin="round" stroke-width=".52917"/>
  <g transform="translate(.096496 .30879)">
   <g fill="none" stroke-linecap="round" stroke-linejoin="round">
    <g stroke="#ffc400" stroke-width="1.0583">
     <circle cx="8.0985" cy="294.08" r="1.3625"/>
     <circle cx="2.3478" cy="294.08" r="1.3625"/>
     <path d="m2.2979 294.09 1.3474-3.2169"/>
     <path d="m3.3733 292.04 2.1171 2.2222 2.6727-.0901-2.027-2.1021z"/>
    </g>
    <g stroke="#5d0000" stroke-width=".52004">
     <circle cx="8.0985" cy="294.08" r="1.3625"/>
     <circle cx="2.3478" cy="294.08" r="1.3625"/>
     <path d="m2.2979 294.09 1.3474-3.2169"/>
     <path d="m3.3733 292.04 2.1171 2.2222 2.6727-.0901-2.027-2.1021z"/>
     <path d="m5.5204 294.28c0-.48048 1.0661-3.078 1.0661-3.078"/>
    </g>
   </g>
   <path d="m2.2369 286.97c-.36308 0-.97674.29083-.97674.65392v.15729h1.3823c.25909 0 .47182.20442.47182.46353v.65391c0 .25911-.21272.47184-.47182.47184h-1.3823v.15724c0 .36311.61366.65391.97674.65391h.75325c.36308 0 .82707-.37496 1.0595-.65391l.12416-.15857 4.1636.11705c.18147.005.3311-.14954.3311-.3311v-1.1917c0-.1815-.14968-.32946-.3311-.32282l-4.1636.15219-.13244-.16888c-.22406-.2857-.70471-.65392-1.0678-.65392z" fill="#5d0000"/>
  </g>
 </g>
</svg>
