<svg width="32" height="29" version="1.1" viewBox="0 0 8.4667 7.6729" xmlns="http://www.w3.org/2000/svg">
 <g transform="translate(0 -289.33)">
  <path d="m4.2371 290.12 3.4314 6.0854h-6.871z" fill="#f00" stroke="#ff0" stroke-dashoffset=".18" stroke-linecap="round" stroke-linejoin="round" stroke-width="1.5875"/>
  <path d="m4.2371 290.12 3.4314 6.0854h-6.871z" fill="#f00" stroke="#f00" stroke-dashoffset=".18" stroke-linecap="round" stroke-linejoin="round" stroke-width="1.0583"/>
  <path d="m5.6458 293.44c-.17246.003-.34457.0808-.46474.20449-.12015.12372-.1883.29226-.1859.46472v1.611c-.02249.005-.046593.006-.06813.0124-.072998.0208-.10411.0563-.10536.0929-.00265.0398.00265.1519 0 .24785-.00635.0435.041222.0859.13631.10534.1755.0474.39457.0418.59484.0496.27271.003.56026.006.81177-.0434.09062-.0246.14621-.0787.1301-.12393-2.65e-5-.0779 0-.15343 0-.22927 0-.0225-.010319-.0492-.043365-.0682-.035057-.0221-.082947-.032-.13631-.0434v-1.611c.00265-.17577-.067733-.35288-.19211-.47711-.12435-.12424-.30133-.19473-.4771-.19209z" color="#000000" fill="#ff0" style="text-decoration-line:none;text-indent:0;text-transform:none"/>
  <path d="m2.7355 293.44c-.17246.003-.34457.0808-.46474.20449-.12015.12372-.1883.29226-.1859.46472v1.611c-.02249.005-.046593.006-.06813.0124-.072998.0208-.10411.0563-.10536.0929-.00265.0398.00265.1519 0 .24785-.00635.0435.041222.0859.13631.10534.1755.0474.39457.0418.59484.0496.27271.003.56026.006.81177-.0434.09062-.0246.14621-.0787.1301-.12393-2.64e-5-.0779 0-.15343 0-.22927 0-.0225-.010319-.0492-.043365-.0682-.035057-.0221-.082947-.032-.13631-.0434v-1.611c.00265-.17577-.067733-.35288-.19211-.47711-.12435-.12424-.30133-.19473-.4771-.19209z" color="#000000" fill="#ff0" style="text-decoration-line:none;text-indent:0;text-transform:none"/>
 </g>
</svg>
