<svg width="32" height="29" version="1.1" viewBox="0 0 8.4667 7.6729" xmlns="http://www.w3.org/2000/svg">
 <path d="m4.2371 0.79 3.4314 6.0854h-6.871z" fill="#ff0000" stroke="#ffff00" stroke-dashoffset=".18" stroke-linecap="round" stroke-linejoin="round" stroke-width="1.5875"/>
 <path d="m4.2371 0.79 3.4314 6.0854h-6.871z" fill="#ff0000" stroke="#ff0000" stroke-dashoffset=".18" stroke-linecap="round" stroke-linejoin="round" stroke-width="1.0583"/>
 <path d="m0.59644 0.74955v4.3925c0 0.024785 0.02202 0.046817 0.046792 0.046817h0.13762c0.024772 0 0.046792-0.022031 0.046792-0.046817v-1.8864c0.17314 0.12914 0.40365 0.23766 0.61793 0.24097 0.15551 0 0.33855-0.060586 0.51609-0.11842 0.17891-0.057833 0.35231-0.11429 0.46792-0.11429 0.1156 0 0.2546 0.055079 0.39911 0.11291 0.15001 0.05921 0.30965 0.1198 0.47755 0.1198 0.32892 0 0.70188-0.18589 0.70188-0.18589 0.015139-0.00826 0.026148-0.024785 0.026148-0.042686v-2.4372c-0.00319-0.03485-0.039099-0.057398-0.067435-0.041309 0 0-0.35782 0.17625-0.64683 0.17625-0.14313 0-0.29451-0.055079-0.44039-0.11291-0.14863-0.057833-0.29451-0.1198-0.43764-0.1198-0.14313 0-0.31653 0.060586-0.49544 0.11842-0.17753 0.057833-0.35782 0.11429-0.48718 0.11429-0.12937 0-0.29451-0.056456-0.42388-0.11429-0.10184-0.046817-0.17065-0.085372-0.21194-0.1074 0-0.020654-0.013762-0.041309-0.042663-0.041309h-0.13762c-0.024772 0-0.046792 0.022032-0.046792 0.046817z" color="#000000" color-rendering="auto" fill="none" image-rendering="auto" shape-rendering="auto" solid-color="#000000" stroke="#ffff00" stroke-width=".81042" filter-blend-mode="normal" filter-gaussianBlur-deviation="0" isolation="auto" mix-blend-mode="normal"/>
 <path d="m0.59644 0.74955v4.3925c0 0.024785 0.02202 0.046817 0.046792 0.046817h0.13762c0.024772 0 0.046792-0.022031 0.046792-0.046817v-1.8864c0.17314 0.12914 0.40365 0.23766 0.61793 0.24097 0.15551 0 0.33855-0.060586 0.51609-0.11842 0.17891-0.057833 0.35231-0.11429 0.46792-0.11429 0.1156 0 0.2546 0.055079 0.39911 0.11291 0.15001 0.05921 0.30965 0.1198 0.47755 0.1198 0.32892 0 0.70188-0.18589 0.70188-0.18589 0.015139-0.00826 0.026148-0.024785 0.026148-0.042686v-2.4372c-0.00319-0.03485-0.039099-0.057398-0.067435-0.041309 0 0-0.35782 0.17625-0.64683 0.17625-0.14313 0-0.29451-0.055079-0.44039-0.11291-0.14863-0.057833-0.29451-0.1198-0.43764-0.1198-0.14313 0-0.31653 0.060586-0.49544 0.11842-0.17753 0.057833-0.35782 0.11429-0.48718 0.11429-0.12937 0-0.29451-0.056456-0.42388-0.11429-0.10184-0.046817-0.17065-0.085372-0.21194-0.1074 0-0.020654-0.013762-0.041309-0.042663-0.041309h-0.13762c-0.024772 0-0.046792 0.022032-0.046792 0.046817z" color="#000000" fill="#ff0000" stroke-width=".014624"/>
 <g fill="#ffff00">
  <path d="m5.6712 5.2433c-0.035957-3e-5 -0.071728 0.0143-0.097181 0.0388-0.0254 0.0245-0.04019 0.0591-0.040164 0.0938v1.5913c-2.64e-5 0.0347 0.014552 0.0693 0.040164 0.0938 0.025665 0.0245 0.061225 0.0389 0.097181 0.0388h0.50083c0.035957 1e-5 0.071676-0.0143 0.097129-0.0388 0.0254-0.0246 0.040217-0.0591 0.04019-0.0938v-1.5913c2.64e-5 -0.0347-0.014552-0.0693-0.04019-0.0938-0.025665-0.0246-0.061172-0.0389-0.097129-0.0388z" color="#000000" style="text-decoration-line:none;text-indent:0;text-transform:none"/>
  <path d="m2.6883 5.0133 3.4175-0.76186" stroke="#ffff00" stroke-linecap="round" stroke-width=".50573"/>
  <path d="m2.2685 3.9133c-0.045879 0-0.09144 0.0177-0.1239 0.0482-0.032438 0.0304-0.051276 0.0732-0.051276 0.11631v2.846c0 0.0431 0.018786 0.0859 0.051276 0.11634 0.032464 0.0305 0.078026 0.0482 0.1239 0.0482h0.44342c0.045879 0 0.091493-0.0177 0.12388-0.0482 0.032438-0.0305 0.051276-0.0733 0.051276-0.11634v-1.4342c-0.22162 0.0639-0.48744 7e-3 -0.63063-0.16944-0.21714-0.2439-0.10634-0.67488 0.21384-0.7886 0.13891-0.0302 0.27789-0.0602 0.4168-0.0902v-0.36354c0-0.0431-0.018785-0.0859-0.051276-0.11635-0.032385-0.0305-0.077999-0.0482-0.12388-0.0482z" color="#000000" style="text-decoration-line:none;text-indent:0;text-transform:none"/>
 </g>
</svg>
