<svg width="34" height="34" version="1.1" viewBox="0 0 8.9958 8.9958" xmlns="http://www.w3.org/2000/svg">
 <circle cx="4.4919" cy="4.49" r="4.2256" fill="#ffc400" stroke="#f2b800" stroke-width=".52826"/>
 <g fill="#5d0000" shape-rendering="auto">
  <path d="m1.2115 4.4858c1.0431 1.1961 2.114 2.3783 3.171 3.5744 0.19054 0.065368 0.10014-0.22253 0.11822-0.33796l-0.0069561-1.0528c-0.12517-0.20306-0.31571-0.36717-0.46592-0.55493 0 0-2.6425-3.0319-2.6842-3.0459-0.15716-0.068153-0.12378 0.28233-0.12865 0.34561-0.0048491 0.3484-0.017384 0.71-0.0034833 1.0716zm0.19471-1.808c-0.068149 0.06954 0.12517 0.22114 0.20862 0.31988l2.9763 3.3796c0.13213 0.047285 0.25034-0.10431 0.37413-0.15021l2.7552-1.5883c0.091795-0.12378-0.086226-0.23226-0.17246-0.32545l-2.9151-3.3643c-0.016687-0.016686-0.027816-0.029211-0.055632-0.023642-1.0987 0.62308-2.1557 1.1544-3.171 1.7524z" color="#000000" color-rendering="auto" image-rendering="auto" opacity=".8" solid-color="#000000" stop-color="#000000" stroke="#f2b800" stroke-linejoin="round" stroke-width=".54354" style="-inkscape-stroke:none;font-variation-settings:normal" filter-blend-mode="normal" filter-gaussianBlur-deviation="0" isolation="auto" mix-blend-mode="normal" white-space="normal"/>
  <path d="m4.7302 7.7542c-0.080667 0.063971-0.065367 0.23644 0.05285 0.25034 1.0677-0.60358 2.0897-1.1935 2.9485-1.6968 0.084839-0.066755 0.066755-0.26008-0.063981-0.25591-0.883 0.50148-2.0788 1.1929-2.9374 1.7023zm0.00557-0.56049c-0.080666 0.063981-0.065367 0.23644 0.05285 0.25034 1.0377-0.59356 2.0897-1.1935 2.9485-1.6968 0.084839-0.066755 0.066755-0.26008-0.070239-0.24826-1.0116 0.57457-2.0661 1.1931-2.9311 1.6947zm0-0.55632c-0.080666 0.063981-0.065367 0.23644 0.05285 0.25034 1.0377-0.57352 2.0897-1.1935 2.9485-1.6968 0.084839-0.066755 0.066755-0.26008-0.066755-0.25034-0.089011 0.027814-2.0723 1.1961-2.9346 1.6968z" color="#000000" color-rendering="auto" image-rendering="auto" opacity=".8" solid-color="#000000" stop-color="#000000" stroke="#f2b800" stroke-linejoin="round" stroke-width=".54354" style="-inkscape-stroke:none;font-variation-settings:normal" filter-blend-mode="normal" filter-gaussianBlur-deviation="0" isolation="auto" mix-blend-mode="normal" white-space="normal"/>
  <path d="m1.2115 4.4858c1.0431 1.1961 2.114 2.3783 3.171 3.5744 0.19054 0.065368 0.10014-0.22253 0.11822-0.33796l-0.0069561-1.0528c-0.12517-0.20306-0.31571-0.36717-0.46592-0.55493 0 0-2.6425-3.0319-2.6842-3.0459-0.15716-0.068153-0.12378 0.28233-0.12865 0.34561-0.0048491 0.3484-0.017384 0.71-0.0034833 1.0716zm0.19471-1.808c-0.068149 0.06954 0.12517 0.22114 0.20862 0.31988l2.9763 3.3796c0.13213 0.047285 0.25034-0.10431 0.37413-0.15021l2.7552-1.5883c0.091795-0.12378-0.086226-0.23226-0.17246-0.32545l-2.9151-3.3643c-0.016687-0.016686-0.027816-0.029211-0.055632-0.023642-1.0987 0.62308-2.1557 1.1544-3.171 1.7524z" color="#000000" color-rendering="auto" fill-rule="evenodd" image-rendering="auto" solid-color="#000000" stop-color="#000000" style="-inkscape-stroke:none;font-variation-settings:normal" isolation="auto" mix-blend-mode="normal" white-space="normal"/>
  <path d="m4.7302 7.7542c-0.080667 0.063971-0.065367 0.23644 0.05285 0.25034 1.0677-0.60358 2.0897-1.1935 2.9485-1.6968 0.084839-0.066755 0.066755-0.26008-0.063981-0.25591-0.883 0.50148-2.0788 1.1929-2.9374 1.7023zm0.00557-0.56049c-0.080666 0.063981-0.065367 0.23644 0.05285 0.25034 1.0377-0.59356 2.0897-1.1935 2.9485-1.6968 0.084839-0.066755 0.066755-0.26008-0.070239-0.24826-1.0116 0.57457-2.0661 1.1931-2.9311 1.6947zm0-0.55632c-0.080666 0.063981-0.065367 0.23644 0.05285 0.25034 1.0377-0.57352 2.0897-1.1935 2.9485-1.6968 0.084839-0.066755 0.066755-0.26008-0.066755-0.25034-0.089011 0.027814-2.0723 1.1961-2.9346 1.6968z" color="#000000" color-rendering="auto" fill-rule="evenodd" image-rendering="auto" opacity=".8" solid-color="#000000" stop-color="#000000" style="-inkscape-stroke:none;font-variation-settings:normal" isolation="auto" mix-blend-mode="normal" white-space="normal"/>
 </g>
</svg>
