<svg width="32" height="29" version="1.1" viewBox="0 0 8.4667 7.6729" xmlns="http://www.w3.org/2000/svg">
 <path d="m4.2374 0.79371 3.4314 6.0854h-6.871z" fill="#ff0000" stroke="#ffff00" stroke-dashoffset=".18" stroke-linecap="round" stroke-linejoin="round" stroke-width="1.5875"/>
 <path d="m4.2374 0.79372 3.4314 6.0854h-6.871z" fill="#ff0000" stroke="#ff0000" stroke-dashoffset=".18" stroke-linecap="round" stroke-linejoin="round" stroke-width="1.0583"/>
 <g fill="#ffff00" fill-rule="evenodd">
  <g stroke-width="1.0213">
   <path d="m4.5232 5.8826c-0.17672 0.31372-0.60958 0.2065-0.74658-0.079424-0.31372-0.13899-0.45867 0.46463-0.80615 0.21047-0.12906-0.14296-0.34748-0.413-0.52022-0.1509-0.36138-0.23628 0.36336-0.4686 0.48647-0.1648 0.13899 0.30181 0.413 0.06751 0.54008-0.099279 0.30181-0.20054 0.47257 0.1787 0.70091 0.25217 0.2482-0.061553 0.40903-0.46264 0.71878-0.25813 0.12708 0.16877 0.3991 0.40109 0.54008 0.099279 0.1787-0.27997 0.70091-0.12906 0.65524 0.21444-0.12509 0.19062-0.2343-0.31968-0.45271-0.14098-0.15885 0.29585-0.62149 0.38322-0.77438 0.021841-0.091337-0.10722-0.35343-0.06751-0.34152 0.095308z" stop-color="#000000" style="-inkscape-stroke:none;font-variation-settings:normal"/>
   <path d="m4.5232 6.3631c-0.17672 0.31571-0.60958 0.2065-0.74658-0.079423-0.31372-0.13701-0.4547 0.46066-0.80615 0.21841-0.13303-0.13303-0.35145-0.39513-0.52022-0.13899-0.36138-0.23628 0.36535-0.4686 0.48647-0.1648 0.14098 0.30379 0.413 0.06751 0.54008-0.099279 0.30181-0.19856 0.47257 0.1787 0.70091 0.25416 0.2482-0.079424 0.45271-0.48448 0.76048-0.23231 0.10722 0.2343 0.42293 0.31571 0.53214 0.031769 0.20849-0.2482 0.71878-0.03574 0.6056 0.29585-0.14892 0.027798-0.26607-0.35939-0.4825-0.15488-0.15488 0.34152-0.6195 0.2899-0.77438-0.019856-0.099279-0.055596-0.25416-0.021841-0.29585 0.089351z" stop-color="#000000" style="-inkscape-stroke:none;font-variation-settings:normal"/>
   <path d="m2.0095 4.9652c0.18466 0 0.36932 0.019856 0.55398 0.019856v1.5805h-1.233c0.22636-0.53412 0.45668-1.0663 0.67907-1.6004z" stop-color="#000000" style="-inkscape-stroke:none;font-variation-settings:normal"/>
   <path d="m6.4552 4.9652c-0.18466 0-0.36932 0.019856-0.55398 0.019856v1.5805h1.235c-0.22636-0.53412-0.45668-1.0663-0.68106-1.6004z" stop-color="#000000" style="-inkscape-stroke:none;font-variation-settings:normal"/>
  </g>
  <path d="m2.2041 4.5622c0.91138-0.95308 1.8228-1.9042 2.7342-2.8573 0.12906 0.13502 0.26011 0.27203 0.39116 0.40903-0.91138 0.95308-1.8228 1.9042-2.7342 2.8573-0.13105-0.13701-0.2621-0.27203-0.39116-0.40903z"/>
 </g>
</svg>
