<svg width="32" height="32" version="1.1" viewBox="0 0 8.47 8.47" xmlns="http://www.w3.org/2000/svg">
 <circle cx="4.2291" cy="4.2409" r="3.59" fill="#ffc400" stroke="#f2b800" stroke-width=".449"/>
 <path d="m3.8628 6.144s-0.70521-0.61927-1.4791-1.5548c-0.61283-0.74289-1.2268-1.7475-1.288-1.8535 0.30324-0.29517 1.9171-1.3248 2.257-1.4521 0.15866 0.37904 0.43006 1.1277 0.87518 1.8259 0.46027 0.72361 0.96871 1.2657 1.151 1.446-0.32259 0.40593-1.5212 1.5845-1.5212 1.5845zm1.1166-0.60166c0.095615 0.35416 1.5549 1.8562 2.008 2.0985 0.17539 0.0945 0.27268-0.0174 0.51559-0.24687 0.24201-0.22935 0.31983-0.40599 0.18872-0.61995-0.26996-0.44334-1.397-2.0031-1.85-2.2132-0.48223-0.52289-0.88063-0.91089-1.3212-1.6695-0.45974-0.78342-0.80017-1.5933-0.99843-2.0745-0.4441 0.20115-1.1621 0.63672-1.5988 0.92042-0.49154 0.31782-0.83099 0.6072-1.2169 0.89275 0.18732 0.36432 0.63889 1.2628 1.4468 2.1888 0.63853 0.72999 1.1681 1.3103 1.7289 1.7254zm-2.312-3.0882c-0.026951-0.1863 0.11092-0.36061 0.30758-0.38905 0.19665-0.0284 0.37827 0.0996 0.40522 0.28594 0.027016 0.18675-0.11086 0.36106-0.30751 0.38951-0.19665 0.0284-0.37827-0.0996-0.40529-0.2864z" fill="#5d0000" fill-rule="evenodd" stroke="#f2b800" stroke-linejoin="round" stroke-width=".45468"/>
 <path d="m3.8613 6.1393s-0.70521-0.61927-1.4791-1.5548c-0.61283-0.74289-1.2268-1.7475-1.288-1.8535 0.30324-0.29517 1.9171-1.3248 2.257-1.4521 0.15866 0.37904 0.43006 1.1277 0.87518 1.8259 0.46027 0.72361 0.96871 1.2657 1.151 1.446-0.32259 0.40593-1.5212 1.5845-1.5212 1.5845zm1.1166-0.60166c0.095615 0.35416 1.5549 1.8562 2.008 2.0985 0.17539 0.0945 0.27268-0.0174 0.51559-0.24687 0.24201-0.22935 0.31983-0.40599 0.18872-0.61995-0.26996-0.44334-1.397-2.0031-1.85-2.2132-0.48223-0.52289-0.88063-0.91089-1.3212-1.6695-0.45974-0.78342-0.80017-1.5933-0.99843-2.0746-0.4441 0.20115-1.1621 0.63672-1.5988 0.92042-0.49154 0.31782-0.83099 0.6072-1.2169 0.89275 0.18732 0.36432 0.63889 1.2628 1.4468 2.1888 0.63853 0.72999 1.1681 1.3103 1.7289 1.7254zm-2.312-3.0882c-0.026951-0.1863 0.11092-0.36061 0.30758-0.38905 0.19665-0.0284 0.37827 0.0996 0.40522 0.28594 0.027016 0.18675-0.11086 0.36106-0.30751 0.38951-0.19665 0.0284-0.37827-0.0996-0.40529-0.2864z" fill="#5d0000" fill-rule="evenodd" stroke-width=".45468"/>
</svg>
