<svg width="32" height="28" version="1.1" viewBox="0 0 8.4667 7.4083" xmlns="http://www.w3.org/2000/svg">
 <g fill="#1279ff">
  <path d="m4.2318 1.0825-2.6458 1.5859v4.4995h5.2917v-4.4744z" stroke="#fff" stroke-width=".52917"/>
  <path d="m4.2318 0.28879-0.2464 0.16087-3.4578 2.1505a0.4994 0.49914 0 1 0 0.50101 0.8636l3.2114-1.9897 3.1949 1.9812a0.50307 0.50281 0 0 0 0.50101-0.87207l-3.4413-2.1336z" color="#000000" stroke="#fff" stroke-width=".52917" style="text-decoration-line:none;text-indent:0;text-transform:none"/>
  <path d="m4.2333 1.0931-2.6458 1.5663v4.5085h5.2916v-4.4661z"/>
  <path d="m4.2337 0.28881-0.254 0.16933-3.4501 2.1378c-0.5715 0.33866-0.084666 1.2065 0.48683 0.86783l3.2173-1.9897 3.1961 1.9897c0.59266 0.31749 1.0795-0.55033 0.508-0.889l-3.4501-2.1166z"/>
 </g>
 <path d="m3.4347 2.5076v0.24526h-0.48366c-0.12089 0-0.2418 0.12263-0.2418 0.24526v3.1884h0.2418v0.5256h0.53628v-0.5256h1.5875v0.5256h0.53628v-0.5256h0.2418v-3.1884c0-0.12263-0.12091-0.24526-0.2418-0.24526h-0.48366v-0.24526zm-0.2418 0.73579h2.1764v1.2263h-2.1764zm0.2418 1.9621c0.13396 0 0.2418 0.10939 0.2418 0.24526 0 0.13588-0.10784 0.24527-0.2418 0.24527-0.13393 0-0.2418-0.10939-0.2418-0.24527 0-0.13587 0.10787-0.24526 0.2418-0.24526zm1.6928 0c0.13396 0 0.2418 0.10939 0.2418 0.24526 0 0.13588-0.10784 0.24527-0.2418 0.24527-0.13396 0-0.2418-0.10939-0.2418-0.24527 0-0.13587 0.10784-0.24526 0.2418-0.24526z" color="#000000" fill="#fff"/>
</svg>
