<svg width="28" height="28" version="1.1" viewBox="0 0 7.4083 7.4083" xmlns="http://www.w3.org/2000/svg">
 <g>
  <rect x=".27831" y=".27034" width="6.8792" height="6.8792" rx="1.0583" fill="#1279ff" stroke="#fff" stroke-width=".52917"/>
  <rect x=".27831" y=".27034" width="6.8792" height="6.8792" rx="1.0583" fill="#1279ff"/>
  <path d="m2.395 0.74738v0.34291h-0.45088c-0.1714 0-0.34287 0.17146-0.34287 0.34291v4.3584h0.28361v0.7853h0.79812v-0.7853h2.0991v0.7853h0.80396v-0.7853h0.24852v-4.3584c0-0.17145-0.17145-0.34291-0.34287-0.34291h-0.45088v-0.34291zm-0.26458 1.0755h3.175v1.5875h-3.175zm0.37782 2.6966c0.18994 0 0.34285 0.15294 0.34285 0.34291 0 0.18998-0.1529 0.34292-0.34285 0.34292-0.18994 0-0.34293-0.15294-0.34293-0.34292 0-0.18997 0.15298-0.34291 0.34293-0.34291zm2.4004 0c0.19 0 0.34293 0.15294 0.34293 0.34291 0 0.18998-0.15293 0.34292-0.34293 0.34292-0.18994 0-0.34285-0.15294-0.34285-0.34292 0-0.18997 0.1529-0.34291 0.34285-0.34291z" color="#000000" fill="#fff"/>
 </g>
</svg>
