<svg width="32" height="32" version="1.1" viewBox="0 0 32 32" xmlns="http://www.w3.org/2000/svg">
 <g>
  <rect x="1" y="1.183" width="30" height="30" rx="5" fill="#6a3600" stroke="#fff" stroke-width="2"/>
  <rect x="1" y="1.183" width="30" height="30" rx="5" fill="#743a00"/>
  <path d="m16.844 24.611c-0.0064 0.0892-0.01263 0.17786-0.03183 0.26079-0.18621 0.8575-0.94721 1.4996-1.8595 1.4996s-1.6733-0.64104-1.86-1.4996c-0.01826-0.083-0.0245-0.17159-0.0313-0.26079-0.0053-0.049-0.01464-0.096-0.01464-0.14499 0-0.0397 0.0095-0.0762 0.01146-0.1158 0.0053-0.0449 0.0074-0.0886 0.01306-0.13249 0.12205-0.93417 0.91278-1.6586 1.8808-1.6586 0.34216 0 0.65878 0.0982 0.93678 0.25506 0.54454 0.31033 0.918 0.87418 0.95764 1.534 0.0053 0.0386 0.01114 0.0762 0.01114 0.11632 5.2e-4 0.0526-0.0096 0.0991-0.01347 0.14656zm0.11632-2.9924c-0.56854-0.40215-1.2602-0.64104-2.0081-0.64104-1.8845 0-3.4216 1.5027-3.4822 3.3731 0 0.0385-0.0064 0.0761-0.0064 0.11578 0 0.0511 0.0053 0.0981 0.0074 0.14502 0.0053 0.0882 0.0074 0.17578 0.01783 0.26079 0.20393 1.7317 1.678 3.0816 3.4634 3.0816 1.7854 0 3.2599-1.3499 3.4623-3.0816 0.01113-0.0851 0.01464-0.17265 0.01783-0.26079 0-0.049 0.0074-0.0975 0.0074-0.14502 0-0.0376-0.0053-0.0762-0.0053-0.11578-0.03767-1.1277-0.61027-2.1208-1.4745-2.7321z" fill="#fff"/>
  <path d="m14.469 4.4126c-6.3513 0-11.5 2.6234-11.5 5.8438 0.03787 0.57879 0 1.3156 0 1.9688v6.375c0 3.2586 2.6487 5.875 5.9062 5.875h1.0938v-0.1875c0.086539-2.6748 2.2738-4.8125 4.9688-4.8125 1.0696 0 2.062 0.33116 2.875 0.90625 1.2359 0.87418 2.0711 2.2936 2.125 3.9062v0.1875h9.0938v-2l-3.5312 0.0312s1.5-1.0971 1.5-3.6875c-0.0226-2.824 0.04574-5.817-0.03125-8.5625 0-3.2204-6.1487-5.8438-12.5-5.8438zm-2.9062 5.0625h2.4062v7h-8v-4.8125c0-1.2002 2.5079-2.1875 5.5938-2.1875zm4.4062 0h2.4062c3.0872 0 5.5938 0.98733 5.5938 2.1875v4.8125h-8z" fill="#fff"/>
 </g>
</svg>
