<svg width="34" height="34" version="1.1" viewBox="0 0 8.9958 8.9958" xmlns="http://www.w3.org/2000/svg">
 <g>
  <circle cx="4.4967" cy="4.516" r="4.2256" fill="#ffc400" stroke="#f2b800" stroke-width=".52826"/>
  <path d="m7.0796 1.6779c-0.083668 0.075921-0.1379 0.19213-0.13557 0.26262l0.084443 3.9285-0.66624 0.41524 0.24636 1.1775 0.47257 0.00155c0-0.048032 0.00465-0.61666 0.0062-0.80569l0.29284-0.16114 0.28974 0.16424-0.0062 0.80569 0.44623 0.0031 0.22001-1.1775-0.63371-0.43383 0.14642-3.9045c7.748e-4 -0.07747-0.055004-0.19987-0.14177-0.27734-0.086766-0.07902-0.19987-0.11466-0.31143-0.11388-0.11311 7.748e-4 -0.22466 0.03951-0.30988 0.11543zm0.45398 0.31143c0 0.074371-0.060427 0.13325-0.1348 0.13325s-0.13325-0.060427-0.13325-0.1348c0-0.074371 0.060427-0.13325 0.1348-0.13325 0.074371 0 0.13325 0.060427 0.13325 0.1348z" color="#000000" color-rendering="auto" fill="#5d0000" image-rendering="auto" shape-rendering="auto" solid-color="#000000" stop-color="#000000" stroke-width=".0080082" style="-inkscape-stroke:none;font-variation-settings:normal" isolation="auto" mix-blend-mode="normal" white-space="normal"/>
  <path d="m1.5621 2.9252-0.41834 1.1001c-0.17043 0.030988-0.48032 0.23241-0.48032 0.60427v1.41h0.41834v0.44933c0 0.55779 0.7902 0.55779 0.7902 0v-0.44933h2.8199v0.44933c0 0.55779 0.7902 0.55779 0.7902 0v-0.44933h0.41834v-1.41c0-0.37186-0.29439-0.57328-0.46482-0.60427l-0.43383-1.1001c-0.07747-0.21692-0.2634-0.40284-0.58877-0.40284h-2.2621c-0.32537 0-0.49581 0.18593-0.58877 0.40284zm2.8509 0.015494c0.13945 0 0.20142 0.07747 0.2479 0.20142l0.32537 0.88316h-3.4087l0.32537-0.88316c0.046482-0.12395 0.10846-0.20142 0.2479-0.20142h2.2621zm-2.5565 1.8748c0 0.21692-0.17043 0.37186-0.37186 0.37186s-0.35636-0.15494-0.35636-0.37186c0-0.20142 0.15494-0.37186 0.35636-0.37186s0.37186 0.17043 0.37186 0.37186zm3.5791 0c0 0.21692-0.15494 0.37186-0.35636 0.37186s-0.37186-0.15494-0.37186-0.37186c0-0.20142 0.17043-0.37186 0.37186-0.37186s0.35636 0.17043 0.35636 0.37186z" fill="#5d0000" stop-color="#000000" stroke-width=".0080082" style="-inkscape-stroke:none;font-variation-settings:normal"/>
 </g>
</svg>
