<svg width="26" height="16" version="1.1" viewBox="0 0 6.8792 4.2333" xmlns="http://www.w3.org/2000/svg" xmlns:xlink="http://www.w3.org/1999/xlink">
 <defs>
  <linearGradient id="linearGradient10988-840" x1="2155.8" x2="2156" y1="664.17" y2="672.99" gradientTransform="matrix(.33462 0 0 .43072 -717.56 6.3995)" gradientUnits="userSpaceOnUse">
   <stop stop-color="#000000" offset="0"/>
   <stop stop-color="#000000" stop-opacity="0" offset="1"/>
  </linearGradient>
 </defs>
 <g transform="translate(-.50938 -292.07)" stroke-width=".26458">
  <path d="m0.51531 296.14c0.031909-0.0976 0.43484-0.85253 0.89567-1.6776 0.66088-1.1833 1.0011-1.5934 1.6108-1.9414 0.95433-0.54486 1.9097-0.57616 2.2576-0.074 0.82299 1.1878 1.6722 2.5443 1.9168 3.0615 0.34467 0.72891 0.1691 1.0698-0.19465 0.37798-0.14343-0.27271-0.54544-0.92392-0.89334-1.4472-1.4906-2.2417-1.4951-2.244-2.8797-1.4612-0.68059 0.38474-0.94504 0.70314-1.5202 1.83-0.38301 0.75033-0.82108 1.3969-0.97351 1.4368-0.15243 0.0399-0.25117-7e-3 -0.21945-0.10494z" fill="#000000"/>
  <path d="m0.68591 295.78c0.030268-0.0893 0.41018-0.78 0.84489-1.5349 0.62341-1.0826 0.94435-1.4578 1.5194-1.7763 0.90019-0.4985 1.8014-0.52714 2.1296-0.0677 0.77634 1.0868 1.5774 2.3278 1.8081 2.8011 0.43542 0.90772-0.28721 1.0139-2.2034 1.0746-1.0204 0.0377-1.0789 0.0142-2.1381 0.0279-0.49451-0.0183-1.979-0.32162-1.9606-0.52476z" fill="url(#linearGradient10988-840)" opacity=".4075"/>
  <path d="m2.2498 295.78c0-0.52734 1.2101-2.1957 1.5926-2.1957 0.61193 0 1.2458 0.46088 1.7074 1.2415 0.27249 0.46068 0.49541 0.88828 0.49541 0.95023 0 0.0619-0.854 0.11262-1.8978 0.11262-1.0438 0-1.8977-0.0489-1.8977-0.10863z" fill="#000000"/>
 </g>
</svg>
