<svg width="32" height="32" version="1.1" viewBox="0 0 32 32" xmlns="http://www.w3.org/2000/svg">
 <g>
  <rect x="1" y="1.183" width="30" height="30" rx="5" fill="#6a3600" stroke="#fff" stroke-width="2"/>
  <rect x="1" y="1.183" width="30" height="30" rx="5" fill="#743a00"/>
  <path d="m16.089 15.52c1.191 4.0263 3.6485 9.0506 4.6966 11.12l-9.3933 0.0443c1.0297-2.0296 3.4946-7.1003 4.6966-11.164zm-1.5508-11.741-1.2406 0.66452 1.9496 3.677c-3.862 7.4316-7.5815 14.108-10.9 20.467l23.262-0.0443h0.0442c-3.7395-6.8811-7.5031-14.087-10.811-20.334l1.9496-3.6327-1.2406-0.66452-1.5065 2.791c-0.48639-0.98266-1.0006-1.9512-1.5065-2.9239z" color="#000000" fill="#fff" style="text-decoration-line:none;text-indent:0;text-transform:none"/>
 </g>
</svg>
