<svg height="29" viewBox="0 0 8.4667 7.6729" width="32" xmlns="http://www.w3.org/2000/svg"><g fill="#f00" stroke-dashoffset=".18" stroke-linecap="round" stroke-linejoin="round" transform="translate(0 -289.33)"><path d="m4.2371 290.12 3.4314 6.0854h-6.871z" stroke="#ff0" stroke-width="1.5875"/><path d="m4.2371 290.12 3.4314 6.0854h-6.871z" stroke="#f00" stroke-width="1.0583"/></g><g fill="#ff0" transform="matrix(.03737643 0 0 .06496101 4.071725 4.81721)"><path d="m-60.30656 20.80323a4.2520267 4.2520267 0 0 0 -4.252027 4.252027 4.2520267 4.2520267 0 0 0 4.252027 4.252027h129.261612a4.2520267 4.2520267 0 0 0 4.252026-4.252027 4.2520267 4.2520267 0 0 0 -4.252026-4.252027z"/><path d="m-54.637191 5.2124654a3.5433556 3.5433556 0 0 0 -3.543356 3.5433556 3.5433556 3.5433556 0 0 0 3.543356 3.543356h117.922321a3.5433556 3.5433556 0 0 0 3.543356-3.543356 3.5433556 3.5433556 0 0 0 -3.543356-3.5433556z"/><path d="m-48.967824-8.5352017a2.8346845 2.8346845 0 0 0 -2.834683 2.8346845 2.8346845 2.8346845 0 0 0 2.834683 2.8346845h106.583032a2.8346845 2.8346845 0 0 0 2.834685-2.8346845 2.8346845 2.8346845 0 0 0 -2.834685-2.8346845z"/><path d="m-43.297899-21.431355a2.551216 2.551216 0 0 0 -2.551216 2.551216 2.551216 2.551216 0 0 0 2.551216 2.551216h95.243183a2.551216 2.551216 0 0 0 2.551216-2.551216 2.551216 2.551216 0 0 0 -2.551216-2.551216z"/></g></svg>