<svg width="34" height="34" version="1.1" viewBox="0 0 8.9958 8.9958" xmlns="http://www.w3.org/2000/svg">
 <g transform="translate(-.51412 -287.3)">
  <circle cx="5.006" cy="291.79" r="4.2256" fill="#ffc400" stroke="#f2b800" stroke-width=".52826"/>
  <path d="m6.5691 291.47v-1.635c.4397 0 .79606.36595.79606.81748 0 .45131-.35636.81748-.79606.81748zm0-2.3162h-3.7149v3.6786c0 .29974.23882.54498.53071.54498h2.6535c.29189 0 .53071-.24524.53071-.54498v-.68123c.80621 0 1.4594-.67102 1.4594-1.4987 0-.8277-.65322-1.4987-1.4594-1.4987z" fill="#5d0000" stroke-width=".26458"/>
  <path d="m1.8091 293.65v.36822c0 .30322.28529.4317.63435.4317h5.0748c.34885 0 .63435-.12848.63435-.4317v-.36822z" fill="#5d0000" stroke-width=".26458"/>
 </g>
</svg>
