<?xml version="1.0" encoding="UTF-8" standalone="no"?>
<svg
   version="1.1"
   width="64"
   height="64"
   viewBox="0 0 64 64"
   enable-background="new 0 0 580 580"
   id="svg11"
   sodipodi:docname="s_cairn_tms.svg"
   inkscape:version="1.1.1 (3bf5ae0d25, 2021-09-20)"
   xmlns:inkscape="http://www.inkscape.org/namespaces/inkscape"
   xmlns:sodipodi="http://sodipodi.sourceforge.net/DTD/sodipodi-0.dtd"
   xmlns="http://www.w3.org/2000/svg"
   xmlns:svg="http://www.w3.org/2000/svg">
  <defs
     id="defs15" />
  <sodipodi:namedview
     id="namedview13"
     pagecolor="#c0d1d3"
     bordercolor="#666666"
     borderopacity="1.0"
     inkscape:pageshadow="2"
     inkscape:pageopacity="0"
     inkscape:pagecheckerboard="true"
     showgrid="false"
     inkscape:zoom="1.7531372"
     inkscape:cx="65.881896"
     inkscape:cy="-48.484512"
     inkscape:current-layer="svg11" />
  <metadata
     id="metadata23" />
  <path
     id="path4212"
     d="m 39.177434,30.481135 c 0,3.079286 -4.435598,8.0536 -8.217671,8.0536 -7.806733,0 -6.026267,-3.735236 -6.026267,-6.814521 0,-3.079286 2.244193,-4.33657 6.026267,-4.33657 3.782073,0 8.217671,-2.478056 8.217671,3.097491 z"
     mix-blend-mode="normal"
     solid-color="#000000"
     color-interpolation-filters="linearRGB"
     opacity="0.8"
     filter-gaussianBlur-deviation="0"
     color="#000000"
     image-rendering="auto"
     color-rendering="auto"
     stroke-width="7.17413"
     isolation="auto"
     color-interpolation="sRGB"
     solid-opacity="1"
     fill="none"
     filter-blend-mode="normal"
     stroke="#ffffff"
     shape-rendering="auto" />
  <path
     id="path4214"
     d="m 45.914576,48.109168 c -0.09661,4.396522 -11.439334,7.46756 -19.111489,7.131888 -7.672081,-0.335672 -7.717891,-3.720953 -8.671567,-8.347527 -1.125374,-5.459665 6.502536,-5.48944 14.066254,-7.352784 8.137878,-2.004775 13.813268,4.171902 13.716802,8.568423 z"
     mix-blend-mode="normal"
     solid-color="#000000"
     color-interpolation-filters="linearRGB"
     opacity="0.8"
     filter-gaussianBlur-deviation="0"
     color="#000000"
     image-rendering="auto"
     color-rendering="auto"
     stroke-width="7.17413"
     isolation="auto"
     color-interpolation="sRGB"
     solid-opacity="1"
     fill="none"
     filter-blend-mode="normal"
     stroke="#ffffff"
     shape-rendering="auto" />
  <path
     id="path4216"
     d="m 36.725633,22.608097 c 0,2.049437 -2.488276,2.258867 -4.570817,2.258867 -2.082685,0 -4.103814,-0.157124 -4.570891,-2.097519 -1.631281,-6.776299 2.488206,-5.324271 4.570891,-5.324271 2.082612,0 4.570817,0 4.570817,5.162923 z"
     mix-blend-mode="normal"
     solid-color="#000000"
     color-interpolation-filters="linearRGB"
     opacity="0.8"
     filter-gaussianBlur-deviation="0"
     color="#000000"
     image-rendering="auto"
     color-rendering="auto"
     stroke-width="7.17413"
     isolation="auto"
     color-interpolation="sRGB"
     solid-opacity="1"
     fill="none"
     filter-blend-mode="normal"
     stroke="#ffffff"
     shape-rendering="auto" />
  <path
     id="path4218"
     d="m 34.754803,11.798208 c 0,1.693042 -0.844102,3.065504 -1.885479,3.065504 -1.041306,0 -3.687889,-0.72707 -3.687889,-2.420114 0,-1.693043 2.646511,-3.7108951 3.687889,-3.7108951 1.041449,0 1.885479,1.3724621 1.885479,3.0655051 z"
     mix-blend-mode="normal"
     solid-color="#000000"
     color-interpolation-filters="linearRGB"
     opacity="0.8"
     filter-gaussianBlur-deviation="0"
     color="#000000"
     image-rendering="auto"
     color-rendering="auto"
     stroke-width="7.17413"
     isolation="auto"
     color-interpolation="sRGB"
     solid-opacity="1"
     fill="none"
     filter-blend-mode="normal"
     stroke="#ffffff"
     shape-rendering="auto" />
  <path
     d="m 39.177434,30.481135 c 0,3.079286 -4.435598,8.0536 -8.217671,8.0536 -7.806733,0 -6.026267,-3.735236 -6.026267,-6.814521 0,-3.079286 2.244193,-4.33657 6.026267,-4.33657 3.782073,0 8.217671,-2.478056 8.217671,3.097491 z"
     id="path11"
     mix-blend-mode="normal"
     solid-color="#000000"
     color-interpolation-filters="linearRGB"
     color="#000000"
     image-rendering="auto"
     color-rendering="auto"
     isolation="auto"
     color-interpolation="sRGB"
     solid-opacity="1"
     shape-rendering="auto"
     style="display:inline;stroke-width:0.112096" />
  <path
     d="m 45.914576,48.109168 c -0.09661,4.396522 -11.439334,7.46756 -19.111489,7.131888 -7.672081,-0.335672 -7.717891,-3.720953 -8.671567,-8.347527 -1.125374,-5.459665 6.502536,-5.48944 14.066254,-7.352784 8.137878,-2.004775 13.813268,4.171902 13.716802,8.568423 z"
     id="path13"
     mix-blend-mode="normal"
     solid-color="#000000"
     color-interpolation-filters="linearRGB"
     color="#000000"
     image-rendering="auto"
     color-rendering="auto"
     isolation="auto"
     color-interpolation="sRGB"
     solid-opacity="1"
     shape-rendering="auto"
     style="display:inline;stroke-width:0.112096" />
  <path
     d="m 36.725633,22.608097 c 0,2.049437 -2.488276,2.258867 -4.570817,2.258867 -2.082685,0 -4.103814,-0.157124 -4.570891,-2.097519 -1.631281,-6.776299 2.488206,-5.324271 4.570891,-5.324271 2.082612,0 4.570817,0 4.570817,5.162923 z"
     id="path15"
     mix-blend-mode="normal"
     solid-color="#000000"
     color-interpolation-filters="linearRGB"
     color="#000000"
     image-rendering="auto"
     color-rendering="auto"
     isolation="auto"
     color-interpolation="sRGB"
     solid-opacity="1"
     shape-rendering="auto"
     style="display:inline;stroke-width:0.112096" />
  <path
     d="m 34.754803,11.798208 c 0,1.693042 -0.844102,3.065504 -1.885479,3.065504 -1.041306,0 -3.687889,-0.72707 -3.687889,-2.420114 0,-1.693043 2.646511,-3.7108951 3.687889,-3.7108951 1.041449,0 1.885479,1.3724621 1.885479,3.0655051 z"
     id="path17"
     mix-blend-mode="normal"
     solid-color="#000000"
     color-interpolation-filters="linearRGB"
     color="#000000"
     image-rendering="auto"
     color-rendering="auto"
     isolation="auto"
     color-interpolation="sRGB"
     solid-opacity="1"
     shape-rendering="auto"
     style="display:inline;stroke-width:0.112096" />
</svg>
