<svg id="SVGRoot" width="32" height="32" version="1.1" viewBox="0 0 32 32" xmlns="http://www.w3.org/2000/svg">
 <g>
  <rect x="4.4409e-16" y="-1.3323e-15" width="32" height="32" display="none" fill="#5a5a5a" stroke-width="1.2344"/>
  <rect x="1" y="1" width="30" height="30" rx="4" fill="#808080" stroke="#ffffff" stroke-width="2"/>
  <rect x="1" y="1" width="30" height="30" rx="4" fill="#4d4d4d"/>
 </g>
 <g fill="#ffffff">
  <path d="M 9,4 C 8.6357,4 8,4.606 8,5.31817 V 22 H 24 V 5.31817 C 24,4.606 23.3628,4 22.6142,4 Z" color="#000000" style="text-decoration-line:none;text-indent:0;text-transform:none"/>
  <path d="m8.4866 23.5h15.172l0.8551 1h-17.027z" stroke="#ffffff" stroke-linecap="round" stroke-linejoin="round"/>
  <path d="m6.4972 27.5h19v-1h-18.989l-0.011 1z" stroke="#ffffff" stroke-linecap="round" stroke-linejoin="round"/>
 </g>
 <g fill="#4d4d4d">
  <path d="m10.041 10.966h0.375q0.9375 0 1.4062-0.39258 0.46875-0.39844 0.46875-1.2949 0-0.89648-0.46875-1.2891-0.46875-0.39844-1.4062-0.39844h-0.375zm-1.5 6v-10.5h1.875q1.6758 0 2.5254 0.65039 0.84961 0.65039 0.84961 2.1621 0 0.9375-0.33398 1.5703-0.33398 0.63281-0.97852 0.86719l1.6875 5.25h-1.4883l-1.5117-4.875h-1.125v4.875z"/>
  <path d="m15.104 16.966v-10.5h1.5v10.5z"/>
  <path d="m19.709 10.966h0.375q0.50977 0 0.83203-0.05859 0.32812-0.05859 0.57422-0.2168 0.25195-0.16406 0.35742-0.46289 0.11133-0.29883 0.11133-0.76172 0-0.5625-0.08203-0.9082-0.082032-0.35157-0.30469-0.57422-0.2168-0.22266-0.56836-0.30469-0.3457-0.087891-0.91992-0.087891h-0.375zm-1.5 6v-10.5h2.625q2.625 0 2.625 3 0 1.2832-0.67969 1.957-0.67383 0.66797-1.9453 0.66797h-1.125v4.875z"/>
 </g>
</svg>
