<svg width="34" height="34" version="1.1" viewBox="0 0 8.9958 8.9958" xmlns="http://www.w3.org/2000/svg">
 <circle cx="4.4919" cy="4.49" r="4.2256" fill="#ffc400" stroke="#f2b800" stroke-width=".52826"/>
 <path d="m3.5343 0.83611c-0.28427 0.045002-0.20718 0.37903 0 0.38545h0.38545v0.77091h-0.38545c-0.28427 0.045002-0.20718 0.37903 0 0.38546h1.9273c0.28427-0.045002 0.20718-0.37903 0-0.38546h-0.38545v-0.77091h0.38545c0.28427-0.045002 0.20718-0.37903 0-0.38545z" fill="#5d0000" stop-color="#000000" style="-inkscape-stroke:none;font-variation-settings:normal"/>
 <path d="m3.1488 2.7634c-0.32121 0-0.57818 0.25858-0.57818 0.57818v4.24c0 0.32121 0.25857 0.57818 0.57818 0.57818h2.6982c0.32121 0 0.57818-0.25857 0.57818-0.57818v-4.24c0-0.32121-0.25857-0.57818-0.57818-0.57818z" fill="#5d0000" stop-color="#000000" style="-inkscape-stroke:none;font-variation-settings:normal"/>
 <path d="m2.5706 4.6906h1.9273v0.38546h-1.9273v0.38545h1.9273v0.38546h-1.9273v0.38545h2.3127v-1.9273h-2.3127z" fill="#ffffff" opacity=".6" stroke-width=".01606"/>
</svg>
