<svg viewBox="0 0 28 28" xmlns="http://www.w3.org/2000/svg">
	<rect fill="#f00" height="25.846" rx="12.923" stroke="#fff" stroke-width="2.1539" width="25.846" x="1.077" y="1.077"/>
	<rect height="26" rx="13" width="26" x=".9234" y="1.077"/>
	<g fill="#26b8ff">
		<path d="m3.9954 11.901v-1.4858h.31097c.6565 0 .86381-.34552.86381-.91564v-3.939c0-.48373-.41463-.81198-.95019-.81198h-3.7835v5.5284l2.7815 2.1941c.38008.25914.77743-.0691.77743-.57012zm.25914-6.565c.15549 0 .3628.10366.3628.31097v3.9044c0 .19004-.13821.31097-.31097.31097h-.31097v-2.2632c0-.24187-.051829-.50101-.39735-.76015l-2.125-1.503z" stroke="#fff" stroke-width=".873"/>
		<path d="m15.984 11.244h-6.4268c-.82926 0-1.3821.3628-1.8831.96747l-2.0731 2.7642-2.937-2.3323c-1.3648-1.002-2.9024.95019-1.5721 1.9695l3.8526 3.0406c.82926.58739 1.4858.32825 1.8486-.03455l2.8333-3.7835v5.8048z" stroke-width=".17276"/>
		<path d="m58.7 3.7 7.7 11.2h32.5v-11.2z" transform="matrix(.17276 0 0 .17276 -.84262 3.0382)"/>
	</g>
	<g stroke-width=".17276">
		<path d="m9.5577 7.6337h1.313c0 1.5721 1.2266 2.6605 2.6605 2.6605 1.3821 0 2.7124-1.1057 2.7124-2.7124v-1.3648h-5.5629z" fill="#fff"/>
		<path d="m17.574 11.279-6.4613 8.6727h5.6148v1.3821h-7.0833v2.9888h9.7265v-11.057c.01728-1.624-1.0538-1.9868-1.7967-1.9868z" fill="#26b8ff"/>
	</g>
</svg>
