<svg width="28" height="28" version="1.1" viewBox="0 0 7.4083 7.4083" xmlns="http://www.w3.org/2000/svg">
 <rect x=".26455" y=".2697" width="6.8792" height="6.8792" rx="1.0583" fill="#0042e8" stroke="#ffffff" stroke-width=".52917"/>
 <rect x=".26455" y=".2697" width="6.8792" height="6.8792" rx="1.0583" fill="#0042e8"/>
 <path d="m6.0929 1.815h-0.16666v-0.49998c1e-5 -0.092067-0.074588-0.16666-0.16665-0.16666-0.092067 0-0.16666 0.074598-0.16666 0.16666v0.49998h-0.33332v-0.49998c0-0.092067-0.074598-0.16666-0.16666-0.16666-0.092067 0-0.16666 0.074598-0.16666 0.16666v0.49998h-0.16666c-0.092067 0-0.16666 0.074598-0.16666 0.16666v0.66665c0 0.2757 0.22428 0.49998 0.49998 0.49998h0.16666v1.9444c0 0.091897-0.074768 0.16666-0.16666 0.16666-0.091897 0-0.16666-0.074768-0.16666-0.16666v-1.3333c0-0.2757-0.22428-0.49998-0.49998-0.49998h-0.27777v-1.5c0-0.2757-0.22428-0.49998-0.49998-0.49998h-1.9999c-0.2757 0-0.49998 0.22428-0.49998 0.49998v4.5006h2.9999v-2.6673h0.27777c0.091897 0 0.16666 0.074768 0.16666 0.16666v1.3333c0 0.2757 0.22428 0.49998 0.49998 0.49998 0.2757 0 0.49998-0.22428 0.49998-0.49998v-1.9444h0.16666c0.2757 0 0.49998-0.22428 0.49998-0.49998v-0.66665c-1e-5 -0.092057-0.074668-0.16665-0.16667-0.16665zm-2.611 0.94441c0 0.092067-0.074598 0.16666-0.16666 0.16666h-1.3333c-0.092067 0-0.16666-0.074598-0.16666-0.16666v-0.66664c0-0.092067 0.074598-0.16666 0.16666-0.16666h1.3333c0.092067 0 0.16666 0.074598 0.16666 0.16666z" fill="#fcec00" stroke-width=".0099823"/>
 <path d="m3.3261 4.4081-0.45023-0.12735 0.27623-0.95072c0.012562-0.041251-0.00718-0.086101-0.04485-0.10583-0.039468-0.019726-0.086101-0.010763-0.11481 0.021526l-1.0117 1.1911c-0.032288 0.039468-0.028706 0.096864 0.010763 0.12915 0.010763 0.00897 0.021526 0.014345 0.034087 0.017944l0.44485 0.12557-0.39284 1.0709c-0.016144 0.041251 0.0018 0.087901 0.041251 0.11121 0.039469 0.021525 0.087901 0.014344 0.11659-0.019726l1.1373-1.3149c0.032288-0.03767 0.028706-0.096864-0.00897-0.12915-0.012563-0.00897-0.023324-0.016144-0.03767-0.019726z" fill="#0042e8" stroke-width=".016817"/>
</svg>
