<svg width="64" height="64" version="1.0" xmlns="http://www.w3.org/2000/svg" xmlns:xlink="http://www.w3.org/1999/xlink">
 <defs>
  <g id="icon">
   <path d="m436 47v50h-50v50h50v50h50v-50h50v-50h-50v-50zm-122 145c-42 0-68 27-85 54-20-30-45-58-98-52-47 5-83 49-86 96-3 41 12 69 28 95 38 62 101 111 157 149 57-38 127-92 163-158 12-22 25-51 23-84-4-50-38-90-83-98-7-1-13-2-19-2zm-128 24c17 10 29 25 40 42-9 36-24 106-24 106l84-61-37 168h22l-44 49-26-60 21 6 13-92-71 50s14-142 21-208z"/>
  </g>
 </defs>
 <path d="m32 3.0675c16.029 0 28.932 12.904 28.932 28.932s-12.904 28.932-28.932 28.932-28.932-12.904-28.932-28.932 12.904-28.932 28.932-28.932z" color="#000000" fill="#ff0000" stroke-width="4.8221" style="-inkscape-stroke:none"/>
 <path d="m32 0.65625c-17.323 0-31.344 14.021-31.344 31.344s14.021 31.344 31.344 31.344 31.344-14.021 31.344-31.344-14.021-31.344-31.344-31.344zm0 4.8223c14.735 0 26.521 11.787 26.521 26.521s-11.787 26.521-26.521 26.521-26.521-11.787-26.521-26.521 11.787-26.521 26.521-26.521z" color="#000000" fill="#ffffff" style="-inkscape-stroke:none"/>
 <use transform="matrix(.11445 0 0 .11197 -1.2274 -.5284)" width="100%" height="100%" stroke="#ffffff" stroke-linejoin="round" stroke-width="50" xlink:href="#icon"/>
 <use transform="matrix(.11445 0 0 .11197 -1.2274 -.5284)" width="100%" height="100%" fill="#d20000" xlink:href="#icon"/>
</svg>
