<svg width="32" height="32" version="1.1" viewBox="0 0 8.47 8.47" xmlns="http://www.w3.org/2000/svg">
 <g transform="translate(-3.03 7.1)">
  <circle cx="7.23" cy="-2.87" r="3.96" fill="#ffc400" stroke="#f2b800" stroke-width=".495"/>
  <g transform="matrix(3.16 0 0 3.16 -10.1 -9.42)" stroke="#f2b800" stroke-linejoin="round">
   <path d="m5.24 1.31c0-.101-.0808-.271-.182-.271h-.0437v.384c0 .072-.0568.131-.129.131h-.182c-.072 0-.131-.0591-.131-.131v-.384h-.0437c-.101 0-.182.171-.182.271v.209c0 .101.104.23.182.294l.0441.0345-.0325 1.16c-.0014.0504.0416.092.092.092h.331c.0504 0 .0916-.0416.0897-.092l-.0423-1.16.0469-.0368c.0794-.0623.182-.196.182-.297z" fill="#006f00" stroke-width=".147"/>
   <path d="m5.31.88v.519h.956.299v-.131l-.372-.388z" color="#000000" fill="#5d0000" stroke-width=".147"/>
   <rect x="5.76" y="1.48" width=".365" height="1.76" color="#000000" fill="#5d0000" stroke-width=".15"/>
  </g>
  <g transform="matrix(3.22 0 0 3.22 -5.48 -21.4)" fill="#5d0000">
   <path d="m3.72 5c0-.102-.0813-.273-.183-.273h-.044v.387c0 .0725-.0572.132-.13.132h-.183c-.0725 0-.132-.0595-.132-.132v-.387h-.044c-.102 0-.183.172-.183.273v.211c0 .102.105.231.183.296l.0443.0347-.0327 1.16c-.00141.0508.0418.0926.0926.0926h.333c.0508 0 .0921-.0419.0903-.0926l-.0426-1.16.0472-.037c.0799-.0627.183-.197.183-.299z"/>
   <path d="m3.8 4.57v.523h.962.301v-.132l-.375-.391z" color="#000000"/>
   <rect x="4.24" y="5.17" width=".367" height="1.77" color="#000000"/>
  </g>
 </g>
</svg>
