<svg width="26" height="26" version="1.1" viewBox="0 0 6.88 6.88" xmlns="http://www.w3.org/2000/svg">
 <rect x=".265" y=".265" width="6.35" height="6.35" rx="1.27" fill="#00b100" stroke="#ffffff" stroke-width=".529"/>
 <rect x=".265" y=".265" width="6.35" height="6.35" rx="1.27" fill="#009500"/>
 <path d="m2.559 2.265c-0.411 0.0148-0.59 0.338-0.59 0.338l-1.33 1.79c-0.0565 0.0805-0.0915 0.173-0.0915 0.278 0 0.278 0.234 0.507 0.519 0.507 0.0683 0 0.136-0.0177 0.193-0.0397l0.885-1.02v1.59h2.65v-1.59l0.874 1.02c0.0599 0.022 0.116 0.0397 0.183 0.0397 0.285 0 0.519-0.228 0.519-0.507 0-0.105-0.0265-0.198-0.0814-0.278l-1.34-1.79s-0.166-0.323-0.58-0.338z" fill="#ffffff" stroke-width=".265"/>
 <circle cx="3.489" cy="1.265" r=".929" fill="#ffffff" stroke-width=".856"/>
 <rect x="3.229" y="3.005" width=".529" height="2.12" fill="#ff0000"/>
 <rect transform="rotate(-90)" x="-4.005" y="2.429" width=".529" height="2.12" fill="#ff0000"/>
</svg>
