<svg width="26" height="26" version="1.1" viewBox="0 0 6.88 6.88" xmlns="http://www.w3.org/2000/svg">
 <g transform="translate(-.592 -290)">
  <rect x=".856" y="290" width="6.35" height="6.35" rx="1.27" fill="#00b100" stroke="#ffffff" stroke-width=".529"/>
  <rect x=".856" y="290" width="6.35" height="6.35" rx="1.27" fill="#009500"/>
  <path d="m1.98 291s-.147.486.1.842c.126.206.444.423.734.523l.431.511c-.0805-.0571-.178-.113-.291-.157-.372-.144-.872.028-.865.0118 0 0 .176.544.563.696.221.104.693.0688.848-.226.264.336.503.543.722.68-.249-.0319-.501-.0396-.751-.0108-.338.0567-.519.313-.875.521-.0259.0188-.116.113-.148.117.331.209.657.535.973.575.62.0769 1.2-.418 1.18-1.02.131.048.255.0806.373.115.219.0641.364.135.571.325.207.19.371.502.614 1.05l.209-.0526c-.247-.56-.473-.888-.697-1.09-.224-.205-.445-.283-.668-.349-.102-.0298-.0792.001-.185-.0335.514-.325.433-1.75-.571-2.21-.312.953-.0315 1.65.344 2.12-.271-.126-.696-.405-1.05-.876.547-.601.385-1.28-.324-1.9-.33.751-.163 1.2.0931 1.61l-.386-.459c-.000132-.142-.0235-.441-.198-.692-.238-.341-.758-.612-.745-.622z" color="#000000" fill="#ffffff" stroke="#ffffff" stroke-linecap="round" stroke-linejoin="round" stroke-width=".0394" style="text-decoration-line:none;text-indent:0;text-transform:none"/>
 </g>
</svg>
