<svg width="64" height="64" version="1.1" viewBox="0 0 16.935 16.935" xmlns="http://www.w3.org/2000/svg">
 <rect x=".99553" y=".99553" width="14.944" height="14.944" rx="2.9889" fill="#00b100" stroke="#ffffff" stroke-width="1.245"/>
 <rect x=".99553" y=".99553" width="14.944" height="14.944" rx="2.9889" fill="#009500" stroke-width="2.3534"/>
 <g transform="matrix(.024205 0 0 .024205 1.674 1.407)" fill="#d20000">
  <path d="m375.3 171.6h0.1l-0.1-111c0-8.5-6.9-15.2-15.3-15.2l-39 0.1v141.5l39 0.1 0.05-0.1c8.85 0 15.25-7.3 15.25-15.4zm0 350.9 0.1-0.1-0.1-108c0-8.5-6.9-15.2-15.3-15.2h-39v138s39 0.1 39 0l0.05 0.4c8.85 0.4 15.25-6.9 15.25-15.1zm-189.3-237.5c-2.6 209 87 253 110 253l1-138c-19.3 0-23-21-27.6-64-2.9-28.7-3.7-64 0-99 2.7-24.7 7.3-48.9 27.5-48.9l-0.9-142.6c-23 2.5-107 41.5-110 239.5z" color="#000000" color-rendering="auto" image-rendering="auto" shape-rendering="auto" solid-color="#000000" stroke="#ffffff" stroke-linejoin="round" stroke-width="48.102" filter-blend-mode="normal" filter-gaussianBlur-deviation="0" isolation="auto" mix-blend-mode="normal"/>
  <path d="m375.3 171.6h0.1l-0.1-111c0-8.5-6.9-15.2-15.3-15.2l-39 0.1v141.5l39 0.1 0.05-0.1c8.85 0 15.25-7.3 15.25-15.4zm0 350.9 0.1-0.1-0.1-108c0-8.5-6.9-15.2-15.3-15.2h-39v138s39 0.1 39 0l0.05 0.4c8.85 0.4 15.25-6.9 15.25-15.1zm-189.3-237.5c-2.6 209 87 253 110 253l1-138c-19.3 0-23-21-27.6-64-2.9-28.7-3.7-64 0-99 2.7-24.7 7.3-48.9 27.5-48.9l-0.9-142.6c-23 2.5-107 41.5-110 239.5z"/>
 </g>
</svg>
