<svg enable-background="new 0 0 580 580" height="38" viewBox="0 0 38 38" width="38" xmlns="http://www.w3.org/2000/svg">
 <path d="m30.860821 14.565772c-2.598875-1.573387-5.197117-3.146774-7.795993-4.7201612-2.340444 1.6018902-4.735996 3.1461402-7.041603 4.7835022-1.77101 2.432922-3.542021 4.865211-5.313031 7.2975h2.632446v10.884493h19.599562c0-3.628164 0-7.256329 0-10.884493h2.552637c-1.544884-2.453825-3.089134-4.907016-4.634018-7.360841zm-10.236516 1.563252h4.957056v5.126176c-1.652563 0-3.304493 0-4.957056 0 0-1.708936 0-3.417239 0-5.126176zm8.220377 15.706c-3.827688 0-7.65601 0-11.483698 0 0-2.552003 0-5.10464 0-7.656643h11.483698zm-18.9458848-9.489094c-.3325395-.934912.6416428-1.575921 1.0533588-2.311308.335073-.564368 1.005853-1.019155.832299-1.748208-.01457-2.985888.0304-5.973677-.02407-8.9576646-.166586-2.7460797-3.0777323-4.9470479-5.7585075-4.1452159-2.2805243.5632902-3.7065171 2.9632754-3.4701924 5.2391125v22.569615h9.2527699c0-3.376068 0-6.751502 0-10.12757-.646077-.05637-1.532849.226127-1.8856578-.518761z" style="opacity:.8;fill:none;stroke:#ffffff;stroke-width:2.53363;stroke-linecap:round;stroke-linejoin:round"/>
 <path d="m16.307625 15.187146h13.753835v16.924044c-4.584612 0-9.169223 0-13.753835 0 0-5.641137 0-11.282907 0-16.924044z" style="opacity:.5;fill:#bebbb7;stroke-width:.747422;stroke-linecap:round;stroke-linejoin:round;stroke-opacity:.737"/>
 <g fill="#191919" stroke-width=".063341">
  <path d="m9.8987972 22.34593c-.3325395-.934912.6416428-1.575921 1.0533588-2.311308.335073-.564368 1.005853-1.019155.832299-1.748208-.01457-2.985888.0304-5.973677-.02407-8.9576646-.166586-2.7460797-3.0777323-4.9470479-5.7585075-4.1452159-2.2805243.5632902-3.7065171 2.9632754-3.4701924 5.2391125v22.569615h9.2527699c0-3.376068 0-6.751502 0-10.12757-.646077-.05637-1.532849.226127-1.8856578-.518761z"/>
  <path d="m30.860821 14.565772c-2.598875-1.573387-5.197117-3.146774-7.795993-4.7201612-2.340444 1.6018902-4.735996 3.1461402-7.041603 4.7835022-1.77101 2.432922-3.542021 4.865211-5.313031 7.2975h2.632446v10.884493h19.599562c0-3.628164 0-7.256329 0-10.884493h2.552637c-1.544884-2.453825-3.089134-4.907016-4.634018-7.360841zm-10.236516 1.563252h4.957056v5.126176c-1.652563 0-3.304493 0-4.957056 0 0-1.708936 0-3.417239 0-5.126176zm8.220377 15.706c-3.827688 0-7.65601 0-11.483698 0 0-2.552003 0-5.10464 0-7.656643h11.483698z"/>
 </g>
</svg>
