<svg width="34" height="34" version="1.1" viewBox="0 0 8.9958 8.9958" xmlns="http://www.w3.org/2000/svg">
 <g transform="translate(-.51412 -287.3)">
  <circle cx="5.006" cy="291.79" r="4.2256" fill="#ffc400" stroke="#f2b800" stroke-width=".52826"/>
  <path d="m9.1977 289.92-.69393 5.269h-2.3442l-.69118-5.2954h2.862l.56578-1.8921.32079.0937-.54263 1.8208.5239.004z" fill="#006f00" stroke="#f2b800" stroke-linejoin="round" stroke-width=".52917"/>
  <path d="m9.1977 289.92-.69393 5.269h-2.3442l-.69118-5.2954h2.862l.56578-1.8921.32079.0937-.54263 1.8208.5239.004z" fill="#5d0000" stroke-width=".26458"/>
  <path d="m5.2655 292.94s.087638-.70551-1.128-.70551h-1.936c-1.2137 0-1.128.70551-1.128.70551h4.1917z" fill="#5d0000" stroke-width=".26458"/>
  <path d="m1.0738 294.53s-.085984.70551 1.128.70551h1.936c1.2156 0 1.128-.70551 1.128-.70551z" fill="#006f00" stroke="#f2b800" stroke-linejoin="round" stroke-width=".52917"/>
  <path d="m5.0836 294.17c.19897 0 .35964-.19649.35964-.44067 0-.24582-.16067-.44122-.35964-.44122h-3.8448c-.19815 0-.35992.1954-.35992.44122 0 .24418.16177.44067.35992.44067z" fill="#006f00" stroke="#f2b800" stroke-linejoin="round" stroke-width=".52917"/>
  <path d="m1.0738 294.53s-.085984.70551 1.128.70551h1.936c1.2156 0 1.128-.70551 1.128-.70551z" fill="#5d0000" stroke-width=".26458"/>
  <path d="m5.0836 294.17c.19897 0 .35964-.19649.35964-.44067 0-.24582-.16067-.44121-.35964-.44121h-3.8448c-.19815 0-.35992.19539-.35992.44121 0 .24418.16177.44067.35992.44067z" fill="#5d0000" stroke-width=".26458"/>
 </g>
</svg>
