<svg width="34" height="34" version="1.1" viewBox="0 0 8.9958 8.9958" xmlns="http://www.w3.org/2000/svg">
 <g>
  <rect x=".26458" y=".26458" width="8.4667" height="8.4667" rx="1.3229" fill="#00a1ff" stroke="#ffffff" stroke-width=".52917"/>
  <rect x=".26458" y=".26458" width="8.4667" height="8.4667" rx="1.3229" fill="#1279ff"/>
  <path d="m6.5123 2.898h1.0339v1.1297h-1.0339v-1.1297z" fill="#1279ff" opacity=".765" stroke-linecap="round" stroke-linejoin="round" stroke-opacity=".737" stroke-width=".17347"/>
 </g>
 <g fill="#ffffff" stroke-width=".014701">
  <path d="m6.1304 2.3132v2.6973h1.7506v-2.6973h-1.7506zm1.2775 1.5615h-0.7096v-0.75708h0.7096z"/>
  <path d="m0.69155 4.2857c0.019963 0.4394 0.15609 0.87616 0.40703 1.239 0.35342-0.18538 0.77983-0.15539 1.1294 0.021757 0.38207 0.15759 0.7634-0.026902 1.1262-0.13378 0.40559-0.10776 0.75032 0.19963 1.1461 0.19273 0.39589 0.0069093 0.74091-0.30033 1.1465-0.19273 0.36266 0.10687 0.74415 0.29122 1.1259 0.13392 0.34841-0.17626 0.77325-0.20787 1.1258-0.023521 0.25006-0.36252 0.38604-0.79854 0.40574-1.2374-0.52246 0.036017-1.048 0.00926-1.5719 0.017494-1.9555 0-3.911 0.00147-5.8664-0.00147-0.058332-0.00221-0.11655-0.00764-0.17428-0.016318z"/>
  <path d="m8.3201 6.6801c-0.39559 0.0074973-0.74047-0.29916-1.1458-0.19155-0.36252 0.10702-0.74371 0.28901-1.1255 0.13348-0.35135-0.17788-0.77958-0.20625-1.1343-0.02014-0.37031 0.16612-0.76708 0.03587-1.1203-0.10129-0.40192-0.13069-0.75723 0.14642-1.1444 0.17773-0.40192 0.044837-0.74106-0.27725-1.1463-0.19875-0.24647-0.023227-0.71586 0.36649-0.82772 0.11246v-0.61375c0.39555 0.0070563 0.74019-0.30033 1.1455-0.19287 0.36296 0.10687 0.74444 0.29137 1.1265 0.13407 0.3509-0.17861 0.77943-0.20699 1.1337-0.020287 0.37046 0.16788 0.76737 0.035723 1.1206-0.10143 0.40221-0.13128 0.75767 0.14686 1.1452 0.17876 0.40177 0.044102 0.74047-0.27902 1.1458-0.19993 0.26314 0.072768 0.64051 0.162 0.82706 0.25447z"/>
 </g>
</svg>
