<svg xmlns="http://www.w3.org/2000/svg" xmlns:xlink="http://www.w3.org/1999/xlink" width="32" height="32" viewBox="0 0 8.467 8.467"><defs><linearGradient xlink:href="#prefix__a" id="prefix__b" x1="2617.333" y1="461.237" x2="2626.387" y2="444.744" gradientUnits="userSpaceOnUse"/><linearGradient id="prefix__a"><stop offset="0" stop-color="red"/><stop offset="1" stop-color="#ffe325"/></linearGradient><linearGradient xlink:href="#prefix__a" id="prefix__c" gradientUnits="userSpaceOnUse" x1="2617.333" y1="461.237" x2="2626.387" y2="444.744"/><linearGradient xlink:href="#prefix__a" id="prefix__d" gradientUnits="userSpaceOnUse" x1="2617.333" y1="461.237" x2="2626.387" y2="444.744"/></defs><g transform="translate(0 -288.533)"><rect width="6.839" height="6.838" x=".837" y="289.284" rx="3.419" fill="red" stroke="#fff" stroke-width=".57"/><rect rx="3.44" y="289.284" x=".837" height="6.879" width="6.879"/><g transform="matrix(.28274 0 0 .28274 -737.422 165.224)" fill="url(#prefix__b)" fill-rule="evenodd"><path d="M2618.912 457.79c-1.384-.78-2.227-2.605-1.605-5.332.437-1.913 1.71-4.275.734-6.24 1.184.817 2.414 2.762 3.655 4.96.085-2.377-1.147-3.933-.261-7.18.608 4.017 3.047 4.266 4.285 7.919.527-1.718 1.623-2.283 1.088-6.548 5.384 7.353 2.316 9.965 1.24 12.595l.348-3.654c-1.689 4.88-3.041 5.781-4.264 6.874.684-2.292.953-4.583-.435-6.874-.337 3.762-1.287 2.979-1.479 6.004-1.9-1.435-2.291-2.907-2.632-5.308-.259.28-.695 1.455-.674 2.784z" fill="url(#prefix__c)"/><path d="M2622.849 440.235c-1.408 5.718 1.163 5.667 2.589 9.028 1-5.182-1.992-4.016-2.589-9.028z" fill="url(#prefix__d)"/></g></g></svg>