<svg height="34" viewBox="0 0 8.9958 8.9958" width="34" xmlns="http://www.w3.org/2000/svg">
 <circle cx="4.4979" cy="4.4979" fill="#12ef12" r="4.2062" stroke="#00dc00" stroke-width=".52533"/>
 <g stroke-width="1.08177">
  <path d="m2.0554771 1.7607383c-.4963706 0-.8478517.3533148-1.0331703.7880828-.43476819.1853187-.78808284.5368-.78808284 1.0331704v1.8318172c.00000001.4963704.35331469.8478516.78808284 1.0331702.1848789.4357254.5361039.7880828 1.0331703.7880828.6607051 0 1.2127601-.5499418 1.2127601-1.2106474v-.619057h2.4593255v.619057c0 .6607056.5499421 1.2106474 1.2106474 1.2106474.4972106 0 .8504955-.3521588 1.035283-.7880828.4347682-.1853185.7880829-.5367998.7880829-1.0331702v-1.8318172c0-.4970664-.3544702-.8482913-.7901956-1.0331704-.185411-.4345662-.5369466-.7880828-1.0331703-.7880828-.6607054 0-1.2106474.5520548-1.2106474 1.2127602v.6190571h-2.4593255v-.6190571c0-.6607054-.5520549-1.2127602-1.2127601-1.2127602zm0 1.2021961c.015531 0 .010569-.00496.010569.010568v3.0509158c0 .015531.00496.00845-.010569.00845-.015531 0-.00845.00707-.00845-.00845v-.6021583h-.600043c-.015532 0-.010568.00708-.010568-.00845v-1.831815c0-.015531-.00496-.00845.010568-.00845h.6000417v-.6000464c0-.015531-.00707-.010568.00845-.010568zm4.882733 0c.015531 0 .010568-.00496.010568.010568v.6000419h.6000419c.015531 0 .010569-.00707.010569.00845v1.8318152c0 .015531.00496.00845-.010569.00845h-.6000457v.6021544c0 .015531.00496.00845-.010568.00845-.015531 0-.00845.00707-.00845-.00845v-3.0509154c0-.015531-.00707-.010568.00845-.010568z" fill="#00dc00"/>
  <path d="m2.0563109 2.3621239c-.3381183 0-.6103216.2722034-.6103216.6103217-.3381184 0-.61032179.2722036-.61032179.6103218v1.830965c0 .3381183.27220339.6103218.61032179.6103218 0 .3381181.2722033.6103215.6103216.6103215s.6103219-.2722034.6103219-.6103215v-3.0516086c0-.3381183-.2722036-.6103217-.6103219-.6103217m4.8825737 0c-.3381182 0-.6103218.2722034-.6103218.6103217v3.0516086c0 .3381181.2722036.6103215.6103218.6103215s.6103218-.2722034.6103218-.6103215c.3381183 0 .6103217-.2722035.6103217-.6103218v-1.830965c0-.3381182-.2722034-.6103218-.6103217-.6103218 0-.3381183-.2722036-.6103217-.6103218-.6103217m-3.9670912 1.8309652v.6103216h3.0516087v-.6103216z" fill="#004900"/>
 </g>
</svg>
