<svg width="38" height="38" version="1.1" viewBox="0 0 38 38" xmlns="http://www.w3.org/2000/svg">
 <g>
  <rect x="1.063" y="1.1122" width="36" height="36" rx="5" fill="#5d3e00" stroke="#fff" stroke-width="2"/>
  <rect x="1.063" y="1.1122" width="36" height="36" rx="5" fill="#743a00"/>
  <path d="m16.414 3.6c-0.1447 0.0195-0.2857 0.0799-0.3935 0.152-0.4315 0.28843-0.7203 0.7008-0.9385 1.332-0.1758 0.50844-0.5881 1.8613-0.9082 3.5118-0.3202 1.6504-0.3163 2.5937-0.4239 4.0265 0.1666-1.4414 0.4697-2.3583 0.8477-3.9356 0.4234-1.5353 1.0795-2.7736 1.3624-3.2393 0.1978-0.32565 0.3251-0.54295 0.4238-0.5449 0.1635 0 0.3593 0.49734 0.5146 1.0898-0.1874 0.76296-0.4338 1.8173-0.5146 2.543-0.1063 0.95375-0.1949 3.633-0.1817 3.633 0 0 0.4356-2.9731 0.545-3.633 0.064-0.38782 0.2102-0.95921 0.3633-1.5439 0.01 0.039 0.022 0.0838 0.03 0.12083 0.4518 2.1234 0.8866 5.6709 1.211 10.99-0.1503-0.9713-0.3202-1.828-0.4844-2.4522-0.1116-0.42465-0.1725-0.81051-0.3027-1.09-0.1303-0.27927-0.3159-0.49734-0.5752-0.66592-0.1297-0.0838-0.2736-0.13057-0.4542-0.12082v-0.0292c-0.1805 0.0214-0.3065 0.12082-0.4237 0.21183-0.1636 0.12278-0.2924 0.25374-0.3936 0.42387-0.2231-0.22703-0.4708-0.3845-0.7569-0.48428-0.3251-0.11303-0.6832-0.12862-0.999 0v-0.0312c-0.045 0.0195-0.079 0.0702-0.1211 0.0916-0.1102-0.0487-0.2181-0.12083-0.3331-0.15201-0.3443-0.0897-0.7086-0.0858-1.0596 0h-0.03c-0.8309-0.18514-1.7238 0.0916-2.4824 0.63571-0.7586 0.54372-1.4262 1.3975-2.0889 2.5128-1.3255 2.2304-2.5094 6.1318-2.8761 7.9015-0.3667 1.7699-0.7913 3.8018-0.9687 5.3283 0.3154-1.4616 0.9074-3.6431 1.3925-5.3283 0.4852-1.6852 1.9409-5.5048 3.2092-7.4172 0.6464-0.9748 1.3312-1.7187 1.9072-2.1496-0.3451 0.46207-0.6756 1.019-0.9991 1.6653-1.1139 2.2256-1.897 5.1525-2.3311 7.7501-0.4341 2.5976-0.6357 5.6007-0.6357 5.6007s0.5324-2.8952 1.0292-5.4795c0.4969-2.5843 1.5013-5.3657 2.5431-7.4476 0.521-1.0407 1.3923-1.737 1.8771-2.1494 0.1883-0.15981 0.3473-0.25744 0.5146-0.33306 0.07 0.0253 0.1386 0.0565 0.212 0.0916-0.3388 0.52229-0.6346 1.2149-0.9386 2.0283-0.8278 2.2152-1.5 5.3877-1.9073 8.0529-0.4073 2.6654-0.4844 4.844-0.4844 4.844s0.4058-2.0913 0.9991-4.7834c0.5933-2.6927 1.4886-5.6578 2.2705-7.7503 0.2933-0.7846 0.6342-1.4145 0.9386-1.8467 0.4367 0.34455 0.8997 0.82922 1.332 1.4532-0.01 0.0351-0.023 0.0546-0.03 0.0916-0.4405 2.1915-0.8956 5.5419-1.211 9.8694l-0.03 2.9063 0.6055-2.8459c0.2823-3.8729 0.8267-6.9004 1.2413-9.0217 0.1924 0.37281 0.3787 0.75965 0.5448 1.211 0.6243 1.6949 1.2907 3.9095 1.8468 6.5999 0.1914 1.3135 0.3551 2.4165 0.5147 3.976-0.02 9.8e-4 -0.04-1e-3 -0.061 0-0.3863 0.0195-0.7722 0.0429-1.1807 0.0916-4.3186 0.55561-7.3715 3.1142-11.322 2.987v1.7771h13.2 13.23v-1.7771c-4.0611 0.13057-7.1724-2.5434-11.686-3.0174-0.01-9.7e-4 -0.02 9.7e-4 -0.03 0-0.2611-0.0273-0.5464-0.0468-0.8173-0.0604-0.021-9.8e-4 -0.04 7.8e-4 -0.061 0 0.1444-1.4104 0.2839-2.7268 0.4542-3.9356 0.5733-2.8747 1.2523-4.8619 1.9073-6.6402 0.1642-0.44589 0.3551-0.8417 0.5449-1.211 0.4146 2.1213 0.9589 5.1468 1.2412 9.0217l0.6055 2.8459-0.03-2.9063c-0.3153-4.3276-0.7705-7.678-1.211-9.8694v-0.0604c0.4317-0.62694 0.8649-1.136 1.3019-1.4834 0.3044 0.43225 0.6755 1.0621 0.9688 1.8467 0.7819 2.0924 1.6772 5.0576 2.2706 7.7503 0.5932 2.6921 0.999 4.7834 0.999 4.7834s-0.078-2.1786-0.4844-4.844c-0.4073-2.6652-1.1098-5.8377-1.9376-8.0529-0.2999-0.80253-0.6051-1.479-0.9385-1.9981 0.083-0.039 0.164-0.0916 0.2422-0.12083 0.1639 0.076 0.3305 0.1754 0.5147 0.33306 0.4847 0.41237 1.3258 1.1087 1.8468 2.1494 1.0418 2.0819 2.0461 4.8633 2.543 7.4476 0.4968 2.5843 1.0292 5.4795 1.0292 5.4795s-0.2016-3.0031-0.6357-5.6007c-0.4341-2.5976-1.1868-5.5245-2.3008-7.7501-0.3162-0.63181-0.6624-1.179-0.999-1.6349 0.5693 0.4344 1.2423 1.1625 1.8769 2.1192 1.2682 1.9124 2.7542 5.7321 3.2394 7.4172 0.4851 1.6852 1.0771 3.8667 1.3926 5.3283-0.1775-1.5265-0.6021-3.5584-0.9688-5.3283-0.3667-1.7697-1.5808-5.6711-2.9063-7.9015-0.6628-1.1153-1.3303-1.9691-2.089-2.5128-0.7585-0.54509-1.6515-0.82085-2.4824-0.63571h-0.03c-0.351-0.0857-0.685-0.0897-1.0293 0-0.1149 0.0292-0.2229 0.10329-0.3331 0.15201-0.045-0.0234-0.074-0.0721-0.1211-0.0916v0.0312c-0.3157-0.12862-0.7042-0.11303-1.0292 0-0.2862 0.0994-0.5338 0.25725-0.7569 0.48428-0.1013-0.16954-0.1999-0.30012-0.3633-0.42387-0.1172-0.0897-0.2736-0.19098-0.4541-0.21183v0.0292c-0.1806 0-0.3244 0.039-0.4542 0.12082-0.2593 0.1676-0.4449 0.38665-0.5752 0.66592-0.1302 0.27946-0.1911 0.66533-0.3027 1.09-0.1438 0.54683-0.2896 1.281-0.4239 2.0889 0.321-5.1133 0.7092-8.5522 1.1505-10.626 0.01-0.0448 0.02-0.10329 0.03-0.15201 0.1573 0.59653 0.2976 1.1777 0.3632 1.5743 0.1094 0.65987 0.5753 3.633 0.5753 3.633 0.014 0-0.1057-2.6792-0.212-3.633-0.079-0.71522-0.2981-1.7491-0.4844-2.5126 0.1571-0.60433 0.3184-1.1202 0.4844-1.1202 0.099 0 0.2261 0.21924 0.4239 0.54489 0.2829 0.46577 0.9389 1.704 1.3624 3.2393 0.3779 1.5774 0.681 2.4943 0.8476 3.9356-0.1076-1.4328-0.1037-2.376-0.4239-4.0265-0.3201-1.6505-0.7021-3.0033-0.8779-3.5118-0.2183-0.63123-0.5373-1.0436-0.9688-1.332-0.2157-0.14422-0.5609-0.20599-0.7871-0.0604-0.2262 0.14616-0.3083 0.36871-0.4238 0.6055-0.022 0.0448-0.069 0.10328-0.091 0.152-0.097-0.26172-0.1934-0.45719-0.2724-0.54508-0.1581-0.1754-0.1839-0.27206-0.4542-0.27245-0.2632-3.9e-4 -0.8334 0.65052-0.999 2.6338-0.1657-1.9814-0.7055-2.6342-0.9688-2.6338-0.2703 3.9e-4 -0.296 0.0974-0.4541 0.27245-0.085 0.0935-0.1987 0.31746-0.3027 0.6055-0.027-0.0643-0.032-0.15396-0.061-0.21184-0.1156-0.23678-0.2279-0.45992-0.4541-0.6055-0.113-0.0721-0.2488-0.10718-0.3936-0.0916zm1.6954 1.332c0.1634-5.9e-4 0.3538 0.50981 0.5147 2.8459 0.07 1.0185 0.096 3.4763 0.1211 6.8117-0.2595-3.755-0.5486-6.4898-0.878-8.2348-0.067-0.35663-0.1673-0.62908-0.2422-0.90815 0.1805-0.34026 0.3619-0.51429 0.4844-0.51468zm1.8771 0c0.1141 1.9e-4 0.315 0.15785 0.4844 0.45407-0.08 0.29174-0.1707 0.58972-0.2422 0.96876-0.3285 1.7405-0.6191 4.4649-0.878 8.2044 0.025-3.3173 0.051-5.7662 0.1211-6.7813 0.1609-2.336 0.3512-2.8464 0.5147-2.8459zm-3.4514 9.9904c0.023 0.0351 0.065-2e-3 0.091 0.0604 0.092 0.19663 0.3105 0.54138 0.4844 0.90815 0.3506 0.73958 0.6302 1.888 0.8174 3.3908 0.12 0.9633 0.2405 2.1213 0.3633 3.3908-0.2073-1.3032-0.4344-2.5113-0.6661-3.5118-0.356-1.5374-0.7263-2.7656-1.1503-3.633-0.04-0.0818-0.08-0.13642-0.1211-0.21184 0.042-0.0819 0.09-0.20716 0.1211-0.27244 0.037-0.078 0.029-0.0741 0.06-0.12083zm5.0256 0c0.032 0.0468 0.023 0.0448 0.06 0.12082 0.03 0.0643 0.08 0.19099 0.1211 0.27245-0.04 0.0741-0.082 0.13252-0.1211 0.21184-0.424 0.86742-0.7943 2.0956-1.1503 3.633-0.2318 1.0005-0.4588 2.2086-0.6662 3.5118 0.1229-1.2695 0.2736-2.4275 0.3937-3.3908 0.1871-1.5027 0.4365-2.6512 0.7871-3.3908 0.1739-0.36677 0.423-0.71152 0.5146-0.90815 0.026-0.0624 0.037-0.0253 0.061-0.0604zm-5.298 2.1193c0.2495 0.59517 0.5263 1.2578 0.7266 2.0586-0.2393-0.77174-0.4772-1.456-0.7266-2.0586z" color="#000000" fill="#fff" style="text-decoration-line:none;text-indent:0;text-transform:none"/>
 </g>
</svg>
