<svg width="64" height="64" version="1.0" xmlns="http://www.w3.org/2000/svg">
 <path d="m18.352 14.057c0.04621-0.83184-0.35978-1.7014-1.1208-2.0848-0.7745-0.39008-1.786-0.21678-2.3538 0.33625-0.73254 0.7136-0.91976 1.9791-0.28021 2.7909 1.4007 1.7779 3.6665 0.54774 3.7548-1.0424zm13.114 0.59404-2.1968 5.6714c-1.7149 0.30262-2.7685 2.1072-2.5667 3.766v7.0613h2.2417c0.05604 1.1433-0.14571 2.3201 0.17933 3.4298 0.60525 1.67 3.2953 1.6588 3.8893-0.01121 0.32504-1.1096 0.12329-2.2865 0.17933-3.4185h15.243c0.05604 1.1433-0.14571 2.3201 0.17933 3.4185 0.60525 1.67 3.2504 1.6813 3.8893 0.01121 0.32504-1.1096 0.1345-2.2865 0.17933-3.4298h2.2417c0.02242-2.6003 0.02242-5.2903 0.02242-7.9803-0.11208-1.345-1.2329-2.5779-2.5779-2.8021-0.78458-2.2417-1.6813-4.4833-2.4658-6.725-0.6725-1.2329-2.0175-1.4571-3.2504-1.4571h-11.881c-1.5243-0.10088-2.9142 0.99754-3.3065 2.4658zm15.49-0.22417c1.2217 0 1.345 1.3898 1.7373 2.2417l1.345 3.5867h-18.382c0.65008-1.7149 1.2665-3.4634 1.9503-5.1558 0.20175-0.42592 0.65008-0.71733 1.0984-0.69492 4.0677 0.04606 8.1707 0.02242 12.251 0.02242zm-38.265 9.0339c-0.033625 0.85184 1.1657 1.1208 1.7597 0.52679 0.56042-1.4907 0.78458-2.3874 1.2329-3.5082 0.269-0.32504 0.35867-0.32504 0.22417 0.10088-0.16812 0.97513-0.41471 1.9503-0.52679 2.9142 0.06725 1.8718 0.10088 3.7548 0.15692 5.6042-0.77338 1.614-1.1433 2.5779-1.8942 4.1471-0.87425 2.0287 1.8158 3.2616 2.7124 0.90788 0.6725-1.4235 1.3786-2.8469 2.0175-4.2592-0.02242-1.1881-0.03362-2.1296 0-3.4298l2.1632 2.8021c0.19054 1.9951 0.38108 3.9678 0.57163 5.6042 0.38108 1.5916 2.5219 1.1096 2.3313-0.77338-0.24658-1.8494-0.35867-4.4273-0.69492-6.2206-0.78458-1.4571-1.7933-2.69-2.69-3.9229l0.44833-2.1296c0.59404 0.61646 1.2778 1.1433 1.9054 1.7261 1.4459 1.4907 2.6115-0.71733 1.5468-1.401-0.62767-0.57162-1.3114-1.1096-1.9054-1.6813-0.45954-1.0536-0.91908-2.1296-1.3898-3.1383-0.59404-0.68371-1.2778-1.0984-2.0511-1.0984-0.76217-0.17933-3.5306 2.0063-4.6459 2.9702-0.49877 1.4235-0.8014 2.903-1.2721 4.2592zm20.612 1.7709c-0.41471-1.2329 0.57162-2.6452 1.883-2.6115 1.6252-0.07846 2.5779 2.1072 1.5243 3.2953-0.89667 1.2329-3.0263 0.78458-3.4073-0.68371zm19.503 0.01121c-0.41471-1.2329 0.57162-2.6452 1.883-2.6115 1.6252-0.07846 2.5779 2.1072 1.5243 3.2953-0.89667 1.2329-3.0263 0.78458-3.4073-0.68371zm-40.529 23.369c5.2343-2.8918 11.545-4.9317 16.588-3.4746 5.1446 1.5692 9.415 5.3352 14.683 6.3888 6.0301 1.4571 12.329-0.17933 17.709-2.9142-0.6725-1.9278-1.7149-3.9229-1.9727-4.7748-4.8084 1.8718-10.872 3.3625-15.355 2.096-7.3975-2.7012-11.881-6.2879-18.83-6.9604-5.38 0.07846-10.76 2.1856-15.243 5.0438 0.24658 0.87425 1.9503 4.035 2.421 4.5954z" color="#000000" color-rendering="auto" fill="none" image-rendering="auto" opacity=".8" shape-rendering="auto" solid-color="#000000" stroke="#ffff00" stroke-linejoin="round" stroke-width="4.573" filter-blend-mode="normal" filter-gaussianBlur-deviation="0" isolation="auto" mix-blend-mode="normal" white-space="normal"/>
 <path d="m18.352 14.057c0.04621-0.83184-0.35978-1.7014-1.1208-2.0848-0.7745-0.39008-1.786-0.21678-2.3538 0.33625-0.73254 0.7136-0.91976 1.9791-0.28021 2.7909 1.4007 1.7779 3.6665 0.54774 3.7548-1.0424zm13.114 0.59404-2.1968 5.6714c-1.7149 0.30262-2.7685 2.1072-2.5667 3.766v7.0613h2.2417c0.05604 1.1433-0.14571 2.3201 0.17933 3.4298 0.60525 1.67 3.2953 1.6588 3.8893-0.01121 0.32504-1.1096 0.12329-2.2865 0.17933-3.4185h15.243c0.05604 1.1433-0.14571 2.3201 0.17933 3.4185 0.60525 1.67 3.2504 1.6813 3.8893 0.01121 0.32504-1.1096 0.1345-2.2865 0.17933-3.4298h2.2417c0.02242-2.6003 0.02242-5.2903 0.02242-7.9803-0.11208-1.345-1.2329-2.5779-2.5779-2.8021-0.78458-2.2417-1.6813-4.4833-2.4658-6.725-0.6725-1.2329-2.0175-1.4571-3.2504-1.4571h-11.881c-1.5243-0.10088-2.9142 0.99754-3.3065 2.4658zm15.49-0.22417c1.2217 0 1.345 1.3898 1.7373 2.2417l1.345 3.5867h-18.382c0.65008-1.7149 1.2665-3.4634 1.9503-5.1558 0.20175-0.42592 0.65008-0.71733 1.0984-0.69492 4.0677 0.04606 8.1707 0.02242 12.251 0.02242zm-38.265 9.0339c-0.033625 0.85184 1.1657 1.1208 1.7597 0.52679 0.56042-1.4907 0.78458-2.3874 1.2329-3.5082 0.269-0.32504 0.35867-0.32504 0.22417 0.10088-0.16812 0.97513-0.41471 1.9503-0.52679 2.9142 0.06725 1.8718 0.10088 3.7548 0.15692 5.6042-0.77338 1.614-1.1433 2.5779-1.8942 4.1471-0.87425 2.0287 1.8158 3.2616 2.7124 0.90788 0.6725-1.4235 1.3786-2.8469 2.0175-4.2592-0.02242-1.1881-0.03362-2.1296 0-3.4298l2.1632 2.8021c0.19054 1.9951 0.38108 3.9678 0.57163 5.6042 0.38108 1.5916 2.5219 1.1096 2.3313-0.77338-0.24658-1.8494-0.35867-4.4273-0.69492-6.2206-0.78458-1.4571-1.7933-2.69-2.69-3.9229l0.44833-2.1296c0.59404 0.61646 1.2778 1.1433 1.9054 1.7261 1.4459 1.4907 2.6115-0.71733 1.5468-1.401-0.62767-0.57162-1.3114-1.1096-1.9054-1.6813-0.45954-1.0536-0.91908-2.1296-1.3898-3.1383-0.59404-0.68371-1.2778-1.0984-2.0511-1.0984-0.76217-0.17933-3.5306 2.0063-4.6459 2.9702-0.49877 1.4235-0.8014 2.903-1.2721 4.2592zm20.612 1.7709c-0.41471-1.2329 0.57162-2.6452 1.883-2.6115 1.6252-0.07846 2.5779 2.1072 1.5243 3.2953-0.89667 1.2329-3.0263 0.78458-3.4073-0.68371zm19.503 0.01121c-0.41471-1.2329 0.57162-2.6452 1.883-2.6115 1.6252-0.07846 2.5779 2.1072 1.5243 3.2953-0.89667 1.2329-3.0263 0.78458-3.4073-0.68371zm-40.529 23.369c5.2343-2.8918 11.545-4.9317 16.588-3.4746 5.1446 1.5692 9.415 5.3352 14.683 6.3888 6.0301 1.4571 12.329-0.17933 17.709-2.9142-0.6725-1.9278-1.7149-3.9229-1.9727-4.7748-4.8084 1.8718-10.872 3.3625-15.355 2.096-7.3975-2.7012-11.881-6.2879-18.83-6.9604-5.38 0.07846-10.76 2.1856-15.243 5.0438 0.24658 0.87425 1.9503 4.035 2.421 4.5954z" color="#000000" color-rendering="auto" fill="#ff0000" image-rendering="auto" shape-rendering="auto" solid-color="#000000" stroke-width=".112" isolation="auto" mix-blend-mode="normal" white-space="normal"/>
</svg>
