<svg width="64" height="64" version="1.0" xmlns="http://www.w3.org/2000/svg">
 <title>ford</title>
 <g stroke-width=".10644">
  <path d="m20.298 22.437-12.992 9.2223c-1.008 0.71558-0.99526 2.3673 0 3.0867l12.845 9.2852c1.1722 0.84729 4.1858 0.08766 4.1313-1.1428v-3.5124h15.433v3.5124c0 1.17 2.6806 2.1633 4.2118 1.0595l12.765-9.2019c1.0365-0.74719 1.0176-2.3615 0-3.0867l-12.83-9.1435c-1.6782-1.1959-4.2023-0.10208-4.1464 1.0011v3.5124h-15.433v-3.5124c0.05657-1.0416-2.5815-2.0765-3.9853-1.0799z" fill="#ffff00" opacity=".8"/>
  <path d="m4.2201 48.637c-1.0505 0.89906-3.0867 1.6057-3.0867 3.0867v3.0867c0 1.5433 1.5433 3.0867 3.0867 3.0867 3.0867 0 6.1733-3.0867 9.26-3.0867 3.0867 0 4.63 3.0867 9.26 3.0867 4.63 0 6.1733-3.0867 9.26-3.0867s4.63 3.0867 9.26 3.0867c4.63 0 6.1733-3.0867 9.26-3.0867 3.0867 0 6.1733 3.0867 9.26 3.0867 2.0693 0 3.0867-1.5433 3.0867-3.0867v-3.0867c-0.37236-1.5433-1.655-2.2279-3.0867-3.0867-1.7352-0.83529-4.7203-3.0867-9.26-3.0867s-6.1733 3.0867-9.2455 2.9994c-3.0722-0.087255-4.9874-2.9994-9.2744-2.9994s-6.1733 3.0867-9.26 3.0867c-3.0867 0-4.6639-3.0867-9.26-3.0867-4.596 0-7.6919 2.0568-9.26 3.0867z" fill="#ffff00" opacity=".8"/>
  <path d="m21.197 30.117h21.607v-4.63l10.803 7.7166-10.803 7.7166v-4.63h-21.607v4.63l-10.803-7.7166 10.803-7.7166z" fill="#ff0000"/>
 </g>
 <path d="m4.2201 53.267c3.0867 0 6.1733-3.0867 9.26-3.0867 3.0867 0 6.1733 3.0867 9.26 3.0867 3.0867 0 6.1733-3.0867 9.26-3.0867s6.1733 3.0867 9.26 3.0867c3.0867 0 6.1733-3.0867 9.26-3.0867 3.0867 0 6.1733 3.0867 9.26 3.0867" fill="none" stroke="#ff0000" stroke-width="3.5124"/>
</svg>
