<svg height="29" viewBox="0 0 8.4667 7.6729" width="32" xmlns="http://www.w3.org/2000/svg">
	<g stroke-linecap="round">
		<path d="m4.2371.79 3.4314 6.0854h-6.871z" fill="#f00" stroke="#ff0" stroke-dashoffset=".18" stroke-linejoin="round" stroke-width="1.5875"/>
		<path d="m4.2371.79 3.4314 6.0854h-6.871z" fill="#f00" stroke="#f00" stroke-dashoffset=".18" stroke-linejoin="round" stroke-width="1.0583"/>
		<path d="m1.9907 4.7578h4.4948" fill="#ff0" stroke="#ff0" stroke-width=".52915"/>
		<path d="m1.9907 6.0809h4.4948" fill="#ff0" stroke="#ff0" stroke-width=".52915"/>
		<path d="m2.7752 6.8811 3.1737-2.9177" fill="#ff0" stroke="#ff0" stroke-width=".52915"/>
	</g>
	<path d="m2.8562.58341c-.014671.00011007-.029486.00047096-.044442.001035-.75475-.02209-1.3804.79174-1.1963 1.5281.12518.58723.71751 1.0659 1.325.97204.38658-.036817.75117-.26684.9555-.59635.18408-.08652.4123.053088.57981-.086817.13254-.082839.22455-.34426.38654-.29456.092043.062588.15685.23203.28939.20257.13438-.062588.24631-.35361.37517-.12351.06627.080997.1989.20263.29094.081132.11045-.1804.26718-.2354.38499-.027389.08468.11045.20048.086325.30541-.018604.13254-.1399.29078-.27597.37362-.45269-.0092041-.18224-.13421-.25797-.27595-.38499-.23563-.23563-.43798-.17312-.65888-.17312-.69032-.016564-1.4176.016599-2.0619-.016537-.25501-.3959-.57406-.6138-1.0289-.6103zm-.51677.9555c.025054-.0008916.051399.0003413.078548.0031.2209.049703.33649.44869.080616.5886v-.00155c-.21538.13622-.54845-.044171-.49506-.31109.038658-.17718.16053-.27276.3359-.27905z" fill="#ff0" stroke="#f00" stroke-width=".79375"/>
	<path d="m2.8565.58343c-.014672.00011005-.029407.00051094-.044363.001074-.75475-.022089-1.3807.79152-1.1966 1.5279.12518.58723.71791 1.0659 1.3254.97201.38658-.036817.7511-.26687.95543-.59638.18408-.08652.41228.053326.5798-.086579.13254-.082839.22469-.34428.38669-.29458.092043.062588.15636.23193.2889.20248.13438-.062588.24677-.35337.37563-.12327.06627.080997.1987.20239.29074.080898.11045-.1804.26703-.23549.38484-.027478.08468.11045.20055.086508.30548-.018421.13254-.1399.29095-.27613.37379-.45285-.009204-.18224-.13442-.25783-.27616-.38484-.23563-.23563-.43811-.173-.65901-.173-.69032-.016564-1.4175.016557-2.0618-.016579-.25501-.3959-.57399-.61385-1.0288-.61035zm-.51671.95559c.025054-.0008914.051138.000001.078288.00276.2209.049703.33693.4491.081052.58901v-.00184c-.21538.13622-.5486-.044243-.49522-.31117.038658-.17718.16051-.27248.33587-.27877z" fill="#ff0"/>
</svg>
