<svg width="19.998" height="40" version="1.1" viewBox="0 0 19.998 40" xmlns="http://www.w3.org/2000/svg" xmlns:xlink="http://www.w3.org/1999/xlink">
 <defs>
  <linearGradient id="a" x1="2357.8" x2="2359.1" y1="249.13" y2="218.73" gradientTransform="translate(-2348 -212.96)" gradientUnits="userSpaceOnUse" xlink:href="#b"/>
  <linearGradient id="b">
   <stop stop-color="#58f5f5" offset="0"/>
   <stop stop-color="#fff5f5" offset="1"/>
  </linearGradient>
 </defs>
 <g>
  <path d="m11.914 1.2574c-0.6374-0.0553-1.3426 2.8372-1.3426 3.8267 0.013 0.98954-0.5754 3.3467-0.7503 0.85905-0.086-1.2131-0.5621-1.1523-1.0661-0.46857-0.2083-0.49472-0.4486-0.87838-0.6712-0.85906-0.6377 0.0554-1.685 2.124-1.0662 5.0372 0.619 2.9132-0.5894 0.55666-1.5795-0.74193-0.99-1.2986-3.5754-0.41526-2.3691 1.9524l1.1845 2.3819s-3.9901-2.4075-2.764 0.15619c1.2264 2.5638 2.1004 4.6397 2.6458 5.7791 0.5449 1.1394-2.3198-1.501-2.4088-0.35143-0.1385 1.7922 1.9837 3.573 2.685 5.1934 0.7014 1.6204 1.2937 2.3477 2.2114 5.0372 0.484 1.4186 1.0858 3.3496 1.5794 4.9591-1.4849 0.40227-2.4876 1.2387-2.4876 2.2257 0 1.3744 1.9727 2.4991 4.4224 2.4991 2.4497 0 4.4226-1.1247 4.4226-2.4991 0-1.0718-1.189-1.9535-2.8827-2.3038 0.049-1.0671 0.1054-2.212 0.1579-3.3582 6e-4 -0.0133-7e-4 -0.0258 0-0.039 0.4813-1.5653 1.0812-3.4972 1.54-4.842 0.9176-2.6895 1.5493-3.4168 2.2507-5.0372 0.7014-1.6204 2.784-3.4012 2.6456-5.1934-0.089-1.1496-2.9141 1.5299-2.3692 0.39047 0.5453-1.1394 1.38-3.2544 2.6062-5.8182 1.2264-2.5638-2.7642-0.15621-2.7642-0.15621l1.2243-2.3429c1.2062-2.3677-1.3792-3.29-2.3693-1.9914-0.9901 1.2986-2.1984 3.6552-1.5794 0.74191 0.6187-2.9132-0.468-4.9817-1.1056-5.0372z" fill="#0c30c3" stroke="#000" stroke-width="2.5131"/>
  <path d="m8.2707 32.689c-0.3483-8.14-0.864-20.943-0.6904-23.697 0.1747-2.754 2.0681-5.5566 2.2428-3.0689 0.1748 2.4877 0.734 0.16265 0.7276-0.82689 0-0.98947 0.7188-3.8935 1.3563-3.8382 0.6378 0.0555 1.7125 2.1268 1.0937 5.04-0.619 2.9132 0.5874 0.54552 1.5775-0.75306 0.99-1.2986 3.5764-0.38158 2.3701 1.9861l-1.2064 2.3677s3.9988-2.4218 2.7725 0.14194c-1.2264 2.5638-2.084 4.665-2.6292 5.8045-0.545 1.1394 2.3088-1.5347 2.3975-0.38512 0.1383 1.7922-1.9739 3.5867-2.675 5.2071-0.7014 1.6204-1.3129 2.3585-2.2306 5.0479-0.9174 2.6895-2.384 7.606-2.384 7.606z" fill="url(#a)"/>
  <ellipse cx="10.137" cy="36.255" rx="4.4356" ry="2.4885" fill="#0068ff"/>
  <path d="m11.54 36.603c0.3485-8.14 1.051-21.509 0.8769-24.263-0.1746-2.754-2.0677-5.5566-2.2425-3.0689-0.1747 2.4877-0.7337 0.16265-0.7276-0.8269 0-0.98946-0.7188-3.8935-1.3562-3.8381-0.6377 0.0554-1.7126 2.1268-1.0938 5.04 0.6191 2.9132-0.5874 0.54552-1.5774-0.75305-0.9902-1.2986-3.5764-0.38159-2.3701 1.9861l1.2065 2.3677s-3.9988-2.4218-2.7726 0.14195c1.2263 2.5638 2.084 4.665 2.6291 5.8045 0.5451 1.1394-2.3085-1.5347-2.3975-0.38512-0.1385 1.7922 1.9738 3.5867 2.6752 5.2071 0.7013 1.6204 1.3126 2.3585 2.2303 5.048s2.3843 7.606 2.3843 7.606c0.4434 0.49851 1.8231 0.45969 2.5354-0.066z" fill="url(#a)"/>
 </g>
</svg>
