<svg width="34" height="34" version="1.1" viewBox="0 0 8.9958 8.9958" xmlns="http://www.w3.org/2000/svg">
 <g transform="translate(0 -288)">
  <circle cx="4.485" cy="292.5" r="4.2062" fill="#12ef12" stroke="#00dc00" stroke-width=".52533"/>
  <g transform="translate(.34467 2.9297)">
   <path d="m2.9674 287.68c-.5411 0-.97921.43296-.97921.96677 0 .53681.43811.96934.97921.96934.53809 0 .97621-.43296.97621-.96934 0-.53381-.43768-.96677-.97621-.96677zm4.9574 1.9121c-.035187-.20768-.20726-.32612-.21541-.33513l-5.747-3.795-.53295.77411c-.099121.15448-.056639.35572.095263.45656.15362.10084.3553.0592.45571-.0948l.31067-.44756 4.6674 3.0866-3.8246.69085c-.26905.0446-.46429.31711-.4055.58101l.83118 3.226-2.6896 4.0443c-.16134.27591-.063937.63163.21455.78826.28063.16005.63807.0627.7977-.21327 0 0 2.8068-4.2305 2.8188-4.2576 0 0 .14504.58701.14504.59002l-.4231 3.1749c-.052779.31454.16306.61062.47931.66383.31925.0536.62134-.16006.67498-.47416l.43426-3.2646c.011986-.0833-.00265-.26647-.023204-.34672l-.95818-3.8216 2.4961-.45056c.26604-.0476.4467-.30552.3995-.57543z" color="#000000" fill="#fc0" stroke="#00d400" stroke-width=".52917"/>
   <path d="m2.9674 287.68c-.5411 0-.97921.43297-.97921.96677 0 .53682.43811.96935.97921.96935.53809 0 .97621-.43297.97621-.96935 0-.5338-.43768-.96677-.97621-.96677zm4.9574 1.9121c-.035187-.20769-.20726-.32612-.21541-.33513l-5.747-3.795-.53295.7741c-.099121.15448-.056639.35573.095263.45657.15362.10084.3553.0592.45571-.0948l.31067-.44756 4.6674 3.0865-3.8246.69086c-.26905.0446-.46429.31711-.4055.581l.83118 3.226-2.6896 4.0443c-.16134.27591-.063937.63164.21455.78826.28063.16006.63807.0626.7977-.21326 0 0 2.8068-4.2305 2.8188-4.2576 0 0 .14504.58701.14504.59001l-.4231 3.1749c-.052779.31453.16306.61062.47931.66382.31925.0536.62134-.16005.67498-.47416l.43426-3.2646c.011986-.0832-.00265-.26647-.023204-.34671l-.95818-3.8216 2.4961-.45055c.26604-.0476.4467-.30552.3995-.57543z" fill="#004900" stroke-width=".26458"/>
  </g>
 </g>
</svg>
