<svg width="34" height="34" version="1.1" viewBox="0 0 8.9958 8.9958" xmlns="http://www.w3.org/2000/svg">
 <g transform="translate(0 -288)">
  <circle cx="4.485" cy="292.5" r="4.2062" fill="#12ef12" stroke="#00dc00" stroke-width=".52533"/>
  <path d="m5.2252 288.42c-0.37749 0-0.68349 0.30639-0.68348 0.68434 2.9e-6 0.37794 0.306 0.68432 0.68348 0.68432 0.37747 0 0.68347-0.30638 0.68348-0.68432 1.46e-5 -0.37795-0.30599-0.68434-0.68348-0.68434zm-1.2513 1.3591c-0.036809-9.6e-4 -0.074459 4e-3 -0.11096 0.0188-0.24561 0.10197-0.5096 0.19753-0.75183 0.29396-0.07456 0.0296-0.12892 0.0872-0.15844 0.15554-0.029514 0.0685-0.034184 0.14772-0.00464 0.22238 0.10452 0.24303 0.20124 0.5002 0.29979 0.74963 0.059028 0.1446 0.22368 0.21465 0.3697 0.15555 0.14602-0.0575 0.21749-0.22241 0.16156-0.36861l-0.1926-0.4821 0.48153-0.19281c0.14447-0.0592 0.21591-0.224 0.15921-0.37097-0.040188-0.11022-0.14287-0.17802-0.25329-0.18141zm0.84617 0.0667c-0.12735-9.6e-4 -0.2488 0.0728-0.30472 0.1964l-1.7289 4.0079c-0.073009 0.16798 0.00464 0.36239 0.17084 0.43393 0.16776 0.0716 0.36196-4e-3 0.43341-0.17106l1.5067-3.4994c0.072211 0.12053 0.13821 0.25564 0.20507 0.37482 0.037288 0.0669 0.099404 0.11356 0.1693 0.13228 0.068353 0.0203 0.14601 0.0145 0.21281-0.0234 0.217-0.13096 0.44973-0.25653 0.67416-0.38259 0.13048-0.0746 0.17707-0.24261 0.10484-0.37637-0.072225-0.13532-0.23843-0.18354-0.37047-0.11037l-0.43493 0.24575-0.32-0.57078c-0.02174-0.0995-0.090079-0.18664-0.19105-0.23017-0.041551-0.0179-0.084655-0.0266-0.1271-0.0268zm-0.12159 2.2568c-0.052879 1e-3 -0.10615 0.0156-0.15518 0.0439-0.15534 0.0902-0.21124 0.29083-0.1227 0.44791l0.29979 0.52101-0.52037 0.30018c-0.15534 0.0918-0.20815 0.29239-0.11806 0.44947 0.090093 0.15552 0.29048 0.2115 0.44737 0.12284 0.26978-0.14649 0.53868-0.3218 0.8093-0.45724 0.079216-0.0467 0.13356-0.12139 0.15531-0.2022 0.023306-0.0824 0.013923-0.17418-0.034155-0.25583-0.16329-0.25922-0.31383-0.53859-0.46758-0.80797-0.063001-0.10689-0.1774-0.16533-0.29373-0.16208zm1.9512 1.9242c-0.10252 0-0.18639 0.0131-0.19959 0.0185-1.5555 0.27938-3.1302 0.5444-4.6934 0.81339-0.41164 0.0761-0.7099 0.43393-0.7099 0.85228 0 0.47748 0.38833 0.86629 0.86521 0.86629h4.7377c0.69901 0 1.2738-0.5692 1.2738-1.2753 0-0.69988-0.56856-1.2753-1.2738-1.2753zm0.0016 0.21773c0.57474 0 1.0563 0.4728 1.0563 1.0576 0 0.27994-0.10873 0.54432-0.30756 0.74339-0.19883 0.19907-0.46292 0.30952-0.74252 0.30952h-4.7377c-0.35727 0-0.64773-0.29086-0.64773-0.64858 0-0.31105 0.22212-0.57543 0.52813-0.63764 1.5373-0.35068 3.1757-0.42065 4.6865-0.80951 0.0016-4e-3 0.076113-0.0148 0.16466-0.0148zm0.00304 0.14772c-0.50617 0-0.9165 0.41083-0.91649 0.91763-4.3e-6 0.5068 0.41033 0.91762 0.91649 0.91762 0.50616 0 0.9165-0.41082 0.91649-0.91762 4.4e-6 -0.5068-0.41033-0.91763-0.91649-0.91763zm-4.7377 0.80875c-0.2831 2e-5 -0.5126 0.22981-0.5126 0.51325-2.9e-6 0.28345 0.2295 0.51324 0.5126 0.51325 0.2831-1e-5 0.5126-0.2298 0.5126-0.51325 1.5e-6 -0.28344-0.2295-0.51323-0.5126-0.51325z" fill="#ffcc00" stop-color="#000000" stroke="#00d400" stroke-linejoin="round" stroke-width=".52917" style="-inkscape-stroke:none;font-variation-settings:normal"/>
  <path d="m5.2252 288.42c-0.37749 0-0.68349 0.30639-0.68348 0.68434 2.9e-6 0.37794 0.306 0.68432 0.68348 0.68432 0.37747 0 0.68347-0.30638 0.68348-0.68432 1.46e-5 -0.37795-0.30599-0.68434-0.68348-0.68434zm-1.2513 1.3591c-0.036809-9.6e-4 -0.074459 4e-3 -0.11096 0.0188-0.24561 0.10197-0.5096 0.19753-0.75183 0.29396-0.07456 0.0296-0.12892 0.0872-0.15844 0.15554-0.029514 0.0685-0.034184 0.14772-0.00464 0.22238 0.10452 0.24303 0.20124 0.5002 0.29979 0.74963 0.059028 0.1446 0.22368 0.21465 0.3697 0.15555 0.14602-0.0575 0.21749-0.22241 0.16156-0.36861l-0.1926-0.4821 0.48153-0.19281c0.14447-0.0592 0.21591-0.224 0.15921-0.37097-0.040188-0.11022-0.14287-0.17802-0.25329-0.18141zm0.84617 0.0667c-0.12735-9.6e-4 -0.2488 0.0728-0.30472 0.1964l-1.7289 4.0079c-0.073009 0.16798 0.00464 0.36239 0.17084 0.43393 0.16776 0.0716 0.36196-4e-3 0.43341-0.17106l1.5067-3.4994c0.072211 0.12053 0.13821 0.25564 0.20507 0.37482 0.037288 0.0669 0.099404 0.11356 0.1693 0.13228 0.068353 0.0203 0.14601 0.0145 0.21281-0.0234 0.217-0.13096 0.44973-0.25653 0.67416-0.38259 0.13048-0.0746 0.17707-0.24261 0.10484-0.37637-0.072225-0.13532-0.23843-0.18354-0.37047-0.11037l-0.43493 0.24575-0.32-0.57078c-0.02174-0.0995-0.090079-0.18664-0.19105-0.23017-0.041551-0.0179-0.084655-0.0266-0.1271-0.0268zm-0.12159 2.2568c-0.052879 1e-3 -0.10615 0.0156-0.15518 0.0439-0.15534 0.0902-0.21124 0.29083-0.1227 0.44791l0.29979 0.52101-0.52037 0.30018c-0.15534 0.0918-0.20815 0.29239-0.11806 0.44947 0.090093 0.15552 0.29048 0.2115 0.44737 0.12284 0.26978-0.14649 0.53868-0.3218 0.8093-0.45724 0.079216-0.0467 0.13356-0.12139 0.15531-0.2022 0.023306-0.0824 0.013923-0.17418-0.034155-0.25583-0.16329-0.25922-0.31383-0.53859-0.46758-0.80797-0.063001-0.10689-0.1774-0.16533-0.29373-0.16208zm1.9512 1.9242c-0.10252 0-0.18639 0.0131-0.19959 0.0185-1.5555 0.27938-3.1302 0.5444-4.6934 0.81339-0.41164 0.0761-0.7099 0.43393-0.7099 0.85228 0 0.47748 0.38833 0.86629 0.86521 0.86629h4.7377c0.69901 0 1.2738-0.5692 1.2738-1.2753 0-0.69988-0.56856-1.2753-1.2738-1.2753zm0.0016 0.21773c0.57474 0 1.0563 0.4728 1.0563 1.0576 0 0.27994-0.10873 0.54432-0.30756 0.74339-0.19883 0.19907-0.46292 0.30952-0.74252 0.30952h-4.7377c-0.35727 0-0.64773-0.29086-0.64773-0.64858 0-0.31105 0.22212-0.57543 0.52813-0.63764 1.5373-0.35068 3.1757-0.42065 4.6865-0.80951 0.0016-4e-3 0.076113-0.0148 0.16466-0.0148zm0.00304 0.14772c-0.50617 0-0.9165 0.41083-0.91649 0.91763-4.3e-6 0.5068 0.41033 0.91762 0.91649 0.91762 0.50616 0 0.9165-0.41082 0.91649-0.91762 4.4e-6 -0.5068-0.41033-0.91763-0.91649-0.91763zm-4.7377 0.80875c-0.2831 2e-5 -0.5126 0.22981-0.5126 0.51325-2.9e-6 0.28345 0.2295 0.51324 0.5126 0.51325 0.2831-1e-5 0.5126-0.2298 0.5126-0.51325 1.5e-6 -0.28344-0.2295-0.51323-0.5126-0.51325z" fill="#004900" stop-color="#000000" stroke-width=".12497" style="-inkscape-stroke:none;font-variation-settings:normal"/>
 </g>
</svg>
