<svg width="34" height="34" version="1.1" viewBox="0 0 8.9958 8.9958" xmlns="http://www.w3.org/2000/svg">
 <circle cx="4.4919" cy="4.49" r="4.2256" fill="#ffc400" stroke="#f2b800" stroke-width=".52826"/>
 <path id="hairdresser" d="m2.7148 0.92131v4.8699c-0.21446-0.16291-0.47796-0.27144-0.76641-0.27144-0.70244 0-1.2774 0.57492-1.2774 1.2774s0.57492 1.2774 1.2774 1.2774c0.61463 0 1.1258-0.44126 1.2454-1.0219h0.0639c0.11965 0.58062 0.63079 1.0219 1.2454 1.0219 0.70244 0 1.2774-0.57492 1.2774-1.2774s-0.57492-1.2774-1.2774-1.2774c-0.28844 0-0.55195 0.10853-0.76641 0.27144v-4.8699zm2.0438 0v1.0219h2.0438v0.51094h-2.0438v0.51094h2.0438v0.51094h-2.0438v0.51094h2.0438v0.51094h-2.0438v0.51094h2.0438v3.0656h1.0219v-6.1313c0-0.51094-0.51094-1.0219-1.0219-1.0219zm-2.8102 5.1094c0.42631 0 0.76641 0.34011 0.76641 0.76641 0 0.4263-0.3401 0.76641-0.76641 0.76641-0.4263 0-0.76641-0.34011-0.76641-0.76641 0-0.4263 0.34011-0.76641 0.76641-0.76641zm2.5547 0c0.42631 0 0.76642 0.34011 0.76642 0.76641 0 0.4263-0.34011 0.76641-0.76642 0.76641-0.4263 0-0.76641-0.34011-0.76641-0.76641 0-0.4263 0.34011-0.76641 0.76641-0.76641z" fill="#5d0000" stop-color="#000000" style="-inkscape-stroke:none;font-variation-settings:normal"/>
</svg>
