<svg width="34" height="34" version="1.1" viewBox="0 0 8.9958 8.9958" xmlns="http://www.w3.org/2000/svg">
 <g transform="translate(-.52149 -287.3)">
  <rect x=".78608" y="287.57" width="8.4667" height="8.4667" rx="1.3229" fill="#00a1ff" stroke="#fff" stroke-width=".52917"/>
  <rect x=".78608" y="287.57" width="8.4667" height="8.4667" rx="1.3229" fill="#1279ff"/>
  <g transform="translate(-.0056293 .16326)" fill="#fff">
   <path d="m5.1243 293.37h-3.4727c-.19844 0-.39688-.19844-.39688-.39688v-.93337c0-.39688.19082-.5877.39688-.79376 0 0 .52769-.52184.65995-.65412.13229-.13227.39688-.39687.79375-.39687h.92755v-.79375h-1.5875-.79375c-.21987 0-.39688.0393-.39688-.18056s.17701-.36179.39688-.36179h.79375 1.3891.39688 1.7859.39688.39688c.21987 0 .39688-.0744.39688.14547s-.17701.39688-.39688.39688h-.39688-.39688-1.5875v.79375h1.1906 1.6991c.13737-.2369.38862-.39688.68215-.39688.43839 0 .79375.35537.79375.79375 0 .43839-.35536.79375-.79375.79375-.229 0-.42564-.10529-.57049-.26043l-1.4022.41038c-.54581.15974-.70623 1.8344-.90466 1.8344zm2.8773-3.175c-.21918 0-.39688.17768-.39688.39687 0 .2192.17769.39688.39688.39688.21921 0 .39688-.17768.39688-.39688 0-.21919-.17767-.39687-.39688-.39687z" color="#000000"/>
   <path d="m1.5406 294.16h5.028" stroke="#fff" stroke-linecap="round" stroke-width=".52917"/>
  </g>
 </g>
</svg>
