<svg width="32" height="32" version="1.0" xmlns="http://www.w3.org/2000/svg">
 <defs></defs>
 <path d="m16.136 2.4413c-4.9363-0.20784-8.8333 5.1441-7.2225 9.7686 0.57157 2.3382 2.65 3.949 4.5206 5.0402 1.6108 2.0784 4.0529 5.4559 3.6372 7.8461-0.36372 1.0392-1.4029 1.6627-2.1304 2.3902-0.51961 0.77941-0.57157 1.9745 0.46765 2.0784 6.3912-2.9098 3.8451-8.0539 2.9618-11.431-0.36372-1.6627 0.20784-1.0392 2.702-2.8059 4.9882-5.0921 1.6627-12.834-4.9882-12.886z" stroke="#ffffff" stroke-linejoin="round" stroke-width="2.598"/>
 <path d="m16.136 2.4413c-4.9363-0.20784-8.8333 5.1441-7.2225 9.7686 0.57157 2.3382 2.65 3.949 4.5206 5.0402 1.6108 2.0784 4.0529 5.4559 3.6372 7.8461-0.36372 1.0392-1.4029 1.6627-2.1304 2.3902-0.51961 0.77941-0.57157 1.9745 0.46765 2.0784 6.3912-2.9098 3.8451-8.0539 2.9618-11.431-0.36372-1.6627 0.20784-1.0392 2.702-2.8059 4.9882-5.0921 1.6627-12.834-4.9882-12.886z" fill="#dd0000" stroke-width=".051961"/>
 <circle cx="16.134" cy="9.8818" r="4" fill="#00ceff" stroke-width=".057758"/>
</svg>
