<svg width="64" height="64" version="1.0" xmlns="http://www.w3.org/2000/svg">
 <defs></defs>
 <path d="m32.251 6.9899c-9.1053-0.38338-16.294 9.4887-13.323 18.019 1.0543 4.313 4.8881 7.2843 8.3386 9.297 2.9712 3.8338 7.476 10.064 6.7092 14.473-0.67092 1.9169-2.5878 3.0671-3.9297 4.4089-0.95846 1.4377-1.0543 3.6421 0.86261 3.8338 11.789-5.3674 7.0926-14.856 5.4632-21.086-0.67092-3.0671 0.38338-1.9169 4.984-5.1757 9.2012-9.3929 3.0671-23.674-9.2012-23.77z" stroke="#ffffff" stroke-linejoin="round" stroke-width="4.7923"/>
 <path d="m32.251 6.9899c-9.1053-0.38338-16.294 9.4887-13.323 18.019 1.0543 4.313 4.8881 7.2843 8.3386 9.297 2.9712 3.8338 7.476 10.064 6.7092 14.473-0.67092 1.9169-2.5878 3.0671-3.9297 4.4089-0.95846 1.4377-1.0543 3.6421 0.86261 3.8338 11.789-5.3674 7.0926-14.856 5.4632-21.086-0.67092-3.0671 0.38338-1.9169 4.984-5.1757 9.2012-9.3929 3.0671-23.674-9.2012-23.77z" fill="#dd0000" stroke-width=".095846"/>
</svg>
