<svg width="32" height="32" version="1.1" viewBox="0 0 32 32" xmlns="http://www.w3.org/2000/svg">
 <g>
  <rect x="1" y="1.183" width="30" height="30" rx="5" fill="#6a3600" stroke="#fff" stroke-width="2"/>
  <rect x="1" y="1.183" width="30" height="30" rx="5" fill="#743a00"/>
  <path d="m7.9307 8.453a0.091409 0.093593 0 0 0-0.03052 0.0312 0.091409 0.093593 0 0 0 0 0.0312l-3.8151 8.4062a0.091409 0.093593 0 0 0 0 0.0312 0.091409 0.093593 0 0 0 0 0.0312 0.091409 0.093593 0 0 0 0 0.0312 0.091409 0.093593 0 0 0 0.03052 0.0312 0.091409 0.093593 0 0 0 0.03052 0 0.091409 0.093593 0 0 0 0.03052 0h0.67146l-1.2513 2.3438a0.091409 0.093593 0 0 0-0.03052 0.0312 0.091409 0.093593 0 0 0 0 0.0312 0.091409 0.093593 0 0 0 0 0.0312 0.091409 0.093593 0 0 0 0.03052 0.0312 0.091409 0.093593 0 0 0 0.03052 0.0312 0.091409 0.093593 0 0 0 0.03052 0h0.82406l-1.4955 2.5312a0.091409 0.093593 0 0 0 0 0.0312 0.091409 0.093593 0 0 0 0 0.0312 0.091409 0.093593 0 0 0 0 0.0312 0.091409 0.093593 0 0 0 0 0.0312 0.091409 0.093593 0 0 0 0.03052 0 0.091409 0.093593 0 0 0 0.03052 0.0312 0.091409 0.093593 0 0 0 0.03052 0l3.8761-0.625v4.25a0.091409 0.093593 0 0 0 0 0.0312 0.091409 0.093593 0 0 0 0.03052 0.0312 0.091409 0.093593 0 0 0 0.03052 0 0.091409 0.093593 0 0 0 0 0.0312 0.091409 0.093593 0 0 0 0.03052 0h0.91562 0.03052 0.94614a0.091409 0.093593 0 0 0 0.03052-0.0312 0.091409 0.093593 0 0 0 0.03052 0 0.091409 0.093593 0 0 0 0-0.0312 0.091409 0.093593 0 0 0 0.03052-0.0312v-4.2188l3.8456 0.59375a0.091409 0.093593 0 0 0 0.03052 0 0.091409 0.093593 0 0 0 0.03052 0 0.091409 0.093593 0 0 0 0.03052-0.0312 0.091409 0.093593 0 0 0 0.03052-0.0312 0.091409 0.093593 0 0 0 0-0.0312 0.091409 0.093593 0 0 0 0-0.0312 0.091409 0.093593 0 0 0-0.03052-0.0312l-1.4955-2.5312h0.82406a0.091409 0.093593 0 0 0 0.03052 0 0.091409 0.093593 0 0 0 0.03052-0.0312 0.091409 0.093593 0 0 0 0.03052-0.0312 0.091409 0.093593 0 0 0 0-0.0312 0.091409 0.093593 0 0 0 0-0.0312 0.091409 0.093593 0 0 0 0-0.0312l-1.2819-2.3438h0.70198a0.091409 0.093593 0 0 0 0.03052 0 0.091409 0.093593 0 0 0 0.03052 0 0.091409 0.093593 0 0 0 0-0.0312 0.091409 0.093593 0 0 0 0.03052 0 0.091409 0.093593 0 0 0 0-0.0312 0.091409 0.093593 0 0 0 0-0.0312 0.091409 0.093593 0 0 0 0-0.0312l-3.8151-8.4062v-0.0312a0.091409 0.093593 0 0 0-0.03052 0 0.091409 0.093593 0 0 0-0.03052-0.0312 0.091409 0.093593 0 0 0-0.03052 0 0.091409 0.093593 0 0 0-0.03052 0 0.091409 0.093593 0 0 0-0.03052 0z" color="#000000" fill="#fff" fill-rule="evenodd" style="text-decoration-line:none;text-indent:0;text-transform:none"/>
  <path d="m20.462 6.4126-8.4864 8.5263h1.9978v11.009h5.0212v-6.0343h3.002l1e-5 6.0343h4.9541v-11.009h2.0641z" fill="#fff"/>
 </g>
</svg>
