<svg width="32" height="32" version="1.1" viewBox="0 0 32 32" xmlns="http://www.w3.org/2000/svg">
 <rect x="1" y="1.183" width="30" height="30" rx="5" fill="#6a3600" stroke="#fff" stroke-width="2"/>
 <rect x="1" y="1.183" width="30" height="30" rx="5" fill="#743a00"/>
 <g fill="#fff">
  <path d="m7.6205 7.715c-1.424 0-2.5783 1.1543-2.5783 2.5783 0 1.424 1.1544 2.5783 2.5783 2.5783s2.5783-1.1543 2.5783-2.5783c0-1.424-1.1544-2.5783-2.5783-2.5783z" color="#000000"/>
  <path d="m11.488 10.293c0 2.136-1.7315 3.8675-3.8675 3.8675h-1.9338c-0.32564 0-0.64627 0-0.64459 0.64458 4.6e-4 0.17532 0 0.79374 0 1.2892 0 0.64458 0.50093 0.64458 0.64459 0.64458h21.271v-2.5783c0-1.2892 0-3.8675-6.4458-3.8675z" color="#000000"/>
  <path d="m6.3313 18.205c-0.64458 0-1.2892 0.64458-1.2892 1.2892-3.1e-4 1.2772 0 2.7646 0 3.8675 0 0.64457 0.64459 1.2892 1.2892 1.2892s1.2892-0.6446 1.2892-1.2892v-2.5783h16.759v2.5783c0 0.64457 0.64459 1.2892 1.2892 1.2892s1.2892-0.6446 1.2892-1.2892v-3.8675c0-0.64459-0.64459-1.2892-1.2892-1.2892z" color="#000000"/>
 </g>
</svg>
