<svg width="34" height="34" version="1.1" viewBox="0 0 8.9958 8.9958" xmlns="http://www.w3.org/2000/svg">
 <g>
  <circle cx="4.4979" cy="4.4979" r="4.2256" fill="#ffc400" stroke="#f2b800" stroke-width=".52826"/>
  <path d="m3.339 0.44166c-0.9601 0-1.7384 0.77832-1.7384 1.7384 0 0.20602 0.042881 0.39609 0.10865 0.57947h3.2595c0.065784-0.18338 0.10865-0.37345 0.10865-0.57947 0-0.96009-0.77832-1.7384-1.7384-1.7384zm2.3179 0c-0.23402 0-0.44812 0.061018-0.6519 0.14487 0.39866 0.4163 0.6519 0.97163 0.6519 1.5935 0 0.20095-0.039927 0.39347-0.090538 0.57947h1.7203c0.065784-0.18338 0.10865-0.37345 0.10865-0.57947 0-0.96009-0.77832-1.7384-1.7384-1.7384zm-3.332 2.8974 2.173 5.2152 2.173-5.2152z" fill="#006f00" opacity=".8" stop-color="#000000" stroke="#f2b800" stroke-linejoin="round" stroke-width=".81106" style="-inkscape-stroke:none;font-variation-settings:normal"/>
  <path id="ice-cream" d="m3.339 0.44166c-0.9601 0-1.7384 0.77832-1.7384 1.7384 0 0.20602 0.042881 0.39609 0.10865 0.57947h3.2595c0.065784-0.18338 0.10865-0.37345 0.10865-0.57947 0-0.96009-0.77832-1.7384-1.7384-1.7384zm2.3179 0c-0.23402 0-0.44812 0.061018-0.6519 0.14487 0.39866 0.4163 0.6519 0.97163 0.6519 1.5935 0 0.20095-0.039927 0.39347-0.090538 0.57947h1.7203c0.065784-0.18338 0.10865-0.37345 0.10865-0.57947 0-0.96009-0.77832-1.7384-1.7384-1.7384zm-3.332 2.8974 2.173 5.2152 2.173-5.2152z" fill="#5d0000" stop-color="#000000" style="-inkscape-stroke:none;font-variation-settings:normal"/>
 </g>
</svg>
