<svg width="20" height="21" version="1.1" viewBox="0 0 20 21" xmlns="http://www.w3.org/2000/svg">
 <rect x="1" y="1" width="18" height="19" rx="4" fill="#5a2700" stroke="#fff" stroke-width="2"/>
 <rect x="1" y="1" width="18" height="19" rx="4" fill="#743a00"/>
 <path d="m11.826 15.19c0 1.6518 0.10843 1.8644 1.0371 1.9366l0.53215 0.04541c0.22548 0.14053 0.22548 0.68348-0.0274 0.82778-0.9831-0.04541-2.0788-0.07203-3.3686-0.07203-1.2626 0-2.4396 0.02349-3.364 0.07203-0.25719-0.14445-0.25719-0.68728-0.031319-0.82778l0.53211-0.045409c0.92889-0.07203 1.0371-0.28498 1.0371-1.9366v-3.5656c0-0.94552 0-1.2265-0.53211-1.5113l-0.39236-0.21256c-0.19847-0.14445-0.19847-0.56577 0-0.71006 1.3168-0.30769 3.3099-0.94553 4.1487-1.3708 0.22548 0 0.39702 0.072028 0.50506 0.21256-0.05872 0.71006-0.08534 1.7467-0.08534 2.8099v4.3478zm0.22548-10.678c0 1.1316-1.0372 1.7239-2.1059 1.7239-1.231 0-1.9616-0.71006-1.9616-1.6784 0-1.0404 0.97856-1.7239 2.1014-1.7239 1.1815 0 1.9661 0.73289 1.9661 1.6784z" fill="#fff" stroke-width="3.9146"/>
</svg>
