<svg width="33" height="28" version="1.1" viewBox="0 0 33 28" xmlns="http://www.w3.org/2000/svg">
 <g>
  <path d="m16.022 4.183-10 5.9938v17.006h20v-16.911z" fill="#f00" stroke="#fff" stroke-width="2"/>
  <path d="m16.022 1.183-0.93126 0.608-13.069 8.128a1.8875 1.8865 0 1 0 1.8936 3.264l12.137-7.52 12.075 7.488a1.9013 1.9004 0 0 0 1.8936-3.296l-13.007-8.064z" color="#000000" fill="#f00" stroke="#fff" stroke-width="2" style="text-decoration-line:none;text-indent:0;text-transform:none"/>
  <path d="m16.047 4-10 5.9938v17.006h20v-16.911z" fill="#743a00"/>
  <path d="m16.047 1-0.93126 0.608-13.069 8.128a1.8875 1.8865 0 1 0 1.8936 3.264l12.137-7.52 12.075 7.488a1.9013 1.9004 0 0 0 1.8936-3.296l-13.007-8.064z" color="#000000" fill="#743a00" style="text-decoration-line:none;text-indent:0;text-transform:none"/>
 </g>
 <path d="m18.019 22.935c0 1.8015 0.11826 2.0335 1.1312 2.1122l0.58039 0.04953c0.24592 0.15327 0.24592 0.74545-0.02989 0.90282-1.0722-0.04953-2.2673-0.07856-3.674-0.07856-1.3771 0-2.6607 0.02562-3.669 0.07856-0.2805-0.15754-0.2805-0.74959-0.03416-0.90282l0.58035-0.04953c1.0131-0.07856 1.1312-0.31082 1.1312-2.1122v-3.8889c0-1.0312 0-1.3377-0.58035-1.6483l-0.42793-0.23183c-0.21646-0.15754-0.21646-0.61707 0-0.77444 1.4362-0.33558 3.61-1.0312 4.5248-1.4951 0.24592 0 0.43301 0.07856 0.55085 0.23183-0.06404 0.77444-0.09307 1.9051-0.09307 3.0647v4.742zm0.24592-11.646c0 1.2342-1.1312 1.8802-2.2969 1.8802-1.3426 0-2.1394-0.77444-2.1394-1.8305 0-1.1347 1.0673-1.8802 2.2919-1.8802 1.2886 0 2.1444 0.79933 2.1444 1.8305z" fill="#fff" stroke-width="4.2695"/>
</svg>
