<svg width="34" height="34" version="1.1" viewBox="0 0 8.9958 8.9958" xmlns="http://www.w3.org/2000/svg">
 <circle cx="4.4979" cy="4.4979" r="4.2017" fill="#5cecf2" stroke="#35e1ff" stroke-width=".52477"/>
 <g fill="#000090">
  <path d="m4.241 1.0778c-0.025929 8.8e-4 -0.051991 6e-3 -0.076041 0.0163l-2.7787 1.1802c-0.077761 0.0328-0.13081 0.1167-0.12761 0.20106 0.00318 0.0844 0.062574 0.16357 0.14266 0.19032l3.4004 1.1432c0.053472 0.0179 0.11422 0.013 0.16412-0.0133l2.6636-1.4023c0.073528-0.0387 0.11914-0.12442 0.11041-0.20707-0.00873-0.0826-0.071252-0.15704-0.15124-0.17957l-3.2853-0.92109c-0.020108-6e-3 -0.041275-8e-3 -0.062283-8e-3zm0.58386 0.88286c0.015875 8e-5 0.031909 2.9e-4 0.048101 8.7e-4 0.25932 6e-3 0.53324 0.0593 0.82185 0.15981 0.19243 0.067 0.33795 0.13692 0.43648 0.20965 0.098531 0.0727 0.14168 0.14091 0.12933 0.2045-0.012171 0.0636-0.070167 0.11904-0.17357 0.16583-0.08853 0.04-0.19516 0.0677-0.31962 0.0833-0.095224 0.0112-0.23032 0.0125-0.40516 4e-3l0.2608 0.0906-0.47302 0.21395-2.4316-0.84676 0.50993-0.23071 0.84291 0.29343c-0.020373-0.0475-0.016404-0.0918 0.0127-0.13318 0.028628-0.0413 0.082047-0.0795 0.15981-0.11471 0.15044-0.0681 0.34393-0.1017 0.58126-0.10053zm-0.026591 0.31319c-0.086969-8.8e-4 -0.15581 0.0105-0.20577 0.0331-0.068686 0.0311-0.090752 0.0679-0.066172 0.11127 0.024606 0.0433 0.1062 0.0893 0.24445 0.13747 0.1515 0.0528 0.28247 0.0811 0.39309 0.0855 0.11062 4e-3 0.19841-8e-3 0.26379-0.0374 0.060378-0.0273 0.077497-0.0621 0.051541-0.10396-0.025929-0.0418-0.11766-0.0901-0.2758-0.14521-0.13933-0.0485-0.26154-0.0749-0.3669-0.0795-0.013229-8.8e-4 -0.025665-1e-3 -0.038232-1e-3z" color="#000000" style="text-decoration-line:none;text-indent:0;text-transform:none"/>
  <path d="m1.4385 2.2914c-0.057679-1e-3 -0.11528 0.0225-0.15518 0.0641-0.039899 0.0417-0.061436 0.10079-0.057785 0.15836l0.23672 3.7586c0.00476 0.0752 0.053393 0.14606 0.12195 0.17737l3.1378 1.4355c0.063024 0.0287 0.14026 0.0236 0.19876-0.0135 0.058499-0.0371 0.096467-0.10494 0.097393-0.17419l0.059372-4.0698c0-0.0885-0.060007-0.17434-0.14409-0.20191l-3.4332-1.1243c-0.019844-6e-3 -0.040825-0.01-0.06178-0.0103zm0.94697 1.4149c0.065061-1e-3 0.14592 0.0102 0.2431 0.0349 0.12954 0.0328 0.27085 0.0829 0.4228 0.15123 0.24395 0.10961 0.43979 0.2135 0.58909 0.31117 0.1493 0.0977 0.27562 0.21783 0.37846 0.36106 0.072258 0.0996 0.13126 0.22072 0.17656 0.36422 0.04535 0.14351 0.070379 0.27306 0.075221 0.38719l0.045138 1.0697c0.00503 0.11413 0.015346 0.20755 0.030903 0.27792 0.01561 0.0704 0.046514 0.16465 0.093424 0.28425l-0.76406-0.34284c-0.033338-0.0762-0.05498-0.13254-0.065723-0.16945-0.010848-0.0369-0.022489-0.0929-0.034846-0.16707-0.10168 0.0693-0.20402 0.10479-0.30721 0.10769-0.14113 2e-3 -0.3066-0.0387-0.49726-0.12431-0.25329-0.1138-0.44892-0.26712-0.58592-0.46003-0.13697-0.1929-0.20939-0.38804-0.21773-0.58434-0.00794-0.18412 0.033099-0.31418 0.12271-0.39035 0.089588-0.0762 0.26014-0.0859 0.51229-0.0293 0.30231 0.0672 0.49805 0.10699 0.58751 0.11956 0.089456 0.0126 0.1841 0.0191 0.28347 0.019-0.00503-0.11413-0.028919-0.20341-0.072072-0.26762-0.043259-0.0642-0.11692-0.11956-0.2209-0.16628-0.1333-0.0599-0.23233-0.0805-0.29692-0.0618-0.050403 0.0147-0.089641 0.0669-0.11721 0.15757l-0.78147-0.4434c0.022754-0.14204 0.059293-0.24464 0.11083-0.3088 0.051567-0.0642 0.12846-0.1056 0.22963-0.12431 0.018256-3e-3 0.038497-5e-3 0.060166-6e-3zm0.56377 1.635c-0.051276 1e-3 -0.087524 9e-3 -0.10848 0.0238-0.04318 0.0298-0.062918 0.077-0.060193 0.14094 0.00317 0.0731 0.027755 0.14256 0.074427 0.20903 0.04662 0.0665 0.1129 0.11943 0.19955 0.15836 0.090646 0.0407 0.17433 0.0532 0.25022 0.038 0.07583-0.0152 0.12795-0.0517 0.15753-0.10927 0.029607-0.0576 0.042148-0.14406 0.037227-0.2597l-0.00635-0.14807c-0.11001-5e-3 -0.22458-0.0177-0.34441-0.0372-0.081597-0.012-0.14827-0.0171-0.19952-0.0159z" color="#000000" style="text-decoration-line:none;text-indent:0;text-transform:none"/>
  <path d="m7.549 2.0251c-0.028919 2e-3 -0.057547 0.01-0.083344 0.0227l-2.6937 1.3911c-0.067098 0.0348-0.11226 0.10829-0.11295 0.18387l-0.044688 4.0843c0 0.0763 0.043471 0.15143 0.11081 0.18731 0.067363 0.0359 0.1546 0.0309 0.21741-0.0125l2.4711-1.7017c0.05162-0.0355 0.085778-0.0952 0.090223-0.15767l0.26636-3.7737c0.00397-0.0592-0.018256-0.11975-0.059716-0.16197-0.041751-0.0422-0.10226-0.0654-0.16153-0.0619zm-0.71144 2.1115c0.00926-1e-5 0.018785 2.1e-4 0.027464 8.8e-4 0.1424 0.0105 0.23667 0.0909 0.28138 0.2423l-0.64185 0.4425c-0.013758-0.0593-0.045111-0.0921-0.094483-0.098-0.049398-6e-3 -0.11832 0.017-0.20667 0.0675-0.11155 0.0637-0.20503 0.15239-0.28054 0.26721-0.075512 0.11483-0.12004 0.24885-0.13319 0.40169-0.011642 0.13621 0.013758 0.22018 0.076041 0.25175 0.062415 0.0316 0.14703 0.0172 0.25305-0.0434 0.088371-0.0505 0.16428-0.11459 0.22815-0.19161 0.063844-0.077 0.11464-0.16825 0.15206-0.27366l0.63455-0.29773c-0.04617 0.14601-0.1134 0.28852-0.20193 0.42661-0.08853 0.13809-0.19722 0.26837-0.32692 0.39095-0.12973 0.12257-0.29136 0.23883-0.48461 0.34927-0.18664 0.10665-0.34044 0.17871-0.46183 0.21696-0.12144 0.0382-0.22402 0.0467-0.30715 0.0245-0.083185-0.0222-0.14589-0.0682-0.1882-0.13791-0.042307-0.0697-0.056541-0.18646-0.042545-0.3497 0.014552-0.17052 0.057732-0.32991 0.12933-0.47858 0.05244-0.10906 0.12084-0.21911 0.20492-0.32995 0.084111-0.11083 0.16917-0.20613 0.25477-0.28569 0.13581-0.12605 0.30626-0.24779 0.51168-0.36518 0.26916-0.15382 0.47453-0.23041 0.61651-0.2307z" color="#000000" style="text-decoration-line:none;text-indent:0;text-transform:none"/>
 </g>
</svg>
