<svg width="34" height="34" version="1.1" viewBox="0 0 8.9958 8.9958" xmlns="http://www.w3.org/2000/svg">
 <circle cx="4.4979" cy="4.4979" r="4.2256" fill="#ffc400" stroke="#f2b800" stroke-width=".52826"/>
 <path d="m1.5379 0.52976a0.26123 0.26123 0 0 0-0.20671 0.25632v7.4166a0.26123 0.26123 0 0 0 0.25632 0.26458h5.8208a0.26123 0.26123 0 0 0 0.25632-0.26458v-7.4166a0.26123 0.26123 0 0 0-0.25632-0.25632h-5.8208a0.26123 0.26123 0 0 0-0.049609 0z" color="#000000" fill="#f2b800" stroke="#f2b800" stroke-width=".52917" style="text-decoration-line:none;text-indent:0;text-transform:none"/>
 <g fill="none" stroke="#5d0000" stroke-linecap="round" stroke-linejoin="round">
  <path d="m1.5906 0.78949v7.418h5.8147v-7.418z" stroke-width=".5224"/>
  <path d="m4.4849 2.9124c0.88013 0 1.5943 0.71468 1.5943 1.5948-2.6e-6 0.88013-0.71418 1.5943-1.5943 1.5943-0.88013 0-1.5948-0.71418-1.5948-1.5943s0.71468-1.5948 1.5948-1.5948z" stroke-width=".53873"/>
  <path d="m5.5732 4.54h-0.30229" stroke-width=".52917"/>
 </g>
 <g fill="#5d0000">
  <path d="m5.4161 1.3142c-0.21712 0-0.39688 0.17976-0.39688 0.39688 0 0.21711 0.17976 0.40514 0.39688 0.40514 0.21712 0 0.39688-0.18803 0.39688-0.40514 0-0.21712-0.17976-0.39688-0.39688-0.39688z" color="#000000" style="text-decoration-line:none;text-indent:0;text-transform:none"/>
  <path d="m4.3579 1.3142c-0.21712 0-0.39688 0.17976-0.39688 0.39688 0 0.21711 0.17976 0.40514 0.39688 0.40514 0.21712 0 0.39688-0.18803 0.39688-0.40514 0-0.21712-0.17976-0.39688-0.39688-0.39688z" color="#000000" style="text-decoration-line:none;text-indent:0;text-transform:none"/>
  <path d="m6.4743 1.3142c-0.21712 0-0.39688 0.17976-0.39688 0.39688 0 0.21711 0.17976 0.40514 0.39688 0.40514 0.21712 0 0.39688-0.18803 0.39688-0.40514 0-0.21712-0.17976-0.39688-0.39688-0.39688z" color="#000000" style="text-decoration-line:none;text-indent:0;text-transform:none"/>
 </g>
</svg>
