<svg width="34" height="34" version="1.1" viewBox="0 0 9 9" xmlns="http://www.w3.org/2000/svg">
 <g transform="translate(0 -288)">
  <circle cx="4.59" cy="293" r="4.2" fill="#5cecf2" stroke="#35e1ff" stroke-width=".525"/>
  <g transform="translate(.0472 -.52)" fill="#000090">
   <path d="m1.36 290v.314c1.19.759 3.18.762 3.18 1.9v-.322c0-1.14-1.98-1.13-3.18-1.89z" color="#000000"/>
   <path d="m1.36 291v3.8c1.19 1.14 2.78.759 2.78 1.52h.397v-3.42c0-1.14-1.99-1.14-3.18-1.9z" color="#000000"/>
   <path d="m7.71 290c-1.19.759-3.18.754-3.18 1.89v.322c0-1.14 1.98-1.14 3.18-1.9z" color="#000000"/>
   <path d="m7.71 291c-1.19.759-3.18.759-3.18 1.9v3.42h.397c0-.759 1.59-.38 2.78-1.52z" color="#000000"/>
  </g>
 </g>
</svg>
