<svg id="SVGRoot" width="36" height="36" version="1.1" viewBox="0 0 36 36" xmlns="http://www.w3.org/2000/svg">
 <g fill="#fff">
  <g stroke="#000" stroke-linecap="round" stroke-linejoin="round" stroke-width="1.8">
   <path d="m18.031 1.3125a0.32773 0.32773 0 0 0-0.0312 0.0312l-4.6875 2.625a0.32773 0.32773 0 0 0-0.0312 0c-0.14171 0.0929-0.25 0.28226-0.25 0.46875 0 0.1189 0.0157 0.26569 0.125 0.375 0.10929 0.10931 0.25608 0.15626 0.375 0.15625h9.25c0.1227 1e-5 0.25389-0.0241 0.375-0.125s0.18748-0.27651 0.1875-0.40625c-5e-5 -0.18568-0.14046-0.37536-0.28125-0.46875l-4.75-2.625a0.32773 0.32773 0 0 0-0.25-0.0312 0.32773 0.32773 0 0 0-0.0312 0zm-4.6875 8.6875c-0.19575 1e-5 -0.41487 0.0707-0.5625 0.21875-0.14763 0.14804-0.18751 0.3354-0.1875 0.53125-1e-5 0.19564 0.0398 0.41478 0.1875 0.5625 0.14774 0.14772 0.36691 0.18751 0.5625 0.1875h0.46875l-3.1562 23.438a0.32773 0.32773 0 0 0 0.0937 0.28125 0.32773 0.32773 0 0 0 0.25 0.0937h14.312a0.32773 0.32773 0 0 0 0.25-0.0937 0.32773 0.32773 0 0 0 0.0937-0.28125l-3.0938-23.438h0.4375c0.19563 1e-5 0.41479-0.0398 0.5625-0.1875 0.14771-0.14773 0.18748-0.36692 0.1875-0.5625-2e-5 -0.19585-0.0399-0.38323-0.1875-0.53125-0.14761-0.14802-0.36675-0.21874-0.5625-0.21875h-9.6562z" color="#000000" style="text-decoration-line:none;text-indent:0;text-transform:none"/>
   <path d="m1.3126 4.25a0.32773 0.32773 0 0 0-0.125 0.0937 0.32773 0.32773 0 0 0-0.0937 0.25l0.0312 5.625a0.32773 0.32773 0 0 0 0.0937 0.21875 0.32773 0.32773 0 0 0 0.28125 0.0937l13.281-1.6562a0.32773 0.32773 0 0 0 0.1875-0.0937 0.32773 0.32773 0 0 0 0.0937-0.21875v-2.2812a0.32773 0.32773 0 0 0-0.0937-0.21875 0.32773 0.32773 0 0 0-0.1875-0.0937 0.32773 0.32773 0 0 0-0.0312 0l-13.281-1.7188a0.32773 0.32773 0 0 0-0.0937 0 0.32773 0.32773 0 0 0-0.0625 0zm33.656 0-13.281 1.7188a0.32773 0.32773 0 0 0-0.125 0.0312 0.32773 0.32773 0 0 0-0.15625 0.28125v2.2188a0.32773 0.32773 0 0 0 0.0937 0.25 0.32773 0.32773 0 0 0 0.1875 0.0937l13.281 1.6875a0.32773 0.32773 0 0 0 0.1875-0.0312 0.32773 0.32773 0 0 0 0.0937-0.0625 0.32773 0.32773 0 0 0 0.0937-0.21875v-5.625a0.32773 0.32773 0 0 0-0.1875-0.3125 0.32773 0.32773 0 0 0-0.1875-0.0312z" color="#000000" style="text-decoration-line:none;text-indent:0;text-transform:none"/>
   <path d="m18.25 5.0312c-1.3165 0-2.4062 1.0898-2.4062 2.4062 0 1.3165 1.0898 2.375 2.4062 2.375 1.3165 0 2.375-1.0585 2.375-2.375 0-1.3165-1.0585-2.4062-2.375-2.4062z" color="#000000" style="text-decoration-line:none;text-indent:0;text-transform:none"/>
  </g>
  <path d="m18.031 1.3125a0.32773 0.32773 0 0 0-0.0312 0.0312l-4.6875 2.625a0.32773 0.32773 0 0 0-0.0312 0c-0.14171 0.0929-0.25 0.28226-0.25 0.46875 0 0.1189 0.0157 0.26569 0.125 0.375 0.10929 0.10931 0.25608 0.15626 0.375 0.15625h9.25c0.1227 1e-5 0.25389-0.0241 0.375-0.125s0.18748-0.27651 0.1875-0.40625c-5e-5 -0.18568-0.14046-0.37536-0.28125-0.46875l-4.75-2.625a0.32773 0.32773 0 0 0-0.25-0.0312 0.32773 0.32773 0 0 0-0.0312 0zm-4.6875 8.6875c-0.19575 1e-5 -0.41487 0.0707-0.5625 0.21875-0.14763 0.14804-0.18751 0.3354-0.1875 0.53125-1e-5 0.19564 0.0398 0.41478 0.1875 0.5625 0.14774 0.14772 0.36691 0.18751 0.5625 0.1875h0.46875l-3.1562 23.438a0.32773 0.32773 0 0 0 0.0937 0.28125 0.32773 0.32773 0 0 0 0.25 0.0937h14.312a0.32773 0.32773 0 0 0 0.25-0.0937 0.32773 0.32773 0 0 0 0.0937-0.28125l-3.0938-23.438h0.4375c0.19563 1e-5 0.41479-0.0398 0.5625-0.1875 0.14771-0.14773 0.18748-0.36692 0.1875-0.5625-2e-5 -0.19585-0.0399-0.38323-0.1875-0.53125-0.14761-0.14802-0.36675-0.21874-0.5625-0.21875h-9.6562z" color="#000000" style="text-decoration-line:none;text-indent:0;text-transform:none"/>
 </g>
 <path d="m1.3126 4.25a0.32773 0.32773 0 0 0-0.125 0.0937 0.32773 0.32773 0 0 0-0.0937 0.25l0.0312 5.625a0.32773 0.32773 0 0 0 0.0937 0.21875 0.32773 0.32773 0 0 0 0.28125 0.0937l13.281-1.6562a0.32773 0.32773 0 0 0 0.1875-0.0937 0.32773 0.32773 0 0 0 0.0937-0.21875v-2.2812a0.32773 0.32773 0 0 0-0.0937-0.21875 0.32773 0.32773 0 0 0-0.1875-0.0937 0.32773 0.32773 0 0 0-0.0312 0l-13.281-1.7188a0.32773 0.32773 0 0 0-0.0937 0 0.32773 0.32773 0 0 0-0.0625 0zm33.656 0-13.281 1.7188a0.32773 0.32773 0 0 0-0.125 0.0312 0.32773 0.32773 0 0 0-0.15625 0.28125v2.2188a0.32773 0.32773 0 0 0 0.0937 0.25 0.32773 0.32773 0 0 0 0.1875 0.0937l13.281 1.6875a0.32773 0.32773 0 0 0 0.1875-0.0312 0.32773 0.32773 0 0 0 0.0937-0.0625 0.32773 0.32773 0 0 0 0.0937-0.21875v-5.625a0.32773 0.32773 0 0 0-0.1875-0.3125 0.32773 0.32773 0 0 0-0.1875-0.0312z" color="#000000" fill="#ffff53" style="text-decoration-line:none;text-indent:0;text-transform:none"/>
 <path d="m18.25 5.0312c-1.3165 0-2.4062 1.0898-2.4062 2.4062 0 1.3165 1.0898 2.375 2.4062 2.375 1.3165 0 2.375-1.0585 2.375-2.375 0-1.3165-1.0585-2.4062-2.375-2.4062z" color="#000000" fill="#ffc800" style="text-decoration-line:none;text-indent:0;text-transform:none"/>
</svg>
