<svg width="32" height="29" version="1.1" viewBox="0 0 8.4667 7.6729" xmlns="http://www.w3.org/2000/svg">
 <g transform="translate(0 -289.33)">
  <path d="m4.2371 290.12 3.4314 6.0854h-6.871z" fill="#f00" stroke="#ff0" stroke-dashoffset=".18" stroke-linecap="round" stroke-linejoin="round" stroke-width="1.5875"/>
  <path d="m4.2371 290.12 3.4314 6.0854h-6.871z" fill="#f00" stroke="#f00" stroke-dashoffset=".18" stroke-linecap="round" stroke-linejoin="round" stroke-width="1.0583"/>
  <g fill="#ff0">
   <path d="m5.7229 294.59c-.035957-3e-5-.071728.0143-.097181.0388-.0254.0245-.04019.0591-.040164.0938v1.5913c-2.64e-5.0347.014552.0693.040164.0938.025665.0245.061225.0389.097181.0388h.50083c.035957 1e-5.071676-.0143.097129-.0388.0254-.0246.040217-.0591.04019-.0938v-1.5913c2.64e-5-.0347-.014552-.0693-.04019-.0938-.025665-.0246-.061172-.0389-.097129-.0388z" color="#000000" style="text-decoration-line:none;text-indent:0;text-transform:none"/>
   <path d="m2.74 294.36 3.4175-.76186" stroke="#ff0" stroke-linecap="round" stroke-width=".50573"/>
   <path d="m2.3202 293.26c-.045879 0-.09144.0177-.1239.0482-.032438.0304-.051276.0732-.051276.11631v2.846c0 .0431.018786.0859.051276.11634.032464.0305.078026.0482.1239.0482h.44342c.045879 0 .091493-.0177.12388-.0482.032438-.0305.051276-.0733.051276-.11634v-1.4342c-.22162.0639-.48744.007-.63063-.16944-.21714-.2439-.10634-.67488.21384-.7886.13891-.0302.27789-.0602.4168-.0902v-.36354c0-.0431-.018785-.0859-.051276-.11635-.032385-.0305-.077999-.0482-.12388-.0482z" color="#000000" style="text-decoration-line:none;text-indent:0;text-transform:none"/>
  </g>
 </g>
</svg>
