<svg height="38" width="38" xmlns="http://www.w3.org/2000/svg">
 <path d="m13.325744 25.651382v6.24189h3.462122v-6.24189zm2.235931-14.044043a1.9783552 1.9783552 0 0 0 -1.427981.503766 1.9783552 1.9783552 0 0 0 -.149608 2.793774l3.738034 4.161259a1.9783552 1.9783552 0 0 0 2.793775.149609 1.9783552 1.9783552 0 0 0 .149728-2.793775l-3.738033-4.161259a1.9783552 1.9783552 0 0 0 -1.365915-.653374zm9.723593 3.581901a1.3255061 1.4530807 0 0 0 -.43834.04824l-5.984998 1.795713a1.3253735 1.4529354 0 0 0 -.928559 1.784836 1.3253735 1.4529354 0 0 0 1.628241 1.017929l5.54159-1.662575 5.971084 2.773087a1.3253735 1.4529354 0 0 0 1.737394-.771041 1.3253735 1.4529354 0 0 0 -.703349-1.904613l-6.394539-2.969721a1.3255061 1.4530807 0 0 0 -.428524-.111855zm-10.852137-6.3847732a2.6977383 2.6977383 0 0 1 -2.697739 2.6977372 2.6977383 2.6977383 0 0 1 -2.6977379-2.6977372 2.6977383 2.6977383 0 0 1 2.6977379-2.6977385 2.6977383 2.6977383 0 0 1 2.697739 2.6977385zm11.930844 16.8469152v6.24189h3.462122v-6.24189zm-20.5420705-13.899442-2.6545508 2.22251 1.1113757 1.327275 10.6966906 12.77563 9.574809-2.671939 7.295427 3.238736 1.582176.702398 1.404797-3.164355-1.582177-.702397-8.432522-3.743589-8.621736 2.40617-9.263035-11.063284z" fill="none" opacity=".8" stroke="#ffffff" stroke-linejoin="round" stroke-width="3.95671"/>
 <path d="m11.736328 6.1074219a2.6977383 2.6977383 0 0 0 -2.6992186 2.6972656 2.6977383 2.6977383 0 0 0 2.6992186 2.6972655 2.6977383 2.6977383 0 0 0 2.697266-2.6972655 2.6977383 2.6977383 0 0 0 -2.697266-2.6972656zm3.826172 5.5000001a1.9783552 1.9783552 0 0 0 -1.429688.503906 1.9783552 1.9783552 0 0 0 -.148437 2.792969l3.738281 4.162109a1.9783552 1.9783552 0 0 0 .617188.460938 1.3253735 1.4529354 0 0 0 1.222656.308594l5.541016-1.66211 5.970703 2.773438a1.3253735 1.4529354 0 0 0 1.738281-.771485 1.3253735 1.4529354 0 0 0 -.705078-1.904297l-6.394531-2.970703a1.3255061 1.4530807 0 0 0 -.427735-.111328 1.3255061 1.4530807 0 0 0 -.4375.04883l-4.134765 1.240235a1.9783552 1.9783552 0 0 0 -.04687-.05664l-3.738287-4.162112a1.9783552 1.9783552 0 0 0 -1.365234-.652344zm-9.7402344.144531-2.6542968 2.222656 1.1113281 1.326172 9.0468751 10.808594v5.783203h3.460937v-4.320312l7.763672-2.166016 1.8125.804688v5.68164h3.462891v-4.144531l2.019531.896484 1.582031.701172 1.404297-3.164062-1.582031-.701172-8.431641-3.744141-8.623047 2.40625-9.2617182-11.064453z" fill="#755741" stroke-width=".061824"/>
</svg>
