<svg width="34" height="34" version="1.1" viewBox="0 0 34 34" xmlns="http://www.w3.org/2000/svg">
 <circle cx="17" cy="17" r="16" fill="#ffc400" stroke="#f2b800" stroke-width="2.0002"/>
 <g fill="#5d0000">
  <path d="m9.5625 5.0704a0.50005 0.50005 0 0 0-0.375 0.375l-2 6.7812a0.50005 0.50005 0 0 0 0.25 0.59375c2.0721 0.9814 4.3409 1.0908 6.6875 0a0.50005 0.50005 0 0 0 0.28125-0.40625l0.6875-6.7812a0.50005 0.50005 0 0 0-0.5-0.5625h-4.9062a0.50005 0.50005 0 0 0-0.125 0zm0.5 1h3.9688l-0.5625 5.9062c-1.8521 0.78972-3.5411 0.70856-5.1875 0.0312l1.7812-5.9375z" color="#000000" stroke="#f2b800" stroke-width="2" style="text-decoration-line:none;text-indent:0;text-transform:none"/>
  <path d="m19.5 5.0704a0.50005 0.50005 0 0 0-0.40625 0.53125l0.5625 6.8125a0.50005 0.50005 0 0 0 0.28125 0.40625c2.0721 0.9814 4.3409 1.0908 6.6875 0a0.50005 0.50005 0 0 0 0.28125-0.59375l-1.9062-6.7812a0.50005 0.50005 0 0 0-0.5-0.375h-4.9062a0.50005 0.50005 0 0 0-0.0937 0zm0.625 1h4l1.6875 5.9375c-1.846 0.74293-3.5394 0.68628-5.1875-0.0312l-0.5-5.9062z" color="#000000" stroke="#f2b800" stroke-width="2" style="text-decoration-line:none;text-indent:0;text-transform:none"/>
  <g stroke="#f2b800" stroke-width="2">
   <path d="m4.5809 3.5371a0.50005 0.50005 0 0 0-0.34375 0.28125l-3.3125 6.8125a0.50005 0.50005 0 0 0 0.21875 0.65625c2.0721 0.9814 4.3409 1.0908 6.6875 0a0.50005 0.50005 0 0 0 0.28125-0.3125l1.9687-6.7813a0.50005 0.50005 0 0 0-0.46875-0.65625h-4.9375a0.50005 0.50005 0 0 0-0.0937 0zm0.40625 1h3.9375l-1.7188 5.875c-1.8315 0.79118-3.4978 0.73881-5.125 0.0937z" color="#000000" style="text-decoration-line:none;text-indent:0;text-transform:none"/>
   <path d="m14.487 3.5371a0.50005 0.50005 0 0 0-0.40625 0.4375l-0.71875 6.8125a0.50005 0.50005 0 0 0 0.28125 0.5c2.0721 0.9814 4.341 1.0908 6.6875 0a0.50005 0.50005 0 0 0 0.3125-0.5l-0.625-6.7813a0.50005 0.50005 0 0 0-0.5-0.46875h-4.9375a0.50005 0.50005 0 0 0-0.0937 0zm0.5625 1h4l0.5625 5.9063c-1.8606 0.77632-3.5624 0.73543-5.2188 0.0312l0.65625-5.9375z" color="#000000" style="text-decoration-line:none;text-indent:0;text-transform:none"/>
   <path d="m24.393 3.5371a0.50005 0.50005 0 0 0-0.375 0.625l1.875 6.8125a0.50005 0.50005 0 0 0 0.25 0.3125c2.0721 0.9814 4.341 1.0908 6.6875 0a0.50005 0.50005 0 0 0 0.25-0.65625l-3.2188-6.8125a0.50005 0.50005 0 0 0-0.4375-0.28125h-4.9375a0.50005 0.50005 0 0 0-0.0937 0zm0.78125 1h3.9062l2.8438 5.9688c-1.8181 0.7047-3.4969 0.65375-5.125-0.0625z" color="#000000" style="text-decoration-line:none;text-indent:0;text-transform:none"/>
   <path d="m9.5497 3.5371a0.50005 0.50005 0 0 0-0.375 0.375l-2 6.7813a0.50005 0.50005 0 0 0 0.25 0.59375c2.0721 0.9814 4.3409 1.0908 6.6875 0a0.50005 0.50005 0 0 0 0.28125-0.40625l0.6875-6.7813a0.50005 0.50005 0 0 0-0.5-0.5625h-4.9062a0.50005 0.50005 0 0 0-0.125 0zm0.5 1h3.9688l-0.5625 5.9063c-1.8521 0.78972-3.5411 0.70856-5.1875 0.0312l1.7812-5.9375z" color="#000000" opacity=".1" style="text-decoration-line:none;text-indent:0;text-transform:none"/>
   <path d="m19.487 3.5371a0.50005 0.50005 0 0 0-0.40625 0.53125l0.5625 6.8125a0.50005 0.50005 0 0 0 0.28125 0.40625c2.0721 0.9814 4.3409 1.0908 6.6875 0a0.50005 0.50005 0 0 0 0.28125-0.59375l-1.9062-6.7813a0.50005 0.50005 0 0 0-0.5-0.375h-4.9062a0.50005 0.50005 0 0 0-0.0937 0zm0.625 1h4l1.6875 5.9375c-1.846 0.74293-3.5394 0.68628-5.1875-0.0312l-0.5-5.9063z" color="#000000" opacity=".1" style="text-decoration-line:none;text-indent:0;text-transform:none"/>
  </g>
  <g stroke-linejoin="round">
   <path d="m25.987 12.467v1.5026 14.995 1.5026h3v-1.5026-14.995-1.5026z" color="#000000" stroke="#f2b800" stroke-width="2" style="text-decoration-line:none;text-indent:0;text-transform:none"/>
   <path d="m4.9872 12.467v1.5026 14.995 1.5026h3v-1.5026-14.995-1.5026z" color="#000000" stroke="#f2b800" stroke-width="2" style="text-decoration-line:none;text-indent:0;text-transform:none"/>
   <path d="m1.3636 10.838c1.9622 0.92937 4.0355 1.0353 6.2627 0l1.9727-6.7982h-4.9258z" stroke="#5d0000" stroke-linecap="round"/>
   <path d="m26.371 10.838c1.9622 0.92937 4.0355 1.0353 6.2627 0l-3.2102-6.7982h-4.9258z" stroke="#5d0000" stroke-linecap="round"/>
  </g>
  <g>
   <path d="m7.3243 21.45v2.0884h1.0884 16.972 1.0884v-2.0884h-1.0884-16.972z" color="#000000" style="text-decoration-line:none;text-indent:0;text-transform:none"/>
   <path d="m25.987 12.467v1.5026 14.995 1.5026h3v-1.5026-14.995-1.5026z" color="#000000" style="text-decoration-line:none;text-indent:0;text-transform:none"/>
   <path d="m4.9872 12.467v1.5026 14.995 1.5026h3v-1.5026-14.995-1.5026z" color="#000000" style="text-decoration-line:none;text-indent:0;text-transform:none"/>
  </g>
 </g>
 <path d="m7.6479 10.838c1.9622 0.92937 4.0355 1.0353 6.2627 0l0.67701-6.7982h-4.9258z" fill="#fff" opacity=".1" stroke="#5d0000" stroke-linecap="round" stroke-linejoin="round"/>
 <path d="m20.152 10.838c1.9622 0.92937 4.0355 1.0353 6.2627 0l-1.9145-6.7982h-4.9258z" fill="#fff" opacity=".1" stroke="#5d0000" stroke-linecap="round" stroke-linejoin="round"/>
 <g fill="#5d0000">
  <rect x="20.96" y="17.467" width="3.0549" height="4.094" color="#000000"/>
  <rect x="9.9559" y="16.494" width="3.0549" height="5.0663" color="#000000"/>
  <rect x="14.949" y="18.506" width="4.035" height="3.125" color="#000000"/>
 </g>
 <g stroke="#5d0000" stroke-linecap="round" stroke-linejoin="round">
  <path d="m7.6168 10.862c1.9622 0.92937 4.0355 1.0353 6.2627 0l0.67701-6.7982h-4.9258z" fill="none"/>
  <path d="m13.836 10.862c1.9622 0.92937 4.0355 1.0353 6.2626 0l-0.61872-6.7982h-4.9258z" fill="#5d0000"/>
  <path d="m20.121 10.862c1.9622 0.92937 4.0355 1.0353 6.2627 0l-1.9145-6.7982h-4.9258z" fill="none"/>
 </g>
</svg>
