<svg width="32" height="28" version="1.1" viewBox="0 0 32 28" xmlns="http://www.w3.org/2000/svg">
 <g>
  <path d="m15.994 3.9555-10 5.9938v17.006h20v-16.911z" fill="#fff" stroke="#fff" stroke-width="2"/>
  <path d="m15.994 0.95551-0.93126 0.60801-13.069 8.128a1.8875 1.8865 0 1 0 1.8936 3.264l12.137-7.52 12.075 7.488a1.9014 1.9004 0 0 0 1.8936-3.296l-13.007-8.064z" color="#000000" fill="#fff" stroke="#fff" stroke-width="2" style="text-decoration-line:none;text-indent:0;text-transform:none"/>
  <path d="m15.994 3.8863-10 5.9938v17.006h20v-16.911z" fill="#4d4d4d"/>
  <path d="m15.994 0.88626-0.93126 0.60801-13.069 8.128a1.8875 1.8865 0 1 0 1.8936 3.264l12.137-7.52 12.075 7.488a1.9014 1.9004 0 0 0 1.8936-3.296l-13.007-8.064z" color="#000000" fill="#4d4d4d" style="text-decoration-line:none;text-indent:0;text-transform:none"/>
  <path d="m16.565 6.8911c-4.6544 0-8.4275 3.7731-8.4275 8.4275 0 4.6544 3.7731 8.4275 8.4275 8.4275 2.1126 0 4.0472-0.78804 5.5263-2.0723-0.9708 0.49524-2.0682 0.77367-3.2329 0.77367-3.9371 0-7.1288-3.1917-7.1288-7.1289 0-3.9371 3.1917-7.1288 7.1288-7.1288 1.1873 0 2.3036 0.28796 3.2881 0.80131-1.4864-1.3145-3.4412-2.1-5.5815-2.1z" fill="#fff"/>
  <path transform="matrix(.70456 0 0 .70456 142.45 -27.529)" d="m-173 55.268 1.2192 3.6403 3.8389 0.03457-3.0854 2.2844 1.1534 3.6617-3.1261-2.2285-3.1261 2.2285 1.1534-3.6617-3.0854-2.2844 3.8389-0.03457z" fill="#fff"/>
 </g>
</svg>
