<svg width="40" height="38" version="1.1" viewBox="0 0 40 38" xmlns="http://www.w3.org/2000/svg">
 <g>
  <path d="m7 13c-1.108 0-2 0.89014-2 1.9958v13.971l-3.5 5.9875c-0.2967 0.50754-0.5 0.71191-0.5 0.99791 0 0.99792 1.2633 0.99792 2 0.99792h34c0.71 0 2 0 2-0.99792 0-0.29179-0.1732-0.43889-0.5-0.99791l-3.5-5.9875v-13.971c0-1.1057-0.892-1.9958-2-1.9958z" color="#000000" fill="#4d4d4d" stroke="#fff" stroke-linejoin="round" stroke-width="2"/>
  <path d="m20 1.2092-15 9.9792h30z" color="#000000" fill="#4d4d4d" stroke="#fff" stroke-linejoin="round" stroke-width="2"/>
  <path d="m20 1.025-15 9.9792h30z" color="#000000" fill="#743a00"/>
  <path d="m7 13c-1.108 0-2 0.89014-2 1.9958v13.971l-3.5 5.9875c-0.2967 0.50754-0.5 0.71191-0.5 0.99791 0 0.99792 1.2633 0.99792 2 0.99792h34c0.71 0 2 0 2-0.99792 0-0.29179-0.1732-0.43889-0.5-0.99791l-3.5-5.9875v-13.971c0-1.1057-0.892-1.9958-2-1.9958z" color="#000000" fill="#743a00"/>
 </g>
 <g fill="#e2e2e2">
  <path d="m11 15.021c1.108 0 1.8178 0.9051 2 1.9958v11.975h-4v-3.9917-7.9833c0-1.1057 0.892-1.9958 2-1.9958z" color="#000000"/>
  <path d="m29 15.021c1.108 0 2 0.89013 2 1.9958v11.975h-4v-3.9917-7.9833c0-1.1057 0.892-1.9958 2-1.9958z" color="#000000"/>
  <path d="m20 15.021c1.108 0 2.0173 0.89034 2 1.9958v7.9833 3.9917h-4v-3.9917-7.9833c0-1.1057 0.892-1.9958 2-1.9958z" color="#000000"/>
 </g>
</svg>
