<svg width="20" height="40" version="1.0" xmlns="http://www.w3.org/2000/svg">
 <defs></defs>
 <rect y="20" width="20" height="20" ry="10" fill="#ff6600"/>
 <path d="m15.414 30.077q0 1.6523-0.29883 2.9619-0.29883 1.3008-0.93164 2.1357-0.65039 0.85254-1.6699 1.292-1.0195 0.43066-2.5137 0.43066-1.4678 0-2.5049-0.43945-1.0371-0.43945-1.6787-1.3008-0.65039-0.86133-0.94043-2.1357-0.29004-1.2832-0.29004-2.9355 0-1.7051 0.29883-2.9619t0.94922-2.127q0.65039-0.86133 1.6875-1.292t2.4785-0.43066q1.5029 0 2.5225 0.44824 1.0195 0.43945 1.6699 1.3184 0.6416 0.86133 0.93164 2.127 0.29004 1.2568 0.29004 2.9092zm-3.4014 0q0-2.373-0.46582-3.375-0.46582-1.0107-1.5469-1.0107-1.0811 0-1.5469 1.0107-0.46582 1.002-0.46582 3.3926 0 2.3291 0.47461 3.3574 0.47461 1.0283 1.5381 1.0283 1.0635 0 1.5381-1.0283t0.47461-3.375z" fill="#ffffff"/>
</svg>
