<svg width="20" height="40" version="1.0" xmlns="http://www.w3.org/2000/svg">
 <defs></defs>
 <rect y="20" width="20" height="20" ry="10" fill="#800000"/>
 <path d="m15.137 36.49h-10.274v-2.1621q1.1777-0.85254 2.3555-1.8105 1.1865-0.95801 1.8984-1.6523 1.0635-1.0283 1.5117-1.793 0.44824-0.76465 0.44824-1.5117 0-0.89648-0.58008-1.3799-0.57129-0.49219-1.6523-0.49219-0.80859 0-1.7051 0.33398-0.8877 0.33398-1.6523 0.85254h-0.28125v-2.9092q0.62402-0.27246 1.8369-0.54492 1.2217-0.27246 2.4434-0.27246 2.4609 0 3.7529 1.0371 1.292 1.0283 1.292 2.918 0 1.2393-0.62402 2.3555-0.61523 1.1162-1.8896 2.3027-0.7998 0.73828-1.6084 1.3623-0.80859 0.61523-1.1514 0.86133h5.8799z" fill="#ffffff"/>
</svg>
