<svg width="20" height="40" version="1.0" xmlns="http://www.w3.org/2000/svg">
 <defs></defs>
 <rect y="20" width="20" height="20" ry="10" fill="#ff6600"/>
 <path d="m15.353 31.982q0 1.0107-0.36914 1.8984-0.36914 0.8877-1.0371 1.4941-0.71191 0.65039-1.6523 0.99316-0.93164 0.34277-2.1885 0.34277-1.1777 0-2.1533-0.31641-0.9668-0.3252-1.6611-0.98438-0.7998-0.75586-1.2217-1.9512-0.42188-1.1953-0.42188-2.8564 0-1.7227 0.39551-3.0586 0.39551-1.3359 1.292-2.3643 0.86133-0.98438 2.2324-1.5293 1.3799-0.54492 3.2783-0.54492 0.6416 0 1.4062 0.08789 0.76465 0.08789 0.99316 0.13184v2.5752h-0.33398q-0.2373-0.11426-0.80859-0.25488-0.5625-0.14941-1.2832-0.14941-1.6875 0-2.6279 0.82617-0.94043 0.82617-1.1338 2.3027 0.67676-0.4043 1.4238-0.65039 0.75586-0.25488 1.626-0.25488 0.76465 0 1.415 0.17578 0.65918 0.17578 1.2217 0.5625 0.72949 0.50976 1.1689 1.3711 0.43945 0.86133 0.43945 2.1533zm-3.999 1.9775q0.27246-0.29883 0.43066-0.70312 0.16699-0.41309 0.16699-1.1162 0-0.6416-0.18457-1.0459-0.18457-0.41309-0.50977-0.65918-0.31641-0.24609-0.74707-0.33398-0.43066-0.09668-0.8877-0.09668-0.38672 0-0.80859 0.08789t-0.77344 0.21973q0 0.08789-0.00879 0.29004-0.00879 0.20215-0.00879 0.50977 0 1.0811 0.21094 1.7842 0.21973 0.69434 0.58008 1.0635 0.24609 0.27246 0.58008 0.4043 0.33398 0.12305 0.7207 0.12305 0.29004 0 0.6416-0.13184 0.35156-0.13184 0.59766-0.39551z" fill="#ffffff"/>
</svg>
