<?xml version="1.0" encoding="UTF-8" standalone="no"?>
<svg
   width="20"
   height="40"
   version="1.0"
   id="svg2189"
   sodipodi:docname="s_mtbu_1.svg"
   inkscape:version="1.1.1 (3bf5ae0d25, 2021-09-20)"
   xmlns:inkscape="http://www.inkscape.org/namespaces/inkscape"
   xmlns:sodipodi="http://sodipodi.sourceforge.net/DTD/sodipodi-0.dtd"
   xmlns="http://www.w3.org/2000/svg"
   xmlns:svg="http://www.w3.org/2000/svg">
  <sodipodi:namedview
     id="namedview2191"
     pagecolor="#c9e9d9"
     bordercolor="#666666"
     borderopacity="1.0"
     inkscape:pageshadow="2"
     inkscape:pageopacity="0"
     inkscape:pagecheckerboard="true"
     showgrid="false"
     inkscape:zoom="11.234375"
     inkscape:cx="10.547983"
     inkscape:cy="24.03338"
     inkscape:current-layer="svg2189" />
  <defs
     id="defs2183">
    <g
       id="icon">
      <path
         d="m 366,279 c 0,23 -47,60 -87,60 -83,0 -64,-28 -64,-51 0,-23 24,-33 64,-33 40,0 87,-19 87,23 z"
         id="path2174" />
      <path
         d="m 438,411 c -1,33 -121,56 -203,54 -81,-3 -82,-28 -92,-63 -12,-41 69,-41 149,-55 86,-15 146,31 145,64 z"
         id="path2176" />
      <path
         d="m 340,219 c 0,15 -26,17 -48,17 -22,0 -44,-1 -48,-16 -17,-51 26,-40 48,-40 22,0 48,0 48,39 z"
         id="path2178" />
      <path
         d="m 320,138 c 0,13 -9,23 -20,23 -11,0 -39,-5 -39,-18 0,-13 28,-28 39,-28 11,0 20,10 20,23 z"
         id="path2180" />
    </g>
  </defs>
  <rect
     style="display:inline;fill:#800000;fill-opacity:1;fill-rule:nonzero;stroke:none"
     id="rect5469"
     width="20"
     height="20"
     x="0"
     y="20"
     ry="9.9999914" />
  <path
     d="M 14.368164,36.469242 H 5.6318359 V 34.184086 H 8.3916016 V 27.267094 H 5.6318359 v -2.135743 q 0.6328125,0 1.2128907,-0.07031 0.5800781,-0.0791 0.9667968,-0.263672 0.4570313,-0.219726 0.6855469,-0.571289 0.2285156,-0.351562 0.2636719,-0.878906 h 2.9091798 v 10.836914 h 2.698242 z"
     id="path4017"
     style="font-weight:bold;-inkscape-font-specification:'Sans Bold';letter-spacing:0px;word-spacing:0px;fill:#ffffff" />
</svg>
