<svg width="20" height="40" version="1.0" xmlns="http://www.w3.org/2000/svg">
 <defs></defs>
 <rect y="20" width="20" height="20" ry="10" fill="#ff6600"/>
 <path d="m15.089 32.153q0 1.0195-0.38672 1.8984-0.37793 0.87012-1.1074 1.4941-0.80859 0.66797-1.8633 0.99316-1.0459 0.31641-2.3906 0.31641-1.5732-0.0088-2.6631-0.25488-1.0811-0.2373-1.7666-0.53613v-2.8916h0.36914q0.7998 0.47461 1.7227 0.79102 0.92285 0.31641 1.8369 0.31641 0.55371 0 1.1953-0.12305 0.65039-0.13184 1.0283-0.46582 0.29883-0.27246 0.44824-0.55371 0.1582-0.28125 0.1582-0.87012 0-0.45703-0.21094-0.78223-0.20215-0.33398-0.52734-0.53613-0.47461-0.29004-1.1426-0.37793-0.66797-0.09668-1.2129-0.09668-0.79102 0-1.5205 0.14062-0.7207 0.13184-1.2656 0.26367h-0.38672v-7.3828h9.3076v2.5049h-6.1348v2.1357q0.27246-0.01758 0.68555-0.02637 0.42188-0.01758 0.73828-0.01758 1.0811 0 1.9248 0.21094 0.85254 0.20215 1.4678 0.57129 0.7998 0.4834 1.248 1.2832 0.44824 0.79102 0.44824 1.9951z" fill="#ffffff"/>
</svg>
