<svg width="20" height="40" version="1.0" xmlns="http://www.w3.org/2000/svg">
 <defs></defs>
 <rect y="20" width="20" height="20" ry="10" fill="#ff6600"/>
 <path d="m14.223 30.406q0.43066 0.36914 0.68555 0.86133 0.25488 0.49219 0.25488 1.3096 0 0.92285-0.36914 1.7227-0.36035 0.7998-1.1162 1.3711-0.73828 0.55371-1.7402 0.85254-0.99316 0.29004-2.417 0.29004-1.626 0-2.7949-0.25488-1.1602-0.25488-1.8896-0.57129v-2.874h0.34277q0.75586 0.45703 1.8018 0.79102 1.0547 0.33398 1.9248 0.33398 0.50977 0 1.1074-0.0791 0.59766-0.08789 1.0107-0.36914 0.3252-0.21973 0.51855-0.52734 0.19336-0.31641 0.19336-0.90527 0-0.57129-0.26367-0.87891-0.26367-0.31641-0.69434-0.44824-0.43066-0.14062-1.0371-0.14941-0.60645-0.01758-1.125-0.01758h-0.7207v-2.3379h0.74707q0.68555 0 1.2129-0.04394 0.52734-0.04395 0.89648-0.20215 0.38672-0.16699 0.58008-0.43945 0.19336-0.28125 0.19336-0.81738 0-0.39551-0.20215-0.63281-0.20215-0.24609-0.50977-0.38672-0.34277-0.1582-0.80859-0.21094-0.46582-0.05273-0.79981-0.05273-0.82617 0-1.793 0.29004-0.9668 0.28125-1.8721 0.81738h-0.3252v-2.8389q0.7207-0.29004 1.96-0.55371 1.2393-0.27246 2.5137-0.27246 1.2393 0 2.1709 0.21973 0.93164 0.21094 1.5381 0.57129 0.7207 0.43066 1.0723 1.0459 0.35156 0.61523 0.35156 1.4414 0 1.0898-0.67676 1.9512-0.67676 0.85254-1.7842 1.0898v0.12305q0.44824 0.06152 0.94922 0.24609 0.50098 0.18457 0.91406 0.53613z" fill="#ffffff"/>
</svg>
