<svg width="40" height="38" version="1.1" viewBox="0 0 40 38" xmlns="http://www.w3.org/2000/svg">
 <g>
  <path d="m7 13c-1.108 0-2 0.89014-2 1.9958v13.971l-3.5 5.9875c-0.2967 0.50754-0.5 0.71191-0.5 0.99791 0 0.99792 1.2633 0.99792 2 0.99792h34c0.71 0 2 0 2-0.99792 0-0.29179-0.1732-0.43889-0.5-0.99791l-3.5-5.9875v-13.971c0-1.1057-0.892-1.9958-2-1.9958z" color="#000000" fill="#4d4d4d" stroke="#fff" stroke-linejoin="round" stroke-width="2"/>
  <path d="m20 1.2092-15 9.9792h30z" color="#000000" fill="#4d4d4d" stroke="#fff" stroke-linejoin="round" stroke-width="2"/>
  <path d="m20 1.025-15 9.9792h30z" color="#000000" fill="#743a00"/>
  <path d="m7 13c-1.108 0-2 0.89014-2 1.9958v13.971l-3.5 5.9875c-0.2967 0.50754-0.5 0.71191-0.5 0.99791 0 0.99792 1.2633 0.99792 2 0.99792h34c0.71 0 2 0 2-0.99792 0-0.29179-0.1732-0.43889-0.5-0.99791l-3.5-5.9875v-13.971c0-1.1057-0.892-1.9958-2-1.9958z" color="#000000" fill="#743a00"/>
  <path d="m12.176 16h3.3529c1.1177 0 2.2354 2 2.2354 2l2.2352 5 2.2353-5c0.4989-1.116 1.1177-2 2.2353-2h3.353c1.2383 0 2.2352 0.89201 2.2352 2v10c0 1-1.1176 2-2.2352 2-1.1177 0-2.2354-0.99999-2.2354-2v-8l-3.3529 6s-1.1176 2-2.2353 2c-1.1176 0-2.2352-2-2.2352-2l-3.353-6v8c0 1-1.1176 2-2.2353 2s-2.2353-0.99999-2.2353-2v-2-8c0-1.108 0.997-2 2.2353-2z" color="#000000" fill="#e2e2e2"/>
 </g>
</svg>
