<svg width="32" height="32" version="1.1" viewBox="0 0 8.4667 8.4667" xmlns="http://www.w3.org/2000/svg">
 <g>
  <circle cx="4.2333" cy="4.2333" r="3.5884" fill="#ffc400" stroke="#f2b800" stroke-width=".4486"/>
  <path d="m1.9076 0.82478s0.33226 1.618 1.7335 1.2713c0 0-0.028896-1.2568-1.5024-1.2727-0.072226 0-0.14446 2e-3 -0.23114 2e-3zm2.0513 0.23114c-0.086963 0.0564-0.060958 0.16631-0.028896 0.23114 0.098912 0.40039 0.12 0.80723 0.14446 1.199 0.028896 0.46227 0.028896 0.88121 0.028896 0.88121l0.072226 0.0145 0.39004-2.1308s-0.20225-0.10835-0.3756-0.16614c-0.07764-0.0369-0.15285-0.0434-0.23114-0.0289zm0.76564 1.6468c1.6035 0.54895 2.1525-1.3001 2.1525-1.3001-0.1878-0.0289-0.34671-0.0433-0.50561-0.0433-1.4879 0.0144-1.6469 1.3435-1.6469 1.3435zm-3.1348 1.878c0.014443 0.63562 0.11557 1.0401 0.3756 1.5602 0 0 0.43338 0.82343 0.70063 1.1124s0.49839 0.39005 0.75842 0.39005c0.31781 0 0.67897-0.26726 0.76564-0.26726 0.086679 0 0.44783 0.26726 0.76564 0.26726 0.24558 0 0.49117-0.10113 0.75842-0.39005 0.26725-0.28892 0.70063-1.1124 0.70063-1.1124 0.24558-0.52006 0.36115-0.92455 0.3756-1.5602 0.014444-0.63563-0.67897-1.329-1.5313-1.329-0.41894 0-0.79453 0.17335-1.069 0.44783-0.27448-0.27448-0.66452-0.44783-1.0835-0.44783-0.85232 0-1.5313 0.69341-1.5168 1.329z" color="#000000" color-rendering="auto" fill="#5d0000" image-rendering="auto" opacity=".8" shape-rendering="auto" solid-color="#000000" stop-color="#000000" stroke="#f2b800" stroke-linejoin="round" stroke-width=".4169" style="-inkscape-stroke:none;font-variation-settings:normal" filter-blend-mode="normal" filter-gaussianBlur-deviation="0" isolation="auto" mix-blend-mode="normal"/>
  <path d="m1.9076 0.82478s0.33226 1.618 1.7335 1.2713c0 0-0.028896-1.2568-1.5024-1.2727-0.072226 0-0.14446 2e-3 -0.23114 2e-3zm2.0513 0.23114c-0.086963 0.0564-0.060958 0.16631-0.028896 0.23114 0.098912 0.40039 0.12 0.80723 0.14446 1.199 0.028896 0.46227 0.028896 0.88121 0.028896 0.88121l0.072226 0.0145 0.39004-2.1308s-0.20225-0.10835-0.3756-0.16614c-0.07764-0.0369-0.15285-0.0434-0.23114-0.0289zm0.76564 1.6468c1.6035 0.54895 2.1525-1.3001 2.1525-1.3001-0.1878-0.0289-0.34671-0.0433-0.50561-0.0433-1.4879 0.0144-1.6469 1.3435-1.6469 1.3435zm-3.1348 1.878c0.014443 0.63562 0.11557 1.0401 0.3756 1.5602 0 0 0.43338 0.82343 0.70063 1.1124s0.49839 0.39005 0.75842 0.39005c0.31781 0 0.67897-0.26726 0.76564-0.26726 0.086679 0 0.44783 0.26726 0.76564 0.26726 0.24558 0 0.49117-0.10113 0.75842-0.39005 0.26725-0.28892 0.70063-1.1124 0.70063-1.1124 0.24558-0.52006 0.36115-0.92455 0.3756-1.5602 0.014443-0.63563-0.67897-1.329-1.5313-1.329-0.41894 0-0.79453 0.17335-1.069 0.44783-0.27448-0.27448-0.66452-0.44783-1.0835-0.44783-0.85232 0-1.5313 0.69341-1.5168 1.329z" fill="#5d0000" stop-color="#000000" style="-inkscape-stroke:none;font-variation-settings:normal"/>
 </g>
</svg>
