<svg width="24" height="24" version="1.1" viewBox="0 0 6.35 6.35" xmlns="http://www.w3.org/2000/svg">
 <rect x=".26459" y=".2646" width="5.8208" height="5.8208" rx="1.0583" fill="#0042e8" stroke="#ffffff" stroke-width=".52917"/>
 <rect x=".26459" y=".2646" width="5.8208" height="5.8208" rx="1.0583" fill="#0042e8"/>
 <path d="m1.6924 5.2762v-4.2025h1.3616c0.51598 0 0.85234 0.021 1.009 0.0631 0.24079 0.0631 0.44241 0.2002 0.60485 0.41136 0.16243 0.21117 0.24365 0.48397 0.24367 0.81841-1.47e-5 0.258-0.046834 0.47491-0.14047 0.65072-0.093639 0.17582-0.21261 0.3139-0.35689 0.41423-0.14429 0.10034-0.29097 0.16675-0.44003 0.19923-0.20257 0.0401-0.49592 0.0602-0.88005 0.0602h-0.55325v1.5853zm0.84851-3.4915v1.1925h0.4644c0.33443 0 0.55802-0.022 0.67078-0.0659 0.11275-0.044 0.20113-0.11275 0.26515-0.20639 0.064021-0.0936 0.096032-0.20257 0.096032-0.3268 0-0.15288-0.044912-0.27901-0.13472-0.37839-0.089823-0.0994-0.20354-0.16147-0.34114-0.18632-0.10129-0.0191-0.30481-0.0287-0.61058-0.0287z" fill="#ffffff" stroke-width=".14677"/>
</svg>
