<svg version="1.1" viewBox="0 0 24 24" xmlns="http://www.w3.org/2000/svg">
 <g transform="translate(-.109 .0208)">
  <g>
   <rect x="1.11" y=".979" width="22" height="22" rx="4" fill="#0042e8" stroke="#ffffff" stroke-width="2"/>
   <rect x="1.11" y=".979" width="22" height="22" rx="4" fill="#0042e8"/>
   <path d="m23.1 11-12 12h8c2.18 0 4-1.71 4-4.04z" fill="#ec2a2a"/>
  </g>
  <g transform="matrix(.555 0 0 .555 -740 .0932)" fill="#ffffff">
   <path d="m1345 35.7v-28.6h9.28c3.52 2.86e-5 5.81 0.143 6.88 0.43 1.64 0.43 3.01 1.36 4.12 2.8 1.11 1.44 1.66 3.3 1.66 5.58-1e-4 1.76-0.319 3.24-0.957 4.43-0.638 1.2-1.45 2.14-2.43 2.82-0.983 0.684-1.98 1.14-3 1.36-1.38 0.273-3.38 0.41-6 0.41h-3.77v10.8zm5.78-23.8v8.12h3.16c2.28 1.6e-5 3.8-0.15 4.57-0.449 0.768-0.299 1.37-0.768 1.81-1.41 0.436-0.638 0.654-1.38 0.654-2.23 0-1.04-0.306-1.9-0.918-2.58-0.612-0.677-1.39-1.1-2.32-1.27-0.69-0.13-2.08-0.195-4.16-0.195z" fill="#ffffff"/>
  </g>
 </g>
</svg>
