<svg id="SVGRoot" version="1.1" viewBox="0 0 24 24" xmlns="http://www.w3.org/2000/svg">
 <g>
  <rect x="1" y="1" width="22" height="22" rx="4" fill="#0042e8" stroke="#ffffff" stroke-width="2"/>
  <rect x="1" y="1" width="22" height="22" rx="4" fill="#0042e8"/>
  <path d="m6.5306 19.923v-15.883h5.1462c1.9501 1.57e-5 3.2213 0.079466 3.8136 0.23835 0.91005 0.23837 1.672 0.7566 2.286 1.5547 0.61389 0.79812 0.92087 1.8292 0.92092 3.0931-5.5e-5 0.97508-0.17701 1.7949-0.53091 2.4593-0.3539 0.6645-0.80355 1.1863-1.3488 1.5655-0.54533 0.3792-1.0997 0.63019-1.6631 0.75297-0.7656 0.15168-1.8743 0.22752-3.3261 0.22752h-2.091v5.9913zm3.2069-13.196v4.507h1.7551c1.264 9e-6 2.109-0.08305 2.5352-0.24918 0.42612-0.16611 0.76017-0.42613 1.0021-0.78006 0.24196-0.3539 0.36294-0.7656 0.36294-1.2351 0-0.57781-0.16974-1.0545-0.50916-1.4301-0.33948-0.37557-0.76926-0.61031-1.2893-0.70422-0.3828-0.072214-1.152-0.10833-2.3076-0.10834z" fill="#ffffff"/>
  <path d="m23.019 10.985-12 12.039h8c2.1769 0 4-1.7075 4-4.0391z" fill="#f6cd0b" stop-color="#000000" style="-inkscape-stroke:none;font-variation-settings:normal"/>
 </g>
</svg>
