<svg height="38" viewBox="0 0 38 38" width="38" xmlns="http://www.w3.org/2000/svg">
	<g stroke-linecap="round" stroke-linejoin="round">
		<path d="m12.866 5.6241c.38784.99951.40512 2.6788.03796 4.4766l17.764 6.9835v7.6402l1.9438 1.9101v5.73h-5.8316v-5.73l1.944-1.9101v-4.5848l-7.301-2.8688 3.4132 15.094h-1.9438l-1.2946-5.73h-5.1862l-1.2946 5.73h-1.944l3.8081-16.84-5.2317-2.0556c-.04763.09474-.08679.19398-.13675.28733-1.5347 2.8651-4.2329 5.0064-5.9074 5.2377-.65141-1.6787-.2819-5.2675 1.2528-8.1326s4.233-5.0064 5.9076-5.2377zm5.9 10.602-1.8711 8.2751h4.2205l-1.8255-8.0698z" fill="none" opacity=".8" stroke="#000" stroke-width="2.4"/>
		<path d="m12.866 5.6241c.48784 1.4418.31373 3.0086.03796 4.4766 5.9215 2.3278 11.843 4.6557 17.764 6.9835v7.6402c.64795.63671 1.2959 1.2734 1.9438 1.9101v5.73h-5.8316v-5.73c.64799-.63671 1.296-1.2734 1.944-1.9101v-4.5848c-2.4337-.95627-4.8673-1.9125-7.301-2.8688 1.1377 5.0313 2.2754 10.063 3.4132 15.094h-1.9438l-1.2946-5.73h-5.1862l-1.2946 5.73h-1.944l3.8081-16.84c-1.7439-.6852-3.4878-1.3704-5.2317-2.0556-1.1953 2.3108-3.0713 4.4605-5.548 5.4106-1.1994.19341-.68497-2.117-.75282-2.9651.38105-4.1238 2.7642-8.2224 6.5655-10.047.27356-.11215.55807-.20266.85159-.24381zm5.9 10.602c-.6237 2.7584-1.2474 5.5167-1.8711 8.2751h4.2205c-.60851-2.6899-1.217-5.3799-1.8255-8.0698-.17463-.06841-.34926-.13682-.5239-.20523z" fill="#fff" stroke="#fff" stroke-width=".060154"/>
	</g>
</svg>
