<svg height="34" viewBox="0 0 9 9" width="34" xmlns="http://www.w3.org/2000/svg">
	<circle cx="4.5" cy="4.5" fill="#12ef12" r="4.23" stroke="#00dc00" stroke-width=".529"/>
	<circle cx="4.5" cy="4.5" fill="#ff0" fill-opacity=".23529" r="4.2308" stroke="#fb0404" stroke-width=".51432"/>
	<path d="m5.4 1.1c-.308 0-.555.248-.555.555 0 .308.248.555.555.555.308 0 .555-.248.555-.555 0-.308-.248-.555-.555-.555zm-2.22 1.11c-.308 0-.555.248-.555.555 0 .308.248.555.555.555.308 0 .555-.248.555-.555 0-.308-.248-.555-.555-.555zm2.73.174c-.0644.0209-.108.108-.139.197l-.729 2.11-1.19.37-.891-1.41c-.129-.209-.267-.17-.324.0114l-.729 2.01-.764.243.208.671 1.72-.544-.752.879c-.114.11-.0765.3 0 .382.0994.107.28.151.417 0 0 0 1.5-1.72 1.37-1.57.0032-.0037-.0025-.0076 0-.0114l.555-.174-.926 2.22h2.22l-.903-2.35.544-.174 1.41.995c.139.094.378.046.428-.15.0491-.191-.0564-.277-.174-.359l-.995-.694 1.91-.602-.208-.671-.764.243c-.262-.451-.891-1.24-1.04-1.43-.105-.161-.19-.206-.255-.185z" fill="#004900"/>
</svg>
