<svg width="26" height="26" version="1.1" viewBox="0 0 26 26" xmlns="http://www.w3.org/2000/svg">
 <g>
  <rect x="-.42245" y="-2.6798" width="32" height="28" display="none" fill="#b2d4f3" stroke-width="1.1547"/>
  <rect x=".8125" y=".8125" width="24.375" height="24.375" rx="4.0625" fill="#808080" stroke="#fff" stroke-width="1.625"/>
  <rect x=".8125" y=".8125" width="24.375" height="24.375" rx="4.0625" fill="#4d4d4d"/>
 </g>
 <g transform="translate(-1.4225 -.4923)" fill="#fff">
  <path d="m7.7807 5.8125a1.2124 1.2124 0 0 0-0.6562 2l3.1562 3.7188a1.2124 1.2124 0 0 0 0.1562 0.1875 1.2124 1.2124 0 0 0 0.094 0.0625 1.2124 1.2124 0 0 0 0.5938 0.1875 1.2124 1.2124 0 0 0 0.1562 0h0.094 0.062l2.8438-0.15625 1.375 5.3125a2.7619 2.7619 0 0 0 0.062 0.1875l-3.7187 3.3438a1.6816 1.6816 0 0 0-0.3126 0.375 1.6811 1.6811 0 0 0 0 0.03125 1.6816 1.6816 0 0 0-0.25 0.9375 1.6811 1.6811 0 0 0 0 0.03125 1.6816 1.6816 0 0 0 0.094 0.5 1.5362 1.5362 0 0 0 1.5625 1.5312l7.4063-0.0625a1.547 1.547 0 1 0-0.031-3.0938l-3.2187 0.03125 3.25-2.4062a1.6772 1.6772 0 0 0 0.5937-1.875 2.7619 2.7619 0 0 0-0.062-0.875l-1.4062-5.4688a2.7595 2.7595 0 0 0-2.875-2.125 2.7595 2.7595 0 0 0-1.75 0.8125l-3.3126 0.46875-2.7187-3.2188a1.2124 1.2124 0 0 0-0.062-0.0625 1.2124 1.2124 0 0 0-0.094-0.09375 1.2124 1.2124 0 0 0-0.094-0.0625 1.2124 1.2124 0 0 0-0.094-0.09375 1.2124 1.2124 0 0 0-0.1252-0.03125 1.2124 1.2124 0 0 0-0.5938-0.09375 1.2124 1.2124 0 0 0-0.125 0z" color="#000000" style="text-decoration-line:none;text-indent:0;text-transform:none"/>
  <circle transform="scale(1,-1)" cx="15" cy="-5.3906" r="2.4688" color="#000000"/>
 </g>
</svg>
