<svg id="SVGRoot" width="32" height="32" version="1.1" viewBox="0 0 32 32" xmlns="http://www.w3.org/2000/svg">
 <rect x="1" y="1" width="30" height="30" rx="4" fill="#808080" stroke="#ffffff" stroke-width="2"/>
 <rect x="1" y="1" width="30" height="30" rx="4" fill="#000000"/>
 <g fill="none" stroke="#ffff00" stroke-width="2.1223">
  <path d="m3.5945 9.839c1.6325 1.6325 6.5285 4.8959 11.424 1.6325 4.8976-3.2651 9.7952 0 11.426 1.6325"/>
  <path d="m3.5945 4.9414c1.6325 1.6342 6.5285 4.8976 11.424 1.6342 4.8976-3.2651 9.7952 0 11.426 1.6309"/>
  <path d="m3.5945 14.735c1.6325 1.6342 6.5285 4.896 11.424 1.6342 4.8976-3.2651 9.7952 0 11.426 1.6309"/>
 </g>
 <path d="m7.0673 29.115 20.788-22.115 1.7692 8.8462-0.66346 9.2885-3.4279 3.9808s-6.6346 0.88462-7.7404 0.88462-10.726-0.88462-10.726-0.88462z" fill="#000000"/>
 <path d="m26.486 10.981-10.439 10.987-0.036 0.062h-0.036v0.031h5.855l-3.4094 8.0191 10.439-10.987 0.036-0.062 0.037-0.031h-5.9324z" fill="#ffff00"/>
</svg>
