<svg width="32" height="28" version="1.1" viewBox="0 0 32 28" xmlns="http://www.w3.org/2000/svg">
 <path d="m15.994 3.9565-10 5.9939v17.007h20v-16.911z" fill="#808080" stroke="#ffffff" stroke-width="2"/>
 <path d="m15.994 0.95656-0.93126 0.60801-13.069 8.128a1.8875 1.8865 0 1 0 1.8936 3.264l12.137-7.52 12.075 7.4881a1.9014 1.9004 0 0 0 1.8936-3.296l-13.007-8.064z" color="#000000" fill="#808080" stroke="#ffffff" stroke-width="2" style="text-decoration-line:none;text-indent:0;text-transform:none"/>
 <path d="m15.994 3.9997-10 5.9939v17.007h20v-16.911z" stroke-width=".99999"/>
 <path d="m15.994 0.99976-0.93126 0.60801-13.069 8.128a1.8875 1.8865 0 1 0 1.8936 3.264l12.137-7.52 12.075 7.4881a1.9014 1.9004 0 0 0 1.8936-3.296l-13.007-8.064z" color="#000000" stroke-width=".99999" style="text-decoration-line:none;text-indent:0;text-transform:none"/>
 <path d="m20.032 4.4504-10.439 10.987-0.036 0.062h-0.036v0.031h5.855l-3.4094 8.0191 10.439-10.987 0.036-0.062 0.037-0.031h-5.9324z" fill="#ffff00"/>
</svg>
