<svg width="32" height="28" version="1.1" viewBox="0 0 8.47 7.41" xmlns="http://www.w3.org/2000/svg">
 <path d="m4.2624 1.0816-2.65 1.5874v4.505h5.3v-4.4785z" fill="#5a2700" stroke="#ffffff" stroke-width=".53"/>
 <path d="m4.2624 0.28663-0.24672 0.16112-3.4715 2.1544a0.50085 0.50085 0 1 0 0.50085 0.8639l3.2065-1.9928 3.2065 1.9848a0.50389 0.50389 0 0 0 0.50085-0.8745l-3.445-2.1359z" color="#000000" fill="#5a2700" stroke="#ffffff" stroke-width=".53" style="text-decoration-line:none;text-indent:0;text-transform:none"/>
 <path d="m4.2624 1.0816-2.65 1.5874v4.505h5.3v-4.4785z" fill="#000000" stroke-width=".265"/>
 <path d="m4.2624 0.28663-0.24672 0.16112-3.4715 2.1544a0.50085 0.50085 0 1 0 0.50085 0.8639l3.2065-1.9928 3.2065 1.9848a0.50389 0.50389 0 0 0 0.50085-0.8745l-3.445-2.1359z" color="#000000" fill="#000000" stroke-width=".265" style="text-decoration-line:none;text-indent:0;text-transform:none"/>
 <path d="m2.3674 2.7066v0.256l1.85 1.34 1.85-1.34v-0.256zm3.7 0.529-1.78 1.29-0.0744 0.0496-0.0744-0.0496-1.78-1.28v2.11h3.7z" fill="#ffff00"/>
</svg>
