<svg id="SVGRoot" width="32" height="32" version="1.1" viewBox="0 0 32 32" xmlns="http://www.w3.org/2000/svg">
 <rect x="1" y="1" width="30" height="30" rx="4" fill="#808080" stroke="#ffffff" stroke-width="2"/>
 <rect x="1" y="1" width="30" height="30" rx="4" fill="#000000"/>
 <g fill="#ffff00" stroke="#ffff00" stroke-linecap="round" stroke-linejoin="round" stroke-width=".62798">
  <path d="m4.779 15.916c0.55248 4.1222-0.015206 8.2836-1.1649 12.321h9.9102c-1.1497-4.0374-1.7174-8.1988-1.1644-12.321-1.9478 0.64326-4.1752 0.60732-6.2335 0.34559-0.46309-0.082021-0.91236-0.20229-1.3473-0.34559z" stop-color="#000000" style="-inkscape-stroke:none;font-variation-settings:normal"/>
  <path d="m12 23h10.101v5.2382h-10.101v-5.2382z" stop-color="#000000" style="-inkscape-stroke:none;font-variation-settings:normal"/>
  <path d="m7.6359 4.1951c-0.21012 2-1.0907 3.8551-2.3519 5.4033-1.1543 1.516-0.75385 3.7674 0.66999 4.9645 0.45111 0.47738 1.8865 1.4091 0.86536 0.25666-0.97595-1.1971-0.60594-2.8186 0.43452-3.8319 0.74694-0.64326 0.94369-2.5947 1.563-2.5611 1.4229 1.0736 2.3417 2.926 1.8044 4.7046 0 0.59442-0.85061 2.1436-0.53682 2.08 1.7574-1.2718 2.7316-3.6421 1.9689-5.7387-0.73588-2.2398-2.5449-3.9461-4.4176-5.2775z" fill-rule="evenodd" stop-color="#000000" style="-inkscape-stroke:none;font-variation-settings:normal"/>
 </g>
 <path d="m7.2871 15.468c-1.0082-1.0755-1.5588-2.8832-0.35296-4.042 0.90591-0.73173 1.2211-2.8707 1.8828-2.9993 1.4229 1.0736 2.3417 2.926 1.8044 4.7046-0.21841 1.2796-0.72851 3.1444-2.4569 2.5753-0.29629-0.065432-0.58566-0.15667-0.87734-0.23869z" fill="#ffffff" fill-rule="evenodd" stroke="#7f7f02" stroke-linecap="square" stroke-width=".41273"/>
 <path d="m5.7554 29.769 22.343-23.769 1.9015 9.5077-0.71308 9.9831-3.6842 4.2785s-7.1308 0.95077-8.3192 0.95077c-1.1885 0-11.528-0.95077-11.528-0.95077z" fill="#000000"/>
 <path d="m26.486 10.981-10.439 10.987-0.036 0.062h-0.036v0.031h5.855l-3.4094 8.0191 10.439-10.987 0.036-0.062 0.037-0.031h-5.9324z" fill="#ffff00"/>
</svg>
