<svg id="SVGRoot" width="32" height="32" version="1.1" viewBox="0 0 32 32" xmlns="http://www.w3.org/2000/svg">
 <g>
  <rect x="1" y="1" width="30" height="30" rx="4" fill="#808080" stroke="#ffffff" stroke-width="2"/>
  <rect x="1" y="1" width="30" height="30" rx="4" fill="#000000"/>
  <path d="m15.062 3.5807c-1.1833 1.9227-2.3614 3.8641-3.5425 5.7941-0.43296-0.41008-0.98394-0.35618-1.5075-0.15506-1.0083-1.8505-2.0164-3.7009-3.0247-5.5513-2.2556 1.421-3.6439 4.0974-3.492 6.761 1.926 0.04667 3.8521 0.09364 5.7781 0.1403-0.073761 0.62204 0.25803 1.0984 0.65546 1.4067-0.93125 1.5304-1.8773 3.0629-2.7992 4.5921 2.1082 1.3151 4.8679 1.4753 7.12 0.43145-0.91981-1.6891-1.8396-3.3779-2.7594-5.0669 0.55369-0.20835 0.72953-0.62776 0.83069-1.31 2.1199 0.02349 4.2402 0.04667 6.3601 0.07016 0.249-2.8124-1.1905-5.6637-3.619-7.1125z" fill="#ffff00" stop-color="#000000" stroke="#ffff00" stroke-linecap="round" stroke-linejoin="round" stroke-width=".50236" style="-inkscape-stroke:none;font-variation-settings:normal"/>
  <path d="m4.125 29 23.5-25 2 10-0.75 10.5-3.875 4.5s-7.5 1-8.75 1-12.125-1-12.125-1z" fill="#000000"/>
 </g>
 <path d="m26.486 10.981-10.439 10.987-0.036 0.062h-0.036v0.031h5.855l-3.4094 8.0191 10.439-10.987 0.036-0.062 0.037-0.031h-5.9324z" fill="#ffff00"/>
</svg>
