<svg width="51" height="58" version="1.1" viewBox="0 0 51 58" xmlns="http://www.w3.org/2000/svg">
 <path d="m18.643 1.0088c-0.341 0.065-0.3165 1.2948 0.2188 4.1874 0.8491 4.8153 2.9596 15.326 3.625 18.75-4.5264 4.9247-21.913 26.494-10.937 17.125 3.7431-3.1408 11.767-10.206 14.406-12.5 6.5275 1.4574 33.914 5.7269 20.312 0.9063-4.5922-1.6717-14.726-5.1122-18.031-6.25-1.5973-5.0896-8.2624-22.473-9.5938-22.219zm7.7813 29.156c-0.9382 0.8169-1.908 1.7641-3.5 3.1562l-1.0625 18.219c1.6609 4.5701 5.3796 4.3024 7.0625 0l-1.0625-21.031c-0.878-0.1665-0.7831-0.2046-1.4375-0.3438z" fill="#cecece" stroke="#000" stroke-width="2"/>
 <g fill="#fff">
  <path d="m26.403 30.306c-0.9382 0.8169-1.9029 1.7484-3.4949 3.1405l-1.0407 18.219c1.661 4.5701 5.3776 4.3024 7.0604 0l-1.0596-21.023c-0.8779-0.1664-0.8108-0.1969-1.4652-0.3361z"/>
  <path d="m18.854 5.3318c0.9517 5.3968 3.7556 19.263 4.0011 20.655 0.2456 1.3928 1.4922 2.6092 3.0155 2.3406s3.1952-0.9674 2.7117-3.7092c-0.4835-2.7422-12.583-34.714-9.7283-19.287z"/>
  <path d="m11.532 41.222c4.1981-3.5226 14.804-12.884 15.888-13.793 1.0834-0.909 1.5135-2.5968 0.5193-3.7816-0.9943-1.185-2.4353-2.2836-4.5682-0.4938-2.1329 1.7896-23.772 28.254-11.839 18.068z"/>
  <path d="m46.274 29.618c-5.1496-1.8746-18.56-6.3792-19.889-6.8626-1.3288-0.484-3.0056-0.02-3.5346 1.441-0.5291 1.4534-0.7599 3.2506 1.8563 4.2032 2.6165 0.9522 36.355 6.4594 21.567 1.2184z"/>
 </g>
 <ellipse cx="25.696" cy="25.433" rx="2" ry="1.5139"/>
</svg>
