<svg width="32" height="32" version="1.1" viewBox="0 0 32 32" xmlns="http://www.w3.org/2000/svg">
 <rect x="1" y="1" width="30" height="30" rx="4" fill="#808080" stroke="#fff" stroke-width="2"/>
 <rect x="1" y="1" width="30" height="30" rx="4"/>
 <g transform="rotate(-15.572 -3950.7 3783.5)" fill="#ff0" stroke="#ff0" stroke-linecap="round" stroke-linejoin="round">
  <circle transform="matrix(.074026 0 0 .074026 851.78 1210)" cx="406" cy="122" r="76" stroke-width="11.268"/>
  <g stroke-width="1.6682">
   <path d="m889.98 1219.1h3.9915"/>
   <path d="m881.84 1226.9v3.9915"/>
   <path d="m885.8 1226.3 1.8485 3.5376"/>
   <path d="m888.91 1223.3 3.3962 2.0971"/>
   <path d="m885.8 1212 1.8485-3.5378"/>
   <path d="m888.91 1215 3.3962-2.0973"/>
   <path d="m873.6 1219h-3.9915"/>
   <path d="m881.74 1210.9v-3.9916"/>
   <path d="m877.78 1211.9-1.8485-3.5376"/>
   <path d="m874.67 1214.8-3.3962-2.0973"/>
   <path d="m881.74 1227.2v3.9914"/>
   <path d="m877.78 1226.3-1.8485 3.5376"/>
   <path d="m874.67 1223.3-3.3962 2.0971"/>
  </g>
 </g>
 <path d="m4.125 29 23.5-25 2 10-.75 10.5-3.875 4.5s-7.5 1-8.75 1-12.125-1-12.125-1z"/>
 <path d="m26.486 10.981-10.439 10.987-.036.062h-.036v.031h5.855l-3.4094 8.0191 10.439-10.987.036-.062.037-.031h-5.9324z" fill="#ff0"/>
</svg>
