<svg height="32" viewBox="0 0 8.4667 8.4667" width="32" xmlns="http://www.w3.org/2000/svg">
	<circle cx="4.2333" cy="4.2333" fill="#ffc400" r="3.5884" stroke="#f2b800" stroke-width=".4486"/>
	<g fill="#5d0000">
		<path d="m4.2333 1.1672-3.3201.94573v.47287l3.3201-.94573 3.3201.94573v-.47287zm-1.6424 1.6892c-.073982.0029489-.14748.01755-.22048.045254v2.9416s1.1877-.04546 1.4905 1.1037v-3.0893c-.23105-.4801-.75219-1.0217-1.27-1.0011zm1.27 4.0905c-.76862-.58605-1.8638-.73516-1.8638-.73516v-2.7947l-.3724-.14777v3.3101l2.2362.73516h.7448l2.2362-.73516v-3.3101l-.3724.14777v2.9416l-1.8638.58831c-.24844-.093652-.53753-.076988-.7448.0000006zm2.2353-4.0452c-.74254-.039181-1.5992.40094-2.0491.77949v3.1124c.41544-.34001 1.1598-.78693 2.0491-.87647z" stroke="#f2b800" stroke-width=".74636"/>
		<path d="m4.2333 1.1672-3.3201.94573v.47287l3.3201-.94573 3.3201.94573v-.47287zm-1.6424 1.6892c-.073982.00295-.14748.017551-.22048.045254v2.9416s1.1877-.04546 1.4905 1.1037v-3.0893c-.23105-.4801-.75219-1.0217-1.27-1.0011zm1.27 4.0905c-.76862-.58605-1.8638-.73516-1.8638-.73516v-2.7947l-.3724-.14777v3.3101l2.2362.73516h.7448l2.2362-.73516v-3.3101l-.3724.14777v2.9416l-1.8638.58831c-.24844-.093652-.53753-.076988-.7448.0000006zm2.2353-4.0452c-.74254-.039181-1.5992.40094-2.0491.77949v3.1124c.41544-.34001 1.1598-.78693 2.0491-.87647z"/>
	</g>
</svg>
