<svg height="34" viewBox="0 0 8.9958 8.9958" width="34" xmlns="http://www.w3.org/2000/svg"><circle cx="4.4979" cy="4.4979" fill="#12ef12" r="4.2062" stroke="#00dc00" stroke-width=".52533"/><path d="m5.2887 1.5134c-.033629-.46882-.36387-.78771-.7908-.79351-.47193.036004-.78525.36665-.7908.79351.034989.45894.37283.78763.7908.79351.46038-.036069.78508-.37425.7908-.79351z" fill="#fc0" opacity=".8" stroke="#00d400" stroke-width=".60558"/><path d="m3.4381 2.4673c-.28262 0-.52721.10054-.72831.29892-.2011.2011-.29892.44839-.29892.74188v1.9645c.031078-.012723.061923-.024184.093507-.037248.066312-.027428.13439-.054083.20684-.073391.036225-.00965.073521-.017471.11227-.022651.038753-.00518.078958-.00771.1209-.00679.030918.0005114.061479.00371.09179.00891.00264.0004526.00522.00136.00785.00184v-1.7537h.38049v1.8765c.019763.00664.039232.014867.059162.020525.030151.00856.060523.015769.091217.020975.030694.00521.06171.0084.093139.00891.032962.0002541.065957-.00227.099067-.00687s.066301-.011265.099599-.019298c.066594-.016066.13362-.037581.2012-.058917.067585-.021336.13574-.042473.20464-.057772.034447-.00765.069098-.013847.10393-.017868.034834-.00402.069857-.00589.10512-.00487.033728.0005114.0677.00394.10185.00953.034148.00559.068481.013346.10299.022528.069022.018365.13871.042427.20885.066318s.14073.047614.21154.065213c.035406.0088.070856.016046.10635.021057.035489.00501.070991.00778.10651.00752.035517-.0007655.070695-.00463.10561-.010753.034914-.00612.069585-.014517.1041-.02445.017697-.00509.035195-.012571.052825-.018358v-1.8999h.36687v1.7744c.032787-.0089.06575-.016688.099067-.022079.035489-.00574.071329-.00915.10761-.0094.036539 0 .073533.00306.11084.00838.03731.00532.074931.012928.11276.022079.062717.01517.12605.035653.1893.055892v-1.8565c0-.28262-.095119-.52991-.28534-.74188-.19023-.21197-.4348-.31522-.74732-.33424z" fill="#fc0" opacity=".8" stroke="#00d400" stroke-width=".60558"/><path d="m5.2887 1.5134c-.033629-.46882-.36387-.78771-.7908-.79351-.47193.036004-.78525.36665-.7908.79351.034989.45894.37283.78763.7908.79351.46038-.036069.78508-.37425.7908-.79351z" fill="#004900" stroke-width="1.32"/><path d="m3.4381 2.4673c-.28262 0-.52721.10054-.72831.29892-.2011.2011-.29892.44839-.29892.74188v1.9645c.031078-.012723.061923-.024184.093507-.037248.066312-.027428.13439-.054083.20684-.073391.036225-.00965.073521-.017471.11227-.022651.038753-.00518.078958-.00771.1209-.00679.030918.0005114.061479.00371.09179.00891.00264.0004526.00522.00136.00785.00184v-1.7537h.38049v1.8765c.019763.00664.039232.014867.059162.020525.030151.00856.060523.015769.091217.020975.030694.00521.06171.0084.093139.00891.032962.0002541.065957-.00227.099067-.00687s.066301-.011265.099599-.019298c.066594-.016066.13362-.037581.2012-.058917.067585-.021336.13574-.042473.20464-.057772.034447-.00765.069098-.013847.10393-.017868.034834-.00402.069857-.00589.10512-.00487.033728.0005114.0677.00394.10185.00953.034148.00559.068481.013346.10299.022528.069022.018365.13871.042427.20885.066318s.14073.047614.21154.065213c.035406.0088.070856.016046.10635.021057.035489.00501.070991.00778.10651.00752.035517-.0007655.070695-.00463.10561-.010753.034914-.00612.069585-.014517.1041-.02445.017697-.00509.035195-.012571.052825-.018358v-1.8999h.36687v1.7744c.032787-.0089.06575-.016688.099067-.022079.035489-.00574.071329-.00915.10761-.0094.036539 0 .073533.00306.11084.00838.03731.00532.074931.012928.11276.022079.062717.01517.12605.035653.1893.055892v-1.8565c0-.28262-.095119-.52991-.28534-.74188-.19023-.21197-.4348-.31522-.74732-.33424z" fill="#004900" stroke-width="1.32"/><path d="m1.270431 6.262591c-.3456767 0-.6669783.2014719-.9958012.311091v1.0118208s.4977516-.3268619.9958012-.3271106c.4980233-.0002487.9959913.4981589 1.7430398.4981589.747048 0 .983251-.480879 1.494477-.4981589.498023.0002487.746912.4981589 1.49396.4981589.747075 0 1.24499-.4981589 1.743039-.4981589.349434 0 .996318.3271106.996318.3271106v-1.0118208c-.319562-.1229144-.669347-.311091-.996318-.311091-.747074 0-1.244989.4978909-1.743039.4976422-.498024-.0002487-.746912-.4976422-1.49396-.4976422-.747075 0-.996427.4978909-1.494477.4976422-.49805.0002487-.9959916-.4976422-1.7430398-.4976422z" fill="#fc0" stroke="#00d400" stroke-width=".529165"/><path d="m1.2802495 6.2770604c-.3456769 0-.667495.2014718-.9963179.3110909v1.0118208s.4982681-.3263451.9963179-.3265938c.4980233-.0002487.9959913.4976422 1.7430393.4976422.747049 0 .982734-.4803623 1.49396-.4976422.498024.0002487.746912.4976422 1.49396.4976422.747075 0 1.245507-.4976422 1.743557-.4976422.349434 0 .995801.3265938.995801.3265938v-1.0118208c-.319562-.1229144-.66883-.3110909-.995801-.3110909-.747075 0-1.245507.4984076-1.743556.4981589-.498024-.0002487-.746912-.4981589-1.493961-.4981589-.747074 0-.99591.4984076-1.49396.4981589-.4980495.0002487-.9959911-.4981589-1.7430393-.4981589z" fill="#004900"/></svg>