<svg width="34" height="34" version="1.1" viewBox="0 0 8.9958 8.9958" xmlns="http://www.w3.org/2000/svg">
 <g transform="translate(-.51412 -287.3)">
  <g stroke="#f2b800">
   <circle cx="5.006" cy="291.79" r="4.2256" fill="#ffc400" stroke-width=".52826"/>
   <path d="m2.5471 287.58c-.27146 0-.24499.31236-.24499.49795v1.2448c0 .24897-.24383.62183-.48998.74691-.48998.24897-.73498.49794-.73498.99588v4.4815c0 .27586.21853.49794.48998.49794h2.4499c.27146 0 .48998-.22208.48998-.49794v-4.4815c0-.49794-.24499-.74691-.73497-.99588-.24432-.12414-.48998-.49794-.48998-.74691v-1.2448c0-.24898.026469-.49795-.24499-.49795z" color="#000000" fill="#006f00" stroke-linejoin="round" stroke-width=".52917"/>
   <path d="m5.6006 291.03v1.6375c0 .50234.48831 1.0047.97662 1.0047h.48831v1.1254c0 .25117-.48831.75351-.97662.75351-.48831 0-.48831.50235-.48831.50235h3.4182s0-.50235-.48831-.50235c-.48831 0-.97662-.50234-.97662-.75351v-1.1254h.48831c.48831 0 .97662-.50235.97662-1.0047v-1.6375z" color="#000000" fill="#006f00" stroke-linejoin="round" stroke-width=".52917"/>
  </g>
  <path d="m2.5471 287.58c-.27146 0-.24499.31236-.24499.49794v1.2449c0 .24896-.24383.62182-.48998.74691-.48998.24897-.73498.49794-.73498.99588v4.4815c0 .27587.21853.49795.48998.49795h2.4499c.27146 0 .48998-.22208.48998-.49795v-4.4815c0-.49794-.24499-.74691-.73497-.99588-.24432-.12414-.48998-.49795-.48998-.74691v-1.2449c0-.24897.026469-.49794-.24499-.49794z" color="#000000" fill="#5d0000"/>
  <path d="m5.6006 291.03v1.6375c0 .50234.48831 1.0047.97662 1.0047h.48831v1.1254c0 .25117-.48831.75351-.97662.75351-.48831 0-.48831.50235-.48831.50235h3.4182s0-.50235-.48831-.50235c-.48831 0-.97662-.50234-.97662-.75351v-1.1254h.48831c.48831 0 .97662-.50234.97662-1.0047v-1.6375z" color="#000000" fill="#5d0000"/>
 </g>
</svg>
