<svg width="44.191" height="35.107" version="1.1" viewBox="0 0 44.191 35.107" xmlns="http://www.w3.org/2000/svg">
 <circle cx="15.124" cy="28.107" r="6" fill="none" stroke="#fff" stroke-width="2"/>
 <circle cx="29.104" cy="28.107" r="6" fill="none" stroke="#fff" stroke-width="2"/>
 <g>
  <circle cx="15.124" cy="28.107" r="6"/>
  <path d="m11.037 25.791c-0.40152 0.68943-0.63744 1.4721-0.63744 2.325 0 2.6095 2.1155 4.725 4.725 4.725s4.725-2.1155 4.725-4.725c0-0.85292-0.23591-1.6356-0.63743-2.325z" fill="#f00"/>
  <circle cx="29.104" cy="28.107" r="6"/>
  <path d="m25.016 25.791c-0.40152 0.68944-0.63743 1.4721-0.63743 2.325 0 2.6096 2.1155 4.725 4.725 4.725s4.725-2.1155 4.725-4.725c0-0.8529-0.23592-1.6356-0.63744-2.325z" fill="#00a600"/>
 </g>
 <path d="m38.843 23.13-16.747-8.1412-16.747 8.1412-4.0704-0.9131 1.0882-3.4358 13.766-6.6913-13.766-6.6913-1.0846-3.4266 4.0668-0.92225 16.747 8.1413 16.747-8.1413 4.067 0.92225-1.0846 3.4266-13.766 6.6913 13.766 6.6913 1.0881 3.4358z" fill="none" stroke="#fff" stroke-width="1.9931"/>
 <path d="m38.741 23.182-16.747-8.1412-16.747 8.1412-4.0704-0.9131 1.0881-3.4358 13.766-6.6913-13.766-6.6913-1.0846-3.4266 4.0669-0.92225 16.747 8.1413 16.747-8.1413 4.0669 0.92225-1.0847 3.4266-13.766 6.6913 13.766 6.6913 1.0881 3.4358z" fill="#d40000"/>
 <path d="m39.309 5.174-1.4909-2.1742-15.825 7.6927-15.825-7.6927-1.4909 2.1742 14.334 6.9679-14.334 6.9679 1.4909 2.1742 15.825-7.6926 15.825 7.6926 1.4909-2.1742-14.334-6.9679 14.334-6.9679" fill="#fff"/>
</svg>
