<svg width="38" height="32" version="1.1" viewBox="0 0 38 32" xmlns="http://www.w3.org/2000/svg">
 <path d="m33.018 19.065-14.48-6.6367-14.481 6.6367-3.5195-0.7444 0.9408-2.8009 11.902-5.4547-11.902-5.4548-0.9378-2.7934 3.5165-0.7518 14.481 6.6367 14.48-6.6367 3.5165 0.7518-0.9378 2.7934-11.903 5.4548 11.903 5.4547 0.9408 2.8009z" fill="none" stroke="#fff" stroke-width="2"/>
 <path d="m33.018 19.017-14.48-6.6367-14.481 6.6367-3.5195-0.74436 0.94086-2.8009 11.902-5.4548-11.902-5.4548-0.93784-2.7934 3.5165-0.75181 14.481 6.6368 14.48-6.6368 3.5165 0.75181-0.93785 2.7934-11.903 5.4548 11.903 5.4548 0.94084 2.8009z" fill="#d40000"/>
 <path d="m33.51 4.3365-1.2891-1.7724-13.683 6.2711-13.683-6.2711-1.2891 1.7724 12.394 5.6803-12.394 5.6802 1.2891 1.7724 13.683-6.271 13.683 6.271 1.2891-1.7724-12.394-5.6802 12.394-5.6803" fill="#fff"/>
 <path d="m17.802 6.6255c1.288-0.034 2.303-1.13 2.269-2.438-0.034-1.325-1.101-2.353-2.39-2.329-1.282 0.035-2.296 1.13-2.269 2.445 0.033 1.315 1.108 2.356 2.39 2.323zm7.91 7.899-3.411-1.905-2.824-4.491c-0.453-0.577-1.161-1.004-1.969-0.994-0.607 0.021-1.142 0.3-1.569 0.676l-4.254 4.347c-0.14 0.15-0.237 0.341-0.27 0.55l-0.545 4.788c-6e-3 0.052-6e-3 0.095-0.01 0.147 0.017 0.594 0.501 1.055 1.081 1.044 0.545-0.013 0.961-0.485 1.021-1.003l0.448-4.109 1.482-1.506-1.325 11.515-2.457 5.433c-0.074 0.191-0.15 0.458-0.144 0.71 0.024 0.888 0.748 1.591 1.619 1.571 0.617-0.017 1.119-0.397 1.389-0.936l2.632-5.864c0.053-0.157 0.24-0.54 0.246-0.713l0.307-2.838 2.71 9.23c0.233 0.645 0.828 1.133 1.542 1.113 0.868-0.024 1.562-0.759 1.542-1.65-7e-3 -0.116-0.041-0.191-0.047-0.325l-3.766-12.799 0.481-4.159 1.062 1.68c0.073 0.109 0.173 0.212 0.287 0.283l3.725 2.086c0.18 0.058 0.321 0.106 0.486 0.106 0.589-0.017 1.049-0.512 1.036-1.11-0.012-0.366-0.214-0.701-0.508-0.879z" fill="none" stroke="#fff" stroke-width="1.6"/>
 <path d="m17.802 6.6255c1.288-0.034 2.303-1.13 2.269-2.438-0.034-1.325-1.101-2.353-2.39-2.329-1.282 0.035-2.296 1.13-2.269 2.445 0.033 1.315 1.108 2.356 2.39 2.323zm7.91 7.899-3.411-1.905-2.824-4.491c-0.453-0.577-1.161-1.004-1.969-0.994-0.607 0.021-1.142 0.3-1.569 0.676l-4.254 4.347c-0.14 0.15-0.237 0.341-0.27 0.55l-0.545 4.788c-6e-3 0.052-6e-3 0.095-0.01 0.147 0.017 0.594 0.501 1.055 1.081 1.044 0.545-0.013 0.961-0.485 1.021-1.003l0.448-4.109 1.482-1.506-1.325 11.515-2.457 5.433c-0.074 0.191-0.15 0.458-0.144 0.71 0.024 0.888 0.748 1.591 1.619 1.571 0.617-0.017 1.119-0.397 1.389-0.936l2.632-5.864c0.053-0.157 0.24-0.54 0.246-0.713l0.307-2.838 2.71 9.23c0.233 0.645 0.828 1.133 1.542 1.113 0.868-0.024 1.562-0.759 1.542-1.65-7e-3 -0.116-0.041-0.191-0.047-0.325l-3.766-12.799 0.481-4.159 1.062 1.68c0.073 0.109 0.173 0.212 0.287 0.283l3.725 2.086c0.18 0.058 0.321 0.106 0.486 0.106 0.589-0.017 1.049-0.512 1.036-1.11-0.012-0.366-0.214-0.701-0.508-0.879z"/>
</svg>
