<svg width="32" height="32" version="1.1" viewBox="0 0 8.4667 8.4667" xmlns="http://www.w3.org/2000/svg">
 <defs>
  <radialGradient id="radialGradient5308" cx="2865" cy="237" r="15" gradientTransform="matrix(.26458 0 0 .26458 -753.8 -58.475)" gradientUnits="userSpaceOnUse">
   <stop stop-color="#1279ff" offset="0"/>
   <stop stop-color="#0c76ff" offset="1"/>
  </radialGradient>
 </defs>
 <rect x=".2646" y=".2646" width="7.9375" height="7.9375" rx="1.0583" fill="#1279ff" stroke="#ffffff" stroke-width=".52917"/>
 <rect x=".2646" y=".2646" width="7.9375" height="7.9375" rx="1.0583" fill="url(#radialGradient5308)"/>
 <path d="m1.0749 4.2634v2.6376h6.3252l-6.3253-2.6376z" fill="#cccccc"/>
 <path d="m3.921 2.1534 0.84905 0.35293c0.1311 0.0545 0.23667 0.21269 0.23667 0.35469v0.81029c0 0.142-0.10557 0.21244-0.23667 0.15793l-0.84905-0.35293c-0.1311-0.0545-0.23667-0.21269-0.23667-0.35469v-0.81028c0-0.142 0.10557-0.21244 0.23667-0.15794zm1.8373 0.76374 0.87955 0.36561c0.12269 0.051 0.22143 0.19899 0.22143 0.33182v0.84336c0 0.13284-0.098743 0.19873-0.22143 0.14774l-0.87955-0.36562c-0.12266-0.051-0.2214-0.19897-0.2214-0.33181v-0.84336c0-0.13283 0.098743-0.19873 0.2214-0.14774zm-3.1621-1.5311 0.47958 0.19936v1.5958l-0.66974-0.2784c-0.15555-0.0647-0.42489-0.37083-0.33073-0.68318zm-0.21495-0.10289-0.79375 1.2485v0.45476l-0.52091-0.21496v0.28112l0.52091 0.21496v0.21497c0 0.17275 0.2 0.44019 0.35555 0.50436l5.4487 2.2654v-3.2329l-4.101-1.7115c-0.46448-0.17692-0.70279-0.33177-0.90951-0.0248z" fill="#ffffff"/>
</svg>
