<svg width="32" height="29" version="1.1" viewBox="0 0 8.4667 7.6729" xmlns="http://www.w3.org/2000/svg">
 <g transform="translate(0 -289.33)" stroke-linecap="round" stroke-linejoin="round">
  <path d="m4.227 290.13 3.4314 6.0854h-6.871z" fill="#f00" stroke="#fff" stroke-dashoffset=".18" stroke-width="1.5875"/>
  <path d="m4.227 290.13 3.4314 6.0854h-6.871z" fill="#f00" stroke="#f00" stroke-dashoffset=".18" stroke-width="1.0583"/>
  <g transform="translate(.55716 -.3111)" fill="none" stroke="#a7edff" stroke-width=".52917">
   <path d="m3.5891 294c.90797 0 1.2257-.60836 1.4709-.85349 0 .31779.036327.86256.27239.86256h.29961"/>
   <path d="m2.663 295.83c.90797 0 1.2257-.60836 1.4709-.8535 0 .31779.036327.86257.27239.86257h.29961"/>
   <path d="m4.5053 295.83c.90797 0 1.2257-.60836 1.4709-.8535 0 .31779.036327.86257.27239.86257h.29961"/>
   <path d="m1.7301 294c.90797 0 1.2257-.60836 1.4709-.85349 0 .31779.036301.86256.27239.86256h.29961"/>
   <path d="m.80411 295.83c.90797 0 1.2257-.60836 1.4709-.8535 0 .31779.036301.86257.27239.86257h.29961"/>
  </g>
 </g>
</svg>
