<svg width="34" height="34" version="1.1" viewBox="0 0 8.9958 8.9958" xmlns="http://www.w3.org/2000/svg">
 <g transform="translate(-.51412 -287.3)">
  <g stroke="#f2b800">
   <circle cx="5.006" cy="291.79" r="4.2256" fill="#ffc400" stroke-width=".52826"/>
   <path d="m2.6209 287.58c-.23918 0-.23918.22281-.23918.22281v2.6737c0 .22281.23918.44561.47835.66842.23918.22281.23918.44562.23918.66842v.66843c0 .2228-.23918 2.8965-.23918 2.8965-.018336.22213.23918.66842.71753.66842.47835 0 .73593-.44562.71753-.66842 0 0-.23918-2.6737-.23918-2.8965v-.66843c0-.2228 0-.44561.23918-.66842.2203-.20522.47836-.44561.47836-.66842v-2.6737s0-.22281-.23918-.22281-.23918.22281-.23918.22281v2.0053s0 .22281-.23918.22281c-.23918 0-.23918-.22281-.23918-.22281v-2.0053s0-.22281-.23918-.22281c-.23918 0-.23918.22281-.23918.22281v2.0053s0 .22281-.23918.22281c-.23918 0-.23918-.22281-.23918-.22281v-2.0053s0-.22281-.23918-.22281z" color="#000000" fill="#006f00" stroke-linejoin="round" stroke-width=".52917"/>
   <path d="m7.4121 287.58c-.40176 0-1.1521.10477-1.4062.66842-.20088.44561-.20088 1.5596-.20088 2.0053v2.2281c0 .2228.20088.44561.40176.44561h.40176v2.6737c0 .22281.20088.44562.40177.44562.20088 0 .40176-.22281.40176-.44562z" color="#000000" fill="#006f00" stroke-linejoin="round" stroke-width=".52917"/>
  </g>
  <path d="m2.6209 287.58c-.23918 0-.23918.22281-.23918.22281v2.6737c0 .2228.23918.44561.47835.66842.23918.22281.23918.44561.23918.66842v.66842c0 .22281-.23918 2.8965-.23918 2.8965-.018336.22214.23918.66842.71753.66842.47835 0 .73593-.44561.71753-.66842 0 0-.23918-2.6737-.23918-2.8965v-.66842c0-.22281 0-.44561.23918-.66842.2203-.20522.47836-.44562.47836-.66842v-2.6737s0-.22281-.23918-.22281c-.23918 0-.23918.22281-.23918.22281v2.0053s0 .2228-.23918.2228c-.23918 0-.23918-.2228-.23918-.2228v-2.0053s0-.22281-.23918-.22281c-.23918 0-.23918.22281-.23918.22281v2.0053s0 .2228-.23918.2228c-.23918 0-.23918-.2228-.23918-.2228v-2.0053s0-.22281-.23918-.22281z" color="#000000" fill="#5d0000"/>
  <path d="m7.4121 287.58c-.40176 0-1.1521.10476-1.4062.66842-.20088.44561-.20088 1.5596-.20088 2.0053v2.2281c0 .22281.20088.44562.40176.44562h.40176v2.6737c0 .22281.20088.44561.40177.44561.20088 0 .40176-.2228.40176-.44561z" color="#000000" fill="#5d0000"/>
 </g>
</svg>
