<svg width="26" height="26" version="1.1" viewBox="0 0 6.8792 6.8792" xmlns="http://www.w3.org/2000/svg">
 <g transform="translate(-.59171 -289.66)">
  <rect x=".8563" y="289.93" width="6.35" height="6.35" rx="1.2687" fill="#00b100" stroke="#fff" stroke-width=".52917"/>
  <rect x=".8563" y="289.93" width="6.35" height="6.35" rx="1.2687" fill="#009500"/>
  <g transform="matrix(.00848 0 0 .00848 1.3464 290.6)" fill="#fff">
   <g fill="#fff">
    <path d="m99.777 446.09c-6.699 12.031-12.031 30.133-12.031 41.539 0 2.648 0 6.016.656 10.688l-83.726-143.99c-2.68-4.672-4.676-11.375-4.676-17.414 0-6.047 1.996-13.398 4.676-18.078l40.195-70.328-44.871-25.43 146.02-2.703 70.984 127.91-45.527-26.117zm64.313-405.86c12.715-22.125 33.496-34.18 58.926-34.18 27.48 0 48.918 12.742 64.312 38.828l22.777 38.172-79.051 136.66-127.91-74.352zm9.351 521.72c-38.172 0-69.645-31.477-69.645-69.648 0-10.719 4.703-28.82 11.402-40.195l21.41-38.172h158.76v148.02h-121.92zm127.29-525.76c-10.036-17.391-23.434-29.477-39.512-36.18h164.75c14.738 0 26.113 6.047 32.84 17.445l40.852 69.648 44.191-26.141-71.016 127.28-145.3-2.047 44.871-25.43zm253.86 379.09c20.07 0 36.832-5.359 50.887-16.055l-83.07 144.65c-6.699 11.375-18.73 18.078-32.789 18.078h-78.395v51.57l-75.004-125.23 75.004-125.27v52.258h143.37zm64.258-120.56c6.043 10.719 9.406 22.094 9.406 34.156 0 24.117-15.422 49.57-36.832 61.602-10.062 5.391-24.145 8.75-38.172 8.75h-44.242l-79-136.66 127.92-73.008z" fill="#fff"/>
   </g>
  </g>
 </g>
</svg>
