<svg id="SVGRoot" width="12" height="26" version="1.1" viewBox="0 0 12 26" xmlns="http://www.w3.org/2000/svg">
 <g fill="#000000">
  <path d="m10.524 25c-0.2556 0-0.5077-0.1091-0.6849-0.2857l-8.4863-8.171c-0.4119-0.3313-0.4431-1.01-0.062-1.3747 0.3801-0.3648 1.0873-0.3349 1.4327 0.06l7.2334 8.3306c0.5498 0.5159 1.3368 1.4442 0.5679 1.4404z" color="#000000" stroke="#ffffff" stroke-width="2" style="text-decoration-line:none;text-indent:0;text-transform:none"/>
  <path d="m10.524 1c-0.2556 0-0.5077 0.1092-0.6849 0.2857l-8.4863 8.1711c-0.4119 0.3313-0.4431 1.01-0.062 1.3747 0.3801 0.3647 1.0873 0.3349 1.4327-0.06l7.2334-8.3307c0.5498-0.5158 1.3368-1.4442 0.5679-1.4403z" color="#000000" stroke="#ffffff" stroke-width="2" style="text-decoration-line:none;text-indent:0;text-transform:none"/>
  <path d="m10.524 25c-0.2556 0-0.5077-0.1091-0.6849-0.2857l-8.4863-8.171c-0.4119-0.3313-0.4431-1.01-0.062-1.3747 0.3801-0.3648 1.0873-0.3349 1.4327 0.06l7.2334 8.3306c0.5498 0.5159 1.3368 1.4442 0.5679 1.4404z" color="#000000" style="text-decoration-line:none;text-indent:0;text-transform:none"/>
  <path d="m10.524 1c-0.2556 0-0.5077 0.1092-0.6849 0.2857l-8.4863 8.1711c-0.4119 0.3313-0.4431 1.01-0.062 1.3747 0.3801 0.3647 1.0873 0.3349 1.4327-0.06l7.2334-8.3307c0.5498-0.5158 1.3368-1.4442 0.5679-1.4403z" color="#000000" style="text-decoration-line:none;text-indent:0;text-transform:none"/>
 </g>
</svg>
