<svg width="34" height="34" version="1.1" viewBox="0 0 8.9958 8.9958" xmlns="http://www.w3.org/2000/svg">
 <g>
  <circle cx="4.4979" cy="4.4979" r="4.2017" fill="#5cecf2" stroke="#35e1ff" stroke-width=".52477"/>
  <path d="m4.5124 0.38737a0.23296 0.23597 0 0 0-0.21185 0.14705l-0.59915 1.4365h0.50599l0.33195-0.79608 0.33293 0.79608h0.50596l-0.60103-1.4365a0.23296 0.23597 0 0 0-0.23929-0.14561 0.23296 0.23597 0 0 0-0.0254-2e-3zm-2.4349 5.7834-0.49416 1.2109a0.23296 0.23597 0 1 0 0.43032 0.1801l0.56745-1.391zm4.3888 0 0.092207 0.15136 0.50504 1.2396a0.23302 0.23604 0 1 0 0.43079-0.1801l-0.49416-1.2109z" color="#000000" fill="#000090" style="text-decoration-line:none;text-indent:0;text-transform:none"/>
  <path d="m4.5138 3.204h0.41341v0.56224h0.56224v0.40515h-0.56224v0.5705h-0.41341v-0.5705h-0.56224v-0.40515h0.29766c0.080672-0.0182 0.235 0.0362 0.26458-0.0331zm1.1245-0.0579h0.46302c0.11036 0.32646 0.21997 0.64932 0.33073 0.97565 0.10374-0.3265 0.20238-0.64909 0.30594-0.97565h0.47128l-0.48781 1.3394c-0.097711 0.19957-0.10628 0.42415-0.19018 0.62838-0.10546 0.27902-0.44693 0.41768-0.7276 0.32247-0.023548-0.0954-0.01905-0.21029-0.033073-0.3142-0.037306-0.10141 0.035692-0.0684 0.099219-0.0579 0.1401 0.0339 0.34264-0.0165 0.3638-0.18191-0.15608-0.55153-0.37827-1.0845-0.56224-1.6288zm-3.3734 0h0.50438c0.083079 0.15114 0.16513 0.30352 0.24805 0.45475 0.095382-0.15118 0.19391-0.30362 0.28937-0.45475h0.49609c-0.17113 0.26402-0.34152 0.52971-0.51263 0.79375 0.18513 0.29497 0.36854 0.58991 0.55398 0.8847h-0.49609c-0.10861-0.1776-0.2145-0.35945-0.32247-0.53744-0.10567 0.17737-0.21595 0.36055-0.32245 0.53744h-0.47956c0.17362-0.29011 0.34772-0.58606 0.52089-0.87644-0.11949-0.20347-0.24373-0.40057-0.3638-0.60358zm-0.40513-0.94258a0.12957 0.12957 0 0 0-0.090964 0.13229v3.4396a0.12957 0.12957 0 0 0 0.13229 0.12406h5.5645a0.12957 0.12957 0 0 0 0.12401-0.12403v-3.4396a0.12957 0.12957 0 0 0-0.12401-0.13229h-5.5645a0.12957 0.12957 0 0 0-0.024871 0 0.12957 0.12957 0 0 0-0.016404 0z" fill="#000090"/>
 </g>
</svg>
