<svg height="25" viewBox="0 0 32 25" width="32" xmlns="http://www.w3.org/2000/svg">
	<g fill="#f00">
		<path d="m15.994 4-10 5.9938v13.476h20v-13.381z" stroke="#fff" stroke-width="2"/>
		<path d="m15.994 1-.93126.608-13.069 8.128a1.8875 1.8865 0 1 0 1.8936 3.264l12.137-7.52 12.075 7.488a1.9013 1.9004 0 0 0 1.8936-3.296l-13.007-8.064z" stroke="#fff" stroke-width="2"/>
		<path d="m15.995 4.1633-10 5.9938v13.476h20v-13.381z"/>
		<path d="m15.995 1.1633-.93126.608-13.069 8.128a1.8875 1.8865 0 1 0 1.8936 3.264l12.137-7.52 12.075 7.488a1.9013 1.9004 0 0 0 1.8936-3.296l-13.007-8.064z"/>
	</g>
	<path d="m16.038 5.8478-8.0726 4.753v13.043h16.07v-12.967z" fill="#fff"/>
	<path d="m13.487 16.217c.51596-1.2678 1.0319-2.5358 1.5479-3.8036h1.5866c.51595 1.2678 1.0319 2.5358 1.5479 3.8036h-4.6823zm5.0456-3.8036h2.5798v-1.4145h-10.225v1.4145h2.5612c-.51595 1.2678-1.0319 2.5358-1.5479 3.8036h-3.7843v1.4138h3.2108c-.5924 1.4782-1.1848 2.9561-1.7771 4.4344h1.7394c.5989-1.4782 1.1975-2.9561 1.7964-4.4344h5.8098c.5989 1.4782 1.1978 2.9561 1.7967 4.4344h1.7583c-.5989-1.4782-1.1975-2.9561-1.7964-4.4344h3.2301v-1.4138h-3.8033c-.51596-1.2678-1.0322-2.5358-1.5482-3.8036z" stroke="#734a08" stroke-linecap="round" stroke-width=".36151"/>
</svg>
