<svg width="32" height="32" version="1.1" viewBox="0 0 8.4667 8.4667" xmlns="http://www.w3.org/2000/svg">
 <circle cx="4.2333" cy="4.2333" r="3.5884" fill="#ffc400" stroke="#f2b800" stroke-width=".4486"/>
 <g fill="#5d0000">
  <g fill-rule="evenodd">
   <path d="m3.1655 6.1202c0.69932-0.035513 1.7283 0.087878 2.0736-0.34971 0.1582-0.83262 0.61026-1.2517 1.3865-1.2604 0.47657-0.92038-0.38852-1.0646-0.97987-1.3011-0.037565 0.42784-0.014547 0.87252-0.69119 1.1222-0.027162-0.13236-0.082664-0.24046-0.26021-0.24395l-1.0002 0.0060191-0.70746-0.55291c-0.11433 0.18184-0.34119 0.41477-0.34153 0.54479l-1.0734 0.00602c-0.078167 0.066571-0.14447 0.24323 0.012201 0.41881 0.64301-0.019863 1.8117 0.05056 1.5816 1.6141z" stop-color="#000000" style="font-variation-settings:normal"/>
   <path d="m4.9103 2.6008-0.0028771-0.37914-0.42453-0.057783v-0.30083l0.43316 0.071988c-0.031855-0.2711-0.20613-0.46708-0.59004-0.52384-0.24105 0.016853-0.49384 0.030095-0.63764 0.48098-0.042142 0.17883-0.015875 0.35982 0.095198 0.51565 0.35956-0.19712 0.62866-0.062538 0.87416 0.1586l0.25258 0.034309z" stop-color="#000000" style="font-variation-settings:normal"/>
   <path d="m5.6498 3.4204-1.2645-0.95547c-0.16996-0.090647-0.3574-0.10792-0.58141 0.02829-0.1915 0.17395-0.51498 0.6559-0.77251 0.98394l0.71965 0.53871 0.69119-0.96161 1.0937 0.83761c0.084188-0.14699 0.10389-0.31943 0.11384-0.47165z" stop-color="#000000" style="font-variation-settings:normal"/>
  </g>
  <path d="m5.3572 5.8177c-9.57e-5 0.63164 0.51191 1.1437 1.1435 1.1437 0.63163 0 1.1436-0.5121 1.1435-1.1437 9.71e-5 -0.63164-0.51191-1.1437-1.1435-1.1437-0.63163 0-1.1436 0.5121-1.1435 1.1437z" stop-color="#000000" stroke="#f2b800" stroke-width=".18521" style="font-variation-settings:normal"/>
  <path d="m0.82236 5.8191c-9.57e-5 0.63164 0.51191 1.1437 1.1435 1.1437 0.63163 0 1.1436-0.5121 1.1435-1.1437 9.71e-5 -0.63158-0.51191-1.1437-1.1435-1.1437-0.63163 0-1.1436 0.5121-1.1435 1.1437z" stop-color="#000000" stroke="#f2b800" stroke-width=".18521" style="font-variation-settings:normal"/>
 </g>
</svg>
