<svg width="34" height="34" version="1.1" viewBox="0 0 8.9958 8.9958" xmlns="http://www.w3.org/2000/svg">
 <g>
  <circle cx="4.4967" cy="4.516" r="4.2256" fill="#ffc400" stroke="#f2b800" stroke-width=".52826"/>
  <path d="m6.9657 6.8433c-0.6319-0.68825-1.275-1.3678-1.9-2.0615-0.19793-0.28927-0.31962-0.66089-0.15899-0.99712 0.077864-0.19398 0.11816-0.42403 0.30438-0.54518 0.49863-0.44676 1.0008-0.88972 1.4972-1.3388 0.24217-0.24191 0.010346-0.65652-0.30029-0.678-0.29321-0.035298-0.46419 0.2413-0.67001 0.39845-0.38673 0.34502-0.7736 0.6901-1.1603 1.0352-0.22679-0.022188-0.45643-0.0050369-0.68444-0.010482-0.40879-0.51796-0.80301-1.0486-1.221-1.5585-0.27674-0.26753-0.82959 0.010005-0.73698 0.39702 0.09311 0.22824 0.28559 0.40033 0.42498 0.60211 0.28668 0.36863 0.57323 0.73739 0.85991 1.106-0.00422 0.62591 0.00844 1.2551-0.00626 1.8791-0.32085 0.84098-0.64687 1.6802-0.96432 2.5224-0.10822 0.39381 0.45548 0.6564 0.73385 0.40157 0.16253-0.16757 0.19548-0.4145 0.29213-0.62155 0.25183-0.65722 0.50367-1.3143 0.7555-1.9715h0.4273c0.62209 0.67028 1.2401 1.3445 1.8647 2.0123 0.2781 0.27184 0.82696-0.01266 0.73549-0.39885-0.014838-0.064387-0.047644-0.12428-0.092702-0.17274z" fill="#5d0000" stroke-width=".013613"/>
  <path d="m5.1124 1.6261c0.010754 0.53323-0.65123 0.86034-1.0959 0.60701-0.42117-0.18445-0.52204-0.80901-0.1609-1.1032 0.38837-0.38121 1.1552-0.17389 1.246 0.37862l0.00898 0.068648z" fill="#5d0000" stroke-width=".013613"/>
 </g>
</svg>
