<svg width="34" height="34" version="1.1" viewBox="0 0 8.9958 8.9958" xmlns="http://www.w3.org/2000/svg">
 <g transform="translate(0 -288)">
  <circle cx="4.485" cy="292.5" r="4.2062" fill="#12ef12" stroke="#00dc00" stroke-width=".52533"/>
  <path d="m3.6583 288.4c-.47453 0-.85392.38755-.85392.87473 0 .48719.37939.88515.85392.88515.47818 0 .86431-.3983.86431-.88515 0-.48718-.38613-.87473-.86431-.87473zm-2.3118 2.0619c-.42653 0-.42653.63523 0 .63523h2.5617c.42653 0 .42653-.63523 0-.63523zm3.0615.0625c.019844.0508.045958.10273.05207.1562.00265.031-.00661.0614-.010319.0937-.00476.0656-.014023.12646-.041645.18744v.0104c-.00609.011-.013758.0189-.020902.0312-.00476.009-.0045.0243-.010319.0312-.10663.16762-.28866.28117-.51028.28117h-1.4579v3.4052l-.45818 3.249c-.050985.26759.14454.53117.40611.58315.26159.0546.64439-.14595.69771-.41654l.42696-3.6239h.20828l.72893 3.6551c.053313.27025.42339.44028.68731.38529.25924-.052.40502-.31556.35404-.58315l-.69771-3.4677v-3.1136h.80185l.32282-.29158h.32282v-.22909h1.7391c.00265-.0488.010319-.097.010319-.14579 0-.0664-.00741-.13194-.010319-.19786h-3.5406z" fill="#004900" stroke-width=".26458"/>
 </g>
</svg>
