<svg width="30" height="20" version="1.1" viewBox="0 0 30 20" xmlns="http://www.w3.org/2000/svg" xmlns:xlink="http://www.w3.org/1999/xlink">
 <defs>
  <linearGradient id="a" x1="2155.8" x2="2156" y1="664.17" y2="672.99" gradientTransform="matrix(1.3738 0 0 1.7684 -2946.8 -1170.1)" gradientUnits="userSpaceOnUse">
   <stop stop-color="#000000" offset="0"/>
   <stop stop-color="#000000" stop-opacity="0" offset="1"/>
  </linearGradient>
 </defs>
 <g>
  <g>
   <path d="m1 18c.131-.40072 1.7853-3.5001 3.6773-6.8876 2.7133-4.858 4.1101-6.5417 6.6131-7.9707 3.9181-2.237 7.8404-2.3655 9.2688-.3037 3.3789 4.8767 6.8656 10.446 7.8696 12.569 1.4151 2.9926.69424 4.392-.79917 1.5518-.58887-1.1196-2.2394-3.7932-3.6677-5.9414-6.1197-9.2035-6.1384-9.2129-11.823-5.999-2.7942 1.5796-3.88 2.8868-6.2413 7.5134-1.5725 3.0806-3.371 5.735-3.9968 5.8987-.6258.1637-1.0312-.0301-.90096-.43084z" fill="#ffffff" stroke="#ffffff" stroke-width="1.784"/>
   <path d="m2 17c.12427-.36663 1.6841-3.2024 3.4688-6.3016 2.5595-4.4447 3.8771-5.9852 6.2383-7.2926 3.6958-2.0466 7.396-2.1642 8.7434-.27788 3.1873 4.4618 6.4763 9.5571 7.4235 11.5 2.318 4.9642 2.3564 5.8421-8.1623 5.8261-4.1892.15472-5.3135-.29525-9.6621-.23901-2.0302-.0751-8.0367-.43654-7.9612-1.2706z" fill="#ffffff"/>
   <path d="m2 18c.12427-.36663 1.6841-3.2024 3.4688-6.3016 2.5595-4.4447 3.8771-5.9852 6.2383-7.2926 3.6958-2.0466 7.396-2.1642 8.7434-.27788 3.1873 4.4618 6.4763 9.5571 7.4235 11.5 1.7877 3.7268-1.1792 4.1627-9.0462 4.4119-4.1892.15472-4.4296.0583-8.7782.11454-2.0302-.0751-8.1251-1.3204-8.0496-2.1544z" fill="url(#a)" opacity=".4075"/>
   <path d="m1 18c.131-.40072 1.7853-3.5001 3.6773-6.8876 2.7133-4.858 4.1101-6.5417 6.6131-7.9707 3.9181-2.237 7.8404-2.3655 9.2688-.3037 3.3789 4.8767 6.8656 10.446 7.8696 12.569 1.4151 2.9926.69424 4.392-.79917 1.5518-.58887-1.1196-2.2394-3.7932-3.6677-5.9414-6.1197-9.2035-6.1384-9.2129-11.823-5.999-2.7942 1.5796-3.88 2.8868-6.2413 7.5134-1.5725 3.0806-3.371 5.735-3.9968 5.8987-.6258.1637-1.0312-.0301-.90096-.43084z" fill="#ff0000"/>
  </g>
  <g transform="translate(-20.19 -829.36)">
   <circle transform="matrix(1.2614 0 0 1.2614 18.725 -510.99)" cx="14.5" cy="1067.5" r="1.5" color="#000000" fill="#000000"/>
   <g fill="none" stroke="#000000" stroke-linecap="round">
    <g stroke-linejoin="round">
     <path d="m31.097 847.29 3.4911-4.1501" stroke-width="2"/>
     <path d="m34.806 843.34 5.3123 3.8452" stroke-width="2.6"/>
     <path d="m38.224 838.75-3.453 1.8129-3.5699-.29348" stroke-width="1.7"/>
     <path d="m38.19 839.36 2.0237 7.5642" stroke-width="3.2"/>
    </g>
    <path d="m28.67 846.24 2.4854 1.4349" stroke-width="1.4"/>
   </g>
  </g>
 </g>
</svg>
