<svg enable-background="new 0 0 20 20" version="1.1" viewBox="0 0 20 20" xml:space="preserve" xmlns="http://www.w3.org/2000/svg">
<path d="m2.931 2.931c1.881-1.881 4.41-2.929 7.069-2.929s5.188 1.048 7.069 2.929c1.881 1.882 2.929 4.409 2.929 7.069s-1.048 5.189-2.928 7.07c-1.882 1.881-4.411 2.928-7.07 2.928s-5.188-1.047-7.069-2.928-2.929-4.41-2.929-7.07c0-2.658 1.048-5.187 2.929-7.069z" clip-rule="evenodd" fill="#ffffff" fill-rule="evenodd"/>
<path d="m3.637 3.638c1.758-1.757 4.06-2.636 6.363-2.636 2.302 0 4.605 0.879 6.362 2.636h1e-3c1.757 1.757 2.635 4.06 2.635 6.362s-0.878 4.605-2.635 6.363h-1e-3c-1.757 1.758-4.059 2.637-6.362 2.637-2.302 0-4.605-0.879-6.362-2.637-1.758-1.758-2.636-4.06-2.636-6.363 0-2.301 0.878-4.605 2.635-6.362zm1.668 0.842 3.236 3.236-0.825 0.825-3.237-3.234c-1.15 1.349-1.726 3.021-1.726 4.693 0 1.674 0.576 3.346 1.727 4.695l3.236-3.236 0.825 0.826-3.236 3.236c1.35 1.15 3.022 1.727 4.695 1.727s3.345-0.576 4.694-1.727l-3.235-3.236 0.825-0.826 3.236 3.236c1.15-1.35 1.727-3.021 1.727-4.695 0-1.672-0.576-3.344-1.727-4.693l-3.236 3.234-0.825-0.824 3.235-3.236c-1.349-1.152-3.021-1.727-4.694-1.727-1.672 0-3.345 0.575-4.695 1.726z" clip-rule="evenodd" fill="#555555" fill-rule="evenodd"/>
</svg>
