<svg width="32" height="32" version="1.1" viewBox="0 0 8.4667 8.4667" xmlns="http://www.w3.org/2000/svg" xmlns:xlink="http://www.w3.org/1999/xlink">
 <defs>
  <radialGradient id="radialGradient5308" cx="2865" cy="237" r="15" gradientTransform="matrix(.26458 0 0 .26458 -753.28 229.36)" gradientUnits="userSpaceOnUse">
   <stop stop-color="#1279ff" offset="0"/>
   <stop stop-color="#0c76ff" offset="1"/>
  </radialGradient>
 </defs>
 <g transform="translate(-.52149 -287.83)">
  <rect x=".78608" y="288.1" width="7.9375" height="7.9375" rx="1.0583" fill="#1279ff" stroke="#fff" stroke-width=".52917"/>
  <rect x=".78608" y="288.1" width="7.9375" height="7.9375" rx="1.0583" fill="url(#radialGradient5308)"/>
  <path d="m2.3901 289.57 1.3708.37819.76086-.53471.26469.0652-.75372.53628 4.1537 1.1541-.30387 1.1294-4.1691-1.1509c-1.6151-.48702-1.3207-1.5777-1.3207-1.5777m3.6456 2.8901c-.00503-.0943-.022754-.18406-.053737-.26893l1.9033.52979-.061119.23489zm-1.7293-.47739c.051303-.0746.11218-.14197.18116-.20041l-3.1749-.87708v.25258l2.9938.82468zm.78618.83632c.17063 0 .30922-.13882.30922-.30945 0-.1713-.13859-.3099-.30922-.3099-.17129 0-.30967.1386-.30967.3099 0 .17063.13838.30945.30967.30945zm3.0988 1.897c-.15068 0-.294-.034-.42185-.0929-.13301-.0602-.28123-.0963-.43664-.0963-.15473 0-.30385.036-.43484.0963-.12965.0587-.27273.0929-.42341.0929-.15071 0-.29424-.034-.42344-.0929-.13189-.0602-.2799-.0963-.43484-.0963-.15563 0-.30364.036-.4364.0963-.12808.0587-.27297.0929-.42299.0929-.14981 0-.294-.034-.42254-.0929-.13277-.0602-.28191-.0963-.4364-.0963-.15473 0-.30385.036-.43484.0963-.12875.0587-.27363.0929-.42365.0929-.14981 0-.294-.034-.42344-.0929-.13121-.0602-.28033-.0963-.43505-.0963-.15473 0-.30364.036-.43574.0963-.12853.0587-.27363.0929-.42254.0929l-.00953-2.5229 3.4718.95814c-.23937-.11577-.40553-.35827-.40553-.64197 0-.39477.31909-.71407.71363-.71407.3932 0 .71318.31952.71318.71407 0 .39432-.31978.71362-.71318.71362-.023813 0-.047255-.005-.0703-.007l3.1639.87238.00503.62719z" fill="#fff" stroke-width=".26458"/>
 </g>
</svg>
