<svg width="34" height="34" version="1.1" viewBox="0 0 8.9958 8.9958" xmlns="http://www.w3.org/2000/svg">
 <g transform="translate(0 -288)">
  <circle cx="4.485" cy="292.5" r="4.2062" fill="#12ef12" stroke="#00dc00" stroke-width=".52533"/>
  <g transform="matrix(.14968 0 0 .14968 -.057551 287.82)" fill="#fc0" stroke="#00d400" stroke-width="3.5352">
   <path d="m50.799 51.28c-1.0085-2.1802-3.2124-3.5883-5.6143-3.5883-.90046 0-1.7728.1936-2.5933.57292-1.497.69335-2.6372 1.9304-3.2068 3.4814-.56954 1.5499-.502 3.2281.19247 4.7285 1.0085 2.178 3.2135 3.5861 5.6155 3.5861.89933 0 1.7694-.19247 2.5911-.57292 1.4993-.69335 2.6383-1.9292 3.2101-3.4814.56954-1.5499.49863-3.2293-.19472-4.7263z" fill="#fc0" stroke="#00d400" stroke-width="3.5352"/>
   <path d="m36.298 13.904c.685.305 1.412.459 2.158.459 2.103 0 4.013-1.241 4.867-3.161 1.191-2.683-.022-5.835-2.705-7.026-.685-.304-1.41-.458-2.156-.458-2.103 0-4.013 1.241-4.867 3.161-1.192 2.683.023 5.833 2.703 7.025z" fill="#fc0" stroke="#00d400" stroke-width="3.5352"/>
   <path d="m41.785 33.625c-.422 1.091-.37 2.104.143 2.854.397.576 1.019.909 1.707.909 1.063 0 1.992-.765 2.486-2.046 3.586-9.31 1.381-15.627-6.699-19.29-.285-.221-.577-.418-.896-.605-1.886-1.116-3.681-1.682-5.332-1.682-.271 0-.513.015-.817.054l-.994.306c-1.659.714-6.559 1.111-14.561 1.179-1.957.014-2.976 1.34-2.97 2.64.006 1.282 1.029 2.58 2.978 2.58 2.572-.021 5.178-.174 7.702-.319l1.227-.073-7.362 14.533-5.217 10.445c-.345.778-1.388 3.142.428 4.155.015.016.03.031.047.047l-.047.106.086-.073c.31.255.88.402 1.316.402.748 0 1.833-.336 2.756-1.929l7.076-10.841c0-.003.187-.319.498-.319.083 0 .174.023.272.064.151.065.242.142.278.235.061.161-.028.366-.03.37l-7.488 17.213c-.896 2.019-.541 3.678.927 4.329.438.195.863.294 1.265.294.735 0 1.756-.33 2.444-1.883.139-.258 13.714-25.627 17.283-33.419 2.586 2.465 3.075 5.66 1.494 9.764z" fill="#fc0" stroke="#00d400" stroke-width="3.5352"/>
  </g>
  <g transform="matrix(.14968 0 0 .14968 -.057551 287.82)" fill="#004900">
   <path d="m50.799 51.28c-1.0085-2.1802-3.2124-3.5883-5.6143-3.5883-.90046 0-1.7728.1936-2.5933.57292-1.497.69335-2.6372 1.9304-3.2068 3.4814-.56954 1.5499-.502 3.2281.19247 4.7285 1.0085 2.178 3.2135 3.5861 5.6155 3.5861.89933 0 1.7694-.19247 2.5911-.57292 1.4993-.69335 2.6383-1.9292 3.2101-3.4814.56954-1.5499.49863-3.2293-.19472-4.7263z" fill="#004900"/>
   <path d="m36.298 13.904c.685.305 1.412.459 2.158.459 2.103 0 4.013-1.241 4.867-3.161 1.191-2.683-.022-5.835-2.705-7.026-.685-.304-1.41-.458-2.156-.458-2.103 0-4.013 1.241-4.867 3.161-1.192 2.683.023 5.833 2.703 7.025z" fill="#004900"/>
   <path d="m41.785 33.625c-.422 1.091-.37 2.104.143 2.854.397.576 1.019.909 1.707.909 1.063 0 1.992-.765 2.486-2.046 3.586-9.31 1.381-15.627-6.699-19.29-.285-.221-.577-.418-.896-.605-1.886-1.116-3.681-1.682-5.332-1.682-.271 0-.513.015-.817.054l-.994.306c-1.659.714-6.559 1.111-14.561 1.179-1.957.014-2.976 1.34-2.97 2.64.006 1.282 1.029 2.58 2.978 2.58 2.572-.021 5.178-.174 7.702-.319l1.227-.073-7.362 14.533-5.217 10.445c-.345.778-1.388 3.142.428 4.155.015.016.03.031.047.047l-.047.106.086-.073c.31.255.88.402 1.316.402.748 0 1.833-.336 2.756-1.929l7.076-10.841c0-.003.187-.319.498-.319.083 0 .174.023.272.064.151.065.242.142.278.235.061.161-.028.366-.03.37l-7.488 17.213c-.896 2.019-.541 3.678.927 4.329.438.195.863.294 1.265.294.735 0 1.756-.33 2.444-1.883.139-.258 13.714-25.627 17.283-33.419 2.586 2.465 3.075 5.66 1.494 9.764z" fill="#004900"/>
  </g>
 </g>
</svg>
