<svg width="20" height="26" version="1.1" viewBox="0 0 5.2917 6.8792" xmlns="http://www.w3.org/2000/svg" xmlns:xlink="http://www.w3.org/1999/xlink">
 <g>
  <path d="m2.6458 0.0060523-0.35589 0.37505s-0.5561 0.57498-1.111 1.3127c-0.55502 0.73771-1.1718 1.5774-1.1718 2.4914 0 1.4815 1.1918 2.6879 2.6387 2.6879 1.4477 0 2.6387-1.2066 2.6387-2.6879 0-0.91399-0.61682-1.7537-1.1718-2.4914-0.55491-0.73771-1.111-1.3127-1.111-1.3127z" color="#000000" fill="#0d3082" style="text-decoration-line:none;text-indent:0;text-transform:none"/>
  <path transform="matrix(.27851 0 0 .27463 -598.79 -48.592)" d="m2159.5 177.7-0.918 0.96289a0.5022 0.5022 0 0 1 0 2e-3s-1.9883 2.0755-3.959 4.7324c-1.9885 2.6804-4.0898 5.6876-4.0898 8.7949 0 5.1294 4.0542 9.2793 8.9668 9.2793 4.9154 0 8.9668-4.1508 8.9668-9.2793 0-3.1073-2.1013-6.1145-4.0898-8.7949-1.9707-2.6569-3.959-4.7324-3.959-4.7324a0.5022 0.5022 0 0 1 0-2e-3z" color="#000000" fill="#00ceff" style="text-decoration-line:none;text-indent:0;text-transform:none" xlink:href="#path4656"/>
  <path transform="matrix(.27851 0 0 .27463 -598.79 -48.592)" d="m2159.5 181.3c-0.5736 0.62088-1.4855 1.5546-2.9473 3.5254-1.9679 2.6526-3.6152 5.3125-3.6152 7.3633 0 3.8603 3.0026 6.875 6.5625 6.875 3.563 0 6.5625-3.0151 6.5625-6.875 0-2.0507-1.6473-4.7106-3.6152-7.3633-1.4618-1.9708-2.3737-2.9045-2.9473-3.5254z" color="#000000" fill="#fff" style="text-decoration-line:none;text-indent:0;text-transform:none" xlink:href="#path4656"/>
 </g>
</svg>
