<svg width="34" height="34" version="1.1" viewBox="0 0 8.9958 8.9958" xmlns="http://www.w3.org/2000/svg">
 <circle cx="4.4979" cy="4.4979" r="4.2062" fill="#12ef12" stroke="#00dc00" stroke-width=".52533"/>
 <path d="m7.2461 0.087891-0.22656 0.068359h-0.00391l-0.00391 0.001953c-1.3394 0.34933-2.6914 0.67685-4.043 0.77539-0.189-0.13503-0.38159-0.13996-0.57617-0.013672-0.63919-0.081313-1.2745-0.24618-1.9043-0.42773l-0.16602-0.048828-0.091797 0.14844c-0.054094 0.088173-0.092194 0.17873-0.091797 0.28516 3.9759e-4 0.10643 0.056637 0.21805 0.12695 0.2793 0.14063 0.12249 0.28686 0.1317 0.42773 0.15039 0.53295 0.1486 1.0889 0.26472 1.6152 0.35352l-0.18164-0.16211c0.064054 0.22123 0.25101 0.37834 0.47852 0.40625l-0.19141-0.16016c0.21541 0.69738 0.53049 1.3759 0.95312 1.9902-0.1299 0.22544-0.292 0.45379-0.4043 0.74023l-0.013672 0.037109-0.00195 0.037109c-0.022578 0.58145 0.011248 1.1552 0.013669 1.7207-0.18536 0.41195-0.40435 0.82474-0.57617 1.2715l-0.00586 0.013672-0.00391 0.015625c-0.038525 0.16511 0.00616 0.33534 0.095703 0.45117 0.012792 0.016547 0.034736 0.016536 0.048828 0.03125h-0.94726v0.85547h2.3477v-0.85547h-0.57422c0.061068-0.065762 0.14159-0.10957 0.16406-0.20312l-0.013672 0.041016c0.19558-0.43123 0.41847-0.86383 0.60742-1.3203l0.015625-0.035156 0.00195-0.041016c0.011497-0.24948 0.00375-0.48563 0-0.72461 0.16789 0.073133 0.33557 0.14775 0.50391 0.2207 0.050023 0.30872 0.08403 0.63067 0.16406 0.96094l0.00586 0.025391 0.011718 0.023437c0.054601 0.11019 0.16004 0.16073 0.25977 0.21094h-0.77344v0.85547h2.3477v-0.85547h-1.0449c0.10231-0.053512 0.2007-0.12115 0.26172-0.23047 0.070471-0.12626 0.090215-0.29667 0.033203-0.45312l0.00977 0.039063c-0.067267-0.38232-0.10856-0.78657-0.19922-1.1914l-0.00781-0.035156-0.019531-0.033203c-0.10039-0.16752-0.25595-0.25564-0.38672-0.31445s-0.24762-0.097805-0.32227-0.14062l-0.00781-0.00586-0.011719-0.00391c-0.050544-0.022881-0.1017-0.045454-0.15234-0.068359 0.077571-0.13529 0.15492-0.27102 0.23242-0.40625 0.00579 0.00696 0.00763 0.010575 0.013672 0.017578 0.093651 0.10861 0.23958 0.22815 0.4375 0.25l-0.035156-0.00781c0.30394 0.084625 0.61114 0.18313 0.93164 0.26367l0.03125 0.00781h0.03125c0.15151-0.0048139 0.29361-0.077646 0.37695-0.18359 0.083344-0.10595 0.11371-0.23326 0.10742-0.35352-0.0062872-0.12026-0.04932-0.24005-0.13672-0.33789s-0.22678-0.16533-0.37695-0.16602l0.070312 0.011719c-0.25619-0.084199-0.5027-0.1398-0.71094-0.2207-0.19592-0.23129-0.39192-0.47994-0.60938-0.7207 0.10621-0.037365 0.2248-0.04576 0.30664-0.125h0.00195c0.14614-0.14257 0.22852-0.33994 0.22852-0.54297-5.6e-6 -0.2004-0.084346-0.39576-0.22656-0.53906-0.14267-0.14266-0.33789-0.22656-0.53906-0.22656h-0.00195c-0.20391 7.4e-6 -0.40115 0.083022-0.54297 0.23047-0.13889 0.14304-0.2207 0.33615-0.2207 0.53516-2.9e-6 0.14688 0.084369 0.27031 0.16211 0.39258-0.2283 0.045517-0.40586 0.20699-0.5293 0.42188-0.26745-0.45321-0.48552-0.94599-0.625-1.4414 1.3819-0.11557 2.7266-0.43223 4.0488-0.77539l0.22461-0.058594-0.0625-0.22461c-0.02435-0.08776-0.048129-0.17424-0.072266-0.26172zm-4.666 1.1738c0.029407-0.05289 0.1596-0.049379 0.1875 0.00586l0.03125 0.0625-0.00977 0.035156c-6e-3 0.019419-0.020049 0.039535-0.035156 0.052734l-0.042969 0.037109-0.050781-0.00586c-0.038013-0.00466-0.083849-0.04393-0.09375-0.078125l-0.015625-0.054687zm2.3457 0.68945h0.00195c0.088783 0 0.14411 0.02302 0.21484 0.09375 0.069904 0.070941 0.093748 0.1279 0.09375 0.21484 0 0.093443-0.024542 0.14923-0.091797 0.21484-0.071055 0.068794-0.12792 0.091797-0.2207 0.091797-0.092561 0-0.14973-0.02473-0.21484-0.089844-0.065838-0.065941-0.089846-0.12069-0.089844-0.2168 0-0.090325 0.023297-0.14658 0.091797-0.2168v-0.00195c0.063431-0.065948 0.12-0.08984 0.21484-0.089844zm-0.1582 1.2246c0.23356 0.25042 0.44785 0.53562 0.68945 0.81641l0.035156 0.041016 0.050781 0.021484c0.27319 0.11438 0.55271 0.16972 0.79102 0.24805l0.035156 0.011719h0.035156c0.029015 1.319e-4 0.030302 0.00387 0.039063 0.013672 0.00876 0.00981 0.018285 0.032794 0.019531 0.056641 0.00125 0.023847-0.00642 0.042619-0.00977 0.046875-0.00126 0.00161-0.010528 0.00263-0.011719 0.00391-0.288-0.07415-0.57847-0.16636-0.8789-0.25l-0.017578-0.00391-0.017578-0.00195c-0.052945-0.005844-0.084531-0.02643-0.14258-0.093749s-0.12102-0.17554-0.21875-0.2832l-0.21094-0.23242-0.15625 0.27344c-0.1761 0.30655-0.35159 0.61398-0.52734 0.91992l-0.12695 0.21875 0.23047 0.10352c0.1279 0.05715 0.25531 0.11416 0.38281 0.17188 0.12737 0.069533 0.25061 0.10938 0.3418 0.15039 0.087015 0.039134 0.13172 0.07628 0.16406 0.12109 0.075668 0.35557 0.11994 0.73317 0.1875 1.1172l0.00391 0.019531 0.00586 0.017578c0.014662 0.040239 0.0105 0.051907-0.00195 0.074219-0.012454 0.022312-0.044344 0.051338-0.083984 0.068359s-0.082656 0.019865-0.10742 0.013672c-0.019087-0.00477-0.027807-0.01647-0.039063-0.033203-0.073813-0.319-0.10998-0.66245-0.17384-1.0176l-0.021484-0.12109-0.11328-0.048828c-0.31219-0.13496-0.62252-0.27012-0.93555-0.40625l-0.31836-0.13867-0.0019531 0.3457c-0.00217 0.34966 0.012818 0.68816 0 1.0156-0.17618 0.41977-0.3881 0.83568-0.58398 1.2676l-0.00977 0.019531-0.00391 0.021484c-0.01 0.041631-0.017456 0.03985-0.037109 0.048828-0.019654 0.00898-0.061399 0.014662-0.10352 0.00391-0.042116-0.010756-0.078299-0.036655-0.09375-0.056641-0.01361-0.017605-0.014927-0.029685-0.00977-0.058594 0.16336-0.41891 0.38145-0.83292 0.57618-1.2715l0.019531-0.044922v-0.048828c-7.069e-4 -0.58224-0.030362-1.1492-0.011718-1.7031 0.099813-0.24001 0.26583-0.47891 0.41602-0.75977l0.068359-0.12695-0.048828-0.066406c0.032397-0.013098 0.073992-0.021059 0.09375-0.037109 0.070787-0.057506 0.09378-0.1081 0.12109-0.15625 0.027314-0.048145 0.050995-0.094728 0.070312-0.13086l0.00586-0.011719 0.00391-0.011719c0.091584-0.23111 0.43687-0.28695 0.63086-0.13672z" color="#000000" fill="#00dc00" style="-inkscape-stroke:none;paint-order:stroke fill markers"/>
 <path d="m7.0765 0.37692c-1.3488 0.35186-2.7204 0.68743-4.105 0.78679-0.11354-0.2248-0.46914-0.23294-0.59132-0.013211-0.66462-0.083078-1.3162-0.25412-1.9548-0.43819-0.1629 0.26552 0.040236 0.33394 0.2981 0.36815 0.53104 0.1497 1.0914 0.26389 1.6225 0.35349 0.036978 0.12771 0.15394 0.22643 0.2867 0.24272 0.22643 0.73304 0.5343 1.4498 0.98879 2.0688-0.14547 0.27204-0.33231 0.52616-0.44471 0.81286-0.022642 0.58317 0.01124 1.1696 0.011956 1.7593-0.19385 0.43656-0.42027 0.8601-0.59132 1.3048-0.095784 0.4105 0.59132 0.58806 0.69068 0.1743 0.19873-0.43819 0.42027-0.86824 0.60435-1.313 0.01629-0.35349-0.0022542-0.7086-6.51e-5 -1.0621 0.31276 0.13602 0.6239 0.27204 0.93666 0.40724 0.063856 0.35512 0.097576 0.71838 0.18245 1.0686 0.18082 0.36489 0.80797 0.10181 0.66462-0.29159-0.069068-0.39258-0.11191-0.79331-0.19873-1.181-0.13178-0.21991-0.41539-0.25412-0.62553-0.37466-0.12739-0.057666-0.25412-0.11517-0.38281-0.17267 0.17593-0.30625 0.35186-0.61412 0.52779-0.92037 0.15231 0.16778 0.25412 0.4219 0.50498 0.4496 0.3095 0.086173 0.61575 0.18407 0.92688 0.26226 0.37303-0.011859 0.33557-0.58154-0.022804-0.58317-0.25575-0.084055-0.53104-0.14042-0.77539-0.24272-0.24109-0.28018-0.46263-0.57991-0.71675-0.84869-0.31276-0.24923-0.83566-0.15345-0.98879 0.23294-0.087964 0.16453-0.17756 0.39095-0.27855 0.072652-0.32417-0.52779-0.58806-1.1191-0.74118-1.7104 0.047729-0.041702 0.083566-0.096924 0.1023-0.15752 1.4091-0.10132 2.7855-0.44145 4.1539-0.79657-0.024271-0.087476-0.048543-0.1743-0.072815-0.26226zm-2.1502 1.3455c-0.14938 5.4e-6 -0.27693 0.05343-0.37955 0.16013-0.10409 0.1067-0.15606 0.23131-0.15606 0.37629-2.9e-6 0.14921 0.051964 0.2753 0.15606 0.37955 0.10409 0.10409 0.23131 0.15606 0.37792 0.15606 0.14677 0 0.27204-0.051964 0.37955-0.15606 0.1067-0.10409 0.15996-0.23131 0.15996-0.37955-4e-6 -0.144-0.053268-0.26878-0.15996-0.37629-0.1067-0.1067-0.23131-0.16013-0.37629-0.16013zm-0.40398 5.7177v0.39747h1.8896v-0.39747zm-2.7204 0.84218v0.39747h1.8896v-0.39747z" color="#000000" fill="#004900" stroke-width=".45744" style="-inkscape-stroke:none;paint-order:stroke fill markers"/>
</svg>
