<svg width="34" height="34" version="1.1" viewBox="0 0 8.9958 8.9958" xmlns="http://www.w3.org/2000/svg">
 <circle cx="4.4979" cy="4.4979" r="4.2062" fill="#12ef12" stroke="#00dc00" stroke-width=".52533"/>
 <g transform="matrix(.015413 0 0 .015413 .028176 .028276)">
  <g fill="none" stroke="#00dc00" stroke-linecap="round" stroke-linejoin="round" stroke-width="53.667">
   <g fill-rule="evenodd">
    <path d="m85.316 513.53 35.852-235.58 28.108-16.83 27.495 17.279s31.173 237.98 28.247 236.56c-2.9267-1.4274-119.12 0.71374-119.7-1.4274z" opacity=".8" stop-color="#000000" style="-inkscape-stroke:none;font-variation-settings:normal;paint-order:stroke fill markers"/>
    <path d="m34.126 214.29 32.626-30.532 79.062 107.79-10.072 9.7436z" opacity=".8" stop-color="#000000" style="-inkscape-stroke:none;font-variation-settings:normal;paint-order:stroke fill markers"/>
    <path d="m264.04 214.29-32.626-30.532-79.062 107.79 10.072 9.7436z" opacity=".8" stop-color="#000000" style="-inkscape-stroke:none;font-variation-settings:normal;paint-order:stroke fill markers"/>
    <path d="m264.04 388.99-32.626 30.532-79.062-107.79 10.072-9.7436z" opacity=".8" stop-color="#000000" style="-inkscape-stroke:none;font-variation-settings:normal;paint-order:stroke fill markers"/>
    <path d="m34.126 388.99 32.626 30.532 79.062-107.79-10.072-9.7436z" opacity=".8" stop-color="#000000" style="-inkscape-stroke:none;font-variation-settings:normal;paint-order:stroke fill markers"/>
   </g>
   <path d="m391.07 158.02c-2.9e-4 -10.468-3.7796-19.29-11.338-26.464-7.5589-7.1738-16.572-10.761-27.041-10.761-10.457 3.3e-4 -19.37 3.5874-26.739 10.761-7.3696 7.1745-11.054 15.996-11.054 26.464-2e-4 10.457 3.6845 19.272 11.054 26.446 7.3692 7.1745 16.282 10.762 26.739 10.761 10.468 2.4e-4 19.482-3.5869 27.041-10.761 7.5584-7.1739 11.338-15.989 11.338-26.446zm-100 387.21c8.138-8e-5 14.727-3.874 19.766-11.622l109.3-164.55 5.8198 22.676-16.271 123.26c-0.78103 6.1983 0.57338 11.722 4.0632 16.572 3.4892 4.8498 8.3331 7.8543 14.532 9.0136 6.2098 1.1592 11.929-0.10053 17.158-3.7793 5.228-3.6788 8.2325-8.6233 9.0136-14.833l16.856-126.15c0.39003-4.2701 4e-3 -8.7296-1.1533-13.378l-37.225-148.26 97.109-17.442c5.0387-0.76863 9.1078-3.3828 12.207-7.8426 3.0987-4.4592 4.258-9.2085 3.4777-14.248-1.1597-5.0388-4.0637-9.3031-8.712-12.793l-223.26-147.09-20.352 29.649c-5.0393 6.9794-3.8741 12.988 3.4954 18.027 6.967 4.2588 12.97 3.0936 18.009-3.4954l11.64-17.442 181.39 119.2-148.25 26.739c-5.4297 1.1595-9.7916 3.9689-13.086 8.4281-3.2946 4.4597-4.167 9.209-2.6171 14.248l31.973 125-104.65 156.41c-1.9401 3.4776-2.9101 7.1564-2.9099 11.036-1.6e-4 6.1983 2.2296 11.527 6.6892 15.987 4.4593 4.4594 9.7882 6.6892 15.987 6.6892z" opacity=".8" stop-color="#000000" style="-inkscape-stroke:none;font-variation-settings:normal;paint-order:stroke fill markers"/>
  </g>
  <path d="m85.274 513.53 35.852-235.58 28.108-16.83 27.495 17.279s31.173 237.98 28.247 236.56c-2.9267-1.4274-119.12 0.71374-119.7-1.4274z" fill="#ffffff" fill-rule="evenodd"/>
  <g fill="#004900">
   <g fill-rule="evenodd">
    <path d="m85.274 513.53 35.852-235.58 28.108-16.83 27.495 17.279s31.173 237.98 28.247 236.56c-2.9267-1.4274-119.12 0.71374-119.7-1.4274z" opacity=".846"/>
    <path d="m34.083 214.29 32.626-30.532 79.062 107.79-10.072 9.7436z" stop-color="#000000" style="-inkscape-stroke:none;font-variation-settings:normal"/>
    <path d="m264 214.29-32.626-30.532-79.062 107.79 10.072 9.7436z" stop-color="#000000" style="-inkscape-stroke:none;font-variation-settings:normal"/>
    <path d="m264 388.99-32.626 30.532-79.062-107.79 10.072-9.7436z" stop-color="#000000" style="-inkscape-stroke:none;font-variation-settings:normal"/>
    <path d="m34.083 388.99 32.626 30.532 79.062-107.79-10.072-9.7436z" stop-color="#000000" style="-inkscape-stroke:none;font-variation-settings:normal"/>
   </g>
   <path d="m391.03 158.03c-2.9e-4 -10.468-3.7796-19.29-11.338-26.464-7.5589-7.1738-16.572-10.761-27.041-10.761-10.457 3.3e-4 -19.37 3.5874-26.739 10.761-7.3696 7.1745-11.054 15.996-11.054 26.464-2e-4 10.457 3.6845 19.272 11.054 26.446 7.3692 7.1745 16.282 10.762 26.739 10.761 10.468 2.4e-4 19.482-3.5869 27.041-10.761 7.5584-7.1739 11.338-15.989 11.338-26.446zm-100 387.21c8.138-8e-5 14.727-3.874 19.766-11.622l109.3-164.55 5.8198 22.676-16.271 123.26c-0.78103 6.1983 0.57338 11.722 4.0632 16.572 3.4892 4.8498 8.3331 7.8543 14.532 9.0136 6.2098 1.1592 11.929-0.10053 17.158-3.7793 5.228-3.6788 8.2325-8.6233 9.0136-14.833l16.856-126.15c0.39003-4.2701 4e-3 -8.7296-1.1533-13.378l-37.225-148.26 97.109-17.442c5.0387-0.76863 9.1078-3.3828 12.207-7.8426 3.0987-4.4592 4.258-9.2085 3.4777-14.248-1.1597-5.0388-4.0637-9.3031-8.712-12.793l-223.26-147.09-20.352 29.649c-5.0393 6.9794-3.8741 12.988 3.4954 18.027 6.967 4.2588 12.97 3.0936 18.009-3.4954l11.64-17.442 181.39 119.2-148.25 26.739c-5.4297 1.1595-9.7916 3.9689-13.086 8.4281-3.2946 4.4597-4.167 9.209-2.6171 14.248l31.973 125-104.65 156.41c-1.9401 3.4776-2.9101 7.1564-2.9099 11.036-1.6e-4 6.1983 2.2296 11.527 6.6892 15.987 4.4593 4.4594 9.7882 6.6892 15.987 6.6892z" stop-color="#000000" style="-inkscape-stroke:none;font-variation-settings:normal"/>
  </g>
 </g>
</svg>
