<svg width="34" height="34" version="1.1" viewBox="0 0 8.9958 8.9958" xmlns="http://www.w3.org/2000/svg">
 <circle cx="4.4979" cy="4.4979" r="4.2062" fill="#12ef12" stroke="#00dc00" stroke-width=".52533"/>
 <path d="m5.6758 4.0723-0.93555 0.4375v0.14844h-1.4004l-1.2246 3.0938c-0.064765 0.1465-0.090639 0.30834-0.048828 0.46289 0.041811 0.15455 0.15429 0.28381 0.28711 0.35938 0.17351 0.098718 0.37056 0.078505 0.51953 0.00977 0.14898-0.068744 0.27104-0.18491 0.33789-0.34766l0.99414-2.082c0.15141 0.01849 0.29375 0.065749 0.4707-0.013672l0.023438-0.01172 0.80859-0.46094 0.23242 0.73438c1.353e-4 5.484e-4 -1.362e-4 0.00141 0 0.00195 0.037918 0.15261 0.11248 0.29585 0.24023 0.40039 0.12822 0.10492 0.32042 0.15109 0.49414 0.10742 0.17921-0.044932 0.32895-0.21327 0.36719-0.36523 0.038235-0.15196 0.020662-0.28234 0.00195-0.40625v-0.00195l-0.2539-1.5859-0.0019531-0.0097657c-0.048267-0.195-0.17642-0.34271-0.33594-0.43555-0.15952-0.092834-0.37601-0.13303-0.57617-0.035156zm0.24023 0.49414c0.00418-0.00204 0.022698-0.00445 0.060547 0.017578 0.03608 0.020997 0.064524 0.062351 0.072266 0.085937l0.25 1.5547c0.00808 0.054584 0.00538 0.069952 0.00586 0.10352-0.01091-0.018038-0.020489-0.022892-0.029297-0.058594l-0.0019541-0.0078116-0.44922-1.4082-0.5332 0.30469v-0.29883l0.62305-0.29102zm-2.2012 0.64258h1.4863l-0.75195 0.42773c-0.11641 0.052248-0.19886 0.038918-0.35156-0.0039062l-0.22266-0.0625-1.1699 2.4492-0.00391 0.00781c-0.00621 0.015119-0.033501 0.045063-0.058594 0.056641-0.025092 0.011578-0.026536 0.00662-0.017578 0.011719-0.031733-0.018055-0.026082-0.020727-0.027344-0.025391-0.00126-0.00466-0.00664-0.032096 0.021484-0.095703l0.00195-0.00391z" color="#000000" fill="#00dc00" style="-inkscape-stroke:none;paint-order:stroke fill markers"/>
 <path d="m4.5623 5.889c-0.19478 0.087421-0.36913 0.056213-0.53891 0.0086l-1.0671 2.234c-0.073056 0.17787-0.30239 0.29638-0.46694 0.20276-0.16455-0.093622-0.21486-0.26019-0.12198-0.47029l1.1599-2.9297h1.4884v-0.24941l0.78019-0.36511c0.20434-0.099917 0.46998 0.070969 0.52384 0.28855l0.25081 1.573c0.033861 0.22426 0.032819 0.41441-0.16345 0.46362-0.1964 0.049365-0.34525-0.090302-0.39914-0.30875l-0.34217-1.075z" color="#000000" fill="#004900" stroke-width=".55093" style="-inkscape-stroke:none;paint-order:stroke fill markers"/>
 <path d="m7.1348 0.044922-0.035156 0.23438c-0.039301 0.25948-0.23795 0.99097-0.57812 1.7031-0.34018 0.71216-0.83122 1.4113-1.3887 1.7109l-0.14453 0.078125v0.85938l0.39844-0.19727c0.93984-0.46857 1.548-1.4295 1.9395-2.2891 0.19573-0.42979 0.33546-0.83642 0.42773-1.1563 0.046138-0.15991 0.080319-0.29906 0.10352-0.4082 0.023196-0.10914 0.039062-0.16718 0.039062-0.25977v-0.27539z" color="#000000" fill="#00dc00" style="-inkscape-stroke:none;paint-order:stroke fill markers"/>
 <path d="m5.2638 4.1862c1.6895-0.84231 2.3567-3.6164 2.3567-3.8658h-0.24807c-0.094438 0.62352-0.80923 2.9179-2.1086 3.6164z" color="#000000" fill="#004900" stroke-width=".55093" style="-inkscape-stroke:none;paint-order:stroke fill markers"/>
 <path d="m5.9707 0.27344c-0.13594 0.063014-0.22726 0.1652-0.29492 0.2832l-1.1719 1.7031h-0.56641c-0.078035 0-0.15043-0.00227-0.27148 0.044922l-0.00781 0.00195-0.98828 0.46094-0.61328-0.81445c-0.1606-0.2502-0.49553-0.34724-0.72266-0.21289-0.10581 0.062592-0.20061 0.17872-0.22656 0.32031-0.025949 0.1416 0.016044 0.28574 0.09375 0.4082l0.7168 1.3281 0.00586 0.00781c0.15843 0.24983 0.47956 0.35899 0.76172 0.24219l0.56641-0.22656v1.1406h2.0391v-1.6328l1.2383-2.2402c0.065728-0.1054 0.12072-0.22001 0.125-0.36523s-0.07701-0.31736-0.20508-0.4082c-0.14089-0.099956-0.34258-0.10403-0.47852-0.041016zm-0.39062 1.3926-0.83984 1.5195v1.2246h-0.9375v-1.4062l-1.3262 0.53516h-0.00195c-0.033629 0.013921-0.0679-8.538e-4 -0.085937-0.029297l-0.38086-0.70703 0.49023 0.65039 1.3691-0.63477c-0.030036 0.011708 0.057323-0.00781 0.070312-0.00781h0.85547z" color="#000000" fill="#00dc00" style="-inkscape-stroke:none;paint-order:stroke fill markers"/>
 <path d="m2.1559 3.6578c0.088236 0.13914 0.26657 0.20076 0.42446 0.1354l0.94695-0.38099v1.2728h1.4884v-1.4276l1.2798-2.3152c0.10128-0.16241 0.12386-0.31093-0.0063301-0.40328-0.13019-0.092366-0.28366-0.0031477-0.37467 0.1556l-1.2665 1.8404h-0.71c-0.045512 0-0.12557 0.00806-0.17108 0.025801l-1.1827 0.54955-0.76013-1.0086c-0.1031-0.16061-0.24889-0.18294-0.34887-0.1238-0.099978 0.05914-0.1441 0.18057-0.041 0.34305z" color="#000000" fill="#004900" stroke-width=".55093" style="-inkscape-stroke:none;paint-order:stroke fill markers"/>
 <path d="m5.291 5.4844-0.79883 0.40234v3.0645h0.79883v-0.27539z" color="#000000" fill="#00dc00" style="-inkscape-stroke:none;paint-order:stroke fill markers"/>
 <path d="m5.0157 8.6755v-2.7435l-0.24807 0.1247v2.6188z" color="#000000" fill="#004900" stroke-width=".55093" style="-inkscape-stroke:none;paint-order:stroke fill markers"/>
 <path d="m4.1543 0.91797c-0.45784 7.052e-5 -0.83391 0.37804-0.83398 0.83594-6.98e-5 0.458 0.37605 0.83782 0.83398 0.83789 0.45803 7.06e-5 0.83405-0.3798 0.83398-0.83789-6.98e-5 -0.458-0.37605-0.83601-0.83398-0.83594zm0 0.55078c0.15859-2.44e-5 0.28318 0.12331 0.2832 0.28516 2.47e-5 0.16188-0.12458 0.28713-0.2832 0.28711-0.15859-2.44e-5 -0.28323-0.12526-0.2832-0.28711 2.46e-5 -0.16181 0.12465-0.28513 0.2832-0.28516z" color="#000000" fill="#00dc00" style="-inkscape-stroke:none;paint-order:stroke fill markers"/>
 <path d="m4.712 1.7544a0.55816 0.56116 0 0 1-0.55825 0.56125 0.55816 0.56116 0 0 1-0.55808-0.56125 0.55816 0.56116 0 0 1 0.55808-0.56108 0.55816 0.56116 0 0 1 0.55825 0.56108z" color="#000000" fill="#004900" stroke-width=".55093" style="-inkscape-stroke:none;paint-order:stroke fill markers"/>
</svg>
