<svg width="34" height="34" version="1.1" viewBox="0 0 8.9958 8.9958" xmlns="http://www.w3.org/2000/svg">
 <circle cx="4.4979" cy="4.4979" r="4.2062" fill="#12ef12" stroke="#00dc00" stroke-width=".52533"/>
 <path d="m7.8964 3.751h-1.2768l-0.58811-1.3294c-0.0071-0.022131-0.019965-0.050608-0.027393-0.063608-0.00223-0.00415-0.0037-0.00636-0.0037-0.0083l-0.010354-0.024298-0.00223 0.00207c-0.10926-0.23059-0.33738-0.39619-0.60667-0.40548-0.052775-0.0031108-0.10044 0.0020738-0.14811 0.012134l-3.2036 0.7537c-0.19346 0.04581-0.31572 0.23679-0.26929 0.43334 0.043644 0.195 0.23369 0.31417 0.4287 0.27084l2.1358-0.50918-1.625 2.6929h-1.5415c0.020119-0.059275 0.015399-0.12644-0.020429-0.18262-0.063918-0.1023-0.19655-0.13263-0.29715-0.069025-0.10214 0.062834-0.13232 0.195-0.069644 0.29715 0.048751 0.076763 0.13759 0.1122 0.22286 0.096573l0.04612 0.18107c-0.017488 0.00548-0.034667 0.012428-0.051227 0.022441-0.099359 0.062834-0.13062 0.195-0.066704 0.2956 0.048596 0.07893 0.13882 0.11406 0.22286 0.097192l0.04581 0.17953c-0.017798 0.00548-0.035286 0.012273-0.051691 0.022596-0.10338 0.062834-0.13248 0.195-0.069799 0.29715 0.048906 0.078001 0.14161 0.11298 0.2275 0.095645l0.045965 0.18107c-0.018572 0.00517-0.036525 0.011994-0.053549 0.022131-0.10214 0.064846-0.13263 0.1981-0.069954 0.29715 0.062989 0.1023 0.195 0.13263 0.2987 0.069799 0.081097-0.051227 0.11576-0.14981 0.091156-0.23989 0.00591-0.00296 0.012428-0.00308 0.018262-0.00679 0.047822-0.027393 0.078001-0.075989 0.087287-0.12567l0.2306-0.70263 0.00814-0.028167s1.0648-0.00399 1.0741-0.00399c0.21358 0 0.39774-0.058965 0.50608-0.23834l0.4937-0.81716 1.0988 1.0942-0.41786 1.6405c-0.03931-0.011282-0.08218-0.011994-0.12381 5.727e-4 -0.11468 0.037453-0.17798 0.15941-0.14207 0.27239 0.038691 0.1153 0.15941 0.17643 0.27239 0.14176 0.097966-0.032191 0.15941-0.12737 0.15059-0.22596h0.18417c-0.00266 0.028322 1.547e-4 0.057572 0.00947 0.086204 0.036524 0.1153 0.15941 0.17798 0.27084 0.14192 0.09874-0.03281 0.15941-0.12892 0.14888-0.2275h0.18727c-0.00325 0.02925-8.821e-4 0.059894 0.00888 0.090228 0.03637 0.1136 0.15786 0.17643 0.27239 0.13991 0.098895-0.030334 0.15941-0.12845 0.14703-0.2306h0.17953c0.00327 0 0.00593-0.00178 0.00918-0.00193-0.00415 0.031108-0.00251 0.063453 0.00814 0.09518 0.037453 0.11251 0.15941 0.17488 0.27084 0.13898 0.11345-0.036529 0.17644-0.15632 0.13976-0.2693-0.03281-0.10431-0.13588-0.16405-0.23989-0.14873 0-1.548e-4 1.548e-4 -3.095e-4 1.548e-4 -4.488e-4 0-0.081097-0.050763-0.1379-0.11344-0.17179l-0.69644-0.38536 0.33429-1.3186s0.083109-0.27858-0.18107-0.53549l-0.89918-0.90073s0.48132-0.79085 0.7893-1.2969l0.35905 0.81251c0.028167 0.065001 0.076144 0.11762 0.13263 0.15399 0 0.00193 0.00429 0.00193 0.00429 0.00518 0.056644 0.03606 0.12459 0.058501 0.1981 0.058501h1.5012c0.20119 0.0022333 0.36215-0.1625 0.3637-0.35905 0.0019655-0.20119-0.15941-0.35905-0.35596-0.36215zm-1.0184-2.5072c0-0.40239-0.32965-0.73049-0.73358-0.73049-0.40239 0-0.72894 0.3281-0.72894 0.73049 0 0.40548 0.32655 0.73204 0.72894 0.73204 0.40394 0 0.73358-0.32655 0.73358-0.73204z" color="#256f25" color-rendering="auto" fill="none" image-rendering="auto" opacity=".8" shape-rendering="auto" solid-color="#256f25" stop-color="#000000" stroke="#00dc00" stroke-linecap="round" stroke-linejoin="round" stroke-width=".81095" style="-inkscape-stroke:none;font-variation-settings:normal;isolation:auto;mix-blend-mode:normal;paint-order:stroke fill markers"/>
 <path d="m7.8964 3.751h-1.2768l-0.58811-1.3294c-0.0071-0.022131-0.019965-0.050608-0.027393-0.063608-0.00223-0.00415-0.0037-0.00636-0.0037-0.0083l-0.010354-0.024298-0.00223 0.00207c-0.10926-0.23059-0.33738-0.39619-0.60667-0.40548-0.052775-0.0031108-0.10044 0.0020738-0.14811 0.012134l-3.2036 0.7537c-0.19346 0.04581-0.31572 0.23679-0.26929 0.43334 0.043644 0.195 0.23369 0.31417 0.4287 0.27084l2.1358-0.50918-1.625 2.6929h-1.5415c0.020119-0.059275 0.015399-0.12644-0.020429-0.18262-0.063918-0.1023-0.19655-0.13263-0.29715-0.069025-0.10214 0.062834-0.13232 0.195-0.069644 0.29715 0.048751 0.076763 0.13759 0.1122 0.22286 0.096573l0.04612 0.18107c-0.017488 0.00548-0.034667 0.012428-0.051227 0.022441-0.099359 0.062834-0.13062 0.195-0.066704 0.2956 0.048596 0.07893 0.13882 0.11406 0.22286 0.097192l0.04581 0.17953c-0.017798 0.00548-0.035286 0.012273-0.051691 0.022596-0.10338 0.062834-0.13248 0.195-0.069799 0.29715 0.048906 0.078001 0.14161 0.11298 0.2275 0.095645l0.045965 0.18107c-0.018572 0.00517-0.036525 0.011994-0.053549 0.022131-0.10214 0.064846-0.13263 0.1981-0.069954 0.29715 0.062989 0.1023 0.195 0.13263 0.2987 0.069799 0.081097-0.051227 0.11576-0.14981 0.091156-0.23989 0.00591-0.00296 0.012428-0.00308 0.018262-0.00679 0.047822-0.027393 0.078001-0.075989 0.087287-0.12567l0.2306-0.70263 0.00814-0.028167s1.0648-0.00399 1.0741-0.00399c0.21358 0 0.39774-0.058965 0.50608-0.23834l0.4937-0.81716 1.0988 1.0942-0.41786 1.6405c-0.03931-0.011282-0.08218-0.011994-0.12381 5.727e-4 -0.11468 0.037453-0.17798 0.15941-0.14207 0.27239 0.038691 0.1153 0.15941 0.17643 0.27239 0.14176 0.097966-0.032191 0.15941-0.12737 0.15059-0.22596h0.18417c-0.00266 0.028322 1.547e-4 0.057572 0.00947 0.086204 0.036524 0.1153 0.15941 0.17798 0.27084 0.14192 0.09874-0.03281 0.15941-0.12892 0.14888-0.2275h0.18727c-0.00325 0.02925-8.821e-4 0.059894 0.00888 0.090228 0.03637 0.1136 0.15786 0.17643 0.27239 0.13991 0.098895-0.030334 0.15941-0.12845 0.14703-0.2306h0.17953c0.00327 0 0.00593-0.00178 0.00918-0.00193-0.00415 0.031108-0.00251 0.063453 0.00814 0.09518 0.037453 0.11251 0.15941 0.17488 0.27084 0.13898 0.11345-0.036529 0.17644-0.15632 0.13976-0.2693-0.03281-0.10431-0.13588-0.16405-0.23989-0.14873 0-1.548e-4 1.548e-4 -3.095e-4 1.548e-4 -4.488e-4 0-0.081097-0.050763-0.1379-0.11344-0.17179l-0.69644-0.38536 0.33429-1.3186s0.083109-0.27858-0.18107-0.53549l-0.89918-0.90073s0.48132-0.79085 0.7893-1.2969l0.35905 0.81251c0.028167 0.065001 0.076144 0.11762 0.13263 0.15399 0 0.00193 0.00429 0.00193 0.00429 0.00518 0.056644 0.03606 0.12459 0.058501 0.1981 0.058501h1.5012c0.20119 0.0022333 0.36215-0.1625 0.3637-0.35905 0.0019655-0.20119-0.15941-0.35905-0.35596-0.36215zm-1.0184-2.5072c0-0.40239-0.32965-0.73049-0.73358-0.73049-0.40239 0-0.72894 0.3281-0.72894 0.73049 0 0.40548 0.32655 0.73204 0.72894 0.73204 0.40394 0 0.73358-0.32655 0.73358-0.73204z" fill="#004900" stop-color="#000000" style="-inkscape-stroke:none;font-variation-settings:normal"/>
</svg>
