<svg width="34" height="34" version="1.1" viewBox="0 0 8.9958 8.9958" xmlns="http://www.w3.org/2000/svg">
 <circle cx="4.4979" cy="4.4979" r="4.2062" fill="#12ef12" stroke="#00dc00" stroke-width=".52533"/>
 <g fill="none" stroke="#00dc00" stroke-linecap="round" stroke-linejoin="round" stroke-width=".85372">
  <path d="m6.0473 7.6775c-0.080336-0.051241-0.18715-0.027529-0.23833 0.052921-0.11065 0.17373-0.48159 0.078942-0.71892 0.013975-0.0051164-0.0013932-3.4539-0.96265-3.4539-0.96265-0.091867-0.025563-0.18706 0.02814-0.21266 0.12001-0.025544 0.091886 0.02816 0.18706 0.12003 0.21268l0.61437 0.17108c-0.031596 0.037056-0.05609 0.081118-0.070007 0.13114-0.051222 0.18371 0.056262 0.37413 0.23994 0.42526 0.18373 0.051183 0.37411-0.0563 0.42529-0.23996 0.013918-0.05 0.01575-0.10042 0.00779-0.14849l1.742 0.48516c-0.031539 0.037056-0.05609 0.081119-0.069988 0.13112-0.051183 0.18371 0.0563 0.37415 0.23994 0.42528 0.18375 0.051203 0.37419-0.056281 0.42529-0.23998 0.013345-0.047957 0.015655-0.096277 0.00892-0.14253 0.00109 2.86e-4 0.00202 5.721e-4 0.00317 9.17e-4 0.25468 0.070886 0.76393 0.15722 0.98988-0.19756 0.051203-0.080374 0.027549-0.18711-0.052883-0.23835z" opacity=".8" stop-color="#000000" style="-inkscape-stroke:none;font-variation-settings:normal"/>
  <path d="m4.196 2.0297c0.09307 0.062619 0.19849 0.10599 0.30851 0.12749l0.00111 2.288e-4c0.27262 0.052902 0.55933-0.03486 0.75593-0.23097 0.19935-0.19903 0.28688-0.49328 0.22877-0.76899-0.056548-0.26854-0.24643-0.49845-0.49992-0.60391-0.25945-0.10792-0.56191-0.077988-0.79486 0.079038-0.23299 0.15703-0.37423 0.42612-0.37161 0.70712 0.00265 0.27453 0.14446 0.53679 0.37207 0.68999z" opacity=".8" stop-color="#000000" style="-inkscape-stroke:none;font-variation-settings:normal"/>
  <path d="m7.9019 1.9172c-0.01743-0.18828-0.18417-0.32676-0.37245-0.3093l-1.5236 0.1411c-0.086101 0.01008-0.34357 0.10972-0.56777 0.18683-0.032188 0.048014-0.069053 0.093146-0.11037 0.13444-0.21273 0.21218-0.52297 0.30716-0.81794 0.2499l-0.0012-2.288e-4c-0.11904-0.023272-0.23309-0.070198-0.33379-0.13793-0.05252-0.035395-0.10057-0.076403-0.1441-0.12148-0.50477-0.044349-1.088-0.091084-1.4732-0.027911l-1.2786 0.43348c-0.13028 0.044005-0.20981 0.17957-0.18051 0.31733 0.031615 0.14836 0.17749 0.24303 0.32589 0.21145l1.2409-0.2642 0.95441 0.12789s-0.3743 1.4009-0.37434 1.401c-0.16241 0.66036 0.40893 1.1415 0.40893 1.1415l-0.70744 1.1204c-0.094635 0.15067-0.058705 0.35214 0.087113 0.45901 0.1525 0.11182 0.36678 0.078808 0.47858-0.073711l0.95559-1.3036c0.052978-0.072661 0.078007-0.16193 0.071859-0.25063l0.48721 0.090817-0.85702 1.3378c-0.097289 0.15237-0.059698 0.35676 0.08908 0.46315 0.1538 0.10997 0.36758 0.074475 0.47762-0.079286l1.2742-1.7814c0.028408-0.040149 0.050954-0.087896 0.06281-0.13875 0.049102-0.21044-0.081691-0.42087-0.29217-0.47003l-0.018652-0.0043147-0.8163-0.19051 0.38505-1.441c0.018137-0.067831 0.027415-0.13589 0.029-0.20309 0.00922-0.00426 0.018404-0.00872 0.027434-0.013688l0.7828-0.42978 1.4384-0.20473c0.17921-0.02583 0.30947-0.18811 0.29261-0.37045z" opacity=".8" stop-color="#000000" style="-inkscape-stroke:none;font-variation-settings:normal"/>
 </g>
 <g fill="#004900" stroke-width="1.0665">
  <path d="m6.0473 7.6775c-0.080336-0.051241-0.18715-0.027529-0.23833 0.052921-0.11065 0.17373-0.48159 0.078942-0.71892 0.013975-0.0051164-0.0013932-3.4539-0.96265-3.4539-0.96265-0.091867-0.025563-0.18706 0.02814-0.21266 0.12001-0.025544 0.091886 0.02816 0.18706 0.12003 0.21268l0.61437 0.17108c-0.031596 0.037056-0.05609 0.081118-0.070007 0.13114-0.051222 0.18371 0.056262 0.37413 0.23994 0.42526 0.18373 0.051183 0.37411-0.0563 0.42529-0.23996 0.013918-0.05 0.01575-0.10042 0.00779-0.14849l1.742 0.48516c-0.031539 0.037056-0.05609 0.081119-0.069988 0.13112-0.051183 0.18371 0.0563 0.37415 0.23994 0.42528 0.18375 0.051203 0.37419-0.056281 0.42529-0.23998 0.013345-0.047957 0.015655-0.096277 0.00892-0.14253 0.00109 2.86e-4 0.00202 5.721e-4 0.00317 9.17e-4 0.25468 0.070886 0.76393 0.15722 0.98988-0.19756 0.051203-0.080374 0.027549-0.18711-0.052883-0.23835z" stop-color="#000000" style="-inkscape-stroke:none;font-variation-settings:normal"/>
  <path d="m4.196 2.0297c0.09307 0.062619 0.19849 0.10599 0.30851 0.12749l0.00111 2.288e-4c0.27262 0.052902 0.55933-0.03486 0.75593-0.23097 0.19935-0.19903 0.28688-0.49328 0.22877-0.76899-0.056548-0.26854-0.24643-0.49845-0.49992-0.60391-0.25945-0.10792-0.56191-0.077988-0.79486 0.079038-0.23299 0.15703-0.37423 0.42612-0.37161 0.70712 0.00265 0.27453 0.14446 0.53679 0.37207 0.68999z" stop-color="#000000" style="-inkscape-stroke:none;font-variation-settings:normal"/>
  <path d="m7.9019 1.9172c-0.01743-0.18828-0.18417-0.32676-0.37245-0.3093l-1.5236 0.1411c-0.086101 0.01008-0.34357 0.10972-0.56777 0.18683-0.032188 0.048014-0.069053 0.093146-0.11037 0.13444-0.21273 0.21218-0.52297 0.30716-0.81794 0.2499l-0.0012-2.288e-4c-0.11904-0.023272-0.23309-0.070198-0.33379-0.13793-0.05252-0.035395-0.10057-0.076403-0.1441-0.12148-0.50477-0.044349-1.088-0.091084-1.4732-0.027911l-1.2786 0.43348c-0.13028 0.044005-0.20981 0.17957-0.18051 0.31733 0.031615 0.14836 0.17749 0.24303 0.32589 0.21145l1.2409-0.2642 0.95441 0.12789s-0.3743 1.4009-0.37434 1.401c-0.16241 0.66036 0.40893 1.1415 0.40893 1.1415l-0.70744 1.1204c-0.094635 0.15067-0.058705 0.35214 0.087113 0.45901 0.1525 0.11182 0.36678 0.078808 0.47858-0.073711l0.95559-1.3036c0.052978-0.072661 0.078007-0.16193 0.071859-0.25063l0.48721 0.090817-0.85702 1.3378c-0.097289 0.15237-0.059698 0.35676 0.08908 0.46315 0.1538 0.10997 0.36758 0.074475 0.47762-0.079286l1.2742-1.7814c0.028408-0.040149 0.050954-0.087896 0.06281-0.13875 0.049102-0.21044-0.081691-0.42087-0.29217-0.47003l-0.018652-0.0043147-0.8163-0.19051 0.38505-1.441c0.018137-0.067831 0.027415-0.13589 0.029-0.20309 0.00922-0.00426 0.018404-0.00872 0.027434-0.013688l0.7828-0.42978 1.4384-0.20473c0.17921-0.02583 0.30947-0.18811 0.29261-0.37045z" stop-color="#000000" style="-inkscape-stroke:none;font-variation-settings:normal"/>
 </g>
</svg>
