<svg width="34" height="34" version="1.1" viewBox="0 0 8.9958 8.9958" xmlns="http://www.w3.org/2000/svg">
 <circle cx="4.4979" cy="4.4979" r="4.2062" fill="#12ef12" stroke="#00dc00" stroke-width=".52533"/>
 <path d="m3.627 0.7207-0.1543 0.16992c-0.13379 0.14826-0.22114 0.39068-0.15039 0.59375 0.070746 0.20307 0.21458 0.29593 0.33594 0.36328 0.24272 0.1347 0.50995 0.18674 0.61914 0.21875 0.40578 0.13793 0.78136 0.29229 1.1602 0.44531-0.21772 0.22022-0.42129 0.46048-0.70508 0.58008-0.088206-0.020998-0.17643-0.083965-0.25391-0.078125-0.17154 0.01293-0.30795 0.065991-0.41797 0.10742-1.0463 0.33314-2.0889 0.66519-3.1328 0.99805l0.1875-0.00586c-0.31005-0.0717-0.60929 0.075115-0.74609 0.32227-0.0684 0.12358-0.098746 0.28477-0.052734 0.44336 0.046012 0.15859 0.16946 0.29279 0.31445 0.36914l0.095703 0.048829 0.10547-0.011719c0.56339-0.061475 1.0958-0.18711 1.6055-0.25391h0.00586l0.00781-0.00195c1.0049-0.16849 2.0584-0.29263 3.0898-0.6211l0.013672-0.00391 0.013672-0.00586c0.52272-0.21425 1.0765-0.43684 1.584-0.77734l0.042969-0.027344 0.033203-0.041016c0.13976-0.17101 0.23776-0.39839 0.30078-0.64062 0.058371 0.024279 0.078889 0.094485 0.14453 0.10547 0.55077 0.11358 1.0373-0.33895 1.002-0.89258-7.204e-4 -0.011298 0.010943-0.017918 0.00977-0.029297h0.00977c-3.297e-4 -0.00396-0.00548-0.00582-0.00586-0.00977-4.548e-4 -0.00388 0.00442-0.00587 0.00391-0.00977h-0.00781c-0.023176-0.21103-0.11658-0.40339-0.27345-0.54491-0.41455-0.39049-1.0827-0.257-1.3359 0.24805-0.086391-0.049967-0.16544-0.14564-0.24219-0.16797-0.16886-0.049141-0.30632-0.069982-0.38086-0.097656l-0.015625-0.0058594-0.013672-0.0039063c-0.78371-0.2154-1.5694-0.41961-2.3398-0.63867l0.023437 0.007813c-0.015295-0.0055494-0.14601-0.11661-0.39453-0.097657l0.13477 0.015625zm5.0488 1.4043h0.021484v-0.00195zm-1.6172-0.34766c-0.00242 0.0045 0.00233 0.00915 0 0.013672-0.00241 0.00514-0.0094 0.00455-0.011719 0.00977zm0.25195 0.13477 0.056641 0.068359c-0.012276-0.018992-0.033454-0.013988-0.046875-0.03125-0.010234-0.010496 0.00119-0.026989-0.00977-0.037109zm0.62109 0.13086 0.00391 0.00391 0.00586 0.00391c0.027003 0.024012 0.048 0.070136 0.050781 0.10352l0.61718-0.025398-0.61523 0.039062c0.00917 0.070192-0.11064 0.18096-0.17773 0.16602l-0.013672-0.00391-0.013672-0.00195c-0.067919-0.0098699-0.14133-0.15727-0.10937-0.2168l0.01172-0.023438c0.028494-0.064112 0.18928-0.093919 0.24023-0.044922zm-1.3301 0.23633c0.00874 0.00223 0.027132 0.00743 0.035156 0.00977 0.097729 0.02844 0.1168 0.043402 0.13672 0.074219l0.025391 0.037109 0.033203 0.029297c0.057567 0.053159 0.074179 0.11817 0.048828 0.25781-0.022767 0.12541-0.10412 0.27043-0.17969 0.375-0.41105 0.26607-0.88774 0.47202-1.3848 0.67578-0.15939 0.050496-0.34066 0.060033-0.50391 0.10156l0.13281-0.052734c0.6009-0.23484 1.1163-0.65993 1.4629-1.2031zm-2.0703 1.4395c0.045613-0.00344 0.040078-0.00518 0.060547 0.011719l0.14844 0.12305c-0.5691 0.14049-1.1545 0.25503-1.752 0.34961 0.43415-0.13876 0.86801-0.27761 1.3027-0.41602l0.00781-0.00391 0.00977-0.00195c0.095346-0.035907 0.17704-0.059061 0.22265-0.062499zm-1.1523 3.1777c-0.42856 0.063538-0.69949 0.18849-0.90039 0.12891l0.021484 0.0058594c-0.40815-0.14942-0.89928-0.21741-1.3672-0.021484l0.044922-0.015625c-0.037573 0.010074-0.1431-0.00127-0.32813 0.0625-0.092515 0.031887-0.23278 0.11701-0.29688 0.26367-0.048615 0.11124-0.025758 0.21047-0.007813 0.30664-0.023253 0.14151-0.057805 0.29657 0.091797 0.47852 0.084563 0.10285 0.2356 0.16723 0.35742 0.16992 0.12182 0.00269 0.22051-0.030206 0.31641-0.074219l-0.019531 0.00781c0.30309-0.11736 0.62159-0.13372 0.89258-0.017575l0.015625 0.00586 0.013672 0.00586c0.49233 0.16207 0.92026-0.0162 1.2266-0.089844 0.12002-0.023591 0.27246 0.011613 0.48828 0.068359 0.21582 0.056747 0.49913 0.13417 0.82422 0.050781l0.00977-0.00195 0.00781-0.00391c0.3406-0.10711 0.64034-0.16104 0.87304-0.064453h0.0039c0.48706 0.19503 0.96277 0.068345 1.332-0.048828l-0.013672 0.00391c0.10271-0.027751 0.21563-0.013389 0.38477 0.029297s0.38056 0.11715 0.64453 0.11719h0.00782l0.34766-0.00781v-1.2149h-0.35352c-0.11756-9.4e-5 -0.27455-0.044043-0.47461-0.09375s-0.4545-0.10298-0.73828-0.027344l-0.00781 0.00195-0.00586 0.00195c-0.33514 0.10432-0.62957 0.16009-0.85742 0.068366-0.49212-0.19911-0.97582-0.072439-1.3516 0.044922l0.017578-0.00391c-0.11295 0.029113-0.24542 0.0060895-0.44141-0.044918-0.19599-0.051008-0.44856-0.1331-0.75391-0.091797h-0.00195z" color="#000000" fill="#00dc00" style="-inkscape-stroke:none;paint-order:stroke fill markers"/>
 <path d="m8.3444 2.1228c0.042746 0.32706-0.28447 0.62674-0.60544 0.55524-0.32554-0.047309-0.52482-0.44419-0.36965-0.73322 0.13387-0.3012 0.56893-0.38486 0.80624-0.15668 0.09614 0.085492 0.15821 0.2084 0.16885 0.33619zm-4.6092-0.99639c-0.33771 0.37422 0.37726 0.52482 0.64195 0.6024 0.58566 0.19928 1.1805 0.38639 1.7342 0.66477-0.30576 0.47918-0.76517 0.85796-1.2945 1.0648-0.19167-0.15821-0.42746-0.085035-0.63282-0.0076973-1.0512 0.33466-2.0993 0.67085-3.1489 1.0055-0.31641-0.07317-0.55524 0.31337-0.24035 0.47918 0.53394-0.058262 1.0633-0.18407 1.5973-0.25404 1.0162-0.17037 2.0536-0.29359 3.0424-0.60848 0.52329-0.21449 1.0542-0.4305 1.5212-0.74387 0.24491-0.29968 0.44115-0.85644 0.115-1.1576-0.16125-0.24948-0.48679-0.23274-0.74083-0.32706-0.78038-0.21449-1.5668-0.41833-2.3427-0.63891-0.080928-0.029359-0.15821-0.084579-0.24796-0.077734zm4.2594 6.7846c-0.3803-6.09e-5 -0.73474-0.23883-1.1226-0.13402-0.3514 0.1115-0.73474 0.20232-1.0937 0.058566-0.36357-0.1509-0.75604-0.057045-1.1135 0.055372-0.44419 0.11394-0.85035-0.20993-1.293-0.12291-0.34075 0.080015-0.69367 0.21601-1.0481 0.099335-0.3727-0.15973-0.7895-0.13082-1.1607 0.0129-0.26317 0.12078-0.31945-0.032858-0.28142-0.25708-0.087317-0.29359 0.17798-0.23122 0.38791-0.28751 0.35748-0.14969 0.75452-0.10207 1.109 0.027686 0.359 0.10648 0.7028-0.065412 1.0527-0.11728 0.42289-0.057197 0.8108 0.23731 1.2352 0.12793 0.35748-0.11166 0.74995-0.20232 1.1135-0.05522 0.35748 0.14391 0.74235 0.052025 1.0937-0.057349 0.38639-0.10299 0.74235 0.13204 1.1226 0.13234 1e-7 0.1719 1e-7 0.34531 3e-7 0.51721z" color="#000000" fill="#004900" stroke-width=".7056" style="-inkscape-stroke:none;paint-order:stroke fill markers"/>
</svg>
