<svg width="34" height="34" version="1.1" viewBox="0 0 8.9958 8.9958" xmlns="http://www.w3.org/2000/svg">
 <circle cx="4.4979" cy="4.4979" r="4.2062" fill="#12ef12" stroke="#00dc00" stroke-width=".52533"/>
 <path d="m8.3522 3.0954c-0.053663-0.68451-0.61285-1.1937-1.1281-1.5855-1.3202-0.96349-3.1557-1.1647-4.6345-0.46345-0.78207 0.37198-1.5855 0.9269-1.8904 1.7684-0.086897 0.24087-0.07028 0.57017 0.18447 0.27289 0.15032-0.18294 0.32015 0.031862 0.48175 0.08644 0.87964 0.45583 1.7532 0.91318 2.6374 1.369-0.26069-0.75616-0.51986-1.5138-0.78055-2.2715 0.82324-0.12044 1.6617-0.1276 2.485-0.025154-0.26374 0.7653-0.52596 1.5245-0.7897 2.302 1.026-0.53358 2.0581-1.0656 3.0795-1.6007 0.099551 7e-3 0.37503 0.33539 0.35521 0.14712zm-4.5126 1.2699-2.7289-1.4178c0.62048-0.34911 1.3172-0.5412 2.0124-0.65554 0.23782 0.6906 0.47565 1.3827 0.71347 2.0733zm1.2349 0c0.24087-0.69975 0.48175-1.3995 0.72262-2.1038 0.72719 0.10214 1.4529 0.28813 2.1038 0.63115-0.94215 0.48937-1.8904 0.97874-2.8203 1.4681zm1.026-0.053358c-0.22563 0.057322-0.35064 0.28966-0.52748 0.43144-0.094825 0.18904-0.23325 0.030033-0.35978-0.034302-0.15001-0.089184-0.29576-0.19819-0.48022-0.16312-0.25307 0.0059913-0.50766-0.012044-0.75768 0.0091013-0.16617 0.10367-0.33844 0.19819-0.50766 0.2988-0.18447-0.17227-0.35064-0.36741-0.54882-0.52291-0.43906-0.098941-0.28203 0.40857-0.037503 0.53968 0.18447 0.15398 0.3171 0.3918 0.55035 0.46498 0.18599-0.049699 0.34454-0.17379 0.51833-0.25917-0.0099551 0.37046 0.019819 0.74701-0.014849 1.1129-0.19666 0.62505-0.41619 1.2425-0.60066 1.8751 0.017074 0.42077 0.63877 0.35978 0.64639-0.035369 0.1616-0.48327 0.32167-0.96654 0.48327-1.4498 0.19361 0.55187 0.35369 1.119 0.56864 1.6617 0.25307 0.34302 0.73634-0.076835 0.49852-0.39637-0.18142-0.57322-0.38265-1.1434-0.55187-1.7227v-1.0428c0.19819 0.082019 0.37655 0.28051 0.59913 0.24087 0.2424-0.19666 0.44516-0.43601 0.67231-0.65097 0.11388-0.12455 0.04543-0.38113-0.15062-0.35521zm-1.6312 0.14468c0.69213 1.37e-5 0.35064-1.122-0.2241-0.74091-0.33234 0.20276-0.16617 0.76073 0.2241 0.74091z" fill="none" opacity=".8" stroke="#00dc00" stroke-linecap="round" stroke-linejoin="round" stroke-width=".76226"/>
 <path d="m8.3369 3.0954c-0.0715-0.76226-0.71652-1.2943-1.3019-1.7075-1.3736-0.91013-3.2472-1.0199-4.6955-0.2302-0.7028 0.36131-1.3721 0.90099-1.6617 1.6617-0.099551 0.1677-0.025307 0.57931 0.18751 0.27289 0.29576-0.17989 0.6098 0.22715 0.90861 0.30948 0.73634 0.38265 1.4727 0.7653 2.2105 1.148-0.26069-0.75616-0.51986-1.5138-0.78055-2.2715 0.82324-0.12044 1.6617-0.1276 2.485-0.025154-0.26374 0.7653-0.52596 1.5245-0.7897 2.302 1.026-0.53358 2.0581-1.0656 3.0795-1.6007 0.1026-0.01026 0.3171 0.32472 0.35521 0.14712zm-4.5126 1.2699c-0.91013-0.4726-1.8142-0.9452-2.7289-1.4178 0.62048-0.34911 1.3172-0.5412 2.0124-0.65554 0.23782 0.6906 0.47565 1.3827 0.71347 2.0733zm1.2349 0c0.24087-0.69975 0.48175-1.3995 0.72262-2.1038 0.72719 0.10214 1.4513 0.28813 2.1038 0.63115-0.94215 0.48937-1.8904 0.97874-2.8203 1.4681zm1.026-0.053358c-0.36588 0.11388-0.58999 0.82019-0.99398 0.33387-0.31252-0.17989-0.69213-0.069823-1.0367-0.095434-0.31252 0.045888-0.6159 0.50766-0.83848 0.070585-0.13675-0.3049-0.73177-0.45126-0.5534 0.043144 0.19971 0.21343 0.41619 0.42686 0.63572 0.62657 0.2363 0.18752 0.74244-0.49242 0.63267 0.062657-0.0071804 0.38265 0.057474 0.78207-0.11022 1.1434-0.16922 0.52138-0.34759 1.0382-0.50156 1.5702 2.485e-4 0.41772 0.67688 0.35674 0.65097-0.045888 0.16007-0.48022 0.32015-0.95892 0.48022-1.4391 0.19666 0.55645 0.35521 1.1297 0.57627 1.677 0.36588 0.35064 0.74701-0.24087 0.44363-0.56254-0.16465-0.53663-0.37351-1.0672-0.50461-1.616v-1.0016c0.28966 0.22563 0.68451 0.37046 0.89794-0.038875 0.1616-0.16312 0.74244-0.6159 0.2241-0.72719zm-1.6312 0.14468c0.38418 0.03979 0.50156-0.4787 0.25307-0.70737-0.31557-0.34606-0.87202 0.18142-0.58389 0.5351 0.069365 0.11114 0.19819 0.18294 0.33082 0.17379z" fill="#004900" stroke-width=".015245"/>
</svg>
