<svg xmlns="http://www.w3.org/2000/svg" width="580" height="580"><path d="M525.924 336.543c0 75.342-122.917 113.949-235.486 113.949-112.569 0-236.362-35.398-236.362-110.74 0-39.82 42.978-96.279 100.123-140.665 50.974-39.593 113.221-69.579 166.294-69.579 56.08 0 107.269 32.685 144.521 74.804 37.525 42.426 60.91 94.424 60.91 132.231z" transform="matrix(.80544 0 0 .81413 56.423 53.903)" opacity=".8" color="#000" stroke-width="79" fill="none" stroke="#fff"/><path d="M480.022 327.892c0 61.338-99.002 92.77-189.67 92.77-90.666 0-190.374-28.82-190.374-90.157 0-32.42 34.616-78.384 80.643-114.52 41.056-32.234 91.192-56.646 133.94-56.646 45.168 0 86.398 26.61 116.402 60.9 30.224 34.54 49.059 76.873 49.059 107.653z" color="#000" fill="#666"/></svg>