<svg width="42" height="28" version="1.1" viewBox="0 0 11.112 7.4083" xmlns="http://www.w3.org/2000/svg">
 <g transform="translate(.029996 -289.6)">
  <g transform="matrix(.26458 0 0 .26458 -148.46 192.24)" stroke="#fff" stroke-linejoin="round" stroke-width="2">
   <path d="m563.17 375.68 2.2664 12.601 3.5355 2.7197 9.3374 1.4505 11.422-0.27196 6.7084-2.1757 2.085-1.2692s2.0851-13.145 2.0851-13.508-4.1701-3.2636-4.1701-3.2636l-8.1589-1.2692-9.3374-0.27195s-7.2524 0.63457-8.2496 0.90652c-0.99719 0.272-6.1645 2.1757-6.1645 2.1757z" fill="#fc0"/>
   <path d="m578.6 370.22-1.0256 0.0641a0.38799 0.38799 0 0 0-0.0641 0 0.38799 0.38799 0 0 0-0.0641 0.0641 0.38799 0.38799 0 0 0-0.0641 0 0.38799 0.38799 0 0 0-0.0641 0.0641 0.38799 0.38799 0 0 0 0 0.0641 0.38799 0.38799 0 0 0-0.0641 0.0641 0.38799 0.38799 0 0 0 0 0.0641 0.38799 0.38799 0 0 0 0 0.0641 0.38799 0.38799 0 0 0 0 0.0641l1.1538 5.7051c-1.5109 0.0994-2.9895 0.2855-4.4872 0.51281l-2.3718-5.1923a0.38799 0.38799 0 0 0 0-0.0641 0.38799 0.38799 0 0 0-0.0641-0.0641 0.38799 0.38799 0 0 0-0.0641-0.0641 0.38799 0.38799 0 0 0-0.0641 0 0.38799 0.38799 0 0 0-0.0641 0 0.38799 0.38799 0 0 0-0.0641 0 0.38799 0.38799 0 0 0-0.0641 0l-1.282 0.1282a0.38799 0.38799 0 0 0-0.0641 0.0641 0.38799 0.38799 0 0 0-0.0641 0 0.38799 0.38799 0 0 0-0.0641 0.0641 0.38799 0.38799 0 0 0-0.0641 0.0641 0.38799 0.38799 0 0 0 0 0.0641 0.38799 0.38799 0 0 0 0 0.0641 0.38799 0.38799 0 0 0-0.0641 0.0641 0.38799 0.38799 0 0 0 0 0.0641 0.38799 0.38799 0 0 0 0.0641 0.0641 0.38799 0.38799 0 0 0 0 0.0641 0.38799 0.38799 0 0 0 0 0.0641l3.3333 4.8077c-1.422 0.24743-2.8403 0.43153-4.2308 0.83332a0.38799 0.38799 0 0 0-0.0641 0 0.38799 0.38799 0 0 0-0.0641 0.0641 0.38799 0.38799 0 0 0-0.0641 0.0641 0.38799 0.38799 0 0 0-0.0641 0.0641 0.38799 0.38799 0 0 0 0 0.0641 0.38799 0.38799 0 0 0-0.0641 0.0641 0.38799 0.38799 0 0 0 0 0.0641 0.38799 0.38799 0 0 0 0.0641 0.0641 0.38799 0.38799 0 0 0 0 0.0641 0.38799 0.38799 0 0 0 0.0641 0.0641 0.38799 0.38799 0 0 0 0 0.0641 0.38799 0.38799 0 0 0 0.0641 0.0641 0.38799 0.38799 0 0 0 0.0641 0 0.38799 0.38799 0 0 0 0.0641 0.0641c0.0615 0.0144 0.13078-0.0145 0.19232 0 5.1117 1.2315 10.424 1.4951 15.641 1.3462 3.7877-0.15015 7.5978-0.59129 11.282-1.6026 0.0615-0.0164 0.13098 0.0165 0.19231 0a0.38799 0.38799 0 0 0 0.0641 0 0.38799 0.38799 0 0 0 0.0641-0.0641 0.38799 0.38799 0 0 0 0.0641-0.0641 0.38799 0.38799 0 0 0 0.0641-0.0641 0.38799 0.38799 0 0 0 0-0.0641 0.38799 0.38799 0 0 0 0-0.12821 0.38799 0.38799 0 0 0 0-0.0641 0.38799 0.38799 0 0 0 0-0.0641 0.38799 0.38799 0 0 0-0.0641-0.0641 0.38799 0.38799 0 0 0 0-0.0641 0.38799 0.38799 0 0 0-0.0641 0 0.38799 0.38799 0 0 0 0-0.0641 0.38799 0.38799 0 0 0-0.0641 0 0.38799 0.38799 0 0 0-0.0641 0c-0.0616-0.0164-0.13054 0.0165-0.19231 0-1.4397-0.37191-2.9552-0.29291-4.423-0.51281l3.3974-4.9359a0.38799 0.38799 0 0 0 0.0641-0.0641 0.38799 0.38799 0 0 0 0-0.0641 0.38799 0.38799 0 0 0 0-0.12821 0.38799 0.38799 0 0 0 0-0.0641 0.38799 0.38799 0 0 0 0-0.0641 0.38799 0.38799 0 0 0 0-0.0641 0.38799 0.38799 0 0 0-0.0641 0 0.38799 0.38799 0 0 0 0-0.0641 0.38799 0.38799 0 0 0-0.0641-0.0641 0.38799 0.38799 0 0 0-0.0641 0 0.38799 0.38799 0 0 0-0.0641-0.0641 0.38799 0.38799 0 0 0-0.0641 0l-1.2179-0.12822a0.38799 0.38799 0 0 0-0.0641 0 0.38799 0.38799 0 0 0-0.0641 0 0.38799 0.38799 0 0 0-0.0641 0 0.38799 0.38799 0 0 0-0.0641 0 0.38799 0.38799 0 0 0-0.0641 0.0641 0.38799 0.38799 0 0 0-0.0641 0.0641 0.38799 0.38799 0 0 0-0.0641 0.0641l-2.5 5.3846c-1.4488-0.18564-2.9011-0.37641-4.359-0.44872l1.2179-5.9615a0.38799 0.38799 0 0 0 0-0.0641 0.38799 0.38799 0 0 0 0-0.1282 0.38799 0.38799 0 0 0 0-0.0641 0.38799 0.38799 0 0 0-0.0641 0 0.38799 0.38799 0 0 0 0-0.0641 0.38799 0.38799 0 0 0-0.0641 0 0.38799 0.38799 0 0 0 0-0.0641 0.38799 0.38799 0 0 0-0.0641 0 0.38799 0.38799 0 0 0-0.0641-0.0641 0.38799 0.38799 0 0 0-0.0641 0l-1.0256-0.0641a0.38799 0.38799 0 0 0-0.0641 0 0.38799 0.38799 0 0 0-0.0641 0 0.38799 0.38799 0 0 0-0.0641 0 0.38799 0.38799 0 0 0-0.0641 0.0641 0.38799 0.38799 0 0 0-0.0641 0.0641 0.38799 0.38799 0 0 0-0.0641 0.0641 0.38799 0.38799 0 0 0 0 0.0641 0.38799 0.38799 0 0 0-0.0641 0.0641l-0.38462 6.0256c-0.96567-0.0335-1.9217-0.32398-2.8846-0.32051-0.94141 0.0125-1.877 0.14451-2.8205 0.1923l-0.38461-5.8974a0.38799 0.38799 0 0 0 0-0.0641 0.38799 0.38799 0 0 0 0-0.0641 0.38799 0.38799 0 0 0-0.0641-0.0641 0.38799 0.38799 0 0 0 0-0.0641 0.38799 0.38799 0 0 0-0.0641 0 0.38799 0.38799 0 0 0-0.0641-0.0641 0.38799 0.38799 0 0 0-0.0641 0 0.38799 0.38799 0 0 0-0.0641 0 0.38799 0.38799 0 0 0-0.0641 0zm-0.38461 0.76924 0.0641 1.0256-0.1923-0.96152zm8.0128 0 0.19231 0.0641-0.32052 1.4102zm-15.256 1.3461 0.70514 1.6026-1.0256-1.5385zm22.5 0 0.38461 0.0641-1.1538 1.6026zm-11.218 4.6795c3.6068-0.0125 7.1728 0.4905 10.705 1.1538-2.7829 0.53963-5.612 1.0409-8.4615 1.1538-4.3294 0.1235-8.639-0.13886-12.885-0.89742 3.4898-0.74122 7.0555-1.3648 10.641-1.4103z" color="#000000" fill="#008500" style="text-decoration-line:none;text-indent:0;text-transform:none"/>
   <path d="m582 369.06c-5.2558 0-10.039 0.5999-13.59 1.6026-1.7755 0.50134-3.2255 1.1023-4.359 1.859-1.1334 0.75666-2.0513 1.7886-2.0513 3.141 0 0.62341 0.18952 1.1729 0.51282 1.6667l1.9231 11.154a1.075 1.075 0 0 0 0.70513 0.76923 1.075 1.075 0 0 0 0.0641 0.0641c0.31934 0.43769 0.68746 0.83318 1.1538 1.1538 0.98695 0.6786 2.3002 1.153 3.8462 1.6026 1.6726 0.48645 3.6434 0.90841 5.8333 1.1539v0.70511c0 0.60001 0.76956 1.0256 1.7308 1.0256h9.2308c0.96122 0 1.7308-0.42564 1.7308-1.0256v-0.83332c1.8849-0.24395 3.5894-0.59676 5.0641-1.0256 1.546-0.4496 2.8592-0.92395 3.8461-1.6026 0.38986-0.26806 0.73025-0.61195 1.0256-0.96155 9e-3 -0.0112 0.0549 0.0113 0.0641 0a1.0668 1.0668 0 0 0 0.70513-1.0256l1.9872-11.026c0.37333-0.52392 0.57692-1.1187 0.57692-1.7949 0-1.3524-0.91781-2.3844-2.0513-3.141-1.1335-0.75667-2.5835-1.3576-4.359-1.859-3.551-1.0027-8.334-1.6026-13.59-1.6026zm0 2.6923c5.0455 0 9.6208 0.5709 12.82 1.4744 1.5999 0.45173 2.8355 0.97084 3.5897 1.4744 0.75423 0.5035 0.89743 0.85956 0.89743 0.96154 0 0.10187-0.14324 0.45802-0.89743 0.96152-0.75423 0.50351-1.9899 1.0226-3.5897 1.4744-3.1997 0.90346-7.775 1.5384-12.82 1.5384-5.0455 0-9.6208-0.63499-12.82-1.5384-1.5999-0.45173-2.8355-0.97086-3.5898-1.4744-0.75422-0.5035-0.89742-0.85956-0.89742-0.96152 0-0.102 0.14315-0.45804 0.89742-0.96154 0.75424-0.50351 1.9899-1.0226 3.5898-1.4744 3.1997-0.90347 7.775-1.4744 12.82-1.4744zm-16.923 7.6923c0.95074 0.48333 2.0555 0.85715 3.3333 1.218 3.551 1.0027 8.334 1.6026 13.59 1.6026 5.2557 0 10.039-0.5999 13.59-1.6026 1.2982-0.36655 2.4358-0.72451 3.3974-1.218l-1.6026 8.6538a1.0668 1.0668 0 0 0-0.0641 0.25641c-1.9093 1.2015-4.9439 2.1574-8.5897 2.6923v-2.5641c0.0486-5.0495-11.521-5.8672-12.692 0v2.6923c-4.0256-0.51186-7.3822-1.5205-9.4231-2.8205a1.075 1.075 0 0 0 0-0.0641 1.075 1.075 0 0 0-0.0641-0.19232l-1.4744-8.6538z" color="#000000" fill="#008500" style="text-decoration-line:none;text-indent:0;text-transform:none"/>
  </g>
  <path d="m0.53866 291.6 0.59964 3.334 0.93544 0.71958 2.4705 0.38377 3.0222-0.072 1.7749-0.57566 0.55167-0.3358s0.55167-3.4779 0.55167-3.5739c0-0.0959-1.1033-0.86349-1.1033-0.86349l-2.1587-0.3358-2.4705-0.0719s-1.9189 0.1679-2.1827 0.23985c-0.26384 0.072-1.631 0.57566-1.631 0.57566z" fill="#05ff05"/>
  <path d="m4.6273 290.19-0.27137 0.017a0.10266 0.10266 0 0 0-0.01696 0 0.10266 0.10266 0 0 0-0.01696 0.017 0.10266 0.10266 0 0 0-0.01696 0 0.10266 0.10266 0 0 0-0.01696 0.017 0.10266 0.10266 0 0 0 0 0.017 0.10266 0.10266 0 0 0-0.01696 0.017 0.10266 0.10266 0 0 0 0 0.017 0.10266 0.10266 0 0 0 0 0.017 0.10266 0.10266 0 0 0 0 0.017l0.30528 1.5095c-0.39977 0.0263-0.79096 0.0755-1.1872 0.13568l-0.62754-1.3738a0.10266 0.10266 0 0 0 0-0.017 0.10266 0.10266 0 0 0-0.01696-0.017 0.10266 0.10266 0 0 0-0.01696-0.017 0.10266 0.10266 0 0 0-0.01696 0 0.10266 0.10266 0 0 0-0.01696 0 0.10266 0.10266 0 0 0-0.01696 0 0.10266 0.10266 0 0 0-0.01696 0l-0.33921 0.0339a0.10266 0.10266 0 0 0-0.01696 0.017 0.10266 0.10266 0 0 0-0.01696 0 0.10266 0.10266 0 0 0-0.01696 0.017 0.10266 0.10266 0 0 0-0.01696 0.017 0.10266 0.10266 0 0 0 0 0.017 0.10266 0.10266 0 0 0 0 0.017 0.10266 0.10266 0 0 0-0.01696 0.017 0.10266 0.10266 0 0 0 0 0.017 0.10266 0.10266 0 0 0 0.01696 0.017 0.10266 0.10266 0 0 0 0 0.017 0.10266 0.10266 0 0 0 0 0.017l0.88194 1.272c-0.37625 0.0655-0.7515 0.11417-1.1194 0.22048a0.10266 0.10266 0 0 0-0.01696 0 0.10266 0.10266 0 0 0-0.01696 0.017 0.10266 0.10266 0 0 0-0.01696 0.017 0.10266 0.10266 0 0 0-0.01696 0.017 0.10266 0.10266 0 0 0 0 0.017 0.10266 0.10266 0 0 0-0.01696 0.017 0.10266 0.10266 0 0 0 0 0.017 0.10266 0.10266 0 0 0 0.01696 0.017 0.10266 0.10266 0 0 0 0 0.017 0.10266 0.10266 0 0 0 0.01696 0.017 0.10266 0.10266 0 0 0 0 0.017 0.10266 0.10266 0 0 0 0.01696 0.017 0.10266 0.10266 0 0 0 0.01696 0 0.10266 0.10266 0 0 0 0.01696 0.017c0.016272 4e-3 0.034602-4e-3 0.050885 0 1.3525 0.32584 2.7581 0.39557 4.1383 0.35617 1.0022-0.0397 2.0103-0.15645 2.985-0.42401 0.016272-4e-3 0.034655 4e-3 0.050882 0a0.10266 0.10266 0 0 0 0.01696 0 0.10266 0.10266 0 0 0 0.01696-0.017 0.10266 0.10266 0 0 0 0.01696-0.017 0.10266 0.10266 0 0 0 0.01696-0.017 0.10266 0.10266 0 0 0 0-0.017 0.10266 0.10266 0 0 0 0-0.0339 0.10266 0.10266 0 0 0 0-0.017 0.10266 0.10266 0 0 0 0-0.017 0.10266 0.10266 0 0 0-0.01696-0.017 0.10266 0.10266 0 0 0 0-0.017 0.10266 0.10266 0 0 0-0.01696 0 0.10266 0.10266 0 0 0 0-0.017 0.10266 0.10266 0 0 0-0.01696 0 0.10266 0.10266 0 0 0-0.01696 0c-0.016298-4e-3 -0.034539 4e-3 -0.050882 0-0.38093-0.0984-0.7819-0.0775-1.1703-0.13569l0.8989-1.306a0.10266 0.10266 0 0 0 0.01696-0.017 0.10266 0.10266 0 0 0 0-0.017 0.10266 0.10266 0 0 0 0-0.0339 0.10266 0.10266 0 0 0 0-0.017 0.10266 0.10266 0 0 0 0-0.017 0.10266 0.10266 0 0 0 0-0.017 0.10266 0.10266 0 0 0-0.01696 0 0.10266 0.10266 0 0 0 0-0.017 0.10266 0.10266 0 0 0-0.01696-0.017 0.10266 0.10266 0 0 0-0.01696 0 0.10266 0.10266 0 0 0-0.01696-0.017 0.10266 0.10266 0 0 0-0.01696 0l-0.32225-0.0339a0.10266 0.10266 0 0 0-0.01696 0 0.10266 0.10266 0 0 0-0.01696 0 0.10266 0.10266 0 0 0-0.01696 0 0.10266 0.10266 0 0 0-0.01696 0 0.10266 0.10266 0 0 0-0.01696 0.017 0.10266 0.10266 0 0 0-0.01696 0.017 0.10266 0.10266 0 0 0-0.01696 0.017l-0.66146 1.4247c-0.38332-0.0497-0.76758-0.10015-1.1533-0.11928l0.32225-1.5773a0.10266 0.10266 0 0 0 0-0.017 0.10266 0.10266 0 0 0 0-0.0339 0.10266 0.10266 0 0 0 0-0.017 0.10266 0.10266 0 0 0-0.01696 0 0.10266 0.10266 0 0 0 0-0.017 0.10266 0.10266 0 0 0-0.01696 0 0.10266 0.10266 0 0 0 0-0.017 0.10266 0.10266 0 0 0-0.01696 0 0.10266 0.10266 0 0 0-0.01696-0.017 0.10266 0.10266 0 0 0-0.01696 0l-0.27136-0.017a0.10266 0.10266 0 0 0-0.01696 0 0.10266 0.10266 0 0 0-0.01696 0 0.10266 0.10266 0 0 0-0.01696 0 0.10266 0.10266 0 0 0-0.01696 0.017 0.10266 0.10266 0 0 0-0.01696 0.017 0.10266 0.10266 0 0 0-0.01696 0.017 0.10266 0.10266 0 0 0 0 0.017 0.10266 0.10266 0 0 0-0.01696 0.017l-0.10176 1.5943c-0.2555-9e-3 -0.50845-0.0857-0.76322-0.0848-0.24908 3e-3 -0.49663 0.0382-0.74626 0.0509l-0.10176-1.5604a0.10266 0.10266 0 0 0 0-0.017 0.10266 0.10266 0 0 0 0-0.017 0.10266 0.10266 0 0 0-0.01696-0.017 0.10266 0.10266 0 0 0 0-0.017 0.10266 0.10266 0 0 0-0.01696 0 0.10266 0.10266 0 0 0-0.01696-0.017 0.10266 0.10266 0 0 0-0.01696 0 0.10266 0.10266 0 0 0-0.01696 0 0.10266 0.10266 0 0 0-0.01696 0zm-0.10176 0.20353 0.01696 0.27136-0.050879-0.2544zm2.1201 0 0.050882 0.017-0.084804 0.37313zm-4.0366 0.35617 0.18657 0.42401-0.27137-0.40706zm5.9531 0 0.10176 0.017-0.30529 0.42402zm-2.9681 1.2381c0.9543-3e-3 1.8978 0.12978 2.8324 0.30529-0.73631 0.14277-1.4848 0.27541-2.2388 0.30528-1.1455 0.0327-2.2857-0.0367-3.4091-0.23744 0.92334-0.19611 1.8668-0.3611 2.8154-0.37313z" color="#000000" fill="#004900" style="text-decoration-line:none;text-indent:0;text-transform:none"/>
  <path d="m5.5262 289.89c-1.3906 0-2.6561 0.15872-3.5956 0.42401-0.46977 0.13265-0.85341 0.29165-1.1533 0.49186-0.29989 0.2002-0.54273 0.47324-0.54273 0.83106 0 0.16494 0.050144 0.31033 0.13568 0.44097l0.50881 2.9511a0.28444 0.28444 0 0 0 0.18657 0.20352 0.28444 0.28444 0 0 0 0.01696 0.017c0.084492 0.11581 0.18189 0.22045 0.30528 0.30529 0.26113 0.17955 0.60859 0.30505 1.0176 0.42401 0.44255 0.1287 0.96399 0.24035 1.5434 0.30529v0.18656c0 0.15875 0.20361 0.27137 0.45793 0.27137h2.4423c0.25432 0 0.45793-0.11262 0.45793-0.27137v-0.22048c0.49871-0.0645 0.94969-0.15789 1.3399-0.27137 0.40904-0.11896 0.7565-0.24446 1.0176-0.42401 0.10315-0.0709 0.19321-0.16191 0.27137-0.25441 0.0024-3e-3 0.01453 3e-3 0.01696 0a0.28225 0.28225 0 0 0 0.18657-0.27136l0.52577-2.9172c0.09878-0.13862 0.15264-0.29598 0.15264-0.47489 0-0.35782-0.24284-0.63087-0.54273-0.83106-0.29989-0.20021-0.68354-0.35921-1.1533-0.49186-0.93955-0.26528-2.205-0.42401-3.5956-0.42401zm0 0.71234c1.335 0 2.5455 0.15105 3.3921 0.39009 0.4233 0.11952 0.75023 0.25687 0.94979 0.39009 0.19956 0.13322 0.23745 0.22743 0.23745 0.25441 0 0.0269-0.0379 0.12118-0.23745 0.2544-0.19956 0.13322-0.52649 0.27057-0.94979 0.39009-0.84658 0.23904-2.0571 0.40705-3.3921 0.40705-1.335 0-2.5455-0.16801-3.3921-0.40705-0.4233-0.11952-0.75023-0.25687-0.94979-0.39009-0.19955-0.13322-0.23744-0.22743-0.23744-0.2544 0-0.027 0.037875-0.12119 0.23744-0.25441 0.19956-0.13322 0.52649-0.27057 0.94979-0.39009 0.84658-0.23904 2.0571-0.39009 3.3921-0.39009zm-4.4776 2.0352c0.25155 0.12788 0.54385 0.22679 0.88194 0.32225 0.93955 0.26529 2.205 0.42401 3.5956 0.42401 1.3906 0 2.6561-0.15872 3.5956-0.42401 0.34347-0.097 0.64448-0.19169 0.89891-0.32225l-0.42402 2.2897a0.28225 0.28225 0 0 0-0.01696 0.0678c-0.50517 0.3179-1.3081 0.57082-2.2727 0.71234v-0.67841c0.012859-1.336-3.0482-1.5524-3.3582 0v0.71237c-1.0651-0.13543-1.9532-0.4023-2.4932-0.74626a0.28444 0.28444 0 0 0 0-0.017 0.28444 0.28444 0 0 0-0.01696-0.0509l-0.39009-2.2897z" color="#000000" fill="#004900" style="text-decoration-line:none;text-indent:0;text-transform:none"/>
 </g>
</svg>
