<svg width="35.4" height="34" version="1.1" viewBox="0 0 9.38 9.38" xmlns="http://www.w3.org/2000/svg">
 <g transform="translate(-1.18 -285)">
  <circle cx="6.06" cy="290" r="4.23" fill="#ffc400" stroke="#f2b800" stroke-width=".529"/>
  <g transform="matrix(.27 0 0 .268 1.45 286)" fill="#006f00" stroke="#f2b800" stroke-linejoin="round" stroke-width="1.97">
   <path d="m25.6 26.9c0 1.41 1.15 2.56 2.56 2.56s2.56-1.15 2.56-2.56-1.15-2.56-2.56-2.56-2.56 1.15-2.56 2.56zm-18.6 0c0 1.41 1.15 2.56 2.56 2.56s2.56-1.15 2.56-2.56-1.15-2.56-2.56-2.56-2.56 1.15-2.56 2.56zm23-5.76h-20l.427-.692c.183-.297.237-.656.149-.994l-.417-1.6 18.5-.964c.703-.036 1.28-.642 1.28-1.35v-8.48c0-.704-.576-1.28-1.28-1.28h-21.7l-.25-.962c-.147-.564-.656-.958-1.24-.958h-4.35c-.707 0-1.28.573-1.28 1.28s.573 1.28 1.28 1.28h3.36l3.42 13.1-1.34 2.18c-.243.395-.254.891-.027 1.3.225.405.653.657 1.12.657h22.3c.707 0 1.28-.573 1.28-1.28s-.573-1.28-1.28-1.28z" fill="#006f00" stroke="#f2b800" stroke-linejoin="round" stroke-width="1.97"/>
  </g>
  <g transform="matrix(.27 0 0 .268 1.45 286)" fill="#5d0000">
   <path d="m25.6 26.9c0 1.41 1.15 2.56 2.56 2.56s2.56-1.15 2.56-2.56-1.15-2.56-2.56-2.56-2.56 1.15-2.56 2.56zm-18.6 0c0 1.41 1.15 2.56 2.56 2.56s2.56-1.15 2.56-2.56-1.15-2.56-2.56-2.56-2.56 1.15-2.56 2.56zm23-5.76h-20l.427-.692c.183-.297.237-.656.149-.994l-.417-1.6 18.5-.964c.703-.036 1.28-.642 1.28-1.35v-8.48c0-.704-.576-1.28-1.28-1.28h-21.7l-.25-.962c-.147-.564-.656-.958-1.24-.958h-4.35c-.707 0-1.28.573-1.28 1.28s.573 1.28 1.28 1.28h3.36l3.42 13.1-1.34 2.18c-.243.395-.254.891-.027 1.3.225.405.653.657 1.12.657h22.3c.707 0 1.28-.573 1.28-1.28s-.573-1.28-1.28-1.28z" fill="#5d0000"/>
  </g>
 </g>
</svg>
