<svg width="34" height="34" version="1.1" viewBox="0 0 8.9958 8.9958" xmlns="http://www.w3.org/2000/svg">
 <circle cx="4.4979" cy="4.4979" r="4.2062" fill="#12ef12" stroke="#00dc00" stroke-width=".52533"/>
 <path d="m2.1063 5.9342c-0.26165 0.0040883-0.49673-0.19011-0.72772-0.19215-0.23303-0.0040884-0.4906 0.14309-0.65004 0.1758-0.1574 0.028618-0.25552 0.032706-0.29231 0.0081766v0.5417c0.036794 0.022486 0.13696 0.020442 0.29231-0.0081765 0.1574-0.032706 0.41701-0.17989 0.65004-0.1758 0.23099 0.0020461 0.46607 0.19624 0.72772 0.19215 0.25961-0.010221 0.54783-0.22077 0.81357-0.22486 0.25756-0.010221 0.48855 0.17989 0.74816 0.18397 0.2637 0.0020461 0.53148-0.17171 0.81357-0.16762 0.278 0.0040882 0.56214 0.19419 0.8381 0.19215 0.28005-0.0061324 0.54374-0.2085 0.83606-0.21055 0.29231-0.00204 0.61325 0.19624 0.89943 0.20237 0.28209 0 0.57236-0.18602 0.77678-0.19215 0.20237-0.00818 0.31276 0.12265 0.42927 0.14922 0.1206 0.026574 0.21055 0.028618 0.28209 0.00818v-0.5417c-0.069501 0.022486-0.16149 0.018397-0.28209-0.0081767-0.12061-0.028618-0.23303-0.1574-0.42927-0.14922-0.20441 0.0081765-0.49877 0.19215-0.77678 0.19215-0.28618-0.0061326-0.60711-0.20033-0.89943-0.20033-0.29027 0.0020461-0.55192 0.20442-0.83606 0.21055-0.28414 0.0020439-0.56827-0.18806-0.8381-0.19215-0.28209-0.0081766-0.54988 0.16762-0.81357 0.16558-0.25143-0.0040883-0.47629-0.17989-0.72363-0.18397-0.33554-0.0073852-0.55843 0.2066-0.8381 0.22486z" fill="#ffcc00" opacity=".8" stop-color="#000000" stroke="#00d400" stroke-width=".60558" style="-inkscape-stroke:none;font-variation-settings:normal"/>
 <path d="m2.1287 6.8336c-0.26165 0.0040881-0.49673-0.19011-0.72772-0.19215-0.23303-0.0040883-0.4906 0.14309-0.65004 0.1758-0.1574 0.032706-0.25552 0.030662-0.29231 0.0081762v0.5417c0.036795 0.022486 0.13696 0.022486 0.29231-0.00818 0.1574-0.032703 0.41701-0.17988 0.65004-0.17579 0.23099 0.0020461 0.46607 0.19624 0.72772 0.19215 0.25961-0.012265 0.54783-0.21668 0.81357-0.22486 0.25756-0.0081765 0.48855 0.17784 0.74816 0.18397 0.2637 0.0020438 0.53148-0.17375 0.81357-0.16558 0.278 0.0040884 0.56214 0.19419 0.8381 0.19215 0.28005-0.0061327 0.54374-0.2085 0.83606-0.21055 0.29231 0 0.61325 0.19419 0.89943 0.20033 0.28209 0 0.57236-0.18602 0.77678-0.19215 0.20237-0.00818 0.31276 0.12265 0.42927 0.14922 0.1206 0.026574 0.21055 0.028618 0.28209 0.00818v-0.5417c-0.069501 0.018397-0.16149 0.016353-0.28209-0.0081765-0.12061-0.026574-0.23303-0.1574-0.42927-0.14922-0.20442 0.0081765-0.49877 0.19215-0.77678 0.19215-0.28618-0.0061325-0.60711-0.20033-0.89943-0.20033-0.29027 0.0020439-0.55192 0.20442-0.83606 0.21055-0.28414 0.0020438-0.56827-0.18806-0.8381-0.19215-0.28209-0.0081765-0.54988 0.16762-0.81357 0.16558-0.25143-0.0040885-0.47629-0.17989-0.72363-0.18397-0.33554-0.0073853-0.55843 0.2066-0.8381 0.22486z" fill="#ffcc00" opacity=".8" stop-color="#000000" stroke="#00d400" stroke-width=".60558" style="-inkscape-stroke:none;font-variation-settings:normal"/>
 <path d="m2.1001 7.7249c-0.26165 0.0040882-0.49673-0.19011-0.72772-0.19215-0.23303-0.0040884-0.4906 0.14309-0.65004 0.1758-0.1574 0.032706-0.25552 0.030662-0.29231 0.00818v0.5417c0.036795 0.022486 0.13696 0.022486 0.29231-0.00818 0.1574-0.032706 0.41701-0.17989 0.65004-0.1758 0.23099 0.00204 0.46607 0.19624 0.72772 0.19215 0.25961-0.012265 0.54783-0.21668 0.81357-0.22486 0.25756-0.00818 0.48855 0.17784 0.74816 0.18397 0.2637 0.00205 0.53148-0.17375 0.81357-0.16558 0.278 0.00409 0.56214 0.19419 0.8381 0.19215 0.28005-0.00613 0.54374-0.2085 0.83606-0.21055 0.29231 0 0.61325 0.19419 0.89943 0.20033 0.28209 0 0.57236-0.18602 0.77678-0.19215 0.20237-0.00818 0.31276 0.12265 0.42927 0.14922 0.12061 0.026574 0.21055 0.028618 0.28209 0.00818v-0.5417c-0.069501 0.018397-0.16149 0.016353-0.28209-0.0081765-0.1206-0.026574-0.23303-0.1574-0.42927-0.14922-0.20442 0.0081766-0.49877 0.19215-0.77678 0.19215-0.28618-0.0061325-0.60711-0.20033-0.89943-0.20033-0.29027 0.0020439-0.55192 0.20442-0.83606 0.21055-0.28414 0.0020438-0.56827-0.18806-0.8381-0.19215-0.28209-0.0081766-0.54988 0.16762-0.81357 0.16558-0.25143-0.0040884-0.47629-0.17989-0.72363-0.18397-0.33554-0.0073852-0.55843 0.2066-0.8381 0.22486z" fill="#ffcc00" opacity=".8" stop-color="#000000" stroke="#00d400" stroke-width=".60558" style="-inkscape-stroke:none;font-variation-settings:normal"/>
 <path d="m5.2887 1.5134c-0.033629-0.46882-0.36387-0.78771-0.7908-0.79351-0.47193 0.036004-0.78525 0.36665-0.7908 0.79351 0.034989 0.45894 0.37283 0.78763 0.7908 0.79351 0.46038-0.036069 0.78508-0.37425 0.7908-0.79351z" fill="#ffcc00" opacity=".8" stop-color="#000000" stroke="#00d400" stroke-width=".60558" style="-inkscape-stroke:none;font-variation-settings:normal"/>
 <path d="m3.4381 2.4673c-0.28262 0-0.52721 0.10054-0.72831 0.29892-0.2011 0.2011-0.29892 0.44839-0.29892 0.74188v1.9645c0.031078-0.012723 0.061923-0.024184 0.093507-0.037248 0.066312-0.027428 0.13439-0.054083 0.20684-0.073391 0.036225-0.00965 0.073521-0.017471 0.11227-0.022651 0.038753-0.00518 0.078958-0.00771 0.1209-0.00679 0.030918 5.114e-4 0.061479 0.00371 0.09179 0.00891 0.00264 4.526e-4 0.00522 0.00136 0.00785 0.00184v-1.7537h0.38049v1.8765c0.019763 0.00664 0.039232 0.014867 0.059162 0.020525 0.030151 0.00856 0.060523 0.015769 0.091217 0.020975 0.030694 0.00521 0.06171 0.0084 0.093139 0.00891 0.032962 2.541e-4 0.065957-0.00227 0.099067-0.00687s0.066301-0.011265 0.099599-0.019298c0.066594-0.016066 0.13362-0.037581 0.2012-0.058917 0.067585-0.021336 0.13574-0.042473 0.20464-0.057772 0.034447-0.00765 0.069098-0.013847 0.10393-0.017868 0.034834-0.00402 0.069857-0.00589 0.10512-0.00487 0.033728 5.114e-4 0.0677 0.00394 0.10185 0.00953 0.034148 0.00559 0.068481 0.013346 0.10299 0.022528 0.069022 0.018365 0.13871 0.042427 0.20885 0.066318s0.14073 0.047614 0.21154 0.065213c0.035406 0.0088 0.070856 0.016046 0.10635 0.021057 0.035489 0.00501 0.070991 0.00778 0.10651 0.00752 0.035517-7.655e-4 0.070695-0.00463 0.10561-0.010753 0.034914-0.00612 0.069585-0.014517 0.1041-0.02445 0.017697-0.00509 0.035195-0.012571 0.052825-0.018358v-1.8999h0.36687v1.7744c0.032787-0.0089 0.06575-0.016688 0.099067-0.022079 0.035489-0.00574 0.071329-0.00915 0.10761-0.0094 0.036539 0 0.073533 0.00306 0.11084 0.00838 0.03731 0.00532 0.074931 0.012928 0.11276 0.022079 0.062717 0.01517 0.12605 0.035653 0.1893 0.055892v-1.8565c0-0.28262-0.095119-0.52991-0.28534-0.74188-0.19023-0.21197-0.4348-0.31522-0.74732-0.33424z" fill="#ffcc00" opacity=".8" stop-color="#000000" stroke="#00d400" stroke-width=".60558" style="-inkscape-stroke:none;font-variation-settings:normal"/>
 <path d="m2.1063 5.9342c-0.26165 0.0040883-0.49673-0.19011-0.72772-0.19215-0.23303-0.0040884-0.4906 0.14309-0.65004 0.1758-0.1574 0.028618-0.25552 0.032706-0.29231 0.0081766v0.5417c0.036794 0.022486 0.13696 0.020442 0.29231-0.0081765 0.1574-0.032706 0.41701-0.17989 0.65004-0.1758 0.23099 0.0020461 0.46607 0.19624 0.72772 0.19215 0.25961-0.010221 0.54783-0.22077 0.81357-0.22486 0.25756-0.010221 0.48855 0.17989 0.74816 0.18397 0.2637 0.0020461 0.53148-0.17171 0.81357-0.16762 0.278 0.0040882 0.56214 0.19419 0.8381 0.19215 0.28005-0.0061324 0.54374-0.2085 0.83606-0.21055 0.29231-0.00204 0.61325 0.19624 0.89943 0.20237 0.28209 0 0.57236-0.18602 0.77678-0.19215 0.20237-0.00818 0.31276 0.12265 0.42927 0.14922 0.1206 0.026574 0.21055 0.028618 0.28209 0.00818v-0.5417c-0.069501 0.022486-0.16149 0.018397-0.28209-0.0081767-0.12061-0.028618-0.23303-0.1574-0.42927-0.14922-0.20441 0.0081765-0.49877 0.19215-0.77678 0.19215-0.28618-0.0061326-0.60711-0.20033-0.89943-0.20033-0.29027 0.0020461-0.55192 0.20442-0.83606 0.21055-0.28414 0.0020439-0.56827-0.18806-0.8381-0.19215-0.28209-0.0081766-0.54988 0.16762-0.81357 0.16558-0.25143-0.0040883-0.47629-0.17989-0.72363-0.18397-0.33554-0.0073852-0.55843 0.2066-0.8381 0.22486z" fill="#004900" stop-color="#000000" stroke-width="1.32" style="-inkscape-stroke:none;font-variation-settings:normal"/>
 <path d="m2.1287 6.8336c-0.26165 0.0040881-0.49673-0.19011-0.72772-0.19215-0.23303-0.0040883-0.4906 0.14309-0.65004 0.1758-0.1574 0.032706-0.25552 0.030662-0.29231 0.0081762v0.5417c0.036795 0.022486 0.13696 0.022486 0.29231-0.00818 0.1574-0.032703 0.41701-0.17988 0.65004-0.17579 0.23099 0.0020461 0.46607 0.19624 0.72772 0.19215 0.25961-0.012265 0.54783-0.21668 0.81357-0.22486 0.25756-0.0081765 0.48855 0.17784 0.74816 0.18397 0.2637 0.0020438 0.53148-0.17375 0.81357-0.16558 0.278 0.0040884 0.56214 0.19419 0.8381 0.19215 0.28005-0.0061327 0.54374-0.2085 0.83606-0.21055 0.29231 0 0.61325 0.19419 0.89943 0.20033 0.28209 0 0.57236-0.18602 0.77678-0.19215 0.20237-0.00818 0.31276 0.12265 0.42927 0.14922 0.1206 0.026574 0.21055 0.028618 0.28209 0.00818v-0.5417c-0.069501 0.018397-0.16149 0.016353-0.28209-0.0081765-0.12061-0.026574-0.23303-0.1574-0.42927-0.14922-0.20442 0.0081765-0.49877 0.19215-0.77678 0.19215-0.28618-0.0061325-0.60711-0.20033-0.89943-0.20033-0.29027 0.0020439-0.55192 0.20442-0.83606 0.21055-0.28414 0.0020438-0.56827-0.18806-0.8381-0.19215-0.28209-0.0081765-0.54988 0.16762-0.81357 0.16558-0.25143-0.0040885-0.47629-0.17989-0.72363-0.18397-0.33554-0.0073853-0.55843 0.2066-0.8381 0.22486z" fill="#004900" stop-color="#000000" stroke-width="1.32" style="-inkscape-stroke:none;font-variation-settings:normal"/>
 <path d="m2.1001 7.7249c-0.26165 0.0040882-0.49673-0.19011-0.72772-0.19215-0.23303-0.0040884-0.4906 0.14309-0.65004 0.1758-0.1574 0.032706-0.25552 0.030662-0.29231 0.00818v0.5417c0.036795 0.022486 0.13696 0.022486 0.29231-0.00818 0.1574-0.032706 0.41701-0.17989 0.65004-0.1758 0.23099 0.00204 0.46607 0.19624 0.72772 0.19215 0.25961-0.012265 0.54783-0.21668 0.81357-0.22486 0.25756-0.00818 0.48855 0.17784 0.74816 0.18397 0.2637 0.00205 0.53148-0.17375 0.81357-0.16558 0.278 0.00409 0.56214 0.19419 0.8381 0.19215 0.28005-0.00613 0.54374-0.2085 0.83606-0.21055 0.29231 0 0.61325 0.19419 0.89943 0.20033 0.28209 0 0.57236-0.18602 0.77678-0.19215 0.20237-0.00818 0.31276 0.12265 0.42927 0.14922 0.12061 0.026574 0.21055 0.028618 0.28209 0.00818v-0.5417c-0.069501 0.018397-0.16149 0.016353-0.28209-0.0081765-0.1206-0.026574-0.23303-0.1574-0.42927-0.14922-0.20442 0.0081766-0.49877 0.19215-0.77678 0.19215-0.28618-0.0061325-0.60711-0.20033-0.89943-0.20033-0.29027 0.0020439-0.55192 0.20442-0.83606 0.21055-0.28414 0.0020438-0.56827-0.18806-0.8381-0.19215-0.28209-0.0081766-0.54988 0.16762-0.81357 0.16558-0.25143-0.0040884-0.47629-0.17989-0.72363-0.18397-0.33554-0.0073852-0.55843 0.2066-0.8381 0.22486z" fill="#004900" stop-color="#000000" stroke-width="1.32" style="-inkscape-stroke:none;font-variation-settings:normal"/>
 <path d="m5.2887 1.5134c-0.033629-0.46882-0.36387-0.78771-0.7908-0.79351-0.47193 0.036004-0.78525 0.36665-0.7908 0.79351 0.034989 0.45894 0.37283 0.78763 0.7908 0.79351 0.46038-0.036069 0.78508-0.37425 0.7908-0.79351z" fill="#004900" stop-color="#000000" stroke-width="1.32" style="-inkscape-stroke:none;font-variation-settings:normal"/>
 <path d="m3.4381 2.4673c-0.28262 0-0.52721 0.10054-0.72831 0.29892-0.2011 0.2011-0.29892 0.44839-0.29892 0.74188v1.9645c0.031078-0.012723 0.061923-0.024184 0.093507-0.037248 0.066312-0.027428 0.13439-0.054083 0.20684-0.073391 0.036225-0.00965 0.073521-0.017471 0.11227-0.022651 0.038753-0.00518 0.078958-0.00771 0.1209-0.00679 0.030918 5.114e-4 0.061479 0.00371 0.09179 0.00891 0.00264 4.526e-4 0.00522 0.00136 0.00785 0.00184v-1.7537h0.38049v1.8765c0.019763 0.00664 0.039232 0.014867 0.059162 0.020525 0.030151 0.00856 0.060523 0.015769 0.091217 0.020975 0.030694 0.00521 0.06171 0.0084 0.093139 0.00891 0.032962 2.541e-4 0.065957-0.00227 0.099067-0.00687s0.066301-0.011265 0.099599-0.019298c0.066594-0.016066 0.13362-0.037581 0.2012-0.058917 0.067585-0.021336 0.13574-0.042473 0.20464-0.057772 0.034447-0.00765 0.069098-0.013847 0.10393-0.017868 0.034834-0.00402 0.069857-0.00589 0.10512-0.00487 0.033728 5.114e-4 0.0677 0.00394 0.10185 0.00953 0.034148 0.00559 0.068481 0.013346 0.10299 0.022528 0.069022 0.018365 0.13871 0.042427 0.20885 0.066318s0.14073 0.047614 0.21154 0.065213c0.035406 0.0088 0.070856 0.016046 0.10635 0.021057 0.035489 0.00501 0.070991 0.00778 0.10651 0.00752 0.035517-7.655e-4 0.070695-0.00463 0.10561-0.010753 0.034914-0.00612 0.069585-0.014517 0.1041-0.02445 0.017697-0.00509 0.035195-0.012571 0.052825-0.018358v-1.8999h0.36687v1.7744c0.032787-0.0089 0.06575-0.016688 0.099067-0.022079 0.035489-0.00574 0.071329-0.00915 0.10761-0.0094 0.036539 0 0.073533 0.00306 0.11084 0.00838 0.03731 0.00532 0.074931 0.012928 0.11276 0.022079 0.062717 0.01517 0.12605 0.035653 0.1893 0.055892v-1.8565c0-0.28262-0.095119-0.52991-0.28534-0.74188-0.19023-0.21197-0.4348-0.31522-0.74732-0.33424z" fill="#004900" stop-color="#000000" stroke-width="1.32" style="-inkscape-stroke:none;font-variation-settings:normal"/>
</svg>
