<svg width="34" height="34" version="1.1" viewBox="0 0 8.9958 8.9958" xmlns="http://www.w3.org/2000/svg">
 <g transform="translate(0 -288)">
  <circle cx="4.485" cy="292.5" r="4.2062" fill="#12ef12" stroke="#00dc00" stroke-width=".52533"/>
  <path d="m1.2477 294.44c-.34568 0-.66725.20166-.99608.31128v1.0117s.49803-.32662.99608-.32687c.49803-.00025.99608.49804 1.7431.49804.74705 0 .9829-.48076 1.4941-.49804.49803.00025.74705.49804 1.4941.49804.74708 0 1.2451-.49804 1.7432-.49804.34944 0 .99608.32687.99608.32687v-1.0117c-.31956-.12292-.6691-.31128-.99608-.31128-.74708 0-1.2451.49829-1.7432.49804-.49803-.00025-.74705-.49804-1.4941-.49804-.74708 0-.99608.49829-1.4941.49804-.49805.00025-.99608-.49804-1.7431-.49804zm5.4784-3.8674c-.55012 0-.9961.44595-.9961.99608s.44598.99608.9961.99608c.5501 0 .99608-.44595.99608-.99608s-.44598-.99608-.99608-.99608zm-.93385-1.4941c-.078767 0-.21606.0463-.28014.0779l-1.9922.96495c-.26517.12555-.36163.51148-.18677.74706l.60698.82485-2.3501 1.821c.56227.11405.98417.46711 1.4007.46691.49805.00025.74705-.49804 1.4941-.49804.74705 0 .99608.49779 1.4941.49804.20561 1e-4.41503-.0871.63812-.18676l-2.1011-3.0505 1.5097-.76265c.2998-.14991.28009-.407.24903-.5603-.029448-.14532-.2087-.3424-.48249-.3424z" color="#000000" fill="#fc0" stroke="#00d400" stroke-width=".52917"/>
  <path d="m1.2477 294.44c-.34568 0-.66725.20166-.99608.31128v1.0117s.49803-.32661.99608-.32686c.49803-.00025.99608.49804 1.7431.49804s.9829-.48076 1.4941-.49804c.49803.00025.74705.49804 1.4941.49804.74708 0 1.2451-.49804 1.7432-.49804.34944 0 .99608.32686.99608.32686v-1.0117c-.31956-.12292-.6691-.31128-.99608-.31128-.74708 0-1.2451.49829-1.7432.49804-.49803-.00025-.74705-.49804-1.4941-.49804-.74708 0-.99608.49829-1.4941.49804-.49805.00025-.99608-.49804-1.7431-.49804zm5.4784-3.8674c-.55012 0-.9961.44594-.9961.99607 0 .55014.44598.99608.9961.99608.5501 0 .99608-.44594.99608-.99608 0-.55013-.44598-.99607-.99608-.99607zm-.93385-1.4941c-.078767 0-.21606.0463-.28014.0778l-1.9922.96495c-.26517.1256-.36163.51153-.18677.7471l.60698.82486-2.3501 1.821c.56227.11406.98417.46712 1.4007.46692.49805.00025.74705-.49804 1.4941-.49804.74705 0 .99608.49779 1.4941.49804.20561 1e-4.41503-.0871.63812-.18677l-2.1011-3.0505 1.5097-.76265c.2998-.1499.28009-.40699.24903-.56029-.029448-.14533-.2087-.3424-.48249-.3424z" color="#000000" fill="#004900"/>
 </g>
</svg>
