<?xml version="1.0" encoding="UTF-8"?>
<svg width="34" height="34" version="1.1" viewBox="0 0 8.9958 8.9958" xmlns="http://www.w3.org/2000/svg">
 <circle cx="4.4979" cy="4.4979" r="4.2062" fill="#12ef12" stroke="#00dc00" stroke-width=".52533"/>
 <path d="m5.9931 2.1447c-0.31961 0.13184-0.25968 0.14582-0.30563 0.2457-0.041949 0.095882-0.00999 0.14183 0.061924 0.34358 0.071912 0.20375 0.19176 0.4874 0.36555 0.85895l-2.1973 1.1786c0.19976-0.095883 0.41349-0.13384 0.63922-0.11186 0.22373 0.021973 0.43746 0.23771 0.69914 0.23971 0.26767-0.00599 0.59926-0.25569 0.8929-0.25569 0.29364 2e-3 0.60726 0.22572 0.83897 0.2477 0.23172 0.017978 0.39951-0.025968 0.53335-0.13783l-0.9808-2.2153c0.27766-0.10387 0.51936-0.19776 0.73909-0.27966 0.21574-0.087892 0.49939-0.11586 0.55732-0.22772 0.049939-0.10987 0.061924-0.43147-0.21673-0.43447-0.56136 0.10532-1.1004 0.32942-1.627 0.54833zm1.2644 1.3463c0 0.35357 0.27366 0.63922 0.61125 0.63922 0.33759 0 0.61125-0.28565 0.61125-0.63922 0-0.35357-0.27366-0.63922-0.61125-0.63922-0.33759 0-0.61125 0.28565-0.61125 0.63922zm-6.3023 0.25968c-0.23571 0.013983-0.31961 0.29963-0.20375 0.43946 0.11586 0.13983 0.60925 0.27966 0.8989 0.38752 0.28765 0.099878 0.55132 0.17379 0.81101 0.21973 0.20375-0.095882 0.38952-0.14382 0.5673-0.13983 0.17778 0.0039953 0.35157 0.13184 0.4894 0.15381 0.13583 0.019976 0.23971 0.0059926 0.3236-0.037954-0.6552-0.26967-1.1985-0.47941-1.6979-0.6552-0.3893-0.12933-0.84709-0.37425-1.1885-0.36755zm1.2205 1.3583c-0.25569 0.003995-0.4854-0.18577-0.71113-0.18777-0.22772-0.0039951-0.47941 0.13983-0.63522 0.17179-0.15381 0.027966-0.24969 0.031961-0.28565 0.0079901v0.52935c0.035956 0.021973 0.13384 0.019976 0.28565-0.00799 0.15381-0.031961 0.4075-0.17578 0.63522-0.17179 0.22572 2e-3 0.45544 0.19176 0.71113 0.18777 0.25369-0.00999 0.53534-0.21574 0.79503-0.21973 0.25169-0.00999 0.47741 0.17578 0.7311 0.17978 0.25768 2e-3 0.51936-0.16779 0.79502-0.1638 0.27167 4e-3 0.54933 0.18977 0.819 0.18777 0.27366-0.00599 0.53135-0.20375 0.817-0.20575 0.28565-2e-3 0.59927 0.19176 0.87892 0.19776 0.27566 0 0.55931-0.18178 0.75907-0.18777 0.19776-0.00799 0.30563 0.11985 0.41949 0.14582 0.11786 0.025968 0.20575 0.027965 0.27566 0.00799v-0.52935c-0.067917 0.021973-0.15781 0.017978-0.27566-0.0079904-0.11786-0.027966-0.22772-0.15381-0.41949-0.14582-0.19976 0.0079901-0.4874 0.18777-0.75907 0.18777-0.27966-0.0059926-0.59327-0.19576-0.87892-0.19576-0.28365 0.0019993-0.53934 0.19976-0.817 0.20575-0.27766 0.0019976-0.55532-0.18377-0.819-0.18777-0.27566-0.0079901-0.53734 0.1638-0.79502 0.1618-0.2457-0.0039951-0.46543-0.17578-0.70713-0.17978-0.32789-0.0072168-0.5457 0.20189-0.819 0.21973zm0 0.87892c-0.25569 0.003995-0.4854-0.18577-0.71113-0.18777-0.22772-0.0039951-0.47941 0.13983-0.63522 0.17179-0.15381 0.031961-0.24969 0.029963-0.28565 0.0079899v0.52935c0.035956 0.021973 0.13384 0.021973 0.28565-0.00799 0.15381-0.031961 0.4075-0.17578 0.63522-0.17179 0.22572 2e-3 0.45544 0.19176 0.71113 0.18777 0.25369-0.011985 0.53534-0.21174 0.79503-0.21973 0.25169-0.00799 0.47741 0.17379 0.7311 0.17978 0.25768 2e-3 0.51936-0.16979 0.79502-0.1618 0.27167 4e-3 0.54933 0.18977 0.819 0.18777 0.27366-0.00599 0.53135-0.20375 0.817-0.20575 0.28565 0 0.59927 0.18977 0.87892 0.19576 0.27566 0 0.55931-0.18178 0.75907-0.18777 0.19776-0.00799 0.30563 0.11985 0.41949 0.14582 0.11786 0.025968 0.20575 0.027966 0.27566 0.00799v-0.52935c-0.067917 0.017978-0.15781 0.01598-0.27566-0.0079901-0.11786-0.025968-0.22772-0.15381-0.41949-0.14582-0.19976 0.0079901-0.4874 0.18777-0.75907 0.18777-0.27966-0.0059926-0.59327-0.19576-0.87892-0.19576-0.28365 0.0019969-0.53934 0.19975-0.817 0.20575-0.27766 0.0019975-0.55532-0.18377-0.819-0.18777-0.27566-0.0079901-0.53734 0.1638-0.79502 0.1618-0.2457-0.003995-0.46543-0.17578-0.70713-0.17978-0.32789-0.007217-0.5457 0.20189-0.819 0.21973zm-0.027966 0.87093c-0.25569 0.0039951-0.4854-0.18577-0.71113-0.18777-0.22772-0.003995-0.47941 0.13983-0.63522 0.17179-0.15381 0.031961-0.24969 0.029963-0.28565 0.0079899v0.52935c0.035956 0.021973 0.13384 0.021973 0.28565-0.00799 0.15381-0.031961 0.4075-0.17578 0.63522-0.17179 0.22572 2e-3 0.45544 0.19176 0.71113 0.18777 0.25369-0.011985 0.53534-0.21174 0.79502-0.21973 0.25169-0.00799 0.47741 0.17379 0.7311 0.17978 0.25768 2e-3 0.51936-0.16979 0.79503-0.1618 0.27167 4e-3 0.54933 0.18977 0.819 0.18777 0.27366-0.00599 0.53135-0.20375 0.817-0.20575 0.28565 0 0.59927 0.18977 0.87892 0.19576 0.27566 0 0.55931-0.18178 0.75907-0.18777 0.19776-0.00799 0.30563 0.11985 0.41949 0.14582 0.11786 0.025968 0.20575 0.027966 0.27566 0.00799v-0.52935c-0.067917 0.017978-0.15781 0.01598-0.27566-0.0079903-0.11786-0.025968-0.22772-0.15381-0.41949-0.14582-0.19976 0.0079903-0.4874 0.18777-0.75907 0.18777-0.27966-0.0059926-0.59327-0.19576-0.87892-0.19576-0.28365 0.0019969-0.53934 0.19976-0.817 0.20575-0.27766 0.0019976-0.55532-0.18377-0.819-0.18777-0.27566-0.0079901-0.53734 0.1638-0.79503 0.1618-0.2457-0.0039951-0.46543-0.17578-0.70713-0.17978-0.32789-0.007217-0.5457 0.20189-0.819 0.21973z" fill="#004900" opacity=".8" stroke="#00d400" stroke-linejoin="round" stroke-width="1.0185"/>
 <path d="m5.9931 2.1447c-0.31961 0.13184-0.25968 0.14582-0.30563 0.2457-0.041949 0.095882-0.00999 0.14183 0.061924 0.34358 0.071912 0.20375 0.19176 0.4874 0.36555 0.85895l-2.1973 1.1786c0.19976-0.095883 0.41349-0.13384 0.63922-0.11186 0.22373 0.021973 0.43746 0.23771 0.69914 0.23971 0.26767-0.00599 0.59926-0.25569 0.8929-0.25569 0.29364 2e-3 0.60726 0.22572 0.83897 0.2477 0.23172 0.017978 0.39951-0.025968 0.53335-0.13783l-0.9808-2.2153c0.27766-0.10387 0.51936-0.19776 0.73909-0.27966 0.21574-0.087892 0.49939-0.11586 0.55732-0.22772 0.049939-0.10987 0.061924-0.43147-0.21673-0.43447-0.56136 0.10532-1.1004 0.32942-1.627 0.54833zm1.2644 1.3463c0 0.35357 0.27366 0.63922 0.61125 0.63922 0.33759 0 0.61125-0.28565 0.61125-0.63922 0-0.35357-0.27366-0.63922-0.61125-0.63922-0.33759 0-0.61125 0.28565-0.61125 0.63922zm-6.3023 0.25968c-0.23571 0.013983-0.31961 0.29963-0.20375 0.43946 0.11586 0.13983 0.60925 0.27966 0.8989 0.38752 0.28765 0.099878 0.55132 0.17379 0.81101 0.21973 0.20375-0.095882 0.38952-0.14382 0.5673-0.13983 0.17778 0.0039953 0.35157 0.13184 0.4894 0.15381 0.13583 0.019976 0.23971 0.0059926 0.3236-0.037954-0.6552-0.26967-1.1985-0.47941-1.6979-0.6552-0.3893-0.12933-0.84709-0.37425-1.1885-0.36755zm1.2205 1.3583c-0.25569 0.003995-0.4854-0.18577-0.71113-0.18777-0.22772-0.0039951-0.47941 0.13983-0.63522 0.17179-0.15381 0.027966-0.24969 0.031961-0.28565 0.0079901v0.52935c0.035956 0.021973 0.13384 0.019976 0.28565-0.00799 0.15381-0.031961 0.4075-0.17578 0.63522-0.17179 0.22572 2e-3 0.45544 0.19176 0.71113 0.18777 0.25369-0.00999 0.53534-0.21574 0.79503-0.21973 0.25169-0.00999 0.47741 0.17578 0.7311 0.17978 0.25768 2e-3 0.51936-0.16779 0.79502-0.1638 0.27167 4e-3 0.54933 0.18977 0.819 0.18777 0.27366-0.00599 0.53135-0.20375 0.817-0.20575 0.28565-2e-3 0.59927 0.19176 0.87892 0.19776 0.27566 0 0.55931-0.18178 0.75907-0.18777 0.19776-0.00799 0.30563 0.11985 0.41949 0.14582 0.11786 0.025968 0.20575 0.027965 0.27566 0.00799v-0.52935c-0.067917 0.021973-0.15781 0.017978-0.27566-0.0079904-0.11786-0.027966-0.22772-0.15381-0.41949-0.14582-0.19976 0.0079901-0.4874 0.18777-0.75907 0.18777-0.27966-0.0059926-0.59327-0.19576-0.87892-0.19576-0.28365 0.0019993-0.53934 0.19976-0.817 0.20575-0.27766 0.0019976-0.55532-0.18377-0.819-0.18777-0.27566-0.0079901-0.53734 0.1638-0.79502 0.1618-0.2457-0.0039951-0.46543-0.17578-0.70713-0.17978-0.32789-0.0072168-0.5457 0.20189-0.819 0.21973zm0 0.87892c-0.25569 0.003995-0.4854-0.18577-0.71113-0.18777-0.22772-0.0039951-0.47941 0.13983-0.63522 0.17179-0.15381 0.031961-0.24969 0.029963-0.28565 0.0079899v0.52935c0.035956 0.021973 0.13384 0.021973 0.28565-0.00799 0.15381-0.031961 0.4075-0.17578 0.63522-0.17179 0.22572 2e-3 0.45544 0.19176 0.71113 0.18777 0.25369-0.011985 0.53534-0.21174 0.79503-0.21973 0.25169-0.00799 0.47741 0.17379 0.7311 0.17978 0.25768 2e-3 0.51936-0.16979 0.79502-0.1618 0.27167 4e-3 0.54933 0.18977 0.819 0.18777 0.27366-0.00599 0.53135-0.20375 0.817-0.20575 0.28565 0 0.59927 0.18977 0.87892 0.19576 0.27566 0 0.55931-0.18178 0.75907-0.18777 0.19776-0.00799 0.30563 0.11985 0.41949 0.14582 0.11786 0.025968 0.20575 0.027966 0.27566 0.00799v-0.52935c-0.067917 0.017978-0.15781 0.01598-0.27566-0.0079901-0.11786-0.025968-0.22772-0.15381-0.41949-0.14582-0.19976 0.0079901-0.4874 0.18777-0.75907 0.18777-0.27966-0.0059926-0.59327-0.19576-0.87892-0.19576-0.28365 0.0019969-0.53934 0.19975-0.817 0.20575-0.27766 0.0019975-0.55532-0.18377-0.819-0.18777-0.27566-0.0079901-0.53734 0.1638-0.79502 0.1618-0.2457-0.003995-0.46543-0.17578-0.70713-0.17978-0.32789-0.007217-0.5457 0.20189-0.819 0.21973zm-0.027966 0.87093c-0.25569 0.0039951-0.4854-0.18577-0.71113-0.18777-0.22772-0.003995-0.47941 0.13983-0.63522 0.17179-0.15381 0.031961-0.24969 0.029963-0.28565 0.0079899v0.52935c0.035956 0.021973 0.13384 0.021973 0.28565-0.00799 0.15381-0.031961 0.4075-0.17578 0.63522-0.17179 0.22572 2e-3 0.45544 0.19176 0.71113 0.18777 0.25369-0.011985 0.53534-0.21174 0.79502-0.21973 0.25169-0.00799 0.47741 0.17379 0.7311 0.17978 0.25768 2e-3 0.51936-0.16979 0.79503-0.1618 0.27167 4e-3 0.54933 0.18977 0.819 0.18777 0.27366-0.00599 0.53135-0.20375 0.817-0.20575 0.28565 0 0.59927 0.18977 0.87892 0.19576 0.27566 0 0.55931-0.18178 0.75907-0.18777 0.19776-0.00799 0.30563 0.11985 0.41949 0.14582 0.11786 0.025968 0.20575 0.027966 0.27566 0.00799v-0.52935c-0.067917 0.017978-0.15781 0.01598-0.27566-0.0079903-0.11786-0.025968-0.22772-0.15381-0.41949-0.14582-0.19976 0.0079903-0.4874 0.18777-0.75907 0.18777-0.27966-0.0059926-0.59327-0.19576-0.87892-0.19576-0.28365 0.0019969-0.53934 0.19976-0.817 0.20575-0.27766 0.0019976-0.55532-0.18377-0.819-0.18777-0.27566-0.0079901-0.53734 0.1638-0.79503 0.1618-0.2457-0.0039951-0.46543-0.17578-0.70713-0.17978-0.32789-0.007217-0.5457 0.20189-0.819 0.21973z" fill="#004900" stroke-width=".020529"/>
</svg>
