<svg width="34" height="34" version="1.1" viewBox="0 0 8.9958 8.9958" xmlns="http://www.w3.org/2000/svg">
 <g transform="translate(0 -288)">
  <circle cx="4.485" cy="292.5" r="4.2062" fill="#12ef12" stroke="#00dc00" stroke-width=".52533"/>
  <g transform="matrix(.25942 0 0 .25942 .23329 288.66)" fill="#fc0" stroke="#00d400" stroke-linejoin="round" stroke-width="2.0398">
   <path d="m22.04 11.233c2.239 0 4.061-1.793 4.061-4.013s-1.822-4.02-4.061-4.02c-2.248 0-4.074 1.8-4.074 4.02 0 2.221 1.827 4.013 4.074 4.013zm9.32 9.796v-5.082l-5.482-3.083c-.929-.466-1.961-.624-2.993-.406-.422.086-.82.248-1.267.493-.049.013-1.676.723-2.622 2.906l-3.775 7.509s-3.719.712-5.276 1.009c-.123.081-.255.147-.381.225l-.963-3.444c-.399-1.4 1.089-3.43 1.144-3.513.984-1.424 1.254-3.3.737-5.158-.471-1.68-1.544-3.096-2.94-3.893-1.093-.614-2.321-.783-3.436-.479-.866.235-1.638.739-2.234 1.462-.008.007-.461.672-.461.672-.803 1.397-.988 3.148-.523 4.837.471 1.696 1.532 3.107 2.935 3.893l.336.176c.045.003 2.357.935 2.758 2.272-.005.007.607 2.193 1.106 3.975-.128.055-.251.122-.38.173.019.013.053.035.074.049-.113.172-.31.554-.296.944 0 .124.01.248.034.369.213 1.104 1.307 1.841 2.424 1.617l7.133-1.372s.607-.182.867-.365c.335-.235.587-.728.587-.728l1.875-3.727s1.292 6.022 1.317 6.134c-.022.017-.127.131-.298.307h9.73c-.147-.855-.244-1.404-.244-1.41 0-.014-.307-1.351-.307-1.351.01.01-.835-3.752-1.48-6.696 1.029.589 1.962 1.112 2.013 1.14.008.017.118.227.287.545zm-24.52-3.089c-.723.192-1.494.076-2.234-.332-1.03-.576-1.827-1.648-2.168-2.941-.364-1.289-.231-2.609.356-3.627l.328-.472c.387-.469.855-.783 1.417-.938 1.795-.482 3.771.986 4.41 3.279.629 2.283-.313 4.548-2.108 5.032z" fill="#fc0" stroke="#00d400" stroke-linejoin="round" stroke-width="2.0398"/>
  </g>
  <g transform="matrix(.25942 0 0 .25942 .23329 288.66)" fill="#004900">
   <path d="m22.04 11.233c2.239 0 4.061-1.793 4.061-4.013s-1.822-4.02-4.061-4.02c-2.248 0-4.074 1.8-4.074 4.02 0 2.221 1.827 4.013 4.074 4.013zm9.32 9.796v-5.082l-5.482-3.083c-.929-.466-1.961-.624-2.993-.406-.422.086-.82.248-1.267.493-.049.013-1.676.723-2.622 2.906l-3.775 7.509s-3.719.712-5.276 1.009c-.123.081-.255.147-.381.225l-.963-3.444c-.399-1.4 1.089-3.43 1.144-3.513.984-1.424 1.254-3.3.737-5.158-.471-1.68-1.544-3.096-2.94-3.893-1.093-.614-2.321-.783-3.436-.479-.866.235-1.638.739-2.234 1.462-.008.007-.461.672-.461.672-.803 1.397-.988 3.148-.523 4.837.471 1.696 1.532 3.107 2.935 3.893l.336.176c.045.003 2.357.935 2.758 2.272-.005.007.607 2.193 1.106 3.975-.128.055-.251.122-.38.173.019.013.053.035.074.049-.113.172-.31.554-.296.944 0 .124.01.248.034.369.213 1.104 1.307 1.841 2.424 1.617l7.133-1.372s.607-.182.867-.365c.335-.235.587-.728.587-.728l1.875-3.727s1.292 6.022 1.317 6.134c-.022.017-.127.131-.298.307h9.73c-.147-.855-.244-1.404-.244-1.41 0-.014-.307-1.351-.307-1.351.01.01-.835-3.752-1.48-6.696 1.029.589 1.962 1.112 2.013 1.14.008.017.118.227.287.545zm-24.52-3.089c-.723.192-1.494.076-2.234-.332-1.03-.576-1.827-1.648-2.168-2.941-.364-1.289-.231-2.609.356-3.627l.328-.472c.387-.469.855-.783 1.417-.938 1.795-.482 3.771.986 4.41 3.279.629 2.283-.313 4.548-2.108 5.032z" fill="#004900"/>
  </g>
 </g>
</svg>
