<svg width="26" height="26" version="1.1" viewBox="0 0 6.88 6.88" xmlns="http://www.w3.org/2000/svg">
 <g transform="translate(-.592 -290)">
  <rect x=".856" y="290" width="6.35" height="6.35" rx="1.27" fill="#00b100" stroke="#ffffff" stroke-width=".529"/>
  <rect x=".856" y="290" width="6.35" height="6.35" rx="1.27" fill="#009500"/>
  <path d="m4.9 291c-.292 0-.387.0952-.583.292l-2.33 2.33c-.146.146-.292.292-.292.583v.438c0 .292.146.438.292.583l.164.164 1.02-1.02-.164-.164c-.146-.146 0-.292 0-.292l1.6-1.6s.146-.146.292 0l.164.164 1.02-1.02s-.109-.109-.164-.164c-.146-.146-.292-.292-.583-.292h-.438zm1.29.565-1.02 1.02.164.164c.103.103.334.103.438 0l.583-.583c.103-.103.103-.334 0-.438zm-2.92 2.92-1.02 1.02.164.164c.103.103.334.103.438 0l.583-.583c.103-.103.103-.334 0-.438z" color="#000000" fill="#ffffff"/>
 </g>
</svg>
