<svg width="26" height="26" version="1.1" viewBox="0 0 6.8792 6.8792" xmlns="http://www.w3.org/2000/svg">
 <g>
  <rect x=".26458" y=".26458" width="6.35" height="6.35" rx="1.2687" fill="#00b100" stroke="#ffffff" stroke-width=".52917"/>
  <rect x=".26458" y=".26458" width="6.35" height="6.35" rx="1.2687" fill="#009500"/>
  <path d="m4.3109 1.0992c-0.2917 0-0.38687 0.0952-0.58341 0.29171l-2.3337 2.3336c-0.14584 0.14586-0.2917 0.29171-0.2917 0.58341v0.43756c0 0.29171 0.14586 0.43756 0.2917 0.58341l0.16409 0.16409 1.021-1.021-0.16407-0.16409c-0.14586-0.14585 0-0.2917 0-0.2917l1.6044-1.6044s0.14589-0.14585 0.2917 0l0.16409 0.16409 1.021-1.021s-0.10941-0.10939-0.16409-0.16408c-0.14584-0.14586-0.2917-0.29171-0.58338-0.29171h-0.43759zm1.2944 0.56518-1.0209 1.021 0.16409 0.16408c0.10308 0.10312 0.33441 0.10315 0.43754 0l0.58338-0.58341c0.10316-0.10318 0.10316-0.33444 0-0.43756zm-2.917 2.917-1.021 1.021 0.16409 0.16409c0.10313 0.10317 0.33441 0.10309 0.43757 0l0.58341-0.58341c0.10319-0.10315 0.10311-0.33447 0-0.43756z" color="#000000" fill="#ffffff"/>
 </g>
</svg>
