<svg width="38" height="38" version="1.1" viewBox="0 0 10.054 10.054" xmlns="http://www.w3.org/2000/svg">
 <g>
  <g>
   <circle cx="4.9736" cy="4.9736" r="4.6782" fill="#05f505" stroke="#ffffff" stroke-width=".58475"/>
   <path d="m1.7159 1.0644c-0.20473 0-0.43434 0.21718-0.43434 0.43436v3.0405c0 0.96253 0.43434 2.1718 2.1718 2.1718 0.15579 0 0.29805-0.0074 0.43437-0.02693v-1.3929h-1.7374s0.21717-0.86871 1.3031-0.86871c0.21717 0 0.30255 0.032144 0.43437 0.081444v-0.83323c0-0.39817 0.15867-0.73085 0.43434-0.86871 0.43437-0.21718 0.60973-0.12948 0.86873 0l0.43434 0.21718v-1.5203c0-0.21718-0.22961-0.43436-0.43434-0.43436-0.43437 0-0.86873 0.43436-1.7374 0.43436-0.86871 0-1.3031-0.43436-1.7374-0.43436zm0.76012 1.5202c0.29988 0 0.54295 0.24307 0.54295 0.54295 0 0.29988-0.24307 0.54295-0.54295 0.54295-0.29985 0-0.54293-0.24307-0.54293-0.54295 0-0.29988 0.24307-0.54295 0.54293-0.54295zm2.2804 0.65154c-0.20476 0-0.43437 0.21718-0.43437 0.43436v3.0405c0 0.96254 0.43437 2.1718 2.1718 2.1718 1.7374 0 2.1718-1.2092 2.1718-2.1718v-3.0405c0-0.21718-0.2296-0.43436-0.43437-0.43436-0.43434 0-0.86871 0.43436-1.7374 0.43436-0.86873 0-1.3031-0.43436-1.7374-0.43436zm0.76012 1.5202c0.29988 0 0.54295 0.24307 0.54295 0.54295 0 0.29988-0.24307 0.54295-0.54295 0.54295-0.29985 0-0.54295-0.24306-0.54295-0.54295 0-0.29988 0.2431-0.54295 0.54295-0.54295zm1.9546 0c0.29985 0 0.54295 0.24307 0.54295 0.54295 0 0.29988-0.2431 0.54295-0.54295 0.54295s-0.54295-0.24306-0.54295-0.54295c0-0.29988 0.2431-0.54295 0.54295-0.54295zm-2.2804 2.389h2.6061s-0.2172 0.86871-1.3031 0.86871c-1.0859 0-1.3031-0.86871-1.3031-0.86871z" color="#000000" fill="#ffcc00" stroke="#00d400" stroke-width=".52917"/>
   <ellipse cx="5.0149" cy="5.0232" rx="4.7199" ry="4.7282" fill="#12ef12" stroke="#00dc00" stroke-width=".59"/>
  </g>
  <path d="m1.7157 1.0643c-0.20474 0-0.43408 0.21742-0.43408 0.4346v3.0401c0 0.96253 0.434 2.172 2.1714 2.172 0.15579 0 0.29828-0.0073 0.4346-0.02687v-1.3927h-1.7374s0.21686-0.8692 1.3028-0.8692c0.21717 0 0.30278 0.032349 0.4346 0.081649v-0.83303c0-0.39817 0.15841-0.73081 0.43408-0.86868 0.43437-0.21718 0.60968-0.12948 0.86868 0l0.4346 0.21704v-1.5203c0-0.21718-0.22986-0.4346-0.4346-0.4346-0.43437 0-0.86865 0.4346-1.7374 0.4346-0.86871 0-1.303-0.4346-1.7374-0.4346zm0.76016 1.5203c0.29988 0 0.54312 0.24324 0.54312 0.54312 0 0.29988-0.24324 0.5426-0.54312 0.5426-0.29985 0-0.54312-0.24272-0.54312-0.5426 0-0.29988 0.24327-0.54312 0.54312-0.54312zm2.2805 0.65164c-0.20476 0-0.4346 0.2169-0.4346 0.43408v3.0406c0 0.96254 0.43452 2.172 2.172 2.172 1.7374 0 2.172-1.2094 2.172-2.172v-3.0406c0-0.21718-0.22984-0.43408-0.4346-0.43408-0.43434 0-0.86866 0.43408-1.7374 0.43408-0.86873 0-1.303-0.43408-1.7374-0.43408zm0.76016 1.5203c0.29988 0 0.5426 0.24272 0.5426 0.5426 0 0.29988-0.24272 0.54312-0.5426 0.54312-0.29985 0-0.54312-0.24324-0.54312-0.54312 0-0.29988 0.24327-0.5426 0.54312-0.5426zm1.9544 0c0.29985 0 0.54312 0.24272 0.54312 0.5426 0 0.29988-0.24327 0.54312-0.54312 0.54312s-0.5426-0.24324-0.5426-0.54312c0-0.29988 0.24275-0.5426 0.5426-0.5426zm-2.2805 2.389h2.6066s-0.2174 0.86868-1.3033 0.86868c-1.0859 0-1.3033-0.86868-1.3033-0.86868z" color="#000000" fill="#004900"/>
 </g>
</svg>
