<svg height="32" viewBox="0 0 32 32" width="32" xmlns="http://www.w3.org/2000/svg">
	<rect fill="#6a3600" height="30" rx="5" stroke="#fff" stroke-width="2" width="30" x="1" y="1.182997"/>
	<rect fill="#743a00" height="30" rx="5" width="30" x="1" y="1.182997"/>
	<g fill="#fff">
		<path d="m10.266077 5.211627c-1.638837 0-2.96737 1.32855-2.96737 2.96738 0 1.63884 1.328545 2.96738 2.96737 2.96738 1.638849 0 2.967394-1.32854 2.967394-2.96738 0-1.63883-1.328533-2.96738-2.967394-2.96738z"/>
		<path d="m22.280532 5.211627c-1.63885 0-2.967393 1.32855-2.967393 2.96738 0 1.63884 1.328543 2.96738 2.967393 2.96738 1.638824 0 2.96737-1.32854 2.96737-2.96738 0-1.63883-1.328546-2.96738-2.96737-2.96738z"/>
		<path d="m9.623777 12.255227c-1.284612 0-2.348239 1.14608-2.348239 2.29218v2.58322l-2.147895 4.48507c0 .57304.642327.57304 1.284625.57304h1.926897v4.96563h3.853848v-4.96563h1.926897c.642326 0 1.284625 0 1.284625-.57304l-2.125785-4.48507v-2.58322c0-1.1461-1.085737-2.29218-2.370349-2.29218z"/>
		<path d="m19.000639 12.161477c-.655971 0-1.311956.57664-1.311956 1.15329l2.623912 6.9198v2.3066 4.6132h3.935865v-4.6132-2.3066l2.623897-6.9198c0-.57665-.65597-1.15329-1.311955-1.15329z"/>
	</g>
	<path d="m24.306443 19.733452c-2.727785 0-4.93931 2.211525-4.93931 4.939309 0 2.727785 2.211525 4.93931 4.93931 4.93931 2.727784 0 4.939309-2.211525 4.939309-4.93931 0-2.727784-2.211525-4.939309-4.939309-4.939309zm-.207087.896171h.08265.138558.0559c.45207 0 .452017.01952.454448.508047.0024.359713.0024.359674.35967.415575.274645.04375.534796.123937.787568.23574.138538.06076.191926.158011.148177.306271-.06319.218744-.123904.43991-.191958.656223-.04375.131246-.08503.191958-.162804.191958-.04375 0-.09726-.01697-.165308-.051-.349991-.170134-.717036-.252771-1.101053-.252771-.04861 0-.09967.0024-.148276.0048-.114234.0073-.225979.02195-.332921.06813-.379156.165273-.439972.583335-.116718.840968.162843.131246.350002.22356.542011.303766.335408.138538.67085.272238.989244.447234 1.00137.559024 1.273589 1.830182.561456 2.695436-.257632.313533-.593026.524937-.984335.631878-.170134.04618-.247966.136159-.238244.313585.0073.174995.000022.347479-.0024.522474 0 .155551-.08021.238192-.233335.243054-.09965.0024-.199308.0049-.298958.0049-.0875 0-.174991.000027-.262489-.0024-.165273-.0024-.243053-.09727-.243053-.257681-.0024-.126385-.0024-.255226-.0024-.381611-.0024-.281937-.01214-.291676-.281926-.335425-.345129-.0559-.685403-.133614-1.001367-.286735-.24791-.121525-.274665-.182336-.204181-.444829.05347-.194439.106951-.388875.167713-.580884.04375-.140968.08505-.20408.160399-.20408.04375 0 .09968.02182.175027.06071.34999.182287.721867.284411 1.113175.333021.06562.0073.131244.01212.196867.01212.182287 0 .359728-.03406.532292-.109403.435058-.189579.503057-.692674.136054-.994054-.123956-.102081-.267315-.17743-.415575-.243053-.381587-.167704-.777808-.294038-1.137521-.510352-.583317-.34999-.952743-.828866-.908994-1.538568.04861-.802061.503172-1.302674 1.239611-1.570028.30381-.109372.30617-.107025.30617-.422988 0-.106942-.0024-.213831.0025-.323203.0073-.238188.04614-.279543.28433-.286835z" fill="none" stroke="#000" stroke-width="1.943"/>
	<path d="m24.306443 19.733452c-2.727785 0-4.93931 2.211525-4.93931 4.939309 0 2.727785 2.211525 4.93931 4.93931 4.93931 2.727784 0 4.939309-2.211525 4.939309-4.93931 0-2.727784-2.211525-4.939309-4.939309-4.939309zm-.207087.896171h.08265.138558.0559c.45207 0 .452017.01952.454448.508047.0024.359713.0024.359674.35967.415575.274645.04375.534796.123937.787568.23574.138538.06076.191926.158011.148177.306271-.06319.218744-.123904.43991-.191958.656223-.04375.131246-.08503.191958-.162804.191958-.04375 0-.09726-.01697-.165308-.051-.349991-.170134-.717036-.252771-1.101053-.252771-.04861 0-.09967.0024-.148276.0048-.114234.0073-.225979.02195-.332921.06813-.379156.165273-.439972.583335-.116718.840968.162843.131246.350002.22356.542011.303766.335408.138538.67085.272238.989244.447234 1.00137.559024 1.273589 1.830182.561456 2.695436-.257632.313533-.593026.524937-.984335.631878-.170134.04618-.247966.136159-.238244.313585.0073.174995.000022.347479-.0024.522474 0 .155551-.08021.238192-.233335.243054-.09965.0024-.199308.0049-.298958.0049-.0875 0-.174991.000027-.262489-.0024-.165273-.0024-.243053-.09727-.243053-.257681-.0024-.126385-.0024-.255226-.0024-.381611-.0024-.281937-.01214-.291676-.281926-.335425-.345129-.0559-.685403-.133614-1.001367-.286735-.24791-.121525-.274665-.182336-.204181-.444829.05347-.194439.106951-.388875.167713-.580884.04375-.140968.08505-.20408.160399-.20408.04375 0 .09968.02182.175027.06071.34999.182287.721867.284411 1.113175.333021.06562.0073.131244.01212.196867.01212.182287 0 .359728-.03406.532292-.109403.435058-.189579.503057-.692674.136054-.994054-.123956-.102081-.267315-.17743-.415575-.243053-.381587-.167704-.777808-.294038-1.137521-.510352-.583317-.34999-.952743-.828866-.908994-1.538568.04861-.802061.503172-1.302674 1.239611-1.570028.30381-.109372.30617-.107025.30617-.422988 0-.106942-.0024-.213831.0025-.323203.0073-.238188.04614-.279543.28433-.286835z" fill="#ff0" stroke-width=".051081"/>
</svg>
