<svg width="32" height="32" version="1.1" viewBox="0 0 32 32" xmlns="http://www.w3.org/2000/svg">
 <rect x="1" y="1.183" width="30" height="30" rx="5" fill="#6a3600" stroke="#fff" stroke-width="2"/>
 <rect x="1" y="1.183" width="30" height="30" rx="5" fill="#743a00"/>
 <g fill="#fff">
  <path d="m10.266 5.2116c-1.6388 0-2.9674 1.3286-2.9674 2.9674 0 1.6388 1.3285 2.9674 2.9674 2.9674 1.6388 0 2.9674-1.3285 2.9674-2.9674 0-1.6388-1.3285-2.9674-2.9674-2.9674z" color="#000000"/>
  <path d="m22.281 5.2116c-1.6388 0-2.9674 1.3286-2.9674 2.9674 0 1.6388 1.3285 2.9674 2.9674 2.9674 1.6388 0 2.9674-1.3285 2.9674-2.9674 0-1.6388-1.3285-2.9674-2.9674-2.9674z" color="#000000"/>
  <path d="m9.6238 12.255c-1.2846 0-2.3482 1.1461-2.3482 2.2922v2.5832l-2.1479 4.4851c0 0.57304 0.64233 0.57304 1.2846 0.57304h1.9269v4.9656h3.8538v-4.9656h1.9269c0.64233 0 1.2846 0 1.2846-0.57304l-2.1258-4.4851v-2.5832c0-1.1461-1.0857-2.2922-2.3703-2.2922z" color="#000000"/>
  <path d="m19.001 12.161c-0.65597 0-1.312 0.57664-1.312 1.1533l2.6239 6.9198v2.3066 4.6132h3.9359v-4.6132-2.3066l2.6239-6.9198c0-0.57665-0.65597-1.1533-1.312-1.1533z" color="#000000"/>
 </g>
</svg>
