<svg id="SVGRoot" width="32" height="45" version="1.1" viewBox="0 0 32 45" xmlns="http://www.w3.org/2000/svg">
 <path d="m6.2456 2.1392a0.58143 0.52134 0 0 0-0.3441 0.13763c-5.3513 4.2771-5.8367 11.648-1.0667 16.447 0.6988 0.70276 1.5079 1.3259 2.3742 1.858a0.58143 0.52134 0 1 0 0.6537-0.86018c-0.7888-0.48443-1.5315-1.0461-2.1676-1.6859-4.352-4.3776-3.9189-11.065 0.9634-14.967a0.58143 0.52134 0 0 0-0.4129-0.92899zm19.337 0a0.58143 0.52134 0 0 0-0.2409 0.89458c4.8822 3.9022 5.3155 10.624 0.9634 15.001-0.6362 0.63987-1.3444 1.2015-2.1332 1.6859a0.58143 0.52134 0 1 0 0.6537 0.86018c0.8663-0.53205 1.641-1.1552 2.3397-1.858 4.7702-4.7982 4.2847-12.169-1.0666-16.447a0.58143 0.52134 0 0 0-0.3441-0.13763 0.58143 0.52134 0 0 0-0.172 0zm-3.1998 2.7526a0.58143 0.52134 0 0 0-0.3442 0.9634c3.1803 2.2556 3.6856 6.3695 1.1699 9.2211-0.5447 0.61765-1.2092 1.1414-1.9612 1.5483a0.58715 0.52646 0 1 0 0.6193 0.89458c0.8713-0.47149 1.6396-1.0735 2.2709-1.7892 2.9054-3.2935 2.2968-8.0954-1.3763-10.701a0.58143 0.52134 0 0 0-0.3784-0.13763zm-12.868 0.0344a0.58143 0.52134 0 0 0-0.2408 0.10328c-3.6731 2.6051-4.316 7.4071-1.4107 10.701 0.6313 0.71562 1.3996 1.3177 2.2709 1.7892a0.58712 0.52643 0 1 0 0.6192-0.89458c-0.7519-0.40695-1.4163-0.93066-1.9611-1.5483-2.5156-2.8516-1.976-6.9655 1.2043-9.2211a0.58143 0.52134 0 0 0-0.3442-0.92899 0.58143 0.52134 0 0 0-0.1376 0zm2.4429 2.787a0.60432 0.50159 0 0 0-0.2752 0.10316c-1.9829 1.3018-2.3254 3.7217-0.757 5.3675 0.3413 0.35809 0.7677 0.65866 1.2387 0.89458a0.60432 0.50159 0 1 0 0.6193-0.86017c-0.3469-0.17382-0.6432-0.38992-0.8946-0.65373-1.1632-1.2206-0.92-2.9913 0.5505-3.9568a0.60432 0.50159 0 0 0-0.3784-0.89458 0.60432 0.50159 0 0 0-0.1035 0zm7.8105 0a0.60432 0.50159 0 0 0-0.2066 0.89458c1.4706 0.96548 1.7482 2.7018 0.585 3.9224-0.2514 0.26381-0.582 0.51432-0.929 0.68814a0.60432 0.50159 0 1 0 0.6193 0.82576c0.471-0.23593 0.8974-0.53649 1.2386-0.89458 1.5685-1.6458 1.2259-4.0313-0.7568-5.3331a0.60432 0.50159 0 0 0-0.3786-0.10317 0.60432 0.50159 0 0 0-0.1719 0zm-3.8881 1.4451c-1.1156-0.0131-2.0143 0.72557-2.0299 1.6515-0.011 0.56388 0.3161 1.0658 0.8257 1.3763v0.0688 0.34407c-0.042 1.122-0.3795 5.4558-1.6171 10.769-1.3205 5.6689-3.6649 12.427-7.6039 17.685a1.1182 1.1182 0 1 0 1.7891 1.3419c1.1706-1.5628 2.1903-3.235 3.0966-4.9546 0-4e-3 0.032 4e-3 0.034 0a0.55057 0.55057 0 0 0 0.1035-0.10316l5.3331-4.9202 5.2987 4.9202a0.55057 0.55057 0 0 0 0.2064 0.17198c0.8938 1.6853 1.8791 3.3181 3.0278 4.8514a1.1045 1.1045 0 1 0 1.7548-1.3419c-3.9393-5.2582-6.2835-12.016-7.604-17.685-1.2285-5.2743-1.5409-9.5724-1.5827-10.735v-0.30966-0.0344c0.5556-0.29075 0.9476-0.7918 0.9634-1.3763a0.10412 0.086416 0 0 0 0-0.0344c-0.011-0.91252-0.8942-1.673-1.9956-1.6859zm0 0.17203c0.9953 0.0117 1.7924 0.68769 1.7892 1.5139-0.011 0.48994-0.3173 0.8996-0.757 1.1698a1.1011 1.1011 0 0 0-0.068-0.17203 1.1011 1.1011 0 0 0 0-0.0688 1.1011 1.1011 0 0 0-0.034-0.0344 1.1011 1.1011 0 0 0 0-0.0688 1.1011 1.1011 0 0 0-0.034-0.0344 1.1011 1.1011 0 0 0-0.068-0.10317 1.1011 1.1011 0 0 0-0.034-0.0688 1.1011 1.1011 0 0 0-0.068-0.0344 1.1011 1.1011 0 0 0 0-0.0344 1.1011 1.1011 0 0 0-0.069-0.0688 1.1011 1.1011 0 0 0-0.034-0.0344 1.1011 1.1011 0 0 0-0.1376-0.0688 1.1011 1.1011 0 0 0-0.1376-0.10316 1.1011 1.1011 0 0 0-0.5849-0.0688 1.1011 1.1011 0 0 0-0.929 0.92898c-0.4054-0.28138-0.6618-0.69718-0.6538-1.1698 0.014-0.83256 0.8205-1.4913 1.8236-1.4795zm-0.068 11.87c0.1657 0.84793 0.3361 1.729 0.5505 2.6493 0.1024 0.43803 0.2301 0.89176 0.344 1.3419l-0.8945 0.82577-0.8946-0.82577c0.1105-0.43787 0.2103-0.88106 0.3097-1.3075 0.2171-0.93253 0.4176-1.8257 0.5849-2.6837zm-1.2043 5.1954 0.3785 0.37848-0.6538 0.61932c0.096-0.33046 0.1866-0.67159 0.2753-0.9978zm2.4086 0c0.089 0.32635 0.1796 0.66724 0.2752 0.9978l-0.6538-0.61932zm-1.2043 1.1354 1.8579 1.6859a0.55057 0.55057 0 0 0-0.1035 0.0688l-1.7891 1.6515-1.7892-1.6515a0.55057 0.55057 0 0 0-0.035-0.0343l1.858-1.7203zm2.374 2.6493c0.5322 1.5636 1.121 3.1175 1.8236 4.6793l-3.4407-3.1654zm-4.7481 0.0344 1.5483 1.4451-3.3719 3.131c0.6846-1.5309 1.3022-3.0444 1.8236-4.5761z" color="#000000" fill="#ffffff" stroke="#ffffff" stroke-width="2.202" style="text-decoration-line:none;text-indent:0;text-transform:none"/>
 <g transform="translate(-1602.3 -117.1)">
  <path transform="matrix(.16657 0 0 .13825 1560.2 74.206)" d="m358.45 388.88a11.517 11.517 0 0 1-11.647 11.353 11.517 11.517 0 0 1-11.384-11.616 11.517 11.517 0 0 1 11.585-11.416 11.517 11.517 0 0 1 11.447 11.554" fill="#000000"/>
  <g fill="none" stroke="#000000" stroke-linecap="round">
   <path d="m1618 129.32v0.0722c0 1.9091-1.2815 18.537-9.4487 29.439" stroke-width="2.202"/>
   <path d="m1617.9 129.28v0.0722c0 1.9091 1.2814 18.537 9.4487 29.439" stroke-width="2.202"/>
   <path transform="matrix(.032907 0 0 .029505 1606.2 108.41)" d="m659.81 385.01a377.17 377.17 0 0 1 125.43 305.56 377.17 377.17 0 0 1-163.25 287.14" stroke-width="35.335"/>
   <path transform="matrix(.032907 0 0 .029505 1606.1 108.44)" d="m559.42 478.01a240.41 240.41 0 0 1 90.785 203.71 240.41 240.41 0 0 1-115.7 190.66" display="block" stroke-width="35.335"/>
   <path transform="matrix(.032966 0 0 .027362 1606.1 109.67)" d="m485.3 571.72a120.92 120.92 0 0 1 45.665 102.46 120.92 120.92 0 0 1-58.195 95.903" display="block" stroke-width="36.66"/>
   <path transform="matrix(-.032907 0 0 .029505 1630.1 108.43)" d="m659.81 385.01a377.17 377.17 0 0 1 125.43 305.56 377.17 377.17 0 0 1-163.25 287.14" stroke-width="35.335"/>
   <g>
    <path transform="matrix(-.032907 0 0 .029505 1630.2 108.46)" d="m559.42 478.01a240.41 240.41 0 0 1 90.785 203.71 240.41 240.41 0 0 1-115.7 190.66" display="block" stroke-width="35.335"/>
    <path transform="matrix(-.032966 0 0 .027362 1630.2 109.69)" d="m485.3 571.72a120.92 120.92 0 0 1 45.665 102.46 120.92 120.92 0 0 1-58.195 95.903" display="block" stroke-width="36.66"/>
    <g stroke-width="1.101">
     <path d="m1619.8 142.17-5.0115 4.639"/>
     <path d="m1616.1 142.17 5.0117 4.639"/>
     <path d="m1615.8 146.79 7.8445 7.2617"/>
     <path d="m1620.1 146.79-7.8446 7.2617"/>
    </g>
   </g>
  </g>
 </g>
</svg>
