<svg width="24" height="38" version="1.1" viewBox="0 0 24 38" xmlns="http://www.w3.org/2000/svg">
 <path d="m11.876 1.1019-0.1875 0.09375-8.0313 3.6875-0.3124 0.125v0.3125 8 0.46875l0.5 0.03125h2.1562l-4.6562 21.312-0.125 0.625h0.625 2.7812 0.4062l0.063-0.40625 0.4062-1.8125 6.375-7.9375 6.4062 7.9375 0.4063 1.8125 0.062 0.40625h0.4062 2.7813 0.625l-0.125-0.625-4.6563-21.312h2.1563l0.5-0.03125v-0.46875-8-0.3125l-0.3125-0.125-8.0312-3.6875zm0 1.0938 7.5625 3.4688v7.1563h-2.25l-0.625 0.03125 0.125 0.59375 4.625 21.312h-1.75l-0.3437-1.5625-0.031-0.125-0.062-0.09375-6.8438-8.5-0.4062-0.5-0.375 0.5-6.8438 8.5-0.062 0.09375-0.031 0.09375-0.3437 1.5938h-1.7813l4.6563-21.312 0.125-0.59375-0.625-0.03125h-2.25v-7.1563l7.5312-3.4688zm-5.5 3.75v0.5 4.0313 0.5h0.5 10.031 0.5v-0.5-4.0313-0.5h-0.5-10.031zm1 1h9.0312v3.0312h-9.0312zm1.5938 5.875-0.094 0.40625-0.7812 3.5938-0.031 0.21875 0.1563 0.1875 3.2812 4.125 0.375 0.46875 0.4062-0.46875 3.2813-4.125 0.1563-0.1875-0.031-0.21875-0.7813-3.5938-0.094-0.40625h-0.4063-5.0312-0.4062zm0.8124 1h4.2188l0.625 2.9688-2.75 3.4375-2.7188-3.4375zm-2.0937 4.9375-0.2187 1.0312-1.7813 8.2188 0.875 0.4375 4.2187-5.25 0.25-0.3125-0.25-0.3125-2.4374-3zm8.4063 0-0.6563 0.8125-2.4375 3-0.25 0.3125 0.25 0.3125 4.2188 5.25 0.875-0.4375-1.7813-8.2188zm-7.875 2.25 1.5312 1.875-2.6562 3.2812zm7.3437 0 1.125 5.1562-2.6563-3.2812z" color="#000000" stroke="#fff" stroke-width="2" style="text-decoration-line:none;text-indent:0;text-transform:none"/>
 <path d="m5.0528 33.198-0.4295 1.9812-2.7834-0.0088 4.7657-21.919-2.7504-0.02524v-7.9752l8.0405-3.6721 8.0406 3.6721v7.9752l-2.7504 0.02524 4.7574 21.919-2.7752 0.0088-0.4294-1.9727-6.8471-8.501zm1.1192-5.1611 4.2123-5.2242-2.4283-2.9991zm9.0192-11.197-0.7764-3.5964h-5.0341l-0.7763 3.5922 3.2913 4.1096zm0.6443 2.9739-2.4283 2.9991 4.2123 5.2242zm-8.9615-13.448v4.0254h10.044v-4.0254z"/>
</svg>
