<svg version="1.0" viewBox="0 0 64 64" xmlns="http://www.w3.org/2000/svg">
 <path d="m32 5.3314c-0.95251 0.011357-1.9049 0.62631-1.9049 1.9048v14.763l-20.954 10.001h45.718l-20.954-10.001v-14.763c0-1.3273-0.95251-1.9171-1.9049-1.9049zm3.8098 0v11.43h15.239l-7.6197-5.7149 7.6197-5.7146zm-26.669 30.478v3.8098h3.8098v15.239h-3.8098v3.8098h45.718v-3.8098h-3.8098v-15.239h3.8098v-3.8098zm22.859 5.7149c3.8098 0 7.6197 1.9049 7.6197 5.7148v7.6197h-15.239v-7.6197c0-3.8098 3.8098-5.7148 7.6197-5.7148z" fill="none" opacity=".8" stroke="#111111" stroke-linejoin="round" stroke-width="9.4641"/>
 <path d="m32 5.3313c-0.95251 0.011567-1.9049 0.62642-1.9049 1.9049v14.763l-20.954 10.001h45.718l-20.954-10.001v-14.763c0-1.3273-0.95251-1.9171-1.9049-1.905zm3.8098 0v11.43h15.239l-7.6197-5.7148 7.6197-5.7148zm-26.669 30.479v3.8098h3.8098v15.239h-3.8098v3.8098h45.718v-3.8098h-3.8098v-15.239h3.8098v-3.8098zm22.859 5.7148c3.8098 0 7.6197 1.9049 7.6197 5.7148v7.6197h-15.239v-7.6197c0-3.8098 3.8098-5.7148 7.6197-5.7148z" fill="#ffff12" stroke-width=".10516"/>
</svg>
