<svg id="SVGRoot" width="14" height="32" version="1.1" viewBox="0 0 14 32" xmlns="http://www.w3.org/2000/svg">
 <path d="M 6.8125,1 C 3.588,1 1,3.6193 1,6.8438 V 25.1876 C 1,28.4121 3.588,31 6.8125,31 h 0.375 C 10.412,31 13,28.4121 13,25.1876 V 6.8438 C 13,3.6193 10.412,1 7.1875,1 Z" fill="none" stroke="#ffffff" stroke-width="2"/>
 <g>
  <rect x="1" y="1.0079" width="12" height="30" rx="5.8204" fill="#5c5c5c"/>
  <circle cx="7.035" cy="6.9272" r="4.6345" fill="#000000"/>
  <path d="m3.8777 5.1386c-0.31014 0.53253-0.49237 1.1371-0.49237 1.7959 0 2.0156 1.634 3.6497 3.6496 3.6497 2.0156 0 3.6496-1.634 3.6496-3.6497 0-0.65881-0.18222-1.2633-0.49236-1.7959z" fill="#ff0000"/>
  <circle cx="7.035" cy="25.465" r="4.6345" fill="#000000"/>
  <path d="m3.8777 23.677c-0.31014 0.53253-0.49236 1.1371-0.49236 1.7959 0 2.0157 1.634 3.6497 3.6496 3.6497s3.6497-1.634 3.6497-3.6497c0-0.65879-0.18223-1.2633-0.49237-1.7959z" fill="#00a600"/>
  <circle cx="7.035" cy="16.196" r="4.6345" fill="#000000"/>
  <path d="m3.8777 14.408c-0.31014 0.53253-0.49236 1.1371-0.49236 1.7959 0 2.0157 1.634 3.6497 3.6496 3.6497s3.6497-1.634 3.6497-3.6497c0-0.65879-0.18223-1.2633-0.49237-1.7959z" fill="#ff9d00"/>
 </g>
</svg>
