<svg width="28" height="28" version="1.1" viewBox="0 0 7.4083 7.4083" xmlns="http://www.w3.org/2000/svg">
 <g transform="translate(-.52149 -288.89)">
  <rect x=".78608" y="289.16" width="6.8792" height="6.8792" rx="1.0583" fill="#1279ff" stroke="#fff" stroke-width=".52917"/>
  <rect x=".78608" y="289.16" width="6.8792" height="6.8792" rx="1.0583" fill="#1279ff"/>
  <g transform="translate(.12162 .41974)" fill="#fff">
   <path d="m4.8763 292.63c.17058 0 .3089.13716.3089.30636s-.13832.30636-.3089.30636c-.1706 0-.30893-.13716-.30893-.30636s.13832-.30636.30893-.30636zm-1.5445 0c.1706 0 .3089.13716.3089.30636s-.1383.30636-.3089.30636c-.1706 0-.3089-.13716-.3089-.30636s.1383-.30636.3089-.30636zm0-2.5725h1.5445c.17111 0 .3089.13663.3089.30636v1.0407h-2.1623v-1.0407c0-.16973.13774-.30636.3089-.30636zm-.028548-.79742v.3014h-.37507c-.37224 0-.67191.26885-.67191.6028v3.014c0 .33394.29967.60279.67191.60279h2.3518c.37224 0 .67191-.26885.67191-.60279v-3.014c0-.33395-.29967-.6028-.67191-.6028h-.3892v-.3014z"/>
   <path d="m3.9653 294.03h-.9267l-.94247 1.0547h1.2356z"/>
   <path d="m4.2742 294.03h.92673l.91093 1.0547h-1.2356z"/>
  </g>
 </g>
</svg>
