<svg width="28" height="28" version="1.1" viewBox="0 0 7.4083 7.4083" xmlns="http://www.w3.org/2000/svg">
 <rect x=".26458" y=".26458" width="6.8792" height="6.8792" rx="1.0583" fill="#1279ff" stroke="#fff" stroke-width=".52917"/>
 <rect x=".26458" y=".26458" width="6.8792" height="6.8792" rx="1.0583" fill="#1279ff"/>
 <g fill="#fff">
  <path d="m4.7734 4.1624c0.16872 0 0.30549 0.13677 0.30549 0.30549s-0.13677 0.30549-0.30549 0.30549-0.30549-0.13677-0.30549-0.30549 0.13677-0.30549 0.30549-0.30549zm-2.1384 0c0.16872 0 0.30549 0.13677 0.30549 0.30549s-0.13677 0.30549-0.30549 0.30549-0.30549-0.13677-0.30549-0.30549 0.13677-0.30549 0.30549-0.30549zm1.2155-2.7303c0.65729 0.066037 1.1705 0.55369 1.1705 1.159v0.5887h-1.1705zm-0.29262 0v1.7477h-1.1705v-0.5887c0-0.60531 0.51324-1.093 1.1705-1.159zm0.14632-0.63007c-1.1652 0-2.1097 0.80435-2.1097 1.7966v2.3954c0 0.16588 0.14474 0.29943 0.32457 0.29943h3.5703c0.17979 0 0.32457-0.13354 0.32457-0.29943v-2.3954c0-0.9922-0.94455-1.7966-2.1097-1.7966z"/>
  <path d="m3.5514 5.5558h-0.91646l-0.91646 1.0505h1.222z"/>
  <path d="m3.8569 5.5558h0.91648l0.91646 1.0505h-1.222z"/>
  <rect x="3.4377" y="1.1139" width=".533" height="2.3985"/>
 </g>
</svg>
