<svg width="34" height="34" version="1.1" viewBox="0 0 8.9958 8.9958" xmlns="http://www.w3.org/2000/svg">
 <circle cx="4.4919" cy="4.49" r="4.2256" fill="#ffc400" stroke="#f2b800" stroke-width=".52826"/>
 <g fill="#5d0000">
  <path d="m4.1533 3.599 1.3844 2.2653c0.035958 0.071915 0.12585 0.10787 0.19777 0.10787h0.61128c0.16181 0 0.26968-0.16181 0.21575-0.30564l-0.66522-2.1035h0.86298l0.37755 0.46745c0.035958 0.035958 0.089894 0.071915 0.14383 0.071915h0.48543c0.12585 0 0.19777-0.10787 0.16181-0.23372l-0.23372-0.77309 0.2517-0.79107c0.035958-0.10787-0.053936-0.23372-0.16181-0.23372h-0.50341c-0.053936 0-0.10787 0.017979-0.14383 0.071915l-0.35958 0.48543h-0.86298l0.68319-2.0855c0.053936-0.14383-0.071915-0.30564-0.21575-0.30564h-0.61128c-0.089894 0-0.16181 0.035958-0.19777 0.10787l-1.3844 2.3013h-1.5102c-0.62926 0.017979-0.61128 0.9349-0.017979 0.95288h1.4922z" stop-color="#000000" stroke="#f2b800" stroke-linejoin="round" stroke-width=".47985" style="-inkscape-stroke:none;font-variation-settings:normal"/>
  <path d="m1.6723 4.8755c-0.10787 0-0.16181 0.071915-0.19777 0.16181-0.16181 0.41351-0.3416 0.71915-0.41351 1.2945 0 0.39553-0.035958 0.79107-0.017979 1.1866 0 0.2517 0.26968 0.61128 0.50341 0.61128h4.4947v-0.44947h-0.035958v-0.41351l0.035958 0.017979v-0.12585c-0.9349-0.30564-1.708-0.89894-2.1395-1.9597-0.071915-0.19777-0.23372-0.30564-0.41351-0.32362zm-0.017979 0.26968h1.7439c0.12585 0 0.21575 0.41351 0.30564 0.64724 0.017979 0.071915 0 0.17979-0.053936 0.17979h-2.2653c-0.053936 0-0.071915-0.089894-0.053936-0.17979 0.10787-0.21575 0.23372-0.64724 0.32362-0.64724zm2.4451 0.9349c0.12585 0.12585 0.2517 0.28766 0.37755 0.37755v0.75511l-0.3416-0.16181c-0.035958-0.32362-0.035958-0.64724-0.035958-0.97086zm0.57532 0.53936c0.14383 0.12585 0.19777 0.16181 0.32362 0.2517v0.57532l-0.32362-0.14383c-0.017979-0.32362 0-0.3416 0-0.68319zm-3.0924 0.23372c0.12585 0 0.21575 0.089894 0.21575 0.19777 0 0.12585-0.089894 0.21575-0.21575 0.21575-0.10787 0-0.19777-0.089894-0.19777-0.21575 0-0.10787 0.071915-0.19777 0.19777-0.19777zm1.708 0c0.12585 0 0.21575 0.089894 0.21575 0.19777 0 0.12585-0.089894 0.21575-0.21575 0.21575-0.10787 0-0.19777-0.089894-0.19777-0.21575 0-0.10787 0.089894-0.19777 0.19777-0.19777zm1.8698 0.10787 0.32362 0.14383v0.46745c-0.10787-0.017979-0.21575-0.035958-0.32362-0.089894zm0.46745 0.19777 0.2517 0.071915v0.43149c-0.089894 0-0.17979-0.017979-0.2517-0.053936zm-2.553 1.0787v0.21575h-0.95288v-0.21575h-0.64724v0.21575h-0.43149v0.30564h3.0204c0.43149-0.17979 1.1866-0.43149 1.9777-0.46745v-0.053936z" stop-color="#000000" stroke="#f2b800" stroke-linejoin="round" stroke-width=".47985" style="-inkscape-stroke:none;font-variation-settings:normal"/>
  <path d="m4.1548 3.599 1.3844 2.2653c0.035958 0.071915 0.12585 0.10787 0.19777 0.10787h0.61128c0.16181 0 0.26968-0.16181 0.21575-0.30564l-0.66522-2.1035h0.86298l0.37755 0.46745c0.035958 0.035958 0.089894 0.071915 0.14383 0.071915h0.48543c0.12585 0 0.19777-0.10787 0.16181-0.23372l-0.23372-0.77309 0.2517-0.79107c0.035958-0.10787-0.053936-0.23372-0.16181-0.23372h-0.50341c-0.053936 0-0.10787 0.017979-0.14383 0.071915l-0.35958 0.48543h-0.86298l0.68319-2.0855c0.053936-0.14383-0.071915-0.30564-0.21575-0.30564h-0.61128c-0.089894 0-0.16181 0.035958-0.19777 0.10787l-1.3844 2.3013h-1.5102c-0.62926 0.017979-0.61128 0.9349-0.017979 0.95288h1.4922z" stop-color="#000000" style="-inkscape-stroke:none;font-variation-settings:normal"/>
  <path d="m1.6737 4.8755c-0.10787 0-0.16181 0.071915-0.19777 0.16181-0.16181 0.41351-0.3416 0.71915-0.41351 1.2945 0 0.39553-0.035958 0.79107-0.017979 1.1866 0 0.2517 0.26968 0.61128 0.50341 0.61128h4.4947v-0.44947h-0.035958v-0.41351l0.035958 0.017979v-0.12585c-0.9349-0.30564-1.708-0.89894-2.1395-1.9597-0.071915-0.19777-0.23372-0.30564-0.41351-0.32362zm-0.017979 0.26968h1.7439c0.12585 0 0.21575 0.41351 0.30564 0.64724 0.017979 0.071915 0 0.17979-0.053936 0.17979h-2.2653c-0.053936 0-0.071915-0.089894-0.053936-0.17979 0.10787-0.21575 0.23372-0.64724 0.32362-0.64724zm2.4451 0.9349c0.12585 0.12585 0.2517 0.28766 0.37755 0.37755v0.75511l-0.3416-0.16181c-0.035958-0.32362-0.035958-0.64724-0.035958-0.97086zm0.57532 0.53936c0.14383 0.12585 0.19777 0.16181 0.32362 0.2517v0.57532l-0.32362-0.14383c-0.017979-0.32362 0-0.3416 0-0.68319zm-3.0924 0.23372c0.12585 0 0.21575 0.089894 0.21575 0.19777 0 0.12585-0.089894 0.21575-0.21575 0.21575-0.10787 0-0.19777-0.089894-0.19777-0.21575 0-0.10787 0.071915-0.19777 0.19777-0.19777zm1.708 0c0.12585 0 0.21575 0.089894 0.21575 0.19777 0 0.12585-0.089894 0.21575-0.21575 0.21575-0.10787 0-0.19777-0.089894-0.19777-0.21575 0-0.10787 0.089894-0.19777 0.19777-0.19777zm1.8698 0.10787 0.32362 0.14383v0.46745c-0.10787-0.017979-0.21575-0.035958-0.32362-0.089894zm0.46745 0.19777 0.2517 0.071915v0.43149c-0.089894 0-0.17979-0.017979-0.2517-0.053936zm-2.553 1.0787v0.21575h-0.95288v-0.21575h-0.64724v0.21575h-0.43149v0.30564h3.0204c0.43149-0.17979 1.1866-0.43149 1.9777-0.46745v-0.053936z" stop-color="#000000" style="-inkscape-stroke:none;font-variation-settings:normal"/>
 </g>
</svg>
