<svg id="SVGRoot" width="22" height="30" version="1.1" viewBox="0 0 22 30" xmlns="http://www.w3.org/2000/svg">
 <path d="m9 18h4.3076l-1.5384 3h-1.5384zm12-3.7776c0-1.6646-1.0458-3.091-2.5001-3.6457 0.6071-0.68755 0.9616-1.5823 0.9616-2.5765 0-2.1477-1.722-3.8889-3.8461-3.8889-0.3028 0-0.5829 0.0294-0.8654 0.0965-0.322-1.8187-1.8587-3.2083-3.75-3.2078-1.8914 2.9996e-4 -3.428 1.3899-3.7501 3.2086-0.2825-0.0668-0.5626-0.0965-0.8653-0.0965-2.1242 0-3.8462 1.7411-3.8462 3.8889 0 0.99415 0.3547 1.8889 0.9615 2.5764-1.4541 0.55469-2.4999 1.9804-2.4999 3.645 0 2.0358 1.5384 3.7776 3.8461 3.7776h0.7693l3.3846 5.5564v5.4436h4v-5.4444l3.3846-5.4436 1.1057-0.0232c1.9712 0.0224 3.5097-1.8363 3.5097-3.8663z" color="#000000" fill="#008000" stroke="#ffffff" stroke-linejoin="round" stroke-width="2"/>
 <path d="m9 18h4.3076l-1.5384 3h-1.5384zm12-3.7776c0-1.6646-1.0458-3.091-2.5001-3.6457 0.6071-0.68755 0.9616-1.5823 0.9616-2.5765 0-2.1477-1.722-3.8889-3.8461-3.8889-0.3028 0-0.5829 0.0294-0.8654 0.0965-0.322-1.8188-1.8587-3.2083-3.75-3.2078-1.8914 2.9996e-4 -3.428 1.3899-3.7501 3.2086-0.2825-0.0668-0.5626-0.0965-0.8653-0.0965-2.1242 0-3.8462 1.7411-3.8462 3.8889 0 0.99415 0.3547 1.8889 0.9615 2.5765-1.4541 0.55469-2.4999 1.9804-2.4999 3.645 0 2.0358 1.5384 3.7776 3.8461 3.7776h0.7693l3.3846 5.5564v5.4436h4v-5.4444l3.3846-5.4436 1.1057-0.0232c1.9712 0.0224 3.5097-1.8363 3.5097-3.8663z" color="#000000" fill="#008000"/>
</svg>
