<svg width="34" height="34" version="1.1" viewBox="0 0 8.9958 8.9958" xmlns="http://www.w3.org/2000/svg">
 <circle cx="4.4979" cy="4.4979" r="4.2017" fill="#5cecf2" stroke="#35e1ff" stroke-width=".52477"/>
 <path d="m4.5073 4.2097c-0.90109 0-1.6665 0.26199-2.1665 0.67269v0.76384h4.3336v-0.76384c-0.50003-0.4107-1.2657-0.67269-2.167-0.67269zm3.9789-0.39195-3.9893-1.8384-3.9875 1.8384 0.66462 0.30418v0.46799c-0.16668 0.034637-0.1672 0.12188-0.1672 0.22579 0 0.061201 0.020314 0.13308 0.059118 0.17631l-0.22788 0.48805h0.81333l-0.22605-0.48831c0.038023-0.042971 0.069275-0.10626 0.069275-0.16772 0-0.10365-0.15365-0.19949-0.15365-0.23413v-0.3896l0.83338 0.37424v-0.033075c0.50003-0.43492 1.3785-0.71098 2.3332-0.71098s1.8337 0.27606 2.3337 0.71098v0.033075l1.6451-0.75681z" fill="#000090" stroke-width=".26043"/>
</svg>
