<svg width="26.03" height="26.03" version="1.1" viewBox="0 0 6.8871 6.8871" xmlns="http://www.w3.org/2000/svg">
 <g transform="translate(-.51412 -289.41)" fill="#0c91e6">
  <g transform="matrix(.26458 0 0 .26458 -566.22 135.17)" stroke="#ffffff">
   <circle transform="matrix(1.0976 0 0 1.0976 -221.28 -15.307)" cx="2165" cy="556.93" r="1.8125" stroke-width="1.8222"/>
   <g stroke-width="2">
    <path d="m2153 605.55c0-1.4468 1.122-3.9295 2.0038-7.245 0.9718 3.3155 1.9988 5.7826 1.9988 7.2294s-0.9236 2.4478-1.9857 2.4478-2.0169-0.98535-2.0169-2.4321z"/>
    <path d="m2157 586.39c0 1.4468-1.122 3.9295-2.0038 7.245-0.9718-3.3155-1.9988-5.7826-1.9988-7.2294s0.9236-2.4478 1.9857-2.4478 2.0169 0.98535 2.0169 2.4321z"/>
    <g transform="rotate(-45 2155 595.97)">
     <path d="m2153 605.55c0-1.4468 1.122-3.9295 2.0038-7.245 0.9718 3.3155 1.9988 5.7826 1.9988 7.2294s-0.9236 2.4478-1.9857 2.4478-2.0169-0.98535-2.0169-2.4321z"/>
     <path d="m2157 586.39c0 1.4468-1.122 3.9295-2.0038 7.245-0.9718-3.3155-1.9988-5.7826-1.9988-7.2294s0.9236-2.4478 1.9857-2.4478 2.0169 0.98535 2.0169 2.4321z"/>
    </g>
    <g transform="rotate(-90 2155 595.97)">
     <path d="m2153 605.55c0-1.4468 1.122-3.9295 2.0038-7.245 0.9718 3.3155 1.9988 5.7826 1.9988 7.2294s-0.9236 2.4478-1.9857 2.4478-2.0169-0.98535-2.0169-2.4321z"/>
     <path d="m2157 586.39c0 1.4468-1.122 3.9295-2.0038 7.245-0.9718-3.3155-1.9988-5.7826-1.9988-7.2294s0.9236-2.4478 1.9857-2.4478 2.0169 0.98535 2.0169 2.4321z"/>
    </g>
    <g transform="rotate(225 2155 595.97)">
     <path d="m2153 605.55c0-1.4468 1.122-3.9295 2.0038-7.245 0.9718 3.3155 1.9988 5.7826 1.9988 7.2294s-0.9236 2.4478-1.9857 2.4478-2.0169-0.98535-2.0169-2.4321z"/>
     <path d="m2157 586.39c0 1.4468-1.122 3.9295-2.0038 7.245-0.9718-3.3155-1.9988-5.7826-1.9988-7.2294s0.9236-2.4478 1.9857-2.4478 2.0169 0.98535 2.0169 2.4321z"/>
    </g>
   </g>
  </g>
  <g transform="matrix(.26458 0 0 .26458 -566.22 135.17)">
   <circle transform="matrix(1.0976 0 0 1.0976 -221.28 -15.307)" cx="2165" cy="556.93" r="1.8125"/>
   <path d="m2153 605.55c0-1.4468 1.122-3.9295 2.0038-7.245 0.9718 3.3155 1.9988 5.7826 1.9988 7.2294s-0.9236 2.4478-1.9857 2.4478-2.0169-0.98535-2.0169-2.4321z"/>
   <path d="m2157 586.39c0 1.4468-1.122 3.9295-2.0038 7.245-0.9718-3.3155-1.9988-5.7826-1.9988-7.2294s0.9236-2.4478 1.9857-2.4478 2.0169 0.98535 2.0169 2.4321z"/>
   <g transform="rotate(-45 2155 595.97)">
    <path d="m2153 605.55c0-1.4468 1.122-3.9295 2.0038-7.245 0.9718 3.3155 1.9988 5.7826 1.9988 7.2294s-0.9236 2.4478-1.9857 2.4478-2.0169-0.98535-2.0169-2.4321z"/>
    <path d="m2157 586.39c0 1.4468-1.122 3.9295-2.0038 7.245-0.9718-3.3155-1.9988-5.7826-1.9988-7.2294s0.9236-2.4478 1.9857-2.4478 2.0169 0.98535 2.0169 2.4321z"/>
   </g>
   <g transform="rotate(-90 2155 595.97)">
    <path d="m2153 605.55c0-1.4468 1.122-3.9295 2.0038-7.245 0.9718 3.3155 1.9988 5.7826 1.9988 7.2294s-0.9236 2.4478-1.9857 2.4478-2.0169-0.98535-2.0169-2.4321z"/>
    <path d="m2157 586.39c0 1.4468-1.122 3.9295-2.0038 7.245-0.9718-3.3155-1.9988-5.7826-1.9988-7.2294s0.9236-2.4478 1.9857-2.4478 2.0169 0.98535 2.0169 2.4321z"/>
   </g>
   <g transform="rotate(225 2155 595.97)">
    <path d="m2153 605.55c0-1.4468 1.122-3.9295 2.0038-7.245 0.9718 3.3155 1.9988 5.7826 1.9988 7.2294s-0.9236 2.4478-1.9857 2.4478-2.0169-0.98535-2.0169-2.4321z"/>
    <path d="m2157 586.39c0 1.4468-1.122 3.9295-2.0038 7.245-0.9718-3.3155-1.9988-5.7826-1.9988-7.2294s0.9236-2.4478 1.9857-2.4478 2.0169 0.98535 2.0169 2.4321z"/>
   </g>
  </g>
 </g>
</svg>
