<svg id="SVGRoot" width="22" height="32" version="1.1" viewBox="0 0 22 32" xmlns="http://www.w3.org/2000/svg">
 <path id="water-tower" d="m0.57143 1.4v7.3c0 3.0179 1.6489 5.1731 3.9759 6.5179l-1.8902 15.382h3.1286l0.39107-3.0634 4.8232-3.1938 4.8232 3.2589 0.39107 2.9982h3.1286l-1.8902-15.317c2.3453-1.3411 3.9759-3.532 3.9759-6.583v-7.3h-3.1286v3.1286h-1.0429c-2.3508 1.0429-4.1714 1.0429-6.2571 0-2.0857-1.0429-4.0919-1.0429-6.2571 0h-1.0429v-3.1286zm6.9741 14.991c2.2301 0.55722 4.6776 0.6123 6.9089 0.06518l0.39107 3.2589-3.8455 2.542-3.8455-2.542zm-0.65179 5.2143 2.542 1.6946-2.9982 2.0205zm8.2125 0 0.45625 3.7152-2.9982-2.0205z" fill="#3c3c3c" stop-color="#000000" stroke="#ffffff" stroke-width=".886" style="font-variation-settings:normal"/>
</svg>
