<svg width="26" height="26" version="1.1" viewBox="0 0 26 26" xmlns="http://www.w3.org/2000/svg">
 <g transform="translate(-9 -7.2221)">
  <rect x="10" y="8.2221" width="24" height="24" rx="4.7952" fill="#666" stroke="#fff" stroke-width="2"/>
  <rect x="10" y="8.2221" width="24" height="24" rx="4.7952" fill="#666"/>
  <g transform="translate(1.6966 1.3618)">
   <path d="m16.179 13.899c-0.1476-0.2803-0.4979-0.4797-0.9002-0.4797l-4.2608 0.01v13.952h6.9967l-1.8357-13.477z" fill="#fff"/>
   <g fill="#0ff">
    <path d="m22.682 25.671c0.109 0.029 0.2181 0.044 0.3271 0.044 0.2899 0 0.5665-0.09 0.8112-0.2372 0.2553-0.1616 0.5346-0.2515 0.8351-0.2515 0.2952 0 0.5771 0.09 0.8324 0.2515 0.2447 0.1473 0.524 0.2372 0.8113 0.2372 0.2872 0 0.5611-0.09 0.8111-0.2372 0.25-0.1616 0.5345-0.2515 0.8325-0.2515 0.2979 0 0.5824 0.09 0.8351 0.2515 0.2446 0.1473 0.5186 0.2372 0.8111 0.2372v1.6349c-0.2899 0-0.5665-0.082-0.8111-0.2299-0.2553-0.1617-0.5399-0.2516-0.8351-0.2516-0.2953 0-0.5825 0.09-0.8325 0.2516-0.25 0.1472-0.5239 0.2299-0.8111 0.2299-0.2873 0-0.5666-0.082-0.8113-0.2299-0.2553-0.1617-0.5345-0.2516-0.8324-0.2516-0.3005 0-0.5825 0.09-0.8351 0.2516-0.2447 0.1472-0.5186 0.2299-0.8112 0.2299h-0.048l-0.2792-1.678z"/>
    <path d="m19.396 25.671c0.109 0.029 0.2181 0.044 0.3271 0.044 0.2899 0 0.5665-0.09 0.8112-0.2372 0.2553-0.1616 0.5346-0.2515 0.8351-0.2515 0.2952 0 0.5771 0.09 0.8324 0.2515 0.2447 0.1473 0.524 0.2372 0.8113 0.2372 0.2872 0 0.5611-0.09 0.8111-0.2372 0.25-0.1616 0.5345-0.2515 0.8325-0.2515 0.2979 0 0.5824 0.09 0.8351 0.2515 0.2446 0.1473 0.5186 0.2372 0.8111 0.2372v1.6349c-0.2899 0-0.5665-0.082-0.8111-0.2299-0.2553-0.1617-0.5399-0.2516-0.8351-0.2516-0.2953 0-0.5825 0.09-0.8325 0.2516-0.25 0.1472-0.5239 0.2299-0.8111 0.2299-0.2873 0-0.5666-0.082-0.8113-0.2299-0.2553-0.1617-0.5345-0.2516-0.8324-0.2516-0.3005 0-0.5825 0.09-0.8351 0.2516-0.2447 0.1472-0.5186 0.2299-0.8112 0.2299h-0.048l-0.2792-1.678z"/>
    <path d="m22.197 22.462c0.2501 0.1473 0.5239 0.2372 0.8112 0.2372 0.2899 0 0.5665-0.09 0.8112-0.2372 0.2553-0.1617 0.5346-0.2516 0.8351-0.2516 0.2952 0 0.5771 0.09 0.8324 0.2516 0.2447 0.1473 0.524 0.2372 0.8113 0.2372 0.2872 0 0.5611-0.09 0.8111-0.2372 0.25-0.1617 0.5345-0.2516 0.8325-0.2516 0.2979 0 0.5824 0.09 0.8351 0.2516 0.2446 0.1473 0.5186 0.2372 0.8111 0.2372v1.635c-0.2899 0-0.5665-0.082-0.8111-0.23-0.2553-0.1618-0.5399-0.2517-0.8351-0.2517-0.2953 0-0.5825 0.09-0.8325 0.2517-0.25 0.1473-0.5239 0.23-0.8111 0.23-0.2873 0-0.5666-0.082-0.8113-0.23-0.2553-0.1618-0.5345-0.2517-0.8324-0.2517-0.3005 0-0.5825 0.09-0.8351 0.2517-0.2447 0.1473-0.5186 0.23-0.8112 0.23-0.1755 0-0.3484-0.029-0.5133-0.09l-0.2979-1.7823z"/>
    <path d="m18.912 22.462c0.2501 0.1473 0.5239 0.2372 0.8112 0.2372 0.2899 0 0.5665-0.09 0.8112-0.2372 0.2553-0.1617 0.5346-0.2516 0.8351-0.2516 0.2952 0 0.5771 0.09 0.8324 0.2516 0.2447 0.1473 0.524 0.2372 0.8113 0.2372 0.2872 0 0.5611-0.09 0.8111-0.2372 0.25-0.1617 0.5345-0.2516 0.8325-0.2516 0.2979 0 0.5824 0.09 0.8351 0.2516 0.2446 0.1473 0.5186 0.2372 0.8111 0.2372v1.635c-0.2899 0-0.5665-0.082-0.8111-0.23-0.2553-0.1618-0.5399-0.2517-0.8351-0.2517-0.2953 0-0.5825 0.09-0.8325 0.2517-0.25 0.1473-0.5239 0.23-0.8111 0.23-0.2873 0-0.5666-0.082-0.8113-0.23-0.2553-0.1618-0.5345-0.2517-0.8324-0.2517-0.3005 0-0.5825 0.09-0.8351 0.2517-0.2447 0.1473-0.5186 0.23-0.8112 0.23-0.1755 0-0.3484-0.029-0.5133-0.09l-0.2979-1.7823z"/>
   </g>
   <path d="m11.061 11.405h2.585c1.2813 0 3.1494-0.4333 4.071 0.9612s1.4778 6.9842 2.4403 11.752" fill="none" stroke="#0ff" stroke-width="2"/>
  </g>
 </g>
</svg>
