<svg height="34" viewBox="0 0 8.9958 8.9958" width="34" xmlns="http://www.w3.org/2000/svg"><g stroke="#00dc00"><circle cx="4.4979" cy="4.4979" fill="#12ef12" r="4.2062" stroke-width=".52533"/><path d="m2.3734 6.7518c-.23213.003627-.44068-.16865-.6456-.17047-.20674-.003627-.43524.12694-.57669.15596-.13964.025389-.22669.029016-.25933.0072541v.48057c.032643.019948.1215.018135.25933-.00725.13964-.029016.36995-.15959.57669-.15596.20492.00181.41347.17409.6456.17047.23031-.00907.48601-.19586.72177-.19948.2285-.00907.43342.15959.66374.16321.23394.00181.47151-.15233.72177-.14871.24663.00363.49871.17228.74353.17047.24845-.00544.48239-.18498.74172-.18679s.54405.17409.79793.17953c.25026 0 .50778-.16503.68912-.17047.17954-.00725.27746.10881.38083.13238.107.023575.18679.025389.25026.00725v-.48057c-.061658.019948-.14327.016321-.25026-.00725-.107-.025389-.20674-.13964-.38083-.13238-.18135.00725-.44249.17047-.68912.17047-.25389-.00544-.53861-.17772-.79793-.17772-.25751.00181-.48964.18135-.74172.18679-.25207.00181-.50415-.16684-.74353-.17047-.25026-.00725-.48783.14871-.72177.14689-.22306-.00363-.42254-.15959-.64197-.16321-.29767-.00655-.49541.18329-.74353.19948z" fill="none" opacity=".8" stroke-linecap="round" stroke-linejoin="round" stroke-width=".69944"/><path d="m2.3934 7.5497c-.23213.0036269-.44068-.16865-.6456-.17047-.20674-.003627-.43524.12694-.57669.15596-.13964.029016-.22669.027202-.25933.0072539v.48057c.032643.019948.1215.019948.25933-.00725.13964-.029016.36995-.15959.57669-.15596.20492.00181.41347.17409.6456.17047.23031-.010881.48601-.19223.72177-.19948.2285-.00725.43342.15777.66374.16321.23394.00181.47151-.15415.72177-.14689.24663.00363.49871.17228.74353.17047.24845-.00544.48239-.18498.74172-.18679.25933 0 .54405.17228.79793.17772.25026 0 .50778-.16503.68912-.17047.17954-.00725.27746.10881.38083.13238.107.023576.18679.025389.25026.00725v-.48057c-.061658.016321-.14327.014508-.25026-.00725-.107-.023575-.20674-.13964-.38083-.13238-.18135.00725-.44249.17047-.68912.17047-.25389-.00544-.53861-.17772-.79793-.17772-.25751.00181-.48964.18135-.74172.18679-.25207.00181-.50415-.16684-.74353-.17047-.25026-.00725-.48783.14871-.72177.14689-.22306-.00363-.42254-.15959-.64197-.16321-.29767-.00655-.49541.18329-.74353.19948z" fill="none" opacity=".8" stroke-linecap="round" stroke-linejoin="round" stroke-width=".69944"/></g><path d="m2.3734 6.7518c-.23213.003627-.44068-.16865-.6456-.17047-.20674-.003627-.43524.12694-.57669.15596-.13964.025389-.22669.029016-.25933.0072541v.48057c.032643.019948.1215.018135.25933-.00725.13964-.029016.36995-.15959.57669-.15596.20492.00181.41347.17409.6456.17047.23031-.00907.48601-.19586.72177-.19948.2285-.00907.43342.15959.66374.16321.23394.00181.47151-.15233.72177-.14871.24663.00363.49871.17228.74353.17047.24845-.00544.48239-.18498.74172-.18679s.54405.17409.79793.17953c.25026 0 .50778-.16503.68912-.17047.17954-.00725.27746.10881.38083.13238.107.023575.18679.025389.25026.00725v-.48057c-.061658.019948-.14327.016321-.25026-.00725-.107-.025389-.20674-.13964-.38083-.13238-.18135.00725-.44249.17047-.68912.17047-.25389-.00544-.53861-.17772-.79793-.17772-.25751.00181-.48964.18135-.74172.18679-.25207.00181-.50415-.16684-.74353-.17047-.25026-.00725-.48783.14871-.72177.14689-.22306-.00363-.42254-.15959-.64197-.16321-.29767-.00655-.49541.18329-.74353.19948z" fill="#004900"/><path d="m2.3934 7.5497c-.23213.0036269-.44068-.16865-.6456-.17047-.20674-.003627-.43524.12694-.57669.15596-.13964.029016-.22669.027202-.25933.0072539v.48057c.032643.019948.1215.019948.25933-.00725.13964-.029016.36995-.15959.57669-.15596.20492.00181.41347.17409.6456.17047.23031-.010881.48601-.19223.72177-.19948.2285-.00725.43342.15777.66374.16321.23394.00181.47151-.15415.72177-.14689.24663.00363.49871.17228.74353.17047.24845-.00544.48239-.18498.74172-.18679.25933 0 .54405.17228.79793.17772.25026 0 .50778-.16503.68912-.17047.17954-.00725.27746.10881.38083.13238.107.023576.18679.025389.25026.00725v-.48057c-.061658.016321-.14327.014508-.25026-.00725-.107-.023575-.20674-.13964-.38083-.13238-.18135.00725-.44249.17047-.68912.17047-.25389-.00544-.53861-.17772-.79793-.17772-.25751.00181-.48964.18135-.74172.18679-.25207.00181-.50415-.16684-.74353-.17047-.25026-.00725-.48783.14871-.72177.14689-.22306-.00363-.42254-.15959-.64197-.16321-.29767-.00655-.49541.18329-.74353.19948z" fill="#004900"/><path d="m1.8854529 3.2952732c-.0000016-1.4428182 1.1696339-2.61245377 2.6124526-2.61245238 1.4428143.00000414 2.6124435 1.16963808 2.6124416 2.61245238-.0000034 1.4428104-1.1696312 2.6124382-2.6124416 2.6124424-1.4428145.0000016-2.6124486-1.1696279-2.6124526-2.6124424zm.46848-.812648.4076166-.1109527s.03772-.1629251.2199782-.3783077c.1822585-.2153826.2972351-.2761177.2972351-.2761177l-.0662542-.3438358s-.3274737.1727108-.551802.4752127c-.2243281.302502-.3067737.6340012-.3067737.6340012zm.1451768 1.870952s.3117446.59652.8881219.8413786c.6871129.2919013 1.2764865.2712876 1.2764865.2712876s-.2961562-.6320788-.5088688-1.0784916c-.2220294-.4659659-.5805451-1.4355346-.5805451-1.4355346s-.1442101.1477762-.3866636.1633301c-.1039844.00667-.2783202-.057773-.2783202-.057773s-.1695088.4356523-.284993.833872c-.1154844.3982197-.1252175.4619309-.1252177.4619309zm1.4974102-2.6785548s.046282.1396499.063332.2111128c.041579.1742681.021117.3272079.021117.3272079s.8645174.034715 1.2877536.1161152c.4831747.092927 1.252681.3781055 1.252681.3781055s-.171422-.6004721-.7104754-1.1035089c-.536596-.5007447-.9335378-.5182407-.9335378-.5182407s-.1171366.03321-.4530981.2197762c-.3359615.1865667-.527772.369432-.5277723.369432z" fill="none" opacity=".8" stroke="#00dc00" stroke-linejoin="round" stroke-width=".869669"/><path d="m1.8854529 3.2952732c-.0000016-1.4428182 1.1696339-2.61245377 2.6124526-2.61245238 1.4428143.00000414 2.6124435 1.16963808 2.6124416 2.61245238-.0000034 1.4428104-1.1696312 2.6124382-2.6124416 2.6124424-1.4428145.0000016-2.6124486-1.1696279-2.6124526-2.6124424zm.46848-.812648.4076166-.1109527s.03772-.1629251.2199782-.3783077c.1822585-.2153826.2972351-.2761177.2972351-.2761177l-.0662542-.3438358s-.3274737.1727108-.551802.4752127c-.2243281.302502-.3067737.6340012-.3067737.6340012zm.1451768 1.870952s.3117446.59652.8881219.8413786c.6871129.2919013 1.2764865.2712876 1.2764865.2712876s-.2961562-.6320788-.5088688-1.0784916c-.2220294-.4659659-.5805451-1.4355346-.5805451-1.4355346s-.1442101.1477762-.3866636.1633301c-.1039844.00667-.2783202-.057773-.2783202-.057773s-.1695088.4356523-.284993.833872c-.1154844.3982197-.1252175.4619309-.1252177.4619309zm1.4974102-2.6785548s.046282.1396499.063332.2111128c.041579.1742681.021117.3272079.021117.3272079s.8645174.034715 1.2877536.1161152c.4831747.092927 1.252681.3781055 1.252681.3781055s-.171422-.6004721-.7104754-1.1035089c-.536596-.5007447-.9335378-.5182407-.9335378-.5182407s-.1171366.03321-.4530981.2197762c-.3359615.1865667-.527772.369432-.5277723.369432z" fill="#004900" fill-rule="evenodd" stroke-width=".013589"/></svg>