<svg width="32" height="32" version="1.1" viewBox="0 0 32 32" xml:space="preserve" xmlns="http://www.w3.org/2000/svg">




<g transform="matrix(.059701 0 0 .059701 .71643 .71644)"><polygon points="70.207 134.83 441.79 134.83 373.71 501.8 138.29 501.8" fill="#00ceff"/><path d="m315.43 347.75c0 32.82-26.606 59.426-59.426 59.426s-59.426-26.606-59.426-59.426 59.426-107.9 59.426-107.9 59.426 75.084 59.426 107.9z" fill="#e6460c"/><g fill="#0d3082"><path d="m449.64 128.31c-1.938-2.331-4.812-3.678-7.842-3.678h-52.429c-4.668-69.507-62.696-124.63-133.36-124.63s-128.7 55.125-133.36 124.63h-52.429c-3.031 0-5.904 1.347-7.842 3.678-1.937 2.331-2.738 5.402-2.186 8.382l68.086 366.97c0.896 4.832 5.113 8.339 10.028 8.339h235.41c4.915 0 9.131-3.506 10.028-8.339l68.086-366.97c0.552-2.979-0.248-6.05-2.185-8.381zm-193.64-107.91c59.416 0 108.29 45.985 112.92 104.23h-225.83c4.623-58.247 53.499-104.23 112.92-104.23zm109.23 471.2h-218.45l-57.235-308.49h138.76c5.632 0 10.199-4.567 10.199-10.199s-4.567-10.199-10.199-10.199h-142.55l-3.281-17.683h347.05z"/><path d="m256 417.37c38.392 0 69.625-31.233 69.625-69.625 0-35.346-55.318-106.26-61.627-114.23-1.935-2.444-4.88-3.87-7.998-3.87s-6.062 1.425-7.998 3.87c-6.308 7.97-61.627 78.888-61.627 114.23 0 38.392 31.233 69.625 69.625 69.625zm0-160.77c21.67 29.058 49.226 72.273 49.226 91.148 0 27.143-22.082 49.226-49.226 49.226s-49.226-22.082-49.226-49.226c-1e-3 -18.876 27.556-62.091 49.226-91.148z"/><path d="m265.23 183.11h11.539c5.632 0 10.199-4.567 10.199-10.199s-4.567-10.199-10.199-10.199h-11.539c-5.632 0-10.199 4.567-10.199 10.199s4.566 10.199 10.199 10.199z"/></g></g>















</svg>
