<svg width="32" height="32" version="1.1" viewBox="0 0 32 32" xml:space="preserve" xmlns="http://www.w3.org/2000/svg">




<polygon transform="matrix(.060023 0 0 .060023 .63354 .63412)" points="373.71 501.8 138.29 501.8 70.207 134.83 441.79 134.83" fill="#00ceff"/><path d="m19.566 21.507c0 1.9699-1.597 3.5669-3.5669 3.5669-1.9699 0-3.5669-1.597-3.5669-3.5669s3.5669-6.4764 3.5669-6.4764 3.5669 4.5067 3.5669 6.4764z" fill="#13b7dc" stroke-width=".060023"/><g fill="#0d3082" stroke-width=".060023"><path d="m27.622 8.3356c-0.11632-0.13991-0.28883-0.22076-0.4707-0.22076h-3.1469c-0.28019-4.172-3.7632-7.4806-8.0046-7.4806s-7.7249 3.3087-8.0046 7.4806h-3.1469c-0.18193 0-0.35437 0.080851-0.4707 0.22076-0.11626 0.13991-0.16434 0.32424-0.13121 0.50311l4.0867 22.027c0.05378 0.29003 0.3069 0.50053 0.60191 0.50053h14.13c0.29501 0 0.54807-0.21044 0.60191-0.50053l4.0867-22.027c0.033133-0.17881-0.014885-0.36314-0.13115-0.50305zm-11.623-6.477c3.5663 0 6.4998 2.7601 6.7778 6.2562h-13.555c0.27748-3.4961 3.2112-6.2562 6.7778-6.2562zm6.5563 28.283h-13.112l-3.4354-18.516h8.3287c0.33805 0 0.61217-0.27412 0.61217-0.61217 0-0.33805-0.27412-0.61217-0.61217-0.61217h-8.5562l-0.19693-1.0614h20.831z"/><path d="m15.999 25.686c2.3044 0 4.1791-1.8747 4.1791-4.1791 0-2.1216-3.3203-6.378-3.699-6.8564-0.11614-0.1467-0.29291-0.23229-0.48006-0.23229-0.18715 0-0.36386 0.08553-0.48006 0.23229-0.37862 0.47838-3.699 4.7351-3.699 6.8564 0 2.3044 1.8747 4.1791 4.1791 4.1791zm0-9.6498c1.3007 1.7441 2.9547 4.338 2.9547 5.4709 0 1.6292-1.3254 2.9547-2.9547 2.9547-1.6293 0-2.9547-1.3254-2.9547-2.9547-6e-5 -1.133 1.654-3.7269 2.9547-5.4709z"/><path d="m16.553 11.625h0.6926c0.33805 0 0.61217-0.27412 0.61217-0.61217 0-0.33805-0.27412-0.61217-0.61217-0.61217h-0.6926c-0.33805 0-0.61217 0.27412-0.61217 0.61217 0 0.33805 0.27406 0.61217 0.61217 0.61217z"/>















</g></svg>
