<svg height="38" viewBox="0 0 38 38" width="38" xmlns="http://www.w3.org/2000/svg">
	<g>
		<path d="m5.5542 30.266c3.2181-1.7779 7.0978-3.0321 10.199-2.1362 3.163.96476 5.7885 3.2802 9.0274 3.9279 3.7074.89584 7.5802-.11026 10.888-1.7917-.41347-1.1853-1.0543-2.4119-1.2128-2.9356-2.9563 1.1508-6.6844 2.0673-9.4408 1.2886-4.5481-1.6608-7.3046-3.8659-11.577-4.2794-3.3077.04824-6.6155 1.3438-9.3719 3.101.1516.53751 1.1991 2.4808 1.4885 2.8254z" opacity=".8" stroke="#000" stroke-width="2"/>
		<path d="m14.481 6.1397-10.506 8.3731h2.1013v9.6494c.05109-.02568.099871-.05459.15121-.07988.3747-.18466.75588-.35909 1.1424-.52165.38655-.16256.77857-.31329 1.1748-.45068.39624-.13739.79672-.26141 1.2005-.37057.40378-.10915.81081-.20345 1.22-.2813.40916-.07785.82048-.13929 1.2329-.18276.41239-.04347.82586-.06893 1.2393-.07496.26703.02584.52807.05868.78406.09795.256.03927.50688.08487.75345.13642.24657.05156.48887.10903.72764.17174.23877.0627.47407.1307.70664.20341.46515.14541.91957.30963 1.3696.48822.01902.0075.03777.01668.05678.02428-.77842-1.4515-1.2076-3.0917-1.2086-4.7919.000546-3.0046 1.3314-5.8547 3.6349-7.7837z" fill-rule="evenodd" opacity=".8" stroke="#fff" stroke-width="2.4"/>
		<path d="m27.708 9.939a8.6476 8.6476 0 0 0 -8.6476 8.6477 8.6476 8.6476 0 0 0 3.2947 6.7901c.33881.15365.67425.30784 1.0313.45925.51899.22004 1.0594.43617 1.628.64377.17228.04867.34843.09067.52787.12646.17944.03578.36217.06531.54793.08892s.37454.04123.56576.05337c.19122.01215.38494.01878.58078.02018.39166.0028.79162-.01512 1.1966-.05103.405-.03591.81501-.0898 1.2265-.15871.41153-.06891.82468-.15283 1.2359-.24904.41125-.09621.82062-.20468 1.2248-.32247.02836-.0083.05545-.01815.08375-.02651a8.6476 8.6476 0 0 0 4.1513-7.3742 8.6476 8.6476 0 0 0 -8.6477-8.6477zm0 3.0831a5.5646 5.5646 0 0 1 3.5157 1.256l-3.1594 2.1217-2.3229-3.0159a5.5646 5.5646 0 0 1 1.9665-.36177zm-4.527 2.3364 2.1935 2.8479-2.9834 2.0037a5.5646 5.5646 0 0 1 -.24763-1.6234 5.5646 5.5646 0 0 1 1.0376-3.2282zm9.844 1.6048a5.5646 5.5646 0 0 1 .24763 1.6234 5.5646 5.5646 0 0 1 -1.0376 3.2282l-2.1934-2.8479zm-5.6732 3.8103 2.3229 3.0159a5.5646 5.5646 0 0 1 -1.9666.36165 5.5646 5.5646 0 0 1 -3.5156-1.2559z" opacity=".8" stroke="#000" stroke-width="2.2"/>
	</g>
	<path d="m5.5542 30.266c3.2181-1.7779 7.0978-3.0321 10.199-2.1362 3.163.96476 5.7885 3.2802 9.0274 3.9279 3.7074.89584 7.5802-.11026 10.888-1.7917-.41347-1.1853-1.0543-2.4119-1.2128-2.9356-2.9563 1.1508-6.6844 2.0673-9.4408 1.2886-4.5481-1.6608-7.3046-3.8659-11.577-4.2794-3.3077.04824-6.6155 1.3438-9.3719 3.101.1516.53751 1.1991 2.4808 1.4885 2.8254z" fill="#fff" stroke-width=".068193"/>
	<path d="m14.481 6.1397-10.506 8.3731h2.1013v9.6494c.05109-.02568.099871-.05459.15121-.07988.3747-.18466.75588-.35909 1.1424-.52165.38655-.16256.77857-.31329 1.1748-.45068.39624-.13739.79672-.26141 1.2005-.37057.40378-.10915.81081-.20345 1.22-.2813.40916-.07785.82048-.13929 1.2329-.18276.41239-.04347.82586-.06893 1.2393-.07496.26703.02584.52807.05868.78406.09795.256.03927.50688.08487.75345.13642.24657.05156.48887.10903.72764.17174.23877.0627.47407.1307.70664.20341.46515.14541.91957.30963 1.3696.48822.01902.0075.03777.01668.05678.02428-.77842-1.4515-1.2076-3.0917-1.2086-4.7919.000546-3.0046 1.3314-5.8547 3.6349-7.7837z" fill-rule="evenodd" stroke-width=".059328"/>
	<path d="m27.708 9.939a8.6476 8.6476 0 0 0 -8.6476 8.6477 8.6476 8.6476 0 0 0 3.2947 6.7901c.33881.15365.67425.30784 1.0313.45925.51899.22004 1.0594.43617 1.628.64377.17228.04867.34843.09067.52787.12646.17944.03578.36217.06531.54793.08892s.37454.04123.56576.05337c.19122.01215.38494.01878.58078.02018.39166.0028.79162-.01512 1.1966-.05103.405-.03591.81501-.0898 1.2265-.15871.41153-.06891.82468-.15283 1.2359-.24904.41125-.09621.82062-.20468 1.2248-.32247.02836-.0083.05545-.01815.08375-.02651a8.6476 8.6476 0 0 0 4.1513-7.3742 8.6476 8.6476 0 0 0 -8.6477-8.6477zm0 3.0831a5.5646 5.5646 0 0 1 3.5157 1.256l-3.1594 2.1217-2.3229-3.0159a5.5646 5.5646 0 0 1 1.9665-.36177zm-4.527 2.3364 2.1935 2.8479-2.9834 2.0037a5.5646 5.5646 0 0 1 -.24763-1.6234 5.5646 5.5646 0 0 1 1.0376-3.2282zm9.844 1.6048a5.5646 5.5646 0 0 1 .24763 1.6234 5.5646 5.5646 0 0 1 -1.0376 3.2282l-2.1934-2.8479zm-5.6732 3.8103 2.3229 3.0159a5.5646 5.5646 0 0 1 -1.9666.36165 5.5646 5.5646 0 0 1 -3.5156-1.2559z" fill="#fff" stroke-width=".068193"/>
</svg>
