<svg enable-background="new 0 0 20 20" height="20" viewBox="0 0 20 20" width="20" xmlns="http://www.w3.org/2000/svg">
 <g clip-rule="evenodd" fill-rule="evenodd">
  <path d="m19.027 14.739v1.293c0 .551-.449 1-1 1h-.692v.684c0 .551-.449 1-1 1h-1.614c-.551 0-1-.449-1-1v-.684h-7.452v.684c0 .551-.449 1-1 1h-1.615c-.55 0-1-.449-1-1v-.684h-.718c-.55 0-1-.449-1-1v-1.293c-.521-.035-.935-.471-.935-.998v-2.084c0-.551.449-1 1-1h7.671c.229-2.387 1.276-4.621 2.99-6.334 1.951-1.952 4.576-3.039 7.336-3.039.55 0 .999.449.999.999v1.667c0 .191-.054.369-.147.521.094.152.147.33.147.521v1.666c0 .189-.054.369-.147.52.094.152.147.332.147.521v1.666c0 .551-.449 1-.999 1-.302 0-.588.104-.818.291h.818c.55 0 .999.449.999 1v2.084c.001.542-.433.986-.97.999z" fill="#ffffff"/>
  <path d="m16.335 17.716h-1.614v-1.684h-9.452v1.684h-1.615v-1.684h-1.718v-2.291h-.934v-2.084h17.997v2.084h-.972v2.291h-1.692z" fill="#0d3082"/>
  <path d="m9.677 10.657c.232-2.187 1.219-4.152 2.693-5.627 1.696-1.697 4.04-2.747 6.629-2.747v1.667c-2.129 0-4.057.863-5.451 2.258-1.172 1.172-1.969 2.721-2.192 4.449zm2.73 0h1.693c.198-.979.684-1.854 1.364-2.535.904-.904 2.154-1.463 3.535-1.463v-1.666c-1.841 0-3.508.746-4.714 1.951-.983.985-1.661 2.274-1.878 3.713zm2.762 0h1.768c.112-.23.262-.439.441-.619.415-.414.988-.672 1.621-.672v-1.666c-1.093 0-2.082.443-2.799 1.16-.489.489-.851 1.108-1.031 1.797z" fill="#00ceff"/>
 </g>
</svg>
