<svg height="28" viewBox="0 0 32 28" width="32" xmlns="http://www.w3.org/2000/svg">
 <path d="m15.994 3.9565-10 5.9939v17.007h20v-16.911z" fill="#808080" stroke="#ffffff" stroke-width="2"/>
 <path d="m15.994.95656-.93126.60801-13.069 8.128a1.8875 1.8865 0 1 0 1.8936 3.264l12.137-7.52 12.075 7.4881a1.9014 1.9004 0 0 0 1.8936-3.296l-13.007-8.064z" fill="#808080" stroke="#ffffff" stroke-width="2"/>
 <path d="m15.994 3.9997-10 5.9939v17.007h20v-16.911z" stroke-width=".99999"/>
 <path d="m15.994.99976-.93126.60801-13.069 8.128a1.8875 1.8865 0 1 0 1.8936 3.264l12.137-7.52 12.075 7.4881a1.9014 1.9004 0 0 0 1.8936-3.296l-13.007-8.064z" stroke-width=".99999"/>
 <g fill="#ffff00" fill-rule="evenodd" stroke="#000000" stroke-width=".05246">
  <path d="m11.141646 13.216237c.794644.01128 1.512319.572872 2.318167.588653.844436.0067 1.701163-.553603 2.605225-.530693.891467.01309 1.798937.618875 2.70926.61567.894597-.01971 1.742275-.666326 2.674582-.672943.688677 0 1.428787.337864 2.136915.523815v1.741401c-.708128-.187324-1.448237-.529557-2.136915-.527254-.932308.0065-1.779984.653235-2.674582.672944-.910323.0031-1.817793-.604417-2.70926-.617438-.904063-.01637-1.76079.540916-2.605225.534228-.831913-.01309-1.569705-.622465-2.395286-.589734-.847566.02298-1.7765131.695788-2.6052241.72845-.015084.000262-.030061-.0015-.045095-.0016v-1.736292c.015027.000157.030018.000209.045095 0 .828711-.03935 1.7576581-.695506 2.6052241-.728449.0258-.000816.05149-.0011.07712-.000692z"/>
  <path d="m11.141646 16.458056c.794644.01128 1.512319.572871 2.318167.588654.844436.0067 1.701163-.553702 2.605225-.530791.891467.01309 1.798937.618972 2.70926.615768.894597-.01971 1.742275-.666425 2.674582-.673042.688677 0 1.428787.337865 2.136915.523815v1.741401c-.708128-.187324-1.448237-.529558-2.136915-.527253-.932308.0065-1.779984.653333-2.674582.673041-.910323.0032-1.817793-.604515-2.70926-.617536-.904063-.01637-1.76079.540916-2.605225.534229-.831913-.01309-1.569705-.622465-2.395286-.589734-.847566.02298-1.7765131.695887-2.6052241.728547-.015084.000262-.030061-.0016-.045095-.0018v-1.736194c.015027.000157.030018.00021.045095 0 .828711-.03935 1.7576581-.695604 2.6052241-.728547.0258-.000859.05149-.000931.07712-.000588z"/>
  <path d="m11.142527 19.698696c.794634.01115 1.511436.572112 2.317284.587966.844436.0065 1.701163-.553675 2.605225-.530692.891466.01316 1.798937.619009 2.70926.615669.894597-.01957 1.742275-.664559 2.674582-.671175.68871 0 1.428756.337903 2.136915.523815v1.736194c-.708128-.185918-1.448237-.523815-2.136915-.523815-.932308.0064-1.779984.653376-2.674582.672944-.910324.0034-1.817793-.602605-2.70926-.615768-.904063-.02298-1.76079.537336-2.605225.530789-.831913-.01636-1.569705-.61422-2.395285-.587965-.847568.03273-1.7765143.688959-2.6052253.728449-.015077.00021-.030068.000157-.045095 0v-1.737963c.015027.000158.030018.00021.045095 0 .828711-.03949 1.7576573-.693951 2.6052253-.72668.0258-.000788.05237-.0021.078-.0018z"/>
 </g>
</svg>
