<svg height="38" width="38" xmlns="http://www.w3.org/2000/svg">
	<path d="m8.6475036 30.860642c-2.0069146.10132-3.9878496 1.337943-5.8129078 1.623718v3.513724c2.4680502-.116908 4.7217698-2.234235 7.2742532-1.2665 1.967945.876807 4.182696 1.363923 6.228579.405929 2.227741-1.000209 4.617852-.361114 6.754664.453992 2.610938 1.045674 4.96208-1.026189 7.534048-1.110623 1.474336-.242908 3.650117 1.331448 4.552903.779385v-3.305889c-2.169286-.622208-4.494449-1.669181-6.754663-.655982-2.143307 1.052169-4.598368 1.260005-6.819613.213032-2.195266-1.026189-4.546408-.302011-6.689715.396187-2.21475.740415-4.143726-.967735-6.2935279-1.052169zm-.1662687-6.754663c-1.8900069.264341-4.0982623 1.22753-5.650536 1.72114v3.409806c2.4680502-.103918 4.7217697-2.24073 7.2742531-1.266499 1.961451.883302 4.182696 1.370417 6.22858.415022 2.22774-1.006705 4.617851-.373455 6.754663.447496 2.610938 1.052169 4.96208-1.026189 7.534048-1.110622 1.48083-.248104 3.650117 1.337943 4.552904.785879v-3.318878c-2.169287-.622209-4.49445-1.669182-6.754664-.649487-2.143307 1.052169-4.598368 1.266499-6.819613.215629-2.195265-1.026189-4.546408-.301362-6.689715.396837-2.273204.766394-4.241149-1.065159-6.4623944-1.052169zm15.0031471-13.119636c1.039179 1.487325 1.786089 3.49424 2.994135 4.676306 1.110623-.105217 2.565473.383847 3.266919-.77289.616363-1.22753-.598177-2.240729-1.071653-3.292898-.515693-.883302-1.032685-1.7601097-1.545779-2.6434119-1.221036.6689715-2.429081 1.3574279-3.643622 2.0328939zm-.25265 3.124032c-.870313 1.49382-1.74712 2.981145-2.617432 4.474965.870312 1.474335 1.747119 2.94867 2.617432 4.423006v-2.396607c1.091138-.06391 2.234235.15133 3.286404-.157825.94825-.915777 1.428871-2.22774 2.162791-3.325373.928766-1.045674-.504002-.465033-1.22753-.59493-1.409387-.0084-2.818773-.01689-4.221665-.02527.0049-.798869.0026-1.597738.0026-2.396607zm-8.118586-11.0412772c-.870313 1.4743353-1.74712 2.9486705-2.617433 4.4230058 1.337943.3338363 3.292899 2.8967114 4.111253 1.2275302.453341-1.4483557 2.552483-2.8902167 1.94846-4.3645519-.522187-.9027868-.98722-2.2732042-2.299183-2.0458838-.479322.040268-.909282.3422796-1.136602.7598997zm3.93589 5.0724927h5.260844c.876807-1.4938199 1.753615-2.9811449 2.630422-4.4749647-.714435.4046303-1.428871.8118586-2.143307 1.2145405-.609868-.8703125-.96124-1.9744402-1.805573-2.6434117-1.376912-.3065578-2.838258-.0805364-4.247645-.1500315-1.156086-.2078358.371507.9742304.455291 1.5327891.662476 1.1301072 1.324953 2.2602144 1.98743 3.3903216-.714436.3773519-1.422377.7534048-2.136812 1.1301072zm-6.754663 12.0155075c.98722.7599 2.318668.32929 3.481249.442301h2.831763v-4.111252h-5.475174c-.516992 1.123612-2.032894 2.45506-.844333 3.669601zm1.039179-9.872201h-5.2608443c.7144355.404631 1.4288711.811859 2.1433063 1.214541-.4819189.954746-1.2794888 1.792584-1.4743348 2.857742.3150011 1.234025 1.2080456 2.247225 1.7795938 3.377332.459837 1.324953.707941.08443 1.169077-.589085.72093-1.221035 1.441861-2.44207 2.156296-3.656611.701446.413723 1.402892.824849 2.104338 1.24052-.870313-1.48083-1.74712-2.96166-2.617432-4.44249zm-4.6957907 20.523786c-2.0069146.10132-3.9878496 1.337943-5.8129078 1.623718v3.513724c2.4680502-.116908 4.7217698-2.234235 7.2742535-1.2665 1.967945.876808 4.182695 1.363923 6.228579.40593 2.22774-1.00021 4.617852-.361115 6.754664.453991 2.610937 1.045674 4.96208-1.026189 7.534048-1.110623 1.474335-.242908 3.650116 1.331448 4.552903.779385v-3.305889c-2.169286-.622208-4.494449-1.669181-6.754664-.655982-2.143306 1.052169-4.598367 1.260005-6.819612.213032-2.195266-1.026189-4.546408-.302011-6.689715.396187-2.21475.740415-4.143727-.967735-6.2935282-1.052169zm-.1662687-6.754663c-1.8900069.264341-4.0982623 1.22753-5.650536 1.72114v3.409806c2.4680502-.103918 4.7217697-2.24073 7.2742534-1.266499 1.96145.883302 4.182695 1.370417 6.228579.415022 2.22774-1.006705 4.617852-.373455 6.754664.447496 2.610937 1.052169 4.96208-1.026189 7.534048-1.110622 1.48083-.248104 3.650116 1.337943 4.552903.785879v-3.318878c-2.169286-.622209-4.494449-1.669182-6.754664-.649487-2.143306 1.052169-4.598367 1.266499-6.819612.215629-2.195266-1.026189-4.546408-.301361-6.689715.396837-2.273204.766394-4.24115-1.065159-6.4623947-1.052169zm15.0031474-13.119636c1.039179 1.487325 1.786089 3.49424 2.994135 4.676306 1.110622-.105217 2.565473.383847 3.266919-.77289.616363-1.22753-.598178-2.240729-1.071654-3.292898-.515692-.883302-1.032684-1.7601096-1.545778-2.6434118-1.221036.6689715-2.429081 1.3574278-3.643622 2.0328938zm-.25265 3.124032c-.870313 1.49382-1.74712 2.981145-2.617433 4.474965.870313 1.474335 1.74712 2.94867 2.617433 4.423006v-2.396607c1.091138-.06391 2.234235.15133 3.286403-.157825.948251-.915777 1.428871-2.22774 2.162792-3.325373.928766-1.045674-.504002-.465033-1.227531-.59493-1.409386-.0084-2.818773-.01689-4.221664-.02527.0049-.798869.0026-1.597738.0026-2.396607zm-8.118587-11.0412771c-.870312 1.4743352-1.747119 2.9486705-2.617432 4.4230057 1.337943.3338363 3.292899 2.8967114 4.111252 1.2275303.453342-1.4483558 2.552484-2.8902167 1.948461-4.364552-.522188-.9027868-.98722-2.2732041-2.299184-2.0458837-.479321.0402682-.909281.3422796-1.136602.7598997zm3.935891 5.0724926h5.260844c.876807-1.4938198 1.753614-2.9811448 2.630422-4.4749647-.714436.4046303-1.428871.8118586-2.143307 1.2145405-.609868-.8703124-.961241-1.9744402-1.805574-2.6434117-1.376912-.3065578-2.838257-.0805364-4.247644-.1500314-1.156087-.2078359.371507.9742303.45529 1.532789.662477 1.1301072 1.324954 2.2602144 1.98743 3.3903217-.714435.3773518-1.422376.7534048-2.136812 1.1301072zm-6.754664 12.0155075c.98722.7599 2.318668.32929 3.48125.442301h2.831763v-4.111252h-5.475175c-.516991 1.123612-2.032894 2.45506-.844333 3.669601zm1.039179-9.872201h-5.2608436c.7144355.404631 1.4288711.811859 2.1433066 1.214541-.4819192.954746-1.2794891 1.792584-1.4743351 2.857742.3150011 1.234025 1.2080456 2.247225 1.7795941 3.377332.459837 1.324953.707941.08443 1.169076-.589085.720931-1.221035 1.441861-2.44207 2.156297-3.656611.701446.413723 1.402892.824849 2.104337 1.24052-.870312-1.48083-1.747119-2.96166-2.617432-4.44249z" style="fill:none;opacity:.8;stroke:#ffffff;stroke-linecap:round;stroke-linejoin:round;stroke-opacity:.8;stroke-width:3.40331"/>
	<path d="m18.454756 2.2117751c-.624157.03228.637146 1.0521688.714435 1.5522737.662477 1.1301072 1.324954 2.2602144 1.98743 3.3903216-.714435.3773519-1.422376.7534048-2.136812 1.1301072h5.260844c.876808-1.4938199 1.753615-2.9811449 2.630422-4.4749647-.714435.4046303-1.428871.8118586-2.143307 1.2145405-.609868-.8703125-.96124-1.9744402-1.805573-2.6434117-1.376912-.3065578-2.838258-.0805364-4.247644-.1500315-.108465-.0194846-.192898-.0266939-.257847-.0233166zm-1.993925.2169286c-.07534.00204-.154578.00987-.236413.023836-.479322.040268-.909282.3422796-1.136602.7598997-.870313 1.4743352-1.74712 2.9486705-2.617433 4.4230058 1.337943.3338362 3.292899 2.8967118 4.111253 1.2275302.453341-1.4483558 2.552483-2.8902167 1.94846-4.364552-.489063-.8443327-.928766-2.1043373-2.065368-2.071863zm10.651585 6.6897151c-1.221035.6689715-2.429081 1.3574272-3.643621 2.0328942 1.039179 1.487325 1.786089 3.494239 2.994134 4.676305 1.110623-.105216 2.565473.383847 3.266919-.772889.616363-1.22753-.598177-2.24073-1.071653-3.292899-.515693-.883302-1.032684-1.760109-1.545779-2.6434112zm-19.029966 1.3704172c.7144355.40463 1.4288711.811859 2.143307 1.214541-.4819196.954745-1.2794895 1.792584-1.4743355 2.857742.3150011 1.234025 1.2080456 2.247225 1.7795945 3.377332.459836 1.324953.70794.08443 1.162581-.589085.720931-1.221035 1.441861-2.44207 2.156297-3.656611.701445.413723 1.402891.824848 2.104337 1.24052-.870312-1.48083-1.74712-2.96166-2.617432-4.44249h-.00013-5.2608438zm15.133045 3.780014c-.870313 1.49382-1.74712 2.981145-2.617432 4.474965.870312 1.474335 1.747119 2.94867 2.617432 4.423005v-2.396606c1.091138-.06391 2.234235.15133 3.286403-.157826.948251-.915776 1.428872-2.22774 2.162792-3.325372.928766-1.045674-.504002-.465033-1.22753-.59493-1.409387-.0084-2.818774-.01682-4.221665-.02527.0049-.798868.0025-1.597737.0025-2.396606zm-10.067047 2.409596c-.516992 1.123613-2.032894 2.455061-.844333 3.669601v.00013c.98722.7599 2.318668.32929 3.48125.442301h2.831762v-4.111252h-5.475174zm-4.6633162 7.598997c-1.8900068.264341-4.0982623 1.22753-5.650536 1.72114v3.409807c2.4680502-.103918 4.7217698-2.24073 7.2742532-1.2665 1.961451.883302 4.182696 1.370417 6.228579.415022 2.227741-1.006704 4.617852-.374104 6.754664.447497 2.610938 1.052168 4.96208-1.02619 7.534048-1.110623 1.48083-.248104 3.650117 1.337943 4.552903.785879v-3.318878c-2.169286-.622208-4.494449-1.669181-6.754663-.649487-2.143307 1.052169-4.598368 1.2665-6.819613.21563-2.195266-1.026189-4.546408-.301362-6.689715.396836-2.273204.766395-4.241149-1.065158-6.4623945-1.052168h-.0001299zm.1662687 6.754664c-2.0069145.10132-3.9878496 1.337943-5.8129078 1.623717v3.513724c2.4680502-.116907 4.7217698-2.234235 7.2742533-1.266499 1.967945.876807 4.182696 1.363922 6.228579.405929 2.22774-1.00021 4.617852-.361115 6.754664.453991 2.610937 1.045674 4.96208-1.026189 7.534048-1.110622 1.474335-.242908 3.650117 1.331448 4.552903.779384v-3.305888c-2.169286-.622209-4.494449-1.669182-6.754663-.655982-2.143307 1.052169-4.598368 1.260005-6.819613.213032-2.195266-1.02619-4.546408-.302012-6.689715.396836-2.21475.740415-4.143726-.967735-6.293528-1.052169z" opacity=".8" stroke-width=".064949"/>
</svg>
