<svg width="26" height="26" version="1.1" viewBox="0 0 26 26" xmlns="http://www.w3.org/2000/svg">
 <rect x="1" y="1" width="24" height="24" rx="4.7952" fill="#666666" stroke="#ffffff" stroke-width="2"/>
 <rect x="1" y="1" width="24" height="24" rx="4.7952" fill="#666666"/>
 <g fill="#00ffff">
  <rect x="3.0093" y="16.969" width="5.9907" height="1.9518"/>
  <rect x="3.0093" y="14" width="5.9907" height="1.9518"/>
  <rect x="3.0093" y="11" width="5.9907" height="1.9518"/>
  <rect x="3.0093" y="7.9688" width="5.9907" height="1.9518"/>
  <rect x="3.0093" y="19.969" width="5.9907" height="1.9518"/>
 </g>
 <path d="m12.184 8.4414c-.1476-.2803-.4979-.4797-.9002-.4797l-1.2998.01v13.952h6.157l-3.957-13.477z" fill="#ffffff"/>
 <path d="m16.833 20.271c.109.028.2181.042.3271.042.2899 0 .5665-.087.8112-.229.2553-.156.5346-.2428.8351-.2428.2952 0 .5771.087.8324.2428.2447.1422.524.229.8113.229.2872 0 .5611-.087.8111-.229.25-.156.5345-.2428.8325-.2428.2979 0 .5824.087.8351.2428.2446.1422.5186.229.8111.229v1.5787c-.2899 0-.5665-.079-.8111-.222-.2553-.1561-.5399-.2429-.8351-.2429-.2953 0-.5825.087-.8325.2429-.25.1422-.5239.222-.8111.222-.2873 0-.5666-.079-.8113-.222-.2553-.1561-.5345-.2429-.8324-.2429-.3005 0-.5825.087-.8351.2429-.2447.1422-.5186.222-.8112.222h-.048l-.2792-1.6203z" fill="#00ffff"/>
 <path d="m16.348 17.173c.2501.1423.5239.2291.8112.2291.2899 0 .5665-.087.8112-.2291.2553-.1561.5346-.2429.8351-.2429.2952 0 .5771.087.8324.2429.2447.1423.524.2291.8113.2291.2872 0 .5611-.087.8111-.2291.25-.1561.5345-.2429.8325-.2429.2979 0 .5824.087.8351.2429.2446.1423.5186.2291.8111.2291v1.5787c-.2899 0-.5665-.079-.8111-.2221-.2553-.1562-.5399-.243-.8351-.243-.2953 0-.5825.087-.8325.243-.25.1423-.5239.2221-.8111.2221-.2873 0-.5666-.079-.8113-.2221-.2553-.1562-.5345-.243-.8324-.243-.3005 0-.5825.087-.8351.243-.2447.1423-.5186.2221-.8112.2221-.1755 0-.3484-.028-.5133-.087l-.2979-1.721z" fill="#00ffff"/>
 <path d="m2.9995 5.9472h6.5625c1.2813 0 3.5625-.1562 4.4688 1.0938.998 1.3765 1.75 4.5 2.2188 6.0312.4687 1.5313 1.8125 5.5 1.8125 5.5" fill="none" stroke="#00ffff" stroke-width="2"/>
</svg>
