<svg id="SVGRoot" width="32" height="29" version="1.1" viewBox="0 0 32 29" xmlns="http://www.w3.org/2000/svg">
 <g fill="#ff0000">
  <path d="m15.947 4.3515-10 5.9938v17.006h20v-16.911z" stroke="#ffffff" stroke-width="2"/>
  <path d="m15.942 1.3515-0.93126 0.608-13.069 8.128a1.8875 1.8865 0 1 0 1.8936 3.264l12.137-7.52 12.075 7.488a1.9013 1.9004 0 0 0 1.8936-3.296l-13.007-8.064z" color="#000000" stroke="#ffffff" stroke-width="2" style="text-decoration-line:none;text-indent:0;text-transform:none"/>
  <path d="m15.947 4.26-10 5.9938v17.006h20v-16.911z"/>
  <path d="m15.942 1.26-0.93126 0.608-13.069 8.128a1.8875 1.8865 0 1 0 1.8936 3.264l12.137-7.52 12.075 7.488a1.9013 1.9004 0 0 0 1.8936-3.296l-13.007-8.064z" color="#000000" style="text-decoration-line:none;text-indent:0;text-transform:none"/>
 </g>
 <path d="m15.98 5.5915-6.9832 4.1116v13.993h13.901v-13.928z" fill="#ffcaca"/>
 <g fill="#ffff00">
  <g stroke="#000000" stroke-width="2">
   <rect x="12.973" y="16.871" width="11" height="2" color="#000000"/>
   <rect x="20.898" y="17.875" width="2" height="3" color="#000000"/>
   <path d="m10.973 13.832c-2.2091 0-4 1.7909-4 4s1.7909 4 4 4 4-1.7909 4-4-1.7909-4-4-4zm0 2c1.1046 0 2 0.89543 2 2s-0.89543 2-2 2-2-0.89543-2-2 0.89543-2 2-2z" color="#000000"/>
  </g>
  <rect x="12.973" y="16.832" width="11" height="2" color="#000000"/>
  <rect x="20.898" y="17.836" width="2" height="3" color="#000000"/>
  <path d="m10.973 13.792c-2.2091 0-4 1.7909-4 4s1.7909 4 4 4 4-1.7909 4-4-1.7909-4-4-4zm0 2c1.1046 0 2 0.89543 2 2s-0.89543 2-2 2-2-0.89543-2-2 0.89543-2 2-2z" color="#000000"/>
 </g>
</svg>
