<svg id="SVGRoot" width="38" height="41" version="1.1" viewBox="0 0 38 41" xmlns="http://www.w3.org/2000/svg">
 <g transform="matrix(.6429 0 0 .6429 4.0324 -2.005)" fill-rule="evenodd">
  <path d="m22.367 25.847c-0.10213 0.0012-0.37147 0.0058-0.64603 0.01025-0.16031 9.5e-5 -0.19188 9.88e-4 -0.3962 7.9e-4 -0.26898 1.6068-4.7057 26.518-5.717 33.429 4.4038 0 5.2831 0.0033 7.2807 0.0024 1.9976 8.89e-4 2.8771-0.0024 7.2809-0.0024-1.0113-6.9105-5.4482-31.822-5.7172-33.429-0.20434 1.98e-4 -0.23587-6.91e-4 -0.39619-7.9e-4 -0.90454-0.0148-0.74991-0.01006-1.1675-0.0043-0.29063-4e-3 -0.28713-0.0086-0.52149-6e-3z" fill="none" stroke="#ffffff" stroke-linejoin="round" stroke-width="3.1109"/>
  <path d="m22.367 25.847c-0.10213 0.0012-0.37147 0.0058-0.64603 0.01025-0.16031 9.5e-5 -0.19188 9.88e-4 -0.3962 7.9e-4 -0.26898 1.6068-4.7057 26.518-5.717 33.429 4.4038 0 5.2831 0.0033 7.2807 0.0024 1.9976 8.89e-4 2.8771-0.0024 7.2809-0.0024-1.0113-6.9105-5.4482-31.822-5.7172-33.429-0.20434 1.98e-4 -0.23587-6.91e-4 -0.39619-7.9e-4 -0.90454-0.0148-0.74991-0.01006-1.1675-0.0043-0.29063-4e-3 -0.28713-0.0086-0.52149-6e-3z" fill="#000000" stroke-width="2.0221"/>
 </g>
 <path d="m8.6958 13.287v4.0941l7.932-1.4118v-1.2704z" fill="none" stroke="#000000" stroke-linejoin="round" stroke-width="1.6072"/>
 <path d="m35.737 12.156-1.8099 6.1302-13.06-2.3168v-1.2704z" fill="none" stroke="#000000" stroke-linejoin="round" stroke-width="1.6072"/>
 <path d="m20.795 5.2823h-4.0941l1.4118 7.932h1.2704z" fill="none" opacity=".8" stroke="#000000" stroke-linejoin="round" stroke-width="1.607"/>
 <path d="m20.795 25.386h-4.0941l1.4118-7.932h1.2704z" fill="#ffffff" opacity=".8" stroke-width="0"/>
 <path d="m10.192 20.994 2.8949 2.8949 4.6105-6.6071-0.89828-0.89828z" fill="none" stroke="#000000" stroke-linejoin="round" stroke-width="1.6072"/>
 <path d="m24.408 6.7789 2.8949 2.8949-6.6071 4.6105-0.89828-0.89828z" fill="none" stroke="#000000" stroke-linejoin="round" stroke-width="1.6072"/>
 <path d="m13.087 6.7789-2.8949 2.8949 6.6071 4.6105 0.89828-0.89828z" fill="none" stroke="#000000" stroke-linejoin="round" stroke-width="1.6072"/>
 <path d="m27.303 20.994-2.8949 2.8949-4.6105-6.6071 0.89828-0.89828z" fill="none" stroke="#000000" stroke-linejoin="round" stroke-width="1.6072"/>
 <path d="m8.6958 13.287v4.0941l7.932-1.4118v-1.2704z" fill="#ffffff" stroke-width=".063547"/>
 <path d="m35.737 12.156-1.8099 6.1302-13.06-2.3168v-1.2704z" fill="#ffffff" stroke-width=".063647"/>
 <path d="m20.795 5.2823h-4.0941l1.4118 7.932h1.2704z" fill="#ffffff" stroke-width=".052464"/>
 <path d="m20.795 25.386h-4.0941l1.4118-7.932h1.2704z" fill="#ffffff" stroke-width=".052464"/>
 <path d="m10.192 20.994 2.8949 2.8949 4.6105-6.6071-0.89828-0.89828z" fill="#ffffff" stroke-width=".052464"/>
 <path d="m24.408 6.7789 2.8949 2.8949-6.6071 4.6105-0.89828-0.89828z" fill="#ffffff" stroke-width=".052464"/>
 <path d="m13.087 6.7789-2.8949 2.8949 6.6071 4.6105 0.89828-0.89828z" fill="#ffffff" stroke-width=".052464"/>
 <path d="m27.303 20.994-2.8949 2.8949-4.6105-6.6071 0.89828-0.89828z" fill="#ffffff" stroke-width=".052717"/>
</svg>
