<svg width="38" height="41" version="1.1" viewBox="0 0 38 41" xmlns="http://www.w3.org/2000/svg">
 <g fill-rule="evenodd">
  <path d="m10.596 40.031 4.0271-25.16 3.9939-2.3915 3.907 2.4553 4.0555 25.096z" stroke="#fff" stroke-width="2"/>
  <path d="m10.596 40.031 4.0271-25.16 3.9939-2.3915 3.907 2.4553 4.0555 25.096z"/>
  <path d="m6.6146 0.55373a0.93931 0.93931 0 0 0-0.3785 0.25235l-4.6052 4.3529a0.93931 0.93931 0 0 0 0 1.3879l13.69 11.734-13.69 11.671a0.93931 0.93931 0 0 0 0 1.3879l4.6052 4.3529a0.93931 0.93931 0 0 0 1.3879-0.12617l10.977-14.951 10.914 14.951a0.93931 0.93931 0 0 0 1.3881 0.12617l4.6682-4.3529a0.93931 0.93931 0 0 0-0.063-1.3879l-13.626-11.671 13.626-11.734a0.93931 0.93931 0 0 0 0.063-1.3879l-4.6682-4.3529a0.93931 0.93931 0 0 0-0.8202-0.25235 0.93931 0.93931 0 0 0-0.5679 0.37851l-10.914 14.951-10.977-14.951a0.93931 0.93931 0 0 0-0.9463-0.37851 0.93931 0.93931 0 0 0-0.063 0zm11.986 17.096 0.6309 0.56778-0.6309 0.56776-0.6308-0.56776z" color="#000000" fill="#fff" stroke="#000" stroke-width="1.1353" style="text-decoration-line:none;text-indent:0;text-transform:none"/>
 </g>
</svg>
