<svg width="35.129" height="42.551" version="1.1" viewBox="0 0 35.129 42.551" xmlns="http://www.w3.org/2000/svg">
 <g>
  <rect x="1" y="11.551" width="30" height="30" rx="4" fill="#6a3600" stroke="#fff" stroke-width="2"/>
  <path d="m28.137 0.99995c-3.9946 5.9919-7.5582 9.9969-11.984 13.981-4.2275 3.8058-11.984 2.4992-11.984 7.9892v1.9973c0 1.9972 1.9973 3.8977 1.9973 5.9918v1.9973c0 2.996-0.9986 2.996-1.9973 5.9919h1.9973l3.9946-5.9919v5.9919h1.9973v-2.9959-8.9879h3.9946v11.984h1.9973v-5.9919-2.9959l1.9973 2.9959 1.9973 5.9919h1.9973l-3.0584-12.546c1.1774-0.7184 1.0611-2.0465 1.0611-3.4328v-5.9919l7.9892-10.985 2.8711 0.8894c0.5986 0.1854 1.1235 0.1092 1.1235-0.3901 0-0.9987-0.6524-1.221-0.9987-1.498z" color="#000000" stroke="#954a00" stroke-linejoin="round" stroke-width="2"/>
  <rect x="1" y="11.551" width="30" height="30" rx="4" fill="#743a00"/>
  <path d="m28.137 0.99995c-3.9946 5.9919-7.5582 9.9969-11.984 13.981-4.2275 3.8058-11.984 2.4992-11.984 7.9892v1.9973c0 1.9972 1.9973 3.8977 1.9973 5.9918v1.9973c0 2.996-0.9986 2.996-1.9973 5.9919h1.9973l3.9946-5.9919v5.9919h1.9973v-2.9959-8.9879h3.9946v11.984h1.9973v-5.9919-2.9959l1.9973 2.9959 1.9973 5.9919h1.9973l-3.0584-12.546c1.1774-0.7184 1.0611-2.0465 1.0611-3.4328v-5.9919l7.9892-10.985 2.8711 0.8894c0.5986 0.1854 1.1235 0.1092 1.1235-0.3901 0-0.9987-0.6524-1.221-0.9987-1.498z" color="#000000" fill="#edf3a3"/>
 </g>
</svg>
